<svg xmlns="http://www.w3.org/2000/svg" viewBox="0 0 640 320"><defs><style>.cls-1{fill:red;}.cls-2{fill:#0d0a09;}</style></defs><g id="body"><path class="cls-1" d="M512,206c0,67.72-86,31-192,31s-192,36.68-192-31S214,83.34,320,83.34,512,138.24,512,206Z"/><path class="cls-2" d="M180.27,250.15c-19,0-33.94-2.83-43.62-11.54-8-7.22-11.92-17.9-11.92-32.65,0-33.9,20.5-65.67,57.74-89.45C219.25,93,268.1,80.09,320,80.09S420.75,93,457.53,116.51c37.24,23.78,57.74,55.55,57.74,89.45,0,14.75-3.89,25.43-11.92,32.65-17.72,15.95-53.27,12.19-98.27,7.42-25.58-2.71-54.56-5.78-85.08-5.78s-59.5,3.07-85.08,5.78C214.5,248.19,196,250.15,180.27,250.15ZM320,233.75c30.86,0,60,3.09,85.77,5.82,43.39,4.59,77.66,8.22,93.24-5.79,6.57-5.92,9.76-15,9.76-27.82,0-65.82-84.68-119.37-188.77-119.37S131.23,140.14,131.23,206c0,12.8,3.19,21.9,9.76,27.82,15.58,14,49.85,10.38,93.24,5.79C260,236.84,289.14,233.75,320,233.75Z"/></g></svg>