<svg xmlns="http://www.w3.org/2000/svg" viewBox="0 0 640 320"><defs><style>.cls-1{fill:blue;}.cls-2{fill:#0d0a09;}</style></defs><g id="body"><g id="fills"><path class="cls-1" d="M158.38,106.18c0-89.26,72.36-40.91,161.62-40.91s161.62-48.35,161.62,40.91a161.62,161.62,0,0,1-323.24,0Z"/></g><path class="cls-2" d="M320,271.05c-90.91,0-164.87-74-164.87-164.87,0-23.47,5-39.16,15.43-48,16.51-14,43.68-9.5,78.07-3.8C270.1,58,294.44,62,320,62s49.9-4,71.37-7.6c34.39-5.7,61.56-10.21,78.07,3.8,10.39,8.8,15.43,24.49,15.43,48C484.87,197.09,410.91,271.05,320,271.05ZM202.23,55.43c-11.43,0-20.75,2-27.47,7.74-8.84,7.49-13.13,21.56-13.13,43,0,87.33,71,158.37,158.37,158.37s158.37-71,158.37-158.37c0-21.45-4.29-35.52-13.13-43-14.22-12.05-40.07-7.76-72.81-2.34-21.72,3.61-46.33,7.69-72.43,7.69s-50.71-4.08-72.43-7.69C230.31,58,215,55.43,202.23,55.43Z"/></g></svg>