<svg xmlns="http://www.w3.org/2000/svg" viewBox="0 0 640 320"><defs><style>.cls-1{fill:red;}.cls-2{fill:#0d0a09;}</style></defs><g id="top-shape"><path class="cls-1" d="M423.83,230c-20.17-36.6-8.7-128.78-103.83-128.78C221.5,99.47,236.34,193.44,216.17,230a161.63,161.63,0,0,0,207.66,0Z"/><path class="cls-2" d="M320,271.05a165.1,165.1,0,0,1-105.92-38.52L212,230.81l1.29-2.34c5-9.14,7.91-22.56,11-36.78,4.46-20.87,9.52-44.52,22.86-62.83C262.69,107.49,286.51,97.4,320.06,98c32.43,0,55.83,10.41,71.46,31.82,13.4,18.34,18.92,41.8,23.79,62.5,3.28,13.92,6.37,27.07,11.37,36.14l1.29,2.34-2.05,1.72A165.1,165.1,0,0,1,320,271.05ZM220.26,229.2a158.38,158.38,0,0,0,199.48,0c-4.69-9.6-7.64-22.15-10.76-35.38-9.85-41.86-21-89.31-89-89.31-31.33-.57-53.4,8.65-67.62,28.17-12.52,17.2-17.43,40.14-21.76,60.37C227.73,206.6,225,219.46,220.26,229.2Z"/><path class="cls-2" d="M320,248.09c-30.32,0-58.67-9.3-83.69-17.51-6.09-2-11.85-3.88-17.44-5.58l1.88-6.22c5.66,1.72,11.45,3.62,17.59,5.63,24.55,8.05,52.38,17.18,81.66,17.18s57.05-9.12,81.58-17.16c6.15-2,11.95-3.92,17.62-5.63l1.88,6.22c-5.59,1.69-11.36,3.58-17.47,5.59C378.62,238.8,350.29,248.09,320,248.09Z"/><path class="cls-2" d="M320,213.43c-27.92,0-54-8.56-77-16.11-5.61-1.84-10.9-3.58-16-5.13l1.88-6.22c5.21,1.57,10.54,3.32,16.18,5.17,22.56,7.4,48.12,15.79,75,15.79s52.39-8.38,74.93-15.77c5.65-1.85,11-3.6,16.2-5.18L413,192.2c-5.14,1.56-10.45,3.3-16.06,5.14C374,204.88,347.89,213.43,320,213.43Z"/><path class="cls-2" d="M320,163.48c-23.25,0-45-6.36-64.14-12-4.66-1.36-9.07-2.65-13.33-3.81l1.69-6.27c4.34,1.17,8.77,2.47,13.47,3.84,18.74,5.49,40,11.71,62.31,11.71s43.53-6.21,62.26-11.69c4.71-1.38,9.15-2.68,13.49-3.85l1.69,6.27c-4.27,1.16-8.68,2.45-13.35,3.82C364.93,157.13,343.23,163.48,320,163.48Z"/></g></svg>