<svg xmlns="http://www.w3.org/2000/svg" viewBox="0 0 640 320"><defs><style>.cls-1{fill:#fcfcfc;}.cls-2{fill:#0d0a09;}</style></defs><g id="body"><path class="cls-1" d="M440.46,140.31,571.86,14a4.18,4.18,0,0,1,7,2.25c3.11,17.6,6.92,63.05-26.09,100.33l37.6-29.29a4.18,4.18,0,0,1,6.77,3.27c-.13,15.72-6,51.5-51.62,83.32l34.7-10.35a4.2,4.2,0,0,1,4.73,6.3c-5,7.73-14.65,19-32.54,28.46-45.25,23.86-124,9.76-124,9.76Z"/><path class="cls-2" d="M479.93,215.51a323.48,323.48,0,0,1-52-4.26l-3.19-.57,12.73-72,132.16-127a7.45,7.45,0,0,1,7.49-1.71,7.38,7.38,0,0,1,5,5.74c2.71,15.36,5.85,50.79-13.48,84.46L588.4,84.72a7.43,7.43,0,0,1,7.9-.8,7.32,7.32,0,0,1,4.12,6.67c-.11,13.23-4.45,45-39.23,75.23l18.13-5.4a7.44,7.44,0,0,1,8.39,11.17c-5.21,8.12-15.29,19.83-33.75,29.57C532.56,212.45,504.28,215.51,479.93,215.51Zm-47.67-10.15c15.11,2.27,80,10.44,118.66-10,17.22-9.08,26.54-19.87,31.32-27.33a1,1,0,0,0-1.06-1.44l-54,16.12,16.54-11.54c45-31.4,50.11-66.89,50.23-80.68a.82.82,0,0,0-.49-.79,1,1,0,0,0-1,.1l-37.6,29.3-4.43-4.72c32-36.16,28.37-80.31,25.32-97.62a.84.84,0,0,0-.61-.69.93.93,0,0,0-1,.22L443.48,141.92Z"/><path class="cls-2" d="M523.84,82.45l-4,5.47c-1.33,1.83-2.82,3.53-4.22,5.3s-3,3.43-4.46,5.12l-2.27,2.52-2.38,2.43a190.73,190.73,0,0,1-20.32,18,255,255,0,0,1-22.64,14.94c-7.75,4.65-15.68,9-23.6,13.25a1,1,0,1,1-.92-1.7h0c7.92-4.29,15.82-8.59,23.53-13.21a253,253,0,0,0,22.3-15,189.66,189.66,0,0,0,20.47-17.4l2.4-2.36L510,97.3c1.53-1.64,3.1-3.25,4.52-5s3-3.36,4.37-5.13l4.17-5.29v0a.47.47,0,0,1,.75.57Z"/><path class="cls-2" d="M504.25,121.47l-4.69,4.89c-1.56,1.64-3.26,3.14-4.88,4.71s-3.37,3-5.08,4.5l-2.58,2.2-2.67,2.1a191,191,0,0,1-22.49,15.19,254,254,0,0,1-24.39,11.87c-8.29,3.6-16.72,6.84-25.13,10.07a1,1,0,0,1-.69-1.8h0c8.41-3.23,16.81-6.46,25.05-10a248.89,248.89,0,0,0,24.07-12,188.78,188.78,0,0,0,22.56-14.59l2.69-2,2.6-2.13c1.73-1.43,3.49-2.82,5.13-4.35s3.39-2.94,5-4.52l4.82-4.7,0,0a.48.48,0,0,1,.67,0A.49.49,0,0,1,504.25,121.47Z"/><path class="cls-2" d="M472.87,168.11A216.43,216.43,0,0,0,496.62,156a210.81,210.81,0,0,0,21.88-15c3.48-2.72,7.08-5.3,10.63-8s6.9-5.6,10.2-8.6c6.62-6,12.95-12.31,19.26-18.75a3.48,3.48,0,1,1,5,4.87l-.06,0c-6.44,6.29-12.87,12.7-19.53,18.9-3.33,3.1-6.76,6.1-10.12,9.21a101.05,101.05,0,0,1-10.61,8.73,174.64,174.64,0,0,1-23.66,14.05A152.13,152.13,0,0,1,474,171.32a1.7,1.7,0,0,1-1.14-3.2Z"/><path class="cls-2" d="M504.42,187.29a121.12,121.12,0,0,1-19.33,3.23,135.38,135.38,0,0,1-19.63.18A183.16,183.16,0,0,1,446,188c-6.43-1.16-12.79-2.61-19.14-4a1,1,0,1,1,.41-1.89h0c6.34,1.46,12.68,2.85,19.06,4a181.05,181.05,0,0,0,19.24,2.35,140.43,140.43,0,0,0,19.35.31,137.29,137.29,0,0,0,19.24-2.42.47.47,0,0,1,.56.36A.49.49,0,0,1,504.42,187.29Z"/><path class="cls-1" d="M199.54,140.31,68.14,14a4.18,4.18,0,0,0-7,2.25C58,33.85,54.19,79.3,87.2,116.58L49.6,87.29a4.18,4.18,0,0,0-6.77,3.27c.13,15.72,6,51.5,51.62,83.32l-34.7-10.35a4.2,4.2,0,0,0-4.73,6.3c5,7.73,14.65,19,32.54,28.46,45.25,23.86,124,9.76,124,9.76Z"/><path class="cls-2" d="M160.07,215.51c-24.35,0-52.62-3.06-74-14.35-18.46-9.74-28.54-21.45-33.75-29.57a7.44,7.44,0,0,1,8.39-11.17l18.13,5.4c-34.78-30.24-39.12-62-39.23-75.23a7.32,7.32,0,0,1,4.12-6.67,7.43,7.43,0,0,1,7.9.8l19.79,15.42C52.06,66.47,55.2,31,57.91,15.68a7.38,7.38,0,0,1,5-5.74,7.45,7.45,0,0,1,7.49,1.71l132.16,127,12.73,72-3.2.57A323.14,323.14,0,0,1,160.07,215.51ZM58.5,166.6a.87.87,0,0,0-.71.38.89.89,0,0,0,0,1.1c4.78,7.46,14.11,18.25,31.32,27.33,38.64,20.38,103.55,12.22,118.66,10l-11.22-63.44L65.89,16.34a.93.93,0,0,0-1-.22.84.84,0,0,0-.61.69c-3.05,17.31-6.7,61.46,25.33,97.62l-4.44,4.72L47.6,89.85a1,1,0,0,0-1-.1.82.82,0,0,0-.49.79c.12,13.79,5.25,49.28,50.23,80.68l16.54,11.54-54-16.12A1.27,1.27,0,0,0,58.5,166.6Z"/><path class="cls-2" d="M116.92,81.9l4.17,5.29c1.38,1.77,2.92,3.42,4.37,5.13s3,3.34,4.52,5l2.3,2.45,2.4,2.36a189.66,189.66,0,0,0,20.47,17.4,253,253,0,0,0,22.3,15c7.71,4.62,15.61,8.92,23.53,13.21a1,1,0,0,1-.92,1.7h0c-7.92-4.29-15.85-8.6-23.6-13.25a255,255,0,0,1-22.64-14.94,190.73,190.73,0,0,1-20.32-18l-2.38-2.43-2.27-2.52c-1.51-1.69-3.06-3.34-4.46-5.12s-2.89-3.47-4.22-5.3l-4-5.47a.46.46,0,0,1,.1-.65.48.48,0,0,1,.65.08Z"/><path class="cls-2" d="M136.44,120.82l4.82,4.7c1.6,1.58,3.33,3,5,4.52s3.4,2.92,5.13,4.35l2.6,2.13,2.69,2a188.78,188.78,0,0,0,22.56,14.59,248.89,248.89,0,0,0,24.07,12c8.24,3.58,16.64,6.81,25,10a1,1,0,0,1-.69,1.8h0c-8.41-3.23-16.84-6.47-25.13-10.07a254,254,0,0,1-24.39-11.87,191,191,0,0,1-22.49-15.19l-2.67-2.1-2.58-2.2c-1.71-1.48-3.46-2.91-5.08-4.5s-3.32-3.07-4.88-4.71l-4.69-4.89a.47.47,0,0,1,0-.67.47.47,0,0,1,.65,0Z"/><path class="cls-2" d="M166,171.32a152.13,152.13,0,0,1-25.59-9.83,174.64,174.64,0,0,1-23.66-14.05,101.05,101.05,0,0,1-10.61-8.73c-3.36-3.11-6.79-6.11-10.12-9.21-6.66-6.2-13.09-12.61-19.53-18.9a3.48,3.48,0,1,1,4.86-5l.06.06c6.31,6.44,12.64,12.77,19.26,18.75,3.3,3,6.64,5.94,10.2,8.6s7.15,5.26,10.63,8a210.81,210.81,0,0,0,21.88,15,216.43,216.43,0,0,0,23.75,12.13h0a1.7,1.7,0,0,1-1.14,3.2Z"/><path class="cls-2" d="M135.79,186.37A137.29,137.29,0,0,0,155,188.79a140.43,140.43,0,0,0,19.35-.31,181.05,181.05,0,0,0,19.24-2.35c6.38-1.14,12.72-2.53,19.06-4a1,1,0,0,1,1.15.72,1,1,0,0,1-.72,1.16h0c-6.35,1.39-12.71,2.84-19.14,4a183.16,183.16,0,0,1-19.42,2.68,135.38,135.38,0,0,1-19.63-.18,121.12,121.12,0,0,1-19.33-3.23.47.47,0,0,1,.21-.92Z"/></g></svg>