<svg xmlns="http://www.w3.org/2000/svg" viewBox="0 0 640 320"><defs><style>.cls-1{fill:blue;}.cls-2{fill:#0d0a09;}</style></defs><g id="top-shape"><path class="cls-1" d="M519.57,34.2a26.34,26.34,0,0,0-26.11-22.56H452.65A209.73,209.73,0,0,0,358.46,34L320,53.28,281.54,34a209.73,209.73,0,0,0-94.19-22.33H146.54A26.34,26.34,0,0,0,120.43,34.2c-7.51,52.8-3.07,95.8,12.42,131.38,23.89,54.88,66.83,50.64,83.36,64.5a161.65,161.65,0,0,0,207.58,0c16.53-13.86,59.47-9.62,83.36-64.5C522.64,130,527.08,87,519.57,34.2Z"/><path class="cls-2" d="M320,271.05a165,165,0,0,1-105.88-38.48c-4.4-3.69-11.28-6.11-19.24-8.91-20.08-7.06-47.57-16.73-65-56.79-16-36.8-20.16-80.35-12.66-133.13A29.72,29.72,0,0,1,146.54,8.39h40.81A214.18,214.18,0,0,1,283,31.06l37,18.59,37-18.59A214.18,214.18,0,0,1,452.65,8.39h40.81a29.72,29.72,0,0,1,29.33,25.35h0c7.5,52.78,3.36,96.33-12.66,133.13-17.44,40.06-44.93,49.73-65,56.79-8,2.8-14.84,5.22-19.24,8.91A165,165,0,0,1,320,271.05ZM146.54,14.89a23.18,23.18,0,0,0-22.89,19.77c-7.33,51.55-3.35,94,12.18,129.62,16.3,37.46,41.2,46.21,61.2,53.25,8.56,3,16,5.61,21.27,10.06a158.4,158.4,0,0,0,203.4,0c5.31-4.45,12.71-7.05,21.27-10.06,20-7,44.9-15.79,61.2-53.25,15.53-35.67,19.51-78.07,12.18-129.62h0a23.18,23.18,0,0,0-22.89-19.77H452.65a207.61,207.61,0,0,0-92.73,22L320,56.92,280.08,36.87a207.61,207.61,0,0,0-92.73-22Z"/></g></svg>