<svg xmlns="http://www.w3.org/2000/svg" viewBox="0 0 640 320"><defs><style>.cls-1{fill:blue;}.cls-2{fill:#0d0a09;}</style></defs><g id="Eyes"><path class="cls-1" d="M378.57,164.92c-14.83,17.29-13.92,41.73-1.94,59.71,11.28,16.91,39.64,26.62,68.49,26.63,50.29,0,78-52,75.67-90.93-.22-3.7-4.52-4.16-5.29-.58-5,23.16-18.76,60.31-55.61,52.74-21.69-4.45-33.56-22.5-40.06-41-6.61-18.78-26.45-23.87-38.55-9.75Z"/><path class="cls-2" d="M445.15,254.51h0c-31.89,0-59.83-11-71.19-28.08-13.71-20.56-12.83-46.12,2.17-63.62l2.71-3.16c6.18-7.21,14.61-10.42,23.14-8.83,9.42,1.77,17.25,9.1,20.95,19.62,7.83,22.27,20.5,35.34,37.65,38.87,34.16,7,47.1-28.47,51.77-50.24a6,6,0,0,1,6.2-5,6.12,6.12,0,0,1,5.52,6.07c1.5,24.77-8.7,52.63-26,71C483.64,246.42,465.34,254.51,445.15,254.51Zm-47.43-97.58c-5.14,0-10.11,2.44-14,6.95L381,167c-13.08,15.26-13.76,37.68-1.69,55.78,10,15.05,36.47,25.17,65.78,25.19h0c18.36,0,35-7.39,48.18-21.36,15.13-16.07,24.44-40,24.35-61.91-2.66,10.81-7.37,24.41-15.46,34.89-11,14.25-25.46,19.65-43,16.05-19.54-4-33.83-18.51-42.48-43.09-2.91-8.29-8.9-14-16-15.38A16.53,16.53,0,0,0,397.72,156.93Z"/></g></svg>