<svg xmlns="http://www.w3.org/2000/svg" viewBox="0 0 640 320"><defs><style>.cls-1{fill:red;}.cls-2{fill:#0d0a09;}</style></defs><g id="top-shape"><path class="cls-1" d="M423.78,230.06c-20.16-36.58-59.06-58.19-103.78-58.19s-83.62,21.61-103.78,58.19a161.56,161.56,0,0,0,207.56,0Z"/><path class="cls-2" d="M320,271.05a165,165,0,0,1-105.86-38.5l-2-1.72,1.29-2.34C234,191,273.9,168.62,320,168.62S406,191,426.62,228.49l1.29,2.34-2.05,1.72A165,165,0,0,1,320,271.05Zm-99.6-41.76a158.3,158.3,0,0,0,199.2,0c-19.85-34-56.87-54.17-99.6-54.17S240.25,195.31,220.4,229.29Z"/></g></svg>