<svg xmlns="http://www.w3.org/2000/svg" viewBox="0 0 640 320"><defs><style>.cls-1{fill:blue;}.cls-2{fill:#0d0a09;}</style></defs><g id="top-shape"><path class="cls-1" d="M481.62,106.18V53.28H158.38v52.9c0,26.5-17.1,61.38-5.8,83.45,9.92,19.36,47.1,26.59,63.63,40.45a161.65,161.65,0,0,0,207.58,0c16.53-13.86,53.71-21.09,63.63-40.45C498.72,167.56,481.62,132.68,481.62,106.18Z"/><path class="cls-2" d="M320,271.05a165,165,0,0,1-105.88-38.48c-6.19-5.19-15.6-9.48-25.56-14-15.91-7.24-32.36-14.73-38.87-27.45-7.61-14.86-3.37-34.51.72-53.51,2.32-10.75,4.72-21.86,4.72-31.42V50H484.87v56.15c0,9.56,2.4,20.67,4.72,31.42,4.09,19,8.33,38.65.72,53.51-6.51,12.72-23,20.21-38.87,27.45-10,4.53-19.37,8.82-25.56,14A165,165,0,0,1,320,271.05ZM161.63,56.53v49.65c0,10.25-2.47,21.71-4.86,32.79-3.86,17.89-7.85,36.39-1.3,49.18,5.49,10.7,20.89,17.71,35.78,24.49,10.38,4.73,20.18,9.19,27.05,15a158.4,158.4,0,0,0,203.4,0c6.87-5.76,16.67-10.22,27.05-15,14.89-6.78,30.29-13.79,35.78-24.49,6.55-12.79,2.56-31.29-1.3-49.18-2.39-11.08-4.86-22.54-4.86-32.79V56.53Z"/></g></svg>