<svg xmlns="http://www.w3.org/2000/svg" viewBox="0 0 640 320"><defs><style>.cls-1{fill:red;}.cls-2{fill:#0d0a09;}</style></defs><g id="top-shape"><path class="cls-1" d="M320,88.52c-44.72,0-130.36,48.78-103.78,141.54a161.56,161.56,0,0,0,207.56,0C450.36,137.3,364.72,88.52,320,88.52Z"/><path class="cls-2" d="M320,271.05a165,165,0,0,1-105.86-38.5l-.77-.64-.27-1c-13.06-45.56,1.3-77.82,15.64-96.85,24.16-32,64.2-48.83,91.26-48.83s67.1,16.78,91.26,48.83c14.34,19,28.7,51.29,15.64,96.85l-.27,1-.77.64A165,165,0,0,1,320,271.05ZM219.08,228.2a158.27,158.27,0,0,0,201.84,0c9.39-33.66,4.26-64.83-14.85-90.19C383.19,107.66,345.45,91.77,320,91.77S256.81,107.66,233.93,138C214.82,163.37,209.69,194.54,219.08,228.2Z"/></g></svg>