<svg xmlns="http://www.w3.org/2000/svg" viewBox="0 0 640 320"><defs><style>.cls-1{fill:red;}.cls-2{fill:#0d0a09;}.cls-3{fill:#fffade;}</style></defs><g id="body"><path class="cls-1" d="M248.58,18.85a85.27,85.27,0,0,0-29.87,5.41,21,21,0,0,0-35,14.82A21,21,0,0,0,160.6,60.73a25.52,25.52,0,0,0-12.66,12.88,27.5,27.5,0,0,0-1,2.78A29.62,29.62,0,0,0,135,117.57a29.63,29.63,0,0,0,.71,48.8,29.63,29.63,0,0,0,11.46,45c.23.67.48,1.33.77,2a25.48,25.48,0,0,0,12.66,12.88A21,21,0,0,0,183.67,248a21,21,0,0,0,32.86,16.55C255.72,284.39,269.65,254,280.84,254Z"/><path class="cls-2" d="M241.26,273.77c-7,0-15.06-1.77-24.58-6.4a23.49,23.49,0,0,1-35.28-16.82,23.49,23.49,0,0,1-23.3-22.71,28.06,28.06,0,0,1-12.44-13.42c-.17-.37-.33-.76-.49-1.17A32.14,32.14,0,0,1,132.25,167a32.14,32.14,0,0,1-.46-50.07A31.84,31.84,0,0,1,129.66,94a32.25,32.25,0,0,1,15.18-19.33c.25-.72.52-1.41.82-2.07A28,28,0,0,1,158.1,59.19a23.49,23.49,0,0,1,23.3-22.72,23.49,23.49,0,0,1,37.82-15,87.65,87.65,0,0,1,29.36-5.07h2.18l.29,2.16,32.66,238h-2.87c-2.44,0-5.74,2.44-9.56,5.27C264.31,266.89,255,273.77,241.26,273.77ZM216.34,261.6l1.32.67c26.39,13.4,40.41,3,50.65-4.56,3.48-2.58,6.61-4.89,9.72-5.82L246.4,21.38a82.94,82.94,0,0,0-26.81,5.22l-1.43.53-1.12-1a18.49,18.49,0,0,0-30.87,13.06l-.1,2.66-2.64-.27A18.49,18.49,0,0,0,163.1,60.64l.06,1.66-1.51.7a23.09,23.09,0,0,0-11.42,11.62,22.49,22.49,0,0,0-.93,2.51l-.31,1-.93.48a27.1,27.1,0,0,0-10.9,37.7l1.15,2-1.86,1.32a27.13,27.13,0,0,0,.65,44.69l2.21,1.48-1.61,2.12a27.13,27.13,0,0,0,10.49,41.25l1,.44.35,1c.23.67.46,1.26.7,1.8A23,23,0,0,0,161.65,224l1.51.7-.06,1.66a18.49,18.49,0,0,0,20.33,19.08l2.64-.26.1,2.66a18.5,18.5,0,0,0,28.94,14.58Z"/><path class="cls-3" d="M111.76,42.52c.66,12.33,2,23.4,13.86,37.82,3.8,4.62,9.13,7.16,14.22,6.64a18.36,18.36,0,0,0,12.21-6.27c10.88-12.32,3.14-19.6,3.14-19.6s-21.07-10.38-32.21-23C118.5,33,111.4,35.75,111.76,42.52Z"/><path class="cls-2" d="M113.66,42.42a107.24,107.24,0,0,0,1,11.41,46.37,46.37,0,0,0,3,10.87,45.6,45.6,0,0,0,5.78,9.73c.6.74,1.16,1.51,1.79,2.22a27.64,27.64,0,0,0,2,2,13.55,13.55,0,0,0,4.53,2.44,37.4,37.4,0,0,0,4.33,1.11,17.06,17.06,0,0,0,2,.27,17.27,17.27,0,0,0,2,0,15.16,15.16,0,0,0,8.67-3c.32-.25.63-.53.93-.81l.94-1a22.76,22.76,0,0,0,1.66-2,15,15,0,0,0,2.26-4.44,9.35,9.35,0,0,0,.33-4.45,8.83,8.83,0,0,0-.65-2,8.73,8.73,0,0,0-.51-.9c-.09-.15-.19-.28-.28-.41l-.14-.17-.06-.07.7.48a136.37,136.37,0,0,1-12.31-7.39A131.9,131.9,0,0,1,130,47.82l-1.38-1.16-1.35-1.21L126,44.24,124.68,43c-.88-.83-1.69-1.74-2.52-2.64l-1.11-1.22a7.06,7.06,0,0,0-1-.83,4,4,0,0,0-4.43-.21A4.75,4.75,0,0,0,113.66,42.42Zm-3.8.2a9.73,9.73,0,0,1,.66-4.31,7.88,7.88,0,0,1,2.89-3.59,7.73,7.73,0,0,1,4.49-1.31,8.75,8.75,0,0,1,4.37,1.32A10.67,10.67,0,0,1,124,36.09l1.3,1.34c.77.82,1.55,1.63,2.4,2.39L129,41l1.31,1.11,1.3,1.1,1.36,1A120.28,120.28,0,0,0,144.32,52c3.94,2.37,8.11,4.51,12.14,6.54l.41.2.29.28c.24.23.31.32.44.46l.33.39c.2.26.4.51.57.77a11.56,11.56,0,0,1,.93,1.63,13.12,13.12,0,0,1,1.11,3.54,15.63,15.63,0,0,1-.57,7.07,25.84,25.84,0,0,1-2.84,6l-.88,1.35-.93,1.3-.95,1.28c-.36.42-.7.88-1.09,1.29A23,23,0,0,1,148,88.66a19.41,19.41,0,0,1-6.63,2.62,16,16,0,0,1-3.79.3,16.52,16.52,0,0,1-3.79-.65,14.34,14.34,0,0,1-3.4-1.54,15.86,15.86,0,0,1-2.79-2.28,26.84,26.84,0,0,1-3.94-5.54A29,29,0,0,0,122.09,79c-.53-.85-1.09-1.68-1.64-2.51A76.09,76.09,0,0,1,114.8,65.9a58.45,58.45,0,0,1-3.55-11.48A89.9,89.9,0,0,1,109.86,42.62Z"/><path class="cls-3" d="M93.14,106c6.35,10.6,12.73,19.75,29.94,27,5.53,2.31,11.42,2.06,15.68-.78a18.37,18.37,0,0,0,7.86-11.26c3.85-16-6.39-18.78-6.39-18.78s-23.48.67-39.24-5.3C94.63,94.44,89.66,100.21,93.14,106Z"/><path class="cls-2" d="M94.78,105a107,107,0,0,0,6.17,9.65,42.61,42.61,0,0,0,17.4,14.1c.87.38,1.73.79,2.62,1.13a25.53,25.53,0,0,0,2.75.8,13.49,13.49,0,0,0,5.14,0,38.58,38.58,0,0,0,4.34-1,19.56,19.56,0,0,0,1.87-.68,16.08,16.08,0,0,0,1.78-1,15.16,15.16,0,0,0,6.26-6.69c.17-.37.31-.76.45-1.15s.26-.85.38-1.28a26.19,26.19,0,0,0,.52-2.58,15.06,15.06,0,0,0-.09-5,9.22,9.22,0,0,0-1.78-4.09,8.51,8.51,0,0,0-1.52-1.48,9.15,9.15,0,0,0-.87-.56c-.15-.09-.3-.16-.44-.23l-.21-.08s-.17-.06-.08,0l.84.1a133.67,133.67,0,0,1-14.34-.78,132.24,132.24,0,0,1-14.19-2.08l-1.76-.38-1.76-.44-1.75-.44-1.74-.53c-1.16-.32-2.31-.74-3.46-1.16l-1.56-.55a7.2,7.2,0,0,0-1.27-.27,4.05,4.05,0,0,0-4,1.89A4.75,4.75,0,0,0,94.78,105Zm-3.27,2a9.79,9.79,0,0,1-1.43-4.11A7.93,7.93,0,0,1,91,98.36a7.75,7.75,0,0,1,3.35-3.26,8.85,8.85,0,0,1,4.49-.88,11.21,11.21,0,0,1,2.17.39l1.77.58c1.07.36,2.13.72,3.24,1l1.64.44,1.67.37,1.68.36,1.69.3a122.67,122.67,0,0,0,13.7,1.54c4.59.25,9.28.19,13.79.1h.46l.38.11a5.44,5.44,0,0,1,.61.2l.47.19c.3.13.59.26.87.41a11.17,11.17,0,0,1,1.58,1,13,13,0,0,1,2.63,2.6,15.73,15.73,0,0,1,2.81,6.53,25.74,25.74,0,0,1,.3,6.64l-.14,1.61-.22,1.58-.24,1.57c-.12.55-.2,1.11-.35,1.66a23.35,23.35,0,0,1-2.56,6.48,19.44,19.44,0,0,1-4.63,5.42,15.78,15.78,0,0,1-3.22,2,16.29,16.29,0,0,1-3.65,1.21,14.16,14.16,0,0,1-3.72.22A16,16,0,0,1,128,138a26.94,26.94,0,0,1-6.07-3.05,30,30,0,0,0-2.59-1.55c-.86-.5-1.75-1-2.62-1.45a76.28,76.28,0,0,1-9.94-6.71,58.38,58.38,0,0,1-8.51-8.49A89.64,89.64,0,0,1,91.51,107Z"/><path class="cls-3" d="M97.07,174.33c10.76,6.07,20.83,10.86,39.35,8.6,5.94-.72,10.94-3.86,13.23-8.44a18.35,18.35,0,0,0,1.27-13.67c-4.56-15.78-14.85-13.16-14.85-13.16S116,159.87,99.34,162.48C92.63,163.53,91.17,171,97.07,174.33Z"/><path class="cls-2" d="M98,172.67A108,108,0,0,0,108.14,178a42.63,42.63,0,0,0,22.1,3.65c.95-.11,1.89-.17,2.83-.32a26.9,26.9,0,0,0,2.79-.66,13.38,13.38,0,0,0,4.49-2.52,39.5,39.5,0,0,0,3.26-3.05,17.67,17.67,0,0,0,1.28-1.51,16.79,16.79,0,0,0,1.07-1.72,15.14,15.14,0,0,0,2.13-8.91c0-.41-.11-.82-.18-1.22s-.19-.87-.3-1.31a23.44,23.44,0,0,0-.83-2.49,15.19,15.19,0,0,0-2.53-4.29,9.38,9.38,0,0,0-3.58-2.67,8.72,8.72,0,0,0-2-.53,9.2,9.2,0,0,0-1-.06,3.91,3.91,0,0,0-.49,0l-.22,0c-.05,0-.18,0-.09,0l.78-.33a136,136,0,0,1-12.84,6.42,130.3,130.3,0,0,1-13.37,5.21l-1.71.55-1.75.49-1.74.47-1.77.41c-1.18.3-2.38.49-3.58.71l-1.63.28a7.82,7.82,0,0,0-1.24.4,4.05,4.05,0,0,0-2.56,3.63A4.75,4.75,0,0,0,98,172.67ZM96.13,176a9.8,9.8,0,0,1-3.28-2.86,8,8,0,0,1-1.47-4.37,7.71,7.71,0,0,1,1.3-4.5,8.78,8.78,0,0,1,3.46-3,11.75,11.75,0,0,1,2.08-.74l1.83-.37c1.1-.21,2.21-.43,3.3-.75L105,159l1.64-.51,1.63-.51,1.61-.58A121.67,121.67,0,0,0,122.54,152c4.12-2.06,8.16-4.42,12-6.74l.4-.24.39-.09c.32-.08.43-.09.62-.13l.51-.06c.32,0,.64-.06,1-.07a11.66,11.66,0,0,1,1.87.09,13.35,13.35,0,0,1,3.58,1,15.56,15.56,0,0,1,5.66,4.28,26.15,26.15,0,0,1,3.56,5.62l.66,1.47.6,1.48L154,160c.16.53.37,1.06.51,1.61a23.55,23.55,0,0,1,1,6.9,19.45,19.45,0,0,1-1.35,7,16.06,16.06,0,0,1-1.78,3.36,16.33,16.33,0,0,1-2.58,2.85,14.56,14.56,0,0,1-3.12,2,16.25,16.25,0,0,1-3.43,1.14,27.65,27.65,0,0,1-6.79.35,27.56,27.56,0,0,0-3-.07c-1,0-2,0-3,0a76.17,76.17,0,0,1-12-.9,58.84,58.84,0,0,1-11.59-3.17A91.11,91.11,0,0,1,96.13,176Z"/><path class="cls-1" d="M391.42,18.85a85.27,85.27,0,0,1,29.87,5.41,21,21,0,0,1,35,14.82A21,21,0,0,1,479.4,60.73a25.52,25.52,0,0,1,12.66,12.88,27.5,27.5,0,0,1,1,2.78A29.62,29.62,0,0,1,505,117.57a29.63,29.63,0,0,1-.71,48.8,29.63,29.63,0,0,1-11.46,45c-.23.67-.48,1.33-.77,2a25.48,25.48,0,0,1-12.66,12.88A21,21,0,0,1,456.33,248a21,21,0,0,1-32.86,16.55C384.28,284.39,370.35,254,359.16,254Z"/><path class="cls-2" d="M398.74,273.77c-13.76,0-23.05-6.88-30-12-3.82-2.83-7.12-5.27-9.56-5.27h-2.87L389.24,16.35h2.18a87.69,87.69,0,0,1,29.36,5.07,23.49,23.49,0,0,1,37.82,15,23.49,23.49,0,0,1,23.3,22.72A28,28,0,0,1,494.34,72.6c.3.66.57,1.35.82,2.07A32.25,32.25,0,0,1,510.34,94a31.89,31.89,0,0,1-2.13,22.88,32.14,32.14,0,0,1-.46,50.07,32.12,32.12,0,0,1-12.92,46.3c-.16.41-.32.8-.49,1.17a28.06,28.06,0,0,1-12.44,13.42,23.49,23.49,0,0,1-23.3,22.71,23.49,23.49,0,0,1-35.28,16.82C413.8,272,405.7,273.77,398.74,273.77ZM362,251.89c3.11.93,6.24,3.24,9.72,5.82,10.24,7.58,24.26,18,50.65,4.56l1.32-.67,1.23.84a18.5,18.5,0,0,0,28.94-14.58l.1-2.66,2.64.26a18.49,18.49,0,0,0,20.33-19.08l-.06-1.66,1.51-.7a23,23,0,0,0,11.42-11.62c.24-.54.47-1.13.7-1.8l.35-1,1-.44a27.13,27.13,0,0,0,10.49-41.25l-1.61-2.12,2.21-1.48a27.13,27.13,0,0,0,.65-44.69l-1.86-1.32,1.15-2a27.1,27.1,0,0,0-10.9-37.7l-.93-.48-.31-1a22.49,22.49,0,0,0-.93-2.51A23.09,23.09,0,0,0,478.35,63l-1.51-.7.06-1.66a18.49,18.49,0,0,0-20.33-19.08l-2.64.27-.1-2.66A18.49,18.49,0,0,0,423,26.11l-1.12,1-1.43-.53a82.94,82.94,0,0,0-26.81-5.22Z"/><path class="cls-3" d="M528.24,42.52c-.66,12.33-2,23.4-13.86,37.82-3.8,4.62-9.13,7.16-14.22,6.64A18.36,18.36,0,0,1,488,80.71c-10.88-12.32-3.14-19.6-3.14-19.6s21.07-10.38,32.21-23C521.5,33,528.6,35.75,528.24,42.52Z"/><path class="cls-2" d="M530.14,42.62a89.9,89.9,0,0,1-1.39,11.8A58.45,58.45,0,0,1,525.2,65.9a76.09,76.09,0,0,1-5.65,10.58c-.55.83-1.11,1.66-1.64,2.51a29,29,0,0,0-1.56,2.58,26.84,26.84,0,0,1-3.94,5.54,15.86,15.86,0,0,1-2.79,2.28,14.34,14.34,0,0,1-3.4,1.54,16.52,16.52,0,0,1-3.79.65,16,16,0,0,1-3.79-.3A19.41,19.41,0,0,1,492,88.66a23,23,0,0,1-5.29-4.54c-.39-.41-.73-.87-1.09-1.29l-.95-1.28-.93-1.3-.88-1.35a25.84,25.84,0,0,1-2.84-6,15.63,15.63,0,0,1-.57-7.07,13.12,13.12,0,0,1,1.11-3.54,11.56,11.56,0,0,1,.93-1.63c.17-.26.37-.51.57-.77l.33-.39c.13-.14.2-.23.44-.46l.29-.28.41-.2c4-2,8.2-4.17,12.14-6.54a120.28,120.28,0,0,0,11.39-7.77l1.36-1,1.3-1.1L511,41l1.25-1.15c.85-.76,1.63-1.57,2.4-2.39l1.3-1.34a10.67,10.67,0,0,1,1.74-1.36,8.75,8.75,0,0,1,4.37-1.32,7.73,7.73,0,0,1,4.49,1.31,7.88,7.88,0,0,1,2.89,3.59A9.73,9.73,0,0,1,530.14,42.62Zm-3.8-.2a4.75,4.75,0,0,0-2-4.36,4,4,0,0,0-4.43.21,7.06,7.06,0,0,0-1,.83l-1.11,1.22c-.83.9-1.64,1.81-2.52,2.64L514,44.24l-1.34,1.21-1.35,1.21L510,47.82a131.9,131.9,0,0,1-11.57,8.48,136.37,136.37,0,0,1-12.31,7.39l.7-.48c.06-.06,0,0-.06.07l-.14.17c-.09.13-.19.26-.28.41a8.73,8.73,0,0,0-.51.9,8.83,8.83,0,0,0-.65,2,9.35,9.35,0,0,0,.33,4.45,15,15,0,0,0,2.26,4.44,22.76,22.76,0,0,0,1.66,2l.94,1c.3.28.61.56.93.81a15.16,15.16,0,0,0,8.67,3,17.27,17.27,0,0,0,2,0,17.06,17.06,0,0,0,2-.27,37.4,37.4,0,0,0,4.33-1.11,13.55,13.55,0,0,0,4.53-2.44,27.64,27.64,0,0,0,2.05-2c.63-.71,1.19-1.48,1.79-2.22a45.6,45.6,0,0,0,5.78-9.73,46.37,46.37,0,0,0,3-10.87A107.24,107.24,0,0,0,526.34,42.42Z"/><path class="cls-3" d="M546.86,106c-6.35,10.6-12.73,19.75-29.94,27-5.53,2.31-11.42,2.06-15.68-.78a18.37,18.37,0,0,1-7.86-11.26c-3.85-16,6.39-18.78,6.39-18.78s23.48.67,39.24-5.3C545.37,94.44,550.34,100.21,546.86,106Z"/><path class="cls-2" d="M548.49,107a89.64,89.64,0,0,1-6.75,9.78,58.38,58.38,0,0,1-8.51,8.49,76.28,76.28,0,0,1-9.94,6.71c-.87.48-1.76,1-2.62,1.45a30,30,0,0,0-2.59,1.55A26.94,26.94,0,0,1,512,138a16,16,0,0,1-3.54.71,14.16,14.16,0,0,1-3.72-.22,16.29,16.29,0,0,1-3.65-1.21,15.78,15.78,0,0,1-3.22-2,19.44,19.44,0,0,1-4.63-5.42,23.35,23.35,0,0,1-2.56-6.48c-.15-.55-.23-1.11-.35-1.66l-.24-1.57-.22-1.58-.14-1.61a25.74,25.74,0,0,1,.3-6.64,15.73,15.73,0,0,1,2.81-6.53,13,13,0,0,1,2.63-2.6,11.17,11.17,0,0,1,1.58-1c.28-.15.57-.28.87-.41l.47-.19a5.44,5.44,0,0,1,.61-.2l.38-.11h.46c4.51.09,9.2.15,13.79-.1a122.67,122.67,0,0,0,13.7-1.54l1.69-.3,1.68-.36,1.67-.37,1.64-.44c1.11-.26,2.17-.62,3.24-1l1.77-.58a11.21,11.21,0,0,1,2.17-.39,8.85,8.85,0,0,1,4.49.88A7.75,7.75,0,0,1,549,98.36a7.93,7.93,0,0,1,.88,4.53A9.79,9.79,0,0,1,548.49,107Zm-3.27-2a4.75,4.75,0,0,0,.32-4.76,4.05,4.05,0,0,0-4-1.89,7.2,7.2,0,0,0-1.27.27l-1.56.55c-1.15.42-2.3.84-3.46,1.16l-1.74.53-1.75.44-1.76.44-1.76.38A132.24,132.24,0,0,1,514,104.24a133.67,133.67,0,0,1-14.34.78l.84-.1c.09,0,0,0-.08,0l-.21.08c-.14.07-.29.14-.44.23a9.15,9.15,0,0,0-.87.56,8.51,8.51,0,0,0-1.52,1.48,9.22,9.22,0,0,0-1.78,4.09,15.06,15.06,0,0,0-.09,5,26.19,26.19,0,0,0,.52,2.58c.12.43.25.86.38,1.28s.28.78.45,1.15a15.16,15.16,0,0,0,6.26,6.69,16.08,16.08,0,0,0,1.78,1,19.56,19.56,0,0,0,1.87.68,38.58,38.58,0,0,0,4.34,1,13.49,13.49,0,0,0,5.14,0,25.53,25.53,0,0,0,2.75-.8c.89-.34,1.75-.75,2.62-1.13a42.61,42.61,0,0,0,17.4-14.1A107,107,0,0,0,545.22,105Z"/><path class="cls-3" d="M542.93,174.33c-10.76,6.07-20.83,10.86-39.35,8.6-5.94-.72-10.94-3.86-13.23-8.44a18.35,18.35,0,0,1-1.27-13.67c4.56-15.78,14.85-13.16,14.85-13.16s20.07,12.21,36.73,14.82C547.37,163.53,548.83,171,542.93,174.33Z"/><path class="cls-2" d="M543.87,176a91.11,91.11,0,0,1-10.71,5.16,58.84,58.84,0,0,1-11.59,3.17,76.17,76.17,0,0,1-12,.9c-1,0-2,0-3,0a27.56,27.56,0,0,0-3,.07,27.65,27.65,0,0,1-6.79-.35,16.25,16.25,0,0,1-3.43-1.14,14.56,14.56,0,0,1-3.12-2,15.89,15.89,0,0,1-2.57-2.85,15.66,15.66,0,0,1-1.79-3.36,19.45,19.45,0,0,1-1.35-7,23.55,23.55,0,0,1,1-6.9c.14-.55.35-1.08.51-1.61l.57-1.49.6-1.48.66-1.47a26.15,26.15,0,0,1,3.56-5.62,15.56,15.56,0,0,1,5.66-4.28,13.35,13.35,0,0,1,3.58-1,11.66,11.66,0,0,1,1.87-.09c.32,0,.64,0,1,.07l.51.06c.19,0,.3.05.62.13l.39.09.4.24c3.87,2.32,7.91,4.68,12,6.74a121.67,121.67,0,0,0,12.67,5.44l1.61.58,1.63.51L535,159l1.64.43c1.09.32,2.2.54,3.3.75l1.83.37a11.75,11.75,0,0,1,2.08.74,8.78,8.78,0,0,1,3.46,3,7.71,7.71,0,0,1,1.3,4.5,8,8,0,0,1-1.47,4.37A9.8,9.8,0,0,1,543.87,176ZM542,172.67a4.75,4.75,0,0,0,2.63-4,4.05,4.05,0,0,0-2.56-3.63,7.82,7.82,0,0,0-1.24-.4l-1.63-.28c-1.2-.22-2.4-.41-3.58-.71l-1.77-.41-1.74-.47-1.75-.49-1.71-.55a130.3,130.3,0,0,1-13.37-5.21,136,136,0,0,1-12.84-6.42l.78.33c.09,0,0,0-.09,0l-.22,0a3.91,3.91,0,0,0-.49,0,9.2,9.2,0,0,0-1,.06,8.72,8.72,0,0,0-2.05.53,9.38,9.38,0,0,0-3.58,2.67,15.19,15.19,0,0,0-2.53,4.29,23.44,23.44,0,0,0-.83,2.49c-.11.44-.21.88-.3,1.31s-.14.81-.18,1.22a15.14,15.14,0,0,0,2.13,8.91,16.79,16.79,0,0,0,1.07,1.72,17.67,17.67,0,0,0,1.28,1.51,39.5,39.5,0,0,0,3.26,3.05,13.38,13.38,0,0,0,4.49,2.52,26.9,26.9,0,0,0,2.79.66c.94.15,1.88.21,2.83.32a42.63,42.63,0,0,0,22.1-3.65A108,108,0,0,0,542,172.67Z"/></g></svg>