<svg xmlns="http://www.w3.org/2000/svg" viewBox="0 0 640 320"><defs><style>.cls-1{fill:#ff931e;}.cls-2{fill:#0d0a09;}.cls-3{fill:#c66f18;}</style></defs><g id="top-shape"><path class="cls-1" d="M309.25,113.66h8.62a12.88,12.88,0,0,1,12.88,12.88v8.62a0,0,0,0,1,0,0h-8.62a12.88,12.88,0,0,1-12.88-12.88v-8.62a0,0,0,0,1,0,0Z" transform="translate(634.25 -13.89) rotate(135)"/><path class="cls-2" d="M320,137.52a16.08,16.08,0,0,1-11.41-4.72l-8.39-8.39,8.39-8.39a16.16,16.16,0,0,1,22.82,0l8.39,8.39-8.39,8.39A16.08,16.08,0,0,1,320,137.52Zm-10.61-13.11,3.8,3.8a9.65,9.65,0,0,0,13.62,0l3.8-3.8-3.8-3.8a9.65,9.65,0,0,0-13.62,0Z"/><path class="cls-3" d="M373.43,144.41l6-5.17c9-8.44,3.33-21.52-1.27-28.81l-4.71-6"/><path class="cls-2" d="M375.56,146.87,371.31,142l5.93-5.13c7.7-7.26,1.41-19.46-1.77-24.53l-4.6-5.89,5.12-4,4.89,6.29c8.5,13.43,8.77,25.43.75,32.92l-.09.08Z"/><path class="cls-3" d="M266.57,144.41l-6-5.17c-9-8.44-3.33-21.52,1.27-28.81l4.71-6"/><path class="cls-2" d="M264.44,146.87l-6.07-5.25c-8-7.49-7.75-19.49.75-32.92l.18-.27,4.71-6,5.12,4-4.6,5.89c-3.18,5.07-9.47,17.27-1.77,24.53l5.93,5.13Z"/><path class="cls-1" d="M372,110.43l1.42-6a12.87,12.87,0,0,0-18.22,0l-20,20,20,20a12.87,12.87,0,0,0,18.22,0l-1.42-6A61.13,61.13,0,0,1,372,110.43Z"/><path class="cls-2" d="M364.32,151.43a16.08,16.08,0,0,1-11.41-4.72l-22.3-22.3,22.3-22.3a16.16,16.16,0,0,1,22.82,0l1.28,1.28-1.83,7.79a58,58,0,0,0,0,26.46l1.83,7.79-1.28,1.28A16.08,16.08,0,0,1,364.32,151.43Zm-24.52-27,17.71,17.71a9.64,9.64,0,0,0,12.3,1.1l-1-4.09a64.49,64.49,0,0,1,0-29.44h0l1-4.09a9.64,9.64,0,0,0-12.3,1.1Z"/><path class="cls-1" d="M268,110.43l-1.42-6a12.87,12.87,0,0,1,18.22,0l20,20-20,20a12.87,12.87,0,0,1-18.22,0l1.42-6A61.13,61.13,0,0,0,268,110.43Z"/><path class="cls-2" d="M275.68,151.43a16.08,16.08,0,0,1-11.41-4.72L263,145.43l1.83-7.79a58,58,0,0,0,0-26.46h0L263,103.39l1.28-1.28a16.16,16.16,0,0,1,22.82,0l22.3,22.3-22.3,22.3A16.08,16.08,0,0,1,275.68,151.43Zm-5.49-8.21a9.64,9.64,0,0,0,12.3-1.1l17.71-17.71L282.49,106.7a9.64,9.64,0,0,0-12.3-1.1l1,4.09a64.49,64.49,0,0,1,0,29.44Z"/></g><g id="Eyes"><path class="cls-2" d="M359.24,117.89a31.06,31.06,0,0,1-9.5,5.32,54.5,54.5,0,0,1-5.32,1.21c-1.77.36-3.55.62-5.3.94a1,1,0,1,1-.34-1.9h0q2.64-.37,5.22-.92a43.06,43.06,0,0,0,5-1.45A37.59,37.59,0,0,0,354,119.4a45.48,45.48,0,0,0,4.72-2.28.47.47,0,0,1,.54.77Z"/><path class="cls-2" d="M359.56,133a31.41,31.41,0,0,1-10.68-2.14c-1.71-.67-3.22-1.72-4.83-2.54s-3.1-1.84-4.63-2.73a1,1,0,1,1,1-1.67l0,0c1.5,1,3,1.85,4.56,2.7a48.38,48.38,0,0,0,4.76,2.17,42,42,0,0,0,4.84,1.92,47.14,47.14,0,0,0,5.07,1.33.47.47,0,0,1-.09.94Z"/><path class="cls-2" d="M283.43,133.53a31.07,31.07,0,0,1,8.84-6.37,54.1,54.1,0,0,1,5.14-1.81c1.72-.56,3.45-1,5.16-1.54a1,1,0,0,1,1.2.65,1,1,0,0,1-.64,1.2h0c-1.73.45-3.42,1-5.08,1.51a44.63,44.63,0,0,0-4.83,2,38.83,38.83,0,0,0-4.7,2.23,49.25,49.25,0,0,0-4.43,2.81.47.47,0,0,1-.66-.1A.48.48,0,0,1,283.43,133.53Z"/><path class="cls-2" d="M281.24,121.42a31.38,31.38,0,0,1,10.87.69,53,53,0,0,1,5.12,1.87c1.68.65,3.32,1.4,5,2.08a1,1,0,0,1,.53,1.26,1,1,0,0,1-1.26.53l0,0c-1.62-.75-3.25-1.43-4.88-2.06a45,45,0,0,0-5-1.52,41.37,41.37,0,0,0-5-1.25,47.2,47.2,0,0,0-5.21-.63.48.48,0,0,1,0-1Z"/></g></svg>