<svg xmlns="http://www.w3.org/2000/svg" viewBox="0 0 640 320"><defs><style>.cls-1{fill:#fcfcfc;}.cls-2{fill:#0d0a09;}</style></defs><g id="body"><path class="cls-1" d="M527,12.33C581-3,562.79,44.36,576.42,92.53s-3,58.28-57.09,73.58-52,9.31-65.64-38.86S472.86,27.63,527,12.33Z"/><path class="cls-2" d="M482.91,176.83A23.5,23.5,0,0,1,471,174.14c-9.1-5.12-12.33-16.72-18.18-37.77-.72-2.59-1.48-5.34-2.3-8.23C436.47,78.32,470.34,25,526.06,9.2h0c15.48-4.38,26.1-4.07,33.44,1,10.62,7.29,12,22.59,13.81,42,1.11,12.12,2.37,25.87,6.24,39.52,7.17,25.35,6,40.95-3.84,52.15-9.61,10.91-26.92,17.36-55.49,25.44C503.13,174.08,491.48,176.83,482.91,176.83ZM544.64,12.65a63.73,63.73,0,0,0-16.81,2.8h0c-52.27,14.79-84.13,64.55-71,110.92.82,2.9,1.58,5.66,2.31,8.26,5.38,19.38,8.35,30.05,15.1,33.84,7.07,4,19.89,1.4,44.22-5.48,26.73-7.57,43.88-13.84,52.38-23.49,8.33-9.46,9-22.81,2.46-46.08-4-14.23-5.32-28.29-6.46-40.7-1.62-17.67-2.9-31.62-11-37.19C553,13.61,549.32,12.65,544.64,12.65Z"/><path class="cls-1" d="M496,275.11c41.07,11.62,27.21-24.32,37.56-60.9s-2.28-44.25-43.35-55.87-39.49-7.07-49.84,29.51S455,263.49,496,275.11Z"/><path class="cls-2" d="M509.52,280.59a53.63,53.63,0,0,1-14.37-2.35c-20.63-5.84-38-18.5-48.95-35.65s-14.18-37-8.92-55.63c.63-2.2,1.2-4.28,1.75-6.25,4.5-16.18,7-25.1,14.18-29.14s17.49-2.14,37.93,3.64c41.14,11.64,56.78,20.32,45.59,59.89-2.92,10.29-3.87,20.69-4.71,29.86-1.32,14.32-2.46,26.69-10.82,32.43A20,20,0,0,1,509.52,280.59ZM462.64,155.93a12.65,12.65,0,0,0-6.25,1.3c-4.84,2.72-7.2,11.19-11.1,25.22q-.82,3-1.75,6.28c-4.75,16.79-1.86,34.67,8.14,50.36s26.15,27.49,45.24,32.89h0c9.85,2.79,16.59,2.81,20.6,0,5.85-4,6.81-14.45,8-27.66.87-9.45,1.86-20.17,4.93-31,9.5-33.59.09-40.21-41.1-51.86C477,158,468.46,155.93,462.64,155.93Z"/><path class="cls-1" d="M113.05,12.33C59-3,77.21,44.36,63.58,92.53s3,58.28,57.09,73.58,52,9.31,65.64-38.86S167.14,27.63,113.05,12.33Z"/><path class="cls-2" d="M157.09,176.83c-8.57,0-20.21-2.75-37.31-7.59-28.57-8.08-45.88-14.53-55.49-25.44-9.86-11.2-11-26.8-3.84-52.15,3.87-13.65,5.13-27.4,6.24-39.52,1.78-19.37,3.19-34.67,13.81-42,7.34-5,18-5.35,33.44-1,55.72,15.76,89.59,69.12,75.5,118.94-.82,2.89-1.58,5.64-2.3,8.23-5.85,21-9.08,32.65-18.18,37.77A23.61,23.61,0,0,1,157.09,176.83ZM95.36,12.65c-4.68,0-8.39,1-11.18,2.88-8.11,5.57-9.39,19.52-11,37.19C72,65.13,70.73,79.19,66.71,93.42c-6.59,23.27-5.87,36.62,2.46,46.08,8.5,9.65,25.65,15.92,52.38,23.49,24.33,6.88,37.15,9.46,44.22,5.48,6.75-3.79,9.72-14.46,15.1-33.84.73-2.6,1.49-5.36,2.31-8.26,13.12-46.37-18.74-96.13-71-110.92h0A63.73,63.73,0,0,0,95.36,12.65Z"/><path class="cls-1" d="M144,275.11c-41.07,11.62-27.21-24.32-37.56-60.9s2.28-44.25,43.35-55.87,39.49-7.07,49.84,29.51S185,263.49,144,275.11Z"/><path class="cls-2" d="M130.48,280.59a20,20,0,0,1-11.68-3.2c-8.36-5.74-9.5-18.11-10.82-32.43-.84-9.17-1.79-19.57-4.71-29.86-11.19-39.57,4.45-48.25,45.59-59.89,20.44-5.78,30.76-7.68,37.93-3.64s9.68,13,14.18,29.14c.55,2,1.12,4,1.75,6.25,5.26,18.6,2.09,38.35-8.92,55.63s-28.32,29.81-49,35.65h0A53.63,53.63,0,0,1,130.48,280.59Zm46.88-124.66c-5.82,0-14.4,2-26.73,5.54-41.19,11.65-50.6,18.27-41.1,51.86,3.07,10.87,4.06,21.59,4.93,31,1.21,13.21,2.17,23.65,8,27.66,4,2.76,10.75,2.74,20.6,0h0c19.09-5.4,35.16-17.08,45.24-32.89s12.89-33.57,8.14-50.36q-.93-3.31-1.75-6.28c-3.9-14-6.26-22.5-11.1-25.22A12.65,12.65,0,0,0,177.36,155.93Z"/><path class="cls-2" d="M530.19,61l-3.56,4.48c-1.18,1.5-2.49,2.89-3.73,4.34S520.3,72.6,519,74l-2,2-2.08,2a162.33,162.33,0,0,1-17.74,14.5,214.61,214.61,0,0,1-19.63,11.78c-6.69,3.65-13.54,7-20.35,10.35a1,1,0,0,1-.86-1.73h0c6.84-3.31,13.64-6.68,20.28-10.3a214.16,214.16,0,0,0,19.29-11.93,159.76,159.76,0,0,0,17.86-13.9l2.11-1.89,2-2c1.34-1.33,2.72-2.63,4-4s2.64-2.71,3.86-4.15l3.71-4.3,0,0a.46.46,0,0,1,.66,0A.47.47,0,0,1,530.19,61Z"/><path class="cls-2" d="M537.07,97.81l-5.65.63c-1.88.2-3.74.57-5.61.84s-3.72.66-5.57,1l-2.78.55-2.76.67a160,160,0,0,0-21.56,6.89,211.34,211.34,0,0,0-20.73,9.18c-6.75,3.44-13.36,7.14-20,10.92a1,1,0,0,1-1-1.68h0c6.63-3.7,13.25-7.48,20-10.94a211.42,211.42,0,0,1,20.81-9.54,161.8,161.8,0,0,1,22-6.45l2.8-.61,2.82-.49c1.88-.32,3.76-.69,5.66-.89s3.78-.5,5.69-.62l5.7-.41a.47.47,0,0,1,.51.43.46.46,0,0,1-.42.5Z"/><path class="cls-2" d="M501.75,187.24a99.89,99.89,0,0,1-15.83-4.8A112.72,112.72,0,0,1,471,175.19a156.15,156.15,0,0,1-13.65-9.37c-4.41-3.3-8.66-6.8-12.92-10.24a1,1,0,0,1-.15-1.36,1,1,0,0,1,1.36-.15h0c4.22,3.5,8.48,6.94,12.85,10.2a151.43,151.43,0,0,0,13.63,9,118.61,118.61,0,0,0,14.44,7.55A117.33,117.33,0,0,0,502,186.33a.47.47,0,0,1-.22.91Z"/><path class="cls-2" d="M479.58,202.78a115.35,115.35,0,0,0-9.26-13.45,119.38,119.38,0,0,0-11-12,150,150,0,0,0-12.22-10.85c-4.28-3.38-8.69-6.61-13.16-9.79A1,1,0,1,1,435,155.1h0c4.42,3.24,8.9,6.44,13.22,9.85a158.83,158.83,0,0,1,12.58,10.77,114.41,114.41,0,0,1,10.84,12.54,100.37,100.37,0,0,1,8.72,14.06.47.47,0,0,1-.2.63A.48.48,0,0,1,479.58,202.78Z"/><path class="cls-2" d="M110.55,60.41l3.71,4.3c1.22,1.44,2.58,2.76,3.86,4.15s2.65,2.7,4,4l2,2,2.11,1.89a159.76,159.76,0,0,0,17.86,13.9,214.16,214.16,0,0,0,19.29,11.93c6.64,3.62,13.44,7,20.28,10.3a1,1,0,1,1-.84,1.74h0c-6.81-3.37-13.66-6.7-20.35-10.35a214.61,214.61,0,0,1-19.63-11.78A162.33,162.33,0,0,1,125.11,78L123,76l-2-2c-1.33-1.38-2.69-2.72-3.93-4.17s-2.55-2.84-3.73-4.34L109.81,61a.47.47,0,0,1,.72-.6Z"/><path class="cls-2" d="M103,96.87l5.7.41c1.91.12,3.79.42,5.69.62s3.78.57,5.66.89l2.82.49,2.8.61a161.8,161.8,0,0,1,22,6.45,211.42,211.42,0,0,1,20.81,9.54c6.79,3.46,13.41,7.24,20,10.94a1,1,0,0,1-.94,1.69h0c-6.6-3.78-13.21-7.48-20-10.92a211.34,211.34,0,0,0-20.73-9.18,160,160,0,0,0-21.56-6.89l-2.76-.67-2.78-.55c-1.85-.36-3.7-.76-5.57-1s-3.73-.64-5.61-.84l-5.65-.63h0a.49.49,0,0,1-.42-.53A.48.48,0,0,1,103,96.87Z"/><path class="cls-2" d="M138,186.33a117.33,117.33,0,0,0,15.39-5.49,118.61,118.61,0,0,0,14.44-7.55,151.43,151.43,0,0,0,13.63-9c4.37-3.26,8.63-6.7,12.85-10.2a1,1,0,0,1,1.24,1.49h0c-4.26,3.44-8.51,6.94-12.92,10.24A156.15,156.15,0,0,1,169,175.19a112.72,112.72,0,0,1-14.91,7.25,99.89,99.89,0,0,1-15.83,4.8.47.47,0,0,1-.56-.36A.47.47,0,0,1,138,186.33Z"/><path class="cls-2" d="M159.59,202.33a100.37,100.37,0,0,1,8.72-14.06,114.41,114.41,0,0,1,10.84-12.54A158.83,158.83,0,0,1,191.73,165c4.32-3.41,8.8-6.61,13.22-9.85a1,1,0,0,1,1.14,1.56h0c-4.47,3.18-8.88,6.41-13.16,9.79a150,150,0,0,0-12.22,10.85,119.38,119.38,0,0,0-11,12,115.35,115.35,0,0,0-9.26,13.45.47.47,0,0,1-.83-.45Z"/></g></svg>