<svg xmlns="http://www.w3.org/2000/svg" viewBox="0 0 640 320"><defs><style>.cls-1{fill:#fcfcfc;}.cls-2{fill:#0d0a09;}</style></defs><g id="body"><path class="cls-1" d="M521.72,22.9C483.21,44,461.91,91.31,434.29,124.67c-21.11,25.5-45.18,53.3-76.94,66.45l15.38,18.1,15.38,18.09c17.81-30.69,35.15-63.48,57-89.94,29.06-35.22,71.68-37.45,110.07-60.43A109.65,109.65,0,0,0,599.71,26a9.68,9.68,0,0,0-5.91-13C568.9,5.07,543.45,11,521.72,22.9Z"/><path class="cls-2" d="M388.61,232.92,352,189.82l4.13-1.7c30.11-12.46,53-38.11,75.68-65.52,8.49-10.26,16.25-21.66,24.46-33.73,18-26.51,36.69-53.93,63.91-68.82C538,10.26,565.5.57,594.79,9.94a12.9,12.9,0,0,1,7.74,6.86,13,13,0,0,1,.17,10.48,112.62,112.62,0,0,1-45.88,52.45c-14.43,8.63-29.4,14.37-43.88,19.92-24.47,9.38-47.57,18.24-65.35,39.79-17.91,21.71-33,48.08-47.53,73.57q-4.57,8-9.14,15.93Zm-25.95-40.57L387.6,221.7c2.28-3.95,4.54-7.92,6.82-11.91,14.69-25.73,29.89-52.35,48.16-74.49,18.86-22.87,42.75-32,68-41.72,14.22-5.45,28.93-11.09,42.87-19.43a106,106,0,0,0,43.23-49.39,6.5,6.5,0,0,0-.09-5.24,6.27,6.27,0,0,0-3.81-3.39c-27.1-8.67-52.77.45-69.53,9.62h0c-25.85,14.14-44,40.9-61.66,66.78-7.93,11.66-16.14,23.72-24.83,34.21C414.56,153.59,392.12,178.8,362.66,192.35Z"/><path class="cls-1" d="M544.11,76.28c-43.19,7.87-78.31,46.09-115,69.05-28.07,17.56-59.66,36.36-93.95,38.84l8.9,22,8.89,22c26.57-23.52,53.35-49.19,82.41-67.42,38.66-24.28,79.82-13,123.49-22.69a109.59,109.59,0,0,0,58.33-34.29,9.68,9.68,0,0,0-1.52-14.18C594.5,74.22,568.48,71.84,544.11,76.28Z"/><path class="cls-2" d="M351.62,233.69l-21.19-52.44,4.46-.32c32.5-2.35,62.28-19.48,92.46-38.35,11.29-7.06,22.24-15.44,33.84-24.31C486.66,98.79,513,78.65,543.52,73.08h0c20.05-3.65,49.17-4.2,74,13.92a12.87,12.87,0,0,1,5.18,9,13.07,13.07,0,0,1-3.13,10,112.63,112.63,0,0,1-60.07,35.32c-16.41,3.65-32.43,4.38-47.92,5.09-26.18,1.2-50.89,2.32-74.56,17.18-23.84,15-46.43,35.25-68.28,54.87-4.58,4.1-9.14,8.2-13.69,12.23ZM339.77,187l14.43,35.72q5.1-4.54,10.21-9.15c22.06-19.8,44.86-40.27,69.18-55.54,25.11-15.76,50.66-16.93,77.71-18.16,15.22-.7,30.95-1.42,46.81-4.94a106.07,106.07,0,0,0,56.58-33.26,6.51,6.51,0,0,0,1.57-5,6.3,6.3,0,0,0-2.55-4.42c-23-16.77-50.22-16.2-69-12.77h0c-29,5.28-54.69,24.94-79.55,44-11.21,8.57-22.79,17.43-34.35,24.65C401.24,166.57,372,183.43,339.77,187Z"/><path class="cls-1" d="M564.33,163.36c-40.76-16.29-90.83-2.59-134.14-2.66-33.11-.06-69.87-.92-100.22-17.06-1.67,9.36-2.51,14-4.17,23.38s-2.51,14-4.17,23.38c35-5.79,71.33-13.29,105.63-13.3,45.66,0,74.51,31.45,116.66,46.44a109.57,109.57,0,0,0,67.63,2,9.69,9.69,0,0,0,6.26-12.83C608.11,188.41,587.34,172.56,564.33,163.36Z"/><path class="cls-2" d="M581,233.19a114.31,114.31,0,0,1-38.19-6.59C527,221,513,213.08,499.54,205.44c-22.8-12.9-44.34-25.09-72.27-25.09h0c-28.15,0-58.07,5.18-87,10.18-6.06,1-12.1,2.09-18.09,3.08l-4.54.75,9.93-55.68,3.94,2.09c28.77,15.3,63.11,16.62,98.7,16.68,13.33,0,27.05-1.25,41.59-2.6,31.93-3,65-6,93.76,5.49h0c18.92,7.57,43.88,22.58,55.29,51.14a12.86,12.86,0,0,1-.37,10.33,13.05,13.05,0,0,1-8,6.81A109.41,109.41,0,0,1,581,233.19ZM427.27,173.85c29.65,0,51.9,12.6,75.47,25.93,13.26,7.5,27,15.26,42.27,20.7a106.08,106.08,0,0,0,65.61,1.91,6.49,6.49,0,0,0,4-3.4,6.22,6.22,0,0,0,.19-5.1c-10.55-26.42-33.92-40.42-51.67-47.51h0c-27.35-10.93-59.58-7.95-90.74-5.06-14.05,1.3-28.54,2.64-42.2,2.63-34.86-.06-68.58-1.33-97.78-15.43l-6.77,37.92q6.74-1.14,13.51-2.32c29.21-5,59.41-10.26,88.12-10.27Z"/><path class="cls-1" d="M118.28,22.9C156.79,44,178.09,91.31,205.71,124.67c21.11,25.5,45.18,53.3,76.94,66.45l-15.38,18.1-15.38,18.09c-17.81-30.69-35.15-63.48-57-89.94-29.06-35.22-71.68-37.45-110.07-60.43A109.65,109.65,0,0,1,40.29,26,9.68,9.68,0,0,1,46.2,13C71.1,5.07,96.55,11,118.28,22.9Z"/><path class="cls-2" d="M251.39,232.92l-2.31-4q-4.58-7.89-9.14-15.93c-14.56-25.49-29.62-51.86-47.53-73.57-17.78-21.55-40.88-30.41-65.35-39.79C112.58,94.1,97.61,88.36,83.18,79.73A112.62,112.62,0,0,1,37.3,27.28a13,13,0,0,1,.17-10.48,12.9,12.9,0,0,1,7.74-6.86C74.5.57,102,10.26,119.84,20.05c27.22,14.89,45.87,42.31,63.91,68.82,8.21,12.07,16,23.47,24.46,33.73,22.7,27.41,45.57,53.06,75.68,65.52l4.13,1.7ZM69.76,12.64a73.8,73.8,0,0,0-22.57,3.49,6.27,6.27,0,0,0-3.81,3.39,6.5,6.5,0,0,0-.09,5.24A106,106,0,0,0,86.52,74.15c13.94,8.34,28.65,14,42.87,19.43,25.28,9.69,49.17,18.85,68,41.72,18.27,22.14,33.47,48.76,48.16,74.49,2.28,4,4.54,8,6.82,11.91l24.94-29.35c-29.46-13.55-51.9-38.76-74.13-65.61-8.69-10.49-16.9-22.55-24.83-34.21-17.61-25.88-35.81-52.64-61.66-66.78C104.72,19.18,88.15,12.64,69.76,12.64Z"/><path class="cls-1" d="M95.89,76.28c43.19,7.87,78.31,46.09,115,69.05,28.07,17.56,59.66,36.36,93.95,38.84l-8.9,22-8.89,22c-26.57-23.52-53.35-49.19-82.41-67.42-38.66-24.28-79.82-13-123.49-22.69a109.59,109.59,0,0,1-58.33-34.29,9.68,9.68,0,0,1,1.52-14.18C45.5,74.22,71.52,71.84,95.89,76.28Z"/><path class="cls-2" d="M288.38,233.69l-3.45-3.05c-4.55-4-9.11-8.13-13.69-12.23-21.85-19.62-44.44-39.9-68.28-54.87-23.67-14.86-48.38-16-74.56-17.18-15.49-.71-31.51-1.44-47.92-5.09A112.63,112.63,0,0,1,20.41,106a13.07,13.07,0,0,1-3.13-10,12.87,12.87,0,0,1,5.18-9c24.85-18.12,54-17.57,74-13.92,30.52,5.57,56.86,25.71,82.33,45.19,11.6,8.87,22.55,17.25,33.84,24.31,30.18,18.87,60,36,92.46,38.35l4.46.32ZM74.57,77.54c-15.44,0-32.82,3.44-48.28,14.71a6.3,6.3,0,0,0-2.55,4.42,6.51,6.51,0,0,0,1.57,5,106.07,106.07,0,0,0,56.58,33.26c15.86,3.52,31.59,4.24,46.81,4.94,27.05,1.23,52.6,2.4,77.71,18.16,24.32,15.27,47.12,35.74,69.18,55.54q5.12,4.59,10.21,9.15L300.23,187c-32.23-3.57-61.47-20.43-91-38.91-11.56-7.22-23.14-16.08-34.35-24.65-24.86-19-50.56-38.68-79.55-44h0A116.47,116.47,0,0,0,74.57,77.54Z"/><path class="cls-1" d="M75.67,163.36c40.76-16.29,90.83-2.59,134.14-2.66,33.11-.06,69.87-.92,100.22-17.06,1.67,9.36,2.51,14,4.17,23.38s2.51,14,4.17,23.38c-35-5.79-71.33-13.29-105.63-13.3-45.66,0-74.51,31.45-116.66,46.44a109.57,109.57,0,0,1-67.63,2,9.69,9.69,0,0,1-6.26-12.83C31.89,188.41,52.66,172.56,75.67,163.36Z"/><path class="cls-2" d="M59,233.19a109.36,109.36,0,0,1-31.47-4.57,13.05,13.05,0,0,1-8-6.81,12.86,12.86,0,0,1-.37-10.33c11.41-28.56,36.37-43.57,55.29-51.14h0c28.81-11.51,61.83-8.45,93.76-5.49,14.41,1.34,28,2.6,41.23,2.6h.36c35.59-.06,69.93-1.38,98.7-16.68l3.94-2.09,9.93,55.68-4.54-.75c-6-1-12-2-18.09-3.08-28.94-5-58.86-10.17-87-10.18h0c-27.93,0-49.47,12.19-72.27,25.09C127,213.08,113,221,97.17,226.6A114.35,114.35,0,0,1,59,233.19Zm17.9-66.81c-17.75,7.09-41.12,21.09-51.67,47.51a6.22,6.22,0,0,0,.19,5.1,6.49,6.49,0,0,0,4,3.4A106.08,106.08,0,0,0,95,220.48c15.3-5.44,29-13.2,42.27-20.7,23.56-13.33,45.83-25.93,75.47-25.93h0c28.71,0,58.91,5.23,88.12,10.27q6.78,1.17,13.51,2.32l-6.77-37.92c-29.2,14.1-62.92,15.37-97.78,15.43-13.64,0-28.15-1.32-42.2-2.63-31.16-2.89-63.39-5.87-90.74,5.06Z"/></g></svg>