<svg xmlns="http://www.w3.org/2000/svg" viewBox="0 0 640 320"><defs><style>.cls-1{fill:#fff;}.cls-2{fill:#0d0a09;}</style></defs><g id="top-shape"><circle class="cls-1" cx="320" cy="142.96" r="17.04"/><path class="cls-2" d="M320,163.25A20.29,20.29,0,1,1,340.29,143,20.31,20.31,0,0,1,320,163.25Zm0-34.08A13.79,13.79,0,1,0,333.79,143,13.81,13.81,0,0,0,320,129.17Z"/><circle class="cls-1" cx="354.08" cy="134.97" r="17.04"/><path class="cls-2" d="M354.08,155.25A20.29,20.29,0,1,1,374.37,135,20.31,20.31,0,0,1,354.08,155.25Zm0-34.07A13.79,13.79,0,1,0,367.87,135,13.8,13.8,0,0,0,354.08,121.18Z"/><circle class="cls-1" cx="383.64" cy="119.39" r="15.58"/><path class="cls-2" d="M383.64,138.22a18.83,18.83,0,1,1,18.82-18.83A18.86,18.86,0,0,1,383.64,138.22Zm0-31.16A12.33,12.33,0,1,0,396,119.39,12.34,12.34,0,0,0,383.64,107.06Z"/><circle class="cls-1" cx="405.55" cy="101.6" r="12.54"/><path class="cls-2" d="M405.55,117.39a15.79,15.79,0,1,1,15.78-15.79A15.8,15.8,0,0,1,405.55,117.39Zm0-25.08a9.29,9.29,0,1,0,9.28,9.29A9.3,9.3,0,0,0,405.55,92.31Z"/><circle class="cls-1" cx="419.94" cy="79.22" r="12.54"/><path class="cls-2" d="M419.94,95a15.79,15.79,0,1,1,15.79-15.78A15.8,15.8,0,0,1,419.94,95Zm0-25.07a9.29,9.29,0,1,0,9.29,9.29A9.3,9.3,0,0,0,419.94,69.93Z"/><circle class="cls-1" cx="285.92" cy="134.97" r="17.04"/><path class="cls-2" d="M285.92,155.25A20.29,20.29,0,1,1,306.21,135,20.31,20.31,0,0,1,285.92,155.25Zm0-34.07A13.79,13.79,0,1,0,299.71,135,13.8,13.8,0,0,0,285.92,121.18Z"/><circle class="cls-1" cx="256.36" cy="119.39" r="15.58"/><path class="cls-2" d="M256.36,138.22a18.83,18.83,0,1,1,18.83-18.83A18.85,18.85,0,0,1,256.36,138.22Zm0-31.16a12.33,12.33,0,1,0,12.33,12.33A12.34,12.34,0,0,0,256.36,107.06Z"/><circle class="cls-1" cx="234.45" cy="101.6" r="12.54"/><path class="cls-2" d="M234.45,117.39a15.79,15.79,0,1,1,15.79-15.79A15.8,15.8,0,0,1,234.45,117.39Zm0-25.08a9.29,9.29,0,1,0,9.29,9.29A9.3,9.3,0,0,0,234.45,92.31Z"/><circle class="cls-1" cx="220.06" cy="79.22" r="12.54"/><path class="cls-2" d="M220.06,95a15.79,15.79,0,1,1,15.79-15.78A15.81,15.81,0,0,1,220.06,95Zm0-25.07a9.29,9.29,0,1,0,9.29,9.29A9.3,9.3,0,0,0,220.06,69.93Z"/></g></svg>