<svg xmlns="http://www.w3.org/2000/svg" viewBox="0 0 640 320"><defs><style>.cls-1{fill:#ff7bac;}.cls-2{fill:#0d0a09;}</style></defs><g id="top-shape"><path class="cls-1" d="M304,108.36h19.21A12.88,12.88,0,0,1,336,121.25v19.21a0,0,0,0,1,0,0H316.84A12.88,12.88,0,0,1,304,127.57V108.36A0,0,0,0,1,304,108.36Z" transform="translate(181.7 -189.84) rotate(45)"/><path class="cls-2" d="M320,151.7l-15.88-15.88a16.13,16.13,0,0,1,0-22.82L320,97.12,335.88,113a16.13,16.13,0,0,1,0,22.82Zm0-45.39L308.72,117.6a9.61,9.61,0,0,0,0,13.62L320,142.51l11.28-11.29a9.61,9.61,0,0,0,0-13.62Z"/><path class="cls-1" d="M320,147.58l-13.24,13.24a32.27,32.27,0,0,0-9.45,22.81v32.5l17.17,17.17a7.8,7.8,0,0,0,11,0l17.17-17.17v-32.5a32.27,32.27,0,0,0-9.45-22.81Z"/><path class="cls-2" d="M320,238.83a11,11,0,0,1-7.82-3.23l-18.12-18.13V183.63a35.28,35.28,0,0,1,10.4-25.11L320,143l15.54,15.54a35.28,35.28,0,0,1,10.4,25.11v33.84L327.82,235.6A11,11,0,0,1,320,238.83Zm-19.44-24.05L316.78,231a4.56,4.56,0,0,0,6.44,0l16.22-16.22V183.63a28.81,28.81,0,0,0-8.5-20.51l-10.94-11-10.94,11a28.81,28.81,0,0,0-8.5,20.51Z"/></g><g id="Eyes"><path class="cls-2" d="M329.45,167.12a31.15,31.15,0,0,1-7.53-7.87c-1-1.53-1.65-3.25-2.5-4.85s-1.48-3.28-2.23-4.89a1,1,0,1,1,1.75-.81l0,0q1,2.47,2.19,4.83a45.93,45.93,0,0,0,2.65,4.51,41.76,41.76,0,0,0,2.87,4.34,47.19,47.19,0,0,0,3.39,4,.47.47,0,0,1-.61.71Z"/><path class="cls-2" d="M317.76,171A31.22,31.22,0,0,1,317,160.1c.18-1.82.78-3.56,1.13-5.33s.94-3.48,1.39-5.2a1,1,0,0,1,1.17-.7,1,1,0,0,1,.7,1.18l0,0c-.51,1.71-1,3.41-1.37,5.12a45.84,45.84,0,0,0-.8,5.17,39.06,39.06,0,0,0-.54,5.17,46.06,46.06,0,0,0,.08,5.25.47.47,0,0,1-.43.51A.5.5,0,0,1,317.76,171Z"/><path class="cls-2" d="M310.33,127.21a31,31,0,0,1,7.53,7.88c1,1.52,1.65,3.25,2.5,4.84s1.48,3.28,2.23,4.89a1,1,0,1,1-1.75.82l0,0c-.68-1.65-1.41-3.25-2.19-4.83a47,47,0,0,0-2.65-4.5,43,43,0,0,0-2.87-4.35,47.19,47.19,0,0,0-3.39-4,.46.46,0,0,1,0-.66A.48.48,0,0,1,310.33,127.21Z"/><path class="cls-2" d="M322,123.37a31.46,31.46,0,0,1,.82,10.86c-.19,1.83-.79,3.57-1.14,5.33s-.94,3.48-1.38,5.2a1,1,0,1,1-1.88-.48l0,0c.52-1.7,1-3.41,1.37-5.12a45.84,45.84,0,0,0,.8-5.17,38.89,38.89,0,0,0,.54-5.17,46.06,46.06,0,0,0-.08-5.25.46.46,0,0,1,.44-.5A.48.48,0,0,1,322,123.37Z"/></g></svg>