<svg xmlns="http://www.w3.org/2000/svg" viewBox="0 0 640 320"><defs><style>.cls-1{fill:red;}.cls-2{fill:#0d0a09;}</style></defs><g id="top-shape"><path class="cls-1" d="M423.78,230.06c-20.16-36.58-59.06-58.19-103.78-58.19s-83.62,21.61-103.78,58.19a161.56,161.56,0,0,0,207.56,0Z"/><path class="cls-2" d="M320,271.05a165,165,0,0,1-105.86-38.5l-2-1.72,1.29-2.34C234,191,273.9,168.62,320,168.62S406,191,426.62,228.49l1.29,2.34-2.05,1.72A165,165,0,0,1,320,271.05Zm-99.6-41.76a158.3,158.3,0,0,0,199.2,0c-19.85-34-56.87-54.17-99.6-54.17S240.25,195.31,220.4,229.29Z"/><path class="cls-1" d="M410.21,197c-17.52-31.79-51.34-50.58-90.21-50.58S247.31,165.22,229.79,197a140.42,140.42,0,0,0,180.42,0Z"/><path class="cls-2" d="M320,233.07a143.86,143.86,0,0,1-92.3-33.57l-2-1.72,1.29-2.34c18-32.72,52.83-52.26,93.06-52.26s75,19.54,93.06,52.26l1.29,2.34-2.05,1.72A143.86,143.86,0,0,1,320,233.07Zm-86-36.83a137.18,137.18,0,0,0,172.06,0c-17.23-29.21-49.18-46.56-86-46.56S251.2,167,234,196.24Z"/><path class="cls-1" d="M395.3,164.66c-14.63-26.53-42.85-42.22-75.3-42.22s-60.67,15.69-75.3,42.22a117.2,117.2,0,0,0,150.6,0Z"/><path class="cls-2" d="M320,195.3a120.64,120.64,0,0,1-77.39-28.14l-2.05-1.72,1.29-2.34C257,135.61,286.22,119.19,320,119.19s63,16.42,78.15,43.91l1.29,2.34-2.05,1.72A120.64,120.64,0,0,1,320,195.3Zm-71.11-31.41a114,114,0,0,0,142.22,0c-14.34-24-40.71-38.2-71.11-38.2S263.23,139.92,248.89,163.89Z"/><path class="cls-1" d="M378.79,131C367.37,110.27,345.33,98,320,98s-47.37,12.25-58.79,33a91.52,91.52,0,0,0,117.58,0Z"/><path class="cls-2" d="M320,155.62a95,95,0,0,1-60.88-22.14l-2-1.72,1.29-2.34c11.95-21.7,35-34.65,61.63-34.65s49.68,13,61.63,34.65l1.29,2.34-2,1.72A95,95,0,0,1,320,155.62Zm-54.58-25.4a88.26,88.26,0,0,0,109.16,0C363.45,112,343.25,101.27,320,101.27S276.55,112,265.42,130.22Z"/></g><g id="Kitchen_Sink" data-name="Kitchen Sink"><path d="M270.58,163.52c0-.39.05-1,.05-1.5v-7h1.05v3.64h0a2.15,2.15,0,0,1,2-1.06c1.44,0,2.46,1.2,2.45,3,0,2.07-1.31,3.1-2.61,3.1a2.06,2.06,0,0,1-1.94-1.09h0l0,1Zm1.1-2.32a2.33,2.33,0,0,0,0,.38,1.64,1.64,0,0,0,1.59,1.23c1.1,0,1.76-.9,1.76-2.23,0-1.16-.6-2.16-1.73-2.16a1.68,1.68,0,0,0-1.6,1.3,1.71,1.71,0,0,0-.06.43Z"/><path d="M282.71,160.57a2.83,2.83,0,0,1-2.89,3.08,2.76,2.76,0,0,1-2.78-3,2.83,2.83,0,0,1,2.88-3.08A2.74,2.74,0,0,1,282.71,160.57Zm-4.6.06c0,1.27.73,2.23,1.76,2.23s1.76-1,1.76-2.25c0-1-.49-2.23-1.73-2.23S278.11,159.53,278.11,160.63Z"/><path d="M289.06,155v7c0,.52,0,1.11.05,1.5h-.95l0-1h0a2.14,2.14,0,0,1-2,1.14c-1.4,0-2.48-1.18-2.48-3,0-1.93,1.19-3.11,2.6-3.11a1.92,1.92,0,0,1,1.75.88h0V155ZM288,160.08a1.65,1.65,0,0,0-.05-.44,1.55,1.55,0,0,0-1.52-1.23c-1.1,0-1.74,1-1.74,2.25s.57,2.14,1.71,2.14a1.67,1.67,0,0,0,1.6-1.71Z"/><path d="M291.2,157.72l1.27,3.43c.13.38.28.84.37,1.18h0c.11-.34.23-.79.37-1.21l1.15-3.4h1.12l-1.59,4.14c-.75,2-1.27,3-2,3.63a2.8,2.8,0,0,1-1.29.68l-.27-.88a3.05,3.05,0,0,0,.93-.52,3.32,3.32,0,0,0,.88-1.18.69.69,0,0,0,.09-.25,1.18,1.18,0,0,0-.07-.27l-2.15-5.35Z"/><path d="M298.87,159.89v.78h-3v-.78Z"/><path d="M304.46,163.31a4,4,0,0,1-1.67.33,2.76,2.76,0,0,1-2.89-3A2.94,2.94,0,0,1,303,157.6a3.44,3.44,0,0,1,1.46.3l-.24.81a2.5,2.5,0,0,0-1.22-.27,2.19,2.19,0,0,0,0,4.36,2.9,2.9,0,0,0,1.3-.29Z"/><path d="M310.88,160.57a2.83,2.83,0,0,1-2.89,3.08,2.76,2.76,0,0,1-2.78-3,2.83,2.83,0,0,1,2.87-3.08A2.75,2.75,0,0,1,310.88,160.57Zm-4.61.06c0,1.27.73,2.23,1.77,2.23s1.76-1,1.76-2.25c0-1-.49-2.23-1.74-2.23S306.27,159.53,306.27,160.63Z"/><path d="M312.54,157.72l1.14,3.26a15.54,15.54,0,0,1,.46,1.49h0c.13-.48.3-1,.49-1.49l1.13-3.26h1.1l-2.28,5.8h-1l-2.21-5.8Z"/><path d="M318.37,160.81a1.86,1.86,0,0,0,2,2,4,4,0,0,0,1.61-.3l.18.75a4.71,4.71,0,0,1-1.93.36,2.69,2.69,0,0,1-2.86-2.92c0-1.76,1-3.13,2.72-3.13a2.45,2.45,0,0,1,2.4,2.73,4.68,4.68,0,0,1,0,.49Zm3.09-.75a1.5,1.5,0,0,0-1.46-1.72,1.74,1.74,0,0,0-1.62,1.72Z"/><path d="M323.79,159.53c0-.69,0-1.27-.05-1.81h.93l0,1.14h.05a1.75,1.75,0,0,1,1.61-1.27,1.39,1.39,0,0,1,.3,0v1a1.32,1.32,0,0,0-.36,0,1.49,1.49,0,0,0-1.42,1.36,3.47,3.47,0,0,0,0,.49v3.09h-1Z"/><path d="M332.84,164.42v.6h-6v-.6Z"/><path d="M338.56,159.54c0,2.65-1,4.11-2.71,4.11-1.52,0-2.55-1.42-2.58-4s1.13-4.06,2.71-4.06S338.56,157.06,338.56,159.54Zm-4.23.12c0,2,.62,3.18,1.58,3.18s1.6-1.26,1.6-3.25-.5-3.18-1.59-3.18C335,156.41,334.33,157.54,334.33,159.66Z"/><path d="M344.72,159.54c0,2.65-1,4.11-2.71,4.11-1.53,0-2.56-1.42-2.58-4s1.13-4.06,2.71-4.06S344.72,157.06,344.72,159.54Zm-4.24.12c0,2,.63,3.18,1.59,3.18s1.59-1.26,1.59-3.25-.49-3.18-1.58-3.18C341.16,156.41,340.48,157.54,340.48,159.66Z"/><path d="M350.87,159.54c0,2.65-1,4.11-2.71,4.11-1.52,0-2.55-1.42-2.58-4s1.13-4.06,2.71-4.06S350.87,157.06,350.87,159.54Zm-4.23.12c0,2,.62,3.18,1.58,3.18s1.6-1.26,1.6-3.25-.49-3.18-1.59-3.18C347.31,156.41,346.64,157.54,346.64,159.66Z"/><path d="M354.14,156.71h0l-1.36.73-.2-.8,1.7-.91h.9v7.79h-1Z"/><path d="M357.46,155.13h6v8.39h-6Zm.6,7.25,2-3.06-2-3Zm4.44-6.65h-4.08l2,3.06Zm0,7.19-2-3.06-2,3.06Zm.36-.54v-6.11l-2,3Z"/></g></svg>