<svg xmlns="http://www.w3.org/2000/svg" viewBox="0 0 640 320"><defs><style>.cls-1{fill:blue;}.cls-2{fill:#0d0a09;}</style></defs><g id="top-shape"><path class="cls-1" d="M440.69,90.24l3.59-40.84L320,53.28,195.72,49.4l3.59,40.84c-37.34,30.38-56,86.34-44.74,108.41,9.92,19.36,45.11,17.57,61.64,31.43a161.65,161.65,0,0,0,207.58,0c16.53-13.86,51.72-12.07,61.64-31.43C496.73,176.58,478,120.62,440.69,90.24Z"/><path class="cls-2" d="M320,271.05a165,165,0,0,1-105.88-38.48c-6.5-5.46-16.74-8.47-26.65-11.39-14.48-4.27-29.46-8.68-35.8-21.05C139.81,177,158.29,120.4,195.93,88.82L192.17,46,320,50l127.83-4-3.76,42.79c37.64,31.58,56.12,88.14,44.26,111.31C482,212.5,467,216.91,452.53,221.18c-9.91,2.92-20.15,5.93-26.65,11.39A165,165,0,0,1,320,271.05ZM199.28,52.76l3.42,38.91-1.34,1.09c-35.4,28.8-54.74,83.24-43.9,104.4,5.07,9.9,18.08,13.73,31.85,17.78,10.54,3.11,21.44,6.32,29,12.65a158.4,158.4,0,0,0,203.4,0c7.55-6.33,18.45-9.54,29-12.65,13.77-4.05,26.78-7.88,31.85-17.78,10.84-21.17-8.5-75.6-43.9-104.4l-1.34-1.09,3.42-38.91L320,56.54h-.1Z"/></g></svg>