<svg xmlns="http://www.w3.org/2000/svg" viewBox="0 0 640 320"><defs><style>.cls-1{fill:red;}.cls-2{fill:#0d0a09;}</style></defs><g id="top-shape"><path class="cls-1" d="M395.48,121.47C372.13,99.68,341.39,88.52,320,88.52s-52.12,11.16-75.48,33a18.93,18.93,0,0,0,4.81,30.92c21.78,10.14,30.53,23.43,21.48,55.42-6,21.23-35.93,41.18-5,50.69,7.24,2.22,28,7.21,30.69,7.6a163,163,0,0,0,47,0c2.67-.39,23.45-5.38,30.69-7.6,30.95-9.51,1-29.46-5-50.69-9.05-32-.3-45.28,21.48-55.42A18.93,18.93,0,0,0,395.48,121.47Z"/><path class="cls-2" d="M320,271.05a165.42,165.42,0,0,1-23.95-1.74c-3-.44-23.94-5.48-31.17-7.7-8.53-2.62-13.55-6.31-15.35-11.28-2.78-7.64,2.68-16.05,8.45-25,3.91-6,7.95-12.26,9.71-18.45,8.91-31.5-.06-42.43-19.73-51.58a22.18,22.18,0,0,1-5.65-36.24c25-23.37,57.06-33.83,77.69-33.83s52.65,10.46,77.69,33.83h0A22.18,22.18,0,0,1,392,155.34c-19.67,9.15-28.64,20.08-19.73,51.58,1.76,6.19,5.8,12.42,9.71,18.45,5.77,8.91,11.23,17.32,8.45,25-1.8,5-6.82,8.66-15.35,11.28-7.23,2.22-28.14,7.26-31.17,7.7A165.42,165.42,0,0,1,320,271.05Zm0-179.28c-19.35,0-49.51,9.92-73.26,32.08a15.7,15.7,0,0,0-4.76,14,15.26,15.26,0,0,0,8.72,11.64c25.44,11.84,31.95,28.45,23.24,59.25-2,7.14-6.33,13.79-10.5,20.22-4.87,7.51-9.48,14.6-7.81,19.2,1.05,2.88,4.8,5.33,11.16,7.28,7.16,2.2,27.84,7.15,30.2,7.49a159.83,159.83,0,0,0,46,0c2.36-.34,23-5.29,30.2-7.49,6.36-1.95,10.11-4.4,11.16-7.28,1.67-4.6-2.94-11.69-7.81-19.2-4.17-6.43-8.48-13.08-10.5-20.22-8.71-30.8-2.2-47.41,23.24-59.25A15.26,15.26,0,0,0,398,137.8a15.7,15.7,0,0,0-4.76-14h0C369.51,101.69,339.35,91.77,320,91.77Z"/></g></svg>