<svg xmlns="http://www.w3.org/2000/svg" viewBox="0 0 320 640"><defs><style>.cls-1{fill:blue;}.cls-2{fill:#0d0a09;}</style></defs><g id="Kitchen_Sink" data-name="Kitchen Sink"><path class="cls-1" d="M170.81,311.34s16.52,18.49,52,12.2c4.27-.75,12-10.67,11.4-12.39-2-5.65-18.3-20.06-58.95-22.75"/><path class="cls-2" d="M171.19,311a36.38,36.38,0,0,0,7.05,4.6A51.57,51.57,0,0,0,186,318.8a56.47,56.47,0,0,0,16.32,2.62c2.75,0,5.49-.11,8.22-.31s5.45-.56,8.17-1c.68-.1,1.35-.23,2-.34l1.41-.24a5.81,5.81,0,0,0,1-.55,13.87,13.87,0,0,0,1.32-1,31.19,31.19,0,0,0,4.94-5.67,13,13,0,0,0,.8-1.36c.08-.15.13-.34.06-.09,0,.08,0,.19,0,.42a3.31,3.31,0,0,0,.2,1.22.77.77,0,0,1-.07-.16,10.8,10.8,0,0,0-1.74-2.41,35.79,35.79,0,0,0-5.86-4.9,73.2,73.2,0,0,0-14.56-7.48c-10.4-4.08-21.57-6.56-32.92-8.64l.07-1a112.13,112.13,0,0,1,34.84,3.68,73.42,73.42,0,0,1,8.5,2.9,58,58,0,0,1,8.22,4,40.38,40.38,0,0,1,3.9,2.63,29.86,29.86,0,0,1,3.68,3.24,17.27,17.27,0,0,1,3.27,4.57l.34.84a4.78,4.78,0,0,1,.26,1.74,6.21,6.21,0,0,1-.12,1,8.93,8.93,0,0,1-.68,1.93,18.84,18.84,0,0,1-1.37,2.37,37.82,37.82,0,0,1-6.4,7.28,21.25,21.25,0,0,1-2.09,1.61,12.5,12.5,0,0,1-2.82,1.47,7.94,7.94,0,0,1-1,.29l-.29.06-.14,0-.28,0-1.12.17c-.74.1-1.48.23-2.23.32a68,68,0,0,1-9,.45,64.94,64.94,0,0,1-9-.86,63.16,63.16,0,0,1-17.15-5.36,49.86,49.86,0,0,1-7.63-4.6,35.39,35.39,0,0,1-6.5-6Z"/><path class="cls-1" d="M160.61,310.9s-32,19.74-65.76,7.26c-4.06-1.51-9.91-12.64-9-14.23,3-5.2,21.57-16.48,62.06-11.91"/><path class="cls-2" d="M160.87,311.33a81.31,81.31,0,0,1-17,8.66,88.73,88.73,0,0,1-18.74,4.87,67.72,67.72,0,0,1-19.7.09,58.87,58.87,0,0,1-9.72-2.27l-1.19-.4-.59-.19-.3-.1-.16-.06-.29-.11a11,11,0,0,1-3.11-2.1,25.63,25.63,0,0,1-3.6-4.31,39.43,39.43,0,0,1-2.67-4.52c-.4-.78-.77-1.59-1.12-2.47-.18-.45-.34-.91-.5-1.42a10.77,10.77,0,0,1-.41-1.92,6.2,6.2,0,0,1,0-.79,5.32,5.32,0,0,1,0-.54,5.81,5.81,0,0,1,.15-.75,3.49,3.49,0,0,1,.15-.46,4.79,4.79,0,0,1,.26-.56l.15-.25.27-.42A11.54,11.54,0,0,1,83.79,300,17.33,17.33,0,0,1,86,297.9,27.6,27.6,0,0,1,90.55,295a58.72,58.72,0,0,1,19.17-5.64,97.21,97.21,0,0,1,19.34-.57A119.14,119.14,0,0,1,148,291.52l-.11,1c-12.59,0-25.11.59-36.95,3.32a61,61,0,0,0-16.52,6.08,29.42,29.42,0,0,0-3.31,2.25,13.09,13.09,0,0,0-1.24,1.17,5.84,5.84,0,0,0-.37.48l0,.08s0,.06,0,0a2.39,2.39,0,0,0,.2-.43c0-.14.08-.21.11-.32a3.26,3.26,0,0,0,.09-.46c0-.08,0-.2,0-.25a.82.82,0,0,0,0-.2c0-.08,0,.16.11.38s.17.51.29.8c.23.58.52,1.2.82,1.82a33.21,33.21,0,0,0,2.11,3.6,18.61,18.61,0,0,0,2.4,3,4.37,4.37,0,0,0,.74.58l1.93.68c.69.26,1.4.48,2.11.68s1.4.45,2.12.65c1.43.37,2.86.76,4.31,1s2.92.57,4.39.83,3,.42,4.44.56a73.63,73.63,0,0,0,9.05.37,89.58,89.58,0,0,0,35.72-8.7Z"/><path class="cls-1" d="M117.91,306.05c0-22.45,21.46-19.2,43.9-19.2s37.38-3.25,37.38,19.2a40.64,40.64,0,1,1-81.28,0Z"/><path class="cls-2" d="M113.87,306.05a30.16,30.16,0,0,1,1.26-8.31,18.81,18.81,0,0,1,4.69-7.74,20.53,20.53,0,0,1,7.58-4.47,39,39,0,0,1,7.85-1.66,122.45,122.45,0,0,1,15-.4c4.9.07,9.69.17,14.47,0s9.64-.3,14.68-.25a50.49,50.49,0,0,1,7.8.66,25.85,25.85,0,0,1,4.1,1.07,18.75,18.75,0,0,1,4.08,2,16.59,16.59,0,0,1,3.49,3.26,19.19,19.19,0,0,1,2.32,4,28.3,28.3,0,0,1,1.9,8.22,38.13,38.13,0,0,1,.19,4l-.12,4c-.15,1.33-.34,2.65-.52,4s-.58,2.61-.87,3.93a44.78,44.78,0,0,1-49.56,32.89,43.51,43.51,0,0,1-15.43-5.16,45,45,0,0,1-12.41-10.39A45.76,45.76,0,0,1,113.87,306.05Zm8.08,0a37.12,37.12,0,0,0,2.63,12.7,36.07,36.07,0,0,0,6.87,10.85,37,37,0,0,0,10.1,7.78c1,.44,1.94.87,2.89,1.33s2,.71,3,1.08a37.57,37.57,0,0,0,18.83,1A35.37,35.37,0,0,0,178,336a37.48,37.48,0,0,0,9.45-8.58,36.34,36.34,0,0,0,6-11.38c.27-1.05.64-2.07.84-3.14l.56-3.21.24-3.26a32.61,32.61,0,0,0,0-3.28A20.87,20.87,0,0,0,194,297.2a10.77,10.77,0,0,0-1.19-2.32,8.73,8.73,0,0,0-1.72-1.77,11.19,11.19,0,0,0-2.35-1.3,18.57,18.57,0,0,0-2.9-.85,43.58,43.58,0,0,0-6.66-.76c-4.65-.23-9.5-.05-14.39-.07s-9.81-.14-14.61-.19a93.36,93.36,0,0,0-14,.72,28.4,28.4,0,0,0-6.29,1.58,13.29,13.29,0,0,0-4.73,3.05,11.11,11.11,0,0,0-2.54,4.7A21.87,21.87,0,0,0,122,306.05Z"/><path class="cls-1" d="M154.33,342.75c1,4.16,11.2,11.21,12.87,10.52,5.45-2.27,18.72-19.18,19.05-59.4"/><path class="cls-2" d="M154.82,342.64a12,12,0,0,0,3.72,2.93,28,28,0,0,0,4.4,2.07c.76.28,1.51.54,2.21.81l1.87.75c.23.1.51.15.3.09a1.45,1.45,0,0,0-.42,0,3.43,3.43,0,0,0-.56.05l-.18,0-.25.07-.24.09h0a1.14,1.14,0,0,1,.19-.09,8.61,8.61,0,0,0,1.31-1,30.07,30.07,0,0,0,5.44-7,63,63,0,0,0,4.26-8.59,113.72,113.72,0,0,0,5.66-19c.69-3.28,1.29-6.59,1.82-9.93s.95-6.71,1.42-10.09h1a117.81,117.81,0,0,1,.37,20.67,92.4,92.4,0,0,1-3.75,20.66,62.13,62.13,0,0,1-4.06,10,39.37,39.37,0,0,1-2.88,4.78,27.58,27.58,0,0,1-3.88,4.49,15.19,15.19,0,0,1-2.78,2c-.29.16-.64.32-1,.47l-.1,0-.32.11-.32.1-.26.05a4.24,4.24,0,0,1-.87.08,4.8,4.8,0,0,1-1.06-.1,8.65,8.65,0,0,1-2.11-.73,13.6,13.6,0,0,1-4.63-3.73,38.76,38.76,0,0,1-3.35-4.54,16.9,16.9,0,0,1-1.31-2.54,7.48,7.48,0,0,1-.65-2.87Z"/><path class="cls-1" d="M130.69,329.14c1,4.17,11.69,24.85,13.36,24.16,5.45-2.27,19-17.79,19.29-58"/><path class="cls-2" d="M131.18,329a22.29,22.29,0,0,0,1.43,2.4c.51.79,1,1.59,1.57,2.37,1.08,1.56,2.14,3.13,3.26,4.67,2.18,3.08,4.67,6,6.72,9,.52.71,1,1.44,1.49,2a4.53,4.53,0,0,0,.32.38l.16.16,0-.05a.83.83,0,0,0-.17-.12l-.2-.13-.3-.15a2.56,2.56,0,0,0-.49-.16,3.35,3.35,0,0,0-.95-.13,3.7,3.7,0,0,0-1.41.27c-.15.06,0,0-.07,0h0l.07,0,.13-.06a8.86,8.86,0,0,0,1.55-1.11,18,18,0,0,0,1.67-1.62,41.28,41.28,0,0,0,5.77-8.51A89.31,89.31,0,0,0,159,317.58a215.5,215.5,0,0,0,3.82-22.29h1a112.21,112.21,0,0,1,.14,23.11A87.12,87.12,0,0,1,162.06,330a67.64,67.64,0,0,1-3.7,11.37A41.52,41.52,0,0,1,151.94,352a25.37,25.37,0,0,1-2.36,2.4,15.52,15.52,0,0,1-3.08,2.2l-.51.24-.26.12-.06,0-.15.07a4.57,4.57,0,0,1-1.58.29,4.8,4.8,0,0,1-1.13-.15,6.21,6.21,0,0,1-.65-.23l-.46-.23-.35-.22a4.07,4.07,0,0,1-.45-.34l-.32-.28a11.44,11.44,0,0,1-1.37-1.62,25.45,25.45,0,0,1-1.71-2.7,66.26,66.26,0,0,1-4.34-11c-.61-1.86-1.22-3.7-1.73-5.59a34.88,34.88,0,0,1-1.22-5.8Z"/></g></svg>