<svg xmlns="http://www.w3.org/2000/svg" viewBox="0 0 320 640"><defs><style>.cls-1{fill:blue;}.cls-2{fill:#0d0a09;}</style></defs><g id="Kitchen_Sink" data-name="Kitchen Sink"><path class="cls-1" d="M154.65,307.46s18.49-16.52,12.21-52c-.76-4.27-10.67-12-12.4-11.39-5.64,2-20.05,18.29-22.75,58.95"/><path class="cls-2" d="M154.32,307.08a35.92,35.92,0,0,0,4.6-7.05,50.14,50.14,0,0,0,3.19-7.75A56.83,56.83,0,0,0,164.74,276c0-2.75-.12-5.49-.32-8.22s-.55-5.45-1-8.16c-.09-.68-.22-1.36-.33-2s-.27-1.64-.25-1.4a4.62,4.62,0,0,0-.55-1,13.68,13.68,0,0,0-1-1.32,30.75,30.75,0,0,0-5.67-4.93,11.69,11.69,0,0,0-1.36-.81c-.16-.08-.34-.12-.1-.06a2.15,2.15,0,0,0,.43.05,3.34,3.34,0,0,0,1.22-.2l-.16.07a11,11,0,0,0-2.41,1.75,34.5,34.5,0,0,0-4.9,5.86,72.88,72.88,0,0,0-7.49,14.55c-4.08,10.4-6.55,21.57-8.64,32.92l-1-.07a112.12,112.12,0,0,1,3.67-34.84,77.41,77.41,0,0,1,2.9-8.5,58.42,58.42,0,0,1,4.05-8.21,39.42,39.42,0,0,1,2.64-3.91,31.41,31.41,0,0,1,3.23-3.68,17.27,17.27,0,0,1,4.57-3.27l.84-.34a4.83,4.83,0,0,1,1.75-.26,6.38,6.38,0,0,1,1,.12,9.14,9.14,0,0,1,1.93.68,19.41,19.41,0,0,1,2.36,1.37,37.53,37.53,0,0,1,7.28,6.4,22.56,22.56,0,0,1,1.62,2.09,12.5,12.5,0,0,1,1.47,2.82,8.11,8.11,0,0,1,.29,1l.05.28,0,.15.05.27.16,1.12c.11.74.23,1.48.32,2.23a69.76,69.76,0,0,1,.46,9,64.81,64.81,0,0,1-.87,9,62.81,62.81,0,0,1-5.36,17.15,49.07,49.07,0,0,1-4.6,7.63,35,35,0,0,1-6,6.5Z"/><path class="cls-1" d="M149.36,369.22c-22.44,0-19.2-21.46-19.2-43.9S126.92,288,149.36,288a40.64,40.64,0,1,1,0,81.27Z"/><path class="cls-2" d="M149.36,373.26a29.64,29.64,0,0,1-8.3-1.25,18.77,18.77,0,0,1-7.74-4.7,20.6,20.6,0,0,1-4.48-7.57,38.56,38.56,0,0,1-1.65-7.86,122.38,122.38,0,0,1-.41-15c.07-4.89.18-9.68.06-14.47s-.31-9.64-.25-14.68a50.42,50.42,0,0,1,.65-7.79,27.87,27.87,0,0,1,1.07-4.1,19.21,19.21,0,0,1,2-4.08,16.66,16.66,0,0,1,3.27-3.49,18.52,18.52,0,0,1,4-2.32,28.26,28.26,0,0,1,8.22-1.91c1.35-.13,2.65-.19,4-.19l4,.13c1.32.15,2.65.34,4,.51s2.61.58,3.92.87a44.82,44.82,0,0,1,32.9,49.57,43.41,43.41,0,0,1-5.17,15.42,45.17,45.17,0,0,1-10.38,12.41A45.73,45.73,0,0,1,149.36,373.26Zm0-8.07a37.32,37.32,0,0,0,12.7-2.64,35.81,35.81,0,0,0,10.86-6.87,36.85,36.85,0,0,0,7.78-10.09c.44-1,.86-1.94,1.32-2.9s.72-2,1.09-3a38.45,38.45,0,0,0,1.38-6.19,38.06,38.06,0,0,0-.4-12.64,35.41,35.41,0,0,0-4.77-11.75,37.48,37.48,0,0,0-8.58-9.45,36.31,36.31,0,0,0-11.39-6c-1-.26-2.07-.64-3.13-.83l-3.21-.56-3.26-.24a29.88,29.88,0,0,0-3.28,0,20.53,20.53,0,0,0-5.95,1.05,11.08,11.08,0,0,0-2.33,1.19,9.29,9.29,0,0,0-1.77,1.72,11.72,11.72,0,0,0-1.3,2.35,21.58,21.58,0,0,0-.85,2.91,43.32,43.32,0,0,0-.75,6.66c-.23,4.64-.06,9.5-.07,14.39s-.15,9.8-.19,14.6a93.51,93.51,0,0,0,.71,14,28.54,28.54,0,0,0,1.58,6.29,13.17,13.17,0,0,0,3.06,4.73,11.23,11.23,0,0,0,4.69,2.54A22.29,22.29,0,0,0,149.36,365.19Z"/></g></svg>