<svg xmlns="http://www.w3.org/2000/svg" viewBox="0 0 320 640"><defs><style>.cls-1{fill:blue;}.cls-2{fill:#0d0a09;}</style></defs><g id="Kitchen_Sink" data-name="Kitchen Sink"><path class="cls-1" d="M154.65,340.2s18.49,16.51,12.21,52c-.76,4.26-10.67,12-12.4,11.39-5.64-2-20.05-18.3-22.75-59"/><path class="cls-2" d="M155,339.82a35.64,35.64,0,0,1,6,6.5,49.55,49.55,0,0,1,4.6,7.63A62.92,62.92,0,0,1,171,371.1a65,65,0,0,1,.87,9,69.76,69.76,0,0,1-.46,9c-.09.75-.21,1.49-.32,2.23l-.16,1.12-.05.28,0,.15-.05.28a7.94,7.94,0,0,1-.29,1A12.28,12.28,0,0,1,169,397a19.87,19.87,0,0,1-1.62,2.09,37.53,37.53,0,0,1-7.28,6.4,19.41,19.41,0,0,1-2.36,1.37,8.13,8.13,0,0,1-1.93.68,6.38,6.38,0,0,1-1,.12,4.83,4.83,0,0,1-1.75-.26l-.84-.34a17.27,17.27,0,0,1-4.57-3.27,30.62,30.62,0,0,1-3.23-3.68,40.5,40.5,0,0,1-2.64-3.9,59.52,59.52,0,0,1-4.05-8.21,78.29,78.29,0,0,1-2.9-8.51,112.09,112.09,0,0,1-3.67-34.84l1-.07c2.09,11.35,4.56,22.52,8.64,32.92a73.23,73.23,0,0,0,7.49,14.56,34.9,34.9,0,0,0,4.9,5.86,10.58,10.58,0,0,0,2.41,1.74.69.69,0,0,1,.15.07,3.19,3.19,0,0,0-1.21-.19,2.15,2.15,0,0,0-.43.05c-.24.06-.06,0,.1-.07a11.44,11.44,0,0,0,1.36-.8,30.81,30.81,0,0,0,5.67-4.94,13.68,13.68,0,0,0,1-1.32,4.62,4.62,0,0,0,.55-1c0,.23.14-.81.25-1.41s.24-1.35.33-2c.42-2.72.73-5.44,1-8.17s.35-5.47.32-8.22a56.88,56.88,0,0,0-2.63-16.32,51,51,0,0,0-3.19-7.75,35.92,35.92,0,0,0-4.6-7.05Z"/><path class="cls-1" d="M149.36,278.43c-22.44,0-19.2,21.46-19.2,43.9s-3.24,37.38,19.2,37.38a40.64,40.64,0,0,0,0-81.28Z"/><path class="cls-2" d="M149.36,282.47a21.91,21.91,0,0,0-6.06.63,11,11,0,0,0-4.69,2.54,13.08,13.08,0,0,0-3.06,4.73,28.31,28.31,0,0,0-1.58,6.28,93.58,93.58,0,0,0-.71,14c0,4.8.2,9.7.19,14.61s-.16,9.74.07,14.39a44.9,44.9,0,0,0,.75,6.66,21,21,0,0,0,.85,2.9,11.45,11.45,0,0,0,1.3,2.35,9,9,0,0,0,1.77,1.72,11.33,11.33,0,0,0,2.33,1.19,20.87,20.87,0,0,0,5.95,1.06c1.06.05,2.19.06,3.28,0l3.26-.24,3.21-.56c1.06-.2,2.09-.57,3.13-.84a36.49,36.49,0,0,0,11.39-6,37.65,37.65,0,0,0,8.58-9.45,35.58,35.58,0,0,0,4.77-11.75,38.12,38.12,0,0,0,.4-12.65,38.69,38.69,0,0,0-1.38-6.19c-.37-1-.68-2-1.09-3s-.88-1.93-1.32-2.89a37,37,0,0,0-7.78-10.1,36,36,0,0,0-10.86-6.87A37.07,37.07,0,0,0,149.36,282.47Zm0-8.08a45.78,45.78,0,0,1,29.73,10.49,45.17,45.17,0,0,1,10.38,12.41,43.53,43.53,0,0,1,5.17,15.43,44.8,44.8,0,0,1-32.9,49.56c-1.31.29-2.6.68-3.92.87s-2.66.37-4,.52l-4,.12c-1.33,0-2.63-.06-4-.19a28.23,28.23,0,0,1-8.22-1.9,18.94,18.94,0,0,1-4-2.32,16.91,16.91,0,0,1-3.27-3.49,19,19,0,0,1-2-4.09,28.08,28.08,0,0,1-1.07-4.09,50.45,50.45,0,0,1-.65-7.8c-.06-5,.16-9.88.25-14.68s0-9.57-.06-14.47a122.49,122.49,0,0,1,.41-15,38.33,38.33,0,0,1,1.65-7.85,20.67,20.67,0,0,1,4.47-7.58,18.85,18.85,0,0,1,7.75-4.69A30,30,0,0,1,149.36,274.39Z"/></g></svg>