<svg xmlns="http://www.w3.org/2000/svg" viewBox="0 0 320 640"><defs><style>.cls-1{fill:blue;}.cls-2{fill:#0d0a09;}</style></defs><g id="Kitchen_Sink" data-name="Kitchen Sink"><path class="cls-1" d="M165.35,307.46s-18.49-16.52-12.21-52c.76-4.27,10.67-12,12.4-11.39,5.64,2,20.05,18.29,22.75,58.95"/><path class="cls-2" d="M165,307.83a35,35,0,0,1-6-6.5,49.07,49.07,0,0,1-4.6-7.63A62.81,62.81,0,0,1,149,276.55a64.81,64.81,0,0,1-.87-9,69.76,69.76,0,0,1,.46-9c.09-.75.21-1.49.32-2.23l.16-1.12.05-.27,0-.15.05-.28a7.64,7.64,0,0,1,.29-1,12.5,12.5,0,0,1,1.47-2.82,21,21,0,0,1,1.62-2.09,37.53,37.53,0,0,1,7.28-6.4,19.41,19.41,0,0,1,2.36-1.37,9.14,9.14,0,0,1,1.93-.68,6.38,6.38,0,0,1,1-.12,4.83,4.83,0,0,1,1.75.26l.84.34a17.27,17.27,0,0,1,4.57,3.27,31.41,31.41,0,0,1,3.23,3.68,39.42,39.42,0,0,1,2.64,3.91,58.42,58.42,0,0,1,4.05,8.21,77.41,77.41,0,0,1,2.9,8.5A112.12,112.12,0,0,1,188.78,303l-1,.07c-2.09-11.35-4.56-22.52-8.64-32.92a72.88,72.88,0,0,0-7.49-14.55,34.5,34.5,0,0,0-4.9-5.86,11,11,0,0,0-2.41-1.75l-.16-.07a3.34,3.34,0,0,0,1.22.2,2.15,2.15,0,0,0,.43-.05c.24-.06.06,0-.1.06a11.69,11.69,0,0,0-1.36.81,30.75,30.75,0,0,0-5.67,4.93,13.68,13.68,0,0,0-1,1.32,4.62,4.62,0,0,0-.55,1c0-.24-.14.8-.25,1.4s-.24,1.36-.33,2c-.42,2.71-.73,5.43-1,8.16s-.35,5.47-.32,8.22a56.83,56.83,0,0,0,2.63,16.32,50.14,50.14,0,0,0,3.19,7.75,35.92,35.92,0,0,0,4.6,7.05Z"/><path class="cls-1" d="M170.64,369.22c22.44,0,19.2-21.46,19.2-43.9S193.08,288,170.64,288a40.64,40.64,0,1,0,0,81.27Z"/><path class="cls-2" d="M170.64,365.19a22.29,22.29,0,0,0,6.06-.63,11.23,11.23,0,0,0,4.69-2.54,13.17,13.17,0,0,0,3.06-4.73A28.54,28.54,0,0,0,186,351a93.51,93.51,0,0,0,.71-14c0-4.8-.2-9.7-.19-14.6s.16-9.75-.07-14.39a43.32,43.32,0,0,0-.75-6.66,21.58,21.58,0,0,0-.85-2.91,11.72,11.72,0,0,0-1.3-2.35,9.29,9.29,0,0,0-1.77-1.72,11.08,11.08,0,0,0-2.33-1.19,20.53,20.53,0,0,0-5.95-1.05,29.88,29.88,0,0,0-3.28,0l-3.26.24-3.21.56c-1.06.19-2.09.57-3.13.83a36.31,36.31,0,0,0-11.39,6,37.48,37.48,0,0,0-8.58,9.45,35.41,35.41,0,0,0-4.77,11.75,38.06,38.06,0,0,0-.4,12.64,38.45,38.45,0,0,0,1.38,6.19c.37,1,.68,2,1.09,3s.88,1.93,1.32,2.9a36.85,36.85,0,0,0,7.78,10.09,35.81,35.81,0,0,0,10.86,6.87A37.32,37.32,0,0,0,170.64,365.19Zm0,8.07a45.73,45.73,0,0,1-29.73-10.49,45.17,45.17,0,0,1-10.38-12.41,43.41,43.41,0,0,1-5.17-15.42,44.82,44.82,0,0,1,32.9-49.57c1.31-.29,2.6-.67,3.92-.87s2.66-.36,4-.51l4-.13c1.33,0,2.63.06,4,.19a28.26,28.26,0,0,1,8.22,1.91,18.52,18.52,0,0,1,4,2.32,16.66,16.66,0,0,1,3.27,3.49,19.21,19.21,0,0,1,2,4.08,27.87,27.87,0,0,1,1.07,4.1,50.42,50.42,0,0,1,.65,7.79c.06,5-.16,9.88-.25,14.68s0,9.58.06,14.47a122.38,122.38,0,0,1-.41,15,38.56,38.56,0,0,1-1.65,7.86,20.6,20.6,0,0,1-4.48,7.57,18.77,18.77,0,0,1-7.74,4.7A29.64,29.64,0,0,1,170.64,373.26Z"/></g></svg>