<svg xmlns="http://www.w3.org/2000/svg" viewBox="0 0 320 640"><defs><style>.cls-1{fill:blue;}.cls-2{fill:#0d0a09;}</style></defs><g id="hand-r"><path class="cls-1" d="M119.36,330.64c0,22.44,21.46,19.2,43.91,19.2s37.37,3.24,37.37-19.2a40.64,40.64,0,0,0-81.28,0Z"/><path class="cls-2" d="M123.4,330.64a21.91,21.91,0,0,0,.63,6.06,11.12,11.12,0,0,0,2.54,4.69,13.17,13.17,0,0,0,4.73,3.06,28.4,28.4,0,0,0,6.29,1.58,93.38,93.38,0,0,0,14,.71c4.8,0,9.7-.2,14.61-.19s9.74.16,14.39-.07a43.6,43.6,0,0,0,6.66-.75,21,21,0,0,0,2.9-.85,11.19,11.19,0,0,0,2.35-1.3,9,9,0,0,0,1.72-1.77,10.62,10.62,0,0,0,1.19-2.33,20.53,20.53,0,0,0,1.06-6,32.59,32.59,0,0,0,0-3.28l-.24-3.26-.56-3.21c-.2-1.06-.57-2.09-.84-3.13a36.28,36.28,0,0,0-6-11.39,37.48,37.48,0,0,0-9.45-8.58,35.58,35.58,0,0,0-11.75-4.77,38.12,38.12,0,0,0-12.65-.4,37.3,37.3,0,0,0-6.18,1.38c-1,.37-2,.68-3,1.09s-1.92.88-2.89,1.32a37,37,0,0,0-10.1,7.78A36,36,0,0,0,126,317.94,37.07,37.07,0,0,0,123.4,330.64Zm-8.08,0a45.78,45.78,0,0,1,10.49-29.73,45.17,45.17,0,0,1,12.41-10.38,43.73,43.73,0,0,1,15.43-5.17,44.8,44.8,0,0,1,49.56,32.9c.29,1.31.68,2.6.87,3.92s.37,2.66.52,4l.12,4a38.13,38.13,0,0,1-.19,4,27.91,27.91,0,0,1-1.9,8.22,18.94,18.94,0,0,1-2.32,4,16.91,16.91,0,0,1-3.49,3.27,19.21,19.21,0,0,1-4.08,2,28.2,28.2,0,0,1-4.1,1.07,50.45,50.45,0,0,1-7.8.65c-5,.06-9.87-.16-14.68-.25s-9.57,0-14.46.06a122.6,122.6,0,0,1-15-.41,38.33,38.33,0,0,1-7.85-1.65,20.55,20.55,0,0,1-7.57-4.47,18.76,18.76,0,0,1-4.7-7.75A30,30,0,0,1,115.32,330.64Z"/></g></svg>