<svg xmlns="http://www.w3.org/2000/svg" viewBox="0 0 320 640"><defs><style>.cls-1{fill:blue;}.cls-2{fill:#0d0a09;}</style></defs><g id="Kitchen_Sink" data-name="Kitchen Sink"><path class="cls-1" d="M186.41,288.44c-15.87-15.87-28.75,1.6-44.62,17.47s-28.72,24.13-12.85,40a40.64,40.64,0,0,0,57.47-57.47Z"/><path class="cls-2" d="M183.56,291.3a21.92,21.92,0,0,0-4.73-3.84,11.15,11.15,0,0,0-5.12-1.53,13.24,13.24,0,0,0-5.5,1.19,28.38,28.38,0,0,0-5.57,3.33,93.91,93.91,0,0,0-10.43,9.42c-3.36,3.42-6.72,7-10.19,10.46s-7,6.77-10.13,10.22a42.79,42.79,0,0,0-4.17,5.25,18.27,18.27,0,0,0-1.45,2.65,11.66,11.66,0,0,0-.75,2.58,9.27,9.27,0,0,0,0,2.47,10.67,10.67,0,0,0,.8,2.48,20.56,20.56,0,0,0,3.46,5c.71.79,1.51,1.6,2.31,2.33l2.48,2.13,2.66,1.87c.9.62,1.89,1.08,2.81,1.63a36.32,36.32,0,0,0,12.27,3.83,37.65,37.65,0,0,0,12.75-.61,35.3,35.3,0,0,0,11.68-4.94,38.16,38.16,0,0,0,9.23-8.65,38.74,38.74,0,0,0,3.39-5.36c.44-1,.94-1.9,1.34-2.88s.74-2,1.11-3a36.72,36.72,0,0,0,1.64-12.64,35.74,35.74,0,0,0-2.82-12.53A36.93,36.93,0,0,0,183.56,291.3Zm5.71-5.71A45.77,45.77,0,0,1,202.87,314a45.27,45.27,0,0,1-1.43,16.12,43.56,43.56,0,0,1-7.26,14.56,44.8,44.8,0,0,1-58.31,11.79c-1.13-.72-2.31-1.37-3.39-2.16s-2.13-1.62-3.18-2.45l-2.91-2.74a39.58,39.58,0,0,1-2.68-2.95,28.5,28.5,0,0,1-4.47-7.16,18.71,18.71,0,0,1-1.2-4.48,16.63,16.63,0,0,1,.16-4.78,19.32,19.32,0,0,1,1.44-4.33,28,28,0,0,1,2.14-3.65,51,51,0,0,1,5-6c3.53-3.6,7.1-6.87,10.56-10.2s6.78-6.76,10.19-10.27A123.51,123.51,0,0,1,158.47,285a38.8,38.8,0,0,1,6.73-4.38,20.45,20.45,0,0,1,8.51-2.19,18.77,18.77,0,0,1,8.8,2.15A29.91,29.91,0,0,1,189.27,285.59Z"/></g></svg>