<svg xmlns="http://www.w3.org/2000/svg" viewBox="0 0 320 640"><defs><style>.cls-1{fill:blue;}.cls-2{fill:#0d0a09;}</style></defs><g id="Kitchen_Sink" data-name="Kitchen Sink"><path class="cls-1" d="M133.59,288.44c15.87-15.87,28.75,1.6,44.62,17.47s28.72,24.13,12.85,40a40.64,40.64,0,1,1-57.47-57.47Z"/><path class="cls-2" d="M130.73,285.59a29.91,29.91,0,0,1,6.76-5,18.77,18.77,0,0,1,8.8-2.15,20.45,20.45,0,0,1,8.51,2.19,38.8,38.8,0,0,1,6.73,4.38,123.51,123.51,0,0,1,10.89,10.32c3.41,3.51,6.72,7,10.19,10.27s7,6.6,10.56,10.2a51,51,0,0,1,5.05,6,28,28,0,0,1,2.14,3.65,19.32,19.32,0,0,1,1.44,4.33,16.63,16.63,0,0,1,.16,4.78,18.71,18.71,0,0,1-1.2,4.48,28.5,28.5,0,0,1-4.47,7.16,39.58,39.58,0,0,1-2.68,2.95l-2.91,2.74c-1,.83-2.12,1.63-3.18,2.45s-2.26,1.44-3.39,2.16a44.8,44.8,0,0,1-58.31-11.79,43.56,43.56,0,0,1-7.26-14.56A45.27,45.27,0,0,1,117.13,314,45.77,45.77,0,0,1,130.73,285.59Zm5.71,5.71a36.93,36.93,0,0,0-7.11,10.84,35.74,35.74,0,0,0-2.82,12.53,36.72,36.72,0,0,0,1.64,12.64c.37,1,.75,2,1.11,3s.9,1.92,1.34,2.88a38.74,38.74,0,0,0,3.39,5.36,38.16,38.16,0,0,0,9.23,8.65,35.3,35.3,0,0,0,11.68,4.94,37.65,37.65,0,0,0,12.75.61,36.32,36.32,0,0,0,12.27-3.83c.92-.55,1.91-1,2.81-1.63l2.66-1.87,2.48-2.13c.8-.73,1.6-1.54,2.31-2.33a20.56,20.56,0,0,0,3.46-5,10.67,10.67,0,0,0,.8-2.48,9.27,9.27,0,0,0,0-2.47,11.66,11.66,0,0,0-.75-2.58,18.27,18.27,0,0,0-1.45-2.65,42.79,42.79,0,0,0-4.17-5.25c-3.13-3.45-6.68-6.75-10.13-10.22s-6.83-7-10.19-10.46a93.91,93.91,0,0,0-10.43-9.42,28.38,28.38,0,0,0-5.57-3.33,13.24,13.24,0,0,0-5.5-1.19,11.15,11.15,0,0,0-5.12,1.53A21.92,21.92,0,0,0,136.44,291.3Z"/></g></svg>