<svg xmlns="http://www.w3.org/2000/svg" viewBox="0 0 320 640"><defs><style>.cls-1{fill:blue;}.cls-2{fill:#0d0a09;}</style></defs><g id="Kitchen_Sink" data-name="Kitchen Sink"><path class="cls-1" d="M149.19,311.34s-16.52,18.49-52,12.2c-4.27-.75-12-10.67-11.4-12.39,2-5.65,18.3-20.06,58.95-22.75"/><path class="cls-2" d="M149.56,311.67a35.39,35.39,0,0,1-6.5,6,49.86,49.86,0,0,1-7.63,4.6,63.16,63.16,0,0,1-17.15,5.36,64.94,64.94,0,0,1-9,.86,68,68,0,0,1-9-.45c-.75-.09-1.49-.22-2.23-.32l-1.12-.17-.28,0-.14,0-.29-.06a7.94,7.94,0,0,1-1-.29,12.5,12.5,0,0,1-2.82-1.47,21.25,21.25,0,0,1-2.09-1.61,37.82,37.82,0,0,1-6.4-7.28,18.84,18.84,0,0,1-1.37-2.37,8.93,8.93,0,0,1-.68-1.93,6.21,6.21,0,0,1-.12-1,4.78,4.78,0,0,1,.26-1.74l.34-.84a17.27,17.27,0,0,1,3.27-4.57,29.86,29.86,0,0,1,3.68-3.24,40.38,40.38,0,0,1,3.9-2.63,58,58,0,0,1,8.22-4,73.42,73.42,0,0,1,8.5-2.9,112.13,112.13,0,0,1,34.84-3.68l.07,1c-11.35,2.08-22.52,4.56-32.92,8.64A73.2,73.2,0,0,0,97.29,305a35.79,35.79,0,0,0-5.86,4.9,10.8,10.8,0,0,0-1.74,2.41.77.77,0,0,1-.07.16,3.31,3.31,0,0,0,.2-1.22c0-.23,0-.34,0-.42-.07-.25,0-.06.06.09a13,13,0,0,0,.8,1.36A31.19,31.19,0,0,0,95.57,318a13.87,13.87,0,0,0,1.32,1,5.81,5.81,0,0,0,1,.55l1.41.24c.68.11,1.35.24,2,.34,2.72.41,5.44.72,8.17,1s5.47.35,8.22.31A56.47,56.47,0,0,0,134,318.8a51.57,51.57,0,0,0,7.75-3.19,36.38,36.38,0,0,0,7.05-4.6Z"/><path class="cls-1" d="M159.39,310.9s32,19.74,65.76,7.26c4.06-1.51,9.91-12.64,9-14.23-2.95-5.2-21.57-16.48-62.06-11.91"/><path class="cls-2" d="M159.66,310.48a89.58,89.58,0,0,0,35.72,8.7,73.63,73.63,0,0,0,9.05-.37c1.49-.14,3-.34,4.45-.56s2.93-.51,4.38-.83,2.88-.67,4.31-1c.72-.2,1.42-.44,2.12-.65s1.42-.42,2.11-.68l1.93-.68a4.37,4.37,0,0,0,.74-.58,19,19,0,0,0,2.4-2.94,34.34,34.34,0,0,0,2.11-3.61c.3-.62.59-1.24.82-1.82.12-.29.22-.57.29-.8s.12-.46.11-.38a.82.82,0,0,0,0,.2c0,.05,0,.17,0,.25a3.26,3.26,0,0,0,.09.46,3.07,3.07,0,0,0,.11.32,2.39,2.39,0,0,0,.2.43c0,.05,0,0,0,0l0-.08a5.84,5.84,0,0,0-.37-.48,12,12,0,0,0-1.24-1.17,29.42,29.42,0,0,0-3.31-2.25,61,61,0,0,0-16.52-6.08c-11.84-2.73-24.36-3.28-37-3.32l-.11-1a119.14,119.14,0,0,1,18.89-2.76,98,98,0,0,1,19.34.57A58.72,58.72,0,0,1,229.45,295,27.6,27.6,0,0,1,234,297.9a17.33,17.33,0,0,1,2.21,2.05,11.54,11.54,0,0,1,1.08,1.36l.27.42.15.25a4.79,4.79,0,0,1,.26.56,3.49,3.49,0,0,1,.15.46,5.81,5.81,0,0,1,.15.75,5.32,5.32,0,0,1,0,.54,6.2,6.2,0,0,1,0,.79,10.77,10.77,0,0,1-.41,1.92c-.16.51-.32,1-.5,1.42-.35.88-.72,1.69-1.12,2.47a39.43,39.43,0,0,1-2.67,4.52,25.63,25.63,0,0,1-3.6,4.31,11,11,0,0,1-3.11,2.1l-.29.11-.16.06-.3.1-.59.19-1.19.4a58.87,58.87,0,0,1-9.72,2.27,67.72,67.72,0,0,1-19.7-.09A88.73,88.73,0,0,1,176.17,320a81.31,81.31,0,0,1-17-8.66Z"/><path class="cls-1" d="M202.09,306.05c0-22.45-21.46-19.2-43.9-19.2s-37.38-3.25-37.38,19.2a40.64,40.64,0,0,0,81.28,0Z"/><path class="cls-2" d="M198.05,306.05a21.87,21.87,0,0,0-.63-6.06,11.11,11.11,0,0,0-2.54-4.7,13.29,13.29,0,0,0-4.73-3.05,28.4,28.4,0,0,0-6.29-1.58,93.36,93.36,0,0,0-14-.72c-4.8.05-9.7.2-14.61.19s-9.74-.16-14.39.07a43.58,43.58,0,0,0-6.66.76,18.57,18.57,0,0,0-2.9.85,11.45,11.45,0,0,0-2.35,1.3,8.73,8.73,0,0,0-1.72,1.77A10.77,10.77,0,0,0,126,297.2a20.87,20.87,0,0,0-1.06,5.95,32.61,32.61,0,0,0,0,3.28l.24,3.26.56,3.21c.2,1.07.57,2.09.84,3.14a36.34,36.34,0,0,0,6,11.38A37.48,37.48,0,0,0,142,336a35.37,35.37,0,0,0,11.75,4.77,37.57,37.57,0,0,0,18.83-1c1-.37,2-.68,3-1.08s1.93-.89,2.89-1.33a37,37,0,0,0,10.1-7.78,36.07,36.07,0,0,0,6.87-10.85A37.12,37.12,0,0,0,198.05,306.05Zm8.08,0a45.76,45.76,0,0,1-10.49,29.72,45,45,0,0,1-12.41,10.39,43.51,43.51,0,0,1-15.43,5.16,44.78,44.78,0,0,1-49.56-32.89c-.29-1.32-.68-2.6-.87-3.93s-.37-2.65-.52-4l-.12-4a38.13,38.13,0,0,1,.19-4,28.3,28.3,0,0,1,1.9-8.22,19.19,19.19,0,0,1,2.32-4,16.59,16.59,0,0,1,3.49-3.26,18.75,18.75,0,0,1,4.08-2,25.85,25.85,0,0,1,4.1-1.07,50.49,50.49,0,0,1,7.8-.66c5,0,9.88.16,14.68.25s9.57,0,14.47,0a122.45,122.45,0,0,1,15,.4,39,39,0,0,1,7.85,1.66,20.53,20.53,0,0,1,7.58,4.47,18.81,18.81,0,0,1,4.69,7.74A30.16,30.16,0,0,1,206.13,306.05Z"/><path class="cls-1" d="M165.67,342.75c-1,4.16-11.2,11.21-12.87,10.52-5.45-2.27-18.72-19.18-19.05-59.4"/><path class="cls-2" d="M166.16,342.87a7.48,7.48,0,0,1-.65,2.87,16.9,16.9,0,0,1-1.31,2.54,38.76,38.76,0,0,1-3.35,4.54,13.6,13.6,0,0,1-4.63,3.73,8.65,8.65,0,0,1-2.11.73,4.8,4.8,0,0,1-1.06.1,4.24,4.24,0,0,1-.87-.08l-.26-.05-.32-.1-.32-.11-.1,0c-.31-.15-.66-.31-1-.47a15.19,15.19,0,0,1-2.78-2,27.58,27.58,0,0,1-3.88-4.49,39.37,39.37,0,0,1-2.88-4.78,62.13,62.13,0,0,1-4.06-10,93,93,0,0,1-3.75-20.66,117.81,117.81,0,0,1,.37-20.67h1c.47,3.38.87,6.75,1.42,10.09s1.13,6.65,1.82,9.93a113.72,113.72,0,0,0,5.66,19,63,63,0,0,0,4.26,8.59,30.07,30.07,0,0,0,5.44,7,8.61,8.61,0,0,0,1.31,1,1.14,1.14,0,0,1,.19.09h0l-.24-.09-.25-.07-.18,0a3.43,3.43,0,0,0-.56-.05,1.45,1.45,0,0,0-.42,0c-.21.06.07,0,.3-.09l1.87-.75c.7-.27,1.45-.53,2.21-.81a28,28,0,0,0,4.4-2.07,12,12,0,0,0,3.72-2.93Z"/><path class="cls-1" d="M189.31,329.14c-1,4.17-11.69,24.85-13.36,24.16-5.45-2.27-19-17.79-19.29-58"/><path class="cls-2" d="M189.79,329.26a34.88,34.88,0,0,1-1.22,5.8c-.51,1.89-1.12,3.73-1.73,5.59a66.26,66.26,0,0,1-4.34,11,25.45,25.45,0,0,1-1.71,2.7,11.44,11.44,0,0,1-1.37,1.62l-.32.28a4.07,4.07,0,0,1-.45.34l-.35.22-.46.23a6.21,6.21,0,0,1-.65.23,4.8,4.8,0,0,1-1.13.15,4.57,4.57,0,0,1-1.58-.29l-.15-.07-.06,0-.26-.12-.51-.24a15.52,15.52,0,0,1-3.08-2.2,25.37,25.37,0,0,1-2.36-2.4,41.52,41.52,0,0,1-6.42-10.67,67.64,67.64,0,0,1-3.7-11.37A87.12,87.12,0,0,1,156,318.41a112.21,112.21,0,0,1,.14-23.11h1A215.5,215.5,0,0,0,161,317.58a89.31,89.31,0,0,0,7.32,20.62,41.28,41.28,0,0,0,5.77,8.51,18,18,0,0,0,1.67,1.62,8.86,8.86,0,0,0,1.55,1.11l.13.06.07,0h0s.08,0-.07,0a3.7,3.7,0,0,0-1.41-.27,3.35,3.35,0,0,0-.95.13,2.56,2.56,0,0,0-.49.16l-.3.15-.2.13a.83.83,0,0,0-.17.12l0,.05.16-.16a4.53,4.53,0,0,0,.32-.38c.46-.58,1-1.31,1.49-2,2-2.93,4.54-5.88,6.72-9,1.12-1.54,2.18-3.11,3.26-4.67.54-.78,1.06-1.58,1.58-2.37a23.94,23.94,0,0,0,1.42-2.4Z"/></g></svg>