<svg xmlns="http://www.w3.org/2000/svg" viewBox="0 0 320 640"><defs><style>.cls-1{fill:blue;}.cls-2{fill:#0d0a09;}</style></defs><g id="Kitchen_Sink" data-name="Kitchen Sink"><path class="cls-1" d="M202.06,317.18c0-22.45-21.46-19.2-43.91-19.2s-37.37-3.25-37.37,19.2a40.64,40.64,0,0,0,81.28,0Z"/><path class="cls-2" d="M198,317.18a21.87,21.87,0,0,0-.63-6.06,11.22,11.22,0,0,0-2.54-4.7,13.29,13.29,0,0,0-4.73-3.05,28.4,28.4,0,0,0-6.29-1.58,93.36,93.36,0,0,0-14-.72c-4.8.05-9.7.2-14.61.19s-9.74-.16-14.39.07a43.44,43.44,0,0,0-6.66.76,18.57,18.57,0,0,0-2.9.85,11.19,11.19,0,0,0-2.35,1.3,8.73,8.73,0,0,0-1.72,1.77,10.77,10.77,0,0,0-1.19,2.32,20.53,20.53,0,0,0-1.06,5.95,32.61,32.61,0,0,0,0,3.28l.24,3.26.56,3.21c.2,1.07.57,2.09.84,3.14a36.34,36.34,0,0,0,6,11.38,37.48,37.48,0,0,0,9.45,8.58,35.37,35.37,0,0,0,11.75,4.77,37.57,37.57,0,0,0,18.83-1c1-.37,2-.68,3-1.08s1.92-.89,2.89-1.33a37,37,0,0,0,10.1-7.78,35.85,35.85,0,0,0,6.86-10.85A36.9,36.9,0,0,0,198,317.18Zm8.07,0a45.69,45.69,0,0,1-10.48,29.72,45,45,0,0,1-12.41,10.39,43.51,43.51,0,0,1-15.43,5.16,44.8,44.8,0,0,1-49.57-32.89c-.28-1.32-.67-2.61-.86-3.93s-.37-2.65-.52-4l-.12-4a38.13,38.13,0,0,1,.19-4,28,28,0,0,1,1.9-8.22,18.76,18.76,0,0,1,2.32-4,16.59,16.59,0,0,1,3.49-3.26,18.75,18.75,0,0,1,4.08-2,25.58,25.58,0,0,1,4.1-1.07,50.49,50.49,0,0,1,7.8-.66c5,0,9.87.16,14.68.25s9.57,0,14.46,0a122.56,122.56,0,0,1,15,.4,39,39,0,0,1,7.85,1.66,20.41,20.41,0,0,1,7.57,4.47,18.73,18.73,0,0,1,4.7,7.74A29.76,29.76,0,0,1,206.09,317.18Z"/><path class="cls-1" d="M134.23,315.66s-24.94-28.07-18.45-63.52c.78-4.27,10.74-11.94,12.46-11.32,5.64,2,19.95,18.41,22.41,59.08"/><path class="cls-2" d="M133.85,316a81.7,81.7,0,0,1-11.46-15.3,88.85,88.85,0,0,1-8-17.62,68.08,68.08,0,0,1-3.48-19.4,59.32,59.32,0,0,1,.57-10l.19-1.24.09-.62,0-.31,0-.16.06-.31a10.72,10.72,0,0,1,1.54-3.43,25.3,25.3,0,0,1,3.62-4.28,40.35,40.35,0,0,1,4-3.41c.71-.53,1.44-1,2.25-1.53.41-.25.83-.49,1.31-.74a11.15,11.15,0,0,1,1.82-.73,6.79,6.79,0,0,1,.78-.17l.53-.06a7.1,7.1,0,0,1,.77,0c.16,0,.29,0,.48.07a4.44,4.44,0,0,1,.6.16l.26.11.46.19a10.84,10.84,0,0,1,1.53.83,18.15,18.15,0,0,1,2.4,1.82,27.79,27.79,0,0,1,3.67,4,59,59,0,0,1,8.85,17.91,97,97,0,0,1,3.88,19,118.36,118.36,0,0,1,.53,19.09l-1,.06c-2.21-12.4-4.89-24.64-9.62-35.83a61.13,61.13,0,0,0-8.83-15.23,29.53,29.53,0,0,0-2.79-2.88,10.59,10.59,0,0,0-1.37-1,5.2,5.2,0,0,0-.53-.29l-.09,0s-.07,0,0,0a3.45,3.45,0,0,0,.46.12l.33.06h.48l.24,0,.19,0c.09,0-.14.06-.35.17s-.48.26-.74.42c-.53.33-1.09.72-1.65,1.13a32.75,32.75,0,0,0-3.19,2.7,17.93,17.93,0,0,0-2.49,2.87,3.59,3.59,0,0,0-.44.82l-.34,2q-.19,1.09-.3,2.19c-.09.73-.21,1.47-.28,2.2-.12,1.47-.26,2.95-.28,4.43s-.06,3-.07,4.46.09,3,.22,4.48a72.24,72.24,0,0,0,1.18,9,89.65,89.65,0,0,0,14.72,33.7Z"/><path class="cls-1" d="M165.76,315.66s24.94-28.07,18.45-63.52c-.78-4.27-10.74-11.94-12.46-11.32-5.64,2-19.95,18.41-22.41,59.08"/><path class="cls-2" d="M165.39,315.33a89.47,89.47,0,0,0,14.71-33.7,70.43,70.43,0,0,0,1.19-9c.12-1.49.18-3,.22-4.48s0-3-.07-4.46-.16-3-.28-4.43c-.07-.73-.19-1.47-.28-2.2s-.17-1.46-.3-2.19l-.34-2a4.18,4.18,0,0,0-.44-.82,17.53,17.53,0,0,0-2.5-2.87,31.61,31.61,0,0,0-3.19-2.7c-.55-.41-1.11-.8-1.64-1.13-.27-.16-.52-.31-.74-.42s-.44-.2-.36-.17l.2,0,.24,0h.47l.34-.06a3.9,3.9,0,0,0,.46-.12c.06,0,0,0,0,0l-.09,0c-.13.07-.32.15-.54.29a11.27,11.27,0,0,0-1.36,1,28.41,28.41,0,0,0-2.79,2.88,60.82,60.82,0,0,0-8.83,15.23c-4.73,11.19-7.41,23.43-9.62,35.83l-1-.06a119.53,119.53,0,0,1,.54-19.09,97,97,0,0,1,3.88-19,58.81,58.81,0,0,1,8.85-17.91,27.79,27.79,0,0,1,3.67-4,18.7,18.7,0,0,1,2.39-1.82,11.58,11.58,0,0,1,1.54-.83l.45-.19.27-.11a4.44,4.44,0,0,1,.6-.16c.19,0,.32,0,.48-.07a7,7,0,0,1,.77,0l.53.06a6.57,6.57,0,0,1,.77.17,11,11,0,0,1,1.83.73c.48.25.9.49,1.31.74.8.49,1.54,1,2.25,1.53a40.35,40.35,0,0,1,4,3.41,25.78,25.78,0,0,1,3.62,4.28,10.72,10.72,0,0,1,1.53,3.43l.07.31,0,.16.05.31.09.62.19,1.24a60.4,60.4,0,0,1,.57,10,68.08,68.08,0,0,1-3.48,19.4,89.42,89.42,0,0,1-8,17.62A81.7,81.7,0,0,1,166.14,316Z"/><path class="cls-2" d="M145.37,308.52a5.87,5.87,0,0,1,2-1.31,13.68,13.68,0,0,1,2.15-.74,32.1,32.1,0,0,1,4.4-.76,9.44,9.44,0,0,1,4.7.54,7.4,7.4,0,0,1,1.71.92,4.67,4.67,0,0,1,.73.65,6.73,6.73,0,0,1,.51.67l.13.22.14.3.13.3,0,.09c.09.29.2.6.26.87a12.64,12.64,0,0,1,.31,2.83,25.66,25.66,0,0,1-1.8,8.86,46,46,0,0,1-3.65,7.53,69.35,69.35,0,0,1-9.94,12.71A83,83,0,0,1,135,352.37l-.68-.73c3.21-4.11,6.34-8.19,9.19-12.39a88.74,88.74,0,0,0,7.4-13,50.18,50.18,0,0,0,2.48-6.72,22.56,22.56,0,0,0,1-6.34,5.2,5.2,0,0,0-.1-1s0,0,0-.06,0,0,0,0,.07.16.1.25.08.16.13.24l.09.16a4.52,4.52,0,0,0,.36.48,2,2,0,0,0,.37.33c.27.17.14.05,0,0l-1.25-.68c-.47-.27-1-.6-1.49-.93a21.38,21.38,0,0,0-3.3-1.69,10.13,10.13,0,0,0-3.48-.93Z"/></g></svg>