<svg xmlns="http://www.w3.org/2000/svg" viewBox="0 0 320 640"><defs><style>.cls-1{fill:blue;}.cls-2{fill:#0d0a09;}</style></defs><g id="Kitchen_Sink" data-name="Kitchen Sink"><path class="cls-1" d="M165.35,340.2s-18.49,16.51-12.21,52c.76,4.26,10.67,12,12.4,11.39,5.64-2,20.05-18.3,22.75-59"/><path class="cls-2" d="M165.68,340.57a35.92,35.92,0,0,0-4.6,7.05,51,51,0,0,0-3.19,7.75,56.88,56.88,0,0,0-2.63,16.32c0,2.75.12,5.49.32,8.22s.55,5.45,1,8.17c.09.68.22,1.35.33,2s.27,1.64.25,1.41a4.62,4.62,0,0,0,.55,1,13.68,13.68,0,0,0,1,1.32,30.81,30.81,0,0,0,5.67,4.94,11.44,11.44,0,0,0,1.36.8c.16.08.34.13.1.07a2.15,2.15,0,0,0-.43-.05,3.19,3.19,0,0,0-1.21.19.69.69,0,0,1,.15-.07,10.58,10.58,0,0,0,2.41-1.74,35.3,35.3,0,0,0,4.9-5.86,73.23,73.23,0,0,0,7.49-14.56c4.08-10.4,6.55-21.57,8.64-32.92l1,.07a112.09,112.09,0,0,1-3.67,34.84,78.29,78.29,0,0,1-2.9,8.51,59.52,59.52,0,0,1-4.05,8.21,40.5,40.5,0,0,1-2.64,3.9,30.62,30.62,0,0,1-3.23,3.68,17.27,17.27,0,0,1-4.57,3.27l-.84.34a4.83,4.83,0,0,1-1.75.26,6.38,6.38,0,0,1-1-.12,8.13,8.13,0,0,1-1.93-.68,19.41,19.41,0,0,1-2.36-1.37,37.53,37.53,0,0,1-7.28-6.4A19.87,19.87,0,0,1,151,397a12.28,12.28,0,0,1-1.47-2.82,7.94,7.94,0,0,1-.29-1l-.05-.28,0-.15-.05-.28-.16-1.12c-.11-.74-.23-1.48-.32-2.23a69.76,69.76,0,0,1-.46-9,65,65,0,0,1,.87-9A62.92,62.92,0,0,1,154.39,354a49.55,49.55,0,0,1,4.6-7.63,35.64,35.64,0,0,1,6-6.5Z"/><path class="cls-1" d="M170.64,278.43c22.44,0,19.2,21.46,19.2,43.9s3.24,37.38-19.2,37.38a40.64,40.64,0,0,1,0-81.28Z"/><path class="cls-2" d="M170.64,274.39a30,30,0,0,1,8.3,1.26,18.85,18.85,0,0,1,7.75,4.69,20.67,20.67,0,0,1,4.47,7.58,38.33,38.33,0,0,1,1.65,7.85,122.49,122.49,0,0,1,.41,15c-.07,4.9-.18,9.69-.06,14.47s.31,9.64.25,14.68a50.45,50.45,0,0,1-.65,7.8,28.08,28.08,0,0,1-1.07,4.09,19,19,0,0,1-2,4.09,16.61,16.61,0,0,1-3.27,3.48,18.57,18.57,0,0,1-4,2.33,28.23,28.23,0,0,1-8.22,1.9c-1.35.13-2.65.19-4,.19l-4-.12c-1.32-.15-2.65-.34-4-.52s-2.61-.58-3.92-.87a44.8,44.8,0,0,1-32.9-49.56,43.53,43.53,0,0,1,5.17-15.43,45.17,45.17,0,0,1,10.38-12.41A45.78,45.78,0,0,1,170.64,274.39Zm0,8.08a37.07,37.07,0,0,0-12.7,2.63A36,36,0,0,0,147.08,292a37,37,0,0,0-7.78,10.1c-.44,1-.86,1.93-1.32,2.89s-.72,2-1.09,3a38.69,38.69,0,0,0-1.38,6.19,38.12,38.12,0,0,0,.4,12.65,35.58,35.58,0,0,0,4.77,11.75,37.65,37.65,0,0,0,8.58,9.45,36.49,36.49,0,0,0,11.39,6c1,.27,2.07.64,3.13.84l3.21.56,3.26.24c1.09.05,2.22,0,3.28,0a20.87,20.87,0,0,0,5.95-1.06,11.33,11.33,0,0,0,2.33-1.19,9,9,0,0,0,1.77-1.72,11.45,11.45,0,0,0,1.3-2.35,21,21,0,0,0,.85-2.9,44.9,44.9,0,0,0,.75-6.66c.23-4.65.06-9.51.07-14.39s.15-9.81.19-14.61a93.58,93.58,0,0,0-.71-14,28.31,28.31,0,0,0-1.58-6.28,13.08,13.08,0,0,0-3.06-4.73,11,11,0,0,0-4.69-2.54A21.91,21.91,0,0,0,170.64,282.47Z"/></g></svg>