<svg xmlns="http://www.w3.org/2000/svg" viewBox="0 0 320 640"><defs><style>.cls-1{fill:blue;}.cls-2{fill:#0d0a09;}</style></defs><g id="hand-r"><path class="cls-1" d="M200.64,330.64c0,22.44-21.46,19.2-43.91,19.2s-37.37,3.24-37.37-19.2a40.64,40.64,0,0,1,81.28,0Z"/><path class="cls-2" d="M204.68,330.64a30,30,0,0,1-1.26,8.3,18.76,18.76,0,0,1-4.7,7.75,20.55,20.55,0,0,1-7.57,4.47,38.33,38.33,0,0,1-7.85,1.65,122.6,122.6,0,0,1-15,.41c-4.89-.07-9.68-.18-14.46-.06s-9.64.31-14.68.25a50.45,50.45,0,0,1-7.8-.65,27.87,27.87,0,0,1-4.1-1.07,19.21,19.21,0,0,1-4.08-2,16.91,16.91,0,0,1-3.49-3.27,18.94,18.94,0,0,1-2.32-4,27.91,27.91,0,0,1-1.9-8.22,38.13,38.13,0,0,1-.19-4l.12-4c.15-1.32.34-2.65.52-4s.58-2.61.87-3.92a44.8,44.8,0,0,1,49.56-32.9,43.53,43.53,0,0,1,15.43,5.17,45.17,45.17,0,0,1,12.41,10.38A45.78,45.78,0,0,1,204.68,330.64Zm-8.08,0a36.85,36.85,0,0,0-2.64-12.7,35.78,35.78,0,0,0-6.86-10.86A37,37,0,0,0,177,299.3c-1-.44-1.94-.86-2.89-1.32s-2-.72-3-1.09a37.91,37.91,0,0,0-18.83-1,35.58,35.58,0,0,0-11.75,4.77,37.48,37.48,0,0,0-9.45,8.58,36.28,36.28,0,0,0-6,11.39c-.27,1-.64,2.07-.84,3.13l-.56,3.21-.24,3.26a32.59,32.59,0,0,0,0,3.28,20.87,20.87,0,0,0,1.06,6,10.85,10.85,0,0,0,1.19,2.33,9,9,0,0,0,1.72,1.77,11.19,11.19,0,0,0,2.35,1.3,21,21,0,0,0,2.9.85,44.9,44.9,0,0,0,6.66.75c4.65.23,9.5.06,14.39.07s9.81.15,14.61.19a93.38,93.38,0,0,0,14-.71,28.4,28.4,0,0,0,6.29-1.58,13.17,13.17,0,0,0,4.73-3.06A11.12,11.12,0,0,0,196,336.7,21.91,21.91,0,0,0,196.6,330.64Z"/></g></svg>