<svg xmlns="http://www.w3.org/2000/svg" viewBox="0 0 320 640"><defs><style>.cls-1{fill:blue;}.cls-2{fill:#0d0a09;}</style></defs><g id="Kitchen_Sink" data-name="Kitchen Sink"><path class="cls-1" d="M114.7,317.18c0-22.45,21.46-19.2,43.9-19.2S196,294.73,196,317.18a40.64,40.64,0,1,1-81.28,0Z"/><path class="cls-2" d="M110.66,317.18a30.16,30.16,0,0,1,1.26-8.31,18.81,18.81,0,0,1,4.69-7.74,20.53,20.53,0,0,1,7.58-4.47A39,39,0,0,1,132,295a122.45,122.45,0,0,1,15-.4c4.9.07,9.69.17,14.47,0s9.64-.3,14.68-.25a50.49,50.49,0,0,1,7.8.66,25.74,25.74,0,0,1,4.09,1.07,18.6,18.6,0,0,1,4.09,2,16.3,16.3,0,0,1,3.48,3.26,18.81,18.81,0,0,1,2.33,4,28.3,28.3,0,0,1,1.9,8.22c.13,1.35.19,2.65.19,4l-.12,4c-.15,1.33-.34,2.65-.52,4s-.58,2.61-.87,3.93A44.78,44.78,0,0,1,149,362.45a43.51,43.51,0,0,1-15.43-5.16,45,45,0,0,1-12.41-10.39A45.76,45.76,0,0,1,110.66,317.18Zm8.08,0a37.12,37.12,0,0,0,2.63,12.7,36.07,36.07,0,0,0,6.87,10.85,37,37,0,0,0,10.1,7.78c1,.44,1.93.87,2.89,1.32s2,.72,3,1.09a38.72,38.72,0,0,0,6.19,1.39,38.12,38.12,0,0,0,12.65-.41,35.37,35.37,0,0,0,11.75-4.77,37.65,37.65,0,0,0,9.45-8.58,36.55,36.55,0,0,0,6-11.38c.27-1.05.64-2.07.84-3.14l.56-3.21.24-3.26c.05-1.08,0-2.21,0-3.28a20.87,20.87,0,0,0-1.06-5.95,11.24,11.24,0,0,0-1.19-2.32,8.73,8.73,0,0,0-1.72-1.77,11.45,11.45,0,0,0-2.35-1.3,18.57,18.57,0,0,0-2.9-.85,43.58,43.58,0,0,0-6.66-.76c-4.65-.23-9.51-.05-14.39-.07s-9.81-.14-14.61-.19a93.49,93.49,0,0,0-14,.72,28.31,28.31,0,0,0-6.28,1.58,13.2,13.2,0,0,0-4.73,3.05,11.11,11.11,0,0,0-2.54,4.7A21.87,21.87,0,0,0,118.74,317.18Z"/><path class="cls-1" d="M182.53,315.66s24.94-28.07,18.45-63.52c-.78-4.27-10.74-11.94-12.46-11.32-5.64,2-20,18.41-22.41,59.08"/><path class="cls-2" d="M182.16,315.33a89.47,89.47,0,0,0,14.71-33.7,70.19,70.19,0,0,0,1.19-9c.12-1.49.18-3,.22-4.48s0-3-.07-4.46-.16-3-.28-4.43c-.07-.73-.19-1.47-.28-2.2s-.17-1.46-.3-2.19l-.34-2a4.18,4.18,0,0,0-.44-.82,17.53,17.53,0,0,0-2.5-2.87,31.61,31.61,0,0,0-3.19-2.7c-.55-.41-1.11-.8-1.64-1.13-.27-.16-.52-.31-.74-.42s-.44-.2-.36-.17l.2,0,.24,0h.47l.34-.06a3.31,3.31,0,0,0,.45-.12c.07,0,0,0,0,0l-.09,0c-.13.07-.32.15-.54.29a11.27,11.27,0,0,0-1.36,1,28.41,28.41,0,0,0-2.79,2.88,60.82,60.82,0,0,0-8.83,15.23c-4.73,11.19-7.41,23.43-9.62,35.83l-1-.06a119.53,119.53,0,0,1,.54-19.09,97,97,0,0,1,3.88-19,58.81,58.81,0,0,1,8.85-17.91,27.79,27.79,0,0,1,3.67-4,18.7,18.7,0,0,1,2.39-1.82,11.58,11.58,0,0,1,1.54-.83l.45-.2.27-.1c.2-.06.4-.12.6-.16s.32,0,.48-.07a7,7,0,0,1,.77,0l.53.06a6.57,6.57,0,0,1,.77.17,10.07,10.07,0,0,1,1.83.74c.48.24.9.48,1.31.73.8.49,1.54,1,2.25,1.53a39.05,39.05,0,0,1,4,3.41,25.78,25.78,0,0,1,3.62,4.28,10.83,10.83,0,0,1,1.53,3.43l.07.31,0,.16.05.31.09.62.19,1.24a60.4,60.4,0,0,1,.57,10,68.08,68.08,0,0,1-3.48,19.4,88.85,88.85,0,0,1-8,17.62A81.7,81.7,0,0,1,182.91,316Z"/><path class="cls-1" d="M151,315.66s-24.94-28.07-18.45-63.52c.78-4.27,10.74-11.94,12.46-11.32,5.64,2,20,18.41,22.41,59.08"/><path class="cls-2" d="M150.62,316a81.7,81.7,0,0,1-11.46-15.3,88.85,88.85,0,0,1-8-17.62,68.08,68.08,0,0,1-3.48-19.4,59.32,59.32,0,0,1,.57-10l.19-1.24.09-.62,0-.31,0-.16.06-.31a10.82,10.82,0,0,1,1.54-3.43,25.3,25.3,0,0,1,3.62-4.28,39.05,39.05,0,0,1,4-3.41c.71-.53,1.44-1,2.25-1.53.41-.25.83-.49,1.31-.73a10.23,10.23,0,0,1,1.82-.74,6.79,6.79,0,0,1,.78-.17l.53-.06a7.1,7.1,0,0,1,.77,0c.16,0,.29,0,.48.07s.4.1.6.16l.26.1.46.2a10.84,10.84,0,0,1,1.53.83,18.15,18.15,0,0,1,2.4,1.82,27.79,27.79,0,0,1,3.67,4,59,59,0,0,1,8.85,17.91,97,97,0,0,1,3.88,19,118.36,118.36,0,0,1,.53,19.09l-1,.06c-2.21-12.4-4.89-24.64-9.62-35.83a61.13,61.13,0,0,0-8.83-15.23,29.53,29.53,0,0,0-2.79-2.88,10.59,10.59,0,0,0-1.37-1,5.2,5.2,0,0,0-.53-.29l-.09,0s-.07,0,0,0a3.45,3.45,0,0,0,.46.12l.33.06H145l.24,0,.19,0c.09,0-.14.06-.35.17s-.48.26-.74.42c-.53.33-1.09.72-1.65,1.13a32.75,32.75,0,0,0-3.19,2.7,17.93,17.93,0,0,0-2.49,2.87,3.59,3.59,0,0,0-.44.82l-.34,2q-.19,1.09-.3,2.19c-.09.73-.21,1.47-.28,2.2-.12,1.47-.26,2.95-.28,4.43s-.06,3-.07,4.46.09,3,.22,4.48a72,72,0,0,0,1.18,9,89.65,89.65,0,0,0,14.72,33.7Z"/><path class="cls-2" d="M170.9,309.39a10.07,10.07,0,0,0-3.48.93,21.38,21.38,0,0,0-3.3,1.69c-.52.33-1,.66-1.5.93l-1.24.68c-.13.06-.26.18,0,0a2,2,0,0,0,.37-.33,4.52,4.52,0,0,0,.36-.48l.09-.16a1.34,1.34,0,0,0,.12-.24c0-.09.08-.17.11-.25s0,0,0,0,0,0,0,.06a5.2,5.2,0,0,0-.1,1,22.56,22.56,0,0,0,1,6.34,50.18,50.18,0,0,0,2.48,6.72,88.74,88.74,0,0,0,7.4,13c2.84,4.2,6,8.28,9.19,12.39l-.68.73a83,83,0,0,1-12.11-10.17,68.92,68.92,0,0,1-9.94-12.71A45.2,45.2,0,0,1,156,322a25.43,25.43,0,0,1-1.8-8.86,11.57,11.57,0,0,1,.31-2.83,8.43,8.43,0,0,1,.26-.87l0-.09.12-.3.15-.3.13-.22a5.49,5.49,0,0,1,.51-.67,4.67,4.67,0,0,1,.73-.65,7.59,7.59,0,0,1,1.7-.92,9.49,9.49,0,0,1,4.71-.54,32.36,32.36,0,0,1,4.4.76,13.23,13.23,0,0,1,2.14.74,5.91,5.91,0,0,1,2,1.31Z"/></g></svg>