<svg xmlns="http://www.w3.org/2000/svg" viewBox="0 0 640 320"><defs><style>.cls-1{fill:#1d1d1b;}</style></defs><g id="Kitchen_Sink" data-name="Kitchen Sink"><path class="cls-1" d="M273.17,197.24l-7.33-6.8c.66-.71,16.51-17.44,54.38-17.44,37.66,0,54.68,15.66,55.39,16.32l-6.86,7.28c-.13-.12-15.17-13.6-48.53-13.6C287.09,183,273.31,197.1,273.17,197.24Z"/><path class="cls-1" d="M217.51,260.2a58.74,58.74,0,1,1,58.73-58.73A58.8,58.8,0,0,1,217.51,260.2Zm0-107.47a48.74,48.74,0,1,0,48.73,48.74A48.79,48.79,0,0,0,217.51,152.73Z"/><path class="cls-1" d="M424.19,260.2a58.74,58.74,0,1,1,58.73-58.73A58.8,58.8,0,0,1,424.19,260.2Zm0-107.47a48.74,48.74,0,1,0,48.73,48.74A48.8,48.8,0,0,0,424.19,152.73Z"/></g></svg>