<svg xmlns="http://www.w3.org/2000/svg" viewBox="0 0 640 320"><defs><style>.cls-1{fill:blue;}.cls-2{fill:#1d1d1b;}.cls-3{fill:#500000;}</style></defs><g id="Eyes"><path class="cls-1" d="M496.06,262.4c2.51-37.64,37.28-87.22,35.45-122.95-.69-13.52-32.66-2.41-46.15-1.24-57.63,5-77.49,4.11-94.3,20.92"/><path class="cls-2" d="M495.66,262.37c.52-11.65,3.68-23,7.31-34s7.95-21.78,12-32.57,8.11-21.57,10.81-32.59a92.3,92.3,0,0,0,2.65-16.58c.09-1.38.11-2.76.1-4.13,0-.68,0-1.37-.07-2.05,0-.31,0-.73-.06-1a5,5,0,0,0-.1-.62,2.5,2.5,0,0,0-1.14-1.59,7.55,7.55,0,0,0-2.82-1,30.47,30.47,0,0,0-7.76,0c-2.72.27-5.49.73-8.27,1.26-5.57,1-11.13,2.44-16.95,3.59-1.46.29-2.94.55-4.5.76l-4.42.5c-2.88.29-5.75.61-8.63.86q-8.64.81-17.28,1.36c-5.75.41-11.51.68-17.22,1.1s-11.41.83-17,1.59c-2.81.36-5.59.8-8.31,1.41a58.52,58.52,0,0,0-8,2.28,50.19,50.19,0,0,0-14.65,8.37l-.56-.57a43.35,43.35,0,0,1,13.64-11.31,59.62,59.62,0,0,1,8.26-3.56c2.83-1,5.7-1.75,8.58-2.44,11.55-2.62,23.13-3.85,34.64-5,5.76-.57,11.51-1,17.27-1.42l8.63-.58,2.16-.13,1.08-.06,1-.08c1.31-.13,2.68-.32,4.07-.53,5.55-.89,11.26-2.07,17.07-3,2.92-.46,5.86-.86,8.9-1.07a36.2,36.2,0,0,1,9.51.37,13.41,13.41,0,0,1,5.22,2.1,8.84,8.84,0,0,1,2.32,2.36,8.93,8.93,0,0,1,1.27,3.06,11.52,11.52,0,0,1,.2,1.52c0,.49,0,.79,0,1.2,0,.76,0,1.52,0,2.28,0,1.52-.12,3-.26,4.53a98.4,98.4,0,0,1-3.42,17.49c-3.22,11.34-7.66,22.1-12.16,32.77s-9.31,21.15-13.44,31.89c-2.05,5.37-3.95,10.8-5.51,16.33a94.18,94.18,0,0,0-3.35,16.87Z"/><path class="cls-3" d="M478.21,251.87c0-34.83,27.67-71.67,17.89-81.44s-65.57-7.2-96.92,4.74"/><path class="cls-2" d="M477.91,251.87a78.4,78.4,0,0,1,.56-11.56,113.36,113.36,0,0,1,2.06-11.42,211.85,211.85,0,0,1,6.7-22.16c2.54-7.25,5.38-14.43,7.36-21.65a44,44,0,0,0,1.14-5.37,15.62,15.62,0,0,0,0-5,5.51,5.51,0,0,0-.73-1.88,4.55,4.55,0,0,0-1.36-1.33,16.76,16.76,0,0,0-4.55-1.93,55.06,55.06,0,0,0-10.82-1.75c-3.72-.27-7.48-.35-11.24-.34-7.54,0-15.1.36-22.66.9s-15.12,1.41-22.65,2.52a213.24,213.24,0,0,0-22.44,4.52l-.21-.56A112.16,112.16,0,0,1,420.92,167q5.64-1.48,11.37-2.54c3.81-.75,7.65-1.3,11.51-1.8a151.07,151.07,0,0,1,23.31-1.26,115.9,115.9,0,0,1,11.74.88,64.39,64.39,0,0,1,11.78,2.47,21.43,21.43,0,0,1,5.86,2.86,9.26,9.26,0,0,1,2.57,2.83,10.24,10.24,0,0,1,1.22,3.5,19.55,19.55,0,0,1-.24,6.48,48.25,48.25,0,0,1-1.48,5.83c-2.42,7.5-5.55,14.5-8.38,21.62a222.18,222.18,0,0,0-7.76,21.54,93.1,93.1,0,0,0-3.91,22.48Z"/><path class="cls-1" d="M143.94,262.4c-2.51-37.64-37.28-87.22-35.45-122.95.69-13.52,32.66-2.41,46.15-1.24,57.63,5,77.49,4.11,94.3,20.92"/><path class="cls-2" d="M143.54,262.43a94.18,94.18,0,0,0-3.35-16.87c-1.56-5.53-3.46-11-5.51-16.33-4.13-10.74-8.88-21.25-13.44-31.89s-8.94-21.43-12.16-32.77a98.4,98.4,0,0,1-3.42-17.49c-.14-1.5-.22-3-.26-4.53,0-.76,0-1.52,0-2.28,0-.41,0-.71,0-1.2a11.52,11.52,0,0,1,.2-1.52,8.93,8.93,0,0,1,1.27-3.06,8.84,8.84,0,0,1,2.32-2.36,13.41,13.41,0,0,1,5.22-2.1,36.2,36.2,0,0,1,9.51-.37c3,.21,6,.61,8.9,1.07,5.81.92,11.52,2.1,17.07,3,1.39.21,2.76.4,4.07.53l1,.08,1.08.06,2.16.13,8.63.58c5.76.4,11.51.85,17.27,1.42,11.51,1.16,23.09,2.39,34.64,5,2.88.69,5.75,1.47,8.58,2.44a59.62,59.62,0,0,1,8.26,3.56,43.35,43.35,0,0,1,13.64,11.31l-.56.57A50.19,50.19,0,0,0,234,151a58.52,58.52,0,0,0-8-2.28c-2.72-.61-5.51-1-8.31-1.41-5.59-.76-11.28-1.18-17-1.59s-11.47-.69-17.22-1.1-11.52-.82-17.28-1.36c-2.88-.25-5.75-.57-8.63-.86l-4.42-.5c-1.56-.21-3-.47-4.5-.76-5.82-1.15-11.38-2.55-17-3.59-2.78-.53-5.55-1-8.27-1.26a30.47,30.47,0,0,0-7.76,0,7.55,7.55,0,0,0-2.82,1,2.5,2.5,0,0,0-1.14,1.59,5,5,0,0,0-.1.62c0,.23,0,.65-.06,1-.05.68-.05,1.37-.07,2.05,0,1.37,0,2.75.1,4.13a92.3,92.3,0,0,0,2.65,16.58c2.7,11,6.7,21.83,10.81,32.59s8.36,21.56,12,32.57,6.79,22.33,7.31,34Z"/><path class="cls-3" d="M161.79,251.87c0-34.83-27.67-71.67-17.89-81.44s65.57-7.2,96.92,4.74"/><path class="cls-2" d="M161.49,251.87a93.1,93.1,0,0,0-3.91-22.48,222.18,222.18,0,0,0-7.76-21.54c-2.83-7.12-6-14.12-8.38-21.62A48.25,48.25,0,0,1,140,180.4a19.55,19.55,0,0,1-.24-6.48,10.24,10.24,0,0,1,1.22-3.5,9.26,9.26,0,0,1,2.57-2.83,21.43,21.43,0,0,1,5.86-2.86,64.39,64.39,0,0,1,11.78-2.47,115.9,115.9,0,0,1,11.74-.88,151.07,151.07,0,0,1,23.31,1.26c3.86.5,7.7,1.05,11.51,1.8s7.61,1.55,11.37,2.54a112.16,112.16,0,0,1,21.84,7.91l-.21.56a212.91,212.91,0,0,0-22.45-4.52q-11.28-1.67-22.64-2.52c-7.56-.54-15.12-.87-22.66-.9-3.76,0-7.52.07-11.24.34a55.06,55.06,0,0,0-10.82,1.75,16.76,16.76,0,0,0-4.55,1.93,4.55,4.55,0,0,0-1.36,1.33,5.51,5.51,0,0,0-.73,1.88,15.62,15.62,0,0,0,0,5,44,44,0,0,0,1.14,5.37c2,7.22,4.82,14.4,7.36,21.65a211.85,211.85,0,0,1,6.7,22.16,113.36,113.36,0,0,1,2.06,11.42,78.4,78.4,0,0,1,.56,11.56Z"/></g></svg>