<svg xmlns="http://www.w3.org/2000/svg" viewBox="0 0 640 160"><defs><style>.cls-1{fill:#1d1d1b;}</style></defs><g id="Eyes"><path class="cls-1" d="M246.8,68.85a55.47,55.47,0,0,1-7.62,6.28,76.24,76.24,0,0,1-8.42,5.05A78.5,78.5,0,0,1,212.27,87a77.12,77.12,0,0,1-9.8,1.54c-1.66.09-3.3.24-5,.23-.83,0-1.66,0-2.48,0l-2.49-.12a59.73,59.73,0,0,1-19.18-4.27,2.06,2.06,0,0,1,1-3.94h0a112,112,0,0,0,18.21,1.07c3-.12,6-.34,9-.74s5.93-.93,8.86-1.59a113.9,113.9,0,0,0,17.28-5.46c2.81-1.15,5.61-2.38,8.35-3.74s5.51-2.8,8.09-4.27l.11-.06a2,2,0,0,1,2.47,3.22Z"/><path class="cls-1" d="M395.78,65.69c2.58,1.47,5.34,3,8.09,4.27s5.54,2.59,8.35,3.74a113.9,113.9,0,0,0,17.28,5.46c2.93.66,5.89,1.19,8.86,1.59s6,.62,9,.74a112,112,0,0,0,18.21-1.07h0a2.06,2.06,0,0,1,1.05,3.94,59.73,59.73,0,0,1-19.18,4.27l-2.49.12c-.82,0-1.65,0-2.48,0-1.66,0-3.3-.14-5-.23a77.12,77.12,0,0,1-9.8-1.54,78.5,78.5,0,0,1-18.49-6.78,76.24,76.24,0,0,1-8.42-5.05,55.47,55.47,0,0,1-7.62-6.28,2,2,0,0,1,2.47-3.22Z"/></g></svg>