<svg xmlns="http://www.w3.org/2000/svg" viewBox="0 0 640 160"><defs><style>.cls-1{fill:blue;}.cls-2{fill:#1d1d1b;}</style></defs><g id="Eyes"><path class="cls-1" d="M502.44,35.43s40.91,26,56.79,60.26c9.64,20.83,12.91,41.5,14,54.67a2.66,2.66,0,0,1-5.06,1.32c-7.84-17-23.17-45.73-40.4-53.54a1.18,1.18,0,0,0-1.34,1.9c7.51,7.21,22.38,24.89,20.66,50.66a2.65,2.65,0,0,1-4.91,1.29c-7.25-12.19-25.07-35-54.73-29.28"/><path class="cls-2" d="M502.72,35A164.42,164.42,0,0,1,521,47.23c2.89,2.26,5.75,4.56,8.52,7,1.42,1.18,2.74,2.45,4.1,3.69l2,1.88c.67.63,1.31,1.29,2,1.94a132,132,0,0,1,14.53,16.75l1.63,2.26.81,1.14.74,1.19,3,4.75c1.74,3.31,3.6,6.61,5,10a152.91,152.91,0,0,1,11.34,42.74c.22,1.83.41,3.67.57,5.5.08.92.16,1.84.22,2.76l.1,1.4a5.08,5.08,0,0,1-.46,2.44,4.79,4.79,0,0,1-1.66,1.9,5.14,5.14,0,0,1-2.27.81,5,5,0,0,1-2.43-.37,4.89,4.89,0,0,1-1.93-1.58,5.19,5.19,0,0,1-.31-.5c-.08-.16-.2-.38-.23-.45l-.28-.62-.55-1.24c-.36-.82-.73-1.65-1.12-2.46-3-6.56-6.27-13-9.91-19.24A120,120,0,0,0,542,111.25l-1.81-2-.9-1-1-.92-1.92-1.86-2-1.7-1-.84-1.09-.75c-.73-.48-1.43-1-2.19-1.46l-2.3-1.24-.29-.16c-.08,0-.24-.13-.21-.1s0,0,0,0,0,0,0,0a.15.15,0,0,0,0-.09s0,0,0,0,0,0,0,0l.12.12,1,1c.67.65,1.29,1.34,1.93,2l1.85,2.07,1.77,2.14a75.66,75.66,0,0,1,6.29,9.15,65.65,65.65,0,0,1,7.9,20.8c.18.92.28,1.86.42,2.78s.32,1.85.35,2.79c.09,1.87.33,3.75.25,5.62l0,2.82v.35c0,.13,0,.37-.06.54a4.74,4.74,0,0,1-.32,1.14,4.65,4.65,0,0,1-1.45,1.89,4.79,4.79,0,0,1-4.62.73,4.59,4.59,0,0,1-2-1.48l-.35-.48-.19-.29-.35-.56a75.92,75.92,0,0,0-13.58-16.09,51.41,51.41,0,0,0-8.43-6.09,46.69,46.69,0,0,0-9.4-4.24,48.16,48.16,0,0,0-10.14-2.07,59.36,59.36,0,0,0-10.58,0,1.12,1.12,0,0,1-.42-2.18,40.93,40.93,0,0,1,22.47-.27,44.21,44.21,0,0,1,10.57,4.42,56.48,56.48,0,0,1,9.19,6.73,66.66,66.66,0,0,1,7.72,8.23,74.6,74.6,0,0,1,6.33,9.26l.35.6.18.29,0,.07a.58.58,0,0,0,.14.16.57.57,0,0,0,.54-.06.73.73,0,0,0,.21-.22c0-.06.06-.1.06-.18s0,0,0-.13v-.33l.13-2.64c.15-1.76,0-3.52,0-5.28,0-.88-.15-1.75-.22-2.63s-.16-1.76-.3-2.63a60.29,60.29,0,0,0-6.8-20A69.24,69.24,0,0,0,532,108L530.28,106l-1.78-2c-.62-.65-1.21-1.32-1.85-1.94l-.95-1-.12-.12-.2-.22a2.36,2.36,0,0,1-.37-.59,2.31,2.31,0,0,1-.12-1.42,2.42,2.42,0,0,1,1.84-1.83,2.33,2.33,0,0,1,1.34.09,2.37,2.37,0,0,1,.41.19l.31.16,2.52,1.32c.82.46,1.57,1,2.35,1.54l1.17.79,1.09.87,2.17,1.77,2,1.91,1,1,1,1,1.9,2a136.24,136.24,0,0,1,13.12,17.73c3.95,6.19,7.5,12.61,10.81,19.15q.63,1.23,1.23,2.46l.61,1.24.3.61a.48.48,0,0,0,.09.15s0,.06,0,.08a.94.94,0,0,0,.17.11h.25c.22-.05.36-.19.35-.26s0-.1,0-.22l-.14-1.31c-.09-.9-.2-1.79-.31-2.68-.22-1.78-.46-3.55-.74-5.33-.56-3.54-1.21-7.07-2-10.56s-1.59-7-2.57-10.43a162.71,162.71,0,0,0-7.11-20.19c-1.39-3.31-3-6.39-4.64-9.54L550.72,86,550,84.82l-.76-1.09-1.52-2.19-1.51-2.21c-.5-.73-1.07-1.42-1.61-2.13-1.09-1.41-2.14-2.85-3.28-4.24l-3.47-4.1c-1.16-1.36-2.39-2.66-3.59-4a251,251,0,0,0-32.14-29h0a.54.54,0,0,1-.1-.74A.54.54,0,0,1,502.72,35Z"/><path class="cls-1" d="M137.56,35.43s-40.91,26-56.79,60.26c-9.64,20.83-12.91,41.5-14,54.67a2.66,2.66,0,0,0,5.06,1.32c7.84-17,23.17-45.73,40.4-53.54a1.18,1.18,0,0,1,1.34,1.9c-7.51,7.21-22.38,24.89-20.66,50.66A2.65,2.65,0,0,0,97.83,152c7.25-12.19,25.07-35,54.73-29.28"/><path class="cls-2" d="M137.84,35.87a251,251,0,0,0-32.14,29c-1.2,1.34-2.43,2.64-3.59,4L98.64,73c-1.14,1.39-2.19,2.83-3.28,4.24-.54.71-1.11,1.4-1.61,2.13l-1.51,2.21-1.52,2.19L90,84.82,89.28,86l-2.74,4.55c-1.6,3.15-3.25,6.23-4.64,9.54a162.71,162.71,0,0,0-7.11,20.19c-1,3.44-1.8,6.93-2.57,10.43s-1.43,7-2,10.56c-.28,1.78-.52,3.55-.74,5.33-.11.89-.22,1.78-.31,2.68L69,150.55c0,.12,0,.2,0,.22s.13.21.35.26h.25a.94.94,0,0,0,.17-.11s0-.06,0-.08a.48.48,0,0,0,.09-.15l.31-.61.6-1.24q.6-1.23,1.23-2.46c3.31-6.54,6.86-13,10.81-19.15A136.24,136.24,0,0,1,96,109.5l1.9-2,1-1,1-1,2-1.91,2.17-1.77,1.09-.87,1.17-.79c.78-.51,1.53-1.08,2.35-1.54l2.52-1.32.31-.16a2.37,2.37,0,0,1,.41-.19,2.33,2.33,0,0,1,1.34-.09,2.42,2.42,0,0,1,1.84,1.83,2.31,2.31,0,0,1-.12,1.42,2.36,2.36,0,0,1-.37.59l-.2.22-.12.12-1,1c-.64.62-1.23,1.29-1.85,1.94l-1.78,2L108,108a69.24,69.24,0,0,0-5.88,8.94,60.29,60.29,0,0,0-6.8,20c-.14.87-.2,1.75-.3,2.63s-.23,1.75-.22,2.63c0,1.76-.18,3.52,0,5.28l.13,2.64v.33c0,.1,0,.08,0,.13s0,.12.06.18a.73.73,0,0,0,.21.22.57.57,0,0,0,.54.06.58.58,0,0,0,.14-.16.43.43,0,0,0,0-.07l.18-.29.35-.6a74.6,74.6,0,0,1,6.33-9.26,67.43,67.43,0,0,1,7.72-8.23,56.48,56.48,0,0,1,9.19-6.73,44.21,44.21,0,0,1,10.57-4.42,40.93,40.93,0,0,1,22.47.27,1.12,1.12,0,0,1-.42,2.18,59.36,59.36,0,0,0-10.58,0,48.16,48.16,0,0,0-10.14,2.07,46.69,46.69,0,0,0-9.4,4.24,51.41,51.41,0,0,0-8.43,6.09,75.92,75.92,0,0,0-13.58,16.09l-.35.56-.19.29-.35.48a4.59,4.59,0,0,1-2,1.48,4.79,4.79,0,0,1-4.62-.73,4.65,4.65,0,0,1-1.45-1.89,4.74,4.74,0,0,1-.32-1.14c0-.17,0-.41-.06-.54v-.35l0-2.82c-.08-1.87.16-3.75.25-5.62,0-.94.24-1.86.35-2.79s.24-1.86.42-2.78a65.65,65.65,0,0,1,7.9-20.8,75.66,75.66,0,0,1,6.29-9.15l1.77-2.14,1.85-2.07c.64-.66,1.26-1.35,1.93-2l1-1,.12-.12s0,0,0,0,0,0,0,0a.15.15,0,0,0,0,.09s0,0,0,0,0,0,0,0-.13.06-.21.1l-.29.16-2.3,1.24c-.76.43-1.46,1-2.19,1.46l-1.09.75-1,.84-2,1.7-1.92,1.86-1,.92-.91,1-1.81,2a120,120,0,0,0-12.32,17.67c-3.64,6.22-6.9,12.68-9.91,19.24-.39.81-.76,1.64-1.12,2.46l-.55,1.24-.28.62c0,.07-.14.29-.23.45a5.19,5.19,0,0,1-.31.5A4.89,4.89,0,0,1,71.35,155a5,5,0,0,1-2.43.37,5.14,5.14,0,0,1-2.27-.81,4.79,4.79,0,0,1-1.66-1.9,5.08,5.08,0,0,1-.46-2.44l.1-1.4c.06-.92.14-1.84.22-2.76.16-1.83.35-3.67.57-5.5A152.91,152.91,0,0,1,76.76,97.83c1.41-3.42,3.27-6.72,5-10l3-4.75.74-1.19.81-1.14,1.63-2.26a132,132,0,0,1,14.53-16.75c.65-.65,1.29-1.31,2-1.94l2-1.88c1.36-1.24,2.68-2.51,4.1-3.69,2.77-2.41,5.63-4.71,8.52-7A164.42,164.42,0,0,1,137.28,35a.53.53,0,0,1,.58.88Z"/></g></svg>