<svg xmlns="http://www.w3.org/2000/svg" viewBox="0 0 640 320"><defs><style>.cls-1{fill:#000080;}.cls-2{fill:#000080;}</style></defs><g id="top-shape"><path class="cls-1" d="M516.28,225.36c0,108.4-87.88,49.69-196.28,49.69s-196.28,58.71-196.28-49.69S211.6,29.08,320,29.08,516.28,117,516.28,225.36Z"/><path class="cls-2" d="M463.07,294.2c-16.1,0-35.05-3.15-56.28-6.67-26.11-4.32-55.69-9.23-86.79-9.23s-60.68,4.91-86.79,9.23c-41.59,6.9-74.45,12.35-94.25-4.45-12.45-10.55-18.49-29.43-18.49-57.72,0-110,89.51-199.53,199.53-199.53s199.53,89.51,199.53,199.53c0,28.29-6,47.17-18.49,57.72C491.35,291.31,478.52,294.2,463.07,294.2ZM320,271.8c31.64,0,61.5,4.95,87.85,9.32,39.93,6.62,71.48,11.85,89-3,10.9-9.23,16.19-26.49,16.19-52.76,0-106.44-86.59-193-193-193s-193,86.59-193,193c0,26.27,5.29,43.53,16.19,52.76,17.51,14.85,49.06,9.62,89,3C258.5,276.75,288.36,271.8,320,271.8Z"/></g></svg>