<svg xmlns="http://www.w3.org/2000/svg" viewBox="0 0 640 160"><defs><style>.cls-1{fill:#000050;}.cls-2{fill:#0d0a09;}.cls-3{fill:#fcfcfc;}.cls-4{fill:blue;}</style></defs><g id="Kitchen_Sink" data-name="Kitchen Sink"><path class="cls-1" d="M382.22,62c-4.62,8.81.64,35.38,29.78,35.38,22.74,0,58.28-14.38,58.28-25.4S451.84,52,429.1,52,387.92,51.11,382.22,62Z"/><path class="cls-1" d="M257.78,62c4.62,8.81-.64,35.38-29.78,35.38-22.74,0-58.28-14.38-58.28-25.4s18.44-20,41.18-20S252.08,51.11,257.78,62Z"/><circle class="cls-2" cx="218.1" cy="74.69" r="24.1"/><circle class="cls-2" cx="422.9" cy="74.69" r="24.1"/><circle class="cls-3" cx="435.56" cy="70.52" r="5.09"/><circle class="cls-3" cx="414.56" cy="75.61" r="8.34"/><circle class="cls-3" cx="232.17" cy="70.52" r="5.09"/><circle class="cls-3" cx="209.89" cy="75.61" r="8.34"/><path class="cls-4" d="M459.41,56.07c-.48,2.45-1.7,4.64-4.2,4.64H394.13c-6,0-2.83-21.94,15.6-29.76"/><path class="cls-2" d="M460.8,56.34a6.74,6.74,0,0,1-.81,4.11,5.54,5.54,0,0,1-1.81,1.94,5.75,5.75,0,0,1-2.7.88,3.81,3.81,0,0,1-.52,0h-2.91l-3.34,0c-4.44,0-8.89.11-13.33.09-8.89,0-17.78,0-26.67-.12l-13.33-.17h-1.25a6.27,6.27,0,0,1-.86-.09,4.67,4.67,0,0,1-2.83-1.83,8.21,8.21,0,0,1-1.37-4.43,20.33,20.33,0,0,1,1.16-7.37,31.71,31.71,0,0,1,19-19.61,1.24,1.24,0,0,1,1,2.27h0a30.76,30.76,0,0,0-9.93,7.75,29.73,29.73,0,0,0-5.84,10.88,17.56,17.56,0,0,0-.71,5.76,3.78,3.78,0,0,0,.53,1.87c.09.08,0,0-.11-.06h1.22l13.33-.17c8.89-.09,17.78-.15,26.67-.12,4.44,0,8.89.06,13.33.09l6.56.06a1.6,1.6,0,0,0,.49,0,1.38,1.38,0,0,0,.62-.29,9,9,0,0,0,1.63-2l.08-.11a1.48,1.48,0,0,1,2.05-.42A1.53,1.53,0,0,1,460.8,56.34Z"/><path class="cls-4" d="M459.41,88.7a4.19,4.19,0,0,0-4.2-4.64H394.13c-6,0-7.57,18.85,13.09,25.36"/><path class="cls-2" d="M458,88.53a2.56,2.56,0,0,0-2.48-2.42l-3,.18c-1.08.06-2.16.12-3.24.15-4.32.19-8.64.22-13,.27s-8.64.1-13,.09-8.65,0-13-.07-8.64-.13-13-.19l-3.24-.05H394a.3.3,0,0,0-.13,0,1.47,1.47,0,0,0-.45.42,5.12,5.12,0,0,0-.82,2,11.26,11.26,0,0,0-.16,2.62,16.5,16.5,0,0,0,4.82,10.16,25.12,25.12,0,0,0,4.72,3.75,35,35,0,0,0,5.57,2.72h0a1.24,1.24,0,0,1-.76,2.35,28.28,28.28,0,0,1-12.1-6.15A19.79,19.79,0,0,1,388,92a14.09,14.09,0,0,1,.07-3.83,9.69,9.69,0,0,1,1.5-4,6.2,6.2,0,0,1,1.86-1.81,5,5,0,0,1,1.36-.59,4.62,4.62,0,0,1,.74-.15l.38,0h.3l3.24-.06c4.32-.06,8.64-.15,13-.18s8.65-.09,13-.07,8.64,0,13,.08,8.64.08,13,.27c1.08,0,2.16.09,3.24.16l1.62.09.81,0c.21,0,.72,0,1.08.12a6,6,0,0,1,3.86,2.47,5.57,5.57,0,0,1,.9,4.31,1.42,1.42,0,0,1-2.81-.22Z"/><path class="cls-4" d="M180.59,56.07c.48,2.45,1.7,4.64,4.2,4.64h61.08c6,0,2.83-21.94-15.6-29.76"/><path class="cls-2" d="M182,55.79a9,9,0,0,0,1.63,2,1.38,1.38,0,0,0,.62.29,1.6,1.6,0,0,0,.49,0l6.56-.06c4.44,0,8.89-.1,13.33-.09,8.89,0,17.78,0,26.67.12l13.33.17h1.21c-.09,0-.19.14-.1.06a3.78,3.78,0,0,0,.53-1.87,17.56,17.56,0,0,0-.71-5.76,29.73,29.73,0,0,0-5.84-10.88,30.76,30.76,0,0,0-9.93-7.75h0a1.24,1.24,0,0,1,1-2.27,31.71,31.71,0,0,1,19,19.61,20.33,20.33,0,0,1,1.16,7.37,8.21,8.21,0,0,1-1.37,4.43,4.67,4.67,0,0,1-2.83,1.83,6.27,6.27,0,0,1-.86.09h-1.25l-13.33.17c-8.89.09-17.78.15-26.67.12-4.44,0-8.89-.06-13.33-.09l-3.34,0H185a3.81,3.81,0,0,1-.52,0,5.75,5.75,0,0,1-2.7-.88A5.54,5.54,0,0,1,180,60.45a6.74,6.74,0,0,1-.81-4.11,1.49,1.49,0,0,1,2.71-.66Z"/><path class="cls-4" d="M180.59,88.7a4.19,4.19,0,0,1,4.2-4.64h61.08c6,0,7.57,18.85-13.09,25.36"/><path class="cls-2" d="M179.18,88.87a5.57,5.57,0,0,1,.9-4.31,6,6,0,0,1,3.86-2.47c.36-.07.87-.1,1.08-.12l.81,0,1.62-.09c1.08-.07,2.16-.12,3.24-.16,4.32-.19,8.64-.22,13-.27s8.64-.09,13-.08,8.65,0,13,.07,8.64.12,13,.18l3.24.06h.3l.38,0a4.62,4.62,0,0,1,.74.15,5,5,0,0,1,1.36.59,6.2,6.2,0,0,1,1.86,1.81,9.69,9.69,0,0,1,1.5,4A14.09,14.09,0,0,1,252,92a19.79,19.79,0,0,1-6.74,12.43,28.28,28.28,0,0,1-12.1,6.15,1.24,1.24,0,0,1-1.51-.89,1.26,1.26,0,0,1,.75-1.46h0a35,35,0,0,0,5.57-2.72,25.12,25.12,0,0,0,4.72-3.75,16.5,16.5,0,0,0,4.82-10.16,11.26,11.26,0,0,0-.16-2.62,5.27,5.27,0,0,0-.82-2,1.47,1.47,0,0,0-.45-.42.3.3,0,0,0-.13,0h-.18l-3.24.05c-4.32.06-8.64.16-13,.19s-8.65.09-13,.07-8.64,0-13-.09-8.64-.08-13-.27c-1.08,0-2.16-.09-3.24-.15l-3-.18A2.56,2.56,0,0,0,182,88.53v.12A1.41,1.41,0,0,1,180.48,90,1.44,1.44,0,0,1,179.18,88.87Z"/></g></svg>