<svg xmlns="http://www.w3.org/2000/svg" viewBox="0 0 320 160"><defs><style>.cls-1{fill:blue;}.cls-2{fill:#0d0a09;}</style></defs><g id="Eyes"><path class="cls-1" d="M188.27,76.65a28.27,28.27,0,0,1-56.54,0"/><path class="cls-2" d="M160,106.42a29.8,29.8,0,0,1-29.77-29.77,1.5,1.5,0,0,1,3,0,26.77,26.77,0,0,0,53.54,0,1.5,1.5,0,0,1,3,0A29.8,29.8,0,0,1,160,106.42Z"/><path class="cls-1" d="M223.72,64.16a16.5,16.5,0,0,1-30.67,12.17"/><path class="cls-2" d="M208.4,88.25a18,18,0,0,1-16.75-11.36,1.5,1.5,0,1,1,2.79-1.11,15,15,0,0,0,27.71.41,14.86,14.86,0,0,0,.17-11.47,1.5,1.5,0,0,1,2.79-1.11A18,18,0,0,1,208.4,88.25Z"/><path class="cls-1" d="M96.28,64.16A16.5,16.5,0,0,0,127,76.33"/><path class="cls-2" d="M111.6,88.25A18,18,0,0,1,94.89,63.61a1.5,1.5,0,0,1,2.79,1.11,15,15,0,0,0,8.4,19.47,15,15,0,0,0,19.48-8.41,1.5,1.5,0,0,1,2.79,1.11A18,18,0,0,1,111.6,88.25Z"/></g></svg>