<svg xmlns="http://www.w3.org/2000/svg" viewBox="0 0 320 160"><defs><style>.cls-1{fill:red;}.cls-2{fill:#0d0a09;}.cls-3{fill:#fff;}</style></defs><g id="Eyes"><path class="cls-1" d="M184.89,111.75c0,11.21-10.83,20.3-24.19,20.3s-24.18-9.09-24.18-20.3,10.83-14.5,24.18-14.5S184.89,100.55,184.89,111.75Z"/><path class="cls-2" d="M186.94,111.75a20.06,20.06,0,0,1-1.89,9.13,23.44,23.44,0,0,1-5.57,7.51,27.22,27.22,0,0,1-17,6.84,29.43,29.43,0,0,1-17.67-4.68,24.34,24.34,0,0,1-6.7-6.49,20.44,20.44,0,0,1-3.47-8.7,17.3,17.3,0,0,1,1.07-9.3l.23-.56.31-.52.62-1a16.13,16.13,0,0,1,1.54-1.84,13.46,13.46,0,0,1,1.8-1.51l1-.66,1-.53a25.83,25.83,0,0,1,8.39-2.56,55.22,55.22,0,0,1,8.49-.62c1.41,0,2.82,0,4.23.06s2.83.14,4.24.27A41.15,41.15,0,0,1,176,98.14a21.07,21.07,0,0,1,2.09.77c.69.27,1.35.67,2,1a18.69,18.69,0,0,1,1.91,1.33,12,12,0,0,1,1.69,1.66c.25.31.52.62.76.94l.63,1a13.24,13.24,0,0,1,1,2.2,22.54,22.54,0,0,1,.6,2.32C186.81,110.19,186.87,111,186.94,111.75Zm-4.11,0A10.67,10.67,0,0,0,181,105a13.07,13.07,0,0,0-5.92-4.46,29.43,29.43,0,0,0-7.8-1.93,49.83,49.83,0,0,0-8.2-.29,51.88,51.88,0,0,0-8.11.91,23.17,23.17,0,0,0-7.35,2.74,10.09,10.09,0,0,0-4.51,5.43,13.29,13.29,0,0,0-.1,7.11,17.93,17.93,0,0,0,8.85,11,25.22,25.22,0,0,0,14.23,3.15A26,26,0,0,0,175.86,124a17.88,17.88,0,0,0,4.91-5.34A14.73,14.73,0,0,0,182.83,111.75Z"/><circle class="cls-3" cx="173.49" cy="107.79" r="2.68"/><circle class="cls-3" cx="150.31" cy="118.16" r="4.39"/></g></svg>