<svg xmlns="http://www.w3.org/2000/svg" viewBox="0 0 320 160"><defs><style>.cls-1{fill:blue;}.cls-2{fill:#0d0a09;}</style></defs><g id="Eyes"><path class="cls-1" d="M117.62,73.89s15.54.75,22.24,13.84c8.64,16.88,23.37,19.92,22.95,20.51-2,2.82-3.18,8.78-8.52,10.76a.76.76,0,0,0,.08,1.45c4.75,1.19,25.61-3.16,24.37-19.86-2.19-29.44,16-24.69,16-24.69"/><path class="cls-2" d="M117.63,73.58a31.9,31.9,0,0,1,9,1.89A27.9,27.9,0,0,1,134.71,80a24.47,24.47,0,0,1,6,7.21,42.46,42.46,0,0,0,5.14,7.19,39.3,39.3,0,0,0,14.05,10c.66.29,1.33.56,2,.82l1.07.41c.19.08.38.15.67.29l.28.16a1.67,1.67,0,0,1,.23.15l.15.12a2.37,2.37,0,0,1,.28.28,2,2,0,0,1,.38.6,2.29,2.29,0,0,1,.17,1.43,2.44,2.44,0,0,1-.41,1l0,0-.05.08c-.59.93-1.19,2.36-1.87,3.78a20.86,20.86,0,0,1-2.71,4.37,11.7,11.7,0,0,1-4.58,3.35l-.28.12a1.68,1.68,0,0,0,.54-.34,1.8,1.8,0,0,0,.58-1.18,1.81,1.81,0,0,0-.89-1.65,1.45,1.45,0,0,0-.29-.13l-.15,0h0a7.43,7.43,0,0,0,1.61.08,23.92,23.92,0,0,0,4-.54,28.42,28.42,0,0,0,7.75-2.92,17.88,17.88,0,0,0,5.94-5.22,13.42,13.42,0,0,0,2.36-7.33l-.06-4.48.06-2.34c.05-.79.09-1.57.16-2.36a30.94,30.94,0,0,1,2.24-9.28,14.4,14.4,0,0,1,6.42-7.24,12.4,12.4,0,0,1,4.65-1.26,12.53,12.53,0,0,1,4.68.48.31.31,0,0,1,.21.39.3.3,0,0,1-.33.22h0A12.23,12.23,0,0,0,186.44,78a12.49,12.49,0,0,0-4.73,6.66,29.43,29.43,0,0,0-1.27,8.47V95.3l.1,2.19c.09,1.5.27,2.83.35,4.61a18,18,0,0,1-2.69,9.85,21.87,21.87,0,0,1-7.33,6.94,31,31,0,0,1-9.14,3.6,25.78,25.78,0,0,1-5,.67,11.92,11.92,0,0,1-2.91-.23l-.12,0-.28-.09a2.94,2.94,0,0,1-.55-.25,3.24,3.24,0,0,1-.95-.82,3.39,3.39,0,0,1-.68-2.26,3.34,3.34,0,0,1,1.05-2.18,3.28,3.28,0,0,1,1-.64l.25-.1c2-.77,3.53-2.66,4.83-5.22a38,38,0,0,1,2.33-4.27l.1-.15,0,0c.15-.19-.19.12-.38.89a2.24,2.24,0,0,0,.15,1.36,1.81,1.81,0,0,0,.35.54,1.68,1.68,0,0,0,.22.23l.1.08.11.07,0,0a2.65,2.65,0,0,0-.36-.19l-1-.47q-1.07-.49-2.13-1a42.14,42.14,0,0,1-14.3-12.23,44.56,44.56,0,0,1-4.72-8,22.59,22.59,0,0,0-5.25-6.93,29.63,29.63,0,0,0-16.1-7h0a.31.31,0,0,1-.28-.34A.32.32,0,0,1,117.63,73.58Z"/><path class="cls-2" d="M161.79,89.35a24.11,24.11,0,0,1,3.77,6,16.28,16.28,0,0,1,1.28,7.29,18.74,18.74,0,0,1-2,7,23.18,23.18,0,0,1-4.12,5.78.5.5,0,0,1-.71,0,.51.51,0,0,1-.12-.57v0c.92-2.11,2-4.09,2.62-6.18a22.88,22.88,0,0,0,1.31-6.23,17.81,17.81,0,0,0-.79-6.21c-.59-2.07-1.56-4.07-2.39-6.27a.66.66,0,0,1,1.12-.65Z"/></g></svg>