<svg xmlns="http://www.w3.org/2000/svg" viewBox="0 0 640 320"><defs><style>.cls-1{fill:blue;}.cls-2{fill:#1d1d1b;}</style></defs><g id="Eyes"><path class="cls-1" d="M459.11,167.63s14.62,1.5,21.6-11.77c0,0,8.22,21.06-11.3,33.18,0,0,32.8,17.89,61.52-13.08,28.53-30.75-3.8-63.74-14.82-67.21,0,0,0-.06,0-.06,2.4,0,22.26.8,34.1,15,0,0-1.12-30.7-41.34-43s-74.07,34.52-74.07,34.52"/><path class="cls-2" d="M459.15,167.19a24,24,0,0,0,6.31-.6,22.63,22.63,0,0,0,5.9-2.25,22,22,0,0,0,2.64-1.7,20.14,20.14,0,0,0,2.3-2.12,22.29,22.29,0,0,0,3.57-5.1l1-1.82.7,1.92a32.7,32.7,0,0,1,1.92,9.64,29.45,29.45,0,0,1-1.14,9.81,26.63,26.63,0,0,1-4.66,8.82,32.33,32.33,0,0,1-7.46,6.6l-.08-2.74a38.22,38.22,0,0,0,5.16,2A51.85,51.85,0,0,0,492,192.2a46.72,46.72,0,0,0,21.37-5.54,53,53,0,0,0,9.17-6.28,60,60,0,0,0,7.85-7.93,41.89,41.89,0,0,0,5.86-9.18A33.65,33.65,0,0,0,539.05,153c.81-7-1-14.22-4.33-20.65A52.4,52.4,0,0,0,521,115.67a27.27,27.27,0,0,0-4.29-2.85c-.34-.15-.71-.36-1-.47l-.47-.18-.12,0a3.71,3.71,0,0,1-2.33-2.32,3.55,3.55,0,0,1,1.6-4.15c1.7-.75,2.23-.41,1.88-.49h0l.41,0c1.08,0,2.11.11,3.15.21a59.15,59.15,0,0,1,12.12,2.48,50.09,50.09,0,0,1,11.36,5.23,41.84,41.84,0,0,1,9.62,8.31l-6.19,2.38c0-.17,0-.57-.08-.89s-.07-.67-.13-1c-.1-.69-.24-1.38-.39-2.08a38,38,0,0,0-1.16-4.14,41.4,41.4,0,0,0-3.63-7.89,48.61,48.61,0,0,0-11.48-13.18,64.87,64.87,0,0,0-15.43-9c-5.63-2.33-11.3-4.14-17.23-4.47a49.17,49.17,0,0,0-17.69,2.23,71.54,71.54,0,0,0-16.58,7.6,111.68,111.68,0,0,0-14.8,11.11,119.49,119.49,0,0,0-13,13.37v0a.44.44,0,0,1-.7-.53,110.43,110.43,0,0,1,12.17-14.45c2.23-2.23,4.54-4.4,7-6.44s5-4,7.57-5.79a74.77,74.77,0,0,1,17-8.89,53.63,53.63,0,0,1,19.23-3.16c.83,0,1.65.11,2.47.16s1.65.08,2.46.23c1.62.28,3.28.46,4.87.9l2.4.59,2.32.71c1.54.45,3.06,1,4.58,1.58a67.43,67.43,0,0,1,17.16,9.35,53.37,53.37,0,0,1,13.39,14.64,48.45,48.45,0,0,1,4.36,9.06,46.19,46.19,0,0,1,1.45,4.86c.2.83.37,1.66.52,2.52.07.42.13.86.19,1.3s.1.84.14,1.45l.59,10.34-6.78-8a38,38,0,0,0-17.76-11.25,52.34,52.34,0,0,0-10.67-2.24c-.89-.09-1.8-.16-2.66-.19h-.36c-.39-.08.12.25,1.79-.48a3.48,3.48,0,0,0,1.57-4.07,3.65,3.65,0,0,0-2.26-2.27l.22.08.89.33c.59.23,1.08.5,1.62.75a35.22,35.22,0,0,1,5.4,3.6,55.45,55.45,0,0,1,8.73,8.8,57.4,57.4,0,0,1,6.68,10.4,46.21,46.21,0,0,1,4.08,11.8,38.24,38.24,0,0,1,.41,12.63,38.68,38.68,0,0,1-3.71,12,48.14,48.14,0,0,1-7,10.19,65.4,65.4,0,0,1-8.81,8.33,58,58,0,0,1-10.25,6.53A51,51,0,0,1,492,196.15,54.43,54.43,0,0,1,480,194.6a52.27,52.27,0,0,1-5.76-1.73,42.5,42.5,0,0,1-5.59-2.44l-2.45-1.31,2.37-1.42a29.35,29.35,0,0,0,6.95-5.73A23.66,23.66,0,0,0,480,174.2a26.85,26.85,0,0,0,1.34-9,30.76,30.76,0,0,0-1.47-9l1.72.1a24,24,0,0,1-4.08,5.37,24.36,24.36,0,0,1-2.57,2.19,25.51,25.51,0,0,1-2.89,1.71,24.14,24.14,0,0,1-6.32,2.12,24.9,24.9,0,0,1-6.63.37.42.42,0,0,1-.39-.47.43.43,0,0,1,.45-.4Z"/><path class="cls-1" d="M189.16,167.63s-14.62,1.5-21.6-11.77c0,0-8.22,21.06,11.3,33.18,0,0-32.8,17.89-61.52-13.08-28.53-30.75,3.8-63.74,14.82-67.21,0,0,0-.06,0-.06-2.4,0-22.26.8-34.1,15,0,0,1.12-30.7,41.33-43s74.08,34.52,74.08,34.52"/><path class="cls-2" d="M189.2,168.06a24.94,24.94,0,0,1-6.63-.37,24.07,24.07,0,0,1-6.31-2.12,25.51,25.51,0,0,1-2.89-1.71,22.5,22.5,0,0,1-2.57-2.19,24,24,0,0,1-4.08-5.37l1.72-.1a31.1,31.1,0,0,0-1.48,9,27.12,27.12,0,0,0,1.35,9,23.66,23.66,0,0,0,4.44,7.77,29.3,29.3,0,0,0,6.94,5.73l2.38,1.42-2.45,1.31a42.5,42.5,0,0,1-5.59,2.44,52.93,52.93,0,0,1-5.76,1.73,54.51,54.51,0,0,1-12,1.55,51,51,0,0,1-23.52-5.28,58,58,0,0,1-10.25-6.53,65.4,65.4,0,0,1-8.81-8.33,48.14,48.14,0,0,1-7-10.19,38.3,38.3,0,0,1-3.31-24.66,46.23,46.23,0,0,1,4.09-11.8,57.35,57.35,0,0,1,6.67-10.4,55.94,55.94,0,0,1,8.74-8.8,35.22,35.22,0,0,1,5.4-3.6c.54-.25,1-.52,1.62-.75l.89-.33.22-.08a3.63,3.63,0,0,0-2.26,2.27,3.48,3.48,0,0,0,1.57,4.07c1.67.73,2.17.4,1.79.48h-.36c-.86,0-1.77.1-2.67.19a52.38,52.38,0,0,0-10.66,2.24,37.94,37.94,0,0,0-17.76,11.25l-6.78,8,.59-10.34c0-.61.08-1,.14-1.45s.12-.88.19-1.3c.14-.86.32-1.69.52-2.52a43.92,43.92,0,0,1,1.45-4.86,48.45,48.45,0,0,1,4.36-9.06A53.06,53.06,0,0,1,114.59,89.7a67.43,67.43,0,0,1,17.16-9.35c1.52-.54,3-1.13,4.58-1.58l2.32-.71,2.4-.59c1.59-.44,3.24-.62,4.87-.9.81-.15,1.64-.15,2.46-.23s1.64-.17,2.47-.16a53.67,53.67,0,0,1,19.23,3.16,74.77,74.77,0,0,1,17,8.89c2.61,1.82,5.14,3.75,7.56,5.79s4.73,4.21,7,6.44a109.73,109.73,0,0,1,12.18,14.45.44.44,0,0,1-.11.61.45.45,0,0,1-.59-.08v0a119.49,119.49,0,0,0-13-13.37,111.68,111.68,0,0,0-14.8-11.11,71.54,71.54,0,0,0-16.58-7.6,49.2,49.2,0,0,0-17.69-2.23c-5.93.33-11.61,2.14-17.24,4.47a64.8,64.8,0,0,0-15.42,9,48.65,48.65,0,0,0-11.49,13.18,42,42,0,0,0-3.62,7.89,38,38,0,0,0-1.16,4.14c-.15.7-.29,1.39-.39,2.08-.06.35-.1.69-.14,1s-.06.72-.07.89l-6.19-2.38A41.64,41.64,0,0,1,105,113.1a50.09,50.09,0,0,1,11.36-5.23,59.15,59.15,0,0,1,12.12-2.48c1-.1,2.07-.18,3.15-.21l.41,0h.05c-.36.08.18-.26,1.88.49a3.55,3.55,0,0,1,1.6,4.15,3.71,3.71,0,0,1-2.33,2.32l-.12,0-.47.18c-.32.11-.69.32-1,.47a27.27,27.27,0,0,0-4.29,2.85,52.4,52.4,0,0,0-13.75,16.72c-3.3,6.43-5.14,13.6-4.33,20.65a33.65,33.65,0,0,0,2.85,10.23,41.89,41.89,0,0,0,5.86,9.18,59.4,59.4,0,0,0,7.85,7.93,53,53,0,0,0,9.17,6.28,46.72,46.72,0,0,0,21.37,5.54,51.85,51.85,0,0,0,16.62-2.51,38.22,38.22,0,0,0,5.16-2l-.08,2.74a32.33,32.33,0,0,1-7.46-6.6A26.27,26.27,0,0,1,165.9,175a29.45,29.45,0,0,1-1.14-9.81,32.7,32.7,0,0,1,1.92-9.64l.7-1.92,1,1.82a22.64,22.64,0,0,0,3.58,5.1,20.14,20.14,0,0,0,2.3,2.12,22.56,22.56,0,0,0,8.54,4,24,24,0,0,0,6.31.6h0a.44.44,0,0,1,0,.87Z"/></g></svg>