<svg xmlns="http://www.w3.org/2000/svg" viewBox="0 0 320 160"><defs><style>.cls-1{fill:red;}.cls-2{fill:#0d0a09;}.cls-3{fill:#fff;}</style></defs><g id="Eyes"><path class="cls-1" d="M192.5,116.71C192.5,131.77,178,144,160,144s-32.5-12.21-32.5-27.27S142.05,97.23,160,97.23,192.5,101.65,192.5,116.71Z"/><path class="cls-2" d="M194.55,116.71a25.63,25.63,0,0,1-2.56,11.9,31,31,0,0,1-7.38,9.71,36.29,36.29,0,0,1-22.27,8.82,39.08,39.08,0,0,1-12-1.18,37.13,37.13,0,0,1-11.12-4.85,31.6,31.6,0,0,1-8.8-8.41,27,27,0,0,1-4.63-11.28A22.57,22.57,0,0,1,127,109.28l.29-.72.39-.69.8-1.35c.28-.44.64-.83,1-1.24a10.51,10.51,0,0,1,1-1.17,18.39,18.39,0,0,1,2.35-2l1.24-.87,1.32-.71a35,35,0,0,1,11.09-3.47,74.94,74.94,0,0,1,11.36-.88c1.89,0,3.77,0,5.66.07s3.78.19,5.67.37a52.59,52.59,0,0,1,11.27,2.19c.94.26,1.82.7,2.74,1s1.77.9,2.66,1.36c.42.26.83.56,1.25.85a9,9,0,0,1,1.22.91,15.56,15.56,0,0,1,2.18,2.19c.32.41.66.81,1,1.23l.79,1.35a15.88,15.88,0,0,1,1.27,2.86,29,29,0,0,1,.76,3C194.39,114.67,194.46,115.69,194.55,116.71Zm-4.1,0a14.74,14.74,0,0,0-2.66-9.42,13.88,13.88,0,0,0-1.63-1.9,7.7,7.7,0,0,0-1-.84c-.34-.27-.66-.55-1-.81-.75-.44-1.45-1-2.24-1.36a24.09,24.09,0,0,0-2.42-1.12,41.47,41.47,0,0,0-10.6-2.55,73,73,0,0,0-11.07-.39,70.12,70.12,0,0,0-11,1.17,31.72,31.72,0,0,0-10.05,3.65,14.22,14.22,0,0,0-6.39,7.52,18.66,18.66,0,0,0-.33,9.93,22.28,22.28,0,0,0,4.41,9,28.43,28.43,0,0,0,7.72,6.55A36.33,36.33,0,0,0,181,134a25.11,25.11,0,0,0,6.71-7.55A21.27,21.27,0,0,0,190.45,116.71Z"/><circle class="cls-3" cx="179.36" cy="107.79" r="2.68"/><circle class="cls-3" cx="139.49" cy="114.65" r="4.39"/><path class="cls-2" d="M156.75,142.69l2-24.41a1.21,1.21,0,0,1,2.42,0l2,24.41a3.26,3.26,0,1,1-6.5.54A4.86,4.86,0,0,1,156.75,142.69Z"/></g></svg>