<svg xmlns="http://www.w3.org/2000/svg" viewBox="0 0 640 160"><defs><style>.cls-1{fill:#000050;}.cls-2{fill:#0d0a09;}</style></defs><g id="Kitchen_Sink" data-name="Kitchen Sink"><path class="cls-1" d="M370.79,12.69H195.25c0,15.84,13.29,28.84,24.19,38.12C233,62.35,252.31,67.29,269.25,67.29c6.89,0,16.5-2.81,25.52-6.16a74,74,0,0,1,50.49,0c9,3.35,18.64,6.16,25.52,6.16,16.94,0,36.24-4.94,49.81-16.48,10.9-9.28,24.2-22.28,24.2-38.12Z"/><path class="cls-2" d="M370.78,70.54c-6.33,0-15.29-2.14-26.65-6.37a71.09,71.09,0,0,0-48.23,0c-11.35,4.23-20.32,6.37-26.65,6.37-20.1,0-39-6.29-51.91-17.26C205.54,43.25,192,29.56,192,12.69V9.44H448v3.25c0,16.87-13.55,30.56-25.34,40.59C409.8,64.25,390.88,70.54,370.78,70.54ZM320,53.47a76.19,76.19,0,0,1,26.38,4.61c10.48,3.9,18.91,6,24.38,6,18.31,0,36.14-5.87,47.71-15.71,9.9-8.43,21.16-19.55,22.83-32.39H198.71c1.68,12.84,12.93,24,22.84,32.39C233.11,58.17,251,64,269.25,64c5.48,0,13.91-2.06,24.38-6A76.21,76.21,0,0,1,320,53.47Z"/></g></svg>