<svg xmlns="http://www.w3.org/2000/svg" viewBox="0 0 640 320"><defs><style>.cls-1{fill:blue;}.cls-2{fill:#0d0a09;}</style></defs><g id="top-shape"><path class="cls-1" d="M320,29.08c-108.4,0-196.28,87.87-196.28,196.28,0,83.4,51.66,46.44,125.37,37.37,32.44-4,45.91,12.32,70.91,12.32s38.47-16.32,70.91-12.32c73.71,9.07,125.37,46,125.37-37.37C516.28,117,428.4,29.08,320,29.08Z"/><path class="cls-2" d="M481.12,282c-12.21,0-26.85-3.32-43.49-7.09-14.13-3.21-30.15-6.84-47.12-8.93-17.72-2.18-29.62,2-41.13,6-8.89,3.11-18.07,6.33-29.38,6.33s-20.49-3.22-29.38-6.33c-11.51-4-23.41-8.2-41.13-6-17,2.09-33,5.72-47.12,8.93-29.17,6.61-52.22,11.84-66.78.21-10.32-8.24-15.12-24-15.12-49.73,0-110,89.51-199.53,199.53-199.53s199.53,89.51,199.53,199.53c0,25.69-4.8,41.49-15.12,49.73C498.15,280.09,490.33,282,481.12,282ZM380.84,258.84a85,85,0,0,1,10.47.66c17.29,2.13,33.47,5.8,47.75,9,27.48,6.23,49.17,11.15,61.3,1.47,8.53-6.81,12.67-21.42,12.67-44.65,0-106.44-86.59-193-193-193s-193,86.59-193,193c0,23.23,4.14,37.84,12.67,44.65,12.13,9.68,33.82,4.76,61.3-1.47,14.28-3.24,30.46-6.91,47.75-9,19.23-2.37,31.87,2.06,44.08,6.34,8.76,3.06,17,6,27.23,6s18.47-2.9,27.23-6C357.08,262.39,367.2,258.84,380.84,258.84Z"/></g></svg>