<svg xmlns="http://www.w3.org/2000/svg" viewBox="0 0 640 160"><defs><style>.cls-1{fill:#1d1d1b;}</style></defs><g id="Eyes"><path class="cls-1" d="M157.84,75.58c9.49-1.37,19-2.17,28.5-2.75,4.76-.33,9.52-.47,14.28-.68s9.53-.23,14.3-.3,9.53,0,14.29.06,9.53.19,14.3.47c9.52.4,19,1.14,28.52,2.31a2,2,0,0,1-.15,4.08h0c-9.51.45-19,.57-28.46.74L215,79.85,186.56,80c-9.48,0-19,0-28.46-.31h0a2,2,0,0,1-.24-4.07Z"/><path class="cls-1" d="M377.45,59.73a56.47,56.47,0,0,1,5.33-6.29,76.69,76.69,0,0,1,6-5.57,79,79,0,0,1,13.56-9.18,75.87,75.87,0,0,1,31.59-9.08,81.47,81.47,0,0,1,32.43,4.81A103.52,103.52,0,0,1,494.64,49.9a2,2,0,0,1-2.23,3.41,144.74,144.74,0,0,0-28.28-12.1c-2.42-.78-4.9-1.28-7.34-1.89-1.23-.31-2.48-.45-3.72-.69s-2.47-.45-3.72-.54-2.49-.29-3.73-.43l-3.75-.19c-1.25-.11-2.5,0-3.74,0l-1.88,0c-.62,0-1.24.09-1.86.13-1.24.1-2.49.11-3.73.29l-3.71.48-3.67.7c-1.22.25-2.42.6-3.64.87a82.5,82.5,0,0,0-14.12,5.12,90,90,0,0,0-13.13,7.59c-2.12,1.41-4.12,3-6.11,4.58-1,.81-2,1.64-2.9,2.49s-1.92,1.73-2.74,2.56l-.08.08a2,2,0,0,1-2.88,0A2,2,0,0,1,377.45,59.73Z"/></g></svg>