<svg xmlns="http://www.w3.org/2000/svg" viewBox="0 0 640 320"><defs><style>.cls-1{fill:red;}.cls-2{fill:#0d0a09;}</style></defs><g id="Kitchen_Sink" data-name="Kitchen Sink"><path class="cls-1" d="M289.29,263.64S280.9,247,254,248.77s-21.77,12.65-52.26,7.37-19.14-28.42-19.14-28.42S160.33,260,205.08,282,297.82,292.35,289.29,263.64Z"/><path class="cls-2" d="M251.94,296.77c-15.15,0-32.4-4-48.3-11.81S178,267,174.87,255c-4.08-15.65,4.64-28.54,5-29.08l5.6,3.27c0,.07-3.66,7.76-.32,14.24,2.47,4.8,8.22,8,17.09,9.55,16.75,2.9,21.92.74,28.47-2a63,63,0,0,1,23-5.42c28.76-1.89,38.07,15.89,38.45,16.65l.13.26.08.27c2.81,9.45.3,18.08-7.07,24.29C277.59,293.53,265.62,296.77,251.94,296.77ZM180.34,248a26.74,26.74,0,0,0,.83,5.38c2.66,10.08,11.18,18.74,25.35,25.73,30.83,15.21,62.15,13.42,74.62,2.91,5.34-4.51,7.06-10.28,5.12-17.15C285.14,263,277,250.52,254.17,252A56.39,56.39,0,0,0,233.22,257c-7.23,3-13.47,5.61-32.08,2.39C191.08,257.6,184.1,253.8,180.34,248Z"/><path class="cls-1" d="M337.41,263.64s8.39-16.63,35.33-14.87,21.77,12.65,52.26,7.37,19.14-28.42,19.14-28.42S466.37,260,421.62,282,328.88,292.35,337.41,263.64Z"/><path class="cls-2" d="M374.76,296.77c-13.68,0-25.65-3.24-33.39-9.77-7.37-6.21-9.88-14.84-7.07-24.29l.08-.27.13-.26c.38-.76,9.67-18.53,38.45-16.65A62.9,62.9,0,0,1,396,251c6.56,2.73,11.74,4.89,28.48,2,8.87-1.54,14.62-4.75,17.09-9.55,3.34-6.48-.29-14.17-.32-14.25l5.59-3.26c.38.54,9.09,13.43,5,29.08-3.12,12-12.8,22.12-28.78,30S389.91,296.77,374.76,296.77Zm-34.33-31.88c-1.93,6.87-.21,12.64,5.13,17.15,12.46,10.51,43.78,12.3,74.62-2.91,14.16-7,22.69-15.65,25.34-25.73a26.08,26.08,0,0,0,.84-5.38c-3.76,5.78-10.74,9.58-20.8,11.32C407,262.56,400.7,260,393.48,257a56.39,56.39,0,0,0-21-4.93C349.67,250.51,341.56,262.94,340.43,264.89Z"/></g></svg>