<svg xmlns="http://www.w3.org/2000/svg" viewBox="0 0 320 160"><defs><style>.cls-1{fill:red;}.cls-2{fill:#0d0a09;}</style></defs><g id="Eyes"><path class="cls-1" d="M190.57,76.47c-20.94,5.67-28.68-1.25-30.57,6.61-1.89-7.86-9.63-.94-30.57-6.61-5.91-1.59-9.16,6.52-3.79,9.46,10.69,5.86,22.9,8.82,34.1,10.15v.06l.26,0,.26,0v-.06c11.2-1.33,23.41-4.29,34.1-10.15C199.73,83,196.48,74.88,190.57,76.47Z"/><path class="cls-2" d="M158.31,97.81v-.4c-12.86-1.65-24.08-5.07-33.38-10.16A6.62,6.62,0,0,1,129.82,75a69.74,69.74,0,0,0,21,2.43c4.08,0,7.32-.08,9.23,2.16,1.91-2.24,5.15-2.2,9.23-2.16a69.74,69.74,0,0,0,21-2.43h0a6.62,6.62,0,0,1,4.9,12.22c-9.3,5.09-20.52,8.51-33.38,10.16v.34L160,97.62Zm-30.38-20a3.64,3.64,0,0,0-1.57,6.85c9.26,5.07,20.55,8.43,33.56,10h.16c13-1.54,24.3-4.9,33.56-10a3.63,3.63,0,0,0-2.68-6.7h0a73.28,73.28,0,0,1-21.76,2.54c-5.95-.06-7.06.15-7.74,3L160,89.49l-1.46-6.06c-.68-2.82-1.79-3-7.74-3A73.31,73.31,0,0,1,129,77.92,4.6,4.6,0,0,0,127.93,77.77Z"/></g></svg>