<svg xmlns="http://www.w3.org/2000/svg" viewBox="0 0 640 160"><defs><style>.cls-1{fill:#1d1d1b;}</style></defs><g id="Eyes"><path class="cls-1" d="M244.94,69.23a156.32,156.32,0,0,0-18.48-1.15,105.74,105.74,0,0,0-18.19,1.49,74.79,74.79,0,0,0-8.8,2c-1.46.38-2.86.89-4.29,1.36s-2.82,1-4.18,1.66a75.21,75.21,0,0,0-15.66,9.23l0,0a2.06,2.06,0,0,1-2.84-2.93,49.57,49.57,0,0,1,15.41-12.75,55.23,55.23,0,0,1,9.27-4c1.58-.57,3.22-1,4.84-1.44s3.27-.75,4.92-1A76.33,76.33,0,0,1,226.79,61a81.65,81.65,0,0,1,9.77,1.49,60.26,60.26,0,0,1,9.51,2.87,2.05,2.05,0,0,1-1,3.94Z"/><path class="cls-1" d="M393.93,65.31a60.26,60.26,0,0,1,9.51-2.87A81.65,81.65,0,0,1,413.21,61a76.33,76.33,0,0,1,19.89.74c1.65.27,3.29.65,4.92,1s3.26.87,4.84,1.44a55.23,55.23,0,0,1,9.27,4,49.57,49.57,0,0,1,15.41,12.75,2.06,2.06,0,0,1-2.84,2.93l0,0A75.21,75.21,0,0,0,449,74.6c-1.36-.62-2.79-1.1-4.18-1.66s-2.83-1-4.29-1.36a74.79,74.79,0,0,0-8.8-2,105.74,105.74,0,0,0-18.19-1.49,156.32,156.32,0,0,0-18.48,1.15H395a2,2,0,0,1-1-3.93Z"/></g></svg>