<svg xmlns="http://www.w3.org/2000/svg" viewBox="0 0 640 160"><defs><style>.cls-1{fill:#1d1d1b;}</style></defs><g id="Eyes"><path class="cls-1" d="M481.9,79.65c-9.48.26-19,.31-28.46.31L425,79.85l-28.42-.34c-9.48-.17-19-.29-28.46-.74h0a2,2,0,0,1-.15-4.08c9.48-1.17,19-1.91,28.52-2.31,4.77-.28,9.53-.32,14.3-.47s9.53-.08,14.29-.06,9.53.16,14.3.3,9.52.35,14.28.68c9.52.58,19,1.38,28.5,2.75a2,2,0,0,1-.24,4.07Z"/><path class="cls-1" d="M157.84,75.58c9.49-1.37,19-2.17,28.5-2.75,4.76-.33,9.52-.47,14.28-.68s9.53-.23,14.3-.3,9.53,0,14.29.06,9.53.19,14.3.47c9.52.4,19,1.14,28.52,2.31a2,2,0,0,1-.15,4.08h0c-9.51.45-19,.57-28.46.74L215,79.85,186.56,80c-9.48,0-19,0-28.46-.31h0a2,2,0,0,1-.24-4.07Z"/></g></svg>