<svg xmlns="http://www.w3.org/2000/svg" viewBox="0 0 640 320"><defs><style>.cls-1{fill:#d4ccc5;}.cls-2{fill:#0d0a09;}</style></defs><g id="jaw-shape"><path class="cls-1" d="M432.45,79c0,66.13,11.5,123.64-28.08,148.66-13.84,8.75-68.28,13-84.37,13s-70.53-4.21-84.37-13c-39.58-25-28.08-82.53-28.08-148.66Z"/><path class="cls-2" d="M320,243.33c-15.58,0-71-4-85.82-13.38-33.33-21.08-31.86-64.26-30.16-114.27.41-11.85.82-24.1.82-36.68h5.42c0,12.67-.41,25-.82,36.87-1.71,50.33-3.07,90.08,27.64,109.5,13,8.23,66.71,12.54,82.92,12.54s69.9-4.31,82.92-12.54c30.71-19.42,29.35-59.17,27.64-109.5-.41-11.9-.82-24.2-.82-36.87h5.42c0,12.58.41,24.83.82,36.68,1.7,50,3.17,93.19-30.16,114.27C391,239.31,335.58,243.33,320,243.33Z"/></g></svg>