<svg xmlns="http://www.w3.org/2000/svg" viewBox="0 0 640 320"><defs><style>.cls-1{fill:#1d1d1b;}.cls-2{fill:red;}.cls-3{fill:#500000;}.cls-4{fill:#b4c516;}</style></defs><g id="Kitchen_Sink" data-name="Kitchen Sink"><path class="cls-1" d="M360.42,187.85c-2.7,4-6.47,6.56-10.27,8.65a56.94,56.94,0,0,1-12,4.66,102,102,0,0,1-25,3.21c-4.18,0-8.37-.08-12.57-.47a97.08,97.08,0,0,1-12.56-2,48.45,48.45,0,0,1-12.29-4.42,26.28,26.28,0,0,1-2.87-1.79,22.83,22.83,0,0,1-2.68-2.16,17.42,17.42,0,0,1-4.19-5.75,2.53,2.53,0,0,1,4-2.87l.18.17a30.25,30.25,0,0,0,4.18,3.05c.4.21.78.43,1.15.66s.81.41,1.2.62c.79.41,1.64.77,2.46,1.16a62.14,62.14,0,0,0,10.68,3.64,108.94,108.94,0,0,0,23.29,2.61c3.94,0,7.89,0,11.8-.41a95,95,0,0,0,11.58-1.71,56,56,0,0,0,11-3.5,24.6,24.6,0,0,0,8.79-6.2l.1-.11a2.5,2.5,0,0,1,4,3Z"/><path class="cls-2" d="M288.65,198c4.24-6.67,31.13-28.26,24.16-55.49-5.3-20.71-11.92-30.66-14.78-34.24a2.34,2.34,0,0,1,.27-3.23c5.44-4.8,23.22-18.32,43.29-10.44A2.21,2.21,0,0,1,343,97.12c-2,8.84-10.46,47.75-7.23,61,3.66,14.94,13.77,35.42,13.77,35.42s-19.72,7.47-33,7.08A264.45,264.45,0,0,1,288.65,198Z"/><path class="cls-1" d="M317.49,203.11l-1.09,0a269.81,269.81,0,0,1-28.13-2.65l-3.78-.59,2.05-3.23a51.86,51.86,0,0,1,4.78-5.73c8.52-9.46,24.37-27.07,19.07-47.79-5.24-20.46-11.76-30.1-14.32-33.3a4.84,4.84,0,0,1,.57-6.66C302,98.45,321,83.8,342.51,92.24a4.7,4.7,0,0,1,2.89,5.43c-1.76,7.75-10.36,47.06-7.24,59.82,3.55,14.51,13.48,34.71,13.58,34.91l1.22,2.47-2.58,1C349.58,196.15,331.06,203.11,317.49,203.11Zm-24.12-7c5.27.68,14.53,1.74,23.17,2,9.87.29,23.81-4.06,29.5-6-2.83-6-9.78-21.31-12.74-33.4-3.27-13.41,4.58-50.42,7.16-61.87-18.64-7.16-35.47,5.67-40.39,10,3.45,4.35,9.93,14.62,15.16,35.07,6,23.32-11.05,42.22-20.2,52.38C294.45,194.89,293.88,195.51,293.37,196.1Z"/><path class="cls-3" d="M297.67,106.25s5.33,7.86,23.08,4.9,21.74-15.33,21.74-15.33-8.46-7.26-24.9-1.88S297.67,106.25,297.67,106.25Z"/><path class="cls-1" d="M313.27,114.31c-13,0-17.45-6.34-17.67-6.66a2.5,2.5,0,0,1-.16-2.53c.4-.8,4.44-8,21.38-13.55,17.57-5.75,26.91,2,27.3,2.35a2.52,2.52,0,0,1,.75,2.67c-.18.56-4.67,13.86-23.71,17A47.61,47.61,0,0,1,313.27,114.31ZM301,106c2.26,1.75,7.88,4.58,19.37,2.67,12.2-2,17.25-8.78,19-12-2.89-1.56-9.86-4-21-.42C307.73,99.8,302.89,103.91,301,106Z"/><path class="cls-4" d="M336,140.73c-.5-.75-4.25-55.19,75.49-53.22s100,48,100,48-14,19.5-70,15S336,140.73,336,140.73Z"/><path class="cls-1" d="M334.75,142.87a3,3,0,0,1-1.2-1.84c-.05-.24,0-.13,0-.19v-.22c0-.18-.05-.4-.06-.55,0-.33,0-.67,0-1,0-.63,0-1.25,0-1.87,0-1.23.14-2.44.27-3.65a49.27,49.27,0,0,1,1.36-7.13,52.5,52.5,0,0,1,2.35-6.87,50.55,50.55,0,0,1,3.37-6.44,49.05,49.05,0,0,1,9.35-11,57.9,57.9,0,0,1,12-8c8.56-4.36,17.88-6.66,27.18-7.93a151,151,0,0,1,28-.87A177,177,0,0,1,445,88.83a134.2,134.2,0,0,1,26.7,8.7,103.5,103.5,0,0,1,23.94,14.91,84.42,84.42,0,0,1,10.08,10,67,67,0,0,1,4.35,5.67c.68,1,1.33,2,2,3s1.19,2.05,1.78,3.31h0l.61,1.24-.86,1.22c-.24.33-.41.54-.59.75s-.36.44-.54.62c-.36.38-.72.8-1.1,1.13l-1.14,1.05-1.18,1c-.78.66-1.61,1.21-2.43,1.78s-1.68,1.08-2.54,1.58c-1.7,1.06-3.5,1.83-5.27,2.73L496,148.65c-.91.36-1.81.75-2.75,1a99.06,99.06,0,0,1-22.7,4.78l-1.43.18-1.44.1-2.87.19c-1.92.1-3.84.29-5.75.26-3.83,0-7.67.14-11.47-.1l-5.72-.24c-1.9-.09-3.75-.26-5.62-.38l-11.21-.83c-7.47-.54-14.94-1.16-22.4-1.81s-14.93-1.27-22.38-2q-5.6-.56-11.17-1.25l-5.58-.69-5.56-.77q-2.79-.37-5.57-.83c-1.85-.31-3.7-.57-5.55-.91s-3.7-.63-5.55-1l-2.76-.54-1.39-.29-.69-.15h-.08l-.18,0a4.59,4.59,0,0,1-.51-.1A5.63,5.63,0,0,1,334.75,142.87Zm2.59-4.28a.84.84,0,0,0-.26-.27l-.16-.07h2.2l2.82,0c1.88,0,3.75.09,5.62.14s3.74.14,5.61.21,3.75.17,5.61.28l5.61.32,5.59.4q5.59.38,11.18.88l44.67,4.16,11.16,1,5.57.5,5.49.4c3.66.35,7.31.33,11,.44,1.84.1,3.65-.05,5.47-.07l2.74,0,1.36,0,1.36-.1,5.43-.42,5.38-.73a89.32,89.32,0,0,0,10.54-2.24c.88-.21,1.71-.52,2.55-.8l2.54-.84c1.62-.7,3.31-1.28,4.85-2.11a25.57,25.57,0,0,0,2.32-1.23c.75-.44,1.52-.86,2.21-1.36l1.07-.72,1-.78c.35-.26.62-.54.93-.81a5.42,5.42,0,0,0,.42-.4l.31-.32-.25,2.46h0c-.39-.83-1-1.85-1.5-2.76s-1.16-1.86-1.79-2.77a62,62,0,0,0-4.05-5.27,79.66,79.66,0,0,0-9.48-9.43,98.82,98.82,0,0,0-22.78-14.18,130,130,0,0,0-25.7-8.36,171.58,171.58,0,0,0-27-3.47,144.9,144.9,0,0,0-27.09.83c-8.9,1.2-17.69,3.41-25.57,7.43a52.81,52.81,0,0,0-10.91,7.31A44.39,44.39,0,0,0,342,121.54a46.44,46.44,0,0,0-2.12,6.18,45.54,45.54,0,0,0-1.22,6.41c-.12,1.08-.21,2.17-.24,3.23q0,.81,0,1.59c0,.26,0,.49,0,.74a2.51,2.51,0,0,0,0,.31v.1s0,.12,0-.08A2.08,2.08,0,0,0,337.34,138.59Z"/><path class="cls-1" d="M337.1,140.05c.79-.81,1.48-1.42,2.23-2.07s1.49-1.26,2.25-1.85c1.52-1.19,3.07-2.33,4.67-3.38a98,98,0,0,1,9.88-5.78,119,119,0,0,1,21.2-8.21,139.07,139.07,0,0,1,22.2-4.31l2.8-.33,2.82-.21c1.87-.12,3.75-.33,5.63-.35l5.63-.17,5.63.06a192.7,192.7,0,0,1,22.4,1.82c7.43,1,14.77,2.45,22.06,4.09a304.37,304.37,0,0,1,42.63,13.55,304.32,304.32,0,0,0-42.9-12.33c-7.3-1.42-14.62-2.72-22-3.45A191.76,191.76,0,0,0,422,116l-5.55.09-5.53.33c-1.85.07-3.68.33-5.52.5l-2.76.28-2.73.4a134.33,134.33,0,0,0-21.53,4.8,114.92,114.92,0,0,0-20.23,8.49,92.37,92.37,0,0,0-9.25,5.77c-1.49,1-2.92,2.14-4.3,3.29-.69.57-1.37,1.16-2,1.75s-1.32,1.24-1.82,1.78Z"/></g></svg>