<svg xmlns="http://www.w3.org/2000/svg" viewBox="0 0 640 320"><defs><style>.cls-1{fill:#d4ccc5;}.cls-2{fill:#0d0a09;}</style></defs><g id="jaw-shape"><path class="cls-1" d="M481.62,79c0,66.13,16.53,116.64-40.35,141.66-19.9,8.75-98.14,20-121.27,20s-101.37-11.21-121.27-20c-56.88-25-40.35-75.53-40.35-141.66Z"/><path class="cls-2" d="M320,243.87c-24,0-102.82-11.55-122.57-20.24-47.92-21.08-46-59.52-43.5-108.2.59-11.65,1.2-23.7,1.2-36.43h6.5c0,12.89-.62,25-1.21,36.76-2.44,48-4.19,82.65,39.62,101.92,19.22,8.46,96.36,19.69,120,19.69s100.74-11.23,120-19.69c43.81-19.27,42.06-53.94,39.62-101.92C479,104,478.37,91.89,478.37,79h6.5c0,12.73.61,24.78,1.2,36.43,2.47,48.68,4.42,87.12-43.5,108.2C422.82,232.32,344,243.87,320,243.87Z"/></g></svg>