<svg xmlns="http://www.w3.org/2000/svg" viewBox="0 0 640 160"><defs><style>.cls-1{fill:#1d1d1b;}</style></defs><g id="Eyes"><path class="cls-1" d="M185.33,50.7a54.87,54.87,0,0,1,9.83.95A74.29,74.29,0,0,1,204.67,54a75.36,75.36,0,0,1,25.9,14.12c1.23,1.1,2.5,2.17,3.67,3.34.59.59,1.2,1.15,1.76,1.75l1.67,1.84a59.7,59.7,0,0,1,10.55,16.58,2.05,2.05,0,0,1-3.52,2l0,0A111.74,111.74,0,0,0,232.55,80c-2.21-2-4.49-4-6.87-5.83s-4.85-3.53-7.39-5.14a114.39,114.39,0,0,0-16.08-8.35c-2.8-1.18-5.65-2.28-8.55-3.27s-5.88-1.91-8.74-2.69l-.12,0a2,2,0,0,1,.53-4Z"/><path class="cls-1" d="M455.08,54.76c-2.86.78-5.87,1.68-8.74,2.69s-5.75,2.09-8.55,3.27a114.39,114.39,0,0,0-16.08,8.35q-3.81,2.42-7.39,5.14C411.94,76,409.66,78,407.45,80a111.74,111.74,0,0,0-12.12,13.64l0,0a2.06,2.06,0,0,1-3.53-2,59.7,59.7,0,0,1,10.55-16.58L404,73.24c.56-.6,1.17-1.16,1.76-1.75,1.17-1.17,2.44-2.24,3.67-3.34A75.36,75.36,0,0,1,435.33,54a74.29,74.29,0,0,1,9.51-2.38,54.87,54.87,0,0,1,9.83-.95,2,2,0,0,1,.54,4Z"/></g></svg>