<svg xmlns="http://www.w3.org/2000/svg" viewBox="0 0 640 160"><defs><style>.cls-1{fill:#fffade;}.cls-2{fill:#0d0a09;}</style></defs><g id="Kitchen_Sink" data-name="Kitchen Sink"><path class="cls-1" d="M230.32,76.74l-3.67-.42A10.91,10.91,0,0,1,217,65.14L213.2,37.38a8,8,0,0,1,7.94-9.1h19.7a8,8,0,0,1,8,8v24A16.61,16.61,0,0,1,230.32,76.74Z"/><path class="cls-2" d="M232.24,79.85a19.2,19.2,0,0,1-2.27-.13l-3.67-.42a14,14,0,0,1-12.3-14l-3.77-27.52a11,11,0,0,1,10.91-12.51h19.7a11,11,0,0,1,11,11v24a19.6,19.6,0,0,1-19.61,19.61Zm-11.1-48.57a5,5,0,0,0-5,5.7L220,65v.26a8,8,0,0,0,7,8.1l3.68.42a13.6,13.6,0,0,0,15.18-13.52v-24a5,5,0,0,0-5-5Z"/><path class="cls-1" d="M261.71,74l-4.11-.48a12.16,12.16,0,0,1-10.76-12.48l-4.26-31a9,9,0,0,1,8.87-10.17h22a9,9,0,0,1,9,9V55.58A18.56,18.56,0,0,1,261.71,74Z"/><path class="cls-2" d="M263.85,77.14a20.78,20.78,0,0,1-2.49-.14l-4.1-.48a15.27,15.27,0,0,1-13.43-15.29l-4.22-30.78a11.94,11.94,0,0,1,11.84-13.57h22a12,12,0,0,1,12,12V55.58a21.56,21.56,0,0,1-21.56,21.56Zm-1.8-6.1a15.56,15.56,0,0,0,17.36-15.46V28.83a6,6,0,0,0-6-5.95h-22a6,6,0,0,0-5.9,6.76l4.29,31.26v.25A9.24,9.24,0,0,0,258,70.56Z"/><path class="cls-1" d="M297.23,72.54,292.72,72a13.39,13.39,0,0,1-11.83-13.73l-4.68-34.1A9.83,9.83,0,0,1,286,13h24.2A9.84,9.84,0,0,1,320,22.86V52.27A20.41,20.41,0,0,1,297.23,72.54Z"/><path class="cls-2" d="M299.59,75.68a24.45,24.45,0,0,1-2.7-.16L292.37,75a16.5,16.5,0,0,1-14.49-16.54L273.24,24.6A12.83,12.83,0,0,1,286,10h24.2A12.85,12.85,0,0,1,323,22.86V52.27a23.41,23.41,0,0,1-23.41,23.41Zm-2-6.12A17.41,17.41,0,0,0,317,52.27V22.86A6.84,6.84,0,0,0,310.16,16H286a6.83,6.83,0,0,0-6.78,7.77l4.71,34.34v.25A10.46,10.46,0,0,0,293.07,69Z"/><path class="cls-1" d="M409.68,76.74l3.67-.42A10.91,10.91,0,0,0,423,65.14l3.81-27.76a8,8,0,0,0-7.94-9.1h-19.7a8,8,0,0,0-8,8v24A16.61,16.61,0,0,0,409.68,76.74Z"/><path class="cls-2" d="M407.77,79.85a19.6,19.6,0,0,1-19.62-19.61v-24a11,11,0,0,1,11-11h19.7a11,11,0,0,1,10.91,12.51L426,65.31a14,14,0,0,1-12.3,14l-3.67.42A19.15,19.15,0,0,1,407.77,79.85Zm-8.61-48.57a5,5,0,0,0-5,5v24a13.6,13.6,0,0,0,15.18,13.52l3.68-.42a8,8,0,0,0,7-8.1V65l0-.25L423.83,37a5,5,0,0,0-5-5.7Z"/><path class="cls-1" d="M378.29,74l4.11-.48a12.16,12.16,0,0,0,10.76-12.48l4.26-31a9,9,0,0,0-8.87-10.17h-22a9,9,0,0,0-9,9V55.58A18.56,18.56,0,0,0,378.29,74Z"/><path class="cls-2" d="M376.15,77.14a21.56,21.56,0,0,1-21.56-21.56V28.83a12,12,0,0,1,12-11.95h22a11.94,11.94,0,0,1,11.84,13.57l-4.22,30.78a15.27,15.27,0,0,1-13.43,15.29l-4.1.48A20.78,20.78,0,0,1,376.15,77.14Zm-9.61-54.26a6,6,0,0,0-6,5.95V55.58A15.56,15.56,0,0,0,378,71l4.1-.48a9.24,9.24,0,0,0,8.12-9.41V60.9l0-.25,4.26-31a6,6,0,0,0-5.9-6.76Z"/><path class="cls-1" d="M342.77,72.54l4.51-.52a13.41,13.41,0,0,0,11.84-13.73l4.67-34.1A9.83,9.83,0,0,0,354.05,13H329.84A9.84,9.84,0,0,0,320,22.86V52.27A20.41,20.41,0,0,0,342.77,72.54Z"/><path class="cls-2" d="M340.41,75.68A23.41,23.41,0,0,1,317,52.27V22.86A12.85,12.85,0,0,1,329.84,10H354A12.83,12.83,0,0,1,366.76,24.6l-4.64,33.86A16.5,16.5,0,0,1,347.62,75l-4.51.52A24.45,24.45,0,0,1,340.41,75.68ZM329.84,16A6.84,6.84,0,0,0,323,22.86V52.27a17.41,17.41,0,0,0,19.42,17.29l4.51-.52a10.46,10.46,0,0,0,9.19-10.66v-.25l0-.25,4.68-34.09A6.83,6.83,0,0,0,354,16Z"/></g></svg>