<svg xmlns="http://www.w3.org/2000/svg" viewBox="0 0 640 160"><defs><style>.cls-1{fill:#fffade;}.cls-2{fill:#0d0a09;}</style></defs><g id="Kitchen_Sink" data-name="Kitchen Sink"><path class="cls-1" d="M237.26,67.07c-6.39-5.69-11.42-11.19-8.71-23.46.88-3.94,4.34-7.74,9.32-10.1a35.34,35.34,0,0,1,14.79-3.46c17-.15,14,6.93,14,6.93S253.17,52.17,250.1,63.32C248.87,67.81,240.77,70.2,237.26,67.07Z"/><path class="cls-2" d="M236,68.5a38,38,0,0,1-6.45-7.21,20.1,20.1,0,0,1-3.19-9.46,31.19,31.19,0,0,1,0-4.93c.07-.81.19-1.62.29-2.42l.18-1.2a12,12,0,0,1,.31-1.32,17.66,17.66,0,0,1,1-2.51c.36-.83.78-1.61,1.2-2.43a24,24,0,0,1,3.06-4.66A13.6,13.6,0,0,1,236.75,29a22.25,22.25,0,0,1,4.9-1.71A37.31,37.31,0,0,1,252,26.87a65.78,65.78,0,0,1,10,1.23,13.15,13.15,0,0,1,5.36,2.55,7,7,0,0,1,2.13,3.19,6.49,6.49,0,0,1,.3,2,5.89,5.89,0,0,1-.11,1c0,.17-.07.34-.11.52l-.08.28c0,.11-.05.16-.15.39l-.16.41-.33.38c-2.46,2.79-5,5.67-7.33,8.69A86.06,86.06,0,0,0,255.21,57a41,41,0,0,0-2.4,5c-.15.42-.33.85-.45,1.27l-.2.63a7.83,7.83,0,0,1-.37,1,8.33,8.33,0,0,1-2.41,3A12.6,12.6,0,0,1,243,70.39a10.88,10.88,0,0,1-3.54-.17A7.73,7.73,0,0,1,236,68.5Zm2.54-2.85a5.21,5.21,0,0,0,4,.79,8.54,8.54,0,0,0,4.25-1.81,4.07,4.07,0,0,0,1.17-1.51,3.56,3.56,0,0,0,.13-.39l.22-.76c.14-.51.32-1,.48-1.49a45.56,45.56,0,0,1,2.43-5.62,90,90,0,0,1,6.19-10.23,114,114,0,0,1,7.13-9.56l-.5.79L264,36h0v0a.53.53,0,0,0,0-.13,1.57,1.57,0,0,0,0-.23,1.43,1.43,0,0,0-.43-.6,7.12,7.12,0,0,0-2.95-1.35,19.59,19.59,0,0,0-4.08-.56,25.08,25.08,0,0,0-4.33.2,31.32,31.32,0,0,0-7.92,2.53l-3.76,1.53a32.66,32.66,0,0,1-3.71,1.19A13.28,13.28,0,0,0,233,40.08a6.5,6.5,0,0,0-2.42,3,8.88,8.88,0,0,0-.32.91L230,45.1c-.18.71-.3,1.44-.41,2.16a19.49,19.49,0,0,0-.16,4.31,15.17,15.17,0,0,0,2.95,7.8A38.94,38.94,0,0,0,238.53,65.65Z"/><path class="cls-1" d="M263.59,69.46c-7.25-6.46-13-12.7-9.87-26.61,1-4.47,4.91-8.78,10.56-11.45a40,40,0,0,1,16.78-3.93c19.26-.17,15.87,7.86,15.87,7.86S281.64,52.56,278.16,65.2C276.76,70.3,267.57,73,263.59,69.46Z"/><path class="cls-2" d="M262.32,70.88a42.81,42.81,0,0,1-7.3-8.11,22.59,22.59,0,0,1-3.6-10.61,33.28,33.28,0,0,1,0-5.56c.07-.91.21-1.82.33-2.72l.21-1.35a12.12,12.12,0,0,1,.36-1.47,18.82,18.82,0,0,1,1.1-2.79c.42-.92.89-1.79,1.38-2.68a26.3,26.3,0,0,1,3.52-5.09,15.82,15.82,0,0,1,4.9-3.63,25.94,25.94,0,0,1,5.49-1.93,41.86,41.86,0,0,1,11.53-.65,68.16,68.16,0,0,1,11.23,1.34,14.53,14.53,0,0,1,5.92,2.81,7.59,7.59,0,0,1,2.3,3.44,6.89,6.89,0,0,1,.21,3.31c0,.18-.07.36-.12.55l-.09.3a4,4,0,0,1-.15.41l-.17.41-.33.38c-2.79,3.18-5.7,6.48-8.29,9.92a95.81,95.81,0,0,0-7.11,10.73A48.42,48.42,0,0,0,281,63.57c-.17.48-.37,1-.51,1.45l-.23.72a7.3,7.3,0,0,1-.4,1.07,9.23,9.23,0,0,1-2.65,3.31A14,14,0,0,1,270.05,73a11.83,11.83,0,0,1-3.92-.18A8.42,8.42,0,0,1,262.32,70.88ZM264.86,68a6.13,6.13,0,0,0,4.72,1,10,10,0,0,0,5-2.1A4.86,4.86,0,0,0,276,65.1a4,4,0,0,0,.17-.49l.24-.85c.16-.58.37-1.12.55-1.68a51.91,51.91,0,0,1,2.75-6.33,103.64,103.64,0,0,1,7-11.55,130,130,0,0,1,8.09-10.78l-.5.79c0,.14,0,.08,0,.1v-.1a1.48,1.48,0,0,0,0-.21,1.27,1.27,0,0,0-.06-.39,2.11,2.11,0,0,0-.6-.85,8.45,8.45,0,0,0-3.5-1.61,22.87,22.87,0,0,0-4.71-.65,30.2,30.2,0,0,0-4.94.18,36.19,36.19,0,0,0-9.14,2.73L267,35.16c-1.46.59-2.77,1-4.25,1.5a15.29,15.29,0,0,0-4.21,2,7.92,7.92,0,0,0-2.74,3.58c-.15.35-.24.69-.36,1.06l-.31,1.22c-.19.81-.33,1.64-.45,2.46a22.75,22.75,0,0,0-.18,4.94,17.44,17.44,0,0,0,3.37,9A43.65,43.65,0,0,0,264.86,68Z"/><path class="cls-1" d="M302.29,87.29c-10.25-4.61-18.8-9.75-21.51-29.76-.87-6.42,1.37-14.22,6.09-20.79a47.07,47.07,0,0,1,15.71-14.23c19.87-10.62,19.77,1.8,19.77,1.8s-8.54,31-6.78,49.51C316.27,81.29,307.91,89.81,302.29,87.29Z"/><path class="cls-2" d="M301.5,89c-4-1.89-8.25-4-11.72-7.3A30.35,30.35,0,0,1,282.22,70a54.8,54.8,0,0,1-2-6.58c-.27-1.1-.5-2.22-.71-3.33s-.44-2.19-.59-3.43a44.25,44.25,0,0,1,0-7.19,47.38,47.38,0,0,1,.9-7.31,22,22,0,0,1,2.69-7,35.27,35.27,0,0,1,4.43-5.73A43.88,43.88,0,0,1,298.58,21c2.17-1.13,4.29-2,6.44-3a43,43,0,0,1,6.91-2.24,17.2,17.2,0,0,1,3.94-.41,10.51,10.51,0,0,1,4.42.94,8.27,8.27,0,0,1,3.65,3.37,9.7,9.7,0,0,1,.92,2.2,9.31,9.31,0,0,1,.25,1.14c0,.19.05.38.07.59s0,.36,0,.71v.35l-.11.39c-1.54,5.66-3,11.45-4.26,17.25A177.18,177.18,0,0,0,318,59.83c-.29,2.92-.51,5.86-.53,8.76,0,1.45,0,2.9.12,4.33a17,17,0,0,1,.06,2.54,14.21,14.21,0,0,1-.45,2.62,17.64,17.64,0,0,1-5.42,8.47,13.56,13.56,0,0,1-4.52,2.65A7.93,7.93,0,0,1,301.5,89Zm1.57-3.48c1.68.79,4.23-.26,6.12-2a13.65,13.65,0,0,0,4-6.53,9.66,9.66,0,0,0,.27-1.81,14.19,14.19,0,0,0-.09-1.95c-.15-1.56-.2-3.11-.24-4.65,0-3.09.09-6.15.32-9.19.47-6.09,1.35-12.09,2.39-18.06s2.17-11.89,3.72-17.81l-.1.74c0,.07,0-.06,0-.12a2.08,2.08,0,0,0,0-.23,3.88,3.88,0,0,0-.11-.49,4,4,0,0,0-.36-.86,2.78,2.78,0,0,0-1.16-1.07,7.49,7.49,0,0,0-4.71-.16,23.72,23.72,0,0,0-5.66,2.05,31.63,31.63,0,0,0-5.33,3.23,49.17,49.17,0,0,0-8.45,8.79c-1.25,1.56-2.55,3.23-3.72,4.78s-2.42,3.09-3.63,4.73a21.73,21.73,0,0,0-3,5.38,15.66,15.66,0,0,0-.82,6.06c0,1,.18,2.11.32,3.17s.34,2.13.55,3.19a39.36,39.36,0,0,0,1.76,6.18,25.17,25.17,0,0,0,7,10.27A41.44,41.44,0,0,0,303.07,85.55Z"/><path class="cls-1" d="M402.74,67.07c6.39-5.69,11.42-11.19,8.71-23.46-.88-3.94-4.34-7.74-9.32-10.1a35.34,35.34,0,0,0-14.79-3.46c-17-.15-14,6.93-14,6.93s13.49,15.19,16.56,26.34C391.13,67.81,399.24,70.2,402.74,67.07Z"/><path class="cls-2" d="M401.47,65.65a38.94,38.94,0,0,0,6.18-6.28,15.17,15.17,0,0,0,3-7.8,18.91,18.91,0,0,0-.16-4.31c-.11-.72-.23-1.45-.41-2.16L409.75,44a7,7,0,0,0-.32-.91,6.5,6.5,0,0,0-2.42-3,13.28,13.28,0,0,0-3.76-1.57,31.88,31.88,0,0,1-3.7-1.19l-3.77-1.53a31.32,31.32,0,0,0-7.92-2.53,25.08,25.08,0,0,0-4.33-.2,19.59,19.59,0,0,0-4.08.56A7.12,7.12,0,0,0,376.5,35a1.43,1.43,0,0,0-.43.6,1.57,1.57,0,0,0,0,.23.53.53,0,0,0,0,.13v0h0l-.05-.12-.5-.79a114,114,0,0,1,7.13,9.56,90,90,0,0,1,6.19,10.23,45.56,45.56,0,0,1,2.43,5.62c.16.5.34,1,.48,1.49l.22.76a3.56,3.56,0,0,0,.13.39,4.07,4.07,0,0,0,1.17,1.51,8.54,8.54,0,0,0,4.25,1.81A5.21,5.21,0,0,0,401.47,65.65ZM404,68.5a7.73,7.73,0,0,1-3.46,1.72,10.88,10.88,0,0,1-3.54.17,12.6,12.6,0,0,1-6.39-2.55,8.33,8.33,0,0,1-2.41-3,7.83,7.83,0,0,1-.37-1l-.2-.63c-.12-.42-.3-.85-.45-1.27a41,41,0,0,0-2.4-5,86.06,86.06,0,0,0-6.27-9.42c-2.29-3-4.87-5.9-7.33-8.69l-.32-.38-.17-.41c-.1-.23-.11-.28-.15-.39l-.08-.28c0-.18-.08-.35-.11-.52a5,5,0,0,1-.1-1,6.2,6.2,0,0,1,.29-2,7,7,0,0,1,2.13-3.19A13.15,13.15,0,0,1,378,28.1a65.78,65.78,0,0,1,10-1.23,37.31,37.31,0,0,1,10.32.45,22.25,22.25,0,0,1,4.9,1.71,13.6,13.6,0,0,1,4.36,3.33A24,24,0,0,1,410.67,37c.42.82.84,1.6,1.2,2.43a17.66,17.66,0,0,1,1,2.51,12,12,0,0,1,.31,1.32l.18,1.2c.1.8.22,1.61.29,2.42a30,30,0,0,1,0,4.93,20.1,20.1,0,0,1-3.19,9.46A38,38,0,0,1,404,68.5Z"/><path class="cls-1" d="M376.41,69.46c7.25-6.46,13-12.7,9.87-26.61-1-4.47-4.91-8.78-10.56-11.45a40,40,0,0,0-16.78-3.93c-19.26-.17-15.87,7.86-15.87,7.86s15.29,17.23,18.77,29.87C363.24,70.3,372.43,73,376.41,69.46Z"/><path class="cls-2" d="M375.14,68a43.65,43.65,0,0,0,7-7.19,17.35,17.35,0,0,0,3.37-9,22.75,22.75,0,0,0-.18-4.94c-.12-.82-.25-1.65-.45-2.46l-.31-1.22c-.12-.37-.21-.71-.36-1.06a7.92,7.92,0,0,0-2.74-3.58,15.29,15.29,0,0,0-4.21-2c-1.48-.49-2.79-.91-4.25-1.5l-4.35-1.75a36.24,36.24,0,0,0-9.13-2.73,30.36,30.36,0,0,0-4.95-.18,22.87,22.87,0,0,0-4.71.65,8.45,8.45,0,0,0-3.5,1.61,2.11,2.11,0,0,0-.6.85,1.27,1.27,0,0,0-.06.39,1.48,1.48,0,0,0,0,.21v.1s0,0,0-.1l-.5-.79a130,130,0,0,1,8.09,10.78,103.64,103.64,0,0,1,7,11.55,51.91,51.91,0,0,1,2.75,6.33c.18.56.39,1.1.55,1.68l.24.85a4,4,0,0,0,.17.49,4.86,4.86,0,0,0,1.41,1.81,10,10,0,0,0,5,2.1A6.13,6.13,0,0,0,375.14,68Zm2.54,2.84a8.42,8.42,0,0,1-3.81,1.9A11.83,11.83,0,0,1,370,73a14,14,0,0,1-7.11-2.84,9.23,9.23,0,0,1-2.65-3.31,7.3,7.3,0,0,1-.4-1.07l-.23-.72c-.14-.49-.34-1-.51-1.45a48.42,48.42,0,0,0-2.73-5.68,95.81,95.81,0,0,0-7.11-10.73c-2.59-3.44-5.5-6.74-8.29-9.92l-.33-.38-.17-.41a4,4,0,0,1-.15-.41l-.09-.3c-.05-.19-.09-.37-.12-.55a6.89,6.89,0,0,1,.21-3.31,7.59,7.59,0,0,1,2.3-3.44,14.59,14.59,0,0,1,5.92-2.81,68.16,68.16,0,0,1,11.23-1.34,41.86,41.86,0,0,1,11.53.65,25.94,25.94,0,0,1,5.49,1.93,15.82,15.82,0,0,1,4.9,3.63,26.3,26.3,0,0,1,3.52,5.09c.49.89,1,1.76,1.38,2.68a20,20,0,0,1,1.11,2.79,14.3,14.3,0,0,1,.35,1.47l.21,1.35c.12.9.26,1.81.33,2.72a33.28,33.28,0,0,1,0,5.56A22.59,22.59,0,0,1,385,62.77,42.81,42.81,0,0,1,377.68,70.88Z"/><path class="cls-1" d="M337.71,87.29c10.25-4.61,18.8-9.75,21.51-29.76.87-6.42-1.37-14.22-6.09-20.79a47.07,47.07,0,0,0-15.71-14.23c-19.87-10.62-19.77,1.8-19.77,1.8s8.54,31,6.78,49.51C323.73,81.29,332.1,89.81,337.71,87.29Z"/><path class="cls-2" d="M336.93,85.55a41.28,41.28,0,0,0,11-6.36,25.17,25.17,0,0,0,7-10.27,39.36,39.36,0,0,0,1.76-6.18c.21-1.06.4-2.12.55-3.19s.28-2.19.32-3.17a15.66,15.66,0,0,0-.82-6.06,21.73,21.73,0,0,0-3-5.38c-1.21-1.64-2.45-3.19-3.63-4.73s-2.46-3.22-3.72-4.78a49.17,49.17,0,0,0-8.45-8.79,31.63,31.63,0,0,0-5.33-3.23,23.72,23.72,0,0,0-5.66-2.05,7.49,7.49,0,0,0-4.71.16A2.78,2.78,0,0,0,321,22.59a4,4,0,0,0-.36.86,3.88,3.88,0,0,0-.11.49,2.08,2.08,0,0,0,0,.23c0,.06,0,.19,0,.12l-.1-.74c1.55,5.92,2.68,11.83,3.72,17.81s1.92,12,2.39,18.06c.23,3,.37,6.1.32,9.19,0,1.54-.09,3.09-.24,4.65a14.19,14.19,0,0,0-.09,1.95,9.66,9.66,0,0,0,.27,1.81,13.59,13.59,0,0,0,4,6.53C332.7,85.29,335.25,86.34,336.93,85.55ZM338.5,89a7.93,7.93,0,0,1-5.8.17,13.66,13.66,0,0,1-4.52-2.65,17.64,17.64,0,0,1-5.42-8.47,14.21,14.21,0,0,1-.45-2.62,17,17,0,0,1,.06-2.54c.11-1.43.13-2.88.12-4.33,0-2.9-.24-5.84-.53-8.76a177.18,177.18,0,0,0-2.81-17.51c-1.22-5.8-2.72-11.59-4.26-17.25l-.11-.39v-.35c0-.35,0-.49,0-.71s0-.4.07-.59a11.63,11.63,0,0,1,.25-1.14,9.7,9.7,0,0,1,.92-2.2,8.27,8.27,0,0,1,3.65-3.37,10.54,10.54,0,0,1,4.42-.94,17.2,17.2,0,0,1,3.94.41A43,43,0,0,1,335,18c2.15.94,4.27,1.83,6.44,3a43.88,43.88,0,0,1,11.68,8.5,35.27,35.27,0,0,1,4.43,5.73,22,22,0,0,1,2.69,7,47.38,47.38,0,0,1,.9,7.31,44.25,44.25,0,0,1,0,7.19c-.15,1.24-.37,2.3-.59,3.43s-.44,2.23-.71,3.33a54.8,54.8,0,0,1-2,6.58,30.35,30.35,0,0,1-7.56,11.72C346.75,85,342.54,87.14,338.5,89Z"/></g></svg>