<svg xmlns="http://www.w3.org/2000/svg" viewBox="0 0 640 320"><defs><style>.cls-1{fill:blue;}.cls-2{fill:#0d0a09;}</style></defs><g id="jaw-shape"><path class="cls-1" d="M320,79.19H158.38c0,58.69,67.68,162.62,117.74,138.39C295.61,208.14,308.31,203,320,202.4c11.69.63,24.39,5.74,43.88,15.18,50.06,24.23,117.74-79.7,117.74-138.39Z"/><path class="cls-2" d="M379.54,224.4a38.66,38.66,0,0,1-17.07-3.9c-18.85-9.12-31.22-14.2-42.47-14.85-11.25.65-23.63,5.73-42.47,14.85-13.89,6.73-30.12,4.72-46.92-5.81C212,203,192.86,180.91,178.06,154c-14.57-26.5-22.93-53.76-22.93-74.8V75.94H484.87v3.25c0,21-8.36,48.3-22.93,74.8-14.8,26.92-34,49-52.55,60.7C399.09,221.15,389,224.4,379.54,224.4ZM320,199.14h.17c12.4.67,25.43,6,45.13,15.5,11.95,5.79,25.62,3.95,40.63-5.47,35.64-22.34,70.64-84.1,72.37-126.74H161.7c1.73,42.64,36.73,104.4,72.37,126.74,15,9.42,28.68,11.26,40.63,5.47,19.7-9.54,32.73-14.83,45.12-15.5Z"/></g></svg>