<svg xmlns="http://www.w3.org/2000/svg" viewBox="0 0 640 160"><defs><style>.cls-1{fill:#000050;}.cls-2{fill:#0d0a09;}.cls-3{fill:#fcfcfc;}.cls-4{fill:blue;}</style></defs><g id="Kitchen_Sink" data-name="Kitchen Sink"><path class="cls-1" d="M248.77,90.89c3.46,4.61-.48,18.53-22.33,18.53-17.06,0-43.71-7.53-43.71-13.31s13.83-10.45,30.88-10.45S244.49,85.19,248.77,90.89Z"/><path class="cls-1" d="M392.23,90.89c-3.46,4.61.48,18.53,22.33,18.53,17.06,0,43.71-7.53,43.71-13.31s-13.83-10.45-30.88-10.45S396.51,85.19,392.23,90.89Z"/><circle class="cls-2" cx="218.1" cy="74.69" r="24.1"/><circle class="cls-2" cx="422.9" cy="74.69" r="24.1"/><circle class="cls-3" cx="435.56" cy="77.94" r="5.09"/><circle class="cls-3" cx="414.56" cy="83.03" r="8.34"/><circle class="cls-3" cx="232.17" cy="77.94" r="5.09"/><circle class="cls-3" cx="209.89" cy="83.03" r="8.34"/><path class="cls-4" d="M451.28,54c4.84,5.56,7.19,8.4,8.13,16.1a4.19,4.19,0,0,1-4.2,4.64H394.13c-6,0-8.31-17.94,6.91-30.95"/><path class="cls-2" d="M452.35,53a41.78,41.78,0,0,1,5.39,5.87,21.25,21.25,0,0,1,3.48,7.69c.16.68.3,1.35.42,2l.17,1c0,.12.05.45.07.69a5,5,0,0,1,0,.77,6.6,6.6,0,0,1-3.05,5.11,6.82,6.82,0,0,1-2.87,1l-.76,0h-1.45l-3.84,0q-15.41.17-30.79.07l-15.39-.15-7.7-.1-1.94,0A5.49,5.49,0,0,1,390.92,76,7.13,7.13,0,0,1,389,73.88a10.77,10.77,0,0,1-1-2.24,19.28,19.28,0,0,1-.45-8.63,27.58,27.58,0,0,1,2.48-7.87A34,34,0,0,1,400.23,42.8a1.24,1.24,0,0,1,1.61,1.87h0a34.9,34.9,0,0,0-8.26,12,26.35,26.35,0,0,0-1.71,6.89,15.67,15.67,0,0,0,.58,6.59,4,4,0,0,0,1.28,2,.63.63,0,0,0,.4.14l1.9,0,7.7-.09L419.12,72c10.26-.08,20.52,0,30.79.06l3.84,0h1.65a1.68,1.68,0,0,0,.72-.22,1.71,1.71,0,0,0,.84-1.21.59.59,0,0,0,0-.19,1,1,0,0,0,0-.26l-.1-.9c-.07-.6-.15-1.19-.25-1.77a19.31,19.31,0,0,0-2.24-6.5,72.87,72.87,0,0,0-4.17-6.17h0a1.44,1.44,0,0,1,.35-2A1.42,1.42,0,0,1,452.35,53Z"/><path class="cls-4" d="M188.72,54c-4.84,5.56-7.19,8.4-8.13,16.1a4.19,4.19,0,0,0,4.2,4.64h61.08c6,0,8.31-17.94-6.91-30.95"/><path class="cls-2" d="M189.79,54.88a72.87,72.87,0,0,0-4.17,6.17,19.31,19.31,0,0,0-2.24,6.5c-.1.58-.18,1.17-.25,1.77l-.1.9a1,1,0,0,0,0,.26.59.59,0,0,0,0,.19,1.71,1.71,0,0,0,.84,1.21,1.68,1.68,0,0,0,.72.22h1.65l3.84,0c10.27-.1,20.53-.14,30.79-.06l15.39.15,7.7.09,1.9,0a.63.63,0,0,0,.4-.14,4,4,0,0,0,1.28-2,15.67,15.67,0,0,0,.58-6.59,26.35,26.35,0,0,0-1.71-6.89,34.9,34.9,0,0,0-8.26-12h0a1.24,1.24,0,0,1,1.61-1.87,34,34,0,0,1,10.16,12.34A27.58,27.58,0,0,1,252.41,63a19.28,19.28,0,0,1-.45,8.63,10.77,10.77,0,0,1-1,2.24A7.13,7.13,0,0,1,249.08,76a5.49,5.49,0,0,1-3.17,1.11l-1.94,0-7.7.1-15.39.15q-15.39.12-30.79-.07l-3.84,0H184.8l-.76,0a6.82,6.82,0,0,1-2.87-1,6.6,6.6,0,0,1-3-5.11,5,5,0,0,1,0-.77c0-.24,0-.57.07-.69l.17-1c.12-.67.26-1.34.42-2a21.25,21.25,0,0,1,3.48-7.69A41.78,41.78,0,0,1,187.65,53a1.43,1.43,0,0,1,2.15,1.85Z"/></g></svg>