<svg xmlns="http://www.w3.org/2000/svg" viewBox="0 0 640 160"><defs><style>.cls-1{fill:#fffade;}.cls-2{fill:#0d0a09;}</style></defs><g id="Kitchen_Sink" data-name="Kitchen Sink"><path class="cls-1" d="M244.61,83.46l-4.1-.48a12.18,12.18,0,0,1-10.77-12.49l-4.26-31a9,9,0,0,1,8.87-10.16h22a9,9,0,0,1,8.95,8.94V65A18.57,18.57,0,0,1,244.61,83.46Z"/><path class="cls-2" d="M246.75,86.58a23.09,23.09,0,0,1-2.49-.14l-4.1-.48a15.29,15.29,0,0,1-13.43-15.3l-4.22-30.77a12,12,0,0,1,11.84-13.57h22a12,12,0,0,1,11.95,11.94V65a21.58,21.58,0,0,1-21.57,21.56ZM245,80.48A15.58,15.58,0,0,0,262.32,65V38.26a6,6,0,0,0-5.95-5.94h-22a5.94,5.94,0,0,0-5.89,6.75l4.29,31.26v.26A9.23,9.23,0,0,0,240.85,80Z"/></g></svg>