<svg xmlns="http://www.w3.org/2000/svg" viewBox="0 0 320 160"><defs><style>.cls-1{fill:blue;}.cls-2{fill:#0d0a09;}</style></defs><g id="Eyes"><path class="cls-1" d="M139.6,116.71c0-15.06,9.14-19.48,20.4-19.48s20.4,4.42,20.4,19.48"/><path class="cls-2" d="M138.35,116.71a24.86,24.86,0,0,1,.38-8.61,16.73,16.73,0,0,1,4.44-8.06,18.87,18.87,0,0,1,8.08-4.6,34.22,34.22,0,0,1,17.48.07,18.72,18.72,0,0,1,8,4.64,16.38,16.38,0,0,1,4.33,8,24.71,24.71,0,0,1,.3,8.55,1,1,0,0,1-1.92,0v0a32.35,32.35,0,0,0-1.94-7.41,13.9,13.9,0,0,0-4.05-5.59C170,100.87,165,100.1,160,100.12s-9.95.85-13.35,3.7a13.9,13.9,0,0,0-3.94,5.54,32.57,32.57,0,0,0-1.85,7.35v.05a1.27,1.27,0,0,1-1.45,1A1.28,1.28,0,0,1,138.35,116.71Z"/></g></svg>