<svg xmlns="http://www.w3.org/2000/svg" viewBox="0 0 640 160"><defs><style>.cls-1{fill:#1d1d1b;}</style></defs><g id="Eyes"><path class="cls-1" d="M196.05,65.92c20.66.08,41.29-.37,61.91-1,10.32-.26,20.62-.72,30.93-1.09l15.48-.67c5.18-.21,10.38-.29,15.57-.28s10.38.07,15.56.28l15.48.68c10.31.36,20.61.83,30.93,1.1,20.62.63,41.26,1.08,61.91,1a5,5,0,1,1,.05,10l-.54,0c-20.55-2.15-41.13-3.76-61.71-5.18-10.29-.76-20.59-1.32-30.89-2L335.3,67.9c-5.12-.23-10.24-.37-15.36-.38s-10.25.15-15.37.39-10.29.53-15.43.85c-10.3.66-20.6,1.23-30.89,2-20.58,1.42-41.16,3-61.7,5.16a5,5,0,0,1-1-10Z"/></g></svg>