<svg xmlns="http://www.w3.org/2000/svg" viewBox="0 0 640 160"><defs><style>.cls-1{fill:#c19aa6;}.cls-2{fill:#0d0a09;}</style></defs><g id="Kitchen_Sink" data-name="Kitchen Sink"><path class="cls-1" d="M232.83,50.62s-3.89,50.21,30.61,70.22-1.66-60.94,21.1-73.06C284.54,47.78,266.28,46.4,232.83,50.62Z"/><path class="cls-2" d="M272.42,127.26c-2.95,0-6.46-1.2-10.61-3.61-35.85-20.8-32.39-71.14-32.23-73.28l.21-2.64,2.63-.33c33.39-4.22,51.61-2.91,52.37-2.86l11.16.85-9.88,5.26c-8.6,4.58-6.54,24.76-4.89,41,1.7,16.64,3,29.78-3.92,34.27A8.72,8.72,0,0,1,272.42,127.26ZM236,53.51c-.17,10.35,1.2,48.33,29.1,64.52,5.89,3.42,8,2.82,8.66,2.4,3.62-2.33,2.16-16.65,1-28.15-1.54-15.13-3.24-31.86,2.31-41.46A340.21,340.21,0,0,0,236,53.51Z"/><path class="cls-1" d="M255.74,38.41s-3,25.39,0,39.11"/><path class="cls-2" d="M255.74,80.77a3.24,3.24,0,0,1-3.17-2.55c-3.12-14.1-.18-39.14-.06-40.19a3.25,3.25,0,1,1,6.46.77c0,.25-2.94,25-.06,38a3.24,3.24,0,0,1-2.47,3.87A2.79,2.79,0,0,1,255.74,80.77Z"/></g></svg>