<svg xmlns="http://www.w3.org/2000/svg" viewBox="0 0 640 160"><defs><style>.cls-1{fill:#1d1d1b;}</style></defs><g id="Eyes"><path class="cls-1" d="M197.8,55.89a84.33,84.33,0,0,0-8.51,3.46,78.32,78.32,0,0,0-8,4.32,58.3,58.3,0,0,0-13.6,11.43,51.71,51.71,0,0,0-5.06,7.16,54,54,0,0,0-3.69,8,75.38,75.38,0,0,0-3.56,17.89v0a2.05,2.05,0,0,1-4.07.15,49.8,49.8,0,0,1,.8-20.12,45.36,45.36,0,0,1,9.5-18.32A51.77,51.77,0,0,1,177.8,57.43a57.59,57.59,0,0,1,9.39-3.7,48,48,0,0,1,9.94-1.87,2,2,0,0,1,.81,4Z"/><path class="cls-1" d="M442.87,51.86a48,48,0,0,1,9.94,1.87,57.59,57.59,0,0,1,9.39,3.7A51.77,51.77,0,0,1,478.43,69.9a45.36,45.36,0,0,1,9.5,18.32,49.8,49.8,0,0,1,.8,20.12,2.05,2.05,0,0,1-4.07-.15v0a75.38,75.38,0,0,0-3.56-17.89,54,54,0,0,0-3.69-8,51.71,51.71,0,0,0-5.06-7.16,58.3,58.3,0,0,0-13.6-11.43,78.32,78.32,0,0,0-8-4.32,84.33,84.33,0,0,0-8.51-3.46l-.14,0a2,2,0,0,1-1.26-2.61A2.08,2.08,0,0,1,442.87,51.86Z"/></g></svg>