<svg xmlns="http://www.w3.org/2000/svg" viewBox="0 0 640 320"><defs><style>.cls-1{fill:blue;}.cls-2{fill:#0d0a09;}</style></defs><g id="jaw-shape"><path class="cls-1" d="M498.3,81.61a186.86,186.86,0,0,1,12.06,29.17c21,66.21-14.08,84-14.08,84C451,223.16,389.06,240.62,320.81,240.62S190.65,223.16,145.34,194.8c0,0-35.11-17.81-14.09-84a186.69,186.69,0,0,1,11.16-27.4"/><path class="cls-2" d="M319.19,243.87c-66.48,0-129.37-16.42-177.09-46.25-1.31-.71-10-5.8-16.23-18.58-8.53-17.67-8.31-41,.67-69.24a190.73,190.73,0,0,1,11.55-28.26l5.8,2.94a184.93,184.93,0,0,0-11.16,27.28c-8.25,26-8.67,48.15-1.22,64,5.55,11.8,13.62,16.11,13.7,16.15l.24.14c46.71,29.23,108.42,45.32,173.74,45.32s127-16.09,173.75-45.32l.25-.14c.07,0,8.14-4.35,13.69-16.15,7.45-15.85,7-38-1.22-64A184.93,184.93,0,0,0,494.5,84.48l5.8-2.94a191.37,191.37,0,0,1,11.55,28.26c9,28.28,9.2,51.57.67,69.24-6.18,12.78-14.91,17.87-16.23,18.58C448.57,227.45,385.68,243.87,319.19,243.87Z"/></g></svg>