<svg xmlns="http://www.w3.org/2000/svg" viewBox="0 0 640 320"><defs><style>.cls-1{fill:#fffade;}.cls-2{fill:#1d1d1b;}</style></defs><g id="Eyes"><path class="cls-1" d="M320.85,85.4c-73.43,0-133,12.54-133,28s59.52,28,133,28,133-12.54,133-28S394.27,85.4,320.85,85.4Zm3.28,36.7c-54.14,0-98-5.36-98-12s43.89-12,98-12,98,5.36,98,12S378.27,122.1,324.13,122.1Z"/><path class="cls-2" d="M320.85,86.14c-11.68,0-23.35.37-35,1.07S262.58,89.06,251,90.64a268.07,268.07,0,0,0-34.2,6.83,104.46,104.46,0,0,0-16.24,5.82,35.82,35.82,0,0,0-7.14,4.3c-2.07,1.67-3.75,3.81-3.67,5.83s1.71,4.06,3.8,5.65a35.77,35.77,0,0,0,7.19,4.09A104.81,104.81,0,0,0,217,128.55a284.1,284.1,0,0,0,34.2,6c11.52,1.43,23.12,2.32,34.73,2.95s23.24.92,34.88.9,23.27-.25,34.88-.89,23.21-1.53,34.73-3a280.21,280.21,0,0,0,34.2-6,104.19,104.19,0,0,0,16.28-5.38,36,36,0,0,0,7.18-4.09c2.1-1.6,3.81-3.66,3.81-5.66s-1.6-4.17-3.68-5.83a35.86,35.86,0,0,0-7.14-4.31,104.43,104.43,0,0,0-16.24-5.81,266.35,266.35,0,0,0-34.2-6.83A520.41,520.41,0,0,0,320.85,86.14Zm0-1.48q17.55,0,35.09.9c11.69.63,23.37,1.54,35,3a285,285,0,0,1,34.67,6.13,107.72,107.72,0,0,1,16.88,5.6,38.6,38.6,0,0,1,7.94,4.56,16.41,16.41,0,0,1,3.44,3.47,11,11,0,0,1,1.27,2.34,9.25,9.25,0,0,1,.52,2.78,8.92,8.92,0,0,1-.48,2.78,11,11,0,0,1-1.22,2.39,16.85,16.85,0,0,1-3.4,3.58,39.1,39.1,0,0,1-7.9,4.77,107.72,107.72,0,0,1-16.83,6,270.06,270.06,0,0,1-34.68,6.93q-17.49,2.4-35.1,3.45t-35.21,1.08a523.59,523.59,0,0,1-70.31-4.52A271.78,271.78,0,0,1,215.86,133,107.83,107.83,0,0,1,199,127a39.9,39.9,0,0,1-7.9-4.78,16.62,16.62,0,0,1-3.4-3.58,10.89,10.89,0,0,1-1.22-2.38,8.74,8.74,0,0,1-.47-2.79,8.84,8.84,0,0,1,.52-2.78,10.48,10.48,0,0,1,1.26-2.34,16.71,16.71,0,0,1,3.44-3.48,39.13,39.13,0,0,1,7.95-4.56,107.72,107.72,0,0,1,16.88-5.6,284.65,284.65,0,0,1,34.67-6.12c11.63-1.44,23.32-2.35,35-3S309.15,84.63,320.85,84.66Z"/><path class="cls-2" d="M324.13,122.84q-12.54,0-25.08-.31c-8.35-.22-16.72-.52-25.07-1s-16.71-1.13-25.05-2.2c-4.17-.54-8.34-1.17-12.5-2.08a52.43,52.43,0,0,1-6.24-1.74A18.37,18.37,0,0,1,227,114a7.29,7.29,0,0,1-1.62-1.25,3.89,3.89,0,0,1-1.18-2.64,4,4,0,0,1,1.14-2.68,7.92,7.92,0,0,1,1.61-1.3,19.75,19.75,0,0,1,3.13-1.55,53.2,53.2,0,0,1,6.23-1.95c4.15-1.05,8.3-1.82,12.47-2.5,8.33-1.33,16.69-2.29,25.05-3S290.61,96,299,95.64s16.76-.46,25.14-.48,16.77.18,25.15.48,16.76.84,25.13,1.52,16.72,1.67,25,3c4.16.68,8.32,1.45,12.47,2.5a52.47,52.47,0,0,1,6.22,2,18.93,18.93,0,0,1,3.14,1.54,7.62,7.62,0,0,1,1.6,1.3,4,4,0,0,1,1.14,2.68,4,4,0,0,1-1.17,2.64,7.64,7.64,0,0,1-1.63,1.25,18.21,18.21,0,0,1-3.15,1.43,52.58,52.58,0,0,1-6.25,1.74c-4.16.91-8.32,1.55-12.49,2.08-8.34,1.07-16.7,1.68-25,2.21s-16.72.83-25.08,1S332.49,122.87,324.13,122.84Zm0-1.48q12.53,0,25-.48c8.34-.31,16.67-.83,25-1.51s16.59-1.66,24.79-3c4.09-.66,8.17-1.43,12.14-2.44a49.72,49.72,0,0,0,5.77-1.8,15.73,15.73,0,0,0,2.5-1.23,4.29,4.29,0,0,0,.84-.68c.19-.21.14-.28.13-.12s0,.11-.17-.09a4.58,4.58,0,0,0-.86-.62,15.91,15.91,0,0,0-2.52-1.12,49.5,49.5,0,0,0-5.78-1.6c-4-.87-8.07-1.49-12.17-2-8.2-1.05-16.49-1.65-24.78-2.17s-16.61-.82-24.93-1.05-16.63-.33-25-.3-16.64.07-25,.31-16.62.52-24.92,1-16.58,1.12-24.78,2.17c-4.1.53-8.18,1.15-12.17,2a47.61,47.61,0,0,0-5.78,1.6,14.28,14.28,0,0,0-2.52,1.12,3.82,3.82,0,0,0-.85.62c-.2.19-.16.25-.17.08s-.07-.09.13.12a3.86,3.86,0,0,0,.83.67,15.31,15.31,0,0,0,2.5,1.23,47.88,47.88,0,0,0,5.77,1.81c4,1,8,1.77,12.14,2.44,8.19,1.31,16.48,2.27,24.78,3s16.64,1.2,25,1.51S315.79,121.33,324.13,121.36Z"/></g></svg>