<svg xmlns="http://www.w3.org/2000/svg" viewBox="0 0 640 320"><defs><style>.cls-1{fill:#fffade;}.cls-2{fill:#0d0a09;}</style></defs><g id="Kitchen_Sink" data-name="Kitchen Sink"><path class="cls-1" d="M348.44,119.24c-9.68-36.93-16.26-103.63-27.59-103.63s-21.5,66.4-28.7,103.27c-4.68,23.92-9.21,50.79-9.21,59.46a37.91,37.91,0,1,0,75.82,0C358.76,169.67,354.62,142.81,348.44,119.24Z"/><path class="cls-2" d="M346.21,119.83c-4.49-18.72-7.17-37.59-10.45-56.34-.83-4.69-1.69-9.37-2.61-14s-1.9-9.3-3.09-13.88a80.72,80.72,0,0,0-4.44-13.35,21.17,21.17,0,0,0-1.64-3,7,7,0,0,0-2.09-2.18,2,2,0,0,0-2.2.08,7.87,7.87,0,0,0-2.13,2.2,32.18,32.18,0,0,0-3.14,6.1c-.89,2.15-1.66,4.38-2.38,6.62-1.43,4.49-2.64,9.07-3.77,13.68-2.22,9.22-4,18.56-5.77,27.9s-3.28,18.75-4.86,28.14L292.85,130c-1.53,9.38-3,18.77-4.24,28.16-.62,4.69-1.2,9.39-1.59,14a59.47,59.47,0,0,0-.26,6.69,34.75,34.75,0,0,0,.85,6.35,33.68,33.68,0,0,0,5,11.62,34.82,34.82,0,0,0,8.9,8.93A33.37,33.37,0,0,0,313,210.85a34.38,34.38,0,0,0,42-35.21c-.17-4.54-.69-9.27-1.24-13.94s-1.23-9.37-2-14C350.23,138.33,348.4,129,346.21,119.83Zm4.46-1.17c2.61,9.23,4.86,18.55,6.82,27.94,1,4.7,1.9,9.41,2.73,14.15s1.59,9.48,2,14.44a42,42,0,0,1-1.36,15.53,41.52,41.52,0,0,1-34.12,29.65A41.55,41.55,0,0,1,279.14,179a69,69,0,0,1,.59-7.56c.62-4.83,1.4-9.57,2.21-14.29,1.66-9.44,3.5-18.81,5.46-28.16l3-14,2.86-14L299,73c2-9.34,4.07-18.66,6.48-27.92,1.21-4.63,2.51-9.24,4-13.8.78-2.28,1.61-4.55,2.57-6.78A34.65,34.65,0,0,1,315.59,18a10.11,10.11,0,0,1,2.89-2.82,4.62,4.62,0,0,1,2.25-.68,4.46,4.46,0,0,1,2.31.62A9.16,9.16,0,0,1,325.89,18a23.46,23.46,0,0,1,1.79,3.29,60.43,60.43,0,0,1,2.57,6.81c.74,2.29,1.39,4.6,2,6.92,2.4,9.28,4.39,18.61,6.26,28l5.69,28C346.15,100.28,348.16,109.57,350.67,118.66Z"/><path class="cls-2" d="M342.54,91.85a33.66,33.66,0,0,1-1.34,8.89,27.09,27.09,0,0,1-4.11,8.33,26,26,0,0,1-6.92,6.46,30.41,30.41,0,0,1-4.12,2.22c-1.37.63-2.85,1.17-4,1.65l-.25.11-.22,0c-.51.12-1.17.3-1.8.48l-2,.51c-1.33.31-2.68.6-4.06.8a29.64,29.64,0,0,1-8.53.18,16.21,16.21,0,0,1-8.21-3.39,13.53,13.53,0,0,1-2.91-3.38,15.27,15.27,0,0,1-1.59-4,1,1,0,0,1,.71-1.18,1,1,0,0,1,1.07.43l0,0a17.58,17.58,0,0,0,2.17,2.92,10.91,10.91,0,0,0,2.69,2.08,13.83,13.83,0,0,0,6.48,1.62,31.16,31.16,0,0,0,7.12-.77c1.2-.27,2.4-.56,3.61-.9l3.82-1.09-.47.16c1.5-.63,2.72-1.07,3.95-1.62a30.63,30.63,0,0,0,3.48-1.76,23.86,23.86,0,0,0,5.88-4.85,27.74,27.74,0,0,0,4.22-6.6,49.46,49.46,0,0,0,2.76-7.76v0a1.26,1.26,0,0,1,1.56-.87A1.28,1.28,0,0,1,342.54,91.85Z"/><path class="cls-2" d="M335.09,51.14a19.7,19.7,0,0,1-.61,5.93,17.85,17.85,0,0,1-2.63,5.7,17,17,0,0,1-4.66,4.45,22.1,22.1,0,0,1-2.77,1.52c-.91.41-1.91.78-2.58,1.06l-.22.1-.25.06-2.42.62c-.88.2-1.78.39-2.7.51a19.49,19.49,0,0,1-5.76,0,11.24,11.24,0,0,1-5.61-2.51A9.15,9.15,0,0,1,303,66.18a9.29,9.29,0,0,1-.92-2.75,1,1,0,0,1,.8-1.14,1,1,0,0,1,1,.39l0,0a8.09,8.09,0,0,0,3.2,2.81,8.52,8.52,0,0,0,3.89.72,21,21,0,0,0,4.34-.59c.74-.18,1.49-.37,2.25-.59l2.48-.72-.47.15c1-.43,1.77-.7,2.55-1a21.09,21.09,0,0,0,2.13-1.05,15.38,15.38,0,0,0,3.61-2.86,17.8,17.8,0,0,0,2.75-3.95,37.57,37.57,0,0,0,2-4.81v0a1.28,1.28,0,0,1,2.47.38Z"/><path class="cls-2" d="M351.27,131a56.64,56.64,0,0,1-1,12.48,40.38,40.38,0,0,1-4.41,12.07,31.2,31.2,0,0,1-8.8,9.83,35,35,0,0,1-5.69,3.32c-1.93.92-4,1.68-5.66,2.39l-.29.13-.27.06c-.77.16-1.71.4-2.63.63s-1.87.46-2.82.66a53.47,53.47,0,0,1-5.84,1,34.13,34.13,0,0,1-12.09-.74A23.35,23.35,0,0,1,296,170.4a22.08,22.08,0,0,1-4.86-3.83,25.07,25.07,0,0,1-5.7-10.39,1,1,0,0,1,.67-1.19,1,1,0,0,1,1.12.47v0a26.79,26.79,0,0,0,6.47,8.37,19.72,19.72,0,0,0,9.12,4.17,32.32,32.32,0,0,0,10.34,0c1.74-.26,3.5-.58,5.25-1,.88-.21,1.76-.44,2.65-.68s1.77-.5,2.84-.75l-.57.19c2.1-.89,3.85-1.49,5.58-2.31a32.94,32.94,0,0,0,4.86-2.75,28.26,28.26,0,0,0,7.68-7.88,41.78,41.78,0,0,0,4.74-10.42,81.32,81.32,0,0,0,2.55-11.6h0a1.26,1.26,0,0,1,2.51.15Z"/></g></svg>