<svg xmlns="http://www.w3.org/2000/svg" viewBox="0 0 640 320"><defs><style>.cls-1{fill:blue;}.cls-2{fill:#1d1d1b;}</style></defs><g id="Kitchen_Sink" data-name="Kitchen Sink"><path class="cls-1" d="M370.06,212.89h0c3-49.1,21.54-108.13,65.35-135.46a99.45,99.45,0,0,1,75.41-12.65c23.29,5.29,44.28,16.86,62.41,32,1.21,1,2.34,2,3.58,3.19a3.73,3.73,0,0,1-4.91,5.61c-2.22-1.82-4.7-3.66-7.11-5.33C530.2,76.32,485.48,64.73,448.1,89c-20.16,13.11-34.16,33.88-41.09,56.66-13,42.62-11.29,63.3-5.4,86.1"/><path class="cls-2" d="M369.47,212.86a139.72,139.72,0,0,1,.83-19.29c.32-3.2.8-6.39,1.28-9.57l.86-4.76,1-4.74A214.36,214.36,0,0,1,385,137.61a157.68,157.68,0,0,1,19.13-33.7,113.88,113.88,0,0,1,28.15-26.76,98.56,98.56,0,0,1,35.9-14.85,102.62,102.62,0,0,1,38.86-.22,137.78,137.78,0,0,1,36.61,12.79,163.43,163.43,0,0,1,32.08,21.7l1.82,1.64.44.42a6.07,6.07,0,0,1,.59.65,5.52,5.52,0,0,1-7.74,7.76c-1.29-1.05-2.47-2-3.74-2.93a157.21,157.21,0,0,0-15.9-10.32,132.92,132.92,0,0,0-35.08-14,93.32,93.32,0,0,0-37.46-1.4,79.16,79.16,0,0,0-18,5.42c-1.46.58-2.85,1.32-4.27,2s-2.77,1.49-4.15,2.24-2.7,1.61-4,2.49-2.62,1.73-3.87,2.7a97,97,0,0,0-25.18,27.93,108.9,108.9,0,0,0-8.35,17c-2.29,5.88-4,12-5.71,18.18-3.35,12.28-6,24.8-6.75,37.46a118.07,118.07,0,0,0,.38,19A159.43,159.43,0,0,0,402,231.61a.45.45,0,0,1-.34.53.44.44,0,0,1-.52-.31A126.27,126.27,0,0,1,397.1,213l-.32-2.39c-.09-.8-.14-1.61-.22-2.41l-.21-2.41-.1-2.42-.09-2.42,0-2.42,0-2.42.12-2.41c.59-12.91,3.28-25.57,6.57-38,.79-3.12,1.75-6.18,2.62-9.27s1.94-6.16,3.08-9.18A110.39,110.39,0,0,1,417,119.85,99.57,99.57,0,0,1,442.76,91c1.27-1,2.65-1.87,4-2.81s2.76-1.73,4.13-2.6,2.83-1.61,4.28-2.34,2.9-1.47,4.41-2.09a81.87,81.87,0,0,1,18.62-5.71,96.28,96.28,0,0,1,38.7,1.21,135.67,135.67,0,0,1,36,14.13,159.25,159.25,0,0,1,16.33,10.47c1.29,1,2.63,2,3.82,3a1.94,1.94,0,0,0,3-2.19,1.65,1.65,0,0,0-.3-.53,2.25,2.25,0,0,0-.21-.24l-.43-.4c-.58-.53-1.16-1.05-1.75-1.56A163.61,163.61,0,0,0,542,78.19a134.19,134.19,0,0,0-35.6-12.4c-24.66-4.65-51.14.47-71.94,14.58a110.08,110.08,0,0,0-27.16,25.89,153.8,153.8,0,0,0-18.61,32.89,209.56,209.56,0,0,0-11.36,36.21l-1,4.65-.92,4.67-.9,4.67c-.27,1.57-.53,3.13-.83,4.69-1.08,6.27-2,12.56-3,18.89a.61.61,0,0,1-.69.5A.59.59,0,0,1,369.47,212.86Z"/><path class="cls-1" d="M271.64,212.89h0c-3-49.1-21.54-108.13-65.35-135.46a99.47,99.47,0,0,0-75.42-12.65c-23.28,5.29-44.27,16.86-62.4,32-1.21,1-2.34,2-3.58,3.19a3.73,3.73,0,0,0,4.91,5.61c2.22-1.82,4.7-3.66,7.1-5.33C111.5,76.32,156.22,64.73,193.6,89c20.16,13.11,34.16,33.88,41.09,56.66,13,42.62,11.29,63.3,5.4,86.1"/><path class="cls-2" d="M271,212.93c-1-6.33-1.93-12.62-3-18.89-.3-1.56-.56-3.12-.84-4.69l-.89-4.67-.92-4.67-1-4.65A209.56,209.56,0,0,0,253,139.15a153.84,153.84,0,0,0-18.62-32.89,110,110,0,0,0-27.15-25.89C186.45,66.26,160,61.14,135.31,65.79a134,134,0,0,0-35.6,12.4A163.3,163.3,0,0,0,68.32,99.31c-.59.51-1.17,1-1.75,1.56l-.43.4a2.25,2.25,0,0,0-.21.24,1.65,1.65,0,0,0-.3.53,1.93,1.93,0,0,0,3,2.19c1.2-1,2.54-2,3.83-3A159.12,159.12,0,0,1,88.78,90.81a135.94,135.94,0,0,1,36-14.13,96.34,96.34,0,0,1,38.71-1.21,82,82,0,0,1,18.62,5.71c1.51.62,2.94,1.39,4.41,2.09s2.85,1.56,4.28,2.34,2.78,1.68,4.12,2.6,2.71,1.8,4,2.81a99.57,99.57,0,0,1,25.72,28.83,109.48,109.48,0,0,1,8.44,17.44c1.14,3,2.18,6.1,3.08,9.18s1.84,6.15,2.62,9.27c3.29,12.39,6,25,6.58,38l.12,2.41,0,2.42V201l-.08,2.42-.1,2.42-.21,2.41c-.08.8-.13,1.61-.23,2.41L244.6,213a126.27,126.27,0,0,1-4.08,18.83.44.44,0,0,1-.86-.22,161.51,161.51,0,0,0,3.25-18.81,118.07,118.07,0,0,0,.38-19c-.79-12.66-3.4-25.18-6.75-37.46a189.06,189.06,0,0,0-5.72-18.18,107.16,107.16,0,0,0-8.35-17,96.76,96.76,0,0,0-25.18-27.93c-1.24-1-2.58-1.8-3.87-2.7s-2.67-1.66-4-2.49-2.75-1.54-4.15-2.24-2.81-1.41-4.27-2a79.32,79.32,0,0,0-18-5.42,93.32,93.32,0,0,0-37.46,1.4,132.92,132.92,0,0,0-35.08,14,157.21,157.21,0,0,0-15.9,10.32c-1.28,1-2.46,1.88-3.74,2.93a5.47,5.47,0,0,1-3.29,1.16,5.52,5.52,0,0,1-5.37-3.87,5.49,5.49,0,0,1,.07-3.49,5.27,5.27,0,0,1,.85-1.56,6.07,6.07,0,0,1,.59-.65l.44-.42c.6-.55,1.2-1.1,1.82-1.64A163.13,163.13,0,0,1,98,74.87a137.66,137.66,0,0,1,36.61-12.79,102.57,102.57,0,0,1,38.85.22,98.6,98.6,0,0,1,35.91,14.85,113.66,113.66,0,0,1,28.14,26.76,157.29,157.29,0,0,1,19.14,33.7,214.36,214.36,0,0,1,11.63,36.89l1,4.74.87,4.76c.48,3.18.95,6.37,1.28,9.57a139.72,139.72,0,0,1,.83,19.29.6.6,0,0,1-1.19.07Z"/></g></svg>