<svg xmlns="http://www.w3.org/2000/svg" viewBox="0 0 640 320"><defs><style>.cls-1{fill:blue;}.cls-2{fill:#0d0a09;}</style></defs><g id="jaw-shape"><path class="cls-1" d="M481.62,79.19c0,58.69-69.87,110.08-117.74,138.39a86.18,86.18,0,0,1-87.76,0c-47.87-28.31-117.74-79.7-117.74-138.39Z"/><path class="cls-2" d="M320,232.84a89.47,89.47,0,0,1-45.54-12.46C242.78,201.63,216.72,182,197,162.06c-27.78-28.09-41.86-56-41.86-82.87V75.94H484.87v3.25c0,26.89-14.08,54.78-41.86,82.87-19.73,19.95-45.79,39.57-77.47,58.32A89.47,89.47,0,0,1,320,232.84ZM161.7,82.44c2.64,56.87,73.51,107.16,116.07,132.34a82.93,82.93,0,0,0,84.46,0C404.79,189.6,475.66,139.31,478.3,82.44Z"/></g></svg>