<svg xmlns="http://www.w3.org/2000/svg" viewBox="0 0 640 320"><defs><style>.cls-1{fill:#fffade;}.cls-2{fill:#0d0a09;}</style></defs><g id="Kitchen_Sink" data-name="Kitchen Sink"><path class="cls-1" d="M407.25,129.16c6.61,15.26,7,39.64-5.06,65.66,0,0-9.61.23-26.41-6.5C355,180,365,161.59,365,161.59s17.74-13.53,25.3-32.15C393.32,122,404,121.73,407.25,129.16Z"/><path class="cls-2" d="M409,128.4a58.47,58.47,0,0,1,4.05,16.92,92.66,92.66,0,0,1-.15,17.23,128.65,128.65,0,0,1-2.82,17c-1.21,5.65-2.66,11.24-3.77,17.18h0l-1.56,2.74-2.45-.11a11.05,11.05,0,0,1-1.25-.12l-1.07-.15c-.7-.11-1.38-.23-2.05-.36-1.34-.26-2.65-.58-3.94-.91-2.58-.66-5.11-1.39-7.58-2.23s-4.92-1.72-7.33-2.68c-1.21-.46-2.39-1-3.58-1.47q-.88-.36-1.83-.81a18.64,18.64,0,0,1-1.85-.91,26.82,26.82,0,0,1-6.8-5.06,19.42,19.42,0,0,1-4.39-7.61,21.44,21.44,0,0,1-.57-8.63,26.13,26.13,0,0,1,.87-4.13c.19-.67.43-1.33.66-2a21.62,21.62,0,0,1,.87-2.06h0l.32-.58.46-.33a67.41,67.41,0,0,0,5.81-4.82c1.88-1.73,3.71-3.52,5.45-5.39a83,83,0,0,0,9.37-12,61.24,61.24,0,0,0,3.65-6.64l.76-1.73a11.89,11.89,0,0,1,1.14-2.1,10.93,10.93,0,0,1,3.5-3.3,11.58,11.58,0,0,1,9.21-1.09,10.69,10.69,0,0,1,4.14,2.35A11,11,0,0,1,409,128.4Zm-3.5,1.51A6.92,6.92,0,0,0,401,126a7.48,7.48,0,0,0-5.94.82,6.81,6.81,0,0,0-2.14,2.1,7.26,7.26,0,0,0-.7,1.36l-.78,1.89a68.47,68.47,0,0,1-3.7,7.24,87.4,87.4,0,0,1-9.51,13c-1.76,2-3.59,4-5.5,5.89-1,.95-1.93,1.88-2.93,2.79s-2,1.81-3.09,2.74l.78-.91h0c-.19.33-.46.9-.67,1.38s-.41,1-.58,1.57a20.64,20.64,0,0,0-.78,3.24,15.16,15.16,0,0,0,.38,6.35,13.33,13.33,0,0,0,1.25,2.84,13.83,13.83,0,0,0,1.93,2.47,19.09,19.09,0,0,0,5.43,3.72c.5.25,1,.48,1.56.69s1.07.43,1.67.63c1.16.41,2.32.82,3.49,1.17,2.33.78,4.71,1.37,7.07,1.93a66.08,66.08,0,0,0,7.14,1.2c1.18.14,2.37.19,3.53.24.58,0,1.15,0,1.71,0,.28,0,.55,0,.82,0a4.13,4.13,0,0,0,.63-.08l-4,2.63h0a47.75,47.75,0,0,0,8.06-14.5,75.19,75.19,0,0,0,3.69-16.18,68.8,68.8,0,0,0-.1-16.54A56.46,56.46,0,0,0,405.5,129.91Z"/><path class="cls-2" d="M384.78,170.2a23.91,23.91,0,0,1-4.7-1.3,32,32,0,0,1-4.4-2.15c-1.4-.84-2.56-2-3.86-2.95s-2.46-2.06-3.68-3.06a1,1,0,0,1,1.22-1.5l0,0c1.18,1,2.4,2,3.62,3a44.22,44.22,0,0,0,3.87,2.59,34.59,34.59,0,0,0,3.92,2.44,39.53,39.53,0,0,0,4.22,2h0a.48.48,0,0,1-.25.91Z"/><path class="cls-2" d="M411.81,169.34a23.47,23.47,0,0,1-4.88-.2,31.64,31.64,0,0,1-4.77-1.09c-1.55-.5-3-1.37-4.42-2s-2.87-1.45-4.29-2.15a1,1,0,0,1,.85-1.73l0,0c1.39.76,2.8,1.46,4.22,2.12a43.15,43.15,0,0,0,4.35,1.65,36.81,36.81,0,0,0,4.37,1.48,38.43,38.43,0,0,0,4.56,1h0a.47.47,0,0,1,0,.94Z"/><path class="cls-1" d="M234.44,129.16c-6.6,15.26-7,39.64,5.07,65.66,0,0,9.61.23,26.41-6.5,20.8-8.32,10.79-26.73,10.79-26.73S259,148.06,251.42,129.44C248.37,122,237.66,121.73,234.44,129.16Z"/><path class="cls-2" d="M236.19,129.91A56.79,56.79,0,0,0,232,145.69a68.8,68.8,0,0,0-.1,16.54,75.19,75.19,0,0,0,3.69,16.18,47.94,47.94,0,0,0,8.05,14.5h0l-4-2.63a4.13,4.13,0,0,0,.63.08c.27,0,.54,0,.82,0,.56,0,1.13,0,1.71,0,1.16,0,2.34-.1,3.53-.24a65.5,65.5,0,0,0,7.13-1.2c2.37-.56,4.75-1.15,7.08-1.93,1.17-.35,2.33-.76,3.49-1.17.6-.2,1.14-.42,1.66-.63s1.07-.44,1.57-.69a19.37,19.37,0,0,0,5.43-3.72,13.83,13.83,0,0,0,1.93-2.47,12.81,12.81,0,0,0,1.24-2.84,15,15,0,0,0,.39-6.35,20.64,20.64,0,0,0-.78-3.24c-.17-.53-.36-1-.58-1.57s-.48-1.05-.67-1.38h0l.78.91c-1.13-.93-2.09-1.81-3.1-2.74s-2-1.84-2.92-2.79c-1.91-1.89-3.74-3.86-5.5-5.89a86.7,86.7,0,0,1-9.51-13,66.63,66.63,0,0,1-3.7-7.24l-.79-1.89a7.26,7.26,0,0,0-.7-1.36,6.68,6.68,0,0,0-2.13-2.1,7.48,7.48,0,0,0-5.94-.82A7,7,0,0,0,236.19,129.91Zm-3.49-1.51a11,11,0,0,1,2.72-3.86,10.69,10.69,0,0,1,4.14-2.35,11.59,11.59,0,0,1,9.21,1.09,11,11,0,0,1,3.5,3.3,11.84,11.84,0,0,1,1.13,2.1l.77,1.73a61.24,61.24,0,0,0,3.65,6.64,83,83,0,0,0,9.37,12c1.74,1.87,3.57,3.66,5.45,5.39a67.41,67.41,0,0,0,5.81,4.82l.46.33.32.58h0a19.31,19.31,0,0,1,.87,2.06c.24.67.48,1.33.67,2a26.11,26.11,0,0,1,.86,4.13,21.62,21.62,0,0,1-.56,8.63,19.44,19.44,0,0,1-4.4,7.61,26.77,26.77,0,0,1-6.79,5.06c-.61.34-1.23.64-1.85.91s-1.25.57-1.83.81c-1.19.49-2.38,1-3.59,1.47q-3.6,1.44-7.32,2.68c-2.47.84-5,1.57-7.58,2.23-1.29.33-2.6.65-3.94.91-.68.13-1.35.25-2.05.36l-1.07.15a11.3,11.3,0,0,1-1.25.12l-2.45.11-1.56-2.74h0c-1.12-5.94-2.56-11.53-3.77-17.18a128.65,128.65,0,0,1-2.82-17,92.66,92.66,0,0,1-.15-17.23A58.47,58.47,0,0,1,232.7,128.4Z"/><path class="cls-2" d="M259.66,173.88a35.34,35.34,0,0,1-6.18,2.69,46.31,46.31,0,0,1-6.58,1.57c-2.23.35-4.49.25-6.71.39s-4.45,0-6.66.06a1,1,0,1,1,0-1.94h0c2.21,0,4.4,0,6.59,0a63.49,63.49,0,0,0,6.48-.67,49.33,49.33,0,0,0,6.4-1,50.26,50.26,0,0,0,6.25-1.87.47.47,0,0,1,.61.27A.49.49,0,0,1,259.66,173.88Z"/><path class="cls-2" d="M244.57,143.3a17.71,17.71,0,0,1-3.44,1.69,23,23,0,0,1-3.72,1,9.38,9.38,0,0,1-1.91.11c-.63,0-1.26,0-1.89,0l-3.74,0h0a1,1,0,0,1-1-.95,1,1,0,0,1,1-1h0c1.23,0,2.45,0,3.67,0a12.18,12.18,0,0,0,1.8-.17c.59-.1,1.18-.22,1.77-.27a35,35,0,0,0,3.54-.46,33.92,33.92,0,0,0,3.51-.87h0a.48.48,0,0,1,.59.32A.47.47,0,0,1,244.57,143.3Z"/><path class="cls-2" d="M274.64,158.48a23.87,23.87,0,0,1-3.84,3,32.55,32.55,0,0,1-4.35,2.25c-1.51.62-3.14.86-4.67,1.33s-3.12.75-4.66,1.13a1,1,0,0,1-1.17-.69,1,1,0,0,1,.7-1.18h0c1.56-.32,3.08-.7,4.59-1.1a43.94,43.94,0,0,0,4.39-1.56A36.73,36.73,0,0,0,270,160a39.67,39.67,0,0,0,4.1-2.22h0a.47.47,0,0,1,.58.74Z"/></g></svg>