<svg xmlns="http://www.w3.org/2000/svg" viewBox="0 0 640 320"><defs><style>.cls-1{fill:blue;}.cls-2{fill:#0d0a09;}</style></defs><g id="top-shape"><path class="cls-1" d="M320,29.08c-108.4,0-196.28,87.87-196.28,196.28,0,34.54,44.51,45.52,101,47.07,49.53,1.37,70.31-27.7,95.31-27.7s45.78,29.07,95.31,27.7c56.46-1.55,101-12.53,101-47.07C516.28,117,428.4,29.08,320,29.08Z"/><path class="cls-2" d="M412,275.73c-28.19,0-47.22-9.72-62.62-17.59C338.66,252.69,329.45,248,320,248s-18.66,4.71-29.34,10.16c-16,8.19-36,18.37-66.06,17.54-70.07-1.93-104.13-18.39-104.13-50.32,0-110,89.51-199.53,199.53-199.53s199.53,89.51,199.53,199.53c0,31.93-34.06,48.39-104.13,50.32C414.24,275.71,413.09,275.73,412,275.73Zm-92-34.25c11,0,20.87,5,32.29,10.88,16.17,8.25,34.48,17.59,62.93,16.82C481,267.37,513,253,513,225.36c0-106.44-86.59-193-193-193s-193,86.59-193,193c0,27.67,32,42,97.81,43.82,28.46.78,46.76-8.57,62.93-16.82C299.13,246.52,309,241.48,320,241.48Z"/></g></svg>