<svg xmlns="http://www.w3.org/2000/svg" viewBox="0 0 640 160"><defs><style>.cls-1{fill:#0d0a09;}.cls-2{fill:#000050;}.cls-3{fill:#fcfcfc;}</style></defs><g id="Eyes"><path class="cls-1" d="M191.41,96.09s26.12-.71,38.36-9.31c0,0-26.49-1.78-36.28-7.55C187.4,75.64,181,72,177.05,69.77c-1.33-.75-3.23.15-2.78,1.33,1.69,4.42,5.42,11.74,12.28,14.38a37.86,37.86,0,0,1-16.48-2.08c-1.53-.54-3.25.47-2.7,1.63C169.48,89.56,175.44,97.18,191.41,96.09Z"/><path class="cls-1" d="M448.59,96.09s-26.12-.71-38.36-9.31c0,0,26.49-1.78,36.28-7.55C452.6,75.64,459,72,463,69.77c1.33-.75,3.23.15,2.78,1.33-1.69,4.42-5.42,11.74-12.28,14.38a37.86,37.86,0,0,0,16.48-2.08c1.53-.54,3.25.47,2.7,1.63C470.52,89.56,464.56,97.18,448.59,96.09Z"/><path class="cls-2" d="M176,100.15c-2.95,5,2.47,18.37,24.19,16,17-1.84,42.64-12.2,42-17.94s-14.87-8.9-31.83-7.06S179.61,94,176,100.15Z"/><circle class="cls-1" cx="218.1" cy="74.69" r="24.1"/><circle class="cls-3" cx="228.66" cy="64.26" r="6"/><circle class="cls-3" cx="210.93" cy="81.98" r="9.39"/><circle class="cls-3" cx="229.77" cy="82.85" r="4.54"/><path class="cls-2" d="M464,100.15c3,5-2.47,18.37-24.19,16-17-1.84-42.64-12.2-42-17.94s14.87-8.9,31.83-7.06S460.39,94,464,100.15Z"/><circle class="cls-1" cx="421.9" cy="74.69" r="24.1"/><circle class="cls-3" cx="431.33" cy="64.13" r="6"/><circle class="cls-3" cx="413.6" cy="81.86" r="9.39"/><circle class="cls-3" cx="432.44" cy="82.72" r="4.54"/></g></svg>