<svg xmlns="http://www.w3.org/2000/svg" viewBox="0 0 320 160"><defs><style>.cls-1{fill:red;}.cls-2{fill:#0d0a09;}</style></defs><g id="Eyes"><path class="cls-1" d="M177.68,83.52c0,5.54-5.69,17.24-10.61,26.34a8,8,0,0,1-14.14,0c-4.92-9.1-10.61-20.8-10.61-26.34a17.68,17.68,0,0,1,35.36,0Z"/><path class="cls-2" d="M160,115.57a9.4,9.4,0,0,1-8.39-5c-7.16-13.22-10.79-22.32-10.79-27a19.18,19.18,0,0,1,38.36,0c0,4.73-3.63,13.83-10.79,27.05A9.4,9.4,0,0,1,160,115.57Zm0-48.23a16.2,16.2,0,0,0-16.18,16.18c0,4.1,3.7,13.2,10.43,25.62a6.53,6.53,0,0,0,11.5,0c6.73-12.42,10.43-21.52,10.43-25.62A16.2,16.2,0,0,0,160,67.34Z"/></g></svg>