<svg xmlns="http://www.w3.org/2000/svg" viewBox="0 0 320 160"><defs><style>.cls-1{fill:red;}.cls-2{fill:#0d0a09;}</style></defs><g id="Eyes"><path class="cls-1" d="M193,80.56c0,5.54-10.62,43.77-19.81,52.86-5.68,5.62-20.72,5.62-26.4,0C137.61,124.33,127,86.1,127,80.56c0-9.76,14.78-17.68,33-17.68S193,70.8,193,80.56Z"/><path class="cls-2" d="M160,139.13c-5.56,0-11.13-1.54-14.26-4.64-9.6-9.5-20.25-48.33-20.25-53.93,0-10.75,15.16-19.18,34.51-19.18s34.51,8.43,34.51,19.18c0,5.6-10.65,44.43-20.25,53.93C171.13,137.59,165.56,139.13,160,139.13Zm0-74.75c-17.08,0-31.51,7.41-31.51,16.18,0,5.76,10.64,43.17,19.36,51.8,5.11,5,19.19,5,24.3,0,8.72-8.63,19.36-46,19.36-51.8C191.51,71.79,177.08,64.38,160,64.38Z"/><path class="cls-2" d="M168.23,120.38a98.19,98.19,0,0,0,6-26.36A127.23,127.23,0,0,0,175,80.49c0-4.54-.19-9.08-.44-13.63a1,1,0,0,1,.92-1,1,1,0,0,1,1,.92h0c.18,4.55.41,9.12.43,13.71a132,132,0,0,1-.48,13.77,96,96,0,0,1-2.6,13.56,82.88,82.88,0,0,1-4.71,12.93.48.48,0,0,1-.63.24A.49.49,0,0,1,168.23,120.38Z"/><path class="cls-2" d="M180.92,97.93a57.12,57.12,0,0,0,1.78-6.61,52.9,52.9,0,0,0,.92-6.75,62,62,0,0,0,.46-6.82c0-2.29-.08-4.59-.22-6.9a1,1,0,1,1,1.93-.12v0c.07,2.31.2,4.64.21,7a69.4,69.4,0,0,1-.17,7.06,48.33,48.33,0,0,1-1.45,6.94,39.12,39.12,0,0,1-2.6,6.56.47.47,0,0,1-.87-.36Z"/><path class="cls-2" d="M149.79,102.32a55.69,55.69,0,0,1-3.37-8.89,65.15,65.15,0,0,1-1.87-9.36,94.56,94.56,0,0,1-.28-9.51c0-3.17.18-6.31.29-9.45a1,1,0,1,1,1.93.07v0c-.18,3.13-.3,6.25-.3,9.36a84.21,84.21,0,0,0,.57,9.28A69.43,69.43,0,0,0,148.11,93a70.45,70.45,0,0,0,2.55,8.94.48.48,0,0,1-.28.61A.49.49,0,0,1,149.79,102.32Z"/><path class="cls-2" d="M136.38,89.79a29.85,29.85,0,0,1-3.18-10.07c-.23-1.77,0-3.54-.1-5.29s.12-3.49.16-5.21a1,1,0,1,1,1.93,0v0c-.12,1.72-.16,3.43-.17,5.13a47.07,47.07,0,0,0,.38,5,40.17,40.17,0,0,0,.62,5,46.11,46.11,0,0,0,1.23,4.93.48.48,0,0,1-.87.37Z"/></g></svg>