<svg xmlns="http://www.w3.org/2000/svg" viewBox="0 0 320 160"><defs><style>.cls-1{fill:blue;}.cls-2{fill:#0d0a09;}</style></defs><g id="Eyes"><path class="cls-1" d="M188.67,111.23c0,15.06-20,19.49-28.67,19.49-9.45,0-28.67-4.43-28.67-19.49"/><path class="cls-2" d="M189.92,111.23a15.63,15.63,0,0,1-2.49,10.19,22.73,22.73,0,0,1-7.82,7.06,38,38,0,0,1-9.52,3.77A44.18,44.18,0,0,1,160,133.61a46,46,0,0,1-10.12-1.37,37.45,37.45,0,0,1-9.49-3.82,22.06,22.06,0,0,1-7.68-7.12,15.6,15.6,0,0,1-2.29-10.07,1,1,0,0,1,1.93,0h0a14.82,14.82,0,0,0,3.41,7.88,20.08,20.08,0,0,0,6.91,5,38.46,38.46,0,0,0,8.47,2.73,42.44,42.44,0,0,0,8.86.95,40.57,40.57,0,0,0,8.82-1.07,39.41,39.41,0,0,0,8.43-2.82,20.68,20.68,0,0,0,6.86-5,14.21,14.21,0,0,0,3.35-7.71v0a1.26,1.26,0,0,1,2.5,0Z"/></g></svg>