<svg xmlns="http://www.w3.org/2000/svg" viewBox="0 0 320 160"><defs><style>.cls-1{fill:blue;}.cls-2{fill:#0d0a09;}.cls-3{fill:red;}</style></defs><g id="Eyes"><path class="cls-1" d="M186.11,107.69a3.49,3.49,0,0,1,1.24,5.71C175,126,169.35,130.72,160,130.72S145,126,132.65,113.4a3.49,3.49,0,0,1,1.24-5.71l3.37-1.28a63.77,63.77,0,0,1,45.48,0Z"/><path class="cls-2" d="M189.57,112.11a117.17,117.17,0,0,1-12,13.54,34.52,34.52,0,0,1-7.74,5.67,22,22,0,0,1-19.68-.07,33.81,33.81,0,0,1-7.69-5.71,116.14,116.14,0,0,1-11.85-13.64,1,1,0,0,1,1.38-1.35h0c4.71,3.7,9.13,7.73,13.64,11.31a35.07,35.07,0,0,0,6.93,4.42,18.31,18.31,0,0,0,14.79-.06,35.31,35.31,0,0,0,6.87-4.47c4.47-3.61,8.85-7.67,13.52-11.4h0a1.25,1.25,0,0,1,1.77.2A1.28,1.28,0,0,1,189.57,112.11Z"/><line class="cls-3" x1="145.67" y1="122.22" x2="152.53" y2="111.23"/><path class="cls-2" d="M142.91,120.5l9.15-9.57a.57.57,0,0,1,.8,0,.58.58,0,0,1,.15.61L148.42,124a3.32,3.32,0,0,1-6.23-2.3A3.56,3.56,0,0,1,142.91,120.5Z"/><line class="cls-3" x1="174.33" y1="122.22" x2="167.47" y2="111.23"/><path class="cls-2" d="M171.58,124,167,111.53a.57.57,0,0,1,.95-.6l9.15,9.57a3.32,3.32,0,1,1-5.51,3.45Z"/></g></svg>