<svg xmlns="http://www.w3.org/2000/svg" viewBox="0 0 640 320"><defs><style>.cls-1{fill:blue;}.cls-2{fill:#0d0a09;}</style></defs><g id="Eyes"><path class="cls-1" d="M149.33,287.86C146,287.17,92,253.79,75.08,237a9.55,9.55,0,0,1,2.57-15.37l51.68-25.08-13.5-60.94a9.55,9.55,0,0,1,10-11.6l57.13,3.87,4.77-55a9.56,9.56,0,0,1,12.46-8.27L246.8,79.63l25.84-44.15a9.55,9.55,0,0,1,15.18-1.74l36.31,38.34"/><path class="cls-2" d="M149.34,290.36a2.94,2.94,0,0,1-.51-.05c-4.65-.95-58.75-34.93-75.51-51.59a12.06,12.06,0,0,1,3.23-19.39l49.91-24.22-13.07-59A12.06,12.06,0,0,1,126,121.46l54.68,3.71,4.56-52.57a12,12,0,0,1,15.71-10.42l44.74,14.46,24.82-42.42A12,12,0,0,1,289.63,32L326,70.36a2.5,2.5,0,0,1-3.63,3.44L286,35.46a7,7,0,0,0-11.2,1.29L248,82.63l-48.56-15.7a7.06,7.06,0,0,0-9.2,6.11l-5,57.45-59.58-4a7.06,7.06,0,0,0-7.36,8.56l13.93,62.87-53.46,26a7,7,0,0,0-1.9,11.34c16.66,16.56,68.92,48.82,73.08,50.26a2.5,2.5,0,0,1-.58,4.93Zm.49-4.95h0Z"/><path class="cls-1" d="M498.94,287.86c3.38-.69,57.31-34.07,74.25-50.91a9.55,9.55,0,0,0-2.57-15.37L518.94,196.5l13.5-60.94a9.55,9.55,0,0,0-10-11.6l-57.14,3.87-4.76-55a9.56,9.56,0,0,0-12.46-8.27L401.46,79.63,375.63,35.48a9.55,9.55,0,0,0-15.18-1.74L324.13,72.08"/><path class="cls-2" d="M498.93,290.36a2.5,2.5,0,0,1-.59-4.93c4.16-1.44,56.43-33.7,73.09-50.26a7,7,0,0,0-1.9-11.34l-53.46-26L530,135a7.06,7.06,0,0,0-7.37-8.56l-59.57,4-5-57.45a7.06,7.06,0,0,0-9.2-6.11l-48.56,15.7L373.47,36.75a7,7,0,0,0-11.2-1.29L326,73.8a2.5,2.5,0,0,1-3.63-3.44L358.64,32a12,12,0,0,1,19.15,2.2l24.82,42.42,44.73-14.46A12,12,0,0,1,463.06,72.6l4.55,52.57,54.69-3.71a12.06,12.06,0,0,1,12.58,14.64l-13.08,59,49.91,24.22A12.05,12.05,0,0,1,575,238.72c-16.76,16.66-70.86,50.64-75.52,51.59A2.73,2.73,0,0,1,498.93,290.36Zm-.49-4.95h0Z"/></g></svg>