<svg xmlns="http://www.w3.org/2000/svg" viewBox="0 0 640 320"><defs><style>.cls-1{fill:blue;}.cls-2{fill:#0d0a09;}</style></defs><g id="Eyes"><path class="cls-1" d="M273.64,100.58a211.25,211.25,0,0,1-59-13.2c-38.52-15.1-56.24-16.51-62.52-.15a1.49,1.49,0,0,1-2.89-.35c-.68-6.77-.36-15.76.18-28a4.71,4.71,0,0,0-8.12-3.45c-7.91,8.23-18.61,24.76-19.92,54.68-2.11,48.12,44.81,50.35,44.81,50.35"/><path class="cls-2" d="M273.61,101.08a206.72,206.72,0,0,1-38.38-5.29,183.86,183.86,0,0,1-18.73-5.34c-3.12-1-6.07-2.15-9.11-3.19s-6-2.06-9.08-3A138.71,138.71,0,0,0,180,79.68a52.83,52.83,0,0,0-9-.79,30.86,30.86,0,0,0-4.26.35,18.37,18.37,0,0,0-3.84,1.08,12,12,0,0,0-5.53,4.76c-.32.56-.65,1.11-.93,1.72-.14.3-.29.59-.41.92l-.46,1.12a5.35,5.35,0,0,1-7.11,2.74,5.34,5.34,0,0,1-2.86-3.24,5.63,5.63,0,0,1-.21-1l0-.38-.07-.63c-.32-3.4-.39-6.71-.41-10s.07-6.53.18-9.76l.18-4.84.1-2.41,0-.61c0-.08,0-.1,0-.14a.46.46,0,0,0,0-.16.66.66,0,0,0-.5-.39.61.61,0,0,0-.61.2,52.23,52.23,0,0,0-5.64,6.94A77,77,0,0,0,133.93,73c-5.43,10.9-8.27,23.21-9.21,35.7a57,57,0,0,0,1,18.23,39.48,39.48,0,0,0,7.87,16.16,43.72,43.72,0,0,0,14.53,11.26,58.73,58.73,0,0,0,18,5.62h0a.5.5,0,0,1-.08,1,51.21,51.21,0,0,1-9.72-1.16A59.35,59.35,0,0,1,147,157a46.63,46.63,0,0,1-16.6-11,42.77,42.77,0,0,1-10-17.6,61.49,61.49,0,0,1-2.18-20c.43-13.14,2.87-26.53,8.68-38.81a65.26,65.26,0,0,1,11.52-16.92,8.83,8.83,0,0,1,3.75-2.32,8.56,8.56,0,0,1,4.46-.16,8.76,8.76,0,0,1,6.4,5.72,8.51,8.51,0,0,1,.44,2.2,9.45,9.45,0,0,1,0,1.06l0,.6-.11,2.4-.21,4.8A181.58,181.58,0,0,0,153,85.67l0,.57,0,.22a2.17,2.17,0,0,0-.09-.41,2.46,2.46,0,0,0-1.32-1.47,2.22,2.22,0,0,0-1.75,0,2.34,2.34,0,0,0-1.32,1.24l0,.09,0-.07.07-.16.13-.32.28-.64c.17-.42.39-.84.6-1.26a23.87,23.87,0,0,1,1.46-2.47,19.35,19.35,0,0,1,9.15-7.27,28.12,28.12,0,0,1,10.83-1.54,59.19,59.19,0,0,1,10.11,1.36A142.83,142.83,0,0,1,200,79.16c3.06,1.1,6.07,2.28,9.08,3.48l8.93,3.65a182,182,0,0,0,18,6.26q9.19,2.69,18.62,4.56c6.26,1.27,12.61,2.33,19,3h0a.5.5,0,0,1,.45.55A.5.5,0,0,1,273.61,101.08Z"/><path class="cls-2" d="M215.67,118.91a45.66,45.66,0,0,1-12.63,5,54,54,0,0,1-6.84,1,47.42,47.42,0,0,1-6.95,0,50.67,50.67,0,0,1-13.6-2.81,50.14,50.14,0,0,1-12.5-6.4l-.21-.16-.2-.19c-1.72-1.67-3.63-3.41-5.46-5.29a55.22,55.22,0,0,1-5.19-6.13,38.37,38.37,0,0,1-6.63-14.93,43.56,43.56,0,0,1-.15-16,61.45,61.45,0,0,1,4.57-14.76,1.34,1.34,0,0,1,2.54.82v0a86.36,86.36,0,0,0-1.95,14.46,44.91,44.91,0,0,0,.21,7.07A38.93,38.93,0,0,0,152,87.49a35.61,35.61,0,0,0,6.23,11.94c2.83,3.63,6.28,6.7,10.07,10.23l-.41-.35a41.3,41.3,0,0,0,5,3A54.41,54.41,0,0,0,190,117.91a49.93,49.93,0,0,0,12.1.3,60.72,60.72,0,0,0,12.17-2.47h0a1.75,1.75,0,0,1,1.38,3.18Z"/><path class="cls-1" d="M299.91,86s-6.05,8.25-32.74-3.46C218,60.92,215,54,191.73,62c-1.95.67-3.77,1-3.62-1.1.64-8.82,3-20.26,6.46-35.81a6.12,6.12,0,0,0-9.63-6.23C173,27.64,155.61,46.42,147.27,84.43c-13.42,61.13,46.15,74.43,46.15,74.43"/><path class="cls-2" d="M300.32,86.28A7.22,7.22,0,0,1,298,88.13a13.56,13.56,0,0,1-2.67,1,22.13,22.13,0,0,1-5.6.73,47.13,47.13,0,0,1-11.06-1.39,89.79,89.79,0,0,1-10.59-3.21c-1.75-.61-3.4-1.33-5.07-2l-5-2.11c-6.67-2.85-13.29-5.79-19.88-8.74s-13.16-6-19.69-8.15a35.41,35.41,0,0,0-9.64-1.9,31.58,31.58,0,0,0-9.62,1.27c-1.62.44-3.25,1-4.9,1.53l-1.23.42a16.07,16.07,0,0,1-1.7.51,7.31,7.31,0,0,1-2.73.19,5.11,5.11,0,0,1-2.47-1,5,5,0,0,1-1.68-2.52,6.37,6.37,0,0,1-.21-1.88l.06-.83.11-1.41c.09-.94.18-1.87.29-2.8q.33-2.78.76-5.51c1.13-7.29,2.65-14.39,4.16-21.47l.57-2.65.29-1.33.14-.63c0-.09,0-.18,0-.26a1.83,1.83,0,0,0-.58-1.61,2.17,2.17,0,0,0-1.69-.62,2,2,0,0,0-.85.28l-.25.16-.51.39c-.34.25-.68.5-1,.77A79.28,79.28,0,0,0,171.44,38a102.16,102.16,0,0,0-10.8,17.82A134.89,134.89,0,0,0,153,75.51c-1,3.38-1.92,6.82-2.74,10.25A80.06,80.06,0,0,0,148.57,96a60.16,60.16,0,0,0,1.25,20.56,50.35,50.35,0,0,0,8.9,18.55,62.58,62.58,0,0,0,15.52,14.14,76.22,76.22,0,0,0,19.29,9.09h0a.5.5,0,0,1,.33.62.51.51,0,0,1-.58.35,65.62,65.62,0,0,1-10.49-3.14,77.62,77.62,0,0,1-9.95-4.67,62.94,62.94,0,0,1-17.22-13.91,53.33,53.33,0,0,1-10.78-19.69,64.05,64.05,0,0,1-2.35-22.4A88.48,88.48,0,0,1,144,84.41c.72-3.63,1.52-7.21,2.49-10.77a141.26,141.26,0,0,1,7.38-21,108.45,108.45,0,0,1,11.25-19.4,83.74,83.74,0,0,1,15.69-16.35c.37-.29.75-.59,1.13-.87l.58-.43c.23-.17.57-.41.87-.59a10.22,10.22,0,0,1,14.84,5.31,10,10,0,0,1,.51,4.46c0,.37-.11.72-.17,1.08l-.16.68-.29,1.32-.58,2.64c-1.53,7-3.07,14.06-4.28,21-.3,1.75-.57,3.48-.79,5.21-.12.86-.22,1.72-.31,2.58L192,60.64l0,.53a2.19,2.19,0,0,0-.09-.55,2.81,2.81,0,0,0-1-1.4,2.53,2.53,0,0,0-1.22-.54c-.42,0-.25,0-.05,0s.53-.14.9-.26l1.33-.44q2.67-.87,5.48-1.54a38.94,38.94,0,0,1,11.83-1.14,40.72,40.72,0,0,1,11.46,2.64c7.08,2.69,13.48,6,20,9.22s12.92,6.41,19.42,9.5c3.23,1.56,6.56,3.06,9.74,4.61a86.82,86.82,0,0,0,9.79,4.08,45,45,0,0,0,10.23,2.35,21.28,21.28,0,0,0,5.17-.09,11.5,11.5,0,0,0,2.47-.64,6.41,6.41,0,0,0,2.07-1.24l.06-.06a.49.49,0,0,1,.7,0A.5.5,0,0,1,300.32,86.28Z"/><path class="cls-2" d="M266,116.21a61.19,61.19,0,0,1-17.16,3.24,67,67,0,0,1-8.84-.29,62,62,0,0,1-8.75-1.57A66.56,66.56,0,0,1,214.71,111a64.58,64.58,0,0,1-14.3-10.8l-.19-.19-.16-.23c-1.86-2.53-3.9-5.17-5.81-7.94A73.27,73.27,0,0,1,189,83a49.31,49.31,0,0,1-5.18-20.14A56.83,56.83,0,0,1,187,42.63a83,83,0,0,1,8.74-17.9,1.34,1.34,0,0,1,1.85-.4,1.35,1.35,0,0,1,.52,1.65h0a107.31,107.31,0,0,0-6.11,18.06,59.45,59.45,0,0,0-1.45,9.2,49.7,49.7,0,0,0,0,9.13,46.55,46.55,0,0,0,5.3,17.12c2.83,5.4,6.64,10.21,10.67,15.52l-.35-.41A54.28,54.28,0,0,0,212,99.74a68.51,68.51,0,0,0,6.59,4.45,70.06,70.06,0,0,0,14.5,6.55,65.16,65.16,0,0,0,15.71,2.93,76.19,76.19,0,0,0,16.27-.83h0a1.74,1.74,0,0,1,.82,3.37Z"/></g></svg>