<svg xmlns="http://www.w3.org/2000/svg" viewBox="0 0 320 160"><defs><style>.cls-1{fill:blue;}.cls-2{fill:#0d0a09;}</style></defs><g id="Eyes"><path class="cls-1" d="M180.12,134c0,15.06-13.7,19.48-19.69,19.48-6.49,0-19.69-4.42-19.69-19.48"/><path class="cls-2" d="M181.37,134a19.25,19.25,0,0,1-.68,8.32,18.41,18.41,0,0,1-4.54,7.41,22.42,22.42,0,0,1-7.21,4.8,20.64,20.64,0,0,1-17.08,0,21.62,21.62,0,0,1-7.16-4.85,18,18,0,0,1-4.37-7.43,19.24,19.24,0,0,1-.55-8.23,1,1,0,0,1,1.11-.83,1,1,0,0,1,.82.81v0a23.11,23.11,0,0,0,2.11,6.88,16.47,16.47,0,0,0,4.19,5.25,19.43,19.43,0,0,0,5.86,3.25,20.43,20.43,0,0,0,6.52,1.21,15.23,15.23,0,0,0,3.2-.38,21.91,21.91,0,0,0,3.25-.94,20.29,20.29,0,0,0,5.82-3.31,16.45,16.45,0,0,0,4.15-5.19,22.08,22.08,0,0,0,2.05-6.77v0a1.26,1.26,0,0,1,2.5,0Z"/></g></svg>