<svg xmlns="http://www.w3.org/2000/svg" viewBox="0 0 640 320"><defs><style>.cls-1{fill:blue;}.cls-2{fill:#0d0a09;}</style></defs><g id="Eyes"><path class="cls-1" d="M160.71,178.64c-25.37-25.38-28.8-63.09-7.66-84.23s58.86-17.72,84.23,7.66"/><path class="cls-2" d="M160.71,181.14a2.53,2.53,0,0,1-1.77-.73c-12.68-12.69-20.49-28.76-22-45.25-1.52-16.66,3.58-31.76,14.34-42.52s25.86-15.85,42.52-14.34c16.49,1.5,32.56,9.31,45.24,22a2.5,2.5,0,1,1-3.53,3.53C223.66,92,208.68,84.68,193.36,83.28c-15.16-1.37-28.85,3.2-38.54,12.9s-14.27,23.37-12.89,38.53c1.39,15.33,8.69,30.3,20.55,42.16a2.5,2.5,0,0,1,0,3.54A2.53,2.53,0,0,1,160.71,181.14Z"/><path class="cls-1" d="M386.59,87.68c0-41.55-28.07-75.23-62.69-75.23s-62.7,33.68-62.7,75.23"/><path class="cls-2" d="M386.59,90.18a2.5,2.5,0,0,1-2.5-2.5c0-40.11-27-72.73-60.19-72.73s-60.2,32.62-60.2,72.73a2.5,2.5,0,0,1-5,0C258.7,44.82,288,10,323.9,10s65.19,34.87,65.19,77.73A2.5,2.5,0,0,1,386.59,90.18Z"/><path class="cls-1" d="M145.59,206.06c-26.59-1-48.83,16.15-49.66,38.31s20,40.94,46.63,41.94"/><path class="cls-2" d="M142.56,288.81h-.09c-27.93-1.05-49.93-21-49-44.54s24.32-41.76,52.26-40.71a2.5,2.5,0,0,1-.19,5c-25.16-.95-46.29,15.16-47.08,35.9s19.06,38.4,44.24,39.35a2.5,2.5,0,0,1-.1,5Z"/><path class="cls-1" d="M487.56,178.64c25.37-25.38,28.8-63.09,7.65-84.23S436.36,76.69,411,102.07"/><path class="cls-2" d="M487.56,181.14a2.53,2.53,0,0,1-1.77-.73,2.5,2.5,0,0,1,0-3.54C497.65,165,505,150,506.34,134.71c1.38-15.16-3.2-28.84-12.89-38.53s-23.37-14.27-38.54-12.9c-15.33,1.4-30.3,8.69-42.16,20.55a2.5,2.5,0,0,1-3.53-3.53c12.68-12.69,28.75-20.5,45.24-22,16.66-1.51,31.76,3.58,42.52,14.34s15.85,25.86,14.34,42.52c-1.5,16.49-9.31,32.56-22,45.25A2.53,2.53,0,0,1,487.56,181.14Z"/><path class="cls-1" d="M502.68,206.06c26.59-1,48.82,16.15,49.66,38.31s-20,40.94-46.63,41.94"/><path class="cls-2" d="M505.71,288.81a2.5,2.5,0,0,1-.1-5c25.17-.95,45-18.6,44.23-39.35s-21.92-36.86-47.07-35.9a2.5,2.5,0,0,1-.19-5c.77,0,1.54,0,2.3,0,26.91,0,49.1,17.9,50,40.75.89,23.51-21.11,43.49-49,44.54Z"/></g></svg>