<svg xmlns="http://www.w3.org/2000/svg" viewBox="0 0 640 320"><defs><style>.cls-1{fill:#1d1d1b;}</style></defs><g id="Kitchen_Sink" data-name="Kitchen Sink"><path class="cls-1" d="M301.5,222.12l-7.29-6.84c.82-.89,8.52-8.69,26.36-8.69,17.63,0,25.8,7.23,26.68,8.06l-6.87,7.27c-.19-.17-6.15-5.33-19.81-5.33C307.14,216.59,301.72,221.9,301.5,222.12Z"/><path class="cls-1" d="M274.61,251.13a29,29,0,1,1,29.05-29A29.08,29.08,0,0,1,274.61,251.13Zm0-48.08a19,19,0,1,0,19.05,19A19.06,19.06,0,0,0,274.61,203.05Z"/><path class="cls-1" d="M367.08,251.13a29,29,0,1,1,29.05-29A29.08,29.08,0,0,1,367.08,251.13Zm0-48.08a19,19,0,1,0,19.05,19A19.07,19.07,0,0,0,367.08,203.05Z"/></g></svg>