<svg xmlns="http://www.w3.org/2000/svg" viewBox="0 0 640 320"><defs><style>.cls-1{fill:blue;}.cls-2{fill:#0d0a09;}</style></defs><g id="top-shape"><path class="cls-1" d="M320,29.08c-108.4,0-196.28,87.87-196.28,196.28,0,56.64,56.63,82.06,101,47.07C267.56,238.61,295,237.6,320,237.6s52.44,1,95.31,34.83c44.34,35,101,9.57,101-47.07C516.28,117,428.4,29.08,320,29.08Z"/><path class="cls-2" d="M181.54,291.74a60.24,60.24,0,0,1-26.4-6c-21.71-10.53-34.67-33.08-34.67-60.34,0-110,89.51-199.53,199.53-199.53s199.53,89.51,199.53,199.53c0,27.26-13,49.81-34.67,60.34-22.49,10.9-49.24,6.9-71.57-10.72-43.26-34.13-71-34.13-93.29-34.13s-50,0-93.29,34.13C212.68,286.05,196.91,291.74,181.54,291.74ZM320,234.35c23.3,0,52.29,0,97.32,35.53,20.32,16,44.51,19.76,64.7,10,19.42-9.41,31-29.78,31-54.49,0-106.44-86.59-193-193-193s-193,86.59-193,193c0,24.71,11.59,45.08,31,54.49,20.19,9.79,44.38,6.06,64.7-10C267.71,234.35,296.7,234.35,320,234.35Z"/></g></svg>