<svg xmlns="http://www.w3.org/2000/svg" viewBox="0 0 320 160"><defs><style>.cls-1{fill:blue;}.cls-2{fill:#0d0a09;}.cls-3{fill:#500000;}</style></defs><g id="Eyes"><path class="cls-1" d="M192.45,97.14c2.93,1.79,3.74,7.82,1.55,11.4-15.35,25.07-22.38,34.55-34,34.55s-18.65-9.48-34-34.55c-2.19-3.58-1.38-9.61,1.55-11.4l4.18-2.57c18.21-11.15,38.33-11.15,56.54,0Z"/><path class="cls-2" d="M123.39,106a13.22,13.22,0,0,1,.91-6.15,16.6,16.6,0,0,1,3.45-5.22,30.31,30.31,0,0,1,10.06-6.51A56.42,56.42,0,0,1,149,84.76a65.55,65.55,0,0,1,11.6-1.18,61.6,61.6,0,0,1,22.73,4.55,29.18,29.18,0,0,1,10,6.58,16.23,16.23,0,0,1,3.32,5.22,13.18,13.18,0,0,1,.79,6,1,1,0,0,1-1.06.87,1,1,0,0,1-.87-.87h0a12.64,12.64,0,0,0-4.77-8.54,28.55,28.55,0,0,0-9.1-4.77,61.35,61.35,0,0,0-10.37-2.44,66.91,66.91,0,0,0-10.63-.85,64.67,64.67,0,0,0-10.59,1,62.85,62.85,0,0,0-10.33,2.54,29.43,29.43,0,0,0-9,4.77A12.28,12.28,0,0,0,125.9,106h0a1.26,1.26,0,0,1-2.51,0Z"/><path class="cls-3" d="M179.53,138.51c6.27-2,9.36-14.78,6.92-22.24s-9.51-11.86-15.77-9.81-6.12,8.71-3.68,16.17S173.26,140.56,179.53,138.51Z"/><path class="cls-2" d="M178.89,136.56a6.33,6.33,0,0,0,2.81-2.77,16.11,16.11,0,0,0,1.67-4.35,28,28,0,0,0,.54-9.45,14.9,14.9,0,0,0-1.08-4.21,14.36,14.36,0,0,0-2.28-3.7,12.26,12.26,0,0,0-3.3-2.71,9.22,9.22,0,0,0-4-1.11,7.36,7.36,0,0,0-4,1,5.4,5.4,0,0,0-2.21,3.46,14.55,14.55,0,0,0-.08,4.94,33.42,33.42,0,0,0,1.19,5.11,39.09,39.09,0,0,0,4.28,9.66,13.24,13.24,0,0,0,3.2,3.59,4,4,0,0,0,1.71.74A3,3,0,0,0,178.89,136.56Zm1.28,3.9a7,7,0,0,1-3.76,0,7.49,7.49,0,0,1-3-1.78,15.87,15.87,0,0,1-3.34-4.94c-1.59-3.43-2.67-6.91-3.88-10.33a40.51,40.51,0,0,1-1.58-5.33,18.55,18.55,0,0,1-.47-5.81,10.09,10.09,0,0,1,.78-3.1,8.33,8.33,0,0,1,2-2.76,9.76,9.76,0,0,1,2.83-1.82,12.23,12.23,0,0,1,3.15-.9,13.39,13.39,0,0,1,6.52.73,15.76,15.76,0,0,1,5.48,3.46,17.86,17.86,0,0,1,3.77,5.2,16.59,16.59,0,0,1,1.17,3,22.45,22.45,0,0,1,.59,3.14,25.57,25.57,0,0,1-1.79,11.89,21.9,21.9,0,0,1-3,5.35A11,11,0,0,1,180.17,140.46Z"/><path class="cls-3" d="M140.47,138.51c-6.27-2-9.36-14.78-6.92-22.24s9.51-11.86,15.77-9.81,6.12,8.71,3.68,16.17S146.74,140.56,140.47,138.51Z"/><path class="cls-2" d="M139.83,140.46a11,11,0,0,1-5.41-4,21.9,21.9,0,0,1-3-5.35,25.57,25.57,0,0,1-1.79-11.89,22.45,22.45,0,0,1,.59-3.14,16.59,16.59,0,0,1,1.17-3,17.86,17.86,0,0,1,3.77-5.2,15.76,15.76,0,0,1,5.48-3.46,13.39,13.39,0,0,1,6.52-.73,12.23,12.23,0,0,1,3.15.9,9.76,9.76,0,0,1,2.83,1.82,8.33,8.33,0,0,1,2,2.76,10.09,10.09,0,0,1,.78,3.1,18.55,18.55,0,0,1-.47,5.81,42.09,42.09,0,0,1-1.58,5.33c-1.21,3.42-2.29,6.9-3.88,10.33a16,16,0,0,1-3.34,4.94,7.49,7.49,0,0,1-3,1.78A7,7,0,0,1,139.83,140.46Zm1.28-3.9a3,3,0,0,0,1.57.23,4,4,0,0,0,1.71-.74,13.24,13.24,0,0,0,3.2-3.59,39.09,39.09,0,0,0,4.28-9.66,33.42,33.42,0,0,0,1.19-5.11,14.55,14.55,0,0,0-.08-4.94,5.4,5.4,0,0,0-2.21-3.46,7.36,7.36,0,0,0-4-1,9.22,9.22,0,0,0-4,1.11,12.26,12.26,0,0,0-3.3,2.71,14.36,14.36,0,0,0-2.28,3.7,14.9,14.9,0,0,0-1.08,4.21,28,28,0,0,0,.54,9.45,16.11,16.11,0,0,0,1.67,4.35A6.33,6.33,0,0,0,141.11,136.56Z"/></g></svg>