<svg xmlns="http://www.w3.org/2000/svg" xmlns:xlink="http://www.w3.org/1999/xlink" viewBox="0 0 640 320"><defs><style>.cls-1{fill:#ececec;}.cls-2,.cls-3,.cls-4{fill:#1d1d1b;}.cls-2{clip-path:url(#clip-path);}.cls-3{clip-path:url(#clip-path-2);}.cls-5{clip-path:url(#clip-path-3);}.cls-6{fill:#fff;}.cls-7{clip-path:url(#clip-path-4);}</style><clipPath id="clip-path"><circle class="cls-1" cx="233.06" cy="185.92" r="69.28"/></clipPath><clipPath id="clip-path-2"><circle class="cls-1" cx="408.64" cy="185.92" r="69.28"/></clipPath><clipPath id="clip-path-3"><path class="cls-2" d="M233.06,258.2a72.29,72.29,0,1,1,72.29-72.28A72.36,72.36,0,0,1,233.06,258.2Zm0-138.57a66.29,66.29,0,1,0,66.29,66.29A66.36,66.36,0,0,0,233.06,119.63Z"/></clipPath><clipPath id="clip-path-4"><path class="cls-3" d="M408.64,258.2a72.29,72.29,0,1,1,72.28-72.28A72.37,72.37,0,0,1,408.64,258.2Zm0-138.57a66.29,66.29,0,1,0,66.28,66.29A66.37,66.37,0,0,0,408.64,119.63Z"/></clipPath></defs><g id="Kitchen_Sink" data-name="Kitchen Sink"><path class="cls-4" d="M301.87,195.9l-5.67-2c.28-.82,7.09-20,24.38-20s24.57,18.13,24.87,18.91l-5.58,2.2c-.05-.14-6.21-15.11-19.29-15.11S301.93,195.74,301.87,195.9Z"/><circle class="cls-1" cx="233.06" cy="185.92" r="69.28"/><path class="cls-4" d="M233.06,258.2a72.29,72.29,0,1,1,72.29-72.28A72.36,72.36,0,0,1,233.06,258.2Zm0-138.57a66.29,66.29,0,1,0,66.29,66.29A66.36,66.36,0,0,0,233.06,119.63Z"/><g class="cls-5"><rect class="cls-6" x="206.83" y="71.87" width="52.46" height="228.09" transform="translate(199.72 -110.35) rotate(45)"/></g><circle class="cls-1" cx="408.64" cy="185.92" r="69.28"/><path class="cls-4" d="M408.64,258.2a72.29,72.29,0,1,1,72.28-72.28A72.37,72.37,0,0,1,408.64,258.2Zm0-138.57a66.29,66.29,0,1,0,66.28,66.29A66.37,66.37,0,0,0,408.64,119.63Z"/><g class="cls-7"><rect class="cls-6" x="382.41" y="71.87" width="52.46" height="228.09" transform="translate(251.15 -234.5) rotate(45)"/></g></g></svg>