<svg xmlns="http://www.w3.org/2000/svg" viewBox="0 0 640 320"><defs><style>.cls-1{fill:blue;}.cls-2{fill:#1d1d1b;}.cls-3{fill:#500000;}</style></defs><g id="Eyes"><path class="cls-1" d="M475.27,252.64c2-29.3,91.75-46.72,90.33-74.52-.54-10.53-51.46-42.52-96-39.16-44.89,3.39-63,20.23-76.09,33.31"/><path class="cls-2" d="M474.87,252.61a18.68,18.68,0,0,1,3.31-9.43,38.81,38.81,0,0,1,6.64-7.48A110.36,110.36,0,0,1,501,224.2c11.31-6.81,23.08-12.68,34.41-19.09a137.64,137.64,0,0,0,16.2-10.46,45.91,45.91,0,0,0,6.78-6.3,17.07,17.07,0,0,0,4-7.29,10,10,0,0,0,.21-1.88c0-.3,0-.64,0-.91a2.56,2.56,0,0,0-.11-.39,10.88,10.88,0,0,0-2.06-3.08,47.1,47.1,0,0,0-6.83-6.12,117.76,117.76,0,0,0-16.25-10,151.86,151.86,0,0,0-36-13.24,115,115,0,0,0-18.83-2.71,90.12,90.12,0,0,0-9.44,0c-1.57.06-3.1.17-4.71.38s-3.19.36-4.78.58c-12.67,1.72-25.21,4.11-37,8.81a102.6,102.6,0,0,0-17,8.63,192.16,192.16,0,0,0-15.76,11.5l-.57-.57a98.61,98.61,0,0,1,13.61-14.59,82.63,82.63,0,0,1,16.87-11.21,84.82,84.82,0,0,1,9.34-4.07c3.18-1.18,6.4-2.24,9.67-3.1a117.7,117.7,0,0,1,19.88-3.46c3.35-.32,6.65-.48,10.1-.63a96.67,96.67,0,0,1,10.22.24,123,123,0,0,1,20,3.23,159.64,159.64,0,0,1,37.42,14.4,124.11,124.11,0,0,1,17,10.85,53.65,53.65,0,0,1,7.69,7.09,16.6,16.6,0,0,1,3.18,5.16,7.59,7.59,0,0,1,.41,2c0,.55,0,1,0,1.54a16.37,16.37,0,0,1-.46,3,22.74,22.74,0,0,1-5.58,9.67,52,52,0,0,1-7.85,6.79,143,143,0,0,1-17.19,10.22c-11.7,6.12-23.71,11.35-35.18,17.54A107.53,107.53,0,0,0,486,237.13a38.61,38.61,0,0,0-6.76,6.82,17.59,17.59,0,0,0-3.61,8.72Z"/><path class="cls-3" d="M468.12,247.66c2.32-18.37,18.53-43,14.33-46.36-2.91-2.28-17.13,2.71-31,10a13.38,13.38,0,0,0-1.73,22.55Z"/><path class="cls-1" d="M453.17,181.67c12.83,14.66,9.21,65,51.08,76.63,6.74,1.86,24.52-2.49,43.82-24.94,19.47-22.66,17.49-42.41,17.49-54.69"/><path class="cls-2" d="M453.47,181.41a24.69,24.69,0,0,1,3.72,5.47,58.71,58.71,0,0,1,2.68,6c1.55,4.09,2.85,8.24,4.18,12.36,2.65,8.23,5.43,16.41,9.4,23.88s9.12,14.21,15.8,18.94A44.82,44.82,0,0,0,500,253.76c1,.36,1.93.68,2.91,1,.49.15,1,.27,1.48.41.24.06.52.15.71.19s.34.09.54.11a16,16,0,0,0,5.36-.29,39.65,39.65,0,0,0,11.15-4.31,67.37,67.37,0,0,0,10.18-7,93.18,93.18,0,0,0,9.08-8.6c1.42-1.54,2.82-3.11,4.14-4.74s2.56-3.26,3.72-5a69.1,69.1,0,0,0,10.5-22,71.36,71.36,0,0,0,2.11-12.1c.17-2.07.3-4.16.4-6.29s.14-4.29.29-6.51h5.92c.15,2.12.29,4.29.39,6.5s.16,4.45.08,6.7a66.8,66.8,0,0,1-1.67,13.58,63.13,63.13,0,0,1-4.57,13c-1,2.05-2.11,4.08-3.31,6-.59,1-1.22,1.93-1.85,2.88s-1.3,1.87-2,2.76c-1.36,1.82-2.81,3.56-4.3,5.24s-3,3.33-4.56,4.93a99.78,99.78,0,0,1-10,9,73.22,73.22,0,0,1-11.41,7.42,46.18,46.18,0,0,1-13.14,4.67,21.92,21.92,0,0,1-7.57.15,10.52,10.52,0,0,1-1.05-.24c-.33-.08-.56-.17-.85-.26-.54-.17-1.09-.33-1.63-.53-1.08-.37-2.15-.78-3.21-1.22a49.16,49.16,0,0,1-21.29-16.75,66.94,66.94,0,0,1-6.76-11.6c-3.7-8.1-6-16.59-8.16-25-1.08-4.2-2.13-8.4-3.4-12.5s-2.75-8.19-5.38-11.53Z"/><path class="cls-1" d="M164.73,252.64c-1.95-29.3-91.75-46.72-90.33-74.52.54-10.53,51.46-42.52,95.95-39.16,44.89,3.39,63,20.23,76.09,33.31"/><path class="cls-2" d="M164.33,252.67a17.59,17.59,0,0,0-3.61-8.72,39,39,0,0,0-6.76-6.82,107.53,107.53,0,0,0-16.35-10.49c-11.47-6.19-23.48-11.42-35.18-17.54a143,143,0,0,1-17.19-10.22,52,52,0,0,1-7.85-6.79,22.74,22.74,0,0,1-5.58-9.67,16.37,16.37,0,0,1-.46-3c0-.52,0-1,0-1.54a7.59,7.59,0,0,1,.41-2,16.6,16.6,0,0,1,3.18-5.16,53.65,53.65,0,0,1,7.69-7.09,124.11,124.11,0,0,1,17-10.85,159.64,159.64,0,0,1,37.42-14.4,123,123,0,0,1,20-3.23,96.67,96.67,0,0,1,10.22-.24c3.45.15,6.75.31,10.09.63A117.64,117.64,0,0,1,197.24,139c3.27.86,6.49,1.92,9.67,3.1a84.82,84.82,0,0,1,9.34,4.07,82.63,82.63,0,0,1,16.87,11.21A98.61,98.61,0,0,1,246.73,172l-.57.57a192.16,192.16,0,0,0-15.76-11.5,102.6,102.6,0,0,0-17-8.63c-11.77-4.7-24.3-7.09-37-8.81-1.59-.22-3.18-.4-4.78-.58s-3.14-.32-4.71-.38a90.12,90.12,0,0,0-9.44,0,115,115,0,0,0-18.83,2.71,151.86,151.86,0,0,0-36,13.24,117.76,117.76,0,0,0-16.25,10,47.1,47.1,0,0,0-6.83,6.12,11.17,11.17,0,0,0-2.07,3.08,3.66,3.66,0,0,0-.1.39,8.92,8.92,0,0,0,0,.91,10,10,0,0,0,.21,1.88,17.07,17.07,0,0,0,4,7.29,45.91,45.91,0,0,0,6.78,6.3,137.64,137.64,0,0,0,16.2,10.46c11.33,6.41,23.1,12.28,34.41,19.09a110.36,110.36,0,0,1,16.17,11.5,38.81,38.81,0,0,1,6.64,7.48,18.68,18.68,0,0,1,3.31,9.43Z"/><path class="cls-3" d="M171.88,247.66c-2.32-18.37-18.53-43-14.33-46.36,2.91-2.28,17.13,2.71,31,10a13.38,13.38,0,0,1,1.73,22.55Z"/><path class="cls-1" d="M186.83,181.67c-12.83,14.66-9.21,65-51.08,76.63-6.74,1.86-24.52-2.49-43.82-24.94C72.46,210.7,74.44,191,74.44,178.67"/><path class="cls-2" d="M187.13,181.93c-2.63,3.34-4.08,7.46-5.38,11.53s-2.32,8.3-3.4,12.5c-2.16,8.39-4.46,16.88-8.16,25a66.94,66.94,0,0,1-6.76,11.6,49.16,49.16,0,0,1-21.29,16.75c-1.06.44-2.13.85-3.22,1.22-.53.2-1.08.36-1.62.53-.29.09-.52.18-.85.26a10.52,10.52,0,0,1-1,.24,21.92,21.92,0,0,1-7.57-.15,46.18,46.18,0,0,1-13.14-4.67,73.22,73.22,0,0,1-11.41-7.42,99.78,99.78,0,0,1-10-9c-1.57-1.6-3.07-3.25-4.56-4.93s-2.94-3.42-4.3-5.24c-.71-.89-1.35-1.84-2-2.76s-1.26-1.9-1.85-2.88c-1.2-1.94-2.28-4-3.31-6a63.13,63.13,0,0,1-4.57-13A66.8,66.8,0,0,1,71,191.87c-.08-2.25,0-4.5.08-6.7s.24-4.38.39-6.5H77.4c.15,2.22.19,4.38.29,6.51s.23,4.22.4,6.29a71.36,71.36,0,0,0,2.11,12.1,69.1,69.1,0,0,0,10.5,22c1.15,1.71,2.44,3.34,3.72,5s2.72,3.2,4.14,4.74a93.18,93.18,0,0,0,9.08,8.6,67.37,67.37,0,0,0,10.18,7A39.65,39.65,0,0,0,129,255.15a16,16,0,0,0,5.36.29c.2,0,.35-.08.53-.11s.48-.13.72-.19c.49-.14,1-.26,1.48-.41,1-.29,1.95-.61,2.91-1a44.82,44.82,0,0,0,10.78-5.68c6.68-4.73,11.9-11.46,15.8-18.94s6.75-15.65,9.4-23.88c1.33-4.12,2.63-8.27,4.18-12.36a58.71,58.71,0,0,1,2.68-6,24.69,24.69,0,0,1,3.72-5.47Z"/></g></svg>