<svg xmlns="http://www.w3.org/2000/svg" viewBox="0 0 320 160"><defs><style>.cls-1{fill:blue;}.cls-2{fill:#0d0a09;}</style></defs><g id="Eyes"><path class="cls-1" d="M192.69,100.16c5.06,8.7,1.28,14.33-5.23,18.11s-13.26,4.31-18.33-4.39"/><path class="cls-2" d="M193.77,99.53a16,16,0,0,1,3,5.16,11.78,11.78,0,0,1,.29,6.55,13.24,13.24,0,0,1-3.27,5.78,22.91,22.91,0,0,1-10.56,6.07,13.15,13.15,0,0,1-6.59-.08,11.45,11.45,0,0,1-5.44-3.51,15.63,15.63,0,0,1-2.91-5.13,1,1,0,0,1,1.64-1l0,0a22.87,22.87,0,0,0,3.76,3.33,8.42,8.42,0,0,0,4,1.53c2.65.32,5.53-.82,8.32-2.47s5.15-3.64,6.12-6.06a8.62,8.62,0,0,0,.56-4.12,22.75,22.75,0,0,0-1.09-4.81v-.06a1.27,1.27,0,0,1,2.18-1.2Z"/><path class="cls-1" d="M127.31,100.16c-5.06,8.7-1.28,14.33,5.23,18.11s13.26,4.31,18.33-4.39"/><path class="cls-2" d="M128.4,100.79a22.75,22.75,0,0,0-1.09,4.81,8.62,8.62,0,0,0,.56,4.12c1,2.42,3.33,4.41,6.12,6.06s5.67,2.79,8.32,2.47a8.42,8.42,0,0,0,4-1.53,22.87,22.87,0,0,0,3.76-3.33l0,0a1,1,0,0,1,1.39,0,1,1,0,0,1,.25,1,15.63,15.63,0,0,1-2.91,5.13,11.45,11.45,0,0,1-5.44,3.51,13.15,13.15,0,0,1-6.59.08A22.91,22.91,0,0,1,126.21,117a13.24,13.24,0,0,1-3.27-5.78,11.78,11.78,0,0,1,.29-6.55,16,16,0,0,1,3-5.16,1.28,1.28,0,0,1,2.19,1.2Z"/><path class="cls-1" d="M182.91,108.46c0,16.91-10.26,21.88-22.91,21.88s-22.91-5-22.91-21.88"/><path class="cls-2" d="M184.16,108.46a28.36,28.36,0,0,1-.52,9.59,20.67,20.67,0,0,1-1.81,4.73,13.44,13.44,0,0,1-1.42,2.19l-.81,1c-.28.34-.61.63-.92,1a21,21,0,0,1-8.94,5.06,38.35,38.35,0,0,1-19.46-.07,20.8,20.8,0,0,1-8.87-5.1c-.3-.31-.62-.61-.9-.94l-.8-1a14.28,14.28,0,0,1-1.38-2.18,20.32,20.32,0,0,1-1.77-4.7,28.2,28.2,0,0,1-.43-9.53,1,1,0,0,1,1.92,0v0a35.55,35.55,0,0,0,2.08,8.39,15.69,15.69,0,0,0,4.56,6.42c4,3.31,9.64,4.2,15.3,4.18s11.31-1,15.2-4.28a15.74,15.74,0,0,0,4.46-6.38,35.48,35.48,0,0,0,2-8.33v0a1.26,1.26,0,0,1,2.5,0Z"/></g></svg>