<svg xmlns="http://www.w3.org/2000/svg" viewBox="0 0 640 160"><defs><style>.cls-1{fill:#000050;}.cls-2{fill:#0d0a09;}</style></defs><g id="Eyes"><path class="cls-1" d="M176,100.15c-2.95,5,2.47,18.37,24.19,16,17-1.84,42.64-12.2,42-17.94s-14.87-8.9-31.83-7.06S179.61,94,176,100.15Z"/><path class="cls-1" d="M464,100.15c3,5-2.47,18.37-24.19,16-17-1.84-42.64-12.2-42-17.94s14.87-8.9,31.83-7.06S460.39,94,464,100.15Z"/><path class="cls-2" d="M191.41,69.6s21.42.59,34.56,7.08a1.37,1.37,0,0,1-.48,2.6,141.57,141.57,0,0,0-30.42,7.28c-6.61,2.5-14.06,7.13-18,9.36-1.33.75-3-.09-2.78-1.33,1-4.82,6.66-11,13.51-13.59a36.07,36.07,0,0,0-17.71,1.29c-1.53.54-3.25-.46-2.7-1.62C169.48,76.14,175.57,70.27,191.41,69.6Z"/><path class="cls-2" d="M448.59,69.6s-21.42.59-34.56,7.08a1.37,1.37,0,0,0,.48,2.6,141.57,141.57,0,0,1,30.42,7.28c6.61,2.5,14.06,7.13,18,9.36,1.33.75,3-.09,2.78-1.33-1-4.82-6.66-11-13.51-13.59a36.07,36.07,0,0,1,17.71,1.29c1.53.54,3.25-.46,2.7-1.62C470.52,76.14,464.43,70.27,448.59,69.6Z"/></g></svg>