<svg xmlns="http://www.w3.org/2000/svg" viewBox="0 0 320 160"><defs><style>.cls-1{fill:red;}.cls-2{fill:#0d0a09;}.cls-3{fill:#fff;}</style></defs><g id="Eyes"><path class="cls-1" d="M177.68,83.52c0,5.54-5.69,17.24-10.61,26.34a8,8,0,0,1-14.14,0c-4.92-9.1-10.61-20.8-10.61-26.34a17.68,17.68,0,0,1,35.36,0Z"/><path class="cls-2" d="M160,115.57a9.42,9.42,0,0,1-8.39-5c-7.16-13.22-10.79-22.32-10.79-27a19.18,19.18,0,0,1,38.36,0c0,4.73-3.63,13.83-10.79,27.05A9.42,9.42,0,0,1,160,115.57Zm0-48.23a16.2,16.2,0,0,0-16.18,16.18c0,4.1,3.7,13.2,10.43,25.62a6.53,6.53,0,0,0,11.5,0c6.73-12.42,10.43-21.52,10.43-25.62A16.2,16.2,0,0,0,160,67.34Z"/><path class="cls-1" d="M149.77,138.74c0-3.2,3.29-10,6.14-15.23a4.65,4.65,0,0,1,8.18,0c2.85,5.26,6.14,12,6.14,15.23a10.23,10.23,0,0,1-20.46,0Z"/><path class="cls-2" d="M160,150.47a11.74,11.74,0,0,1-11.73-11.73c0-2.84,2.13-8.2,6.32-16a6.15,6.15,0,0,1,10.82,0c4.19,7.75,6.32,13.11,6.32,16A11.74,11.74,0,0,1,160,150.47Zm0-27.9a3.11,3.11,0,0,0-2.77,1.65c-5.19,9.58-6,13.21-6,14.52a8.73,8.73,0,0,0,17.46,0c0-1.31-.77-4.94-6-14.52A3.11,3.11,0,0,0,160,122.57Z"/><rect class="cls-3" x="149.25" y="108.84" width="21.49" height="15.93" rx="5.33"/><path class="cls-2" d="M165.42,126.28H154.58a6.84,6.84,0,0,1-6.82-6.83v-5.28a6.83,6.83,0,0,1,6.82-6.83h10.84a6.83,6.83,0,0,1,6.82,6.83v5.28A6.84,6.84,0,0,1,165.42,126.28Zm-10.84-15.94a3.83,3.83,0,0,0-3.82,3.83v5.28a3.83,3.83,0,0,0,3.82,3.83h10.84a3.83,3.83,0,0,0,3.82-3.83v-5.28a3.83,3.83,0,0,0-3.82-3.83Z"/><path class="cls-2" d="M160,119.31a10.9,10.9,0,0,1-2.47,1,13.92,13.92,0,0,1-2.64.47,4.52,4.52,0,0,1-1.32-.09c-.44-.08-.87-.1-1.3-.14l-2.56-.25h0a1,1,0,0,1,.19-1.93h0c.84.12,1.66.22,2.48.26a6.32,6.32,0,0,0,1.23,0,6.19,6.19,0,0,1,1.21-.07c.8,0,1.6,0,2.4,0s1.61-.11,2.44-.2h0a.48.48,0,0,1,.3.89Z"/><path class="cls-2" d="M160.36,113.63c.83.09,1.63.17,2.44.19s1.6,0,2.4,0a7.1,7.1,0,0,1,1.21.08,6.32,6.32,0,0,0,1.23,0c.82,0,1.64-.14,2.48-.26a1,1,0,1,1,.28,1.91h-.06l-2.56.25c-.43,0-.86.06-1.3.14a4.52,4.52,0,0,1-1.32.09,13.19,13.19,0,0,1-2.64-.48,10.87,10.87,0,0,1-2.47-1,.48.48,0,0,1-.17-.66.44.44,0,0,1,.46-.23Z"/><path class="cls-2" d="M164.78,100.2a60.44,60.44,0,0,0,2-7.36,58.15,58.15,0,0,0,1.06-7.52,68.79,68.79,0,0,0,.49-7.61c0-2.55-.09-5.12-.24-7.69a1,1,0,0,1,1.93-.12v0c.08,2.58.23,5.17.24,7.77s.1,5.23-.21,7.84a53.13,53.13,0,0,1-1.59,7.72,44.08,44.08,0,0,1-2.84,7.31.47.47,0,0,1-.87-.37Z"/><path class="cls-2" d="M154.35,90.14a30.86,30.86,0,0,1-3.25-10.36,51.84,51.84,0,0,1-.1-5.43c0-1.8.11-3.59.16-5.36a1,1,0,1,1,1.93.05v0c-.12,1.77-.17,3.53-.17,5.28a45,45,0,0,0,.38,5.2A40.57,40.57,0,0,0,154,84.7a47.56,47.56,0,0,0,1.27,5.07.48.48,0,0,1-.31.6A.49.49,0,0,1,154.35,90.14Z"/></g></svg>