<svg xmlns="http://www.w3.org/2000/svg" viewBox="0 0 640 160"><defs><style>.cls-1{fill:#fffade;}.cls-2{fill:#0d0a09;}</style></defs><g id="Kitchen_Sink" data-name="Kitchen Sink"><path class="cls-1" d="M310.6,86.15l-14.08-1.64A12.18,12.18,0,0,1,285.75,72L280.1,30.85h41.23V76.6A9.62,9.62,0,0,1,310.6,86.15Z"/><path class="cls-2" d="M311.71,89.21a14.09,14.09,0,0,1-1.45-.08l-14.09-1.64a15.29,15.29,0,0,1-13.43-15.3l-6.08-44.34h47.67V76.6a12.61,12.61,0,0,1-12.62,12.61ZM283.54,33.85l5.22,38v.25a9.23,9.23,0,0,0,8.11,9.41L311,83.17a6.62,6.62,0,0,0,7.38-6.57V33.85Z"/><path class="cls-1" d="M336,87.59l-4.1-.47a12.19,12.19,0,0,1-10.77-12.49l-4.25-31a9,9,0,0,1,8.86-10.17h22a9,9,0,0,1,8.95,8.95V69.16A18.55,18.55,0,0,1,336,87.59Z"/><path class="cls-2" d="M338.14,90.72a20.63,20.63,0,0,1-2.48-.15l-4.11-.47a15.28,15.28,0,0,1-13.42-15.3L313.9,44a12,12,0,0,1,11.84-13.58h22a12,12,0,0,1,11.95,12V69.16a21.56,21.56,0,0,1-21.57,21.56Zm-12.4-54.27a6,6,0,0,0-5.89,6.76l4.29,31.26v.26a9.23,9.23,0,0,0,8.11,9.41l4.11.47a15.55,15.55,0,0,0,17.36-15.45V42.4a6,6,0,0,0-5.95-5.95Z"/></g></svg>