<svg xmlns="http://www.w3.org/2000/svg" viewBox="0 0 640 160"><defs><style>.cls-1{fill:#fffade;}.cls-2{fill:#0d0a09;}</style></defs><g id="Kitchen_Sink" data-name="Kitchen Sink"><path class="cls-1" d="M438.35,102.39c8.26-9.19,15.13-18,16.95-36.54.58-6-1.39-11.52-5.36-14.76a18.4,18.4,0,0,0-13.08-4.2c-16.39,1-16.07,11.64-16.07,11.64s7.56,22.24,6.49,39.06C426.84,104.37,433.83,107.43,438.35,102.39Z"/><path class="cls-2" d="M436.94,101.12a108,108,0,0,0,7.39-8.75,45.53,45.53,0,0,0,5.57-9.81,45.73,45.73,0,0,0,2.8-11c.1-.95.25-1.89.3-2.83a25,25,0,0,0,0-2.87A13.33,13.33,0,0,0,451.48,61a35.78,35.78,0,0,0-2.27-3.84,16.36,16.36,0,0,0-1.2-1.58,15,15,0,0,0-1.44-1.42,15.14,15.14,0,0,0-8.24-4A12.29,12.29,0,0,0,437.1,50h-1.33a22.57,22.57,0,0,0-2.62.27,15.29,15.29,0,0,0-4.73,1.54A9.33,9.33,0,0,0,425,54.76a8.55,8.55,0,0,0-1,1.88,7.47,7.47,0,0,0-.28,1,4.63,4.63,0,0,0-.09.49l0,.22s0,.18,0,.09l-.15-.84A136.24,136.24,0,0,1,427,71.53a129.75,129.75,0,0,1,2.18,14.18l.17,1.8.09,1.8.09,1.81v1.82c0,1.21,0,2.43-.09,3.65l-.07,1.65a7,7,0,0,0,.12,1.3,4.06,4.06,0,0,0,3,3.28A4.76,4.76,0,0,0,436.94,101.12Zm2.83,2.54a9.78,9.78,0,0,1-3.51,2.58,7.79,7.79,0,0,1-8.69-1.75,8.78,8.78,0,0,1-2.16-4,11.81,11.81,0,0,1-.27-2.19l0-1.87c0-1.12.05-2.25,0-3.38l-.06-1.7L425,89.61l-.15-1.7-.21-1.7A123.83,123.83,0,0,0,422,72.66c-1.12-4.46-2.55-8.93-4-13.21l-.14-.43v-.41c0-.32,0-.44,0-.63l.05-.51c0-.32.08-.64.14-.95a12.06,12.06,0,0,1,.49-1.81,13.33,13.33,0,0,1,1.72-3.28,15.64,15.64,0,0,1,5.41-4.61A26,26,0,0,1,432,44.58l1.58-.33,1.57-.27,1.58-.23c.56,0,1.11-.13,1.68-.15a23.49,23.49,0,0,1,6.95.54A19.6,19.6,0,0,1,451.91,47,15.91,15.91,0,0,1,457,52.58a14.77,14.77,0,0,1,1.31,3.49,15.77,15.77,0,0,1,.36,3.6,26.74,26.74,0,0,1-1.13,6.69c-.29,1-.53,2-.72,2.93s-.42,2-.62,2.94a74.64,74.64,0,0,1-3.48,11.47,58.34,58.34,0,0,1-5.61,10.63A91.26,91.26,0,0,1,439.77,103.66Z"/><path class="cls-1" d="M201.65,102.39c-8.26-9.19-15.13-18-17-36.54-.58-6,1.39-11.52,5.36-14.76a18.4,18.4,0,0,1,13.08-4.2c16.39,1,16.07,11.64,16.07,11.64s-7.56,22.24-6.49,39.06C213.16,104.37,206.17,107.43,201.65,102.39Z"/><path class="cls-2" d="M200.23,103.66a91.26,91.26,0,0,1-7.36-9.33,58.34,58.34,0,0,1-5.61-10.63,74.64,74.64,0,0,1-3.48-11.47c-.2-1-.39-2-.62-2.94s-.43-2-.72-2.93a26.74,26.74,0,0,1-1.13-6.69,15.77,15.77,0,0,1,.36-3.6A14.77,14.77,0,0,1,183,52.58,15.91,15.91,0,0,1,188.09,47a19.6,19.6,0,0,1,6.55-2.83,23.49,23.49,0,0,1,7-.54c.57,0,1.12.11,1.68.15l1.58.23,1.57.27,1.58.33a26,26,0,0,1,6.26,2.24,15.64,15.64,0,0,1,5.41,4.61,13.33,13.33,0,0,1,1.72,3.28,12.06,12.06,0,0,1,.49,1.81c.06.31.11.63.14.95l0,.51c0,.19,0,.31,0,.63V59l-.14.43c-1.42,4.28-2.85,8.75-4,13.21a121.54,121.54,0,0,0-2.57,13.55l-.21,1.7-.15,1.7-.14,1.71-.06,1.7c-.07,1.13-.05,2.26,0,3.38l0,1.87a11.81,11.81,0,0,1-.27,2.19,8.78,8.78,0,0,1-2.16,4,7.79,7.79,0,0,1-8.69,1.75A9.78,9.78,0,0,1,200.23,103.66Zm2.83-2.54a4.76,4.76,0,0,0,4.46,1.7,4.06,4.06,0,0,0,3-3.28,7,7,0,0,0,.12-1.3l-.07-1.65c-.06-1.22-.13-2.44-.09-3.65V91.12l.09-1.81.09-1.8.17-1.8A129.75,129.75,0,0,1,213,71.53a136.24,136.24,0,0,1,3.47-13.93l-.15.84c0,.09,0,0,0-.09l0-.22a4.63,4.63,0,0,0-.09-.49,7.47,7.47,0,0,0-.28-1,8.55,8.55,0,0,0-1-1.88,9.33,9.33,0,0,0-3.39-2.92,15.29,15.29,0,0,0-4.73-1.54,22.57,22.57,0,0,0-2.62-.27H202.9c-.41,0-.83,0-1.23.08a15.14,15.14,0,0,0-8.24,4A15,15,0,0,0,192,55.55a16.36,16.36,0,0,0-1.2,1.58A37.52,37.52,0,0,0,188.52,61,13.33,13.33,0,0,0,187,65.9a25,25,0,0,0,0,2.87c.05.94.2,1.88.3,2.83a45.73,45.73,0,0,0,2.8,11,45.53,45.53,0,0,0,5.57,9.81A108,108,0,0,0,203.06,101.12Z"/></g></svg>