<svg xmlns="http://www.w3.org/2000/svg" viewBox="0 0 640 320"><defs><style>.cls-1{fill:blue;}.cls-2{fill:#1d1d1b;}.cls-3{fill:#fffade;}.cls-4{fill:#0d0a09;}</style></defs><g id="Eyes"><path class="cls-1" d="M462.05,193s73.58,38.86,79.62,102.56a8.71,8.71,0,0,1-8,9.57c-16,1.08-51.55-2.93-77.22-52.81"/><path class="cls-2" d="M462.28,192.51A186.35,186.35,0,0,1,488.68,209q6.27,4.65,12.21,9.77t11.41,10.78c3.63,3.78,7.11,7.73,10.39,11.86.82,1,1.59,2.1,2.39,3.16l1.19,1.58,1.13,1.63,2.25,3.29,2.11,3.37a100.4,100.4,0,0,1,12.14,29.6l.79,4c.3,1.32.4,2.67.6,4l.27,2,.13,1c0,.4,0,.92.07,1.37a12.84,12.84,0,0,1-1.24,5.48,12.63,12.63,0,0,1-8.55,6.9,9.53,9.53,0,0,1-1.4.24l-.69.08-.52,0-2.06.07c-1.37.07-2.74,0-4.11,0a70.56,70.56,0,0,1-31.1-9,69.52,69.52,0,0,1-6.81-4.34c-1.09-.79-2.19-1.56-3.26-2.36L483,290.9l-1.51-1.31-.76-.66-.7-.71-2.8-2.84a67.42,67.42,0,0,1-5.23-6,120.61,120.61,0,0,1-16-26.9l.89-.46a149,149,0,0,0,18.47,24.41,85.78,85.78,0,0,0,23.88,17.81,34.91,34.91,0,0,0,3.36,1.52l1.7.72a13.64,13.64,0,0,0,1.71.65l3.49,1.16c1.16.39,2.37.62,3.55.94a64.06,64.06,0,0,0,14.43,1.92c1.22,0,2.43.06,3.64,0l1.81-.08.45,0,.27,0a2.75,2.75,0,0,0,.5-.09,4.62,4.62,0,0,0,3.07-2.54,4.79,4.79,0,0,0,.48-2l0-.57-.12-.91-.23-1.84c-.18-1.22-.24-2.45-.51-3.66l-.7-3.63c-4.12-19.35-14.22-37.43-27.48-52.84q-5-5.77-10.45-11.17t-11.38-10.32q-5.88-5-12.14-9.48c-4.15-3-8.41-6-12.81-8.57Z"/><path class="cls-1" d="M178,193s-73.58,38.86-79.62,102.56a8.71,8.71,0,0,0,8,9.57c16,1.08,51.55-2.93,77.22-52.81"/><path class="cls-2" d="M178.18,193.39c-4.4,2.62-8.66,5.55-12.81,8.57s-8.22,6.18-12.14,9.48-7.72,6.75-11.38,10.32-7.12,7.32-10.45,11.17c-13.26,15.41-23.36,33.49-27.48,52.84l-.7,3.63c-.27,1.21-.33,2.44-.51,3.66l-.23,1.84-.12.91,0,.57a4.79,4.79,0,0,0,.48,2,4.62,4.62,0,0,0,3.07,2.54,2.75,2.75,0,0,0,.5.09l.27,0,.45,0,1.81.08c1.21.07,2.42,0,3.63,0A64.07,64.07,0,0,0,127,299.25c1.18-.32,2.39-.55,3.55-.94l3.48-1.16a13.21,13.21,0,0,0,1.72-.65l1.7-.72a34.91,34.91,0,0,0,3.36-1.52,85.78,85.78,0,0,0,23.88-17.81A149,149,0,0,0,183.15,252l.89.46a120.61,120.61,0,0,1-16,26.9,67.42,67.42,0,0,1-5.23,6l-2.8,2.84-.7.71-.76.66L157,290.9,154,293.5c-1.07.8-2.17,1.57-3.26,2.36a69.52,69.52,0,0,1-6.81,4.34,70.56,70.56,0,0,1-31.1,9c-1.37,0-2.74.09-4.11,0l-2.06-.07-.52,0-.69-.08a9.53,9.53,0,0,1-1.4-.24,12.63,12.63,0,0,1-8.55-6.9,12.84,12.84,0,0,1-1.24-5.48c0-.45,0-1,.07-1.37l.13-1,.27-2c.2-1.33.3-2.68.6-4l.79-4a100.4,100.4,0,0,1,12.14-29.6l2.11-3.37,2.25-3.29,1.13-1.63,1.19-1.58c.8-1.06,1.57-2.12,2.39-3.16,3.28-4.13,6.76-8.08,10.39-11.86s7.47-7.35,11.41-10.78,8-6.67,12.21-9.77a186.35,186.35,0,0,1,26.4-16.51Z"/></g><g id="Kitchen_Sink" data-name="Kitchen Sink"><path class="cls-3" d="M142.61,125.11c.46,22.37,2.25,42.49,22.84,69.31,6.61,8.61,16.1,13.51,25.36,12.87a33.24,33.24,0,0,0,22.49-10.62c20.42-21.65,6.85-35.29,6.85-35.29s-37.53-20.06-57-43.65C155.38,108.23,142.36,112.83,142.61,125.11Z"/><path class="cls-4" d="M144.52,125.07A176.82,176.82,0,0,0,145.73,146a86.05,86.05,0,0,0,5,20.12,91.67,91.67,0,0,0,9.81,18.31A62.72,62.72,0,0,0,167,192.6a30.27,30.27,0,0,0,7.78,5.93,40,40,0,0,0,8.48,3.4,27.7,27.7,0,0,0,4.28.78,24.74,24.74,0,0,0,4.39,0,33.39,33.39,0,0,0,9.05-1.88,26.42,26.42,0,0,0,4.26-2,25.38,25.38,0,0,0,3.93-2.7c.63-.5,1.22-1,1.81-1.6l1.76-1.8c.57-.61,1.11-1.24,1.66-1.88s1-1.3,1.53-2a30.81,30.81,0,0,0,4.62-8.53,19.4,19.4,0,0,0,1-9.1,17.77,17.77,0,0,0-1.21-4.32,16,16,0,0,0-1-2c-.19-.31-.4-.61-.61-.9s-.21-.29-.31-.41l-.25-.3.68.51c-7.58-4.23-14.74-8.86-21.8-13.76a234.18,234.18,0,0,1-20.39-15.75c-3.24-2.83-6.38-5.8-9.37-8.93-1.49-1.57-3-3.17-4.36-4.83-.7-.83-1.43-1.7-2-2.35a13.43,13.43,0,0,0-2.06-1.79,10.11,10.11,0,0,0-4.89-1.79,8.46,8.46,0,0,0-4.92,1.17,8.84,8.84,0,0,0-3.41,3.84A12.26,12.26,0,0,0,144.52,125.07Zm-3.81.08a16.26,16.26,0,0,1,1.34-7.06,12.78,12.78,0,0,1,4.87-5.61,12.48,12.48,0,0,1,7.26-1.85,14.22,14.22,0,0,1,7,2.41,18.42,18.42,0,0,1,2.78,2.34c.85.93,1.49,1.69,2.17,2.48,1.35,1.57,2.79,3.08,4.25,4.57,2.93,3,6,5.78,9.24,8.48a220.94,220.94,0,0,0,20.25,15c7,4.61,14.32,9,21.64,12.92l.41.21.27.29c.3.31.44.48.62.7s.34.42.5.63c.31.43.61.85.87,1.29a20,20,0,0,1,1.43,2.71,21.66,21.66,0,0,1,1.64,5.83,25.81,25.81,0,0,1-1.32,11.72,35,35,0,0,1-2.31,5.27,47.08,47.08,0,0,1-2.92,4.84c-.54.76-1.1,1.51-1.65,2.26s-1.16,1.45-1.73,2.18l-1.79,2.11c-.66.69-1.27,1.43-2,2.1a38.39,38.39,0,0,1-9.38,7,36.72,36.72,0,0,1-5.48,2.31,36,36,0,0,1-5.79,1.32,29.84,29.84,0,0,1-6.16.22,28.22,28.22,0,0,1-6.09-1.22,27,27,0,0,1-5.54-2.54,31.28,31.28,0,0,1-4.72-3.63,43.94,43.94,0,0,1-7.09-9c-1.88-3.06-3.87-6-5.76-9.06a119.81,119.81,0,0,1-9.66-19.16,98,98,0,0,1-5.53-20.74A173.84,173.84,0,0,1,140.71,125.15Z"/><path class="cls-3" d="M497.39,125.11c-.46,22.37-2.25,42.49-22.84,69.31-6.61,8.61-16.1,13.51-25.36,12.87a33.24,33.24,0,0,1-22.49-10.62c-20.42-21.65-6.85-35.29-6.85-35.29s37.53-20.06,56.95-43.65C484.62,108.23,497.64,112.83,497.39,125.11Z"/><path class="cls-4" d="M499.29,125.15a173.84,173.84,0,0,1-1.64,21.29,98,98,0,0,1-5.53,20.74,119.81,119.81,0,0,1-9.66,19.16c-1.89,3-3.88,6-5.76,9.06a43.94,43.94,0,0,1-7.09,9,31.28,31.28,0,0,1-4.72,3.63,27,27,0,0,1-5.54,2.54,28.22,28.22,0,0,1-6.09,1.22,29.84,29.84,0,0,1-6.16-.22,36,36,0,0,1-5.79-1.32,36.72,36.72,0,0,1-5.48-2.31,38.39,38.39,0,0,1-9.38-7c-.7-.67-1.31-1.41-2-2.1l-1.79-2.11c-.57-.73-1.14-1.47-1.73-2.18s-1.11-1.5-1.65-2.26a47.08,47.08,0,0,1-2.92-4.84,35,35,0,0,1-2.31-5.27,25.81,25.81,0,0,1-1.32-11.72,21.66,21.66,0,0,1,1.64-5.83,19,19,0,0,1,1.43-2.71c.26-.44.56-.86.87-1.29.16-.21.32-.42.5-.63s.32-.39.62-.7l.27-.29.41-.21c7.32-4,14.61-8.31,21.64-12.92a220.94,220.94,0,0,0,20.25-15c3.21-2.7,6.31-5.52,9.24-8.48,1.46-1.49,2.9-3,4.25-4.57.68-.79,1.32-1.55,2.17-2.48a18.42,18.42,0,0,1,2.78-2.34,14.22,14.22,0,0,1,7-2.41,12.48,12.48,0,0,1,7.26,1.85,12.78,12.78,0,0,1,4.87,5.61A16.26,16.26,0,0,1,499.29,125.15Zm-3.81-.08a12.26,12.26,0,0,0-1.08-5.35,8.84,8.84,0,0,0-3.41-3.84,8.46,8.46,0,0,0-4.92-1.17,10.11,10.11,0,0,0-4.89,1.79,13.43,13.43,0,0,0-2.06,1.79c-.57.65-1.3,1.52-2,2.35-1.4,1.66-2.87,3.26-4.36,4.83-3,3.13-6.13,6.1-9.37,8.93A234.18,234.18,0,0,1,443,150.15c-7.06,4.9-14.22,9.53-21.8,13.76l.68-.51-.25.3c-.1.12-.21.27-.31.41s-.42.59-.61.9a16,16,0,0,0-1,2,17.77,17.77,0,0,0-1.21,4.32,19.4,19.4,0,0,0,1,9.1,30.81,30.81,0,0,0,4.62,8.53c.5.66,1,1.31,1.53,2s1.09,1.27,1.66,1.88l1.76,1.8c.59.55,1.18,1.1,1.82,1.6a24.83,24.83,0,0,0,3.92,2.7,26.42,26.42,0,0,0,4.26,2,33.39,33.39,0,0,0,9,1.88,24.74,24.74,0,0,0,4.39,0,27.7,27.7,0,0,0,4.28-.78,40,40,0,0,0,8.48-3.4A30.27,30.27,0,0,0,473,192.6a62.72,62.72,0,0,0,6.44-8.21,91.16,91.16,0,0,0,9.81-18.31,86.05,86.05,0,0,0,5-20.12A176.82,176.82,0,0,0,495.48,125.07Z"/></g></svg>