<svg xmlns="http://www.w3.org/2000/svg" viewBox="0 0 640 320"><defs><style>.cls-1{fill:blue;}.cls-2{fill:#1d1d1b;}.cls-3{fill:#500000;}</style></defs><g id="Kitchen_Sink" data-name="Kitchen Sink"><path class="cls-1" d="M257.83,195.64C251,176.53,239.89,158.77,223.14,145c-19.95-16.77-47.12-26.28-73.9-26.54a165.82,165.82,0,0,0-68.65,14.32c-1.4.62-2.72,1.24-4.17,2a2.92,2.92,0,0,0-1.11,4.47,4.38,4.38,0,0,0,5.08,1.35c2.55-1.09,5.39-2.15,8.11-3.07,39.14-13.23,86.34-13.8,119.79,14.69,15.87,13.54,25.16,31.2,29.82,49.43"/><path class="cls-2" d="M257.27,195.84c-2-3.92-4-7.82-6-11.65-1-1.91-2.06-3.82-3.15-5.69-.56-.92-1.07-1.87-1.62-2.81l-1.7-2.76a107.77,107.77,0,0,0-16.07-20.22,110.53,110.53,0,0,0-44-26.43A122.55,122.55,0,0,0,159.38,121c-4.31-.39-8.62-.62-13-.58s-8.68.19-13,.59a167.07,167.07,0,0,0-50.35,12.71c-1,.41-2,.83-3,1.3l-2.89,1.36a1.12,1.12,0,0,0-.7,1,1.62,1.62,0,0,0,.8,1.25,2.72,2.72,0,0,0,1.88.41,1.5,1.5,0,0,0,.44-.12l.73-.27,1.57-.58,6.27-2.34A173.68,173.68,0,0,1,114,129.31a150.21,150.21,0,0,1,26.54-2.12A123.46,123.46,0,0,1,167,130.27a103,103,0,0,1,25,9.28,93.16,93.16,0,0,1,21.49,15.74,90,90,0,0,1,25,46.19.45.45,0,0,1-.86.23h0q-.52-1.56-1-3.12l-1.08-3.1c-.74-2-1.51-4.09-2.36-6.1a119.73,119.73,0,0,0-5.68-11.74,92.22,92.22,0,0,0-7.11-10.9,88.42,88.42,0,0,0-8.64-9.7,90.52,90.52,0,0,0-21-15.15,99.71,99.71,0,0,0-24.39-8.83,120,120,0,0,0-25.85-2.8,145.8,145.8,0,0,0-26,2.28A169.46,169.46,0,0,0,89.3,139l-6.06,2.31-1.52.58-.81.31a6,6,0,0,1-1.15.32,6.3,6.3,0,0,1-4.43-.93,5.24,5.24,0,0,1-2.45-4.18,4.68,4.68,0,0,1,.72-2.58,5.14,5.14,0,0,1,1.88-1.72l3.07-1.47c1-.5,2-.94,3.06-1.37a170.82,170.82,0,0,1,51.45-13.21c4.43-.43,8.89-.63,13.33-.66s8.93.16,13.38.54c2.21.28,4.45.45,6.65.84l3.31.53L173,119l1.64.33,1.63.39,3.26.8,3.22.92c1.07.31,2.15.62,3.2,1a114.6,114.6,0,0,1,45.58,27.41,112,112,0,0,1,16.66,21,88,88,0,0,1,6.09,11.92,74.82,74.82,0,0,1,4.1,12.69.61.61,0,0,1-.46.72A.6.6,0,0,1,257.27,195.84Z"/><circle class="cls-3" cx="65.62" cy="151.05" r="19.4"/><path class="cls-2" d="M82.88,141.08a20.19,20.19,0,0,1,2.41,15.24A20.63,20.63,0,0,1,68.37,172a20.92,20.92,0,0,1-8.26-.38,21.23,21.23,0,0,1-7.5-3.59,21,21,0,0,1-8.17-14.16,20.87,20.87,0,0,1,.63-8.29A20.73,20.73,0,0,1,55.17,133a20.7,20.7,0,0,1,15.72-1.59A20.17,20.17,0,0,1,82.88,141.08Zm-.93.54a18.68,18.68,0,0,0-11.57-8.36,18.11,18.11,0,0,0-21.69,13.25A17.84,17.84,0,0,0,61.08,168a18.09,18.09,0,0,0,22.33-12.16A18.64,18.64,0,0,0,82,141.62Z"/><path class="cls-1" d="M382.17,195.64c6.83-19.11,17.94-36.87,34.69-50.68,19.95-16.77,47.11-26.28,73.9-26.54a165.82,165.82,0,0,1,68.65,14.32c1.4.62,2.72,1.24,4.17,2a2.92,2.92,0,0,1,1.11,4.47,4.38,4.38,0,0,1-5.08,1.35c-2.55-1.09-5.39-2.15-8.11-3.07-39.14-13.23-86.34-13.8-119.79,14.69-15.87,13.54-25.16,31.2-29.82,49.43"/><path class="cls-2" d="M381.61,195.44a74.82,74.82,0,0,1,4.1-12.69,88,88,0,0,1,6.09-11.92,112,112,0,0,1,16.66-21A114.6,114.6,0,0,1,454,122.44c1-.37,2.13-.68,3.2-1l3.22-.92,3.26-.8,1.63-.39L467,119l3.28-.66,3.31-.53c2.2-.39,4.44-.56,6.65-.84,4.45-.38,8.93-.6,13.38-.54s8.9.23,13.33.66a170.82,170.82,0,0,1,51.45,13.21c1,.43,2.05.87,3.06,1.37l3.07,1.47a5.14,5.14,0,0,1,1.88,1.72,4.68,4.68,0,0,1,.72,2.58,5.24,5.24,0,0,1-2.45,4.18,6.3,6.3,0,0,1-4.43.93,6,6,0,0,1-1.15-.32l-.81-.31-1.52-.58L550.7,139a169.46,169.46,0,0,0-25.27-6.5,145.8,145.8,0,0,0-25.95-2.28,120,120,0,0,0-25.85,2.8,99.71,99.71,0,0,0-24.39,8.83,90.52,90.52,0,0,0-21,15.15,88.42,88.42,0,0,0-8.64,9.7,91,91,0,0,0-7.11,10.9,117.5,117.5,0,0,0-5.68,11.74c-.85,2-1.62,4.05-2.36,6.1l-1.08,3.1q-.49,1.56-1,3.12h0a.45.45,0,0,1-.86-.23,90.07,90.07,0,0,1,25-46.19A93.43,93.43,0,0,1,448,139.55a103,103,0,0,1,25-9.28,123.46,123.46,0,0,1,26.46-3.08A150.29,150.29,0,0,1,526,129.31a173.68,173.68,0,0,1,25.82,6.42l6.27,2.34,1.57.58.73.27a1.5,1.5,0,0,0,.44.12,2.72,2.72,0,0,0,1.88-.41,1.62,1.62,0,0,0,.8-1.25,1.14,1.14,0,0,0-.7-1L559.91,135c-1-.47-2-.89-3-1.3A167.07,167.07,0,0,0,506.59,121c-4.33-.4-8.66-.58-13-.59s-8.66.19-13,.58a122.55,122.55,0,0,0-25.34,5.29,110.53,110.53,0,0,0-44,26.43,107.77,107.77,0,0,0-16.07,20.22l-1.7,2.76c-.55.94-1.06,1.89-1.62,2.81-1.09,1.87-2.12,3.78-3.15,5.69-2.05,3.83-4,7.73-6,11.65a.59.59,0,0,1-.8.27A.62.62,0,0,1,381.61,195.44Z"/><circle class="cls-3" cx="574.38" cy="151.05" r="19.4"/><path class="cls-2" d="M558.05,141.62a18.64,18.64,0,0,0-1.46,14.2A18.09,18.09,0,0,0,578.92,168a17.84,17.84,0,0,0,12.39-21.47,18.11,18.11,0,0,0-21.69-13.25A18.68,18.68,0,0,0,558.05,141.62Zm-.93-.54a20.2,20.2,0,0,1,12-9.71A20.7,20.7,0,0,1,584.83,133a20.78,20.78,0,0,1,10.73,20.88,20.93,20.93,0,0,1-15.67,17.75,20.67,20.67,0,0,1-25.19-15.27A20.23,20.23,0,0,1,557.12,141.08Z"/></g></svg>