<svg xmlns="http://www.w3.org/2000/svg" viewBox="0 0 640 160"><defs><style>.cls-1{fill:#000050;}.cls-2{fill:#0d0a09;}.cls-3{fill:#fcfcfc;}.cls-4{fill:#fff;}</style></defs><g id="Kitchen_Sink" data-name="Kitchen Sink"><path class="cls-1" d="M404.09,90.55c-2.56,5.2.35,20.89,16.47,20.89,12.59,0,27.13-14.41,27.13-20.91s-5.08-5.87-17.66-5.87S407.24,84.12,404.09,90.55Z"/><path class="cls-1" d="M246.7,90.55c2.55,5.2-.36,20.89-16.48,20.89-12.59,0-27.13-14.41-27.13-20.91s5.08-5.87,17.66-5.87S243.54,84.12,246.7,90.55Z"/><circle class="cls-2" cx="204.18" cy="74.69" r="12.19"/><circle class="cls-3" cx="206.84" cy="69.06" r="3.12"/><circle class="cls-3" cx="200.88" cy="80" r="3.82"/><circle class="cls-2" cx="435.82" cy="74.69" r="12.19"/><circle class="cls-3" cx="438.48" cy="69.06" r="3.12"/><circle class="cls-3" cx="432.52" cy="80" r="3.82"/><path class="cls-4" d="M403.75,89.18s7.15-2.89,22-3.62a115.76,115.76,0,0,1,22,1.31"/><path class="cls-2" d="M403.75,92.42a3.25,3.25,0,0,1-1.22-6.26c.31-.12,7.84-3.1,23-3.85a117.61,117.61,0,0,1,22.68,1.36,3.25,3.25,0,1,1-1.09,6.41,113.08,113.08,0,0,0-21.27-1.28c-13.95.69-20.86,3.37-20.93,3.4A3.35,3.35,0,0,1,403.75,92.42Z"/><path class="cls-4" d="M247,89.18s-7.16-2.89-22-3.62a115.76,115.76,0,0,0-22,1.31"/><path class="cls-2" d="M247,92.43a3.42,3.42,0,0,1-1.21-.23h0c-.07,0-7-2.71-20.93-3.4a113.17,113.17,0,0,0-21.27,1.28,3.25,3.25,0,1,1-1.09-6.41,117.61,117.61,0,0,1,22.68-1.36c15.19.75,22.72,3.73,23,3.85A3.25,3.25,0,0,1,247,92.43Z"/></g></svg>