<svg xmlns="http://www.w3.org/2000/svg" viewBox="0 0 640 320"><defs><style>.cls-1{fill:blue;}.cls-2{fill:#0d0a09;}</style></defs><g id="top-shape"><path class="cls-1" d="M320,29.08c-108.4,0-196.28,87.87-196.28,196.28,0,57.23,26.51,49.69,196.28,49.69s196.28,7.54,196.28-49.69C516.28,117,428.4,29.08,320,29.08Z"/><path class="cls-2" d="M409,278.63c-10.93,0-23-.07-36.22-.14-15.64-.09-33.37-.19-52.78-.19s-37.14.1-52.78.19c-84.79.48-119.88.67-136-15.36-7.63-7.59-10.74-18.53-10.74-37.77,0-110,89.51-199.53,199.53-199.53s199.53,89.51,199.53,199.53c0,19.24-3.11,30.18-10.74,37.77C495.18,276.66,468.07,278.63,409,278.63Zm-89-6.83c19.43,0,37.17.1,52.82.19,80.46.45,117.18.66,131.38-13.47,6.28-6.23,8.83-15.84,8.83-33.16,0-106.44-86.59-193-193-193s-193,86.59-193,193c0,17.32,2.55,26.93,8.83,33.16C150,272.65,186.72,272.44,267.18,272,282.83,271.9,300.58,271.8,320,271.8Z"/></g></svg>