<svg xmlns="http://www.w3.org/2000/svg" viewBox="0 0 640 320"><defs><style>.cls-1{fill:red;}.cls-2{fill:#0d0a09;}</style></defs><g id="Kitchen_Sink" data-name="Kitchen Sink"><path class="cls-1" d="M430.43,210.15s12.87,31.74-21.69,39S380,241.44,349.51,239c-13.16-1.05-22.39,2.6-28.66,7.08-6.27-4.48-15.51-8.13-28.66-7.08-30.53,2.42-24.67,17.33-59.23,10.1s-21.69-39-21.69-39-25.2,44.21,25.52,74.49c32.43,19.36,66.33,19.72,84.06,7.19,17.73,12.53,51.63,12.17,84-7.19C455.63,254.36,430.43,210.15,430.43,210.15Z"/><path class="cls-2" d="M289.8,303.62c-17.24,0-36.76-5.5-54.67-16.19-27.51-16.42-33.33-37-33.37-51.38a59.86,59.86,0,0,1,6.68-27.51l5.84,2.83c-.05.12-4.95,12.62.39,22.58,3.21,6,9.58,10,19,12,18.92,4,24.78,1,32.19-2.72,5.93-3,12.65-6.38,26.12-7.44,11.11-.88,20.82,1.27,28.92,6.4,8.1-5.13,17.81-7.28,28.91-6.4,13.47,1.06,20.2,4.45,26.13,7.44,7.41,3.73,13.26,6.68,32.19,2.72,9.38-2,15.77-6,19-12,5.34-10,.42-22.43.37-22.55l5.84-2.83a60,60,0,0,1,6.68,27.51c0,14.37-5.86,35-33.37,51.38-30.21,18-65,21.31-85.72,8.3C312.42,301,301.65,303.62,289.8,303.62Zm-81.63-68.15c-.1,14,5.85,31.79,30.29,46.38,33.85,20.2,65.46,18,80.51,7.33l1.88-1.33,1.87,1.33c15.06,10.63,46.67,12.87,80.52-7.33,24.44-14.59,30.38-32.37,30.29-46.38-.23.5-.48,1-.74,1.5-4.15,7.8-12,12.95-23.38,15.33-21.15,4.43-28.24.86-36.45-3.28-5.66-2.85-11.51-5.8-23.71-6.76-10.42-.83-19.33,1.35-26.51,6.48l-1.89,1.35L319,248.74c-7.18-5.13-16.09-7.31-26.51-6.48-12.2,1-18.05,3.91-23.71,6.76-8.21,4.14-15.3,7.71-36.45,3.28-11.36-2.38-19.23-7.53-23.38-15.33C208.64,236.48,208.4,236,208.17,235.47Z"/></g></svg>