<svg xmlns="http://www.w3.org/2000/svg" viewBox="0 0 640 320"><defs><style>.cls-1{fill:blue;}.cls-2{fill:#0d0a09;}</style></defs><g id="Eyes"><path class="cls-1" d="M281.33,74.65a42.81,42.81,0,0,1,85.61,0"/><path class="cls-2" d="M366.94,77.15a2.49,2.49,0,0,1-2.5-2.5,40.31,40.31,0,0,0-80.61,0,2.5,2.5,0,1,1-5,0,45.31,45.31,0,0,1,90.61,0A2.5,2.5,0,0,1,366.94,77.15Z"/><path class="cls-1" d="M339.31,75.31a42.8,42.8,0,1,1,82.44,23.06"/><path class="cls-2" d="M421.75,100.87a2.57,2.57,0,0,1-.67-.09,2.5,2.5,0,0,1-1.74-3.08A40.3,40.3,0,1,0,341.72,76a2.5,2.5,0,1,1-4.81-1.35,45.3,45.3,0,0,1,87.25,24.41A2.5,2.5,0,0,1,421.75,100.87Z"/><path class="cls-1" d="M220.75,94.06a42.8,42.8,0,1,1,83.62-18.34"/><path class="cls-2" d="M220.75,96.56a2.5,2.5,0,0,1-2.44-2,45.3,45.3,0,1,1,88.5-19.42,2.5,2.5,0,1,1-4.88,1.07A40.3,40.3,0,1,0,223.2,93.53a2.51,2.51,0,0,1-2.45,3Z"/><path class="cls-1" d="M177.5,136.38a30.31,30.31,0,1,1,46.81-38.53"/><path class="cls-2" d="M177.5,138.88a2.5,2.5,0,0,1-1.93-.91,32.81,32.81,0,1,1,50.67-41.71,2.5,2.5,0,0,1-3.86,3.18,27.81,27.81,0,1,0-42.95,35.35,2.5,2.5,0,0,1-1.93,4.09Z"/><path class="cls-1" d="M201.73,117.32a37,37,0,1,1,67.65-29.89"/><path class="cls-2" d="M201.73,119.82a2.52,2.52,0,0,1-2.29-1.49,39.48,39.48,0,0,1,72.23-31.91,2.5,2.5,0,1,1-4.58,2A34.48,34.48,0,1,0,204,116.31a2.49,2.49,0,0,1-1.28,3.29A2.42,2.42,0,0,1,201.73,119.82Z"/><path class="cls-1" d="M153.12,174.26a30.31,30.31,0,1,1,37.46-47.66"/><path class="cls-2" d="M153.11,176.76a2.48,2.48,0,0,1-1.54-.53,32.81,32.81,0,0,1,40.55-51.6,2.5,2.5,0,1,1-3.09,3.93,27.81,27.81,0,0,0-34.37,43.74,2.5,2.5,0,0,1,.42,3.51A2.47,2.47,0,0,1,153.11,176.76Z"/><path class="cls-1" d="M465.59,136.38a30.31,30.31,0,1,0-46.8-38.53"/><path class="cls-2" d="M465.59,138.88a2.5,2.5,0,0,1-1.93-4.09,27.81,27.81,0,1,0-42.94-35.35,2.5,2.5,0,0,1-3.86-3.18A32.81,32.81,0,1,1,467.52,138,2.49,2.49,0,0,1,465.59,138.88Z"/><path class="cls-1" d="M441.37,117.32a37,37,0,0,0-67.66-29.89"/><path class="cls-2" d="M441.36,119.82a2.38,2.38,0,0,1-1-.22,2.48,2.48,0,0,1-1.28-3.29A34.48,34.48,0,1,0,376,88.44a2.5,2.5,0,1,1-4.57-2,39.48,39.48,0,1,1,72.22,31.91A2.51,2.51,0,0,1,441.36,119.82Z"/><path class="cls-1" d="M490,174.26a30.31,30.31,0,0,0-37.46-47.66"/><path class="cls-2" d="M490,176.76a2.5,2.5,0,0,1-1.55-4.46,27.83,27.83,0,0,0,4.69-39.06,27.86,27.86,0,0,0-39.06-4.68,2.5,2.5,0,1,1-3.09-3.93,32.81,32.81,0,1,1,40.55,51.6A2.46,2.46,0,0,1,490,176.76Z"/></g></svg>