<svg xmlns="http://www.w3.org/2000/svg" viewBox="0 0 640 320"><defs><style>.cls-1{fill:blue;}.cls-2{fill:#0d0a09;}</style></defs><g id="jaw-shape"><path class="cls-1" d="M458.35,83c18.5,20.34,64.67,124.19,13.46,146.82-40,17.69-63.46-21.78-105.71,2.55-15.76,9.07-44.19,8.24-46.1,8.24s-30.34.83-46.1-8.24c-42.25-24.33-65.67,15.14-105.71-2.55C117,207.2,163.15,103.35,181.65,83Z"/><path class="cls-2" d="M317.6,243.89c-10.46,0-32-1-45.32-8.69-21.1-12.15-37-7.55-53.84-2.69-15.52,4.49-31.57,9.12-51.56.29-12.61-5.57-20.61-16-23.79-31-8.52-40.32,21.29-104.61,36.15-120.95l4.81,4.37c-13.8,15.17-42.56,77.57-34.6,115.23,2.72,12.86,9.47,21.75,20.06,26.43,17.83,7.87,32.06,3.76,47.12-.59,17.41-5,35.4-10.23,58.9,3.29,12.83,7.4,35,7.93,44,7.82h1c8.94.12,31.14-.42,44-7.82,23.5-13.52,41.49-8.32,58.9-3.29,15.06,4.35,29.29,8.46,47.12.59,10.59-4.68,17.34-13.57,20.06-26.43,8-37.67-20.8-100.06-34.6-115.23l4.81-4.37c14.86,16.34,44.67,80.63,36.15,121-3.18,15-11.18,25.45-23.79,31-20,8.83-36,4.2-51.56-.29-16.84-4.87-32.74-9.46-53.84,2.69-14.23,8.19-37.81,8.8-47.3,8.68H317.6Z"/></g></svg>