<svg xmlns="http://www.w3.org/2000/svg" viewBox="0 0 640 320"><defs><style>.cls-1{fill:blue;}.cls-2{fill:#1d1d1b;}.cls-3{fill:#500000;}</style></defs><g id="Eyes"><path class="cls-1" d="M152.83,254.33C121.44,260,96.17,228.45,104,211.48c8.1-17.46,63-14.71,90.88-29.38"/><path class="cls-2" d="M152.9,254.72A42.09,42.09,0,0,1,142,255.77,43.53,43.53,0,0,1,131,253.91a48.81,48.81,0,0,1-19.23-11.3,46,46,0,0,1-7.26-8.8A33.48,33.48,0,0,1,100,223a21.16,21.16,0,0,1,1-12.45,15.92,15.92,0,0,1,3.92-5.43,25.55,25.55,0,0,1,5-3.58,52.82,52.82,0,0,1,10.68-4.25c3.58-1.07,7.2-1.83,10.79-2.56s7.18-1.28,10.77-1.84,7.15-1.09,10.72-1.6c7.13-1.05,14.23-2.12,21.26-3.5a104.82,104.82,0,0,0,20.58-6l.37.71A84.91,84.91,0,0,1,175,191c-3.49,1.07-7,2-10.55,2.86s-7.08,1.64-10.62,2.39c-7.08,1.52-14.16,2.89-21.1,4.51-3.47.79-6.88,1.71-10.22,2.7a51.4,51.4,0,0,0-9.4,3.78c-2.86,1.53-5.21,3.5-6.23,5.87a15.38,15.38,0,0,0-.91,8.82,30,30,0,0,0,3.18,9.28,41.24,41.24,0,0,0,5.86,8.37,45.18,45.18,0,0,0,16.94,11.85,41.92,41.92,0,0,0,20.85,2.55Z"/><path class="cls-3" d="M158.59,244.48c-15.06-.95-27.79-10.68-17.91-23.77,6.76-9,30.77-9.65,41-5.81"/><path class="cls-2" d="M158.58,244.78a34.3,34.3,0,0,1-10.26-1.45,22.35,22.35,0,0,1-9.33-5.28,13.46,13.46,0,0,1-3.14-4.87,12.41,12.41,0,0,1-.57-6,15.9,15.9,0,0,1,1.94-5.49,25.39,25.39,0,0,1,1.51-2.39,14.31,14.31,0,0,1,2.08-2.24,19.84,19.84,0,0,1,4.86-3.07,29.7,29.7,0,0,1,5.17-1.81,47.34,47.34,0,0,1,10.52-1.36,57.76,57.76,0,0,1,10.44.72,34.23,34.23,0,0,1,9.94,3.06l-.21.57a47.79,47.79,0,0,0-10-.92,79.66,79.66,0,0,0-9.91.62,60.51,60.51,0,0,0-9.53,2,23.66,23.66,0,0,0-8.15,3.91,10.15,10.15,0,0,0-1.42,1.44c-.46.61-.92,1.22-1.31,1.86a14.92,14.92,0,0,0-1.74,3.94,9,9,0,0,0-.08,4.09,10,10,0,0,0,1.91,3.87,19.86,19.86,0,0,0,7.65,5.57,36.86,36.86,0,0,0,9.62,2.65Z"/><path class="cls-1" d="M488.87,254.33c31.39,5.71,56.65-25.88,48.78-42.85-8.09-17.46-63-14.71-90.87-29.38"/><path class="cls-2" d="M488.94,253.93a41.93,41.93,0,0,0,20.85-2.55,45.34,45.34,0,0,0,16.94-11.85,40.8,40.8,0,0,0,5.85-8.37,29.75,29.75,0,0,0,3.19-9.28,15.38,15.38,0,0,0-.91-8.82c-1-2.37-3.37-4.34-6.23-5.87a51.69,51.69,0,0,0-9.4-3.78c-3.34-1-6.76-1.91-10.23-2.7-6.93-1.62-14-3-21.09-4.51-3.54-.75-7.09-1.53-10.62-2.39S470.23,192,466.73,191a85,85,0,0,1-20.14-8.5l.37-.71a104.82,104.82,0,0,0,20.58,6c7,1.38,14.12,2.45,21.26,3.5,3.56.51,7.14,1,10.72,1.6s7.18,1.12,10.77,1.84,7.2,1.49,10.79,2.56a53.06,53.06,0,0,1,10.68,4.25,25.55,25.55,0,0,1,5,3.58,15.77,15.77,0,0,1,3.91,5.43,21.17,21.17,0,0,1,1,12.45,33.7,33.7,0,0,1-4.52,10.85,46.47,46.47,0,0,1-7.27,8.8,48.67,48.67,0,0,1-19.23,11.3,43.38,43.38,0,0,1-10.93,1.86,42.09,42.09,0,0,1-10.93-1.05Z"/><path class="cls-3" d="M483.1,244.48c15.06-.95,27.8-10.68,17.92-23.77-6.77-9-30.78-9.65-41-5.81"/><path class="cls-2" d="M483.08,244.18a36.76,36.76,0,0,0,9.62-2.65,20,20,0,0,0,7.66-5.57,10,10,0,0,0,1.91-3.87,9,9,0,0,0-.08-4.09,14.92,14.92,0,0,0-1.74-3.94c-.4-.64-.85-1.25-1.31-1.86a10.15,10.15,0,0,0-1.42-1.44,23.66,23.66,0,0,0-8.15-3.91,60.51,60.51,0,0,0-9.53-2,79.66,79.66,0,0,0-9.91-.62,47.79,47.79,0,0,0-10,.92l-.21-.57a34.14,34.14,0,0,1,9.94-3.06,57.71,57.71,0,0,1,10.43-.72,47.36,47.36,0,0,1,10.53,1.36A30,30,0,0,1,496,214a20,20,0,0,1,4.86,3.07,14.8,14.8,0,0,1,2.08,2.24,27.6,27.6,0,0,1,1.51,2.39,16.32,16.32,0,0,1,1.94,5.49,12.41,12.41,0,0,1-.57,6,13.46,13.46,0,0,1-3.14,4.87,22.33,22.33,0,0,1-9.34,5.28,34.19,34.19,0,0,1-10.25,1.45Z"/></g></svg>