<svg xmlns="http://www.w3.org/2000/svg" viewBox="0 0 640 320"><defs><style>.cls-1{fill:red;}.cls-2{fill:#0d0a09;}</style></defs><g id="Kitchen_Sink" data-name="Kitchen Sink"><path class="cls-1" d="M420.11,295.06c-2.51-14.59-12.84-38.79-25.24-42.27-20.26-5.66-46.6-6.24-74-6.24s-53.76.58-74,6.24c-12.41,3.48-22.73,27.68-25.24,42.27-.52,3,3.23,5.52,7.64,5.15,17-1.43,57.26-4.49,91.62-4.49s74.62,3.06,91.61,4.49C416.88,300.58,420.63,298.05,420.11,295.06Z"/><path class="cls-2" d="M228.39,303.49a11.22,11.22,0,0,1-8.22-3.25,6.69,6.69,0,0,1-1.79-5.74c2.34-13.59,12.83-40.71,27.58-44.84,21-5.87,48.5-6.36,74.89-6.36s53.91.49,74.89,6.36c14.74,4.13,25.23,31.25,27.58,44.84h0a6.71,6.71,0,0,1-1.79,5.73,11.48,11.48,0,0,1-9.34,3.21c-16-1.35-56.81-4.48-91.34-4.48s-75.38,3.13-91.35,4.48C229.13,303.48,228.76,303.49,228.39,303.49Zm92.46-53.69c-25.94,0-53,.47-73.14,6.12-10.32,2.89-20.47,25.44-22.92,39.69.1.42,1.68,1.56,4.17,1.36,16-1.35,57.12-4.5,91.89-4.5s75.84,3.15,91.89,4.5c2.46.21,4.05-.92,4.17-1.37-2.46-14.25-12.6-36.79-22.92-39.68C373.8,250.27,346.79,249.8,320.85,249.8Z"/><path class="cls-2" d="M248.15,270.77a62.94,62.94,0,0,0-3.42,6.82,59.08,59.08,0,0,0-2.5,7.17,68.34,68.34,0,0,0-2,7.37q-.73,3.75-1.26,7.59a1,1,0,1,1-1.91-.26v0c.42-2.54.79-5.11,1.28-7.67a78.24,78.24,0,0,1,1.74-7.65,52.43,52.43,0,0,1,3-7.25,44.16,44.16,0,0,1,4.21-6.62.48.48,0,0,1,.79.53Z"/><path class="cls-2" d="M262.37,277.15a45.45,45.45,0,0,0-2.12,4.54,38.92,38.92,0,0,0-1.56,4.72,43.28,43.28,0,0,0-1.34,4.81c-.33,1.65-.61,3.31-.83,5a1,1,0,0,1-1.91-.25v0c.3-1.68.53-3.38.85-5.08s.55-3.43,1.11-5.09a29.44,29.44,0,0,1,5-9.14.48.48,0,0,1,.67-.06A.47.47,0,0,1,262.37,277.15Z"/><path class="cls-2" d="M273.25,270.73a55.25,55.25,0,0,0-2.24,5.84,48.1,48.1,0,0,0-1.49,6,55,55,0,0,0-1.11,6.13c-.22,2.08-.38,4.17-.47,6.29a1,1,0,0,1-1.93-.08v0c.16-2.11.26-4.24.48-6.37a60.63,60.63,0,0,1,.85-6.4,43,43,0,0,1,2-6.15,36,36,0,0,1,3-5.69.47.47,0,0,1,.83.45Z"/><path class="cls-2" d="M394.32,270.24a43.37,43.37,0,0,1,4.21,6.62,51.28,51.28,0,0,1,3.06,7.25,78.24,78.24,0,0,1,1.74,7.65c.49,2.56.85,5.13,1.28,7.67a1,1,0,0,1-1.91.32v0q-.52-3.84-1.26-7.59a68.34,68.34,0,0,0-2-7.37,59.08,59.08,0,0,0-2.5-7.17,63,63,0,0,0-3.43-6.82h0a.48.48,0,0,1,.17-.65A.48.48,0,0,1,394.32,270.24Z"/><path class="cls-2" d="M374,258.36a58.67,58.67,0,0,1,5.31,8.55,68.37,68.37,0,0,1,3.86,9.33,98.28,98.28,0,0,1,2.27,9.82c.64,3.29,1.11,6.59,1.64,9.87a1,1,0,1,1-1.9.31v0c-.46-3.29-1-6.56-1.62-9.79a88.37,88.37,0,0,0-2.5-9.53,74.21,74.21,0,0,0-7.83-18,.47.47,0,0,1,.15-.65A.48.48,0,0,1,374,258.36Z"/><path class="cls-2" d="M363.42,270.28a35.22,35.22,0,0,1,3,5.69,43,43,0,0,1,2,6.15,60.63,60.63,0,0,1,.85,6.4c.22,2.13.32,4.26.49,6.37a1,1,0,0,1-1.93.15v0c-.09-2.12-.25-4.21-.47-6.29a55,55,0,0,0-1.11-6.13,46.42,46.42,0,0,0-1.49-6,55.18,55.18,0,0,0-2.23-5.84h0a.47.47,0,0,1,.25-.62A.46.46,0,0,1,363.42,270.28Z"/><path class="cls-2" d="M359.22,280.75a18.62,18.62,0,0,1,1.9,3.23,21.06,21.06,0,0,1,1.28,3.54,8.42,8.42,0,0,1,.26,1.86c0,.63.11,1.24.17,1.85l.28,3.66h0a1,1,0,1,1-1.92.15v0c-.05-1.21-.12-2.4-.26-3.58a11.51,11.51,0,0,0-.3-1.74,17.42,17.42,0,0,1-.4-1.7,33.38,33.38,0,0,0-.73-3.41c-.31-1.13-.69-2.25-1.11-3.37h0a.48.48,0,0,1,.28-.61A.5.5,0,0,1,359.22,280.75Z"/><path class="cls-2" d="M374,280.75a18.67,18.67,0,0,1,1.91,3.23,21.06,21.06,0,0,1,1.28,3.54,9.8,9.8,0,0,1,.26,1.86c0,.63.11,1.24.16,1.85l.29,3.66h0a1,1,0,1,1-1.93.15v0c0-1.21-.11-2.4-.26-3.58a12.89,12.89,0,0,0-.29-1.74,17.42,17.42,0,0,1-.4-1.7,33.42,33.42,0,0,0-.74-3.41c-.3-1.13-.69-2.25-1.1-3.37h0a.47.47,0,0,1,.28-.61A.48.48,0,0,1,374,280.75Z"/></g></svg>