<svg xmlns="http://www.w3.org/2000/svg" xmlns:xlink="http://www.w3.org/1999/xlink" viewBox="0 0 640 320"><defs><style>.cls-1{fill:#f29d9b;}.cls-2,.cls-4{fill:#1d1d1b;}.cls-2{clip-path:url(#clip-path);}.cls-3{fill:red;}.cls-5{clip-path:url(#clip-path-2);}.cls-6{fill:#f7c0c1;}.cls-7{fill:#fff;}</style><clipPath id="clip-path"><path class="cls-1" d="M399.59,126c-61.36-3.3-92.15-3.3-153.51,0-30.46,1.64-53,26.9-50.38,55.13s27.6,48.88,55.88,47.36c57-3.05,85.55-3.05,142.52,0,28.28,1.52,53.27-19.14,55.88-47.36S430.06,127.67,399.59,126Z"/></clipPath><clipPath id="clip-path-2"><path class="cls-2" d="M397.1,231.6c-1.05,0-2.1,0-3.16-.08-57.15-3.07-85.06-3.07-142.2,0-30.39,1.62-56.28-20.37-59-50.09a51.72,51.72,0,0,1,12.68-38.83A57,57,0,0,1,245.92,123c61.82-3.32,92-3.32,153.84,0a57,57,0,0,1,40.53,19.56A51.75,51.75,0,0,1,453,181.43C450.31,210.11,426.07,231.6,397.1,231.6Zm-74.27-8.38c21.36,0,42.72.77,71.43,2.31,27.1,1.45,50.28-18.16,52.73-44.65a45.79,45.79,0,0,0-11.24-34.35A51,51,0,0,0,399.43,129c-61.56-3.3-91.62-3.3-153.19,0a51.05,51.05,0,0,0-36.31,17.49,45.78,45.78,0,0,0-11.24,34.36c2.45,26.49,25.63,46.1,52.73,44.65C280.11,224,301.47,223.22,322.83,223.22Z"/></clipPath></defs><g id="Kitchen_Sink" data-name="Kitchen Sink"><path class="cls-3" d="M412.51,118c-71.69-4.2-107.66-4.2-179.35,0-35.58,2.08-61.9,34.29-58.85,70.27s32.24,62.33,65.28,60.39c66.55-3.89,100-3.89,166.5,0,33,1.94,62.23-24.41,65.28-60.39S448.1,120.07,412.51,118Z"/><path class="cls-4" d="M409.53,251.75c-1.2,0-2.41,0-3.62-.1-66.77-3.91-99.38-3.91-166.15,0a62.42,62.42,0,0,1-46.09-16.76,70.71,70.71,0,0,1-22.35-46.37,69.44,69.44,0,0,1,16.52-51.08A64.36,64.36,0,0,1,233,115c72.21-4.22,107.48-4.22,179.7,0a64.41,64.41,0,0,1,45.15,22.45,69.48,69.48,0,0,1,16.52,51.08A70.67,70.67,0,0,1,452,234.89,62.53,62.53,0,0,1,409.53,251.75Zm-86.69-9c25,0,49.89,1,83.43,2.95,1.1.06,2.21.09,3.31.1,30.49,0,56-24.74,58.8-57.75a63.39,63.39,0,0,0-15.08-46.64,58.4,58.4,0,0,0-41-20.39h0c-71.93-4.21-107.07-4.21-179,0a58.43,58.43,0,0,0-41,20.38A63.39,63.39,0,0,0,177.3,188c2.89,34.19,30.19,59.51,62.11,57.65C272.93,243.7,297.89,242.71,322.84,242.71Z"/><path class="cls-1" d="M399.59,126c-61.36-3.3-92.15-3.3-153.51,0-30.46,1.64-53,26.9-50.38,55.13s27.6,48.88,55.88,47.36c57-3.05,85.55-3.05,142.52,0,28.28,1.52,53.27-19.14,55.88-47.36S430.06,127.67,399.59,126Z"/><path class="cls-4" d="M397.1,231.6c-1.05,0-2.1,0-3.16-.08-57.15-3.07-85.06-3.07-142.2,0-30.39,1.62-56.28-20.37-59-50.09a51.72,51.72,0,0,1,12.68-38.83A57,57,0,0,1,245.92,123c61.82-3.32,92-3.32,153.84,0a57,57,0,0,1,40.53,19.56A51.75,51.75,0,0,1,453,181.43C450.31,210.11,426.07,231.6,397.1,231.6Zm-74.27-8.38c21.36,0,42.72.77,71.43,2.31,27.1,1.45,50.28-18.16,52.73-44.65a45.79,45.79,0,0,0-11.24-34.35A51,51,0,0,0,399.43,129c-61.56-3.3-91.62-3.3-153.19,0a51.05,51.05,0,0,0-36.31,17.49,45.78,45.78,0,0,0-11.24,34.36c2.45,26.49,25.63,46.1,52.73,44.65C280.11,224,301.47,223.22,322.83,223.22Z"/><g class="cls-5"><polygon class="cls-6" points="362.38 33.52 172.54 314.08 302.14 318.65 473.14 40.47 362.38 33.52"/></g><path class="cls-7" d="M407.51,155.33c.46.17.91.35,1.36.54l-1.79-.75a28,28,0,0,1,5,2.75l.56.4c.81.58-.62-.46-.7-.54a10.76,10.76,0,0,0,1.05.87c.73.64,1.41,1.31,2.07,2,.3.33.6.67.89,1,.15.17.29.35.43.52.57.66-1.06-1.42-.55-.72s1,1.45,1.52,2.21a34.61,34.61,0,0,1,2.55,4.91l-.76-1.79a39.57,39.57,0,0,1,2.62,9.67l-.27-2a43.66,43.66,0,0,1,.39,5.6c0,3.92,3.44,7.68,7.5,7.5a7.63,7.63,0,0,0,7.5-7.5A46.47,46.47,0,0,0,431,157.21a37.07,37.07,0,0,0-19.46-16.35,7.55,7.55,0,0,0-5.78.76A7.51,7.51,0,0,0,403,151.88a8.59,8.59,0,0,0,4.49,3.45Z"/><path class="cls-7" d="M228.83,193.38a14.1,14.1,0,0,1-1.9-.63l1.79.76a13.47,13.47,0,0,1-2.95-1.74l1.52,1.17a14.67,14.67,0,0,1-2.48-2.5L226,192a16.84,16.84,0,0,1-2.12-3.68l.76,1.79a18.84,18.84,0,0,1-1.25-4.61l.26,2-.06-.54a5.71,5.71,0,0,0-.65-2.89,5.63,5.63,0,0,0-1.55-2.42,7.52,7.52,0,0,0-10.61,0c-1.25,1.37-2.42,3.37-2.19,5.31.49,4.35,1.6,8.72,4.23,12.32a27.61,27.61,0,0,0,2.62,3.21,24.56,24.56,0,0,0,3.22,2.62,18.82,18.82,0,0,0,6.19,2.79,7.82,7.82,0,0,0,5.78-.76,7.7,7.7,0,0,0,3.45-4.48,7.62,7.62,0,0,0-.76-5.78,7.74,7.74,0,0,0-4.48-3.45Z"/></g></svg>