<svg xmlns="http://www.w3.org/2000/svg" viewBox="0 0 640 160"><defs><style>.cls-1{fill:#000050;}.cls-2{fill:#0d0a09;}</style></defs><g id="Kitchen_Sink" data-name="Kitchen Sink"><path class="cls-1" d="M320,20.11c-35.26,0-63.84,6.74-63.84,42S284.76,78.26,320,78.26s63.83,19.1,63.83-16.16S355.27,20.11,320,20.11Z"/><path class="cls-2" d="M366.58,86.69c-5.42,0-11.69-1-18.7-2.2-8.4-1.4-17.93-3-27.86-3s-19.46,1.58-27.87,3c-14.09,2.33-25.21,4.17-32.43-1.94-4.63-3.93-6.79-10.43-6.79-20.45,0-17.46,6.88-29.94,20.43-37.09,10.55-5.56,25.37-8.15,46.66-8.15s36.1,2.59,46.65,8.15c13.56,7.15,20.43,19.63,20.43,37.09,0,10-2.16,16.52-6.79,20.45C376.68,85.62,372.07,86.69,366.58,86.69ZM320,75c10.47,0,20.27,1.63,28.92,3.06,12.43,2.06,22.25,3.69,27.17-.48,3-2.56,4.49-7.63,4.49-15.49,0-27.52-17.55-38.74-60.58-38.74S259.43,34.58,259.43,62.1c0,7.86,1.47,12.93,4.49,15.49,4.92,4.17,14.74,2.54,27.17.48C299.74,76.64,309.55,75,320,75Z"/></g></svg>