<svg xmlns="http://www.w3.org/2000/svg" viewBox="0 0 640 320"><defs><style>.cls-1{fill:blue;}.cls-2{fill:#1d1d1b;}.cls-3{fill:#500000;}</style></defs><g id="Eyes"><path class="cls-1" d="M166.74,225c-14.16-13.78-29.65-49.57-28.49-72.37.44-8.64,8.76-11.48,17.33-10.28,22.26,3.1,64,10.87,74.71,21.6"/><path class="cls-2" d="M166.46,225.31c-5.65-5.15-10.05-11.47-14-18a141.18,141.18,0,0,1-10-20.56,113.44,113.44,0,0,1-6.33-22.2,66.54,66.54,0,0,1-.94-11.79,14.25,14.25,0,0,1,1.83-6.94,13.56,13.56,0,0,1,5.36-5.09,19.93,19.93,0,0,1,6.53-2.1,28.56,28.56,0,0,1,6.52-.2l.79.07.71.08,1.42.15,2.83.35c1.89.24,3.77.5,5.65.8a224.89,224.89,0,0,1,22.36,4.58c3.69,1,7.37,2,11,3.16s7.26,2.43,10.83,3.86q2.69,1.06,5.29,2.31c1.75.84,3.49,1.68,5.16,2.66a43.14,43.14,0,0,1,4.89,3.19,22.18,22.18,0,0,1,4.24,4l-.57.57a25.83,25.83,0,0,0-4.8-2.71c-1.68-.76-3.4-1.42-5.15-2-3.5-1.19-7.08-2.15-10.68-3.06s-7.24-1.66-10.88-2.44-7.32-1.43-11-2.1l-22.06-3.89-11-1.92a16.16,16.16,0,0,0-9,.74,6.65,6.65,0,0,0-4.14,6.19,61.63,61.63,0,0,0,.3,10.75,116.08,116.08,0,0,0,4.78,21.56,144.12,144.12,0,0,0,8.35,20.71,103.72,103.72,0,0,0,5.52,9.74,60.93,60.93,0,0,0,6.75,8.92Z"/><path class="cls-3" d="M184.93,216.23c-6.21-6.2-20.58-31.24-15.41-36.42s31.15-1.2,47.73,5.12"/><path class="cls-2" d="M184.71,216.44a53.91,53.91,0,0,1-7.3-8.74,99.6,99.6,0,0,1-6-9.7,51,51,0,0,1-4.56-10.77,19.93,19.93,0,0,1-.58-3.11,9.62,9.62,0,0,1,.27-3.66,5.77,5.77,0,0,1,1.09-2.07,7.21,7.21,0,0,1,1.66-1.41,12.93,12.93,0,0,1,3.26-1.37,31.55,31.55,0,0,1,6.12-1,48.89,48.89,0,0,1,5.92-.09A62.66,62.66,0,0,1,196,176.18a80.93,80.93,0,0,1,11,3.38,58.28,58.28,0,0,1,10.33,5.09l-.22.56L206,183.44c-3.68-.54-7.34-1.09-11-1.54s-7.29-.86-10.88-1.23-7.24-.66-10.41-.09a7.08,7.08,0,0,0-2,.62,2.56,2.56,0,0,0-.53.34.83.83,0,0,0-.26.38,5.11,5.11,0,0,0-.27,1.92,15.36,15.36,0,0,0,.26,2.46,53.35,53.35,0,0,0,3.32,10.32,108.74,108.74,0,0,0,4.83,10c.9,1.63,1.83,3.25,2.83,4.82a38.5,38.5,0,0,0,3.24,4.54Z"/><path class="cls-1" d="M473.26,225c14.16-13.78,29.65-49.57,28.49-72.37-.44-8.64-8.76-11.48-17.33-10.28-22.26,3.1-64,10.87-74.71,21.6"/><path class="cls-2" d="M473,224.74a60.93,60.93,0,0,0,6.75-8.92,103.72,103.72,0,0,0,5.52-9.74,144.12,144.12,0,0,0,8.35-20.71,116.08,116.08,0,0,0,4.78-21.56,61.63,61.63,0,0,0,.3-10.75,6.65,6.65,0,0,0-4.14-6.19,16.16,16.16,0,0,0-9-.74l-11,1.92-22.06,3.89c-3.66.67-7.33,1.37-11,2.1s-7.28,1.55-10.88,2.44-7.18,1.87-10.68,3.06c-1.75.59-3.47,1.25-5.15,2a25.83,25.83,0,0,0-4.8,2.71l-.57-.57a22.18,22.18,0,0,1,4.24-4,43.14,43.14,0,0,1,4.89-3.19c1.67-1,3.41-1.82,5.16-2.66s3.5-1.6,5.29-2.31q5.36-2.15,10.83-3.86c3.64-1.16,7.32-2.21,11-3.16a224.89,224.89,0,0,1,22.36-4.58c1.88-.3,3.76-.56,5.65-.8l2.83-.35,1.42-.15.71-.08.79-.07a28.56,28.56,0,0,1,6.52.2,19.93,19.93,0,0,1,6.53,2.1,13.56,13.56,0,0,1,5.36,5.09,14.25,14.25,0,0,1,1.83,6.94,66.54,66.54,0,0,1-.94,11.79,113.44,113.44,0,0,1-6.33,22.2,141.18,141.18,0,0,1-10.05,20.56c-3.93,6.51-8.33,12.83-14,18Z"/><path class="cls-3" d="M455.07,216.23c6.21-6.2,20.58-31.24,15.41-36.42s-31.15-1.2-47.73,5.12"/><path class="cls-2" d="M454.86,216a38.5,38.5,0,0,0,3.24-4.54c1-1.57,1.93-3.19,2.83-4.82a108.74,108.74,0,0,0,4.83-10,53.35,53.35,0,0,0,3.32-10.32,15.36,15.36,0,0,0,.26-2.46,5.11,5.11,0,0,0-.27-1.92.83.83,0,0,0-.26-.38,2.56,2.56,0,0,0-.53-.34,7.08,7.08,0,0,0-2-.62c-3.17-.57-6.85-.24-10.41.09s-7.23.77-10.88,1.23-7.31,1-11,1.54l-11.15,1.77-.22-.56A58.28,58.28,0,0,1,433,179.56a80.93,80.93,0,0,1,11-3.38,62.66,62.66,0,0,1,11.48-1.65,48.89,48.89,0,0,1,5.92.09,31.55,31.55,0,0,1,6.12,1,12.93,12.93,0,0,1,3.26,1.37,7.21,7.21,0,0,1,1.66,1.41,5.77,5.77,0,0,1,1.09,2.07,9.62,9.62,0,0,1,.27,3.66,19.93,19.93,0,0,1-.58,3.11A51,51,0,0,1,468.64,198a99.6,99.6,0,0,1-6.05,9.7,53.91,53.91,0,0,1-7.3,8.74Z"/></g></svg>