<svg xmlns="http://www.w3.org/2000/svg" viewBox="0 0 640 160"><defs><style>.cls-1{fill:#000050;}.cls-2{fill:#0d0a09;}</style></defs><g id="Kitchen_Sink" data-name="Kitchen Sink"><path class="cls-1" d="M320,28.43H228.76c0,19.81,16.39,36.07,29.83,47.67C275.31,90.53,299.11,96.72,320,96.72s44.69-6.19,61.41-20.62c13.44-11.6,29.83-27.86,29.83-47.67Z"/><path class="cls-2" d="M320,100c-24.61,0-47.77-7.81-63.53-21.41-14.42-12.44-31-29.38-31-50.13V25.18h189v3.25c0,20.75-16.54,37.69-31,50.13C367.77,92.16,344.61,100,320,100ZM232.17,31.68c1.68,16.73,16,31.12,28.54,42C275.1,86.05,297.27,93.47,320,93.47s44.9-7.42,59.29-19.83c12.55-10.84,26.86-25.23,28.54-42Z"/></g></svg>