<svg xmlns="http://www.w3.org/2000/svg" viewBox="0 0 640 320"><defs><style>.cls-1{fill:blue;}.cls-2{fill:#0d0a09;}</style></defs><g id="Eyes"><path class="cls-1" d="M243.59,96.26c-6.68-13.74-21.37-20.36-32.81-14.8s-15.31,21.2-8.64,34.94"/><path class="cls-2" d="M202.14,118.9a2.5,2.5,0,0,1-2.25-1.41c-7.27-14.95-2.87-32.13,9.8-38.28,6.21-3,13.43-3,20.31.13a33,33,0,0,1,15.83,15.83,2.5,2.5,0,1,1-4.49,2.18,28,28,0,0,0-13.4-13.45c-5.5-2.48-11.21-2.55-16.07-.19-10.19,5-13.54,19.12-7.48,31.59a2.5,2.5,0,0,1-1.16,3.34A2.36,2.36,0,0,1,202.14,118.9Z"/><path class="cls-1" d="M155.73,154c-11.19-20.37-5.36-45.08,13-55.19s42.37-1.78,53.56,18.59"/><path class="cls-2" d="M155.74,156.51a2.51,2.51,0,0,1-2.2-1.3A46.72,46.72,0,0,1,148.72,122a37.92,37.92,0,0,1,50.34-27.66,46.67,46.67,0,0,1,25.45,21.87,2.5,2.5,0,1,1-4.38,2.41,41.72,41.72,0,0,0-22.71-19.56,33,33,0,0,0-43.84,24.09,41.77,41.77,0,0,0,4.34,29.66,2.5,2.5,0,0,1-2.18,3.71Z"/><path class="cls-1" d="M133.61,216c-24.11-23.89-27.52-59.54-7.61-79.64s55.59-17,79.7,6.88"/><path class="cls-2" d="M133.61,218.5a2.48,2.48,0,0,1-1.76-.73c-12.07-12-19.55-27.15-21-42.78-1.51-15.79,3.26-30.13,13.41-40.39s24.48-15.15,40.27-13.78c15.63,1.34,30.9,8.67,43,20.64a2.5,2.5,0,1,1-3.52,3.55c-11.24-11.14-25.41-18-39.88-19.21-14.29-1.23-27.19,3.14-36.28,12.32s-13.36,22.11-12,36.4c1.38,14.46,8.33,28.56,19.58,39.7a2.5,2.5,0,0,1-1.76,4.28Z"/><path class="cls-1" d="M131.65,257.45c-27.33-15.13-40.32-43.93-29-64.33s42.61-24.65,69.93-9.52"/><path class="cls-2" d="M131.65,260a2.53,2.53,0,0,1-1.21-.31c-28.49-15.78-41.95-46.16-30-67.73,5.86-10.57,16.8-17.44,30.81-19.35,13.74-1.87,28.84,1.28,42.52,8.86a2.5,2.5,0,1,1-2.42,4.37c-12.75-7.06-26.75-10-39.43-8.27-12.41,1.69-22,7.66-27.1,16.81-10.61,19.16,2,46.49,28.05,60.94a2.5,2.5,0,0,1-1.21,4.68Z"/><path class="cls-1" d="M135.55,239.49c-15.26-.58-28,9.26-28.5,22s11.5,23.49,26.76,24.07"/><path class="cls-2" d="M133.81,288h-.09c-16.61-.63-29.7-12.59-29.17-26.66s14.45-25,31.1-24.39a2.5,2.5,0,0,1-.19,5c-13.83-.53-25.48,8.26-25.91,19.57s10.5,21,24.36,21.48a2.5,2.5,0,0,1-.1,5Z"/><path class="cls-1" d="M404.68,96.26c6.68-13.74,21.36-20.36,32.81-14.8s15.31,21.2,8.64,34.94"/><path class="cls-2" d="M446.13,118.9a2.36,2.36,0,0,1-1.09-.26,2.5,2.5,0,0,1-1.16-3.34c6.06-12.47,2.7-26.64-7.48-31.59-4.86-2.36-10.57-2.29-16.08.19a28,28,0,0,0-13.39,13.45,2.5,2.5,0,1,1-4.5-2.18,33,33,0,0,1,15.84-15.83c6.88-3.1,14.1-3.15,20.31-.13,12.67,6.15,17.06,23.33,9.8,38.28A2.5,2.5,0,0,1,446.13,118.9Z"/><path class="cls-1" d="M492.53,154c11.2-20.37,5.37-45.08-13-55.19S437.14,97,426,117.41"/><path class="cls-2" d="M492.53,156.51a2.51,2.51,0,0,1-2.19-3.71c10.52-19.13,5.12-42.36-12-51.78a33.48,33.48,0,0,0-27.46-2,41.68,41.68,0,0,0-22.71,19.56,2.5,2.5,0,1,1-4.38-2.41,46.67,46.67,0,0,1,25.45-21.87,38.46,38.46,0,0,1,31.51,2.3c19.56,10.76,25.85,37,14,58.58A2.51,2.51,0,0,1,492.53,156.51Z"/><path class="cls-1" d="M514.66,216c24.11-23.89,27.52-59.54,7.61-79.64s-55.59-17-79.7,6.88"/><path class="cls-2" d="M514.66,218.5a2.5,2.5,0,0,1-1.76-4.28c23.09-22.88,26.5-57,7.59-76.1s-53.07-16-76.16,6.89a2.5,2.5,0,1,1-3.52-3.55c25.05-24.82,62.39-27.9,83.23-6.86s17.43,58.35-7.62,83.17A2.48,2.48,0,0,1,514.66,218.5Z"/><path class="cls-1" d="M516.62,257.45c27.32-15.13,40.32-43.93,29-64.33S503,168.47,475.71,183.6"/><path class="cls-2" d="M516.62,260a2.5,2.5,0,0,1-1.22-4.68c26.08-14.45,38.67-41.78,28.06-60.94-5.07-9.15-14.7-15.12-27.1-16.81-12.67-1.73-26.68,1.21-39.43,8.27a2.5,2.5,0,0,1-2.43-4.37c13.69-7.58,28.79-10.73,42.53-8.86,14,1.91,25,8.78,30.8,19.35,11.95,21.57-1.51,52-30,67.73A2.53,2.53,0,0,1,516.62,260Z"/><path class="cls-1" d="M512.72,239.49c15.26-.58,28,9.26,28.5,22s-11.5,23.49-26.76,24.07"/><path class="cls-2" d="M514.46,288a2.5,2.5,0,0,1-.1-5c13.86-.52,24.78-10.16,24.36-21.48s-12.1-20.1-25.91-19.57a2.5,2.5,0,0,1-.19-5c16.65-.62,30.56,10.31,31.09,24.39s-12.55,26-29.16,26.66Z"/></g></svg>