<svg xmlns="http://www.w3.org/2000/svg" viewBox="0 0 640 160"><defs><style>.cls-1{fill:#fffade;}.cls-2{fill:#0d0a09;}</style></defs><g id="Kitchen_Sink" data-name="Kitchen Sink"><path class="cls-1" d="M256.08,137c-9.58-23.73-17.56-46-19.75-87.34-.7-13.29,1.56-24.55,6.13-29.85,3.5-4.06,8.46-6.69,15.08-3.37C276.48,26,276.16,49,276.16,49s-8.63,45.22-7.31,82.45C269.38,146.48,261.33,150.05,256.08,137Z"/><path class="cls-2" d="M254.31,137.75c-2.71-6.9-5.36-13.84-7.67-20.92s-4.27-14.28-5.9-21.54-3-14.59-4.08-22c-.3-1.84-.52-3.69-.77-5.53s-.57-3.68-.86-5.52c-.65-3.68-1.41-7.36-2.1-11.06a52.76,52.76,0,0,1-1-11.56,47.64,47.64,0,0,1,1.83-11.83A31.27,31.27,0,0,1,236.06,22a22.27,22.27,0,0,1,1.75-2.87,20.7,20.7,0,0,1,2.28-2.62,18.28,18.28,0,0,1,5.81-3.89,14.11,14.11,0,0,1,7.28-.9A18.18,18.18,0,0,1,259.52,14l1.31.77,1.26.85c.84.57,1.66,1.16,2.45,1.8a36.46,36.46,0,0,1,7.95,9.05,44.73,44.73,0,0,1,6,16.61c.15,1,.27,1.94.36,2.93s.15,1.92.15,3.07v.23l0,.26c-1.69,8.92-3.16,18-4.42,27s-2.18,18.15-2.84,27.25-1,18.23-.75,27.32a33.72,33.72,0,0,1-.49,7.31,18.77,18.77,0,0,1-1.11,3.72,9.41,9.41,0,0,1-2.54,3.57,5.61,5.61,0,0,1-2.37,1.16,5.34,5.34,0,0,1-2.7-.12,8.27,8.27,0,0,1-3.68-2.52A22,22,0,0,1,254.31,137.75Zm3.53-1.43a18.33,18.33,0,0,0,3.14,5.31,4.57,4.57,0,0,0,1.91,1.35,1.39,1.39,0,0,0,1.38-.34,5.61,5.61,0,0,0,1.34-2.06,14.63,14.63,0,0,0,.8-2.88,29.46,29.46,0,0,0,.31-6.41c-.36-9.27-.17-18.53.35-27.75s1.37-18.43,2.4-27.6,2.25-18.29,3.87-27.45l0,.5c0-.7-.06-1.64-.14-2.47s-.19-1.71-.33-2.57a45.74,45.74,0,0,0-1.1-5.07,35.33,35.33,0,0,0-4.05-9.41,26.86,26.86,0,0,0-6.77-7.39,23.55,23.55,0,0,0-4.29-2.57,10.49,10.49,0,0,0-4.12-1.15c-2.56-.07-4.66,1.3-6.54,3.6-1.71,2.08-2.72,5.05-3.54,8.23a76.11,76.11,0,0,0-1.58,10.05c-.19,1.72-.34,3.47-.51,5.23s-.3,3.5-.42,5.36l-.36,5.53c-.08,1.85-.12,3.69-.12,5.53s.09,3.68.23,5.51.3,3.67.52,5.49a185.12,185.12,0,0,0,3.55,21.72C247,109,252.2,122.7,257.84,136.32Z"/><path class="cls-1" d="M383.92,137c9.58-23.73,17.56-46,19.75-87.34.7-13.29-1.56-24.55-6.13-29.85-3.5-4.06-8.46-6.69-15.08-3.37C363.52,26,363.84,49,363.84,49s8.63,45.22,7.31,82.45C370.62,146.48,378.67,150.05,383.92,137Z"/><path class="cls-2" d="M382.16,136.32C387.8,122.7,393,109,396.28,94.61a185.12,185.12,0,0,0,3.55-21.72c.22-1.82.37-3.66.52-5.49s.24-3.66.23-5.51,0-3.68-.12-5.53l-.36-5.53c-.12-1.86-.24-3.58-.42-5.36s-.32-3.51-.51-5.23a76.11,76.11,0,0,0-1.58-10C396.77,27,395.76,24,394.05,22c-1.88-2.3-4-3.67-6.54-3.6a10.49,10.49,0,0,0-4.12,1.15,23.55,23.55,0,0,0-4.29,2.57,26.86,26.86,0,0,0-6.77,7.39,35.66,35.66,0,0,0-4.05,9.41,45.74,45.74,0,0,0-1.1,5.07c-.14.86-.25,1.72-.33,2.57s-.13,1.77-.14,2.47l0-.5c1.62,9.16,2.82,18.27,3.87,27.45s1.89,18.37,2.4,27.6.71,18.48.35,27.75a29.46,29.46,0,0,0,.31,6.41,14.63,14.63,0,0,0,.8,2.88,5.61,5.61,0,0,0,1.34,2.06,1.39,1.39,0,0,0,1.38.34,4.57,4.57,0,0,0,1.91-1.35A18.33,18.33,0,0,0,382.16,136.32Zm3.53,1.43a22,22,0,0,1-3.77,6.52,8.27,8.27,0,0,1-3.68,2.52,5.34,5.34,0,0,1-2.7.12,5.61,5.61,0,0,1-2.37-1.16,9.41,9.41,0,0,1-2.54-3.57,18.77,18.77,0,0,1-1.11-3.72,33.72,33.72,0,0,1-.49-7.31c.26-9.09-.11-18.22-.75-27.32s-1.61-18.2-2.84-27.25-2.73-18.1-4.42-27l0-.26v-.23c0-1.15.06-2.06.15-3.07s.21-2,.36-2.93a44.73,44.73,0,0,1,6-16.61,36.46,36.46,0,0,1,7.95-9c.79-.64,1.61-1.23,2.45-1.8l1.26-.85,1.31-.77a18.18,18.18,0,0,1,6.34-2.31,14.11,14.11,0,0,1,7.28.9,18.28,18.28,0,0,1,5.81,3.89,20.7,20.7,0,0,1,2.28,2.62A22.27,22.27,0,0,1,403.94,22a31.27,31.27,0,0,1,2.33,5.88,47.64,47.64,0,0,1,1.83,11.83,52.76,52.76,0,0,1-1,11.56c-.69,3.7-1.45,7.38-2.1,11.06-.28,1.84-.6,3.68-.86,5.52s-.47,3.69-.77,5.53c-1.12,7.36-2.42,14.69-4.08,22s-3.6,14.46-5.9,21.54S388.4,130.85,385.69,137.75Z"/></g></svg>