<svg xmlns="http://www.w3.org/2000/svg" viewBox="0 0 640 320"><defs><style>.cls-1{fill:blue;}.cls-2{fill:#0d0a09;}</style></defs><g id="Eyes"><path class="cls-1" d="M378.44,95.33s9.55-27.46-11.6-45.82c-27.28-23.68-54.95-7.88-64.9,3.74a1.3,1.3,0,0,1-2.27-1.13c1.79-7.29,6.21-19.08,16.77-26.43,0,0-30.68-1.58-46.49,37.39s22.16,54.53,22.16,54.53"/><path class="cls-2" d="M378,95.16a49.81,49.81,0,0,0,1.27-19.28,42,42,0,0,0-2.32-9.29,37.33,37.33,0,0,0-4.49-8.35,37.78,37.78,0,0,0-6.41-6.9,58.26,58.26,0,0,0-7.78-5.51,41.65,41.65,0,0,0-17.63-5.69,39.87,39.87,0,0,0-18,2.88,48,48,0,0,0-15.31,10c-.54.53-1,1.07-1.55,1.62l-.72.84-.18.21-.11.12-.19.2a4.91,4.91,0,0,1-2.58,1.41,5.08,5.08,0,0,1-4.42-1.19,5,5,0,0,1-1.65-4.45,4.86,4.86,0,0,1,.1-.55l0-.17.08-.31.16-.64c.1-.43.22-.85.34-1.28a57.77,57.77,0,0,1,3.73-9.9,43.23,43.23,0,0,1,13.8-16.54l2.11,7.37h-.71l-.85,0c-.59,0-1.18.09-1.77.17-1.19.14-2.4.35-3.59.61a40.68,40.68,0,0,0-7,2.2,46.89,46.89,0,0,0-12.58,7.78,58.18,58.18,0,0,0-10,11.3c-.71,1.06-1.39,2.15-2.07,3.24s-1.31,2.21-1.89,3.36c-1.19,2.28-2.35,4.64-3.31,7a47.21,47.21,0,0,0-3.63,14.67,37.63,37.63,0,0,0,.31,7.5,34.44,34.44,0,0,0,2,7.28,39.19,39.19,0,0,0,8.56,12.77,51.16,51.16,0,0,0,12.64,9.46l0,0a.5.5,0,0,1-.41.91,49.62,49.62,0,0,1-14.14-8.36,41.2,41.2,0,0,1-10.46-13.09,39.27,39.27,0,0,1-2.92-8.07,40.54,40.54,0,0,1-.94-8.57,50.36,50.36,0,0,1,3.08-16.77A78.34,78.34,0,0,1,273.75,48a61.24,61.24,0,0,1,10.86-13.23,51.28,51.28,0,0,1,14.58-9.43,49.39,49.39,0,0,1,8.36-2.69,42.46,42.46,0,0,1,4.37-.77c.75-.08,1.49-.15,2.25-.2l1.16,0h1.32l12.48.27L318.75,29a36.64,36.64,0,0,0-11.38,13.42,51.49,51.49,0,0,0-3.41,8.5c-.11.37-.23.74-.33,1.11l-.15.56-.07.28,0,.14a2.21,2.21,0,0,0,.05-.25,2.73,2.73,0,0,0-.14-1.2,2.58,2.58,0,0,0-.7-1,2.42,2.42,0,0,0-2.13-.55,2.54,2.54,0,0,0-1.07.51l-.18.17-.08.09,0,0,0,0,.23-.25.93-1c.64-.64,1.28-1.28,2-1.87A52.51,52.51,0,0,1,320.35,37a45.92,45.92,0,0,1,20.83-2.2,46.45,46.45,0,0,1,19.34,7.36,62.61,62.61,0,0,1,8,6.35,41.34,41.34,0,0,1,6.6,7.91,40.43,40.43,0,0,1,4.36,9.27,44.39,44.39,0,0,1,1.94,10,51,51,0,0,1-2.54,19.83.5.5,0,0,1-1-.29Z"/><path class="cls-2" d="M345,98.12a38.76,38.76,0,0,1-11.94.57,45.68,45.68,0,0,1-6-1.1,41.27,41.27,0,0,1-5.79-2,44.14,44.14,0,0,1-10.5-6.31,43.55,43.55,0,0,1-8.51-9l-.15-.22L302,79.8c-.92-1.87-2-3.87-2.94-6a50.89,50.89,0,0,1-2.49-6.63,33.76,33.76,0,0,1-1.05-14.41,38.14,38.14,0,0,1,4.67-13.29,52.73,52.73,0,0,1,8.24-10.77,1.35,1.35,0,0,1,2.12,1.62v0a76.74,76.74,0,0,0-5.67,11.37,38.2,38.2,0,0,0-2.68,11.73,30.86,30.86,0,0,0,1.68,11.46,79.44,79.44,0,0,0,5.29,11.27l-.28-.47a34.69,34.69,0,0,0,3.2,3.91,43.92,43.92,0,0,0,3.73,3.61,48.48,48.48,0,0,0,8.54,5.91A44.16,44.16,0,0,0,334.1,93a54.74,54.74,0,0,0,10.66,1.66h0a1.74,1.74,0,0,1,.23,3.45Z"/></g></svg>