<svg xmlns="http://www.w3.org/2000/svg" viewBox="0 0 640 320"><defs><style>.cls-1{fill:blue;}.cls-2{fill:#1d1d1b;}.cls-3{fill:#500000;}</style></defs><g id="Eyes"><path class="cls-1" d="M478.1,246c-5.66-42.95,59.79-43.38,38.42-51.41-36.65-13.77-34.4-30.23-37.42-44.34-4.71-22-16.3,28.94-58,28.51"/><path class="cls-2" d="M477.71,246.1a34.94,34.94,0,0,1,.06-13.44,32,32,0,0,1,5.68-12.42,45.92,45.92,0,0,1,9.83-9.56,84.32,84.32,0,0,1,11.66-7c2-1,4-2,6-2.93s4-1.85,5.7-2.84a10.23,10.23,0,0,0,1.11-.72c.3-.21.5-.5.35-.31a1.61,1.61,0,0,0-.23.94,1.66,1.66,0,0,0,.28.85c.1.13-.15-.1-.46-.25a21.54,21.54,0,0,0-2.59-1l-3.17-1.21a99.44,99.44,0,0,1-12.37-5.85,61.94,61.94,0,0,1-5.88-3.74,51.13,51.13,0,0,1-5.46-4.56,36.81,36.81,0,0,1-8.26-12,60.53,60.53,0,0,1-3.62-13.57c-.39-2.16-.76-4.32-1.27-6.18a9.17,9.17,0,0,0-.81-2.1c-.09-.19-.18-.09.32.27a2.33,2.33,0,0,0,1.05.35,1.89,1.89,0,0,0,.73,0c.22-.08,0,0-.21.19a10.38,10.38,0,0,0-.85.77c-.64.63-1.31,1.4-2,2.17-1.39,1.57-2.78,3.31-4.28,5a95,95,0,0,1-9.65,9.7,61.88,61.88,0,0,1-11.49,7.88,43.48,43.48,0,0,1-26.75,4.72v-.8a56.45,56.45,0,0,0,12.57-3.14,46.77,46.77,0,0,0,5.75-2.64,47.74,47.74,0,0,0,5.34-3.28c6.9-4.77,12.5-11.06,18-17.76,1.36-1.7,2.78-3.38,4.28-5.13a36.14,36.14,0,0,1,2.53-2.66,18.83,18.83,0,0,1,1.64-1.39,9.28,9.28,0,0,1,2.67-1.41,6.24,6.24,0,0,1,2.36-.28,5.94,5.94,0,0,1,2.61.87,7,7,0,0,1,2.45,2.75,15.42,15.42,0,0,1,1.4,4.12c.5,2.43.84,4.63,1.16,6.83a53.24,53.24,0,0,0,2.78,12.06,29.29,29.29,0,0,0,6.44,9.84,44.4,44.4,0,0,0,4.59,4,58.21,58.21,0,0,0,5.2,3.49,86.42,86.42,0,0,0,11.43,5.71l3,1.2a24.54,24.54,0,0,1,3.44,1.65,7.54,7.54,0,0,1,2.1,1.81,4.36,4.36,0,0,1,.91,2.35,4.21,4.21,0,0,1-.65,2.51,6.79,6.79,0,0,1-2,2,15.77,15.77,0,0,1-1.72,1c-2.18,1.1-4.24,1.89-6.3,2.73s-4.07,1.62-6.07,2.47A80.34,80.34,0,0,0,495.52,214a42.58,42.58,0,0,0-9.75,8.11,29.46,29.46,0,0,0-6.11,11.06A34.83,34.83,0,0,0,478.5,246Z"/><path class="cls-1" d="M474,141.26c16-4.29,30.41,13.25,34.85,18.45,12.3,14.42,18.2,33.21,11.83,38.39,0,0-9.53,7.32-23.7-.83-7.05-4.05-15.78-10.44-21.37-20.37C464.76,157.62,474,141.26,474,141.26Z"/><path class="cls-2" d="M473.78,140.94c.48-.15,1-.3,1.48-.43s.94-.18,1.41-.28a20.38,20.38,0,0,1,2.82-.25,23,23,0,0,1,5.66.61,34.14,34.14,0,0,1,10.35,4.61c6.38,4.1,11.64,9.58,16.53,15.19a69.86,69.86,0,0,1,11.74,19.5,33.85,33.85,0,0,1,2.45,11.75,12.91,12.91,0,0,1-1.8,6.87,9.16,9.16,0,0,1-1.33,1.62l-.43.39-.49.36c-.25.17-.49.33-.74.47a20.06,20.06,0,0,1-2.93,1.47,24.3,24.3,0,0,1-12.58,1.47,33.56,33.56,0,0,1-11.64-4,53.65,53.65,0,0,1-17.9-15.07,44.79,44.79,0,0,1-5.81-10.43,39.73,39.73,0,0,1-2.64-11.6,36.49,36.49,0,0,1,1-11.67,36,36,0,0,1,1.89-5.44c.39-.88.82-1.73,1.28-2.56.23-.42.48-.83.73-1.23l.4-.59.21-.29.1-.15A3.46,3.46,0,0,1,473.78,140.94Zm.49.63c.15-.12,0,0,.05,0l-.05.16-.1.33-.19.65q-.18.66-.33,1.32c-.21.88-.39,1.76-.53,2.65a38.21,38.21,0,0,0-.53,5.3,39.35,39.35,0,0,0,.94,10.32,42.43,42.43,0,0,0,9.15,17.87,68.73,68.73,0,0,0,15.59,13.25,26,26,0,0,0,8.82,3.86,17.65,17.65,0,0,0,9.13-.48,14.11,14.11,0,0,0,2-.9l.43-.25s.19-.12.08,0l.09-.07a2.3,2.3,0,0,0,.44-.48,7,7,0,0,0,1-3.64,28.39,28.39,0,0,0-1.61-9.81,65.39,65.39,0,0,0-9.86-18.76c-4.36-5.76-9-11.36-14.79-15.65a32.15,32.15,0,0,0-9.4-5,21.52,21.52,0,0,0-5.22-1,20,20,0,0,0-2.68,0c-.43.05-.91.09-1.32.15S474.68,141.52,474.27,141.57Z"/><path class="cls-3" d="M475.21,167.79c10.22-5,17.82,2.57,20.17,5.39,3.08,3.69,5.2,10.91-.14,18.42,0,0-8.06-4.91-13.14-11.56C476.32,172.48,475.21,167.79,475.21,167.79Z"/><path class="cls-1" d="M161.9,246c5.66-42.95-59.79-43.38-38.42-51.41,36.65-13.77,34.4-30.23,37.42-44.34,4.71-22,16.3,28.94,58,28.51"/><path class="cls-2" d="M161.5,246a34.83,34.83,0,0,0-1.16-12.85,29.46,29.46,0,0,0-6.11-11.06,42.58,42.58,0,0,0-9.75-8.11A80.88,80.88,0,0,0,133,208.11c-2-.85-4-1.66-6.07-2.47s-4.12-1.63-6.3-2.73a16.77,16.77,0,0,1-1.72-1,6.79,6.79,0,0,1-2-2,4.21,4.21,0,0,1-.65-2.51,4.44,4.44,0,0,1,.9-2.35,7.7,7.7,0,0,1,2.11-1.81,24.54,24.54,0,0,1,3.44-1.65l3-1.2a86.42,86.42,0,0,0,11.43-5.71,58.21,58.21,0,0,0,5.2-3.49,44.4,44.4,0,0,0,4.59-4,29.29,29.29,0,0,0,6.44-9.84,53.24,53.24,0,0,0,2.78-12.06c.32-2.2.66-4.4,1.16-6.83a15.42,15.42,0,0,1,1.4-4.12,7,7,0,0,1,2.45-2.75,5.94,5.94,0,0,1,2.61-.87,6.24,6.24,0,0,1,2.36.28,9.28,9.28,0,0,1,2.67,1.41,18.83,18.83,0,0,1,1.64,1.39,36.14,36.14,0,0,1,2.53,2.66c1.5,1.75,2.92,3.43,4.28,5.13,5.46,6.7,11.06,13,18,17.76a47.74,47.74,0,0,0,5.34,3.28,46.77,46.77,0,0,0,5.75,2.64,56.45,56.45,0,0,0,12.57,3.14v.8a43.48,43.48,0,0,1-26.75-4.72,61.88,61.88,0,0,1-11.49-7.88,95,95,0,0,1-9.65-9.7c-1.5-1.66-2.89-3.4-4.29-5-.69-.77-1.36-1.54-2-2.17a10.38,10.38,0,0,0-.85-.77c-.22-.18-.43-.27-.21-.19a1.89,1.89,0,0,0,.73,0,2.33,2.33,0,0,0,1-.35c.5-.36.41-.46.32-.27a9.17,9.17,0,0,0-.81,2.1c-.51,1.86-.88,4-1.27,6.18A60.53,60.53,0,0,1,160,170.08a36.81,36.81,0,0,1-8.26,12,51.13,51.13,0,0,1-5.46,4.56,63.23,63.23,0,0,1-5.88,3.74,99.44,99.44,0,0,1-12.37,5.85l-3.17,1.21a21.54,21.54,0,0,0-2.59,1c-.31.15-.56.38-.46.25a1.77,1.77,0,0,0,.28-.85,1.61,1.61,0,0,0-.23-.94c-.15-.19,0,.1.35.31a10.23,10.23,0,0,0,1.11.72c1.7,1,3.72,1.91,5.7,2.84s4,1.91,6,2.93a84.32,84.32,0,0,1,11.66,7,45.92,45.92,0,0,1,9.83,9.56,32,32,0,0,1,5.68,12.42,35.14,35.14,0,0,1,.06,13.44Z"/><path class="cls-1" d="M166,141.26c-16-4.29-30.41,13.25-34.85,18.45-12.3,14.42-18.2,33.21-11.83,38.39,0,0,9.53,7.32,23.7-.83,7.05-4.05,15.78-10.44,21.37-20.37C175.24,157.62,166,141.26,166,141.26Z"/><path class="cls-2" d="M165.73,141.57c-.41,0-.81-.1-1.2-.17s-.89-.1-1.32-.15a20,20,0,0,0-2.68,0,21.52,21.52,0,0,0-5.22,1,32.15,32.15,0,0,0-9.4,5c-5.75,4.29-10.43,9.89-14.79,15.65a65.39,65.39,0,0,0-9.86,18.76,28.39,28.39,0,0,0-1.61,9.81,7,7,0,0,0,1,3.64,2.3,2.3,0,0,0,.44.48l.09.07c-.11-.08,0,0,.08,0l.43.25a14.11,14.11,0,0,0,2,.9,17.65,17.65,0,0,0,9.13.48,26,26,0,0,0,8.82-3.86,68.73,68.73,0,0,0,15.59-13.25,42.55,42.55,0,0,0,9.15-17.87,39.35,39.35,0,0,0,.94-10.32,38.21,38.21,0,0,0-.53-5.3c-.14-.89-.32-1.77-.53-2.65q-.15-.66-.33-1.32l-.19-.65-.1-.33,0-.16S165.58,141.45,165.73,141.57Zm.49-.63a3.46,3.46,0,0,1,.22.27l.1.15.21.29.4.59c.25.4.5.81.73,1.23.46.83.89,1.68,1.28,2.56a36,36,0,0,1,1.89,5.44,36.49,36.49,0,0,1,1,11.67,39.73,39.73,0,0,1-2.64,11.6,44.79,44.79,0,0,1-5.81,10.43,53.65,53.65,0,0,1-17.9,15.07,33.56,33.56,0,0,1-11.64,4,24.3,24.3,0,0,1-12.58-1.47,20.06,20.06,0,0,1-2.93-1.47c-.25-.14-.49-.3-.74-.47l-.49-.36-.43-.39a9.16,9.16,0,0,1-1.33-1.62,12.91,12.91,0,0,1-1.8-6.87,33.85,33.85,0,0,1,2.45-11.75A69.86,69.86,0,0,1,128,160.39c4.89-5.61,10.15-11.09,16.53-15.19a34.14,34.14,0,0,1,10.35-4.61,23,23,0,0,1,5.66-.61,20.38,20.38,0,0,1,2.82.25c.47.1.91.16,1.41.28S165.74,140.79,166.22,140.94Z"/><path class="cls-3" d="M164.79,167.79c-10.22-5-17.82,2.57-20.17,5.39-3.08,3.69-5.2,10.91.13,18.42,0,0,8.07-4.91,13.15-11.56C163.68,172.48,164.79,167.79,164.79,167.79Z"/></g></svg>