<svg xmlns="http://www.w3.org/2000/svg" viewBox="0 0 640 160"><defs><style>.cls-1{fill:blue;}.cls-2{fill:#1d1d1b;}</style></defs><g id="Eyes"><path class="cls-1" d="M504.85,76.72s11.25.14,15.39,10.84c0,0,8.09-15.29-5.68-26.22,0,0,26.51-10.71,45.62,15.35,19,25.89-8.49,48.12-17.17,49.79,0,0,0,0,0,0,1.82.18,17,1.35,27.23-8.39,0,0-3.54,23.24-35.19,29.07s-53.28-32.75-53.28-32.75"/><path class="cls-2" d="M504.86,76.28a19.13,19.13,0,0,1,5.05.84,18.61,18.61,0,0,1,4.66,2.16,19.45,19.45,0,0,1,2.08,1.56,18.13,18.13,0,0,1,4.47,6.38l-1.72-.1a23.68,23.68,0,0,0,1.85-6.67,19.8,19.8,0,0,0-.29-6.83,19.23,19.23,0,0,0-1-3.23,20,20,0,0,0-3.81-5.54,9.83,9.83,0,0,0-1.26-1.15l-1.29-1.12-2-1.74,2.42-1a33.9,33.9,0,0,1,4.52-1.4,43.76,43.76,0,0,1,4.57-.84,42.59,42.59,0,0,1,9.31-.17,39.64,39.64,0,0,1,17.68,6.08,45.87,45.87,0,0,1,7.33,5.9,50.81,50.81,0,0,1,6.07,7.17,37.2,37.2,0,0,1,4.53,8.5,30,30,0,0,1,1.85,9.69,32.8,32.8,0,0,1-5.64,18.61,44.71,44.71,0,0,1-6.08,7.47,43.23,43.23,0,0,1-7.55,6,27.43,27.43,0,0,1-4.56,2.33c-.45.15-.86.32-1.36.45l-.76.19-.19.05a3.69,3.69,0,0,0,2.52-2,3.51,3.51,0,0,0-1.09-4.24c-1.58-.92-2.13-.64-1.74-.68h0l.23,0c.63,0,1.31.08,2,.08a38.88,38.88,0,0,0,8.13-.75,28.19,28.19,0,0,0,14.08-6.77l7.77-7.23-1.89,10.3a20.75,20.75,0,0,1-.53,2.16c-.17.67-.42,1.28-.63,1.92a34.82,34.82,0,0,1-1.59,3.64c-.54,1.21-1.27,2.3-1.92,3.44s-1.45,2.19-2.28,3.2a42.29,42.29,0,0,1-11.71,10.09A54.94,54.94,0,0,1,541,148.75l-3.66.76-1.84.37-1.91.24a37.87,37.87,0,0,1-3.84.24c-1.29,0-2.57-.05-3.85-.15a41.56,41.56,0,0,1-14.5-4.26,58,58,0,0,1-12.2-8.4c-1.82-1.65-3.57-3.35-5.23-5.14s-3.2-3.66-4.69-5.57a83.42,83.42,0,0,1-7.88-12.16.44.44,0,0,1,.76-.45v0a90.81,90.81,0,0,0,19.1,20.8,53.75,53.75,0,0,0,11.9,7.08,37.1,37.1,0,0,0,13.08,3.09c.56.05,1.11,0,1.67,0s1.11,0,1.66,0a30.45,30.45,0,0,0,3.31-.36l1.64-.27,1.67-.43,3.33-.84a51.44,51.44,0,0,0,12.31-5.47,37.43,37.43,0,0,0,9.64-8.86c.68-.85,1.22-1.8,1.84-2.69s1.09-1.87,1.51-2.86a31.18,31.18,0,0,0,1.21-3c.15-.5.35-1,.46-1.5.06-.24.13-.5.18-.73s.11-.52.12-.61l5.88,3.07a35.27,35.27,0,0,1-17.55,8.68,46.25,46.25,0,0,1-9.6.83c-.81,0-1.62-.05-2.47-.12l-.32,0h0c.36,0-.21.24-1.8-.7a3.53,3.53,0,0,1-1.11-4.3,3.73,3.73,0,0,1,2.57-2l.08,0,.33-.08c.21,0,.5-.17.75-.24a21.5,21.5,0,0,0,3.37-1.72,39.38,39.38,0,0,0,11.69-11.24,27.4,27.4,0,0,0,5-14.88A25.23,25.23,0,0,0,562.42,87a31.42,31.42,0,0,0-3.53-7.35A45.35,45.35,0,0,0,553.72,73a40.46,40.46,0,0,0-6.3-5.54,35.29,35.29,0,0,0-15.5-6.09,38.14,38.14,0,0,0-8.48-.21,39.83,39.83,0,0,0-4.23.58,29.94,29.94,0,0,0-4.05,1.06l.39-2.71L517,61.42a12.56,12.56,0,0,1,1.36,1.37,21.53,21.53,0,0,1,2.34,3.12,21,21,0,0,1,1.77,3.47,21.2,21.2,0,0,1,1,3.75,22.59,22.59,0,0,1,0,7.65A25.79,25.79,0,0,1,521.08,88l-.93,1.83-.79-1.93a16.75,16.75,0,0,0-2.22-4.15,14.56,14.56,0,0,0-1.53-1.8,15.43,15.43,0,0,0-1.82-1.52,17,17,0,0,0-4.24-2.24,18.77,18.77,0,0,0-4.7-1h0a.44.44,0,0,1,.05-.87Z"/><path class="cls-1" d="M135.15,76.72s-11.25.14-15.39,10.84c0,0-8.09-15.29,5.68-26.22,0,0-26.51-10.71-45.62,15.35-19,25.89,8.49,48.12,17.17,49.79,0,0,0,0,0,0-1.82.18-17,1.35-27.23-8.39,0,0,3.54,23.24,35.19,29.07s53.28-32.75,53.28-32.75"/><path class="cls-2" d="M135.15,77.15a18.77,18.77,0,0,0-4.7,1,17,17,0,0,0-4.24,2.24A15.43,15.43,0,0,0,124.39,82a14.56,14.56,0,0,0-1.53,1.8,16.75,16.75,0,0,0-2.22,4.15l-.79,1.93L118.93,88a25.49,25.49,0,0,1-2.37-7.22,22.59,22.59,0,0,1,0-7.65,21.2,21.2,0,0,1,1-3.75,21,21,0,0,1,1.77-3.47,21.53,21.53,0,0,1,2.34-3.12A13.53,13.53,0,0,1,123,61.42l1.41-1.32.39,2.71a30.18,30.18,0,0,0-4-1.06,40.37,40.37,0,0,0-4.24-.58,38.14,38.14,0,0,0-8.48.21,35.29,35.29,0,0,0-15.5,6.09A40.46,40.46,0,0,0,86.28,73a45.35,45.35,0,0,0-5.17,6.66A31.42,31.42,0,0,0,77.58,87a25.23,25.23,0,0,0-1.19,7.81,27.4,27.4,0,0,0,5,14.88A39.38,39.38,0,0,0,93.12,121a21.5,21.5,0,0,0,3.37,1.72c.25.07.54.19.75.24l.33.08.08,0a3.76,3.76,0,0,1,2.58,2,3.56,3.56,0,0,1-1.11,4.3c-1.6.94-2.17.66-1.81.7h0l-.32,0c-.85.07-1.66.11-2.47.12a46.25,46.25,0,0,1-9.6-.83,35.27,35.27,0,0,1-17.55-8.68l5.88-3.07c0,.09.08.4.12.61s.12.49.19.73c.11.49.3,1,.45,1.5a31.18,31.18,0,0,0,1.21,3c.42,1,1,1.9,1.51,2.86s1.16,1.84,1.84,2.69a37.43,37.43,0,0,0,9.64,8.86,51.44,51.44,0,0,0,12.31,5.47l3.33.84,1.67.43,1.64.27a30.45,30.45,0,0,0,3.31.36c.55.07,1.11,0,1.66,0s1.11,0,1.67,0a37.1,37.1,0,0,0,13.08-3.09,53.75,53.75,0,0,0,11.9-7.08,90.81,90.81,0,0,0,19.1-20.8v0a.44.44,0,0,1,.76.45,83.42,83.42,0,0,1-7.88,12.16c-1.49,1.91-3,3.79-4.69,5.57s-3.41,3.49-5.23,5.14a58,58,0,0,1-12.2,8.4,41.56,41.56,0,0,1-14.5,4.26c-1.28.1-2.56.16-3.85.15a37.87,37.87,0,0,1-3.84-.24l-1.91-.24-1.84-.37L99,148.75a54.94,54.94,0,0,1-14.07-5.63A42.29,42.29,0,0,1,73.23,133c-.83-1-1.52-2.13-2.28-3.2s-1.38-2.23-1.92-3.44a34.82,34.82,0,0,1-1.59-3.64c-.21-.64-.46-1.25-.63-1.92a20.75,20.75,0,0,1-.53-2.16l-1.89-10.3,7.77,7.23a28.19,28.19,0,0,0,14.08,6.77,38.88,38.88,0,0,0,8.13.75c.68,0,1.36,0,2-.08l.23,0h0c.39,0-.16-.24-1.73.68a3.5,3.5,0,0,0-1.1,4.24,3.69,3.69,0,0,0,2.52,2l-.19-.05-.76-.19c-.5-.13-.91-.3-1.36-.45a27.43,27.43,0,0,1-4.56-2.33,43.23,43.23,0,0,1-7.55-6,44.71,44.71,0,0,1-6.08-7.47A32.8,32.8,0,0,1,70.17,94.8,30,30,0,0,1,72,85.11a37.2,37.2,0,0,1,4.53-8.5,50.81,50.81,0,0,1,6.07-7.17A45.87,45.87,0,0,1,90,63.54a39.64,39.64,0,0,1,17.68-6.08,42.59,42.59,0,0,1,9.31.17,43.76,43.76,0,0,1,4.57.84,33.9,33.9,0,0,1,4.52,1.4l2.42,1-2,1.74-1.29,1.12a9.83,9.83,0,0,0-1.26,1.15,20,20,0,0,0-3.81,5.54,19.23,19.23,0,0,0-1,3.23,19.8,19.8,0,0,0-.29,6.83,23.68,23.68,0,0,0,1.85,6.67l-1.72.1a18.13,18.13,0,0,1,4.47-6.38,19.45,19.45,0,0,1,2.08-1.56,18.51,18.51,0,0,1,4.67-2.16,19,19,0,0,1,5-.84.44.44,0,0,1,.45.43.43.43,0,0,1-.4.44Z"/></g></svg>