<svg xmlns="http://www.w3.org/2000/svg" viewBox="0 0 640 160"><defs><style>.cls-1{fill:#0d0a09;}.cls-2{fill:#fcfcfc;}.cls-3{fill:blue;}.cls-4{fill:#000050;}</style></defs><g id="Kitchen_Sink" data-name="Kitchen Sink"><path class="cls-1" d="M242.2,86.55c0,13.31-10.79,16.11-24.1,16.11S194,99.86,194,86.55a24.1,24.1,0,1,1,48.2,0Z"/><path class="cls-1" d="M447,86.55c0,13.31-10.79,16.11-24.1,16.11s-24.1-2.8-24.1-16.11a24.1,24.1,0,1,1,48.2,0Z"/><circle class="cls-2" cx="435.56" cy="82.38" r="5.09"/><circle class="cls-2" cx="414.56" cy="87.46" r="8.34"/><circle class="cls-2" cx="232.17" cy="82.38" r="5.09"/><circle class="cls-2" cx="209.89" cy="87.46" r="8.34"/><path class="cls-3" d="M460.69,112.69c7.28-4.11,0-9.44-3.84-12.06,0,0-8.07-5.92-28.45-7.51-49.16-3.82-34.14,15.37-34.14,15.37"/><path class="cls-1" d="M460,111.46a6.19,6.19,0,0,0,1.73-1.56,1.76,1.76,0,0,0,.36-1.49c-.22-1.06-1.43-2.43-2.79-3.52-.68-.56-1.41-1.1-2.18-1.62l-1.18-.77a4.17,4.17,0,0,0-.56-.33l-.57-.28a42.06,42.06,0,0,0-5.07-2,76.84,76.84,0,0,0-10.85-2.71c-3.71-.64-7.46-1.07-11.24-1.38s-7.63-.53-11.42-.55a74.11,74.11,0,0,0-11.2.58A31.46,31.46,0,0,0,399.76,97a12.15,12.15,0,0,0-4.29,2.25,4.69,4.69,0,0,0-1.66,3.76,9.79,9.79,0,0,0,1.42,4.72l.06.11a1.24,1.24,0,0,1-2,1.42,12.34,12.34,0,0,1-1.8-2.74,10.57,10.57,0,0,1-1-3.22,8.1,8.1,0,0,1,.3-3.64,8.81,8.81,0,0,1,1.85-3.2,15,15,0,0,1,5.61-3.68,33.38,33.38,0,0,1,6-1.7c8-1.42,16-1.27,23.83-.73a97.32,97.32,0,0,1,11.83,1.58,62.21,62.21,0,0,1,11.58,3.37,32.36,32.36,0,0,1,5.5,2.86c.23.14.45.3.68.47l.64.49,1.2.89c.8.63,1.6,1.28,2.37,2a16.8,16.8,0,0,1,2.17,2.46,7.48,7.48,0,0,1,1.43,3.48,5.13,5.13,0,0,1-1.28,3.91,8.91,8.91,0,0,1-2.78,2.06,1.42,1.42,0,0,1-1.42-2.46Z"/><path class="cls-4" d="M395.36,110.19c-3.24,6.19.44,24.85,20.92,24.85,16,0,40.94-10.1,40.94-17.84s-13-14-28.93-14S399.36,102.54,395.36,110.19Z"/><path class="cls-3" d="M179.31,112.69c-7.28-4.11,0-9.44,3.84-12.06,0,0,8.07-5.92,28.45-7.51,49.16-3.82,34.14,15.37,34.14,15.37"/><path class="cls-1" d="M178.61,113.93a8.91,8.91,0,0,1-2.78-2.06,5.13,5.13,0,0,1-1.28-3.91,7.48,7.48,0,0,1,1.43-3.48,16.8,16.8,0,0,1,2.17-2.46c.77-.73,1.57-1.38,2.37-2l1.2-.89.64-.49c.23-.17.45-.33.68-.47a32.36,32.36,0,0,1,5.5-2.86,62.21,62.21,0,0,1,11.58-3.37A97.22,97.22,0,0,1,212,90.35c7.84-.54,15.78-.69,23.82.73a33.38,33.38,0,0,1,6,1.7,15.09,15.09,0,0,1,5.61,3.68,8.81,8.81,0,0,1,1.85,3.2,8.1,8.1,0,0,1,.3,3.64,10.57,10.57,0,0,1-1,3.22,12.34,12.34,0,0,1-1.8,2.74,1.24,1.24,0,0,1-2-1.42l.06-.11a9.79,9.79,0,0,0,1.42-4.72,4.69,4.69,0,0,0-1.66-3.76A12.15,12.15,0,0,0,240.24,97,31.46,31.46,0,0,0,235,95.84a74.11,74.11,0,0,0-11.2-.58c-3.79,0-7.6.29-11.42.55s-7.53.74-11.24,1.38a76.84,76.84,0,0,0-10.85,2.71,42.06,42.06,0,0,0-5.07,2l-.57.28a4.17,4.17,0,0,0-.56.33l-1.18.77c-.77.52-1.5,1.06-2.18,1.62-1.36,1.09-2.57,2.46-2.79,3.52a1.76,1.76,0,0,0,.36,1.49,6.19,6.19,0,0,0,1.73,1.56h0a1.42,1.42,0,0,1-1.42,2.46Z"/><path class="cls-4" d="M244.64,110.19c3.24,6.19-.44,24.85-20.92,24.85-16,0-40.94-10.1-40.94-17.84s12.95-14,28.93-14S240.64,102.54,244.64,110.19Z"/></g></svg>