<svg xmlns="http://www.w3.org/2000/svg" viewBox="0 0 320 160"><defs><style>.cls-1{fill:blue;}.cls-2{fill:#0d0a09;}.cls-3{fill:#500000;}</style></defs><g id="Eyes"><path class="cls-1" d="M118.66,122.08c0-19.16,18.51-34.69,41.34-34.69s41.34,15.53,41.34,34.69S182.83,146.87,160,146.87,118.66,141.24,118.66,122.08Z"/><path class="cls-2" d="M116.6,122.08a32.11,32.11,0,0,1,3.29-14.83,38.31,38.31,0,0,1,9.3-12.06,45.81,45.81,0,0,1,27.89-10.93,49.14,49.14,0,0,1,15.08,1.45,47,47,0,0,1,13.92,6,40,40,0,0,1,11,10.46,33.71,33.71,0,0,1,5.86,14l.29,1.89c.06.64.06,1.28.09,1.91l.07,1.91c0,.64-.06,1.28-.09,1.92a24,24,0,0,1-1.8,7.51,20.25,20.25,0,0,1-4.3,6.45,24.91,24.91,0,0,1-6.1,4.51,44.87,44.87,0,0,1-14,4.41,92.87,92.87,0,0,1-14.39,1.16,138.26,138.26,0,0,1-14.38-.56,65.07,65.07,0,0,1-14.25-2.83,34.51,34.51,0,0,1-6.76-3.08,23.62,23.62,0,0,1-5.81-5,20.78,20.78,0,0,1-3.71-6.8A26.05,26.05,0,0,1,116.6,122.08Zm4.11,0a19.34,19.34,0,0,0,3.53,12.29A24.16,24.16,0,0,0,135,142.09a53.65,53.65,0,0,0,13.58,3.18,99.24,99.24,0,0,0,14.12.51,88.37,88.37,0,0,0,14-1.45,41.66,41.66,0,0,0,12.95-4.6,18.92,18.92,0,0,0,8.41-9.73,20.46,20.46,0,0,0,1.17-6.38c0-.56,0-1.11,0-1.66l-.15-1.65c-.05-.55-.07-1.1-.15-1.64l-.35-1.62A28.88,28.88,0,0,0,193,105.28a36.63,36.63,0,0,0-10-8.59,44.62,44.62,0,0,0-25.56-5.94,48.37,48.37,0,0,0-13,2.57,40.32,40.32,0,0,0-11.63,6.24,32.58,32.58,0,0,0-8.63,9.89A27.61,27.61,0,0,0,120.71,122.08Z"/><path class="cls-3" d="M145.83,133.4c-5.37,0-9.73-5.19-9.73-11.6s4.36-11.59,9.73-11.59,6.95,5.19,6.95,11.59S151.2,133.4,145.83,133.4Z"/><path class="cls-2" d="M145.83,135.45a11.89,11.89,0,0,1-9.11-3.7,13.77,13.77,0,0,1-3.84-9,15.15,15.15,0,0,1,2.65-9.36,11.91,11.91,0,0,1,8.36-5.22,9.42,9.42,0,0,1,5,.77,7.35,7.35,0,0,1,3.51,3.61,13,13,0,0,1,1.18,4.29,31,31,0,0,1,.21,4.17c0,1.38-.06,2.74-.16,4.13a23.8,23.8,0,0,1-.67,4.23,8.41,8.41,0,0,1-2.37,4.16,7.14,7.14,0,0,1-2.26,1.4c-.42.16-.84.24-1.27.36Zm0-4.11a4.37,4.37,0,0,0,2.68-.49,5.17,5.17,0,0,0,2.05-2.37,15.4,15.4,0,0,0,1.15-7.42,14.17,14.17,0,0,0-1.87-7,3.89,3.89,0,0,0-2.28-1.66,5.57,5.57,0,0,0-2.84.21,7.5,7.5,0,0,0-4.22,3.9,11.24,11.24,0,0,0-1.11,5.92,12.83,12.83,0,0,0,1.7,5.74A6.32,6.32,0,0,0,145.83,131.34Z"/><path class="cls-3" d="M174.17,133.4c5.37,0,9.73-5.19,9.73-11.6s-4.36-11.59-9.73-11.59-6.95,5.19-6.95,11.59S168.8,133.4,174.17,133.4Z"/><path class="cls-2" d="M174.17,131.34a6.32,6.32,0,0,0,4.74-3.21,12.83,12.83,0,0,0,1.7-5.74,11.24,11.24,0,0,0-1.11-5.92,7.5,7.5,0,0,0-4.22-3.9,5.57,5.57,0,0,0-2.84-.21,3.89,3.89,0,0,0-2.28,1.66,14.17,14.17,0,0,0-1.87,7,15.4,15.4,0,0,0,1.15,7.42,5.17,5.17,0,0,0,2.05,2.37A4.37,4.37,0,0,0,174.17,131.34Zm0,4.11-1.26-.16c-.43-.12-.85-.2-1.27-.36a7.14,7.14,0,0,1-2.26-1.4,8.41,8.41,0,0,1-2.37-4.16,23.8,23.8,0,0,1-.67-4.23c-.1-1.39-.16-2.75-.16-4.13a31,31,0,0,1,.21-4.17,13,13,0,0,1,1.18-4.29,7.35,7.35,0,0,1,3.51-3.61,9.42,9.42,0,0,1,5-.77,11.91,11.91,0,0,1,8.36,5.22,15.15,15.15,0,0,1,2.65,9.36,13.77,13.77,0,0,1-3.84,9A11.89,11.89,0,0,1,174.17,135.45Z"/></g></svg>