<svg xmlns="http://www.w3.org/2000/svg" viewBox="0 0 640 320"><defs><style>.cls-1{fill:blue;}.cls-2{fill:#0d0a09;}</style></defs><g id="top-shape"><path class="cls-1" d="M320,29.08c-108.4,0-196.28,87.87-196.28,196.28,0,21,3.49,35.46,29.54,40.55,19.14,3.73,32.32-7.4,43.33-6.25,9,.93,17,6,26.94,6.23,15.48.43,22.27-7.83,33.14-11.53,9.47-3.22,25.14,3.62,33.87,2.16,13.32-2.22,19.08-11.79,29.46-11.79s16.14,9.57,29.46,11.79c8.73,1.46,24.4-5.38,33.87-2.16,10.87,3.7,17.66,12,33.14,11.53,9.94-.27,17.92-5.3,26.94-6.23,11-1.15,24.19,10,43.33,6.25,26-5.09,29.54-19.51,29.54-40.55C516.28,117,428.4,29.08,320,29.08Z"/><path class="cls-2" d="M478.82,269.92c-8.39,0-15.55-2.32-21.6-4.29-5.19-1.68-9.68-3.14-13.47-2.74a54.84,54.84,0,0,0-11.18,2.81c-5,1.61-10.09,3.28-16,3.44-11.17.31-18.38-3.66-24.75-7.17a59.28,59.28,0,0,0-9.53-4.53c-4.49-1.53-11.25-.27-17.78.94-5.74,1.07-11.17,2.09-15.58,1.35-7.15-1.2-12.24-4.29-16.74-7S324.38,248,320,248s-7.82,2.09-12.18,4.74-9.59,5.81-16.74,7c-4.41.73-9.83-.28-15.58-1.35-6.53-1.21-13.29-2.47-17.78-.94a59.69,59.69,0,0,0-9.53,4.53c-6.37,3.51-13.6,7.48-24.75,7.17-5.92-.16-11.05-1.83-16-3.44a54.84,54.84,0,0,0-11.18-2.81c-3.8-.39-8.28,1.06-13.47,2.74-8,2.6-18,5.84-30.14,3.47-29.71-5.8-32.17-24-32.17-43.74,0-110,89.51-199.53,199.53-199.53s199.53,89.51,199.53,199.53c0,19.74-2.46,37.94-32.17,43.74A44.48,44.48,0,0,1,478.82,269.92ZM320,32.33c-106.44,0-193,86.59-193,193,0,21.75,4,32.89,26.91,37.36,10.51,2,19.22-.78,26.9-3.27,5.64-1.83,11-3.56,16.14-3a60.68,60.68,0,0,1,12.52,3.1c4.73,1.53,9.19,3,14.18,3.12,9.41.25,15.25-3,21.44-6.36a66.07,66.07,0,0,1,10.56-5c6.11-2.08,13.72-.66,21.07.71,5.16,1,10,1.87,13.32,1.33,5.92-1,10.25-3.62,14.44-6.16,4.6-2.79,9.36-5.68,15.55-5.68s10.95,2.89,15.55,5.68c4.19,2.54,8.52,5.17,14.44,6.16,3.28.54,8.16-.37,13.32-1.33,7.35-1.37,15-2.79,21.07-.71a66.07,66.07,0,0,1,10.56,5c6.19,3.4,12.06,6.62,21.44,6.36,5-.14,9.45-1.59,14.18-3.12a60.52,60.52,0,0,1,12.52-3.1c5.17-.53,10.5,1.2,16.14,3,7.68,2.49,16.38,5.32,26.9,3.27C509,258.25,513,247.11,513,225.36,513,118.92,426.44,32.33,320,32.33Z"/></g></svg>