<svg xmlns="http://www.w3.org/2000/svg" viewBox="0 0 640 160"><defs><style>.cls-1{fill:blue;}.cls-2{fill:#1d1d1b;}.cls-3{fill:#000050;}</style></defs><g id="Eyes"><path class="cls-1" d="M184.23,106.87a51.8,51.8,0,1,1-21.4-79.28"/><path class="cls-2" d="M185.49,107.84a50.9,50.9,0,0,1-10.21,10.83l-3.05,2.18c-.52.36-1,.75-1.55,1.07l-1.63.94c-1.1.6-2.17,1.28-3.3,1.82l-3.46,1.51a51.42,51.42,0,0,1-14.66,3.58l-1.89.21-1.9,0c-1.26,0-2.53.07-3.8,0l-3.79-.31-.94-.08-.94-.17-1.87-.34a62.83,62.83,0,0,1-7.38-1.88l-3.54-1.39c-.59-.25-1.2-.44-1.76-.73l-1.7-.87-1.7-.87a12.83,12.83,0,0,1-1.65-1l-3.2-2.08a14.15,14.15,0,0,1-1.54-1.13L108.55,118a26.47,26.47,0,0,1-2.88-2.5L103,112.84c-.86-.93-1.64-1.94-2.46-2.91l-1.22-1.47c-.38-.5-.71-1-1.07-1.57l-2.1-3.18-1.79-3.36c-.29-.57-.6-1.12-.87-1.69l-.72-1.77c-.46-1.18-1-2.34-1.38-3.54l-1.08-3.66A31,31,0,0,1,89.45,86a31.81,31.81,0,0,1-.6-3.75l-.34-3.79c0-1.26,0-2.53,0-3.79,0-.63,0-1.27,0-1.9l.2-1.88c.16-1.26.21-2.53.46-3.76L90,63.39a14.94,14.94,0,0,1,.48-1.83L91,59.75l.56-1.8c.18-.61.46-1.17.69-1.76l1.46-3.49a55.62,55.62,0,0,1,3.77-6.53l1.05-1.56a14.18,14.18,0,0,1,1.12-1.52l2.41-2.9a13.76,13.76,0,0,1,1.28-1.37l1.34-1.32A27.49,27.49,0,0,1,107.45,35a52,52,0,0,1,26.87-12.08A52.51,52.51,0,0,1,163.06,27a.62.62,0,0,1,.3.8.63.63,0,0,1-.76.31,52.25,52.25,0,0,0-27.79-2.28,51.39,51.39,0,0,0-13.16,4.47,49.82,49.82,0,0,0-11.34,7.88,24.43,24.43,0,0,0-2.46,2.42l-1.19,1.25a12.72,12.72,0,0,0-1.13,1.29l-2.1,2.72a10.48,10.48,0,0,0-1,1.42l-.91,1.46a57.36,57.36,0,0,0-3.25,6L97.06,58c-.19.53-.44,1.05-.59,1.6L96,61.26l-.46,1.65a11.48,11.48,0,0,0-.4,1.66l-.6,3.36c-.2,1.12-.21,2.27-.33,3.4L94.08,73c0,.57,0,1.14,0,1.7a48.89,48.89,0,0,0,1.77,13.46l1,3.24c.37,1.07.86,2.1,1.29,3.15l.65,1.56c.25.51.54,1,.81,1.5l1.62,3,1.92,2.8c.33.46.63.94,1,1.39l1.09,1.3c.73.86,1.42,1.76,2.18,2.6l2.43,2.37a23.46,23.46,0,0,0,2.56,2.21l1.32,1.06a12,12,0,0,0,1.36,1l2.85,1.84a11.18,11.18,0,0,0,1.47.84l1.5.79,1.5.79c.49.27,1,.44,1.55.67l3.15,1.28a52.72,52.72,0,0,0,6.55,1.76l1.67.33.83.17.85.09,3.38.37c1.13.09,2.27,0,3.4.08l1.71,0,1.7-.14a49.66,49.66,0,0,0,13.34-2.75l3.2-1.24c1-.45,2-1,3.09-1.5l1.54-.77c.51-.27,1-.61,1.47-.91l2.92-1.84A52.42,52.42,0,0,0,183,105.9h0a1.6,1.6,0,0,1,2.53,1.94Z"/><path class="cls-1" d="M455.77,106.87a51.8,51.8,0,1,0,21.4-79.28"/><path class="cls-2" d="M457,105.9a52.42,52.42,0,0,0,10.23,9.35l2.92,1.84c.5.3,1,.64,1.47.91l1.54.77c1,.49,2,1,3.09,1.5l3.2,1.24a49.66,49.66,0,0,0,13.34,2.75l1.7.14,1.71,0c1.13,0,2.27,0,3.4-.08l3.38-.37.85-.09.83-.17,1.67-.33a52.72,52.72,0,0,0,6.55-1.76l3.15-1.28c.51-.23,1.06-.4,1.55-.67l1.5-.79,1.5-.79a11.18,11.18,0,0,0,1.47-.84l2.85-1.84a12,12,0,0,0,1.36-1l1.32-1.06a23.46,23.46,0,0,0,2.56-2.21l2.43-2.37c.76-.84,1.45-1.74,2.18-2.6l1.09-1.3c.34-.45.64-.93,1-1.39l1.92-2.8,1.63-3c.26-.5.55-1,.8-1.5l.65-1.56c.43-1,.92-2.08,1.29-3.15l1-3.24a48.89,48.89,0,0,0,1.77-13.46c0-.56,0-1.13,0-1.7l-.14-1.7c-.12-1.13-.13-2.28-.33-3.4l-.6-3.36a11.48,11.48,0,0,0-.4-1.66L544,61.26l-.46-1.65c-.15-.55-.4-1.07-.59-1.6l-1.24-3.2a57.36,57.36,0,0,0-3.25-6l-.91-1.46a10.48,10.48,0,0,0-1-1.42l-2.1-2.72a11.59,11.59,0,0,0-1.13-1.29l-1.19-1.25a24.43,24.43,0,0,0-2.46-2.42,49.82,49.82,0,0,0-11.34-7.88,51.39,51.39,0,0,0-13.16-4.47,52.25,52.25,0,0,0-27.79,2.28.6.6,0,0,1-.46-1.11,52.51,52.51,0,0,1,28.74-4.15A52,52,0,0,1,532.55,35a27.49,27.49,0,0,1,2.76,2.53l1.34,1.32a13.76,13.76,0,0,1,1.28,1.37l2.41,2.9a12.94,12.94,0,0,1,1.12,1.52l1,1.56a55.62,55.62,0,0,1,3.77,6.53l1.46,3.49c.23.59.51,1.15.69,1.76l.56,1.8.55,1.81a14.94,14.94,0,0,1,.48,1.83l.76,3.72c.25,1.23.3,2.5.46,3.76l.2,1.88c0,.63,0,1.27,0,1.9,0,1.26,0,2.53,0,3.79l-.34,3.79a31.81,31.81,0,0,1-.6,3.75,31,31,0,0,1-.81,3.71l-1.08,3.66c-.39,1.2-.92,2.36-1.38,3.54l-.72,1.77c-.27.57-.58,1.12-.87,1.69l-1.79,3.36-2.1,3.18c-.36.52-.69,1.07-1.07,1.57l-1.22,1.47c-.82,1-1.6,2-2.46,2.91l-2.72,2.68a26.47,26.47,0,0,1-2.88,2.5L530,119.21a14.15,14.15,0,0,1-1.54,1.13l-3.19,2.08a13.67,13.67,0,0,1-1.66,1l-1.7.87-1.7.87c-.56.29-1.17.48-1.76.73l-3.54,1.39a62.83,62.83,0,0,1-7.38,1.88l-1.87.34-.93.17-.95.08L500,130c-1.27.07-2.54,0-3.8,0l-1.9,0-1.89-.21a51.42,51.42,0,0,1-14.66-3.58l-3.46-1.51c-1.13-.54-2.2-1.22-3.3-1.82l-1.63-.94c-.53-.32-1-.71-1.55-1.07l-3-2.18a50.9,50.9,0,0,1-10.21-10.83,1.6,1.6,0,0,1,2.52-2Z"/><path class="cls-3" d="M221.51,61.28c0,14-21.92,25.28-40.21,25.28s-26-11.32-26-25.28S170.12,36,188.4,36,221.51,47.32,221.51,61.28Z"/><path class="cls-3" d="M418.49,61.28c0,14,21.92,25.28,40.21,25.28s26-11.32,26-25.28S469.88,36,451.6,36,418.49,47.32,418.49,61.28Z"/></g></svg>