<svg xmlns="http://www.w3.org/2000/svg" viewBox="0 0 640 320"><defs><style>.cls-1{fill:blue;}.cls-2{fill:#1d1d1b;}.cls-3{fill:#500000;}</style></defs><g id="Eyes"><path class="cls-1" d="M481.08,228.09c22.34-22.35,25.36-55.57,6.74-74.19s-51.84-15.61-74.19,6.74"/><path class="cls-2" d="M480.79,227.81A69.71,69.71,0,0,0,492.16,211a58.31,58.31,0,0,0,5.4-19.26,46.9,46.9,0,0,0-2-19.43,38.28,38.28,0,0,0-10-16.1,36.89,36.89,0,0,0-7.69-5.48,38.51,38.51,0,0,0-8.78-3.32,55.59,55.59,0,0,0-18.8-1.22A65.78,65.78,0,0,0,431.5,151a92.38,92.38,0,0,0-17.59,10l-.56-.56A54.64,54.64,0,0,1,428.91,146a56,56,0,0,1,20.31-7.76,46.32,46.32,0,0,1,22.09,1.55,45.59,45.59,0,0,1,18.77,11.88,44,44,0,0,1,10.63,19.13,51.53,51.53,0,0,1,.81,21.46,64.4,64.4,0,0,1-20.16,36.14Z"/><path class="cls-3" d="M469.75,216.69c10.86-10.85,12.32-27,3.28-36s-25.17-7.58-36,3.27"/><path class="cls-2" d="M469.54,216.48a34.49,34.49,0,0,0,5.29-8.27,27.83,27.83,0,0,0,2.38-9.26c.55-6.28-1.5-12.62-5.88-16.59a16.39,16.39,0,0,0-7.7-3.85A30.25,30.25,0,0,0,455,178a34.74,34.74,0,0,0-8.92,1.95,55.26,55.26,0,0,0-8.81,4.23l-.43-.42a24.46,24.46,0,0,1,7.3-7.56A26.17,26.17,0,0,1,454.15,172a22,22,0,0,1,11.15.78,23.63,23.63,0,0,1,9.43,6.16,22.15,22.15,0,0,1,5.21,9.7,25.51,25.51,0,0,1,.24,10.68A31.56,31.56,0,0,1,470,216.9Z"/><path class="cls-1" d="M160.62,228.09c-22.35-22.35-25.37-55.57-6.74-74.19s51.84-15.61,74.19,6.74"/><path class="cls-2" d="M160.34,228.37a64.48,64.48,0,0,1-20.17-36.14,51.7,51.7,0,0,1,.82-21.46,44,44,0,0,1,10.63-19.13,45.62,45.62,0,0,1,18.76-11.88,46.36,46.36,0,0,1,22.1-1.55A56,56,0,0,1,212.79,146a54.64,54.64,0,0,1,15.56,14.39l-.56.56a92.38,92.38,0,0,0-17.59-10,65.86,65.86,0,0,0-18.79-4.82,55.59,55.59,0,0,0-18.8,1.22,38.34,38.34,0,0,0-8.78,3.32,36.89,36.89,0,0,0-7.69,5.48,38.19,38.19,0,0,0-10,16.1,46.9,46.9,0,0,0-2,19.43,58.31,58.31,0,0,0,5.4,19.26,69.71,69.71,0,0,0,11.37,16.86Z"/><path class="cls-3" d="M171.94,216.69c-10.85-10.85-12.31-27-3.27-36s25.17-7.58,36,3.27"/><path class="cls-2" d="M171.73,216.9a31.56,31.56,0,0,1-10.21-17.55,25.67,25.67,0,0,1,.23-10.68A22.17,22.17,0,0,1,167,179a23.63,23.63,0,0,1,9.43-6.16,22,22,0,0,1,11.15-.78,26.17,26.17,0,0,1,10.06,4.14,24.46,24.46,0,0,1,7.3,7.56l-.43.42a55.26,55.26,0,0,0-8.81-4.23,34.83,34.83,0,0,0-8.92-1.95,30.25,30.25,0,0,0-8.68.54,16.39,16.39,0,0,0-7.7,3.85c-4.38,4-6.43,10.31-5.88,16.59a27.83,27.83,0,0,0,2.38,9.26,34.18,34.18,0,0,0,5.29,8.27Z"/></g></svg>