<svg xmlns="http://www.w3.org/2000/svg" viewBox="0 0 320 160"><defs><style>.cls-1{fill:red;}.cls-2{fill:#0d0a09;}</style></defs><g id="Eyes"><path class="cls-1" d="M214.33,87.43c-1.25-6.68-3.19-15-5.49-17.83a11.61,11.61,0,0,0-16.34-1.71,11.89,11.89,0,0,0-3,3.62,15,15,0,0,0-19,3.23,17.69,17.69,0,0,0-19.59,0,15.06,15.06,0,0,0-19-3.23A11.61,11.61,0,0,0,112.7,69.6c-2.29,2.83-4.23,11.15-5.48,17.83a5.28,5.28,0,0,0,7.22,5.85c3.34-1.38,7.1-3.06,10.23-4.75a145.22,145.22,0,0,0,1.6,15.07,6.85,6.85,0,0,0,11.33,4.09c2.73-2.43,5.68-5.18,8.33-7.89a174,174,0,0,0,7.77,16,8,8,0,0,0,14.15,0,174,174,0,0,0,7.77-16c2.64,2.71,5.6,5.46,8.32,7.89a6.86,6.86,0,0,0,11.34-4.09,148,148,0,0,0,1.6-15.07c3.13,1.69,6.88,3.37,10.23,4.75A5.28,5.28,0,0,0,214.33,87.43Z"/><path class="cls-2" d="M160.77,121.51a9.42,9.42,0,0,1-8.39-5c-2.87-5.3-5.21-10-7-14.06q-3,3-6.82,6.37a8.35,8.35,0,0,1-13.81-5c-.74-4.9-1.24-9.23-1.49-12.89-2.36,1.18-5.14,2.43-8.29,3.74a6.78,6.78,0,0,1-9.26-7.52c1.83-9.79,3.78-16,5.79-18.5A13.13,13.13,0,0,1,130,66.73a12.93,12.93,0,0,1,2.58,2.8,16.55,16.55,0,0,1,18.67,3.29,19.17,19.17,0,0,1,19.07,0A16.53,16.53,0,0,1,189,69.53a13,13,0,0,1,2.59-2.8A13.14,13.14,0,0,1,210,68.65c2,2.48,4,8.71,5.79,18.5h0a6.78,6.78,0,0,1-9.27,7.52c-3.14-1.31-5.92-2.56-8.28-3.74-.25,3.66-.75,8-1.49,12.89a8.35,8.35,0,0,1-13.81,5q-3.78-3.37-6.82-6.37c-1.76,4-4.09,8.76-7,14.06A9.39,9.39,0,0,1,160.77,121.51ZM146.46,97.12l.86,2.11a166.46,166.46,0,0,0,7.7,15.85,6.54,6.54,0,0,0,11.51,0,168.93,168.93,0,0,0,7.7-15.85l.86-2.11,1.6,1.63c2.33,2.38,5.1,5,8.25,7.82a5.35,5.35,0,0,0,8.85-3.19,141.36,141.36,0,0,0,1.59-14.91l.1-2.4,2.11,1.14a111,111,0,0,0,10.09,4.69,3.78,3.78,0,0,0,5.17-4.19h0c-2.28-12.2-4.22-16-5.17-17.17a10.13,10.13,0,0,0-16.82,1.67l-.72,1.38-1.36-.78a13.53,13.53,0,0,0-17.07,2.91l-.86,1L169.74,76a16.18,16.18,0,0,0-17.93,0l-1.11.74-.86-1a13.55,13.55,0,0,0-17.08-2.91l-1.35.78-.72-1.38a10.12,10.12,0,0,0-16.82-1.67c-1,1.18-2.89,5-5.17,17.17A3.68,3.68,0,0,0,110,91.34a3.73,3.73,0,0,0,3.83.56c4-1.67,7.43-3.25,10.1-4.69l2.11-1.14.1,2.4a143.27,143.27,0,0,0,1.58,14.9,5.35,5.35,0,0,0,8.85,3.2c3.16-2.81,5.94-5.44,8.26-7.82Z"/></g></svg>