<svg xmlns="http://www.w3.org/2000/svg" viewBox="0 0 640 320"><defs><style>.cls-1{fill:blue;}.cls-2{fill:#1d1d1b;}.cls-3{fill:#500000;}</style></defs><g id="Eyes"><path class="cls-1" d="M157.92,238.28S91,162.92,108.4,67.76c2.09-11.44,28.83-32,33.45-30.38C157,42.78,195.4,86.81,202,196"/><path class="cls-2" d="M157.54,238.61A197.39,197.39,0,0,1,142,218.53q-7.16-10.53-13.25-21.74a234,234,0,0,1-19.46-47.19,205.62,205.62,0,0,1-5.51-25.1,179.68,179.68,0,0,1-2-25.71A172.51,172.51,0,0,1,103.47,73c.14-1.07.31-2.14.5-3.2l.26-1.6.14-.8.07-.41.11-.55a22.59,22.59,0,0,1,3.21-7,62.66,62.66,0,0,1,8.77-10.31,103.36,103.36,0,0,1,10-8.55c1.77-1.31,3.6-2.57,5.53-3.76,1-.59,2-1.17,3-1.71a20.14,20.14,0,0,1,3.66-1.49,9,9,0,0,1,1.25-.28c.22,0,.52-.07.78-.09a7.17,7.17,0,0,1,1,0,4.86,4.86,0,0,1,.6.09,6.38,6.38,0,0,1,.72.19l.51.19c.31.12.62.25.91.39a26.82,26.82,0,0,1,3.28,1.77,43.12,43.12,0,0,1,5.56,4.21,73.21,73.21,0,0,1,9.1,9.75,130.72,130.72,0,0,1,13.8,22.08,198.93,198.93,0,0,1,10,23.74,279.62,279.62,0,0,1,12,49.64q1.91,12.6,3,25.26c.66,8.45,1.12,16.9,1.26,25.36l-1,.06c-.91-8.39-1.86-16.76-3.14-25.08S195.7,154.3,194,146.08A310.71,310.71,0,0,0,180.07,98a197.26,197.26,0,0,0-10.31-22.61,130.44,130.44,0,0,0-13.42-20.53,72.73,72.73,0,0,0-8.23-8.65,36.28,36.28,0,0,0-4.53-3.41,17.66,17.66,0,0,0-2.29-1.22,5.81,5.81,0,0,0-.54-.23l-.24-.09a1.89,1.89,0,0,0,.34.09l.21,0h.23s0,0,0,0l-.28.07a12.71,12.71,0,0,0-2.19.92c-.81.41-1.64.89-2.47,1.4-1.66,1-3.31,2.17-4.93,3.36a96,96,0,0,0-9.23,7.84,54.78,54.78,0,0,0-7.64,8.9,15.11,15.11,0,0,0-2.12,4.41l0,.22-.06.37-.13.76-.27,1.53c-.18,1-.35,2-.49,3.05L111,77.24l-.37,3.07c-.26,2-.45,4.1-.64,6.15-.36,4.11-.54,8.24-.62,12.37a198.52,198.52,0,0,0,5.43,49.32,230.93,230.93,0,0,0,17,47.07q5.51,11.31,12.13,22.05A202.06,202.06,0,0,0,158.29,238Z"/><path class="cls-3" d="M170,235.29s-39.65-47.65-28.45-108.84c1.34-7.35,14.53-12.18,17.5-11.11,9.73,3.46,27.06,33.35,29.6,100.68"/><path class="cls-2" d="M169.78,235.49a140.55,140.55,0,0,1-16.7-25.91A153.18,153.18,0,0,1,141.9,180.7a129.86,129.86,0,0,1-4.66-30.78,122.14,122.14,0,0,1,.65-15.65q.44-3.89,1.11-7.76l.08-.48.14-.62a12.53,12.53,0,0,1,.38-1.23,13.1,13.1,0,0,1,1.14-2.17,16.44,16.44,0,0,1,3-3.36A28.14,28.14,0,0,1,155.1,113a15.5,15.5,0,0,1,2.29-.35,8.66,8.66,0,0,1,1.42,0l.42.06a4.6,4.6,0,0,1,.5.13,2.27,2.27,0,0,1,.38.13l.3.12a14.89,14.89,0,0,1,3.88,2.5,27.29,27.29,0,0,1,3,3,46,46,0,0,1,4.58,6.68,89.13,89.13,0,0,1,6.45,14.38,149.26,149.26,0,0,1,4.38,14.95,230.16,230.16,0,0,1,5,30.54c.48,5.12.85,10.25,1.08,15.38s.33,10.27.29,15.4l-.62,0c-.84-10.21-1.9-20.38-3.44-30.47a250,250,0,0,0-6.22-29.84c-1.37-4.88-2.9-9.7-4.72-14.39a91.12,91.12,0,0,0-6.41-13.48,47.18,47.18,0,0,0-4.16-5.93,14.76,14.76,0,0,0-4.95-4.1l-.15-.06-.07,0h-.52a10.29,10.29,0,0,0-1.5.24,21.91,21.91,0,0,0-3.25,1,22.48,22.48,0,0,0-5.9,3.47,11.56,11.56,0,0,0-2.11,2.3,7.23,7.23,0,0,0-.65,1.22,4.31,4.31,0,0,0-.19.61l-.07.31-.09.46q-.66,3.71-1.11,7.44a121.6,121.6,0,0,0-.91,15,132.77,132.77,0,0,0,3.31,30,150,150,0,0,0,9.72,28.8q3.15,7,7,13.6a122.79,122.79,0,0,0,8.33,12.82Z"/><path class="cls-1" d="M482.08,238.28S549,162.92,531.6,67.76c-2.09-11.44-28.83-32-33.45-30.38C483,42.78,444.6,86.81,438,196"/><path class="cls-2" d="M481.71,238a202.06,202.06,0,0,0,14.4-20.68q6.61-10.72,12.13-22.05a230.93,230.93,0,0,0,17-47.07,198.52,198.52,0,0,0,5.43-49.32c-.08-4.13-.26-8.26-.62-12.37-.19-2-.38-4.11-.64-6.15L529,77.24l-.45-3.06c-.14-1-.31-2-.49-3.05l-.27-1.53-.13-.76-.06-.37,0-.22a15.11,15.11,0,0,0-2.12-4.41,54.78,54.78,0,0,0-7.64-8.9,94.92,94.92,0,0,0-9.24-7.84c-1.61-1.19-3.26-2.34-4.92-3.36-.83-.51-1.66-1-2.47-1.4a12.71,12.71,0,0,0-2.19-.92l-.28-.07s0,0,0,0h.23l.21,0a1.89,1.89,0,0,0,.34-.09l-.24.09a5.81,5.81,0,0,0-.54.23,17.66,17.66,0,0,0-2.29,1.22,36.28,36.28,0,0,0-4.53,3.41,72.73,72.73,0,0,0-8.23,8.65,130.44,130.44,0,0,0-13.42,20.53A197.26,197.26,0,0,0,459.93,98,310.71,310.71,0,0,0,446,146.08c-1.73,8.22-3.16,16.5-4.38,24.83s-2.23,16.69-3.14,25.08l-1-.06c.14-8.46.6-16.91,1.26-25.36s1.7-16.86,3-25.26a280.52,280.52,0,0,1,12-49.64,198.93,198.93,0,0,1,9.95-23.74,130.72,130.72,0,0,1,13.8-22.08,73.21,73.21,0,0,1,9.1-9.75,43.12,43.12,0,0,1,5.56-4.21,26.82,26.82,0,0,1,3.28-1.77c.29-.14.6-.27.91-.39l.51-.19a6.38,6.38,0,0,1,.72-.19,4.86,4.86,0,0,1,.6-.09,7.17,7.17,0,0,1,1,0c.26,0,.56,0,.78.09a9,9,0,0,1,1.25.28,20.14,20.14,0,0,1,3.66,1.49c1.07.54,2.07,1.12,3,1.71,1.93,1.19,3.76,2.45,5.53,3.76a103.36,103.36,0,0,1,10,8.55,62.66,62.66,0,0,1,8.77,10.31,22.59,22.59,0,0,1,3.21,7l.11.55.07.41.14.8.26,1.6c.19,1.06.36,2.13.5,3.2a172.51,172.51,0,0,1,1.78,25.79,179.68,179.68,0,0,1-2,25.71,205.62,205.62,0,0,1-5.51,25.1,234,234,0,0,1-19.46,47.19Q505.22,208,498,218.53a197.39,197.39,0,0,1-15.58,20.08Z"/><path class="cls-3" d="M470,235.29s39.65-47.65,28.45-108.84c-1.34-7.35-14.53-12.18-17.5-11.11-9.73,3.46-27.06,33.35-29.6,100.68"/><path class="cls-2" d="M469.74,235.09a122.79,122.79,0,0,0,8.33-12.82q3.81-6.63,7-13.6a150,150,0,0,0,9.72-28.8,133.35,133.35,0,0,0,3.31-30,123.58,123.58,0,0,0-.91-15q-.45-3.74-1.12-7.44l-.08-.46-.07-.31a4.31,4.31,0,0,0-.19-.61,7.23,7.23,0,0,0-.65-1.22,11.56,11.56,0,0,0-2.11-2.3A22.48,22.48,0,0,0,487,119a21.91,21.91,0,0,0-3.25-1,10.29,10.29,0,0,0-1.5-.24h-.52l-.07,0-.15.06a14.76,14.76,0,0,0-5,4.1,47.18,47.18,0,0,0-4.16,5.93A91.12,91.12,0,0,0,466,141.33c-1.82,4.69-3.35,9.51-4.72,14.39a250,250,0,0,0-6.22,29.84c-1.54,10.09-2.6,20.26-3.44,30.47l-.62,0c0-5.13.09-10.26.29-15.4s.6-10.26,1.08-15.38a230.16,230.16,0,0,1,4.95-30.54,149.26,149.26,0,0,1,4.38-14.95,89.13,89.13,0,0,1,6.45-14.38,46,46,0,0,1,4.58-6.68,27.29,27.29,0,0,1,3-3,14.89,14.89,0,0,1,3.88-2.5l.3-.12a2.27,2.27,0,0,1,.38-.13,4.6,4.6,0,0,1,.5-.13l.42-.06a8.66,8.66,0,0,1,1.42,0,15.5,15.5,0,0,1,2.29.35,28.14,28.14,0,0,1,11.32,5.63,16.44,16.44,0,0,1,3,3.36,13.1,13.1,0,0,1,1.14,2.17,12.53,12.53,0,0,1,.38,1.23l.14.62.08.48q.67,3.87,1.11,7.76a122.14,122.14,0,0,1,.65,15.65,129.86,129.86,0,0,1-4.66,30.78,153.18,153.18,0,0,1-11.18,28.88,140.55,140.55,0,0,1-16.7,25.91Z"/></g></svg>