<svg xmlns="http://www.w3.org/2000/svg" viewBox="0 0 640 320"><defs><style>.cls-1{fill:#e6e6e6;}.cls-2{fill:#1d1d1b;}</style></defs><g id="Kitchen_Sink" data-name="Kitchen Sink"><path class="cls-1" d="M302.35,185.92a69.29,69.29,0,0,1-138.57,0Z"/><path class="cls-1" d="M477.92,185.92a69.29,69.29,0,0,1-138.57,0Z"/><path class="cls-2" d="M298.07,222.78l-9-4.42c.37-.76,9.37-18.62,31.41-18.62a37.3,37.3,0,0,1,31.95,17.5l-8.71,4.9a27.31,27.31,0,0,0-23.24-12.4A25.51,25.51,0,0,0,298.07,222.78Z"/><path class="cls-2" d="M233.06,260.2a74.36,74.36,0,0,1-74.28-74.28,5,5,0,0,1,10,0,64.29,64.29,0,0,0,128.57,0,5,5,0,1,1,10,0A74.37,74.37,0,0,1,233.06,260.2Z"/><path class="cls-2" d="M408.64,260.2a74.37,74.37,0,0,1-74.29-74.28,5,5,0,1,1,10,0,64.29,64.29,0,0,0,128.57,0,5,5,0,0,1,10,0A74.36,74.36,0,0,1,408.64,260.2Z"/></g></svg>