<svg xmlns="http://www.w3.org/2000/svg" viewBox="0 0 640 320"><defs><style>.cls-1{fill:blue;}.cls-2{fill:#0d0a09;}</style></defs><g id="jaw-shape"><path class="cls-1" d="M481.62,83c0,66.13,18.84,128.85-40.12,148.5-44.4,14.8-87.94-14-115.2,7a10.38,10.38,0,0,1-12.6,0c-27.26-21-70.8,7.82-115.2-7-59-19.65-40.12-82.37-40.12-148.5Z"/><path class="cls-2" d="M320,243.87a13.64,13.64,0,0,1-8.28-2.81c-13.13-10.11-30.8-7.66-51.25-4.82-19.23,2.66-41,5.68-63-1.65-22.69-7.56-35.93-21.5-41.68-43.86-5-19.53-3.63-43.37-2.16-68.61.74-12.71,1.5-25.86,1.5-39.11h6.5c0,13.44-.77,26.68-1.51,39.48-3,50.86-5.29,91,39.41,105.94,20.54,6.85,40.62,4.06,60,1.37,21-2.91,40.83-5.67,56.11,6.11a7.12,7.12,0,0,0,8.64,0c15.27-11.78,35.11-9,56.11-6.11,19.42,2.69,39.49,5.48,60-1.37,44.7-14.9,42.37-55.08,39.41-105.94-.74-12.8-1.51-26-1.51-39.48h6.5c0,13.25.77,26.39,1.5,39.1,1.47,25.25,2.85,49.09-2.16,68.62-5.75,22.36-19,36.3-41.68,43.86-22,7.34-43.78,4.31-63,1.65-20.47-2.84-38.14-5.29-51.26,4.82A13.61,13.61,0,0,1,320,243.87Z"/></g></svg>