<svg xmlns="http://www.w3.org/2000/svg" viewBox="0 0 640 160"><defs><style>.cls-1{fill:#000050;}.cls-2{fill:#0d0a09;}</style></defs><g id="Kitchen_Sink" data-name="Kitchen Sink"><path class="cls-1" d="M320,41.49H263.8c0,15.84,10.09,28.84,18.37,38.12,10.3,11.53,25,16.48,37.83,16.48s27.53-5,37.83-16.48c8.28-9.28,18.37-22.28,18.37-38.12Z"/><path class="cls-2" d="M320,99.34c-15.38,0-30.43-6.57-40.25-17.57-8.94-10-19.2-23.64-19.2-40.28V38.24h118.9v3.25c0,16.64-10.26,30.27-19.2,40.28C350.43,92.77,335.38,99.34,320,99.34Zm-52.79-54.6c1.25,13,9.84,24.24,17.39,32.7,8.61,9.64,21.84,15.4,35.4,15.4s26.79-5.76,35.4-15.4C363,69,371.54,57.79,372.8,44.74Z"/></g></svg>