<svg id="ART-fills" xmlns="http://www.w3.org/2000/svg" viewBox="0 0 640 320"><defs><style>.cls-1{fill:#ffe289;}.cls-2{fill:#0d0a09;}.cls-3{fill:#fcfcfc;}</style></defs><circle class="cls-1" cx="320" cy="216.66" r="17.04"/><path class="cls-2" d="M340.29,216.66a19.37,19.37,0,0,1-6.15,14.14,19.6,19.6,0,0,1-6.62,4,19.28,19.28,0,1,1,12.77-18.15Zm-6.5,0a14.91,14.91,0,0,0-19.65-14.15,14.92,14.92,0,0,0,5.86,29,14.95,14.95,0,0,0,13.79-14.87Z"/><circle class="cls-1" cx="354.08" cy="208.67" r="17.04"/><path class="cls-2" d="M374.37,208.67a19.23,19.23,0,0,1-12.78,18.14,19.23,19.23,0,1,1-7.51-37.34,19.17,19.17,0,0,1,20.29,19.2Zm-6.5,0A14.88,14.88,0,1,0,343,219.74a15.37,15.37,0,0,0,5.21,3.06,14.92,14.92,0,0,0,19.65-14.13Z"/><circle class="cls-1" cx="383.64" cy="193.09" r="15.58"/><path class="cls-2" d="M402.46,193.09a17.69,17.69,0,1,1-11.87-16.78,18.17,18.17,0,0,1,6.15,3.68A17.85,17.85,0,0,1,402.46,193.09Zm-6.5,0A13.42,13.42,0,0,0,373.59,183a13.55,13.55,0,0,0,0,20.09,13.79,13.79,0,0,0,4.74,2.74A13.46,13.46,0,0,0,396,193.09Z"/><circle class="cls-1" cx="405.55" cy="175.3" r="12.54"/><path class="cls-2" d="M421.33,175.3a14.7,14.7,0,1,1-25.62-9.83,14.7,14.7,0,0,1,15.63-4.14,14.66,14.66,0,0,1,10,14Zm-6.5,0a10.45,10.45,0,0,0-9.28-10.38,10.3,10.3,0,0,0-7.9,2.49,10.51,10.51,0,0,0,0,15.78,10.79,10.79,0,0,0,3.75,2.09,10.42,10.42,0,0,0,13.42-10Z"/><circle class="cls-1" cx="418.65" cy="154.21" r="11.25"/><path class="cls-2" d="M433.14,154.21A13.41,13.41,0,0,1,424,167a13.37,13.37,0,0,1-5.3.63,13.46,13.46,0,1,1,5.29-26.21,13.77,13.77,0,0,1,4.75,2.75A13.55,13.55,0,0,1,433.14,154.21Zm-6.5,0a9.09,9.09,0,0,0-15-7,9.24,9.24,0,0,0,0,14A9.55,9.55,0,0,0,415,163a9.19,9.19,0,0,0,3.64.29,9.15,9.15,0,0,0,8-9.07Z"/><circle class="cls-1" cx="422.98" cy="131.71" r="11.25"/><path class="cls-2" d="M437.48,131.71a13.64,13.64,0,0,1-4.46,10,13.8,13.8,0,0,1-4.74,2.75,13.46,13.46,0,1,1,0-25.58,13.39,13.39,0,0,1,9.2,12.78Zm-6.5,0a9.09,9.09,0,0,0-15-7,9.23,9.23,0,0,0,0,14,9.43,9.43,0,0,0,3.33,1.81A9.15,9.15,0,0,0,431,131.71Z"/><circle class="cls-1" cx="285.92" cy="208.67" r="17.04"/><path class="cls-2" d="M272.13,208.67a14.91,14.91,0,0,0,19.65,14.13,15.37,15.37,0,0,0,5.21-3.06,14.89,14.89,0,1,0-24.86-11.07Zm-6.5,0a19.18,19.18,0,1,1,20.29,19.21,19.18,19.18,0,0,1-14.14-5.08A19.4,19.4,0,0,1,265.63,208.67Z"/><circle class="cls-1" cx="256.36" cy="193.09" r="15.58"/><path class="cls-2" d="M244,193.09a13.44,13.44,0,0,0,17.62,12.78,13.79,13.79,0,0,0,4.74-2.74,13.44,13.44,0,1,0-19-19A13.43,13.43,0,0,0,244,193.09Zm-6.5,0a17.85,17.85,0,0,1,5.72-13.1,18.17,18.17,0,0,1,6.15-3.68,17.82,17.82,0,1,1-11.87,16.78Z"/><circle class="cls-1" cx="234.45" cy="175.3" r="12.54"/><path class="cls-2" d="M225.17,175.3a10.39,10.39,0,0,0,13.42,10,10.79,10.79,0,0,0,3.75-2.09,10.51,10.51,0,0,0,0-15.78,10.3,10.3,0,0,0-7.9-2.49,10.45,10.45,0,0,0-9.28,10.38Zm-6.5,0a14.7,14.7,0,1,1,4.83,11A14.86,14.86,0,0,1,218.67,175.3Z"/><circle class="cls-1" cx="221.9" cy="154.75" r="10.7"/><path class="cls-2" d="M214.45,154.75A8.56,8.56,0,0,0,225.33,163a9,9,0,0,0,3.16-1.69,8.7,8.7,0,0,0,0-13.19,8.5,8.5,0,0,0-12.08,1.12A8.58,8.58,0,0,0,214.45,154.75Zm-6.5,0a13,13,0,0,1,4.3-9.65,13.22,13.22,0,0,1,4.56-2.63,13,13,0,0,1,5.09-.58,12.92,12.92,0,1,1-9.66,22.52A13,13,0,0,1,208,154.75Z"/><circle class="cls-1" cx="219.98" cy="132.65" r="10.7"/><path class="cls-2" d="M212.53,132.65a8.63,8.63,0,0,0,7.45,8.53,8.69,8.69,0,0,0,3.43-.25,8.81,8.81,0,0,0,3.16-1.69,8.7,8.7,0,0,0,0-13.19,8.5,8.5,0,0,0-12.08,1.12A8.63,8.63,0,0,0,212.53,132.65Zm-6.5,0A12.84,12.84,0,1,1,220,145.53a12.85,12.85,0,0,1-5.09-.59A12.88,12.88,0,0,1,206,132.65Z"/><circle class="cls-3" cx="322.75" cy="209.88" r="4.94"/><circle class="cls-3" cx="356.73" cy="202.36" r="4.94"/><circle class="cls-3" cx="290.87" cy="204.94" r="4.94"/><circle class="cls-3" cx="263.94" cy="189.22" r="4.94"/><circle class="cls-3" cx="240.13" cy="173.12" r="3.29"/><circle class="cls-3" cx="226.69" cy="152.43" r="3.29"/><circle class="cls-3" cx="219.59" cy="158.57" r="1.72"/><circle class="cls-3" cx="232.74" cy="181.68" r="1.72"/><circle class="cls-3" cx="255.4" cy="203.22" r="1.72"/><circle class="cls-3" cx="285.28" cy="220.26" r="1.72"/><circle class="cls-3" cx="311.39" cy="225.16" r="2.26"/><circle class="cls-3" cx="346.05" cy="217.52" r="2.26"/><circle class="cls-3" cx="376.93" cy="200.65" r="2.26"/><circle class="cls-3" cx="399.88" cy="180" r="1.75"/><circle class="cls-3" cx="414.29" cy="158.72" r="1.75"/><circle class="cls-3" cx="222.88" cy="130.18" r="3.29"/><circle class="cls-1" cx="219.98" cy="110.42" r="10.7"/><path class="cls-2" d="M212.53,110.42a8.53,8.53,0,0,0,14,6.59,8.69,8.69,0,0,0,0-13.18,8.47,8.47,0,0,0-6.6-2,8.63,8.63,0,0,0-7.45,8.54Zm-6.5,0a13,13,0,0,1,4.3-9.65,13.22,13.22,0,0,1,4.56-2.63,12.92,12.92,0,1,1,0,24.58,12.91,12.91,0,0,1-8.86-12.3Z"/><circle class="cls-3" cx="222.88" cy="107.95" r="3.29"/><circle class="cls-3" cx="384.74" cy="186.69" r="4.94"/><circle class="cls-3" cx="409.05" cy="171.95" r="3.5"/><circle class="cls-3" cx="421.67" cy="151.81" r="3.02"/><circle class="cls-3" cx="426" cy="131.21" r="3.02"/><circle class="cls-1" cx="422.98" cy="107.9" r="11.25"/><path class="cls-2" d="M437.48,107.9A13.37,13.37,0,0,1,423,121.32a13.46,13.46,0,0,1,0-26.82,13.55,13.55,0,0,1,5.3.62,13.39,13.39,0,0,1,9.2,12.78Zm-6.5,0a9.17,9.17,0,0,0-8-9.09,9.05,9.05,0,0,0-7,2.11,9.16,9.16,0,0,0,3.35,15.76,9,9,0,0,0,3.64.3,9.2,9.2,0,0,0,8-9.08Z"/><circle class="cls-3" cx="426" cy="107.4" r="3.02"/><circle class="cls-1" cx="219.98" cy="85.95" r="10.7"/><path class="cls-2" d="M212.53,86a8.56,8.56,0,0,0,10.88,8.28,8.81,8.81,0,0,0,3.16-1.69,8.7,8.7,0,0,0,0-13.19,8.5,8.5,0,0,0-12.08,1.12A8.63,8.63,0,0,0,212.53,86ZM206,86a13,13,0,0,1,4.3-9.65,13.22,13.22,0,0,1,4.56-2.63,13.07,13.07,0,0,1,5.09-.58A12.93,12.93,0,1,1,206,86Z"/><circle class="cls-3" cx="222.88" cy="83.48" r="3.29"/><circle class="cls-1" cx="422.98" cy="83.43" r="11.25"/><path class="cls-2" d="M437.48,83.43a13.43,13.43,0,0,1-9.2,12.79,13.45,13.45,0,1,1,0-25.58A13.89,13.89,0,0,1,433,73.39,13.6,13.6,0,0,1,437.48,83.43Zm-6.5,0a9.2,9.2,0,0,0-2.13-5.87A9.05,9.05,0,0,0,416,76.44a9.23,9.23,0,0,0,0,14,9.11,9.11,0,0,0,15-7Z"/><circle class="cls-3" cx="426" cy="82.93" r="3.02"/></svg>