<svg xmlns="http://www.w3.org/2000/svg" viewBox="0 0 640 320"><defs><style>.cls-1{fill:#bae070;}.cls-2{fill:#6eceb7;}.cls-3{fill:#7ae7c7;}.cls-4{fill:#0d0a09;}</style></defs><g id="ART-fills"><path class="cls-1" d="M598.89,184c-2.1,15.23-29.91,14.95-49.75,12.21S514.91,178.9,517,163.67s19.89-25.34,39.74-22.6S601,168.77,598.89,184Z"/><path class="cls-2" d="M573.53,168.12c.37,9.69-16.94,12.58-29.58,13.07s-23.18-7-23.55-16.68,9.58-17.94,22.21-18.42S573.16,158.43,573.53,168.12Z"/><path class="cls-3" d="M562.52,165.69c.27,7-12.3,9.14-21.47,9.49s-16.83-5.07-17.09-12.11,6.95-13,16.12-13.37S562.25,158.66,562.52,165.69Z"/><path class="cls-4" d="M362.78,181.17c7.08-2.74,14.23-5,21.47-7.06,3.62-1,7.23-2.05,10.89-2.92l5.47-1.36,5.51-1.21a422.82,422.82,0,0,1,44.47-7.36c1.87-.26,3.74-.4,5.61-.58l5.62-.53,5.62-.52c1.87-.16,3.75-.22,5.63-.34l11.28-.62,11.29-.24,5.65-.12c1.88-.07,3.76,0,5.65.05l11.3.21,2.83,0,2.83.14,5.65.32,11.31.59a2.8,2.8,0,0,1-.29,5.59l-.19,0h-.11q-5.55-.67-11.12-1.3l-5.56-.63L520.8,163l-2.79-.19-11.18-.71c-1.87-.09-3.73-.29-5.6-.3l-5.6-.12c-3.74-.07-7.48-.17-11.22-.17l-11.22.29c-1.87.06-3.74.08-5.61.17l-5.6.37-5.6.36c-1.87.13-3.74.2-5.6.43l-11.16,1.21c-3.72.42-7.42,1-11.13,1.55s-7.39,1.19-11.08,1.84c-1.84.33-3.69.63-5.52,1l-5.49,1.2-5.49,1.21-5.45,1.36c-3.64.87-7.23,1.91-10.84,2.92a210.63,210.63,0,0,0-21.15,7.38h0a.88.88,0,0,1-.69-1.61Z"/><path class="cls-1" d="M629.78,129.57c1.57,15.29-25.51,21.61-45.44,23.66s-37.35-8.69-38.92-24,13.31-29.34,33.24-31.38S628.21,114.29,629.78,129.57Z"/><path class="cls-2" d="M601.38,120.17c2.66,9.33-13.48,16.24-25.64,19.71s-24.17-1.29-26.83-10.61,5.05-19.7,17.21-23.17S598.72,110.84,601.38,120.17Z"/><path class="cls-3" d="M590.11,120.42c1.93,6.77-9.78,11.79-18.61,14.31S554,133.79,552,127s3.66-14.3,12.49-16.81S588.18,113.65,590.11,120.42Z"/><path class="cls-4" d="M399.74,182.83c6.22-4.33,12.63-8.23,19.18-11.94,3.28-1.83,6.54-3.72,9.89-5.42l5-2.63,5.06-2.48a420.52,420.52,0,0,1,41.47-17.69c1.74-.7,3.53-1.28,5.3-1.9l5.34-1.85,5.33-1.84c1.79-.59,3.6-1.1,5.39-1.66l10.81-3.28,10.91-2.91,5.46-1.46c1.81-.52,3.67-.85,5.5-1.29l11-2.47,2.76-.64,2.78-.53,5.56-1,11.13-2.12a2.8,2.8,0,0,1,1,5.51l-.19,0h-.11q-5.55.66-11.11,1.38l-5.55.7-2.78.36-2.76.48-11,2c-1.84.36-3.69.61-5.51,1l-5.47,1.22c-3.65.81-7.31,1.6-10.94,2.48l-10.83,2.95c-1.8.5-3.62,1-5.41,1.5L491.64,141l-5.36,1.68c-1.78.57-3.58,1.08-5.33,1.74l-10.56,3.83c-3.52,1.29-7,2.77-10.44,4.14s-6.9,2.91-10.33,4.42c-1.71.76-3.44,1.49-5.13,2.28l-5.05,2.47-5,2.47-5,2.62c-3.34,1.7-6.58,3.57-9.84,5.41a212,212,0,0,0-18.8,12.18l0,0a.87.87,0,0,1-1.22-.18.89.89,0,0,1,.17-1.23Z"/><path class="cls-1" d="M599.23,234.52C592.91,246,570.89,237.26,556,229s-21.92-24.21-15.6-35.66,23.55-14.07,38.49-5.83S605.55,223.07,599.23,234.52Z"/><path class="cls-2" d="M583.92,214.16c-2.67,7.81-17.31,4.82-27.5,1.35s-16.29-12.63-13.62-20.45,13.09-11.33,23.28-7.86S586.59,206.34,583.92,214.16Z"/><path class="cls-3" d="M575.92,208.87c-1.94,5.67-12.57,3.5-20,1s-11.82-9.16-9.89-14.84,9.5-8.23,16.9-5.7S577.85,203.19,575.92,208.87Z"/><path class="cls-4" d="M412.43,160.15c6.46,0,12.83.37,19.22.95,3.18.31,6.37.57,9.55,1l4.76.59,4.75.72a360.15,360.15,0,0,1,37.6,7.74c3.11.77,6.17,1.71,9.26,2.55l4.62,1.3c1.54.45,3.06,1,4.58,1.45l9.15,3,9.05,3.26c6.09,2.05,12,4.65,17.93,7l2.24.89,2.19,1,4.4,2,8.81,3.93a2.39,2.39,0,0,1-1.94,4.36l-.13-.07-.1-.05-8.44-4.43-4.23-2.2L543.58,194l-2.16-1-8.67-4c-1.45-.64-2.88-1.37-4.36-1.95l-4.41-1.8c-3-1.2-5.89-2.43-8.87-3.57l-9-3.19c-1.5-.52-3-1.09-4.51-1.58L497,175.47c-3.05-.93-6.07-2-9.15-2.79l-9.24-2.45c-3.09-.8-6.21-1.44-9.32-2.17s-6.23-1.31-9.36-1.92c-1.57-.3-3.13-.62-4.7-.89l-4.73-.73-4.73-.71-4.75-.58c-3.16-.43-6.34-.7-9.51-1a181.39,181.39,0,0,0-19.06-.6h0a.75.75,0,1,1-.06-1.49Z"/><path class="cls-1" d="M547.43,243.61c-6.32,11.46-28.34,2.74-43.27-5.5s-21.92-24.21-15.6-35.66,23.55-14.06,38.48-5.82S553.75,232.16,547.43,243.61Z"/><path class="cls-2" d="M532.12,223.25c-2.67,7.82-17.31,4.82-27.5,1.35S488.33,212,491,204.15s13.08-11.33,23.27-7.86S534.78,215.43,532.12,223.25Z"/><path class="cls-3" d="M524.11,218c-1.93,5.67-12.56,3.5-20,1s-11.83-9.17-9.89-14.85,9.5-8.23,16.9-5.7S526.05,212.28,524.11,218Z"/><path class="cls-4" d="M360.62,169.24c6.47,0,12.84.37,19.22.95,3.19.31,6.38.57,9.55,1l4.77.58,4.74.72a362.21,362.21,0,0,1,37.6,7.74c3.11.77,6.18,1.71,9.27,2.55l4.62,1.3c1.54.45,3.05,1,4.58,1.45l9.15,3,9.05,3.26c6.08,2.06,11.95,4.65,17.92,7l2.24.89,2.2,1,4.4,2,8.81,3.92a2.39,2.39,0,1,1-1.94,4.36l-.13-.07-.1-.05-8.44-4.42-4.23-2.21-2.12-1.09-2.16-1-8.67-4c-1.46-.64-2.88-1.37-4.36-1.95l-4.42-1.8c-2.94-1.2-5.89-2.43-8.86-3.57l-9-3.19c-1.51-.52-3-1.09-4.51-1.58l-4.57-1.42c-3-.92-6.06-2-9.14-2.79l-9.24-2.45c-3.09-.8-6.21-1.44-9.32-2.17s-6.24-1.31-9.37-1.92c-1.56-.3-3.13-.62-4.7-.89l-4.73-.73L394,172.9l-4.75-.58c-3.16-.43-6.34-.7-9.51-1a181.58,181.58,0,0,0-19.07-.6h0a.75.75,0,1,1,0-1.49Z"/><path class="cls-1" d="M505.45,261.05c-6.48,6.44-19.51-3.72-27.9-12.17s-9.94-20.52-3.46-26.95,18.54-4.8,26.93,3.65S511.94,254.62,505.45,261.05Z"/><path class="cls-2" d="M499.19,244.41c-3.32,4.71-12.54-.16-18.68-4.49s-8.43-11.66-5.11-16.37,11-5,17.13-.7S502.51,239.7,499.19,244.41Z"/><path class="cls-3" d="M494.87,239.3c-2.41,3.42-9.1-.12-13.56-3.27s-6.13-8.46-3.72-11.88,8-3.65,12.44-.5S497.28,235.87,494.87,239.3Z"/><path class="cls-4" d="M394.92,174.59c4.33,1.26,8.52,2.77,12.68,4.4,2.08.84,4.16,1.64,6.2,2.55l3.08,1.33,3,1.41a249,249,0,0,1,23.66,12.57c1.94,1.12,3.8,2.35,5.71,3.52l2.84,1.78c.94.6,1.86,1.24,2.79,1.87l5.55,3.77,5.42,4c3.67,2.57,7.09,5.46,10.63,8.21s6.83,5.81,10.29,8.67a1.67,1.67,0,1,1-2.12,2.57l-.09-.08-.07-.07-4.79-4.62c-1.62-1.52-3.16-3.13-4.85-4.56-3.37-2.88-6.65-5.9-10.17-8.6-1.74-1.38-3.47-2.78-5.24-4.13l-5.41-3.9c-.9-.65-1.79-1.32-2.71-1.94l-2.77-1.85c-1.87-1.22-3.69-2.5-5.58-3.67l-5.71-3.45c-1.91-1.14-3.88-2.18-5.82-3.28s-3.92-2.1-5.9-3.13c-1-.5-2-1-3-1.51l-3-1.42a152.72,152.72,0,0,0-24.93-9.39h0a.52.52,0,0,1-.37-.64.53.53,0,0,1,.63-.37Z"/><path class="cls-1" d="M633.68,76.33c5.24,14.44-19.49,27.17-38.32,34S557,111,551.77,96.55s5.78-31.7,24.61-38.53S628.43,61.88,633.68,76.33Z"/><path class="cls-2" d="M603.84,74.12c4.85,8.4-9.12,19-20.07,25.35s-23.76,4.64-28.61-3.76.1-20.34,11.05-26.66S599,65.72,603.84,74.12Z"/><path class="cls-3" d="M593,77.1c3.52,6.1-6.62,13.82-14.57,18.41s-17.25,3.36-20.77-2.74.08-14.76,8-19.35S589.45,71,593,77.1Z"/><path class="cls-4" d="M423.5,184c5-5.72,10.26-11.06,15.7-16.25,2.74-2.58,5.44-5.2,8.28-7.67l4.2-3.76,4.31-3.63a420.6,420.6,0,0,1,35.91-27.26c1.52-1.1,3.12-2.1,4.68-3.13l4.73-3.09,4.72-3.08c1.59-1,3.22-2,4.83-2.93l9.68-5.8,9.88-5.48,4.94-2.75c1.63-.94,3.35-1.72,5-2.59l10.1-5.08L553,90.17,555.57,89l5.14-2.36L571,81.87A2.8,2.8,0,1,1,573.34,87l-.17.07-.11,0q-5.22,2-10.43,4l-5.22,2-2.61,1-2.56,1.13L542,99.89c-1.69.78-3.43,1.48-5.09,2.34l-5,2.51c-3.34,1.68-6.7,3.33-10,5.08l-9.78,5.49c-1.63.93-3.28,1.81-4.88,2.77L502.46,121l-4.78,2.93c-1.59,1-3.22,1.93-4.76,3l-9.31,6.28c-3.09,2.11-6.07,4.37-9.11,6.55s-6,4.5-8.95,6.8c-1.47,1.15-3,2.28-4.42,3.46l-4.29,3.62-4.29,3.63L448.36,161c-2.82,2.46-5.51,5.06-8.22,7.64a210.69,210.69,0,0,0-15.27,16.39l0,0a.88.88,0,1,1-1.36-1.11Z"/><path class="cls-1" d="M614.52,22.39c8.54,14.44-15.42,33.08-34.25,44.21s-41,8.45-49.54-6-.19-35.17,18.63-46.3S606,8,614.52,22.39Z"/><path class="cls-2" d="M582.07,26c6.89,8-6,22.26-16.42,31.25S541.1,67.05,534.2,59s-4-21.83,6.48-30.82S575.17,18,582.07,26Z"/><path class="cls-3" d="M571,31.44c5,5.83-4.31,16.15-11.92,22.68s-17.82,7.09-22.83,1.26S533.36,39.53,541,33,566,25.61,571,31.44Z"/><path class="cls-4" d="M410.76,180.26c4.19-7.14,8.77-13.93,13.56-20.61,2.42-3.31,4.79-6.67,7.33-9.89l3.75-4.88,3.89-4.77a461.71,461.71,0,0,1,33-36.48c1.41-1.49,2.92-2.88,4.39-4.31l4.45-4.26,4.45-4.26c1.5-1.41,3.06-2.74,4.58-4.11l9.22-8.19,9.49-7.86,4.75-4c1.56-1.34,3.24-2.52,4.86-3.79l9.81-7.49,2.44-1.89,2.52-1.79,5-3.57q5.05-3.55,10.07-7.18A3.06,3.06,0,1,1,552,46l-.18.12-.12.07c-3.46,2.13-6.93,4.27-10.38,6.44l-5.19,3.23-2.59,1.63L531,59.17l-10,7c-1.65,1.18-3.38,2.28-5,3.54l-4.87,3.71c-3.25,2.47-6.52,4.92-9.71,7.46L492,88.73c-1.56,1.32-3.15,2.61-4.68,4l-4.54,4.11-4.54,4.11c-1.51,1.38-3.06,2.72-4.5,4.17L465,113.7c-1.48,1.41-2.84,2.94-4.25,4.41l-4.21,4.46c-2.85,2.93-5.51,6-8.22,9.09-1.35,1.54-2.73,3.05-4.05,4.61L440.4,141l-3.86,4.76-3.74,4.86c-2.52,3.22-4.89,6.55-7.28,9.86a229.33,229.33,0,0,0-13.07,20.67l0,0a1,1,0,0,1-1.68-.91Z"/><path class="cls-1" d="M41.11,184c2.1,15.23,29.91,14.95,49.75,12.21s34.23-17.3,32.13-32.53-19.89-25.34-39.74-22.6S39,168.77,41.11,184Z"/><path class="cls-2" d="M66.47,168.12c-.37,9.69,16.94,12.58,29.58,13.07s23.18-7,23.55-16.68S110,146.57,97.39,146.09,66.84,158.43,66.47,168.12Z"/><path class="cls-3" d="M77.48,165.69c-.27,7,12.3,9.14,21.47,9.49s16.83-5.07,17.09-12.11-7-13-16.12-13.37S77.75,158.66,77.48,165.69Z"/><path class="cls-4" d="M276.53,182.78a211.5,211.5,0,0,0-21.15-7.38c-3.61-1-7.2-2.05-10.84-2.92l-5.45-1.36-5.49-1.21-5.49-1.2c-1.83-.37-3.68-.67-5.52-1-3.69-.65-7.37-1.36-11.08-1.84s-7.41-1.13-11.13-1.55l-11.16-1.21c-1.86-.23-3.73-.3-5.6-.43l-5.6-.36-5.6-.37c-1.87-.09-3.74-.11-5.61-.17l-11.22-.29c-3.74,0-7.48.1-11.22.17l-5.6.12c-1.87,0-3.73.21-5.6.3l-11.18.71-2.79.19-2.79.31-5.56.63q-5.56.63-11.12,1.3h-.11a2.8,2.8,0,1,1-.67-5.56h.19l11.31-.59,5.65-.32,2.83-.14,2.83,0,11.3-.21c1.89,0,3.77-.12,5.65-.05l5.65.12,11.29.24,11.28.62c1.88.12,3.76.18,5.63.34l5.62.52,5.62.53c1.87.18,3.74.32,5.61.58a422.82,422.82,0,0,1,44.47,7.36l5.51,1.21,5.47,1.36c3.66.87,7.27,1.92,10.89,2.92,7.24,2.06,14.39,4.32,21.47,7.06a.87.87,0,1,1-.63,1.63h0Z"/><path class="cls-1" d="M10.22,129.57c-1.57,15.29,25.51,21.61,45.44,23.66s37.35-8.69,38.92-24S81.27,99.92,61.34,97.88,11.79,114.29,10.22,129.57Z"/><path class="cls-2" d="M38.62,120.17C36,129.5,52.1,136.41,64.26,139.88s24.17-1.29,26.83-10.61-5-19.7-17.21-23.17S41.28,110.84,38.62,120.17Z"/><path class="cls-3" d="M49.89,120.42c-1.93,6.77,9.78,11.79,18.61,14.31S86.05,133.79,88,127s-3.66-14.3-12.49-16.81S51.82,113.65,49.89,120.42Z"/><path class="cls-4" d="M239.21,184.23a212,212,0,0,0-18.8-12.18c-3.26-1.84-6.5-3.71-9.84-5.41l-5-2.62-5-2.47-5.05-2.47c-1.7-.79-3.42-1.52-5.13-2.28-3.43-1.51-6.83-3.07-10.33-4.42s-6.92-2.85-10.44-4.14l-10.56-3.83c-1.75-.66-3.55-1.17-5.33-1.74L148.36,141,143,139.31c-1.79-.54-3.61-1-5.41-1.5l-10.83-2.95c-3.63-.88-7.29-1.67-10.94-2.48l-5.47-1.22c-1.82-.43-3.67-.68-5.51-1l-11-2-2.76-.48-2.78-.36-5.55-.7q-5.57-.72-11.11-1.38h-.11a2.81,2.81,0,0,1,.67-5.57l.19,0,11.13,2.12,5.56,1,2.78.53,2.76.64,11,2.47c1.83.44,3.69.77,5.5,1.29l5.46,1.46,10.91,2.91,10.81,3.28c1.79.56,3.6,1.07,5.39,1.66l5.33,1.84,5.34,1.85c1.77.62,3.56,1.2,5.3,1.9a420.52,420.52,0,0,1,41.47,17.69l5.06,2.48,5,2.63c3.35,1.7,6.61,3.59,9.89,5.42,6.55,3.71,13,7.61,19.18,11.94a.88.88,0,1,1-1,1.44h0Z"/><path class="cls-1" d="M40.77,234.52C47.09,246,69.11,237.26,84,229s21.92-24.21,15.6-35.66-23.55-14.07-38.49-5.83S34.45,223.07,40.77,234.52Z"/><path class="cls-2" d="M56.08,214.16c2.67,7.81,17.31,4.82,27.5,1.35s16.29-12.63,13.62-20.45-13.09-11.33-23.28-7.86S53.41,206.34,56.08,214.16Z"/><path class="cls-3" d="M64.08,208.87c1.94,5.67,12.57,3.5,20,1s11.82-9.16,9.89-14.84-9.5-8.23-16.9-5.7S62.15,203.19,64.08,208.87Z"/><path class="cls-4" d="M227.51,161.64a181.39,181.39,0,0,0-19.06.6c-3.17.29-6.35.56-9.51,1l-4.75.58-4.73.71-4.73.73c-1.57.27-3.13.59-4.7.89-3.13.61-6.26,1.17-9.36,1.92s-6.23,1.37-9.32,2.17l-9.24,2.45c-3.08.83-6.1,1.86-9.15,2.79l-4.56,1.42c-1.51.49-3,1.06-4.51,1.58l-9,3.19c-3,1.14-5.92,2.37-8.87,3.57l-4.41,1.8c-1.49.58-2.91,1.31-4.36,1.95l-8.67,4-2.16,1-2.12,1.09-4.23,2.2-8.44,4.43-.09.05a2.38,2.38,0,1,1-2.22-4.22l.14-.07,8.81-3.93,4.4-2,2.19-1,2.24-.89c6-2.37,11.84-5,17.93-7l9-3.26,9.15-3c1.52-.48,3-1,4.58-1.45l4.62-1.3c3.09-.84,6.15-1.78,9.26-2.55a360.15,360.15,0,0,1,37.6-7.74l4.75-.72,4.76-.59c3.18-.43,6.37-.69,9.55-1,6.39-.58,12.76-1,19.22-.95a.75.75,0,1,1,0,1.49h-.06Z"/><path class="cls-1" d="M92.57,243.61c6.32,11.46,28.34,2.74,43.27-5.5s21.92-24.21,15.6-35.66-23.55-14.06-38.48-5.82S86.25,232.16,92.57,243.61Z"/><path class="cls-2" d="M107.88,223.25c2.67,7.82,17.31,4.82,27.5,1.35S151.67,212,149,204.15s-13.08-11.33-23.27-7.86S105.22,215.43,107.88,223.25Z"/><path class="cls-3" d="M115.89,218c1.93,5.67,12.56,3.5,20,1s11.83-9.17,9.89-14.85-9.5-8.23-16.9-5.7S114,212.28,115.89,218Z"/><path class="cls-4" d="M279.32,170.73a181.58,181.58,0,0,0-19.07.6c-3.17.29-6.35.56-9.51,1l-4.75.58-4.73.71-4.72.73c-1.57.27-3.14.59-4.7.89-3.13.61-6.27,1.17-9.37,1.92s-6.23,1.37-9.32,2.17l-9.24,2.45c-3.08.83-6.1,1.87-9.14,2.79L190.2,186c-1.51.49-3,1.06-4.51,1.58l-9,3.19c-3,1.14-5.92,2.37-8.86,3.57l-4.42,1.8c-1.48.58-2.9,1.31-4.36,1.95l-8.67,4-2.16,1-2.12,1.09-4.23,2.21-8.44,4.42-.09.05a2.38,2.38,0,1,1-2.22-4.22l.14-.07,8.81-3.92,4.4-2,2.2-1,2.24-.89c6-2.37,11.84-5,17.92-7l9-3.26,9.15-3c1.53-.48,3-1,4.58-1.45l4.62-1.3c3.09-.84,6.16-1.78,9.27-2.55a361.68,361.68,0,0,1,37.6-7.74l4.74-.72,4.77-.58c3.17-.44,6.36-.7,9.55-1,6.38-.58,12.75-1,19.21-.95a.75.75,0,1,1,0,1.49h-.05Z"/><path class="cls-1" d="M134.55,261.05c6.48,6.44,19.51-3.72,27.9-12.17s9.94-20.52,3.45-26.95-18.53-4.8-26.92,3.65S128.06,254.62,134.55,261.05Z"/><path class="cls-2" d="M140.81,244.41c3.32,4.71,12.54-.16,18.68-4.49s8.43-11.66,5.11-16.37-11-5-17.13-.7S137.49,239.7,140.81,244.41Z"/><path class="cls-3" d="M145.13,239.3c2.41,3.42,9.1-.12,13.56-3.27s6.13-8.46,3.72-11.88-8-3.65-12.44-.5S142.72,235.87,145.13,239.3Z"/><path class="cls-4" d="M245.34,175.6A152.72,152.72,0,0,0,220.41,185l-3,1.42c-1,.49-2,1-3,1.51-2,1-4,2-5.9,3.13s-3.91,2.14-5.82,3.28L197,197.78c-1.89,1.17-3.71,2.45-5.58,3.67l-2.77,1.85c-.92.62-1.81,1.29-2.71,1.94l-5.41,3.9c-1.77,1.35-3.5,2.75-5.24,4.13-3.52,2.7-6.8,5.72-10.17,8.6-1.69,1.43-3.23,3-4.85,4.56l-4.79,4.62-.06.06a1.67,1.67,0,1,1-2.32-2.39l.1-.09c3.46-2.86,6.78-5.88,10.29-8.67s7-5.64,10.63-8.21l5.42-4,5.55-3.77c.93-.63,1.85-1.27,2.79-1.87l2.84-1.78c1.91-1.17,3.77-2.4,5.71-3.52a249,249,0,0,1,23.66-12.57l3-1.41,3.08-1.33c2-.91,4.12-1.71,6.2-2.55,4.16-1.63,8.35-3.14,12.68-4.4a.52.52,0,1,1,.29,1h0Z"/><path class="cls-1" d="M6.32,76.33c-5.24,14.44,19.49,27.17,38.32,34S83,111,88.23,96.55,82.45,64.85,63.62,58,11.57,61.88,6.32,76.33Z"/><path class="cls-2" d="M36.16,74.12c-4.85,8.4,9.12,19,20.07,25.35S80,104.11,84.84,95.71s-.1-20.34-11-26.66S41,65.72,36.16,74.12Z"/><path class="cls-3" d="M47,77.1c-3.52,6.1,6.62,13.82,14.57,18.41s17.25,3.36,20.77-2.74-.08-14.76-8-19.35S50.55,71,47,77.1Z"/><path class="cls-4" d="M215.13,185.06a210.69,210.69,0,0,0-15.27-16.39c-2.71-2.58-5.4-5.18-8.22-7.64l-4.19-3.75-4.29-3.63L178.87,150c-1.45-1.18-3-2.31-4.42-3.46-3-2.3-5.88-4.64-8.95-6.8s-6-4.44-9.12-6.55l-9.3-6.28c-1.54-1.07-3.17-2-4.76-3L137.54,121l-4.79-2.93c-1.6-1-3.25-1.84-4.88-2.77l-9.78-5.49c-3.31-1.75-6.67-3.4-10-5.08l-5-2.51c-1.66-.86-3.4-1.56-5.09-2.34l-10.22-4.6L85.2,94.16l-2.61-1-5.22-2q-5.2-2-10.43-4l-.11,0a2.8,2.8,0,0,1,2-5.24l.18.08,10.28,4.75L84.43,89,87,90.17l2.52,1.29,10.1,5.08c1.67.87,3.39,1.65,5,2.59l4.94,2.75,9.88,5.48,9.68,5.8c1.61,1,3.24,1.92,4.83,2.93l4.72,3.08,4.73,3.09c1.56,1,3.16,2,4.68,3.13A420.6,420.6,0,0,1,184,152.65l4.31,3.63,4.2,3.76c2.84,2.47,5.54,5.09,8.28,7.67,5.44,5.19,10.71,10.53,15.7,16.25a.89.89,0,0,1-.09,1.24.87.87,0,0,1-1.24-.09v0Z"/><path class="cls-1" d="M25.48,22.39C16.94,36.83,40.9,55.47,59.73,66.6s41,8.45,49.54-6,.19-35.17-18.63-46.3S34,8,25.48,22.39Z"/><path class="cls-2" d="M57.93,26c-6.89,8,6,22.26,16.42,31.25S98.9,67.05,105.8,59s4-21.83-6.48-30.82S64.83,18,57.93,26Z"/><path class="cls-3" d="M69,31.44c-5,5.83,4.31,16.15,11.92,22.68s17.82,7.09,22.83,1.26S106.64,39.53,99,33,74,25.61,69,31.44Z"/><path class="cls-4" d="M227.55,181.17a229.33,229.33,0,0,0-13.07-20.67c-2.39-3.31-4.76-6.64-7.28-9.86l-3.74-4.86L199.6,141l-3.88-4.75c-1.32-1.56-2.7-3.07-4.05-4.61-2.71-3.06-5.37-6.16-8.22-9.09l-4.21-4.46c-1.41-1.47-2.77-3-4.25-4.41l-8.72-8.62c-1.44-1.45-3-2.79-4.5-4.17l-4.54-4.11-4.54-4.11c-1.53-1.35-3.12-2.64-4.68-4l-9.39-7.86c-3.19-2.54-6.46-5-9.71-7.46L124,69.7c-1.6-1.26-3.33-2.36-5-3.54l-10-7-2.52-1.73-2.59-1.63-5.19-3.23c-3.45-2.17-6.92-4.31-10.38-6.44l-.12-.07a3.06,3.06,0,1,1,3.2-5.21l.19.12q5,3.62,10.07,7.18l5,3.57,2.52,1.79,2.44,1.89,9.81,7.49c1.62,1.27,3.3,2.45,4.86,3.79l4.75,4,9.49,7.86,9.22,8.19c1.52,1.37,3.08,2.7,4.58,4.11l4.45,4.26,4.44,4.26c1.48,1.43,3,2.82,4.4,4.31a461.71,461.71,0,0,1,33,36.48l3.89,4.77,3.75,4.88c2.54,3.22,4.91,6.58,7.33,9.89,4.79,6.68,9.37,13.47,13.56,20.61a1,1,0,1,1-1.65,1l0,0Z"/></g><g id="ART-strokes"><path class="cls-4" d="M539.52,195.41a42.09,42.09,0,0,1-17.61-13,27.68,27.68,0,0,1-4.8-9.86,22.88,22.88,0,0,1-.07-10.88A24.83,24.83,0,0,1,522,152a32.79,32.79,0,0,1,8.21-7.26,32.32,32.32,0,0,1,10.22-4.2,42.08,42.08,0,0,1,5.47-.87,44.38,44.38,0,0,1,5.53,0,49.88,49.88,0,0,1,5.46.64,36.65,36.65,0,0,1,5.32,1.46,42,42,0,0,1,5,2.18c1.62.8,3.2,1.69,4.74,2.62a74.1,74.1,0,0,1,16.69,13.66,57.41,57.41,0,0,1,6.55,8.64,37.7,37.7,0,0,1,2.55,4.83,26.42,26.42,0,0,1,1.71,5.25,17.1,17.1,0,0,1,.26,5.63,14,14,0,0,1-.71,2.81,13.07,13.07,0,0,1-1.36,2.59,15.63,15.63,0,0,1-4.17,4,28.23,28.23,0,0,1-5.06,2.62h0a1.5,1.5,0,1,1-1.11-2.79l.15,0a16.53,16.53,0,0,0,8.52-5,10,10,0,0,0,2.08-4.45,15,15,0,0,0,0-5.1,22.25,22.25,0,0,0-1.39-5.06,36.23,36.23,0,0,0-2.27-4.8,53.72,53.72,0,0,0-6.22-8.71,64.78,64.78,0,0,0-7.66-7.52,57.23,57.23,0,0,0-8.8-6.17,42.62,42.62,0,0,0-9.89-4,35.55,35.55,0,0,0-5.19-.94c-1.77-.07-3.52-.24-5.28-.15s-3.5.19-5.25.28c-1.73.26-3.46.48-5.16.88l-1.28.27c-.43.1-.84.25-1.26.36-.83.25-1.7.42-2.51.74l-2.47.87-2.4,1.07a27.4,27.4,0,0,0-8.44,6.25,21.12,21.12,0,0,0-4.48,19.8,24.46,24.46,0,0,0,5,9.2,35.84,35.84,0,0,0,17.47,11.11,1.5,1.5,0,0,1-.84,2.89Z"/><path class="cls-4" d="M609.26,104.39a73.43,73.43,0,0,1,9.44,6.87,45.54,45.54,0,0,1,7.89,8.62,26.21,26.21,0,0,1,2.78,5.2,15,15,0,0,1,1.14,5.85,12.05,12.05,0,0,1-1.62,5.75,17,17,0,0,1-3.84,4.46,36,36,0,0,1-10,5.71,88.18,88.18,0,0,1-11,3.43c-3.72.91-7.48,1.64-11.26,2.23s-7.55,1.13-11.41,1.4a.47.47,0,0,1-.07-.94h0a124.84,124.84,0,0,0,22.54-3.38,74.33,74.33,0,0,0,10.83-3.5,35.34,35.34,0,0,0,9.7-5.7,15.77,15.77,0,0,0,3.47-4.27,10.7,10.7,0,0,0,1.3-5.2,13.55,13.55,0,0,0-1.2-5.28,22.15,22.15,0,0,0-2.79-4.76c-4.53-5.93-10.79-10.42-17.39-13.87h0a1.5,1.5,0,1,1,1.39-2.66Z"/><path class="cls-4" d="M548.59,141.24a39.85,39.85,0,0,1-3.21-9.74c-.16-.82-.21-1.66-.37-2.48a11.22,11.22,0,0,0-.28-1.25c-.11-.42-.19-.84-.28-1.27a7.93,7.93,0,0,1-.17-2.61,9.91,9.91,0,0,1,.67-2.51,35.6,35.6,0,0,1,2.56-4.45l1.2-2.18c.43-.71.85-1.42,1.31-2.11a72.76,72.76,0,0,1,6.32-8,1.53,1.53,0,0,1,2.32,2,1.49,1.49,0,0,1-.54.4,20.91,20.91,0,0,0-7.63,5.89,17,17,0,0,0-2.61,4.13,16.2,16.2,0,0,0-.84,4.8,21.89,21.89,0,0,1-.84,4.63,7.9,7.9,0,0,0-.07,4.81,15.19,15.19,0,0,0,4.87,8.1,1.54,1.54,0,0,1-2,2.37,1.68,1.68,0,0,1-.42-.54Z"/><path class="cls-4" d="M539.89,193.93a9.1,9.1,0,0,1,.73-1.29l.78-1.26c.27-.41.62-.77.92-1.16a10.48,10.48,0,0,1,1-1.12,18.94,18.94,0,0,1,2.24-2l1.2-.89,1.29-.74a26.06,26.06,0,0,1,11.38-3.19,35.63,35.63,0,0,1,11.8,1.38,41.4,41.4,0,0,1,5.61,2.06c.89.45,1.8.85,2.68,1.33s1.72,1,2.56,1.61a41.52,41.52,0,0,1,8.51,8.39,59.08,59.08,0,0,1,6.31,10.12A56,56,0,0,1,601,218.43a30.64,30.64,0,0,1,.78,12.13,13.73,13.73,0,0,1-2.37,5.94,11.32,11.32,0,0,1-5.25,3.89,18.29,18.29,0,0,1-6.24,1,34.48,34.48,0,0,1-6.12-.55c-8-1.49-15.33-4.7-22.38-8.31-1.76-.94-3.48-1.83-5.2-2.92-.86-.54-1.74-1.05-2.54-1.67a29.14,29.14,0,0,1-2.41-1.86,35.88,35.88,0,0,1-7.87-9.19,28.67,28.67,0,0,1-3.9-11.39,20.38,20.38,0,0,1,2.35-11.61l.27.13a20.33,20.33,0,0,0-1.26,11.3,27,27,0,0,0,4.32,10.46,35.73,35.73,0,0,0,7.76,8.24,54.11,54.11,0,0,0,9.84,5.84,112.18,112.18,0,0,0,10.6,4.71,64.74,64.74,0,0,0,11,3.35c3.68.72,7.56,1,10.89-.1a8.59,8.59,0,0,0,4.14-2.89,11.17,11.17,0,0,0,2-4.84,28.54,28.54,0,0,0-.54-11.2,53.13,53.13,0,0,0-3.8-10.87,57.24,57.24,0,0,0-5.92-9.93,40.33,40.33,0,0,0-8-8.22c-.78-.56-1.56-1.1-2.39-1.58s-1.7-.9-2.55-1.35a40,40,0,0,0-5.37-2.13,34.5,34.5,0,0,0-11.41-1.63A25.44,25.44,0,0,0,548.31,186c-.42.23-.85.45-1.27.69l-1.19.83a19.72,19.72,0,0,0-2.23,1.85,11,11,0,0,0-1,1.07c-.31.38-.66.72-.93,1.12l-.8,1.22a9.73,9.73,0,0,0-.75,1.24Z"/><path class="cls-4" d="M485.47,217.58a28.41,28.41,0,0,1,.46-9.58,20.28,20.28,0,0,1,1.6-4.44,19.83,19.83,0,0,1,2.52-3.94c1-1.22,1.95-2.44,3.07-3.6a13.85,13.85,0,0,1,3.86-2.89,19.34,19.34,0,0,1,9.33-1.62c1.57.05,3.1.11,4.64.19a37.2,37.2,0,0,1,4.59.48,48.85,48.85,0,0,1,9,2.41c.72.28,1.46.55,2.17.87a11.32,11.32,0,0,1,2.13,1.1,38.69,38.69,0,0,1,3.81,2.82,72.69,72.69,0,0,1,6.81,6.45,1.5,1.5,0,1,1-2.2,2l-.09-.11h0a57.56,57.56,0,0,0-6-6.68,32.8,32.8,0,0,0-3.41-2.87c-1.17-.81-2.46-1.64-3.77-2.37a35.84,35.84,0,0,0-4.13-1.89,38.43,38.43,0,0,0-4.37-1.28,21.64,21.64,0,0,0-9.06-.29,44,44,0,0,0-8.35,3c-1.32.6-2.66,1.16-4,1.87a11.35,11.35,0,0,0-3.48,2.8,16.25,16.25,0,0,0-3.41,8.17,16.94,16.94,0,0,0,1.21,8.64,1.52,1.52,0,1,1-2.8,1.17,1.63,1.63,0,0,1-.11-.42Z"/><path class="cls-4" d="M547.7,221.05a48.75,48.75,0,0,1,2.14,16.06,19.63,19.63,0,0,1-.67,4.08,9.6,9.6,0,0,1-1.87,3.75,11,11,0,0,1-3.16,2.68,20.94,20.94,0,0,1-3.79,1.51,21.17,21.17,0,0,1-4,1.11,11.34,11.34,0,0,1-4.11-.28,27.21,27.21,0,0,1-3.86-1.37,35.21,35.21,0,0,0-3.77-1.33c-2.55-.72-5.06-1.56-7.6-2.37s-5.07-1.68-7.69-2.4a1.53,1.53,0,1,1,.81-3,1.81,1.81,0,0,1,.52.26,43.32,43.32,0,0,0,6.75,4.14,50.51,50.51,0,0,0,7.31,3,15,15,0,0,0,3.89.72c1.32.08,2.65,0,3.94.07a34,34,0,0,1,3.79.26,17.72,17.72,0,0,0,3.85.31,8.58,8.58,0,0,0,6.16-4,12.76,12.76,0,0,0,1.37-3.43,18.14,18.14,0,0,0,.4-3.77,40.59,40.59,0,0,0-3.22-15v0a1.5,1.5,0,0,1,2.79-1.12A1,1,0,0,1,547.7,221.05Z"/><path class="cls-4" d="M506.51,262.12a8.46,8.46,0,0,1-4.36,2.26,11.11,11.11,0,0,1-4.65-.24,18.9,18.9,0,0,1-4.08-1.59,30.8,30.8,0,0,1-3.64-2.19,85.26,85.26,0,0,1-12.37-11.05,34.39,34.39,0,0,1-5-6.66,27.15,27.15,0,0,1-3.08-7.82,16,16,0,0,1,.55-8.64,13.08,13.08,0,0,1,5.6-6.76,14.25,14.25,0,0,1,4.06-1.64,17.73,17.73,0,0,1,4.28-.35,23.23,23.23,0,0,1,8.1,1.89,30,30,0,0,1,7.09,4.2c.56.4,1,.9,1.56,1.35a20.49,20.49,0,0,1,1.49,1.46,21.9,21.9,0,0,1,2.48,3.34,39.87,39.87,0,0,1,5.49,15.7,31.49,31.49,0,0,1,0,8.51,18.14,18.14,0,0,1-1.1,4.27A12.07,12.07,0,0,1,506.51,262.12ZM504.4,260c1.59-1.57,2.45-4.06,3-6.56a26.19,26.19,0,0,0,.46-3.88,39,39,0,0,0-3.93-19.47,20.84,20.84,0,0,0-2.23-3.36,24.63,24.63,0,0,0-9.84-7,18.58,18.58,0,0,0-7.92-1.11,16.41,16.41,0,0,0-3.84.82,13.8,13.8,0,0,0-3.35,1.79,12.56,12.56,0,0,0-4.45,5.85,18.07,18.07,0,0,0-1.13,7.53,19.93,19.93,0,0,0,2,7.68,23.65,23.65,0,0,0,4.82,6.47,65.59,65.59,0,0,0,12.92,9.8,26.52,26.52,0,0,0,7.21,2.88,9.58,9.58,0,0,0,3.49.07A5.54,5.54,0,0,0,504.4,260Z"/><path class="cls-4" d="M597,54.82a79.6,79.6,0,0,1,20.85,6.68,50.81,50.81,0,0,1,9.26,5.8A28,28,0,0,1,631,71.14a16.62,16.62,0,0,1,2.87,4.7,11.7,11.7,0,0,1,.8,5.46,14.52,14.52,0,0,1-1.6,5.28,31.09,31.09,0,0,1-6.85,8.58c-5.41,5-12,8.52-18.63,11.34-3.36,1.39-6.78,2.59-10.22,3.73a58.21,58.21,0,0,1-10.58,2.53,47.77,47.77,0,0,1-10.82.37,37,37,0,0,1-10.55-2.53,27.62,27.62,0,0,1-9.1-6,23,23,0,0,1-5.71-9.39,24,24,0,0,1-.7-11.09,32.23,32.23,0,0,1,3.85-10.54,1.5,1.5,0,0,1,2.62,1.47l-.09.15A27,27,0,0,0,552,84.57,20.8,20.8,0,0,0,557,104a26.44,26.44,0,0,0,8.69,6.06A34.52,34.52,0,0,0,576,112.72a37.06,37.06,0,0,0,10.72-.38A40.52,40.52,0,0,0,592,111c1.7-.56,3.34-1.24,5-1.94,3.31-1.41,6.55-3,9.75-4.56s6.36-3.25,9.45-5c1.53-.89,3.07-1.78,4.57-2.72s3-1.9,4.42-3a36.75,36.75,0,0,0,4-3.45,19.22,19.22,0,0,0,3.24-4.17,12.6,12.6,0,0,0,1.59-5,11.11,11.11,0,0,0-.83-5.12c-1.31-3.27-3.92-5.87-6.71-8a43.37,43.37,0,0,0-9.25-5.27,63.37,63.37,0,0,0-20.6-5h0a1.5,1.5,0,1,1,.22-3Z"/><path class="cls-4" d="M616.67,21.12a15.06,15.06,0,0,1,2.05,8.64,20.5,20.5,0,0,1-2.5,8.08,35,35,0,0,1-4.62,6.53,57.2,57.2,0,0,1-5.51,5.5,114.29,114.29,0,0,1-12.21,9.19c-4.24,2.78-8.54,5.44-12.94,7.91a61.5,61.5,0,0,1-14.06,5.81,48.88,48.88,0,0,1-15.29,1.88,29.4,29.4,0,0,1-15-4.89l-.85-.57a9.59,9.59,0,0,1-.78-.65l-1.54-1.35A17.76,17.76,0,0,1,532,65.71a19.59,19.59,0,0,1-1.31-1.58l-1.12-1.71c-.18-.28-.37-.57-.54-.86l-.44-.93-.86-1.84c-.26-.62-.43-1.29-.64-1.93A26.41,26.41,0,0,1,526,48.94l.15-2a15.89,15.89,0,0,1,.23-2,28.82,28.82,0,0,1,.87-3.81,42.88,42.88,0,0,1,6.95-13.57,53.66,53.66,0,0,1,10.67-10.72c1-.81,2.07-1.45,3.11-2.17a33.68,33.68,0,0,1,3.26-2,41.26,41.26,0,0,1,7.06-2.9,66,66,0,0,1,15-2.88,78.23,78.23,0,0,1,15.37.31,58.05,58.05,0,0,1,15.11,3.83A34.57,34.57,0,0,1,610.83,15,21.41,21.41,0,0,1,616.67,21.12Zm-4.3,2.55a17.21,17.21,0,0,0-4.45-4.75,34.87,34.87,0,0,0-6-3.57,48.26,48.26,0,0,0-6.74-2.56A65.15,65.15,0,0,0,588.07,11c-2.41-.46-4.84-.85-7.29-1.11s-4.92-.37-7.39-.39a59.41,59.41,0,0,0-14.73,1.67,40.26,40.26,0,0,0-7,2.48,29.43,29.43,0,0,0-3.26,1.78c-1,.68-2.15,1.28-3.13,2.06A42.73,42.73,0,0,0,534.74,28a34.46,34.46,0,0,0-5.6,13.61,29.45,29.45,0,0,0-.39,3.62,13.52,13.52,0,0,0,0,1.8l.07,1.79a25,25,0,0,0,1.66,6.84,23.16,23.16,0,0,0,8.45,10.68,33.34,33.34,0,0,0,13,5.38,37.75,37.75,0,0,0,14.63-.24,44,44,0,0,0,13.71-5.68A120.3,120.3,0,0,0,603.62,47.3a48,48,0,0,0,8.47-11.55,17,17,0,0,0,1.72-6.28A10.53,10.53,0,0,0,612.37,23.67Z"/><path class="cls-4" d="M99.48,192.58A35.84,35.84,0,0,0,117,181.47a24.46,24.46,0,0,0,5-9.2,21.12,21.12,0,0,0-4.48-19.8,27.4,27.4,0,0,0-8.44-6.25l-2.4-1.07-2.47-.87c-.81-.32-1.68-.49-2.51-.74-.42-.11-.83-.26-1.26-.36l-1.28-.27c-1.7-.4-3.43-.62-5.16-.88-1.75-.09-3.49-.33-5.25-.28s-3.51.08-5.28.15a35.55,35.55,0,0,0-5.19.94,42.62,42.62,0,0,0-9.89,4,57.23,57.23,0,0,0-8.8,6.17,64.78,64.78,0,0,0-7.66,7.52,53.72,53.72,0,0,0-6.22,8.71,36.23,36.23,0,0,0-2.27,4.8A22.25,22.25,0,0,0,42,179.12a15,15,0,0,0,0,5.1,10,10,0,0,0,2.08,4.45,16.53,16.53,0,0,0,8.52,5,1.5,1.5,0,0,1-.81,2.89l-.15,0h0a28.23,28.23,0,0,1-5.06-2.62,15.63,15.63,0,0,1-4.17-4,13.07,13.07,0,0,1-1.36-2.59,14,14,0,0,1-.71-2.81,17.1,17.1,0,0,1,.26-5.63,26.42,26.42,0,0,1,1.71-5.25,37.7,37.7,0,0,1,2.55-4.83,57.41,57.41,0,0,1,6.55-8.64A74.1,74.1,0,0,1,68.1,146.5c1.54-.93,3.12-1.82,4.74-2.62a42,42,0,0,1,5-2.18,36.65,36.65,0,0,1,5.32-1.46,49.88,49.88,0,0,1,5.46-.64,44.38,44.38,0,0,1,5.53,0,42.08,42.08,0,0,1,5.47.87,32.32,32.32,0,0,1,10.22,4.2,32.79,32.79,0,0,1,8.21,7.26,24.83,24.83,0,0,1,4.91,9.68,22.75,22.75,0,0,1-.08,10.88,27.49,27.49,0,0,1-4.79,9.86,42.09,42.09,0,0,1-17.61,13,1.5,1.5,0,1,1-1.15-2.77Z"/><path class="cls-4" d="M32.21,107c-6.6,3.45-12.86,7.94-17.39,13.87A22.15,22.15,0,0,0,12,125.64a13.55,13.55,0,0,0-1.2,5.28,10.7,10.7,0,0,0,1.3,5.2,15.77,15.77,0,0,0,3.47,4.27,35.34,35.34,0,0,0,9.7,5.7,74.33,74.33,0,0,0,10.83,3.5A124.84,124.84,0,0,0,58.67,153h0a.47.47,0,0,1,.44.5.46.46,0,0,1-.49.44h0c-3.86-.27-7.62-.8-11.41-1.4s-7.54-1.32-11.26-2.23a88.18,88.18,0,0,1-11-3.43,36,36,0,0,1-10-5.71,17,17,0,0,1-3.84-4.46,12.05,12.05,0,0,1-1.62-5.75,15,15,0,0,1,1.14-5.85,26.21,26.21,0,0,1,2.78-5.2,45.54,45.54,0,0,1,7.89-8.62,73.43,73.43,0,0,1,9.44-6.87,1.5,1.5,0,0,1,1.58,2.55l-.09.06Z"/><path class="cls-4" d="M89,139.45a15.19,15.19,0,0,0,4.87-8.1,7.9,7.9,0,0,0-.07-4.81,21.89,21.89,0,0,1-.84-4.63,16.2,16.2,0,0,0-.84-4.8A17,17,0,0,0,89.51,113a20.86,20.86,0,0,0-7.64-5.89,1.54,1.54,0,0,1,1.25-2.81,1.44,1.44,0,0,1,.54.4,72.76,72.76,0,0,1,6.32,8c.46.69.88,1.4,1.31,2.11l1.2,2.18a35.6,35.6,0,0,1,2.56,4.45,9.91,9.91,0,0,1,.67,2.51,7.93,7.93,0,0,1-.17,2.61c-.09.43-.17.85-.28,1.27A11.22,11.22,0,0,0,95,129c-.16.82-.21,1.66-.37,2.48a39.85,39.85,0,0,1-3.21,9.74v0A1.55,1.55,0,0,1,88.58,140,1.65,1.65,0,0,1,89,139.45Z"/><path class="cls-4" d="M99.84,194.06a9.73,9.73,0,0,0-.75-1.24l-.8-1.22c-.27-.4-.62-.74-.93-1.12a11,11,0,0,0-1-1.07,19.72,19.72,0,0,0-2.23-1.85L93,186.73c-.42-.24-.85-.46-1.27-.69a25.44,25.44,0,0,0-11.15-2.82,34.5,34.5,0,0,0-11.41,1.63A39.47,39.47,0,0,0,63.76,187c-.85.45-1.73.87-2.55,1.35s-1.61,1-2.39,1.58a40.33,40.33,0,0,0-8,8.22,57.24,57.24,0,0,0-5.92,9.93,53.13,53.13,0,0,0-3.8,10.87,28.54,28.54,0,0,0-.54,11.2,11.17,11.17,0,0,0,2,4.84,8.59,8.59,0,0,0,4.14,2.89c3.33,1.14,7.21.82,10.89.1a64.74,64.74,0,0,0,11-3.35,112.18,112.18,0,0,0,10.6-4.71A54.11,54.11,0,0,0,89,224.06a35.73,35.73,0,0,0,7.76-8.24,27,27,0,0,0,4.32-10.46,20.33,20.33,0,0,0-1.26-11.3l.27-.13a20.38,20.38,0,0,1,2.35,11.61,28.67,28.67,0,0,1-3.9,11.39,35.88,35.88,0,0,1-7.87,9.19A29.14,29.14,0,0,1,88.28,228c-.8.62-1.68,1.13-2.54,1.67-1.72,1.09-3.44,2-5.2,2.92-7.05,3.61-14.4,6.82-22.38,8.31a34.48,34.48,0,0,1-6.12.55,18.29,18.29,0,0,1-6.24-1,11.32,11.32,0,0,1-5.25-3.89,13.73,13.73,0,0,1-2.37-5.94A30.64,30.64,0,0,1,39,218.43a56,56,0,0,1,4.16-11.22,59.08,59.08,0,0,1,6.31-10.12,41.52,41.52,0,0,1,8.51-8.39c.83-.57,1.68-1.12,2.56-1.61s1.79-.88,2.68-1.33a41.4,41.4,0,0,1,5.61-2.06,35.63,35.63,0,0,1,11.8-1.38A26.06,26.06,0,0,1,92,185.51l1.29.74,1.2.89a18.94,18.94,0,0,1,2.24,2,10.48,10.48,0,0,1,1,1.12c.3.39.65.75.92,1.16l.78,1.26a9.1,9.1,0,0,1,.73,1.29Z"/><path class="cls-4" d="M151.62,216.86a16.94,16.94,0,0,0,1.21-8.64,16.25,16.25,0,0,0-3.41-8.17,11.27,11.27,0,0,0-3.49-2.8c-1.31-.71-2.65-1.27-4-1.87a44,44,0,0,0-8.35-3,21.63,21.63,0,0,0-9.06.29,38.43,38.43,0,0,0-4.37,1.28,35.84,35.84,0,0,0-4.13,1.89c-1.31.73-2.6,1.56-3.77,2.37a32.8,32.8,0,0,0-3.41,2.87,57.56,57.56,0,0,0-6,6.68h0a1.5,1.5,0,0,1-2.38-1.83l.09-.11a72.69,72.69,0,0,1,6.81-6.45,38.69,38.69,0,0,1,3.81-2.82,11.32,11.32,0,0,1,2.13-1.1c.71-.32,1.45-.59,2.17-.87a48.85,48.85,0,0,1,9-2.41,37.2,37.2,0,0,1,4.59-.48c1.54-.08,3.07-.14,4.64-.19a19.34,19.34,0,0,1,9.33,1.62,13.85,13.85,0,0,1,3.86,2.89c1.12,1.16,2.1,2.38,3.07,3.6a19.83,19.83,0,0,1,2.52,3.94,20.28,20.28,0,0,1,1.6,4.44,28.41,28.41,0,0,1,.46,9.58v0a1.52,1.52,0,1,1-3-.31A1.94,1.94,0,0,1,151.62,216.86Z"/><path class="cls-4" d="M95.13,222a40.59,40.59,0,0,0-3.22,15,18.14,18.14,0,0,0,.4,3.77,12.44,12.44,0,0,0,1.37,3.43,8.58,8.58,0,0,0,6.16,4,17.72,17.72,0,0,0,3.85-.31,34,34,0,0,1,3.79-.26c1.29,0,2.62,0,3.94-.07a15,15,0,0,0,3.89-.72,50.51,50.51,0,0,0,7.31-3,43.32,43.32,0,0,0,6.75-4.14,1.53,1.53,0,0,1,1.85,2.44,1.56,1.56,0,0,1-.52.25c-2.63.72-5.16,1.58-7.69,2.4s-5.05,1.65-7.6,2.37a35.21,35.21,0,0,0-3.77,1.33,27.21,27.21,0,0,1-3.86,1.37,11.34,11.34,0,0,1-4.11.28,21.17,21.17,0,0,1-4-1.11,20.94,20.94,0,0,1-3.79-1.51,11.12,11.12,0,0,1-3.17-2.68,9.72,9.72,0,0,1-1.86-3.75,19.63,19.63,0,0,1-.67-4.08,48.75,48.75,0,0,1,2.14-16.06,1.5,1.5,0,1,1,2.89.81l0,.15Z"/><path class="cls-4" d="M135.6,260a5.54,5.54,0,0,0,2.8,1.51,9.58,9.58,0,0,0,3.49-.07,26.65,26.65,0,0,0,7.21-2.88,65.89,65.89,0,0,0,12.92-9.8,23.65,23.65,0,0,0,4.82-6.47,19.93,19.93,0,0,0,2-7.68,18.07,18.07,0,0,0-1.13-7.53,12.56,12.56,0,0,0-4.45-5.85,13.69,13.69,0,0,0-3.36-1.79,16.22,16.22,0,0,0-3.83-.82,18.58,18.58,0,0,0-7.92,1.11,22.71,22.71,0,0,0-7,4.14,23.58,23.58,0,0,0-2.88,2.86,21.47,21.47,0,0,0-2.22,3.36,39,39,0,0,0-3.93,19.47,26.19,26.19,0,0,0,.46,3.88C133.15,255.93,134,258.42,135.6,260Zm-2.11,2.13a12.07,12.07,0,0,1-2.48-4,18.14,18.14,0,0,1-1.1-4.27,31.49,31.49,0,0,1,0-8.51,39.87,39.87,0,0,1,5.49-15.7,21.9,21.9,0,0,1,2.48-3.34,18.65,18.65,0,0,1,1.49-1.46c.52-.45,1-.95,1.56-1.35a30,30,0,0,1,7.09-4.2,23.23,23.23,0,0,1,8.1-1.89,17.73,17.73,0,0,1,4.28.35,14.25,14.25,0,0,1,4.06,1.64,13.08,13.08,0,0,1,5.6,6.76,16,16,0,0,1,.55,8.64,27.15,27.15,0,0,1-3.08,7.82,34.39,34.39,0,0,1-4.95,6.66,85.26,85.26,0,0,1-12.37,11.05,30.8,30.8,0,0,1-3.64,2.19,18.9,18.9,0,0,1-4.08,1.59,11.11,11.11,0,0,1-4.65.24A8.46,8.46,0,0,1,133.49,262.12Z"/><path class="cls-4" d="M43.39,57.8a63.31,63.31,0,0,0-20.6,5,43.37,43.37,0,0,0-9.25,5.27c-2.8,2.15-5.4,4.75-6.72,8A11.23,11.23,0,0,0,6,81.24a12.6,12.6,0,0,0,1.59,5,19.22,19.22,0,0,0,3.24,4.17,36.75,36.75,0,0,0,4,3.45c1.42,1.06,2.91,2,4.42,3s3,1.83,4.57,2.72c3.09,1.76,6.25,3.42,9.45,5s6.44,3.15,9.75,4.56c1.66.7,3.3,1.38,5,1.94a40.52,40.52,0,0,0,5.21,1.31,43.74,43.74,0,0,0,5.35.58,43.75,43.75,0,0,0,5.37-.2,34.52,34.52,0,0,0,10.36-2.65A26.44,26.44,0,0,0,83,104a20.8,20.8,0,0,0,5-19.44,27,27,0,0,0-4.34-9.33,1.5,1.5,0,1,1,2.44-1.76l.09.14a32.23,32.23,0,0,1,3.85,10.54,24,24,0,0,1-.7,11.09,23,23,0,0,1-5.71,9.39,27.72,27.72,0,0,1-9.1,6A37,37,0,0,1,64,113.13a47.77,47.77,0,0,1-10.82-.37,58.21,58.21,0,0,1-10.58-2.53c-3.44-1.14-6.86-2.34-10.22-3.73-6.67-2.82-13.22-6.32-18.63-11.34a31.09,31.09,0,0,1-6.85-8.58,14.52,14.52,0,0,1-1.6-5.28,11.7,11.7,0,0,1,.8-5.46A16.62,16.62,0,0,1,9,71.14a28,28,0,0,1,3.93-3.84,50.81,50.81,0,0,1,9.26-5.8A79.6,79.6,0,0,1,43,54.82a1.5,1.5,0,1,1,.53,3l-.15,0Z"/><path class="cls-4" d="M27.63,23.67a10.53,10.53,0,0,0-1.44,5.8,17,17,0,0,0,1.72,6.28A48.24,48.24,0,0,0,36.37,47.3,120.67,120.67,0,0,0,59.73,65.83a44,44,0,0,0,13.71,5.68,37.75,37.75,0,0,0,14.63.24,33.24,33.24,0,0,0,13-5.38,23.12,23.12,0,0,0,8.46-10.68,25,25,0,0,0,1.66-6.84l.07-1.79a13.51,13.51,0,0,0,0-1.8,29.45,29.45,0,0,0-.39-3.62A34.46,34.46,0,0,0,105.26,28,42.73,42.73,0,0,0,94.74,17.47c-1-.78-2.08-1.38-3.13-2.06a29.43,29.43,0,0,0-3.26-1.78,40.26,40.26,0,0,0-7-2.48A59.41,59.41,0,0,0,66.61,9.48c-2.47,0-4.94.15-7.39.39s-4.88.65-7.29,1.11a65.15,65.15,0,0,0-7.09,1.81,48.26,48.26,0,0,0-6.74,2.56,34.87,34.87,0,0,0-6,3.57A17.21,17.21,0,0,0,27.63,23.67Zm-4.3-2.55A21.41,21.41,0,0,1,29.17,15a34.57,34.57,0,0,1,7.06-3.87A58.05,58.05,0,0,1,51.34,7.29,78.23,78.23,0,0,1,66.71,7a66,66,0,0,1,15,2.88,41.26,41.26,0,0,1,7.06,2.9,33.68,33.68,0,0,1,3.26,2c1,.72,2.14,1.36,3.11,2.17a53.66,53.66,0,0,1,10.67,10.72,42.88,42.88,0,0,1,7,13.57,28.82,28.82,0,0,1,.87,3.81,15.89,15.89,0,0,1,.23,2l.15,2a26.41,26.41,0,0,1-1.11,7.92c-.21.64-.38,1.31-.64,1.93l-.86,1.84-.44.93c-.17.29-.36.58-.54.86l-1.13,1.71a17.57,17.57,0,0,1-1.3,1.58,17.76,17.76,0,0,1-1.39,1.49l-1.54,1.35a9.59,9.59,0,0,1-.78.65l-.85.57a29.4,29.4,0,0,1-15,4.89,48.88,48.88,0,0,1-15.29-1.88A61.5,61.5,0,0,1,59.06,67c-4.4-2.47-8.7-5.13-12.94-7.91a114.29,114.29,0,0,1-12.21-9.19,57.2,57.2,0,0,1-5.51-5.5,35,35,0,0,1-4.62-6.53,20.5,20.5,0,0,1-2.5-8.08A15.06,15.06,0,0,1,23.33,21.12Z"/></g></svg>