<svg xmlns="http://www.w3.org/2000/svg" viewBox="0 0 640 320"><defs><style>.cls-1{fill:#534741;}.cls-2{fill:#ff8abf;}.cls-3,.cls-5{fill:none;stroke-linecap:round;stroke-miterlimit:10;}.cls-3{stroke:#f5eff9;stroke-width:3.99px;}.cls-4{fill:#0d0a09;}.cls-5{stroke:#534741;stroke-width:2px;}</style></defs><g id="ART-fills"><path class="cls-1" d="M455.41,79.54a72.49,72.49,0,0,1-5.67,24.07,99.39,99.39,0,0,1-12.24,21,154.41,154.41,0,0,1-16,18l-4.38,4.1-4.49,4L408,154.45l-4.66,3.75c-6.27,4.94-12.83,9.47-19.31,14.1s-13,9.21-19.71,13.61-13.49,8.59-20.51,12.39c-1.76.94-3.51,1.89-5.29,2.79-.85.46-1.83.93-2.8,1.39s-2,.83-3,1.17a35.24,35.24,0,0,1-24.89-.74c-1-.38-1.91-.85-2.84-1.31s-1.85-1-2.68-1.5l-5.15-3c-6.84-4.1-13.66-8.21-20.44-12.39s-13.58-8.3-20.21-12.71-13.1-9.06-19.42-13.91A225.86,225.86,0,0,1,219,142.45a148.37,148.37,0,0,1-16-17.89,98.66,98.66,0,0,1-12.28-20.94A72.3,72.3,0,0,1,185,79.54h6.5A60.32,60.32,0,0,0,194.82,102a87,87,0,0,0,10.55,20.79c8.83,13,20.29,24.23,32.55,34.24,6.13,5,12.58,9.68,19.13,14.17s13.26,8.76,20.18,12.65,14,7.53,21.19,10.91l5.39,2.54c.91.44,1.78.8,2.65,1.17s1.77.67,2.67.93a33.86,33.86,0,0,0,5.49,1.2,38.62,38.62,0,0,0,5.58.26,36.21,36.21,0,0,0,5.5-.65c.9-.21,1.8-.4,2.68-.68l1.32-.39,1.3-.47c.86-.31,1.69-.7,2.53-1.08s1.63-.79,2.53-1.29l5.25-2.79c7-3.69,14.07-7.25,21.11-10.91s14-7.45,20.69-11.75a214.4,214.4,0,0,0,19.24-14l4.58-3.78,4.48-3.9,4.34-4.05L420,141a132.45,132.45,0,0,0,15-18.19A86.9,86.9,0,0,0,445.58,102a60,60,0,0,0,3.33-22.5Z"/><path class="cls-2" d="M320.2,199.44a27.07,27.07,0,1,0,27.06,27.07A27.07,27.07,0,0,0,320.2,199.44Zm0,38.33a11.26,11.26,0,1,1,11.26-11.26A11.26,11.26,0,0,1,320.2,237.77Z"/><path class="cls-3" d="M299.41,220.67A21,21,0,0,0,304.32,242c6.29,6.19,14.54,5.74,15.88,5.65"/><path class="cls-3" d="M340.05,232.34a21,21,0,0,0-4.9-21.33c-6.3-6.19-14.54-5.74-15.89-5.65"/></g><g id="ART-strokes"><path class="cls-4" d="M320.2,251.07a25.38,25.38,0,0,0,25.39-24.56,25.36,25.36,0,0,0-15.38-24.18,25.49,25.49,0,0,0-20,0,25.35,25.35,0,0,0-15.39,24.18,25.44,25.44,0,0,0,25.41,24.56Zm0,5a29.75,29.75,0,0,1-11.29-2.31,28.69,28.69,0,0,1-8.6-47.14,28.74,28.74,0,0,1,40.63,40.63,29.16,29.16,0,0,1-9.45,6.51A29.79,29.79,0,0,1,320.2,256.07Z"/><path class="cls-4" d="M320.2,213.43a12.57,12.57,0,0,1,5,1,12.8,12.8,0,0,1,4.1,2.94A12.25,12.25,0,0,1,312,234.73a12.34,12.34,0,0,1-4-8.22,12.18,12.18,0,0,1,3.16-9.08,12.28,12.28,0,0,1,9.08-4Zm0,5a9,9,0,0,0-8.92,8.08,8.86,8.86,0,0,0,2.19,6.73,9,9,0,0,0,6.73,3,9,9,0,0,0,6.72-3,8.87,8.87,0,0,0,2.18-6.72,8.95,8.95,0,0,0-8.9-8.08Z"/><path class="cls-5" d="M311.24,199.26s-1.06,8.09.51,13.27a27.13,27.13,0,0,0,3.84,8.14"/><path class="cls-5" d="M329.15,199.26s1.06,8.09-.5,13.27a27,27,0,0,1-3.85,8.14"/></g></svg>