<svg xmlns="http://www.w3.org/2000/svg" viewBox="0 0 640 320"><defs><style>.cls-1{fill:maroon;}.cls-2{fill:red;}.cls-3{fill:#ff0;}.cls-4{fill:#0d0a09;}</style></defs><g id="ART-fills"><path class="cls-1" d="M223.13,148.8c-11.72,21.52-16.25,48.67-6.91,81.26a161.59,161.59,0,0,0,57.65,31.06c-9.23-11.56-20.24-22-30.52-33.1C222.94,206.08,218.42,177.37,223.13,148.8Z"/><path class="cls-2" d="M406.58,133.45c-1.72-2.13-3.48-4.22-5.33-6.2-9.28,24.49-28.4,44.11-53.9,55.77-27,12-60,12-85-5-14.18-10.63-20.51-27.55-32.21-40.31a102.35,102.35,0,0,0-7,11.09c-4.71,28.57-.19,57.28,20.22,79.22,10.28,11.14,21.29,21.54,30.52,33.1,4.09,1.21,8.25,2.25,12.47,3.15C341.54,236.32,391.21,194.72,406.58,133.45Z"/><path class="cls-3" d="M408.25,135.54c-.54-.71-1.11-1.39-1.67-2.09-15.37,61.27-65,102.87-120.24,130.82a162.4,162.4,0,0,0,77-2.35c20.83-12.48,40.64-26.52,50-48.9C424.51,186.46,419.86,160.18,408.25,135.54Z"/><path class="cls-1" d="M262.35,178c25,17,58,17,85,5,25.5-11.66,44.62-31.28,53.9-55.77C377.41,101.66,343.2,88.52,320,88.52c-26.17,0-66.35,16.73-89.86,49.19C241.84,150.47,248.17,167.39,262.35,178Z"/><path class="cls-1" d="M408.25,135.54c11.61,24.64,16.26,50.92,5.1,77.48-9.39,22.38-29.2,36.42-50,48.9a161.48,161.48,0,0,0,60.46-31.86C435.15,190.37,426,158.75,408.25,135.54Z"/></g><g id="ART-strokes"><path class="cls-4" d="M320,92.52a86.46,86.46,0,0,0-23.8,3.81,128,128,0,0,0-22.7,9.25,121.41,121.41,0,0,0-38,30.65,97.82,97.82,0,0,0-13,20.74,93.78,93.78,0,0,0-7.25,23.41A107.12,107.12,0,0,0,214,205a141.2,141.2,0,0,0,4.24,24.49l-.67-1a159,159,0,0,0,22.58,16.23,157.22,157.22,0,0,0,134.54,12,155.89,155.89,0,0,0,47.74-28.2l-.67,1A142,142,0,0,0,426,205a107.21,107.21,0,0,0-1.25-24.62,94,94,0,0,0-7.25-23.4,97.68,97.68,0,0,0-13-20.75,121.58,121.58,0,0,0-38-30.65,129.48,129.48,0,0,0-22.7-9.25A86.83,86.83,0,0,0,320,92.52Zm0-8a94.41,94.41,0,0,1,26,4.26,128.18,128.18,0,0,1,24.07,10A124.61,124.61,0,0,1,409.81,132a104.18,104.18,0,0,1,13.27,22.44,99.55,99.55,0,0,1,7.07,25,112.11,112.11,0,0,1,.66,25.88,145.55,145.55,0,0,1-5,25.24l-.18.63-.48.4a166.07,166.07,0,0,1-23.53,16,162.45,162.45,0,0,1-25.85,11.82,169.46,169.46,0,0,1-27.46,7.22,166.54,166.54,0,0,1-28.28,2.4,164.51,164.51,0,0,1-28.28-2.4,169.52,169.52,0,0,1-27.47-7.2,163.34,163.34,0,0,1-25.85-11.82,164.74,164.74,0,0,1-23.53-16.05l-.49-.4-.18-.63a145.66,145.66,0,0,1-5-25.25,112.1,112.1,0,0,1,.66-25.88,99.53,99.53,0,0,1,7.08-25A104.11,104.11,0,0,1,230.18,132,124.65,124.65,0,0,1,269.89,98.8a128.18,128.18,0,0,1,24.07-10A94.41,94.41,0,0,1,320,84.52Z"/></g></svg>