<svg xmlns="http://www.w3.org/2000/svg" viewBox="0 0 640 320"><defs><style>.cls-1{fill:#ff0;}.cls-2{fill:red;}.cls-3{fill:maroon;}.cls-4{fill:#0d0a09;}</style></defs><g id="ART-fills"><path class="cls-1" d="M218.89,224.27a57.13,57.13,0,0,1-2.72,5.77,162,162,0,0,0,41,25.1,107.88,107.88,0,0,1-7.41-21.75C239,230.36,228.67,227.14,218.89,224.27Z"/><path class="cls-1" d="M251,202c.39-1.1.8-2.19,1.21-3.28-8.54-2.45-16.76-5-24.59-7.29-2.63,12.25-5,23.72-8.76,32.82,9.78,2.87,20.11,6.09,30.9,9.12A60.43,60.43,0,0,1,251,202Z"/><path class="cls-1" d="M297.28,102.8c-30.67,5.11-46.64,22.28-56.2,43,9.88,2.56,20.51,5.59,31.73,8.22C281.49,137.17,290.41,120.43,297.28,102.8Z"/><path class="cls-1" d="M272.81,154c-11.22-2.63-21.85-5.66-31.73-8.22-6.67,14.46-10.22,30.65-13.43,45.67,7.83,2.3,16,4.84,24.59,7.29C257.91,183.34,265.26,168.63,272.81,154Z"/><path class="cls-2" d="M320,160.23A191.24,191.24,0,0,0,358.15,156c-9.27-18-16.93-36.06-25.16-54.09-4.1-.41-8.42-.63-13-.63a125.06,125.06,0,0,0-22.72,1.54c-6.87,17.63-15.79,34.37-24.47,51.2C287.65,157.47,303.52,160.23,320,160.23Z"/><path class="cls-2" d="M382.55,200.21c-19.49,5.39-40.56,10-62.55,10-24,0-46.83-5.44-67.76-11.44-.41,1.09-.82,2.18-1.21,3.28a60.43,60.43,0,0,0-1.24,31.37c21.81,6.12,45.48,11.45,70.21,11.45,23.19,0,45.44-4.68,66.1-10.32C389.72,222.58,387.3,211.14,382.55,200.21Z"/><path class="cls-2" d="M386.1,234.52c-20.66,5.64-42.91,10.32-66.1,10.32-24.73,0-48.4-5.33-70.21-11.45a107.88,107.88,0,0,0,7.41,21.75,162.14,162.14,0,0,0,117.69,3.09A158.85,158.85,0,0,0,384,240,42.1,42.1,0,0,0,386.1,234.52Z"/><path class="cls-2" d="M382.55,200.21C378.6,191.13,373.06,182.4,368,174c-3.53-6-6.79-12-9.88-18A191.24,191.24,0,0,1,320,160.23c-16.48,0-32.35-2.76-47.19-6.23-7.55,14.63-14.9,29.34-20.57,44.74,20.93,6,43.8,11.44,67.76,11.44C342,210.18,363.06,205.6,382.55,200.21Z"/><path class="cls-1" d="M386.1,234.52c12.27-3.34,24-7,35-10.24-3.8-9.1-6.42-20.5-9.29-32.67-9.25,2.72-19,5.77-29.25,8.6C387.3,211.14,389.72,222.58,386.1,234.52Z"/><path class="cls-1" d="M386.1,234.52A42.1,42.1,0,0,1,384,240a158.85,158.85,0,0,1-9.14,18.21A161.74,161.74,0,0,0,423.83,230a60.35,60.35,0,0,1-2.74-5.76C410.08,227.51,398.37,231.18,386.1,234.52Z"/><path class="cls-1" d="M397.44,146.16c-10.8-22.4-28.95-40.72-64.45-44.27,8.23,18,15.89,36.06,25.16,54.09C372.14,153.12,385.34,149.33,397.44,146.16Z"/><path class="cls-1" d="M368,174c5,8.38,10.57,17.11,14.52,26.19,10.22-2.83,20-5.88,29.25-8.6-3.52-14.94-7.42-31-14.36-45.45-12.1,3.17-25.3,7-39.29,9.82C361.24,162,364.5,168,368,174Z"/><path class="cls-1" d="M409.79,219a12.63,12.63,0,0,1-1.57.94c-.45.25-.9.45-1.34.68-.89.45-1.79.85-2.68,1.27-1.8.79-3.58,1.6-5.4,2.29-3.61,1.47-7.29,2.7-11,3.89s-7.42,2.19-11.17,3.12c-1.86.5-3.75.9-5.64,1.3s-3.76.87-5.66,1.18l-5.7,1c-1.9.31-3.81.57-5.7.93s-3.8.71-5.71,1l-5.72,1c-3.83.56-7.69,1-11.56,1.22-1.93.06-3.87,0-5.8.06s-3.87,0-5.81-.15l-5.79-.44-2.89-.25-2.88-.38c-3.83-.51-7.67-.89-11.48-1.49-1.9-.27-3.82-.45-5.73-.72l-5.71-.83c-1.91-.25-3.8-.61-5.69-1l-2.84-.53c-.95-.17-1.91-.31-2.84-.54l-5.65-1.23c-1.89-.4-3.74-1-5.62-1.39s-3.73-1-5.59-1.52l-2.78-.79-2.77-.88-2.77-.87-2.74-1c-1.84-.62-3.65-1.3-5.47-2-3.64-1.45-7.18-2.89-10.82-4.75a2.08,2.08,0,0,1,1.9-3.71l.23.14.09.06a80.66,80.66,0,0,0,9.75,5.66c1.71.83,3.42,1.69,5.18,2.43l2.63,1.14,2.66,1.06a164,164,0,0,0,21.94,6.84c1.86.48,3.75.82,5.63,1.21s3.76.78,5.66,1.06l5.69.92c1.9.27,3.81.43,5.73.61,7.65.74,15.36.37,23,.16,1.91,0,3.82-.19,5.73-.22s3.82-.15,5.73-.16l5.72-.16c1.91,0,3.83,0,5.75-.05a106.3,106.3,0,0,0,22.83-2.56c1.88-.34,3.74-.84,5.6-1.28s3.72-.93,5.55-1.5c3.69-1,7.31-2.28,10.89-3.63,1.77-.71,3.56-1.37,5.29-2.18l2.61-1.18c.86-.39,1.7-.84,2.55-1.26s1.7-.86,2.52-1.33,1.67-.9,2.46-1.41,1.62-1,2.38-1.5c.38-.26.79-.51,1.15-.78l.55-.41c.24-.16.21-.18.29-.22l.68-.37a2,2,0,0,1,2.13,3.42Z"/><path class="cls-1" d="M402,185.52a9.79,9.79,0,0,1-1.44.86c-.41.23-.81.42-1.22.62-.81.42-1.63.79-2.44,1.18-1.64.73-3.27,1.46-4.94,2.09-3.31,1.33-6.67,2.46-10,3.54s-6.78,2-10.21,2.85c-1.7.47-3.43.83-5.16,1.19s-3.43.8-5.17,1.08l-5.21.94c-1.73.29-3.48.52-5.21.85-3.47.66-7,1.18-10.45,1.82s-7,.93-10.56,1.11c-1.77.07-3.54,0-5.31.06s-3.54,0-5.3-.13l-5.3-.41-2.64-.23-2.63-.34c-3.51-.47-7-.82-10.49-1.36Q287.8,200,277.44,198l-5.16-1.13c-1.73-.37-3.42-.87-5.14-1.27s-3.41-.9-5.1-1.39l-2.55-.73-2.53-.8-2.53-.8-2.51-.88c-1.67-.57-3.34-1.19-5-1.83-3.32-1.32-6.56-2.63-9.88-4.34a1.9,1.9,0,0,1,1.73-3.39l.22.13.07.05a72.64,72.64,0,0,0,8.92,5.17c1.56.77,3.12,1.55,4.73,2.23l2.4,1,2.44,1a149.73,149.73,0,0,0,20.05,6.25c1.7.44,3.43.75,5.14,1.11s3.44.71,5.18,1l5.2.84c1.74.24,3.49.38,5.23.56,7,.68,14,.34,21,.15,3.49-.07,7-.33,10.47-.34.88,0,1.74-.07,2.62-.09l2.62-.06c1.74,0,3.5,0,5.25,0A97.75,97.75,0,0,0,361.21,198c1.72-.31,3.41-.77,5.12-1.17s3.4-.85,5.07-1.37c3.37-.94,6.68-2.09,10-3.32,1.62-.65,3.26-1.25,4.84-2s3.18-1.42,4.71-2.24,3.06-1.64,4.55-2.5c.73-.46,1.49-.87,2.19-1.36.34-.24.71-.48,1-.72l.5-.37c.22-.15.19-.17.27-.21l.62-.33a1.84,1.84,0,0,1,1.95,3.12Z"/><path class="cls-1" d="M383.55,142.44a8.67,8.67,0,0,1-1.12.67c-.32.18-.63.32-.95.48-.63.32-1.27.61-1.9.9-1.28.56-2.54,1.14-3.83,1.63-2.57,1-5.18,1.92-7.79,2.76a150.43,150.43,0,0,1-15.95,4l-4,.73c-1.35.21-2.71.4-4.05.66-2.7.51-5.4.92-8.12,1.41s-5.45.72-8.2.87-5.49.11-8.24-.06c-5.49-.33-10.93-1.07-16.35-1.82s-10.83-1.47-16.19-2.54a160,160,0,0,1-15.9-4.13,106.79,106.79,0,0,1-15.47-6.1,1.48,1.48,0,0,1,1.32-2.64l.18.1.07,0a58.48,58.48,0,0,0,6.92,4c1.22.59,2.43,1.2,3.68,1.72l1.86.82,1.89.75a117,117,0,0,0,15.57,4.85c1.32.34,2.67.58,4,.86s2.67.55,4,.75l4,.65c1.35.19,2.71.31,4.07.43a130.71,130.71,0,0,0,16.32.12c2.72-.06,5.42-.25,8.13-.27l4.07-.11c1.35,0,2.72,0,4.07,0a74.93,74.93,0,0,0,16.21-1.82,102.19,102.19,0,0,0,15.64-4.55c1.26-.5,2.53-1,3.75-1.54s2.47-1.11,3.67-1.74,2.38-1.25,3.53-1.94c.57-.35,1.15-.68,1.69-1.06.27-.19.56-.37.81-.56l.39-.28c.17-.12.15-.13.21-.17L382,140a1.43,1.43,0,0,1,1.94.58A1.44,1.44,0,0,1,383.55,142.44Z"/><path class="cls-3" d="M409.19,228.81c-.4.69-.67,1.1-1,1.57a14.45,14.45,0,0,1-1,1.28,18.23,18.23,0,0,1-2.24,2.16,19.86,19.86,0,0,1-2.47,1.76c-.42.27-.86.52-1.29.76l-1.35.65c-3.61,1.68-7.31,3.1-11,4.43A166.54,166.54,0,0,1,366,247.6l-5.78,1.08c-1.94.32-3.88.58-5.82.85l-2.92.41c-1,.12-1.95.2-2.92.3l-5.84.56q-5.86.42-11.72.61l-5.85.05c-2,0-3.91.07-5.86,0A228.32,228.32,0,0,1,273,245.49a191.76,191.76,0,0,1-22.37-6.84l-2.74-1-2.7-1.12c-1.81-.73-3.59-1.54-5.37-2.35-.89-.4-1.76-.86-2.62-1.33s-1.72-.93-2.53-1.49a26,26,0,0,1-4.7-3.67.91.91,0,0,1,.89-1.52h.05c1.85.53,3.66,1.17,5.44,1.83l2.65,1,2.63,1.07c1.75.72,3.5,1.45,5.28,2.08l2.66,1,2.7.9a187.13,187.13,0,0,0,22,5.82A224.78,224.78,0,0,0,319.4,244c1.89.06,3.79-.05,5.68-.1l5.68-.18c1.89-.07,3.77-.26,5.66-.39s3.77-.22,5.65-.43l5.63-.62c.93-.11,1.88-.2,2.81-.33l2.79-.43,5.59-.86,5.55-1.06a181.22,181.22,0,0,0,21.73-5.84c3.52-1.24,7-2.55,10.4-4.08.86-.36,1.72-.7,2.58-1s1.79-.56,2.69-.82,1.87-.44,2.82-.61c.48-.08,1-.15,1.49-.19a3.8,3.8,0,0,1,1.43,0l1.11.39a.93.93,0,0,1,.58,1.19A.89.89,0,0,1,409.19,228.81Z"/><path class="cls-3" d="M409.19,193.73c-.4.69-.67,1.1-1,1.57a14.45,14.45,0,0,1-1,1.28,18.23,18.23,0,0,1-2.24,2.16,19.86,19.86,0,0,1-2.47,1.76c-.42.27-.86.51-1.29.76l-1.35.65c-3.61,1.68-7.31,3.1-11,4.43A166.54,166.54,0,0,1,366,212.52l-5.78,1.08c-1.94.32-3.88.58-5.82.85l-2.92.41c-1,.12-1.95.19-2.92.3l-5.84.56q-5.86.42-11.72.61l-5.85,0c-2,0-3.91.07-5.86,0A228.32,228.32,0,0,1,273,210.41a191.76,191.76,0,0,1-22.37-6.84l-2.74-1-2.7-1.12c-1.81-.73-3.59-1.54-5.37-2.36-.89-.39-1.76-.85-2.62-1.32s-1.72-.93-2.53-1.49a26.48,26.48,0,0,1-4.7-3.67.91.91,0,0,1,.89-1.52h.05c1.85.53,3.66,1.17,5.44,1.83l2.65,1,2.63,1.07c1.75.72,3.5,1.45,5.28,2.08l2.66,1,2.7.9a187.13,187.13,0,0,0,22,5.82A224.78,224.78,0,0,0,319.4,209c1.89.06,3.79,0,5.68-.1l5.68-.18c1.89-.07,3.77-.26,5.66-.39s3.77-.22,5.65-.43l5.63-.62c.93-.11,1.88-.2,2.81-.33l2.79-.43,5.59-.86,5.55-1.06a181.22,181.22,0,0,0,21.73-5.84c3.52-1.24,7-2.55,10.4-4.08.86-.36,1.72-.7,2.58-1s1.79-.57,2.69-.82,1.87-.44,2.82-.61c.48-.08,1-.15,1.49-.19a3.8,3.8,0,0,1,1.43,0l1.11.38a.94.94,0,0,1,.58,1.2A.89.89,0,0,1,409.19,193.73Z"/><path class="cls-3" d="M398.24,143.47c-.1.29-.35.63-.42.83l-.36.66a13.28,13.28,0,0,1-.79,1.21,16.81,16.81,0,0,1-1.86,2.07,17.74,17.74,0,0,1-2.09,1.71c-.36.26-.74.49-1.11.74s-.78.43-1.17.65l-2.36,1.21-2.4,1.12c-1.59.77-3.23,1.41-4.85,2.09a134,134,0,0,1-20,6.26A166.57,166.57,0,0,1,319.32,166a176.38,176.38,0,0,1-41.08-6,149.28,149.28,0,0,1-19.61-6.85l-2.38-1L253.9,151c-1.58-.72-3.11-1.54-4.65-2.33a37.62,37.62,0,0,1-4.43-2.76,22.74,22.74,0,0,1-4-3.54.87.87,0,0,1,.1-1.21.85.85,0,0,1,.82-.16l.06,0c1.61.53,3.18,1.19,4.72,1.85l2.3,1c.77.34,1.5.74,2.27,1.07,1.52.7,3,1.43,4.58,2.07l2.31,1,2.34.9a144.74,144.74,0,0,0,19.21,5.86A172.24,172.24,0,0,0,319.4,159a177.64,177.64,0,0,0,39.67-4.43A143.18,143.18,0,0,0,378,148.74c1.53-.63,3.07-1.21,4.55-1.92l2.24-1,2.19-1.11c.75-.34,1.48-.7,2.23-1s1.55-.57,2.34-.84,1.63-.45,2.48-.64c.42-.08.87-.16,1.31-.22l.68-.08a1.66,1.66,0,0,1,.6.05l.68.06a1.11,1.11,0,0,1,1,1.21A1.1,1.1,0,0,1,398.24,143.47Z"/></g><g id="ART-strokes"><path class="cls-4" d="M420.64,229.44a6.93,6.93,0,0,1-1.19-1.15,3.45,3.45,0,0,1-.2-.32l-.09-.17-.14-.32-.56-1.39c-.36-.93-.77-1.85-1.1-2.79l-1-2.81c-.66-1.86-1.15-3.75-1.73-5.63s-1-3.76-1.5-5.64c-1.9-7.53-3.47-15.05-5.17-22.51-3.39-14.87-7.2-29.7-14.15-43.09A79.94,79.94,0,0,0,381,125.26a65.5,65.5,0,0,0-17.88-13.36,82.65,82.65,0,0,0-21.31-7.19l-5.58-1-5.66-.58c-1.88-.25-3.78-.27-5.68-.34s-3.8-.17-5.7-.17l-5.71.05c-.95,0-1.91,0-2.85,0l-2.84.21c-1.89.17-3.79.22-5.67.48l-5.63.81A83.5,83.5,0,0,0,275,111a63.49,63.49,0,0,0-18.21,13.21,76.7,76.7,0,0,0-12.95,18.52,128.66,128.66,0,0,0-8.33,21.21c-2.19,7.31-3.93,14.76-5.56,22.24s-3.14,15-5,22.51-4.08,14.95-7.74,21.93l-.27-1.48A158.05,158.05,0,0,0,320,265.94a156.57,156.57,0,0,0,54.42-10.13,159.22,159.22,0,0,0,24.95-12c2-1.19,3.91-2.46,5.87-3.68s3.79-2.63,5.69-3.94l5.5-4.18a13,13,0,0,1,1.95-1.42C419.06,230.16,419.81,229.82,420.64,229.44Zm6.39,1.19c-1,1.1-2.09,2.23-3.24,3.31a44.53,44.53,0,0,1-3.55,3l-5.87,4.15-6,3.89c-2.06,1.21-4.1,2.47-6.18,3.64a163.18,163.18,0,0,1-26.08,11.76A167.31,167.31,0,0,1,320,269.67a164.5,164.5,0,0,1-104.59-38.73l-.73-.62.45-.85c3.52-6.62,5.75-13.95,7.59-21.35s3.37-14.92,5-22.42,3.43-15,5.66-22.39a131.67,131.67,0,0,1,8.42-21.6,79.4,79.4,0,0,1,13.28-19.09,66.18,66.18,0,0,1,18.82-13.74,86.1,86.1,0,0,1,22.15-7.14l5.76-.88c1.92-.28,3.86-.35,5.79-.54l2.9-.23c1-.08,1.93,0,2.9-.08l5.8-.1c1.93,0,3.87.09,5.8.12s3.87.07,5.8.3l5.8.53,5.76.92a85.88,85.88,0,0,1,22.27,7.13,69.1,69.1,0,0,1,19,13.77,84,84,0,0,1,13.76,19c7.38,13.85,11.72,28.91,15.52,43.8,1.91,7.46,3.67,14.92,5.72,22.23.5,1.82,1.07,3.62,1.61,5.43s1.16,3.58,1.84,5.3l1,2.61c.34.86.73,1.68,1.1,2.52l.56,1.26c.05.12.07.18.15.34l.23.47.45,1A30.42,30.42,0,0,1,427,230.63Z"/><path class="cls-4" d="M319.94,104.51l-5.65,0-2.83,0c-.94,0-1.87.11-2.81.16L303,105l-5.57.75A82.17,82.17,0,0,0,276.08,112a62.19,62.19,0,0,0-18.2,12.65A73.87,73.87,0,0,0,244.8,142.8c-7,13.41-10.88,28.35-14.29,43.3-1.71,7.5-3.3,15.05-5.22,22.56s-4.2,15-7.94,22L217,229a159.57,159.57,0,0,0,48.1,28,159.68,159.68,0,0,0,109.72,0A159.36,159.36,0,0,0,423,229l-.31,1.69c-3.72-6.92-6.07-14.34-8.12-21.74s-3.76-14.86-5.61-22.26c-3.69-14.76-7.83-29.48-14.89-42.73a78.21,78.21,0,0,0-13-18.07A64.88,64.88,0,0,0,363.25,113a81.47,81.47,0,0,0-21-6.8l-5.5-.85c-1.85-.21-3.71-.31-5.56-.47l-2.79-.22-2.8,0-5.59-.08V98l5.86.28,2.93.15,2.92.33c2,.24,3.9.41,5.83.71l5.8,1.07a86.49,86.49,0,0,1,22.25,7.86,69.86,69.86,0,0,1,18.73,14.37,86.07,86.07,0,0,1,13.31,19.29c7.12,13.91,11.06,29,14.53,43.84,1.74,7.46,3.34,14.92,5.23,22.28A97.46,97.46,0,0,0,425,229.38l.52,1-.83.7a164.39,164.39,0,0,1-49.06,28.09,164.33,164.33,0,0,1-111.3,0,164.39,164.39,0,0,1-49.06-28.09l-.83-.7.52-1c3.47-6.64,5.68-14,7.44-21.43s3.23-15,4.83-22.56,3.31-15.12,5.51-22.59a130.56,130.56,0,0,1,8.42-21.87,81.49,81.49,0,0,1,13.47-19.46,67.08,67.08,0,0,1,19.2-14.11,87.5,87.5,0,0,1,22.65-7.29l5.86-1,5.89-.56c1-.09,2-.21,2.95-.27l2.95-.08,5.91-.18Z"/><path class="cls-4" d="M421.08,225c-16.59,4.14-33,9.6-49.8,13.74-8.4,2.05-16.86,3.91-25.43,5.14a172.42,172.42,0,0,1-25.88,2,170.9,170.9,0,0,1-25.87-2c-8.57-1.22-17-3.1-25.42-5.14-16.78-4.14-33.22-9.6-49.81-13.74l1.88-6.22c16.31,5.95,32.25,12.24,48.73,17a225.64,225.64,0,0,0,25,5.79,162.7,162.7,0,0,0,25.5,2.23,161.64,161.64,0,0,0,25.51-2.24,221.68,221.68,0,0,0,25-5.78c16.48-4.72,32.42-11,48.73-16.94Z"/><path class="cls-4" d="M413,192.2c-15.26,3.74-30.4,8.73-45.84,12.51-7.72,1.86-15.5,3.57-23.39,4.7A159.32,159.32,0,0,1,320,211.26a158,158,0,0,1-23.8-1.87c-7.89-1.12-15.66-2.84-23.39-4.7-15.44-3.79-30.58-8.77-45.84-12.5l1.88-6.22c15,5.54,29.62,11.35,44.76,15.72a203.74,203.74,0,0,0,23,5.34,133.69,133.69,0,0,0,46.87,0,203.06,203.06,0,0,0,22.95-5.34c15.14-4.37,29.78-10.18,44.77-15.71Z"/><path class="cls-4" d="M397.44,147.72c-12.74,2.54-25.43,6.16-38.29,8.88-6.45,1.33-12.92,2.58-19.46,3.38A149.37,149.37,0,0,1,320,161.31,149.23,149.23,0,0,1,300.26,160c-6.54-.8-13-2.06-19.45-3.39-12.87-2.72-25.55-6.33-38.29-8.88l1.69-6.27c12.49,4.35,24.72,8.81,37.32,12.13a180.39,180.39,0,0,0,19.06,4,122,122,0,0,0,38.77,0,182.94,182.94,0,0,0,19.06-4c12.6-3.32,24.83-7.78,37.32-12.12Z"/></g></svg>