<svg xmlns="http://www.w3.org/2000/svg" viewBox="0 0 640 320"><defs><style>.cls-1{fill:red;}.cls-2{fill:maroon;}.cls-3{fill:#ff0;}.cls-4{fill:#0d0a09;}</style></defs><g id="ART-fills"><path class="cls-1" d="M407.77,208.06C386.1,185,354.82,171.87,320,171.87c-35.63,0-67.55,13.73-89.26,37.81C287.17,229.88,353.2,233.69,407.77,208.06Z"/><path class="cls-2" d="M230.74,209.68a108.67,108.67,0,0,0-14.52,20.38,162.68,162.68,0,0,0,28.56,19.19c56.88,6,121.67-2.75,164.93-39.07-.64-.72-1.29-1.42-1.94-2.12C353.2,233.69,287.17,229.88,230.74,209.68Z"/><path class="cls-3" d="M244.78,249.25a161.65,161.65,0,0,0,179-19.19,109.28,109.28,0,0,0-14.07-19.88C366.45,246.5,301.66,255.26,244.78,249.25Z"/></g><g id="ART-strokes"><path class="cls-4" d="M320,175.87l-7.59,0c-2.52.1-5.05.31-7.58.46s-5,.64-7.53,1c-1.27.13-2.5.44-3.74.67l-3.73.74A115.69,115.69,0,0,0,261.26,189a109,109,0,0,0-24.73,17.77A106.44,106.44,0,0,0,217.85,231l-.43-2.33a158.25,158.25,0,0,0,47.86,28.09,158.5,158.5,0,0,0,109.44,0,158.5,158.5,0,0,0,47.87-28.09l-.43,2.31a106.73,106.73,0,0,0-18.68-24.18A109,109,0,0,0,378.75,189a116.31,116.31,0,0,0-28.58-10.3l-3.73-.74c-1.24-.23-2.47-.54-3.74-.67-2.51-.31-5-.72-7.53-.95s-5.06-.35-7.58-.45l-7.59,0v-8l8,.46c2.66.25,5.32.61,8,.91s5.28.89,7.91,1.32c1.32.2,2.61.57,3.91.87l3.9.93a123.65,123.65,0,0,1,29.56,12,113.53,113.53,0,0,1,25.27,19.31,110.45,110.45,0,0,1,18.86,25.49l.72,1.35-1.16.95a164.82,164.82,0,0,1-49.24,28,165.13,165.13,0,0,1-111.44,0,164.87,164.87,0,0,1-49.25-28l-1.17-.95.73-1.37a113.11,113.11,0,0,1,44.13-44.8,123.28,123.28,0,0,1,29.57-12l3.9-.94c1.3-.29,2.59-.67,3.91-.86,2.63-.44,5.26-1,7.91-1.33s5.31-.66,8-.91l8-.45Z"/></g></svg>