<svg xmlns="http://www.w3.org/2000/svg" viewBox="0 0 640 320"><defs><style>.cls-1{fill:#ff0;}.cls-2{fill:maroon;}.cls-3{fill:red;}.cls-4{fill:#0d0a09;}</style></defs><g id="ART-fills"><path class="cls-1" d="M216.22,230.06a161.85,161.85,0,0,0,42.89,25.86c-7.5-18.36-14.71-38.43-16.19-57.82A108.75,108.75,0,0,0,216.22,230.06Z"/><path class="cls-2" d="M293.58,242c29,11,65-3,85-29A99.73,99.73,0,0,0,391,193.49c-19.77-13.93-44.32-21.62-70.95-21.62s-50.92,7.61-70.64,21.4C257.13,214.75,273.44,234.14,293.58,242Z"/><path class="cls-3" d="M391,193.49A99.73,99.73,0,0,1,378.58,213c-20,26-56,40-85,29-20.14-7.88-36.45-27.27-44.22-48.75-2.2,1.54-4.36,3.13-6.44,4.83,1.48,19.39,8.69,39.46,16.19,57.82a161.88,161.88,0,0,0,128.38-2.87,88,88,0,0,0,8.14-56.11Q393.34,195.16,391,193.49Z"/><path class="cls-1" d="M423.78,230.06a108.81,108.81,0,0,0-28.15-33.12,88,88,0,0,1-8.14,56.11A162.14,162.14,0,0,0,423.78,230.06Z"/><path class="cls-1" d="M390.41,169.87c1.64,16.89-4.56,35-16.47,46.81a138.27,138.27,0,0,0,36.27-22A94.18,94.18,0,0,0,390.41,169.87Z"/><path class="cls-1" d="M247.08,172.19a94.36,94.36,0,0,0-17.29,22.54,139.2,139.2,0,0,0,30.29,19.33C250.77,202.46,244.88,186.49,247.08,172.19Z"/><path class="cls-2" d="M335.58,201c22.47-1.82,40.5-14.72,53.9-32-18.31-16-42.68-24.92-69.48-24.92-25.93,0-49.6,8.37-67.7,23.38C270.38,192.34,305.47,203.76,335.58,201Z"/><path class="cls-3" d="M389.48,169.07c-13.4,17.23-31.43,30.13-53.9,32-30.11,2.74-65.2-8.68-83.28-33.49-1.79,1.49-3.54,3-5.22,4.66-2.2,14.3,3.69,30.27,13,41.87a142.47,142.47,0,0,0,113.86,2.62c11.91-11.83,18.11-29.92,16.47-46.81C390.11,169.59,389.79,169.34,389.48,169.07Z"/><path class="cls-1" d="M263.58,152a44.19,44.19,0,0,1,5.53-16.87,79.15,79.15,0,0,0-24.41,27,117.28,117.28,0,0,0,28.15,17.51C266.83,171.69,262.86,162.12,263.58,152Z"/><path class="cls-2" d="M328.58,164c16.77-4.79,29.24-16.05,38-30.11-.37-.74-.75-1.47-1.16-2.19A90.22,90.22,0,0,0,320,119.9c-18.7,0-36,5.23-50.08,14.72C283.05,154.45,302.19,170.83,328.58,164Z"/><path class="cls-3" d="M328.58,164c-26.39,6.81-45.53-9.57-58.66-29.4l-.81.53A44.19,44.19,0,0,0,263.58,152c-.72,10.1,3.25,19.67,9.27,27.61a117.46,117.46,0,0,0,89.76,1.88c12.08-13.46,11.88-32,4-47.6C357.82,148,345.35,159.23,328.58,164Z"/><path class="cls-3" d="M365.46,131.72c.41.72.79,1.45,1.16,2.19.23-.36.45-.73.67-1.09C366.69,132.45,366.08,132.07,365.46,131.72Z"/><path class="cls-1" d="M362.61,181.51a117.21,117.21,0,0,0,32.69-19.39,79.22,79.22,0,0,0-28-29.3c-.22.36-.44.73-.67,1.09C374.49,149.47,374.69,168.05,362.61,181.51Z"/><path class="cls-3" d="M301.58,146c28.05,9.56,53.25-2.82,72.24-22.64a61.9,61.9,0,0,0-11.65-11.67c-28,9.4-60,15.45-85.64,1a61.32,61.32,0,0,0-5.27,4.8C281.24,127.75,287.79,141.16,301.58,146Z"/><path class="cls-1" d="M301.58,146c-13.79-4.86-20.34-18.27-30.32-28.5A61.67,61.67,0,0,0,261.21,131a91.52,91.52,0,0,0,117.58,0,61.45,61.45,0,0,0-5-7.61C354.83,143.2,329.63,155.58,301.58,146Z"/><path class="cls-2" d="M362.17,111.71C350.65,102.9,336,98,320,98c-16.59,0-31.76,5.26-43.47,14.7C302.14,127.16,334.15,121.11,362.17,111.71Z"/></g><g id="ART-strokes"><path class="cls-4" d="M239.57,202.76a100.85,100.85,0,0,0-11.74,12,103.07,103.07,0,0,0-9.64,13.84l-.52-2.81a154.43,154.43,0,0,0,74.49,35.88,156,156,0,0,0,55.68,0,154.67,154.67,0,0,0,74.5-35.88l-.52,2.79a104.61,104.61,0,0,0-9.65-13.83,98.62,98.62,0,0,0-11.74-12l4.43-4.75a117,117,0,0,1,20.88,28.42l.87,1.68-1.4,1.12a169.51,169.51,0,0,1-49.53,27.59,167.7,167.7,0,0,1-111.37,0,169.64,169.64,0,0,1-49.53-27.59l-1.4-1.13.88-1.68a114.74,114.74,0,0,1,9.33-15A118.11,118.11,0,0,1,235.14,198Z"/><path class="cls-4" d="M253.92,170.13A85.86,85.86,0,0,0,241.6,181.7a90.77,90.77,0,0,0-9.93,13.8l-.5-2.68A134.24,134.24,0,0,0,295.83,224,141.89,141.89,0,0,0,320,226.2a135.94,135.94,0,0,0,47.54-8.62,133.92,133.92,0,0,0,41.29-24.75l-.5,2.67a90.91,90.91,0,0,0-9.92-13.8,86.47,86.47,0,0,0-12.33-11.57l4.18-5a104.42,104.42,0,0,1,12.2,13.22,99.62,99.62,0,0,1,9.63,15.06l.83,1.61-1.33,1.07a148.13,148.13,0,0,1-43.13,24,146.28,146.28,0,0,1-96.92,0,147.31,147.31,0,0,1-43.13-24L227.07,195l.84-1.61a99.62,99.62,0,0,1,9.63-15.06,103.69,103.69,0,0,1,12.2-13.22Z"/><path class="cls-4" d="M269.2,138.41a55.6,55.6,0,0,0-12.87,10.68,86.31,86.31,0,0,0-9.87,14l-.47-2.51,3.85,3.24,4,3.07c1.37,1,2.74,1.93,4.13,2.87s2.83,1.82,4.27,2.69,2.9,1.7,4.38,2.5,3,1.58,4.48,2.31,3.05,1.44,4.6,2.09,3.11,1.3,4.69,1.88a112.61,112.61,0,0,0,79.24,0,108.11,108.11,0,0,0,18.16-8.77A108.76,108.76,0,0,0,394,160.59l-.46,2.5c-1.47-2.49-3-4.93-4.68-7.24a70,70,0,0,0-5.4-6.58,61.28,61.28,0,0,0-13.13-10.54l3.65-5.38a72.61,72.61,0,0,1,18.58,20c1.61,2.56,3.11,5.15,4.48,7.81l.78,1.5-1.25,1a123.66,123.66,0,0,1-36.07,20,122.48,122.48,0,0,1-81,0c-1.63-.56-3.22-1.22-4.83-1.83s-3.17-1.36-4.76-2-3.12-1.48-4.68-2.21-3-1.62-4.58-2.42-3-1.74-4.47-2.62-2.91-1.87-4.36-2.8l-4.26-3-4.13-3.15-1.27-1,.8-1.54a100,100,0,0,1,9.5-15.28,64.9,64.9,0,0,1,6.1-6.85,70.32,70.32,0,0,1,7-6Z"/><path class="cls-4" d="M320,102l-4.2-.08c-1.41,0-2.81.11-4.21.16s-2.79.3-4.19.44-2.77.47-4.17.7a63.53,63.53,0,0,0-16,5.5,60.2,60.2,0,0,0-13.88,9.74,59.16,59.16,0,0,0-10.55,13.4l-.43-2.32a88.25,88.25,0,0,0,26.81,15.93,88.2,88.2,0,0,0,61.56,0,88.42,88.42,0,0,0,26.82-15.93l-.43,2.31a59.22,59.22,0,0,0-10.55-13.41,60.57,60.57,0,0,0-13.89-9.74,63.79,63.79,0,0,0-16-5.5c-1.39-.22-2.77-.53-4.17-.69s-2.79-.35-4.19-.44-2.8-.14-4.21-.16L320,102V94l4.64.36c1.54.17,3.07.41,4.6.61s3,.57,4.55.85,3,.75,4.5,1.12a72,72,0,0,1,17,7.14,65.56,65.56,0,0,1,14.43,11.27,64,64,0,0,1,10.72,14.72l.72,1.38-1.16.93a94.85,94.85,0,0,1-28.19,15.83,95.14,95.14,0,0,1-63.56,0A95.12,95.12,0,0,1,260,132.41l-1.17-.94.73-1.38a63.74,63.74,0,0,1,10.72-14.73,65.61,65.61,0,0,1,14.44-11.27,72,72,0,0,1,17-7.13c1.5-.37,3-.82,4.49-1.12s3-.62,4.56-.85,3.06-.44,4.6-.62L320,94Z"/></g></svg>