<svg id="ART-fills" xmlns="http://www.w3.org/2000/svg" viewBox="0 0 640 320"><defs><style>.cls-1{fill:#fcfcfc;}.cls-2{fill:#0d0a09;}.cls-3{fill:#ddd;}</style></defs><path class="cls-1" d="M527,9.49c54.09-15.3,35.84,32,49.47,80.21s-3,58.28-57.09,73.58-52,9.31-65.64-38.86S472.86,24.79,527,9.49Z"/><path class="cls-2" d="M525.86,5.64A83.34,83.34,0,0,1,541.2,2.78a34.18,34.18,0,0,1,4.06-.11l2.06.07c.69,0,1.4.16,2.1.24a24.89,24.89,0,0,1,8.33,2.58,21.24,21.24,0,0,1,6.84,5.81,30.65,30.65,0,0,1,4.06,7.47,71.58,71.58,0,0,1,3.42,15.28c.66,5,1,10,1.38,14.93s.75,9.82,1.25,14.68,1.14,9.69,2,14.46q.3,1.8.69,3.57c.26,1.18.46,2.38.77,3.55l1.78,7.17a125.06,125.06,0,0,1,2.77,14.88,59.17,59.17,0,0,1,0,15.39,37.64,37.64,0,0,1-2,7.61,30.54,30.54,0,0,1-3.8,6.93,40.51,40.51,0,0,1-11.5,10.29c-8.69,5.34-18.2,8.59-27.63,11.66s-19,5.67-28.58,8.19c-4.79,1.27-9.61,2.48-14.52,3.41-2.47.44-4.94.86-7.47,1.09a37.87,37.87,0,0,1-7.68,0,19.76,19.76,0,0,1-7.61-2.25,18.65,18.65,0,0,1-5.94-5.36,36,36,0,0,1-3.77-6.75c-1.06-2.32-1.89-4.69-2.73-7.06-1.59-4.74-3-9.49-4.43-14.23l-2.11-7.11c-.71-2.36-1.43-4.71-2.07-7.19a83.73,83.73,0,0,1-2.51-15,89.41,89.41,0,0,1,.26-15.26c2.18-20.33,11.56-39.64,25.43-54.65a110.9,110.9,0,0,1,23.75-19.3,120.11,120.11,0,0,1,13.64-7A129,129,0,0,1,525.86,5.64Zm2.18,7.7a121.25,121.25,0,0,0-13.5,4.73A110.94,110.94,0,0,0,490,32.54a107,107,0,0,0-10.64,9.55A113.15,113.15,0,0,0,470.1,53a95.15,95.15,0,0,0-7.5,12.19,83.92,83.92,0,0,0-5.49,13.22,81.46,81.46,0,0,0-3.23,14,83.86,83.86,0,0,0-.73,14.34,80,80,0,0,0,1.9,14.27c.52,2.32,1.15,4.72,1.79,7.12l1.87,7.17c1.25,4.78,2.49,9.55,4,14.2.76,2.31,1.53,4.63,2.47,6.83a33.08,33.08,0,0,0,3.32,6.23,15.39,15.39,0,0,0,4.87,4.61,16.23,16.23,0,0,0,6.49,2,34.49,34.49,0,0,0,7.11,0c2.4-.19,4.81-.58,7.21-1,4.81-.89,9.59-2,14.36-3.28,9.51-2.57,19-5.3,28.36-8.35,4.68-1.54,9.29-3.24,13.78-5.14a84.54,84.54,0,0,0,12.9-6.67c1-.67,2-1.34,2.92-2.06s1.86-1.48,2.7-2.31a28.87,28.87,0,0,0,4.56-5.27,25.85,25.85,0,0,0,3.1-6.14,32.85,32.85,0,0,0,1.55-6.76A55.34,55.34,0,0,0,577.9,108a119.12,119.12,0,0,0-3.13-14.16l-2-7.16c-.35-1.21-.61-2.44-.92-3.66s-.59-2.45-.84-3.69c-1.06-4.92-1.89-9.88-2.56-14.83-1.37-9.89-2.14-19.83-3.53-29.37a65,65,0,0,0-3.27-13.55,23.12,23.12,0,0,0-3.09-5.46,10.05,10.05,0,0,0-1-1.08l-.5-.53c-.17-.17-.38-.3-.56-.45-.38-.28-.72-.63-1.13-.88l-1.23-.72c-3.42-1.77-7.85-2.14-12.34-1.79A75.76,75.76,0,0,0,528,13.34Z"/><path class="cls-3" d="M455.35,148.58c-2.52-5.25,30.43-3.93,43.09-10s44.7-4.45,47.21.8-24,16.83-38.12,18.23C493.57,159,457.86,153.83,455.35,148.58Z"/><path class="cls-3" d="M525.73,88.38c4.32,3.91-26.67,15.17-36.09,25.57s-39.68,21-44,17.14,15.84-24.66,28.37-31.3S521.42,84.47,525.73,88.38Z"/><path class="cls-1" d="M496,272.28c41.07,11.62,27.21-24.33,37.56-60.9s-2.28-44.25-43.35-55.87-39.49-7.07-49.84,29.5S455,260.66,496,272.28Z"/><path class="cls-2" d="M497.13,268.43a56.12,56.12,0,0,0,10.24,2c3.32.27,6.51,0,8.86-1.24.28-.17.56-.34.85-.5s.51-.41.78-.6l.39-.3.34-.37a7.05,7.05,0,0,0,.69-.75,17.08,17.08,0,0,0,2.23-3.91A48.28,48.28,0,0,0,524,252.69c1.07-7.18,1.71-14.73,2.79-22.27.53-3.77,1.18-7.55,2-11.3.39-1.88.88-3.75,1.38-5.61l1.57-5.44a91.08,91.08,0,0,0,2.43-10.66,41.23,41.23,0,0,0,.42-10.61,21.29,21.29,0,0,0-3.38-9.6,22.16,22.16,0,0,0-3.38-3.95,29.44,29.44,0,0,0-4.2-3.29,63.34,63.34,0,0,0-9.71-5.06c-3.4-1.45-6.89-2.76-10.42-3.93-7.09-2.31-14.31-4.39-21.52-6.35-3.61-1-7.24-1.81-10.88-2.48-1.81-.31-3.63-.6-5.44-.74a25.76,25.76,0,0,0-5.34,0,11.82,11.82,0,0,0-4.79,1.46,11.47,11.47,0,0,0-3.57,3.41,38,38,0,0,0-4.31,9.83c-1.12,3.52-2,7.14-3,10.77l-1.4,5.46c-.47,1.82-.94,3.65-1.32,5.4a59,59,0,0,0-1.37,10.74,63.51,63.51,0,0,0,.61,10.77c2.09,14.28,9.26,27.51,19.31,37.68a79.87,79.87,0,0,0,8,7.15,88.71,88.71,0,0,0,8.89,6,83.45,83.45,0,0,0,9.59,4.82A92.14,92.14,0,0,0,497.13,268.43Zm-2.18,7.7a98.61,98.61,0,0,1-11.07-4,91.56,91.56,0,0,1-10.47-5.39,84.34,84.34,0,0,1-18.18-14.86,74.11,74.11,0,0,1-19.31-42,68.24,68.24,0,0,1-.14-11.7,63.78,63.78,0,0,1,2-11.49c.5-1.9,1.05-3.68,1.6-5.47l1.63-5.38c1.1-3.6,2.2-7.21,3.42-10.82.65-1.8,1.29-3.6,2.1-5.38a27.63,27.63,0,0,1,2.93-5.19,14.26,14.26,0,0,1,4.63-4.16,15.57,15.57,0,0,1,5.92-1.74,29,29,0,0,1,5.9,0c1.93.18,3.82.5,5.69.84,3.75.71,7.41,1.64,11.06,2.6,7.29,1.91,14.52,3.92,21.72,6.21s14.42,4.76,21.1,8.83a31.32,31.32,0,0,1,8.89,7.9,23.68,23.68,0,0,1,3,5.35,28.25,28.25,0,0,1,1.58,5.88A45.51,45.51,0,0,1,539,198a95.57,95.57,0,0,1-2.06,11.39l-1.33,5.44c-.39,1.78-.77,3.57-1.07,5.38-.63,3.61-1.1,7.25-1.45,10.93s-.62,7.39-.89,11.14-.5,7.53-1,11.38a54.87,54.87,0,0,1-2.61,11.81,24.05,24.05,0,0,1-3.2,5.91,17,17,0,0,1-5.48,4.68,19.89,19.89,0,0,1-6.65,2,15.79,15.79,0,0,1-1.65.2l-1.62.06a30,30,0,0,1-3.16-.09A64.4,64.4,0,0,1,495,276.13Z"/><path class="cls-2" d="M530.19,58.16a149.87,149.87,0,0,1-33,31.49c-12.59,8.64-26.34,15.39-40,22.14a1,1,0,0,1-.85-1.74c23.84-11.32,47.25-24.73,65.56-44,2.34-2.36,5.39-5.89,7.57-8.45.36-.46,1.14.08.74.59Z"/><path class="cls-2" d="M537.07,95c-30.38,2.58-58.61,15.43-84.62,30.7a1,1,0,1,1-.95-1.68c13.27-7.44,26.61-15,40.85-20.49a155.91,155.91,0,0,1,33.26-8.43c3.33-.48,8-.81,11.39-1a.47.47,0,0,1,.07.94Z"/><path class="cls-3" d="M441,193.45c2.68-5.17,21.48,21.91,33.94,28.36s30.5,33,27.83,38.15-27.9-9-37.52-19.42S438.36,198.62,441,193.45Z"/><path class="cls-3" d="M486.09,208.56c-2.68,5.17-21.48-21.91-33.94-28.36s-30.51-33-27.83-38.15,27.9,9,37.52,19.42S488.77,203.39,486.09,208.56Z"/><path class="cls-3" d="M501.86,187.46c0,5.83-29.15-9.61-43.17-9.62s-42.24-15.31-42.23-21.13,28.91-4.8,42.25,0C471.89,161.53,501.86,181.64,501.86,187.46Z"/><path class="cls-2" d="M501.75,184.41a105.46,105.46,0,0,1-30.74-12c-9.46-5.69-18-12.71-26.57-19.61a1,1,0,0,1,1.22-1.5c12.51,10.53,25.91,20.14,40.92,26.76A117.28,117.28,0,0,0,502,183.49a.47.47,0,0,1-.22.92Z"/><path class="cls-2" d="M479.58,199.94c-11-19-27.81-33.66-45.66-46.1a1,1,0,0,1,1.13-1.56c13.35,9.65,26.93,19.62,36.64,33.16a100.85,100.85,0,0,1,8.72,14.05.47.47,0,0,1-.83.45Z"/><path class="cls-1" d="M113.05,9.49C59-5.81,77.21,41.53,63.58,89.7s3,58.28,57.09,73.58,52,9.31,65.64-38.86S167.14,24.79,113.05,9.49Z"/><path class="cls-2" d="M112,13.34a75.76,75.76,0,0,0-13.74-2.68c-4.49-.35-8.92,0-12.34,1.79l-1.23.72c-.41.25-.75.6-1.13.88-.18.15-.39.28-.56.45l-.5.53a11.32,11.32,0,0,0-1,1.08,23.45,23.45,0,0,0-3.08,5.46,65,65,0,0,0-3.27,13.55C73.73,44.66,73,54.6,71.59,64.49c-.67,5-1.5,9.91-2.56,14.83-.25,1.24-.52,2.46-.84,3.69s-.57,2.45-.92,3.66l-2,7.16A119.12,119.12,0,0,0,62.1,108a55.34,55.34,0,0,0-.49,14.17,32.85,32.85,0,0,0,1.55,6.76,25.85,25.85,0,0,0,3.1,6.14,28.87,28.87,0,0,0,4.56,5.27c.84.83,1.78,1.55,2.7,2.31s1.93,1.39,2.92,2.06a84.54,84.54,0,0,0,12.9,6.67c4.49,1.9,9.1,3.6,13.78,5.14,9.35,3.05,18.85,5.78,28.36,8.35,4.76,1.25,9.55,2.39,14.36,3.28,2.4.41,4.81.8,7.21,1a34.49,34.49,0,0,0,7.11,0,16.23,16.23,0,0,0,6.49-2,15.39,15.39,0,0,0,4.87-4.61,33.08,33.08,0,0,0,3.32-6.23c.94-2.2,1.71-4.52,2.47-6.83,1.49-4.65,2.73-9.42,4-14.2l1.87-7.17c.63-2.4,1.27-4.8,1.79-7.12a80,80,0,0,0,1.9-14.27,84.89,84.89,0,0,0-.73-14.34,81.46,81.46,0,0,0-3.23-14,83.92,83.92,0,0,0-5.49-13.22A95.15,95.15,0,0,0,169.9,53a113.15,113.15,0,0,0-9.21-10.94,107,107,0,0,0-10.64-9.55,110.94,110.94,0,0,0-24.59-14.47A121.25,121.25,0,0,0,112,13.34Zm2.18-7.7a129,129,0,0,1,14.43,5.17,120.11,120.11,0,0,1,13.64,7A110.9,110.9,0,0,1,166,37.11c13.87,15,23.25,34.32,25.43,54.65a89.41,89.41,0,0,1,.26,15.26,83.73,83.73,0,0,1-2.51,15c-.64,2.48-1.36,4.83-2.07,7.19L185,136.33c-1.41,4.74-2.84,9.49-4.43,14.23-.84,2.37-1.67,4.74-2.73,7.06a36,36,0,0,1-3.77,6.75,18.65,18.65,0,0,1-5.94,5.36,19.76,19.76,0,0,1-7.61,2.25,37.87,37.87,0,0,1-7.68,0c-2.53-.23-5-.65-7.47-1.09-4.91-.93-9.73-2.14-14.52-3.41-9.59-2.52-19.11-5.18-28.58-8.19s-18.94-6.32-27.63-11.66a40.51,40.51,0,0,1-11.5-10.29,30.54,30.54,0,0,1-3.8-6.93,37.64,37.64,0,0,1-2-7.61,59.17,59.17,0,0,1,0-15.39,123.09,123.09,0,0,1,2.77-14.88l1.78-7.17c.31-1.17.51-2.37.77-3.55s.49-2.37.69-3.57c.86-4.77,1.51-9.6,2-14.46s.88-9.75,1.25-14.68.72-9.9,1.38-14.93a71.58,71.58,0,0,1,3.42-15.28,30.65,30.65,0,0,1,4.06-7.47,21.24,21.24,0,0,1,6.84-5.81A24.89,24.89,0,0,1,90.58,3c.7-.08,1.41-.23,2.1-.24l2.06-.07a34.18,34.18,0,0,1,4.06.11A83.34,83.34,0,0,1,114.14,5.64Z"/><path class="cls-3" d="M184.65,148.58c2.52-5.25-30.43-3.93-43.09-10s-44.7-4.45-47.21.8,24,16.83,38.12,18.23C146.43,159,182.14,153.83,184.65,148.58Z"/><path class="cls-3" d="M114.27,88.38C110,92.29,140.94,103.55,150.36,114s39.68,21,44,17.14S178.52,106.43,166,99.79,118.58,84.47,114.27,88.38Z"/><path class="cls-1" d="M144,272.28c-41.07,11.62-27.21-24.33-37.56-60.9s2.28-44.25,43.35-55.87,39.49-7.07,49.84,29.5S185,260.66,144,272.28Z"/><path class="cls-2" d="M145.05,276.13a64.4,64.4,0,0,1-11.84,2.19,30.12,30.12,0,0,1-3.17.09l-1.61-.06a15.79,15.79,0,0,1-1.65-.2,19.89,19.89,0,0,1-6.65-2,17,17,0,0,1-5.48-4.68,24.05,24.05,0,0,1-3.2-5.91,54.87,54.87,0,0,1-2.61-11.81c-.5-3.85-.73-7.64-1-11.38s-.53-7.46-.89-11.14-.82-7.32-1.45-10.93c-.3-1.81-.68-3.6-1.07-5.38l-1.33-5.44A95.57,95.57,0,0,1,101,198a45.51,45.51,0,0,1,.07-11.83,28.25,28.25,0,0,1,1.58-5.88,23.68,23.68,0,0,1,3-5.35,31.32,31.32,0,0,1,8.89-7.9c6.68-4.07,13.92-6.51,21.1-8.83s14.43-4.3,21.72-6.21c3.65-1,7.31-1.89,11-2.6,1.88-.34,3.77-.66,5.7-.84a29,29,0,0,1,5.9,0,15.57,15.57,0,0,1,5.92,1.74,14.26,14.26,0,0,1,4.63,4.16,27.63,27.63,0,0,1,2.93,5.19c.81,1.78,1.45,3.58,2.1,5.38,1.22,3.61,2.32,7.22,3.42,10.82l1.63,5.38c.55,1.79,1.1,3.57,1.6,5.47a63.78,63.78,0,0,1,2,11.49,68.24,68.24,0,0,1-.14,11.7,74.11,74.11,0,0,1-19.31,42,84.34,84.34,0,0,1-18.18,14.86,92.4,92.4,0,0,1-10.47,5.39A98.61,98.61,0,0,1,145.05,276.13Zm-2.18-7.7A92.87,92.87,0,0,0,153,264.89a83.45,83.45,0,0,0,9.59-4.82,88.71,88.71,0,0,0,8.89-6,79.87,79.87,0,0,0,8-7.15c10.05-10.17,17.22-23.4,19.31-37.68a63.51,63.51,0,0,0,.61-10.77,59,59,0,0,0-1.37-10.74c-.38-1.75-.85-3.58-1.33-5.4l-1.39-5.46c-.93-3.63-1.84-7.25-3-10.77a38.31,38.31,0,0,0-4.31-9.83,11.47,11.47,0,0,0-3.57-3.41,11.82,11.82,0,0,0-4.79-1.46,25.76,25.76,0,0,0-5.34,0c-1.81.14-3.63.43-5.44.74-3.64.67-7.27,1.53-10.88,2.48-7.21,2-14.43,4-21.52,6.35q-5.31,1.75-10.42,3.93a63.34,63.34,0,0,0-9.71,5.06,29.44,29.44,0,0,0-4.2,3.29,22.16,22.16,0,0,0-3.38,3.95,21.29,21.29,0,0,0-3.38,9.6,41.23,41.23,0,0,0,.42,10.61,89.1,89.1,0,0,0,2.43,10.66l1.57,5.44c.5,1.86,1,3.73,1.38,5.61.83,3.75,1.48,7.53,2,11.3,1.08,7.54,1.72,15.09,2.79,22.27a48.28,48.28,0,0,0,2.46,10.08,17.08,17.08,0,0,0,2.23,3.91,7.05,7.05,0,0,0,.69.75l.34.37.39.3c.27.19.5.43.78.6s.57.33.85.5c2.35,1.22,5.54,1.51,8.86,1.24A56.12,56.12,0,0,0,142.87,268.43Z"/><path class="cls-2" d="M110.55,57.57l3.71,4.3c1.22,1.44,2.58,2.77,3.86,4.15s2.65,2.71,4,4l2,2,2.11,1.9a160.94,160.94,0,0,0,17.86,13.9,215.31,215.31,0,0,0,19.28,11.92c6.65,3.63,13.45,7,20.29,10.3a1,1,0,1,1-.84,1.74h0c-6.81-3.38-13.66-6.71-20.35-10.35a212.48,212.48,0,0,1-19.63-11.79,161.09,161.09,0,0,1-17.74-14.49l-2.08-2-2-2c-1.33-1.37-2.69-2.71-3.93-4.17s-2.55-2.84-3.73-4.34l-3.56-4.47a.49.49,0,0,1,.07-.67.48.48,0,0,1,.65.06Z"/><path class="cls-2" d="M103,94l5.7.41c1.91.13,3.79.43,5.69.63s3.77.57,5.66.88l2.82.5,2.8.61a161.76,161.76,0,0,1,22,6.44A213.77,213.77,0,0,1,168.46,113c6.79,3.47,13.41,7.24,20,10.95a1,1,0,0,1-.94,1.69h0c-6.6-3.77-13.21-7.48-20-10.92a213.67,213.67,0,0,0-20.73-9.17,160,160,0,0,0-21.56-6.89L122.54,98l-2.78-.56c-1.85-.36-3.7-.76-5.57-1s-3.73-.65-5.61-.84L102.93,95h0a.48.48,0,0,1-.42-.52A.49.49,0,0,1,103,94Z"/><path class="cls-3" d="M199,193.45c-2.68-5.17-21.48,21.91-33.94,28.36s-30.5,33-27.83,38.15,27.9-9,37.52-19.42S201.64,198.62,199,193.45Z"/><path class="cls-3" d="M153.91,208.56c2.68,5.17,21.48-21.91,33.94-28.36s30.51-33,27.83-38.15-27.9,9-37.52,19.42S151.23,203.39,153.91,208.56Z"/><path class="cls-3" d="M138.14,187.46c0,5.83,29.14-9.61,43.17-9.62s42.24-15.31,42.23-21.13-28.91-4.8-42.25,0C168.11,161.53,138.14,181.64,138.14,187.46Z"/><path class="cls-2" d="M138,183.49A117.28,117.28,0,0,0,153.42,178a118.68,118.68,0,0,0,14.44-7.56,149.21,149.21,0,0,0,13.63-9c4.37-3.27,8.63-6.7,12.85-10.2a1,1,0,0,1,1.24,1.49h0c-4.26,3.43-8.51,6.93-12.92,10.24A156.15,156.15,0,0,1,169,172.36a114,114,0,0,1-14.91,7.25,102,102,0,0,1-15.83,4.8.47.47,0,0,1-.22-.92Z"/><path class="cls-2" d="M159.59,199.49a100.85,100.85,0,0,1,8.72-14.05,113.49,113.49,0,0,1,10.84-12.54,156.76,156.76,0,0,1,12.58-10.77c4.32-3.41,8.8-6.61,13.22-9.85a1,1,0,1,1,1.14,1.55h0c-4.47,3.18-8.88,6.41-13.16,9.8a149.91,149.91,0,0,0-12.22,10.84,120.48,120.48,0,0,0-11,12,116.2,116.2,0,0,0-9.26,13.45.48.48,0,0,1-.65.18A.48.48,0,0,1,159.59,199.49Z"/></svg>