<svg xmlns="http://www.w3.org/2000/svg" viewBox="0 0 640 320"><defs><style>.cls-1{fill:red;}.cls-2{fill:#ff0;}.cls-3{fill:#0d0a09;}</style></defs><g id="ART-fills"><path class="cls-1" d="M469.35,182a94.21,94.21,0,0,0,10.84-22.17,20.3,20.3,0,0,0-4.29,1.7,20.24,20.24,0,0,0-39.19-1.36,20.23,20.23,0,0,0-30.79,24.38,20.24,20.24,0,0,0-.51,39.86,20.17,20.17,0,0,0,2,24.63c5.25,1.29,10,.51,12.94-4,10-14,25-24,37-35C464.35,205,463.35,191,469.35,182Z"/><path class="cls-1" d="M485.45,259a20.23,20.23,0,0,0,19.35-14.3A26.38,26.38,0,0,1,487.35,248c-11-2-17-11-21-20a41.15,41.15,0,0,0,8.38,27.82A20.11,20.11,0,0,0,485.45,259Z"/><path class="cls-1" d="M441.35,232A63.49,63.49,0,0,0,433,252.91a20.22,20.22,0,0,0,31.48,13.74c-3.06-.48-6.11-1-9.13-1.61C442.35,262,437.35,245,441.35,232Z"/><path class="cls-2" d="M504.15,190.08c-9.77-.12-19.39,4.54-26.8,12-1-8,4-15,10-18,5.3-1.93,12-3.62,18.3-3.52,0-.37,0-.74,0-1.11a20.23,20.23,0,0,0-25.5-19.54A94.21,94.21,0,0,1,469.35,182c-6,9-5,23-12,28-12,11-27,21-37,35-2.9,4.55-7.69,5.33-12.94,4A20.19,20.19,0,0,0,433,252.72a1.08,1.08,0,0,0,0,.19A63.49,63.49,0,0,1,441.35,232c-4,13,1,30,14,33,3,.56,6.07,1.13,9.13,1.61a20.26,20.26,0,0,0,8.27-12.19,20.83,20.83,0,0,0,2,1.4A41.15,41.15,0,0,1,466.35,228c4,9,10,18,21,20a26.38,26.38,0,0,0,17.45-3.39A20.2,20.2,0,0,0,503.73,230c-8.24-9.8-20.43-15.14-33.38-16,15.46-5.41,32.1-.66,41.64,11.47a20.21,20.21,0,0,0-7.84-35.43Z"/><path class="cls-1" d="M505.65,180.52c-6.3-.1-13,1.59-18.3,3.52-6,3-11,10-10,18,7.41-7.42,17-12.08,26.8-12-.44-.1-.87-.21-1.32-.29A20.06,20.06,0,0,0,505.65,180.52Z"/><path class="cls-1" d="M503.73,230l-.24-.5a20.23,20.23,0,0,0,8.5-4c-9.54-12.13-26.18-16.88-41.64-11.47C483.3,214.9,495.49,220.24,503.73,230Z"/><path class="cls-3" d="M480.74,214.89c1.51,0,3,.15,4.58.32a27.42,27.42,0,0,1,4.64,1,22,22,0,0,1,4.45,2c.71.41,1.36.92,2,1.38s1.25,1.07,1.88,1.6,1.1,1.21,1.65,1.81,1,1.3,1.44,2a19.82,19.82,0,0,1,1.22,2.08l.58,1,.45,1.1a30.08,30.08,0,0,1,2.26,9.05.67.67,0,0,1-1.26.37l0,0c-1.32-2.72-2.43-5.45-3.94-7.9a29.72,29.72,0,0,0-5.11-6.63,23.53,23.53,0,0,0-6.88-4.52,41.77,41.77,0,0,0-4-1.53c-1.4-.47-2.84-.89-4.29-1.43a.87.87,0,0,1,.31-1.68Z"/><path class="cls-3" d="M476.07,200.68c.84-1.25,1.78-2.46,2.77-3.66a26.71,26.71,0,0,1,3.4-3.32,22.39,22.39,0,0,1,4.09-2.65c.73-.37,1.51-.63,2.27-1s1.58-.47,2.36-.7,1.62-.26,2.43-.39,1.61-.11,2.42-.14a19.35,19.35,0,0,1,2.41.12l1.19.09,1.17.23a29.87,29.87,0,0,1,8.82,3.05.67.67,0,0,1,.29.9.67.67,0,0,1-.67.36h0c-3-.38-5.88-.94-8.76-1a30,30,0,0,0-8.35.65,23.9,23.9,0,0,0-7.55,3.29,42.77,42.77,0,0,0-3.48,2.54c-1.16.91-2.29,1.89-3.54,2.81a.87.87,0,0,1-1.23-1.19Z"/><path class="cls-3" d="M438.22,265c-.91-1.21-1.75-2.48-2.56-3.81a26.51,26.51,0,0,1-2-4.3,21.9,21.9,0,0,1-1.18-4.72c-.11-.81-.11-1.64-.16-2.46s.06-1.64.1-2.46.28-1.61.42-2.42.42-1.57.65-2.34a21.75,21.75,0,0,1,.89-2.24l.48-1.1.59-1a30,30,0,0,1,5.75-7.35.66.66,0,0,1,1.06.77l0,0c-1.33,2.72-2.8,5.26-3.8,8a29.3,29.3,0,0,0-2.09,8.11,23.57,23.57,0,0,0,.66,8.21c.32,1.37.79,2.73,1.26,4.11s1,2.78,1.52,4.26a.88.88,0,0,1-.57,1.09.86.86,0,0,1-.95-.31Z"/></g><g id="ART-strokes"><path class="cls-3" d="M516.34,209.72a17.05,17.05,0,0,0-14.05-16.81l-4.56-.8,2.38-3.94A17.21,17.21,0,0,0,498,167.49a17.58,17.58,0,0,0-20.83-3.64l-3.09,1.6-.67-3.33a17.83,17.83,0,0,0-16.61-14.23,18.11,18.11,0,0,0-11.29,3.24,18.42,18.42,0,0,0-7,9.59l-.79,2.56-2-1.64a18.46,18.46,0,0,0-11.37-4A18.61,18.61,0,0,0,406,171.78a19.56,19.56,0,0,0-.53,6.24,19.26,19.26,0,0,0,1.56,6.09l.63,1.42-1.51.23a19.06,19.06,0,0,0-.49,37.55l1.71.31-.95,1.46a18.69,18.69,0,0,0-2.92,12.26,19.11,19.11,0,0,0,5.4,11.31,18.65,18.65,0,0,0,23.2,2.61l2.21-1.42.4,2.65a18.5,18.5,0,0,0,6,11A18.13,18.13,0,0,0,452.22,268a17.9,17.9,0,0,0,18-14.14l.82-4,3.27,2.56a17.54,17.54,0,0,0,11.12,3.72,17.85,17.85,0,0,0,10.87-4,17.53,17.53,0,0,0,5.91-9.86,18.77,18.77,0,0,0,.31-2.9,14.17,14.17,0,0,0-.14-2.91,17.42,17.42,0,0,0-1.75-5.5l-1.89-3.69,4.07-.85a17.08,17.08,0,0,0,13.49-16.72Zm6.5,0a23.48,23.48,0,0,1-18.71,22.92l2.18-4.54a22.86,22.86,0,0,1,2.31,7.57,20.18,20.18,0,0,1,.12,4,23,23,0,0,1-8.69,17.08,22.93,22.93,0,0,1-28.91-.26l4.1-1.43a22.77,22.77,0,0,1-8.53,12.9A22.41,22.41,0,0,1,452,272.31,22.16,22.16,0,0,1,431.26,253l2.61,1.23a21.73,21.73,0,0,1-14.18,2.87,21,21,0,0,1-6.95-2.2,22.22,22.22,0,0,1-5.83-4.31,21.55,21.55,0,0,1-2.47-26.73l.75,1.76a21.32,21.32,0,0,1-12.52-7.51,21.53,21.53,0,0,1-4.8-13.78A21.23,21.23,0,0,1,393,190.63a21.48,21.48,0,0,1,12.74-7.2l-.88,1.65a21.22,21.22,0,0,1-1.88-6.83,22.19,22.19,0,0,1,.46-7.08,21.48,21.48,0,0,1,7.48-11.9,21.83,21.83,0,0,1,26.9-.49l-2.84.92a22.38,22.38,0,0,1,35.64-11.18,22.74,22.74,0,0,1,7.82,12.5l-3.76-1.73A23.14,23.14,0,0,1,496.2,159a23.71,23.71,0,0,1,6,4.46,23.24,23.24,0,0,1,3.32,28l-2.17-4.75a23.47,23.47,0,0,1,19.47,23.05Z"/></g></svg>