<svg id="ART-fills" xmlns="http://www.w3.org/2000/svg" viewBox="0 0 640 320"><defs><style>.cls-1{fill:#00007f;}.cls-2{fill:#0d0a09;}</style></defs><path class="cls-1" d="M338.48,212.59c0,4.85-6.47,8.78-14.46,8.78s-14.45-3.93-14.45-8.78,6.47-14,14.45-14S338.48,207.74,338.48,212.59Z"/><path class="cls-2" d="M310.45,194.25a15.54,15.54,0,0,1,7.14-4,13,13,0,0,1,8.55.89,12.45,12.45,0,0,1,1.92,1.08,12.67,12.67,0,0,1,1.75,1.31,14,14,0,0,1,3.06,3.33,11.91,11.91,0,0,1,1.74,4.5,12.24,12.24,0,0,1-.2,4.9,16.39,16.39,0,0,1-4.9,8.19,13.54,13.54,0,0,1-4.25,2.59,10.55,10.55,0,0,1-5.37.59,9.91,9.91,0,0,1-2.77-.87,12,12,0,0,1-1.22-.76c-.33-.26-.65-.52-1-.8a9,9,0,0,1-2.88-4.56,10.35,10.35,0,0,1-.15-1.44,6.28,6.28,0,0,1,.15-1.38,7.29,7.29,0,0,1,1-2.33,8.53,8.53,0,0,1,3.31-3,.33.33,0,0,1,.45.15.31.31,0,0,1,0,.28v0a11.42,11.42,0,0,0-1,3.58,3.49,3.49,0,0,0,.6,2.55,5.86,5.86,0,0,0,2,1.48,6.59,6.59,0,0,1,.65.33c.2.07.35.1.52.15a3.57,3.57,0,0,0,1,.09,10.29,10.29,0,0,0,4.94-1.77,9.47,9.47,0,0,0,3.9-4.58,7.17,7.17,0,0,0-.3-5.8,9.59,9.59,0,0,0-1.91-2.73,9.14,9.14,0,0,0-1.25-1.24,8.73,8.73,0,0,0-1.38-1.06,10.35,10.35,0,0,0-6.67-1.77,15.51,15.51,0,0,0-7,2.51h0a.32.32,0,0,1-.45-.09A.32.32,0,0,1,310.45,194.25Z"/></svg>