<svg xmlns="http://www.w3.org/2000/svg" viewBox="0 0 640 320"><defs><style>.cls-1{fill:#534741;}.cls-2{fill:#76279b;}.cls-3{fill:#b65edb;}.cls-4,.cls-7,.cls-8,.cls-9{fill:none;stroke-linecap:round;stroke-miterlimit:10;}.cls-4{stroke:#ff8df2;stroke-width:3.99px;}.cls-5{fill:#ff8df2;}.cls-6{fill:#0d0a09;}.cls-7,.cls-8,.cls-9{stroke:#534741;}.cls-7{stroke-width:2px;}.cls-8{stroke-width:1.94px;}.cls-9{stroke-width:1.67px;}</style></defs><g id="ART-fills"><path class="cls-1" d="M455.41,79.54a72.49,72.49,0,0,1-5.67,24.07,99.39,99.39,0,0,1-12.24,21,154.41,154.41,0,0,1-16,18l-4.38,4.1-4.49,4L408,154.45l-4.66,3.75c-6.27,4.94-12.83,9.47-19.31,14.1s-13,9.21-19.71,13.61-13.49,8.59-20.51,12.39c-1.76.94-3.51,1.89-5.29,2.79-.85.46-1.83.93-2.8,1.39s-2,.83-3,1.17a35.24,35.24,0,0,1-24.89-.74c-1-.38-1.91-.85-2.84-1.31s-1.85-1-2.68-1.5l-5.15-3c-6.83-4.1-13.66-8.21-20.44-12.39s-13.58-8.3-20.21-12.71-13.1-9.06-19.42-13.91A225.86,225.86,0,0,1,219,142.45a148.37,148.37,0,0,1-16-17.89,98.66,98.66,0,0,1-12.28-20.94A72.3,72.3,0,0,1,185,79.54h6.5A60.32,60.32,0,0,0,194.82,102a87.32,87.32,0,0,0,10.54,20.79c8.84,13,20.3,24.23,32.56,34.24,6.13,5,12.58,9.68,19.13,14.17s13.26,8.76,20.18,12.65,14,7.53,21.19,10.91l5.39,2.54c.91.44,1.78.8,2.65,1.17s1.77.67,2.67.93a33.86,33.86,0,0,0,5.49,1.2,38.62,38.62,0,0,0,5.58.26,36.21,36.21,0,0,0,5.5-.65c.9-.21,1.8-.4,2.68-.68l1.32-.39,1.3-.47c.86-.31,1.69-.7,2.53-1.08s1.63-.79,2.53-1.29l5.25-2.79c7-3.69,14.07-7.25,21.11-10.91s14-7.45,20.69-11.75a212.84,212.84,0,0,0,19.23-14l4.59-3.78,4.48-3.9,4.34-4.05L420,141a132.45,132.45,0,0,0,15-18.19A86.9,86.9,0,0,0,445.58,102a60,60,0,0,0,3.33-22.5Z"/><path class="cls-2" d="M308.51,220.42A43,43,0,0,0,321,222.16a45.66,45.66,0,0,0,12.53-1.83,35.38,35.38,0,0,0,12.52-6.51,12.56,12.56,0,0,1,8.34-2.84c-3.51-2.2-7.43-3.37-11.63-2.32-10,2-20,9-29,6-8.17-3.27-17-6.53-25.43-3.79a12.68,12.68,0,0,1,7.62,2.95A34.12,34.12,0,0,0,308.51,220.42Z"/><path class="cls-3" d="M286.8,249.66c20-10,43-20,64-4,5.31,4.42,11.39,5.32,17.74,4.7A30.45,30.45,0,1,0,334.77,200a17.24,17.24,0,0,1-6.23,3.17,27.32,27.32,0,0,1-7.62,1.11h-.36a24.17,24.17,0,0,1-6.82-1,16.36,16.36,0,0,1-6.26-3.18,30.58,30.58,0,0,0-43.09,43.07,30.26,30.26,0,0,0,9.26,7.44C278.36,250.77,283,251.55,286.8,249.66Zm-8.74-17.91a12.7,12.7,0,0,1,10.31-20.88c8.42-2.74,17.26.52,25.43,3.79,9,3,19-4,29-6,4.2-1,8.12.12,11.63,2.32a12.59,12.59,0,1,1-8.34,22.32,35.35,35.35,0,0,0-12.52-6.5A45.29,45.29,0,0,0,321,225a42.31,42.31,0,0,0-12.53,1.74A34.08,34.08,0,0,0,296,233.3,12.73,12.73,0,0,1,278.06,231.75Z"/><path class="cls-2" d="M350.8,245.66c-21-16-44-6-64,4-3.77,1.89-8.44,1.11-13.15,1a30.57,30.57,0,0,0,33.82-3.7,16.1,16.1,0,0,1,6.08-3.13,24.32,24.32,0,0,1,7-1h.36a27,27,0,0,1,7.35,1,17.74,17.74,0,0,1,6.49,3.25,30.42,30.42,0,0,0,33.78,3.26C362.19,251,356.11,250.08,350.8,245.66Z"/><path class="cls-4" d="M374.88,227.08a21,21,0,0,0-4.9-21.33c-6.3-6.19-14.55-5.74-15.89-5.65"/><path class="cls-4" d="M264.59,220.67a21,21,0,0,0,4.9,21.33c6.3,6.19,14.55,5.74,15.89,5.65"/><path class="cls-5" d="M341.22,237.46a34.2,34.2,0,0,0-9.47-4.32,36.15,36.15,0,0,0-9.9-1.13,67.36,67.36,0,0,0-10.18.93,46.58,46.58,0,0,0-5.05,1.14,18.17,18.17,0,0,0-4.9,2,7,7,0,0,1,1.71-2.25,17.14,17.14,0,0,1,2.22-1.78,24.5,24.5,0,0,1,5.05-2.57,33.31,33.31,0,0,1,11.1-2.05A25.07,25.07,0,0,1,333,229.78,18.27,18.27,0,0,1,341.22,237.46Z"/></g><g id="ART-strokes"><path class="cls-6" d="M375.12,206.3a28.47,28.47,0,0,0-15.65-9.65,27.3,27.3,0,0,0-4.68-.64,25.9,25.9,0,0,0-4.74.11,28.92,28.92,0,0,0-9.19,2.61,27.37,27.37,0,0,0-4.18,2.45c-.6.42-1.48,1.1-2.31,1.58a18.16,18.16,0,0,1-2.64,1.26,28.44,28.44,0,0,1-10.92,1.73,25.74,25.74,0,0,1-10.63-2.57,13.94,13.94,0,0,1-2.39-1.47c-.38-.27-.74-.59-1.07-.87l-1-.82a27.07,27.07,0,0,0-4.21-2.81,28.13,28.13,0,0,0-19.74-2.76,27.13,27.13,0,0,0-9.19,4.07,24.94,24.94,0,0,0-3.83,3.19l-1.7,1.79-1.5,2a31.14,31.14,0,0,0-5.64,18.11,30.12,30.12,0,0,0,6,17.83,29.08,29.08,0,0,0,16,10.86,28.39,28.39,0,0,0,19.85-2,29.47,29.47,0,0,0,4.38-2.7c.68-.52,1.33-1.09,2.06-1.62a14.92,14.92,0,0,1,2.32-1.35,24.77,24.77,0,0,1,10.31-2.22,27.08,27.08,0,0,1,10.43,1.87,15.82,15.82,0,0,1,2.44,1.21,25.38,25.38,0,0,1,2.18,1.55,28.75,28.75,0,0,0,32.86.91,24.69,24.69,0,0,0,3.79-3c.57-.58,1.17-1.11,1.71-1.71l1.54-1.85a29.28,29.28,0,0,0,5.76-17.78A28.8,28.8,0,0,0,375.12,206.3Zm5-4.12a33.21,33.21,0,0,1,7.39,21.37,32.86,32.86,0,0,1-8,20.85l-1.95,2c-.67.65-1.42,1.23-2.12,1.84a30.1,30.1,0,0,1-4.63,3.13,32.65,32.65,0,0,1-10.43,3.6,32.06,32.06,0,0,1-21-3.8,31.11,31.11,0,0,1-4.43-3c-.72-.59-1.31-1.11-2-1.58a15.49,15.49,0,0,0-2.19-1.21,24.32,24.32,0,0,0-9.94-2.14,23.33,23.33,0,0,0-10,2,13,13,0,0,0-2.19,1.29c-.68.49-1.34,1.08-2,1.62a32.45,32.45,0,0,1-4.43,2.9,33.75,33.75,0,0,1-10,3.54,30.88,30.88,0,0,1-5.35.51,31.74,31.74,0,0,1-5.41-.36A32.16,32.16,0,0,1,271,251.3a31.4,31.4,0,0,1-16.44-27.73,30,30,0,0,1,2.16-11.06,31.65,31.65,0,0,1,5.92-9.46l1.94-2,2.13-1.76a31.86,31.86,0,0,1,4.58-3,34.6,34.6,0,0,1,10.18-3.53,33.35,33.35,0,0,1,20.87,2.89,34.15,34.15,0,0,1,4.6,2.79l1.08.82c.35.27.65.51,1,.73a12.1,12.1,0,0,0,2.12,1.16,21.78,21.78,0,0,0,9.67,1.67,24,24,0,0,0,9.46-2.27,12.85,12.85,0,0,0,2-1.16c.64-.45,1.1-.9,1.88-1.55a32.46,32.46,0,0,1,26.53-7.12A32.48,32.48,0,0,1,380.14,202.18Z"/><path class="cls-6" d="M364.14,235.82a15.59,15.59,0,0,1-7.93,3.39,15.39,15.39,0,0,1-8.44-1.36,16.58,16.58,0,0,1-3.55-2.35c-.79-.72-1.61-1.39-2.46-2a35,35,0,0,0-5.54-3.29c-1-.47-2-.91-3-1.31s-2.08-.73-3.15-1a40.14,40.14,0,0,0-6.56-1.33,37.71,37.71,0,0,0-13.47.69,29.62,29.62,0,0,0-12.19,5.74c-.44.36-.86.73-1.28,1.11a15,15,0,0,1-1.46,1.17,13.58,13.58,0,0,1-3.34,1.79,15.91,15.91,0,0,1-3.77.87,15.35,15.35,0,0,1-3.94-.18,13.57,13.57,0,0,1-3.82-1.29,17.44,17.44,0,0,1-1.77-1,15.37,15.37,0,0,1-1.59-1.31,14.47,14.47,0,0,1,8.78-24.89,14.27,14.27,0,0,1,7.57,1.5,13.85,13.85,0,0,1,3.12,2.15c.89.81,1.67,1.55,2.57,2.26a27.18,27.18,0,0,0,5.83,3.52c8.41,3.76,18.2,3.93,26.89,1.36a34.51,34.51,0,0,0,11.85-6.15c.43-.36.85-.71,1.25-1.09l.7-.59c.26-.21.51-.43.77-.63a15.33,15.33,0,0,1,3.53-1.88,14.62,14.62,0,0,1,8.06-.6,16.05,16.05,0,0,1,2,.55,17.1,17.1,0,0,1,1.91.85A15.23,15.23,0,0,1,369,228.7,15.71,15.71,0,0,1,364.14,235.82Zm-4.13-5a9.78,9.78,0,0,0,3.41-9.31,10.1,10.1,0,0,0-6.84-7.77,10.74,10.74,0,0,0-5.66-.23,11.56,11.56,0,0,0-2.73,1.07l-.63.4a7.48,7.48,0,0,0-.69.46c-.49.35-1,.69-1.51,1A39.36,39.36,0,0,1,332,221.65a50.84,50.84,0,0,1-14,.88,49.16,49.16,0,0,1-13.63-3.11,38.91,38.91,0,0,1-6.37-3.08c-1-.59-2-1.32-2.94-2a10.4,10.4,0,0,0-2.85-1.37A11,11,0,0,0,278,225.73a12.73,12.73,0,0,0,.87,2.59,12.13,12.13,0,0,0,1.51,2.34A11,11,0,0,0,285,234a11.82,11.82,0,0,0,2.93.69,11.42,11.42,0,0,0,3.08-.17,11.1,11.1,0,0,0,3-1.06,11.41,11.41,0,0,0,1.36-.85l1.44-1.05a42.36,42.36,0,0,1,6.15-3.56,46,46,0,0,1,6.63-2.49,49.38,49.38,0,0,1,14.08-1.91,46,46,0,0,1,14.28,2.27,33.41,33.41,0,0,1,6.8,3.07,36.3,36.3,0,0,1,3.14,2.08,10.51,10.51,0,0,0,2.34,1.28A9.88,9.88,0,0,0,360,230.79Z"/><path class="cls-7" d="M309.81,197.65s-3.33,5-1.91,14.35c.8,5.35,7.69,10.36,7.69,10.36"/><path class="cls-8" d="M327.82,198.78s-.87,5.74,4.21,13.37c2.91,4.36,11,5.93,11,5.93"/><path class="cls-7" d="M334.92,195.64s3.49,8,0,16c-3.23,7.47-11.09,11.1-11.09,11.1"/><path class="cls-9" d="M316.33,199.58s.43,7.26-4.66,12.58c-4.71,4.92-11.94,5.48-11.94,5.48"/></g></svg>