<svg xmlns="http://www.w3.org/2000/svg" viewBox="0 0 640 320"><defs><style>.cls-1{fill:#534741;}.cls-2{fill:#ddd6ce;}.cls-3{fill:#fcfcfc;}.cls-4{fill:#00c9ff;}.cls-5{fill:#e2178b;}.cls-6{fill:#38e59e;}.cls-7{fill:#ffb839;}.cls-8{fill:#fff;}.cls-9{fill:#0d0a09;}.cls-10{fill:#fff6e9;}.cls-11{fill:#fffdfa;}</style></defs><g id="ART-fills"><path class="cls-1" d="M455.41,79.54a64.49,64.49,0,0,1-5.52,22.79L448.68,105l-1.38,2.55c-.48.84-.89,1.72-1.42,2.53l-1.57,2.43a88.88,88.88,0,0,1-7,9.15,119.06,119.06,0,0,1-16.64,15.52q-4.48,3.48-9.18,6.66T402,150c-6.43,3.95-13.08,7.47-19.65,11.15l-19.78,10.93c-6.61,3.62-13.3,7-19.95,10.39l-5,2.52a35.43,35.43,0,0,1-5.58,2.31,34.94,34.94,0,0,1-23.56-.73,38.18,38.18,0,0,1-5.3-2.58c-1.62-.94-3.23-1.88-4.87-2.79-6.53-3.67-13.25-7-20-10.43s-13.52-6.56-20.21-10-13.27-7.08-19.74-10.94a192.83,192.83,0,0,1-18.7-12.71,116.74,116.74,0,0,1-16.69-15.46,77.51,77.51,0,0,1-12.57-19.29A64.17,64.17,0,0,1,185,79.54h6.5a53.34,53.34,0,0,0,3.15,21.13,68.72,68.72,0,0,0,10.75,19A106.77,106.77,0,0,0,221,135.57a175.88,175.88,0,0,0,18.15,13.16c6.29,4.06,12.86,7.71,19.47,11.24s13.34,6.88,20.19,9.95,13.78,6,20.71,9c1.74.74,3.46,1.53,5.18,2.31a35,35,0,0,0,5,1.84,33.64,33.64,0,0,0,20.7-.74,36.58,36.58,0,0,0,4.77-2.1c1.68-.89,3.37-1.76,5.07-2.58,6.81-3.31,13.76-6.16,20.72-9s13.9-5.68,20.62-9a205.18,205.18,0,0,0,19.56-11q4.75-3,9.33-6.23t8.86-6.85A104.69,104.69,0,0,0,435,119.69a68.31,68.31,0,0,0,10.78-19,52.77,52.77,0,0,0,3.14-21.13Z"/></g><g id="ART-strokes"><path class="cls-2" d="M317.62,178.48a18.48,18.48,0,0,0-.89,4.79c-.05.81,0,1.62,0,2.43a12.83,12.83,0,0,1-.4,2.47,0,0,0,0,1-.06,0s0,0,0,0a8.89,8.89,0,0,1-.5-2.48,10.62,10.62,0,0,1,.23-2.51,15.09,15.09,0,0,1,1.6-4.74,0,0,0,0,1,.06,0S317.62,178.46,317.62,178.48Z"/><circle class="cls-3" cx="320.1" cy="222.83" r="18.65"/><path class="cls-4" d="M319.71,195.49l-14.41-6.17a8,8,0,0,0-10.51,4.21l-2,29.3,10.62-6.72h0l1.57-.75,21.8-8.73Z"/><path class="cls-5" d="M347.05,222.44l6.16-14.4A8,8,0,0,0,349,197.53l-29.29-2,6.72,10.62h0l.74,1.57,8.74,21.8Z"/><path class="cls-6" d="M320.1,249.78,334.5,256A8,8,0,0,0,345,251.74l2-29.3-10.63,6.72h0l-1.56.75-21.81,8.73Z"/><path class="cls-7" d="M292.76,222.83l-6.17,14.4a8,8,0,0,0,4.21,10.51l29.3,2-6.72-10.62h0l-.75-1.57-8.73-21.8Z"/><path class="cls-8" d="M299.76,227.35l-1.27,3a1.17,1.17,0,0,0,.62,1.54l3,1.27a1.18,1.18,0,0,0,1.56-1.52l-1.7-4.23A1.18,1.18,0,0,0,299.76,227.35Z"/><path class="cls-8" d="M315.18,202.49l-3-1.27a1.17,1.17,0,0,0-1.54.62l-1.27,3a1.17,1.17,0,0,0,1.52,1.55l4.23-1.7A1.17,1.17,0,0,0,315.18,202.49Z"/><path class="cls-8" d="M340.05,217.92l1.26-3a1.17,1.17,0,0,0-.61-1.54l-3-1.27a1.18,1.18,0,0,0-1.55,1.52l1.69,4.23A1.18,1.18,0,0,0,340.05,217.92Z"/><path class="cls-8" d="M324.62,242.78l3,1.27a1.18,1.18,0,0,0,1.54-.62l1.27-3a1.18,1.18,0,0,0-1.52-1.55l-4.23,1.7A1.17,1.17,0,0,0,324.62,242.78Z"/><path class="cls-9" d="M348.49,200.64c-4.73-.6-9.5-1.17-14.28-1.7s-9.6-1.06-14.43-1.54l1.58-2.64c1.91,3.26,3.82,6.51,5.77,9.74l-2.36,1.5L319,196.29l.51.43L306.57,191c-.53-.23-1.1-.5-1.6-.7a6.55,6.55,0,0,0-1.51-.44,7.21,7.21,0,0,0-3.13.16,7.3,7.3,0,0,0-4.64,4.05l.06-.25c-.36,4.88-.79,9.76-1.09,14.64s-.46,9.78-.54,14.68l-1.8-1.07,4.71-3.36,4.69-3.36,2,3.1L299,221.74c-1.57,1.12-3.17,2.19-4.77,3.27l.91-1.06c-1.7,4.39-3.54,8.72-5.44,13l-.68,1.55a5.37,5.37,0,0,0-.36,1.18,6.19,6.19,0,0,0,.07,2.46,5.85,5.85,0,0,0,3.13,3.82l-.69-.16q7.31.82,14.6,1.73c4.86.61,9.73,1.2,14.6,1.73l-.63,1.05q-2.73-4.74-5.6-9.4l.67-.42q2.85,4.66,5.81,9.27l-.16-.14,13,5.47a13.46,13.46,0,0,0,3.22,1.09A7.58,7.58,0,0,0,340,256a7.49,7.49,0,0,0,4.71-4.29l-.05.19.81-14.66.35-7.34.35-7.33,1.73,1q-4.49,3-8.94,6l-1.51-2.39,8.91-6-.67.79,5.05-13.2.31-.83.16-.41.07-.21,0-.15a5.09,5.09,0,0,0,.24-1.21,5.43,5.43,0,0,0-.3-2.37,5.37,5.37,0,0,0-1.29-1.93,5,5,0,0,0-.9-.69c-.15-.1-.33-.17-.49-.26S348.5,200.7,348.49,200.64Zm1.41-5.83a10.45,10.45,0,0,1,1.54.73c.33.23.67.44,1,.69a11.26,11.26,0,0,1,1.7,1.68,10.85,10.85,0,0,1,2.11,4.19,10.56,10.56,0,0,1,.13,4.61,10.13,10.13,0,0,1-.68,2.19l-.11.26-.1.2-.19.4-.38.8-6.06,12.76-.06.11a1.63,1.63,0,0,1-.62.68l-9.26,5.47-.08,0a1.41,1.41,0,1,1-1.43-2.43h0q4.64-2.73,9.24-5.51l0,0a1.12,1.12,0,0,1,1.54.38,1.19,1.19,0,0,1,.15.68L347.7,230l-.67,7.31L345.8,252h0a.48.48,0,0,1,0,.18,8.59,8.59,0,0,1-9.23,5,8.11,8.11,0,0,1-1.79-.51c-.57-.22-1.09-.46-1.63-.7l-13-5.64h0a.36.36,0,0,1-.16-.14q-2.88-4.65-5.88-9.22a.4.4,0,0,1,.12-.54.39.39,0,0,1,.54.11h0c2,3,4,6.09,6.1,9.09a.68.68,0,0,1-.18.94.72.72,0,0,1-.4.12h-.06q-7.33-.22-14.69-.32c-4.9-.07-9.8-.18-14.7-.3a1.92,1.92,0,0,1-.54-.11l-.15-.06a10.33,10.33,0,0,1-5.94-6.4,10.2,10.2,0,0,1-.36-4.53,9.94,9.94,0,0,1,.58-2.22l.1-.27.08-.2.17-.41.34-.82c1.8-4.34,3.66-8.67,5.66-12.93l.07-.14a2.09,2.09,0,0,1,.84-.92c1.66-1,3.3-2,5-2.9l5-2.83.18-.1a1.83,1.83,0,0,1,1.8,3.19h0l-5.05,2.8L293.58,224l-.11.06a1.14,1.14,0,0,1-1.69-1.14c.6-4.86,1.12-9.73,1.5-14.61s.63-9.77,1-14.65a.6.6,0,0,1,0-.24h0a8.86,8.86,0,0,1,5.58-5,9,9,0,0,1,3.86-.27,8.76,8.76,0,0,1,1.89.49c.59.22,1.1.45,1.66.67l13.07,5.35a1,1,0,0,1,.48.39l0,0,6.27,9.42a1.4,1.4,0,1,1-2.32,1.55h0l0-.05c-2.08-3.15-4.2-6.27-6.32-9.4a1.68,1.68,0,0,1,.45-2.35,1.66,1.66,0,0,1,1-.29h.1c4.94.2,9.9.35,14.88.51S344.87,194.73,349.9,194.81Z"/><path class="cls-8" d="M349.36,206.59c0,1-4.89-1.61-7.24-1.61s-7.09-2.56-7.09-3.54,4.85-.81,7.09,0S349.36,205.61,349.36,206.59Z"/><path class="cls-8" d="M341.39,251.74c-.9.39-.44-5.13-1.37-7.29s-.42-7.52.48-7.91,2.64,4.15,2.78,6.52S342.29,251.36,341.39,251.74Z"/><path class="cls-8" d="M298.4,241c-.25-.94,5.14.29,7.42-.32s7.51.64,7.76,1.58-4.48,2-6.85,1.84S298.66,242,298.4,241Z"/><path class="cls-8" d="M314.64,197.82c0,1-4.89-1.61-7.25-1.61s-7.08-2.56-7.08-3.54,4.85-.81,7.08,0S314.64,196.84,314.64,197.82Z"/><path class="cls-9" d="M320.29,186.86c-.09.84-.17,1.64-.2,2.45s0,1.6,0,2.4a7.08,7.08,0,0,1-.07,1.21,6.32,6.32,0,0,0,0,1.23c0,.82.14,1.64.27,2.48a1,1,0,1,1-1.91.28.06.06,0,0,1,0,0v0l-.25-2.56c0-.43-.06-.86-.14-1.3a5,5,0,0,1-.1-1.33,14.83,14.83,0,0,1,.48-2.63,10.9,10.9,0,0,1,1-2.47.48.48,0,0,1,.89.29Z"/><path class="cls-2" d="M319.7,197.25c.82-.21,4,.51,4.8.7-1.15-4.77-4.86-8.71-3.89-14.52-2.81,4.22-1.68,9.42-2.14,14.57A4.67,4.67,0,0,1,319.7,197.25Z"/><path class="cls-10" d="M317.31,198.71a5,5,0,0,0,1.16-.71c.46-5.15-.67-10.35,2.14-14.57-1,5.81,2.74,9.75,3.89,14.52l.19.05a8,8,0,0,0,2.58-.29c-.71-5.31-1.64-11.29-.53-16.35-1.1-.27-2.47-.36-3.78-.8-1-.35-2.34-1.21-3.52-1.73-4.07,5.74-1.9,14.35-4.79,19.77A3,3,0,0,0,317.31,198.71Z"/><path class="cls-11" d="M318.26,178.44c-2.9-.48-5.33,2.38-5.33,5.32V194.6a4.56,4.56,0,0,0,1.72,4c2.89-5.42.72-14,4.79-19.77A4.92,4.92,0,0,0,318.26,178.44Z"/><path class="cls-11" d="M327.27,197.71c1.1-.39,1.59-1.25,1.59-3.11V183.76c0-1.56-.88-2.1-2.12-2.4C325.63,186.42,326.56,192.4,327.27,197.71Z"/><path class="cls-9" d="M311.43,194.6c0-2,0-4.09.09-6.14l.08-3.07.07-1.54A7.08,7.08,0,0,1,312,182a6.84,6.84,0,0,1,1.91-3.08,5.22,5.22,0,0,1,3.39-1.46,3.69,3.69,0,0,1,.94.06,3.8,3.8,0,0,1,.91.24,12,12,0,0,1,1.48.74,22.19,22.19,0,0,0,2.61,1.43,19.72,19.72,0,0,0,2.89.7,8.29,8.29,0,0,1,1.59.45,2.6,2.6,0,0,1,1.39,1.25,3.77,3.77,0,0,1,.27,1.72l0,1.54,0,3.07c.06,2.06.1,4.08.2,6.17a5.31,5.31,0,0,1-.18,1.77,3,3,0,0,1-1.27,1.7,4.69,4.69,0,0,1-1.82.62,16.21,16.21,0,0,1-1.65.17h-.09l-.17,0c-1.2-.25-2.45-.49-3.61-.61a7.16,7.16,0,0,0-.75,0c-.06,0-.07,0-.05,0s0,0,0,0l-.19.12a12.34,12.34,0,0,1-1.64,1.2,4.87,4.87,0,0,1-1.22.44,4.28,4.28,0,0,1-1.35.12,4,4,0,0,1-2.6-1.22A6.78,6.78,0,0,1,311.43,194.6Zm3,0a3.93,3.93,0,0,0,.71,2.53,1.12,1.12,0,0,0,.73.42,1.59,1.59,0,0,0,.53,0,2.76,2.76,0,0,0,.57-.16,14.63,14.63,0,0,0,1.49-.93,4.44,4.44,0,0,1,.65-.31,2.12,2.12,0,0,1,.45-.12,1.67,1.67,0,0,1,.42,0,6.23,6.23,0,0,1,1.13.09,35.43,35.43,0,0,1,3.85.84l-.27,0a6.4,6.4,0,0,0,2.54-.17,1.15,1.15,0,0,0,.6-.64,3.78,3.78,0,0,0,.27-1.25c.13-2,.16-4.09.22-6.13l0-3.07,0-1.54a2.7,2.7,0,0,0-.2-1.27c-.32-.67-1.28-.92-2.25-1.06a21.57,21.57,0,0,1-3.11-.57,24,24,0,0,1-2.91-1.27,10.46,10.46,0,0,0-1.32-.51,2.08,2.08,0,0,0-.58-.1,2.32,2.32,0,0,0-.59,0,4,4,0,0,0-3.13,3.31,4.51,4.51,0,0,0-.09,1.22l.07,1.54.09,3.07C314.42,190.51,314.4,192.55,314.43,194.6Z"/><path class="cls-2" d="M318.55,180.54a18.91,18.91,0,0,0-.89,4.79c0,.81,0,1.62,0,2.43a12.8,12.8,0,0,1-.39,2.47.05.05,0,0,1-.07,0,0,0,0,0,1,0,0,8.57,8.57,0,0,1-.51-2.47,10.21,10.21,0,0,1,.24-2.52,15.07,15.07,0,0,1,1.59-4.74.06.06,0,0,1,.07,0A0,0,0,0,1,318.55,180.54Z"/><path class="cls-2" d="M326.53,182.18c0,.87,0,1.67,0,2.47s-.19,1.59-.22,2.4a40.63,40.63,0,0,0,.23,4.91,0,0,0,0,1-.05,0s-.05,0-.05,0a25.32,25.32,0,0,1-.92-4.91,8.65,8.65,0,0,1,0-2.54,6.57,6.57,0,0,1,.93-2.38,0,0,0,0,1,.07,0A.05.05,0,0,1,326.53,182.18Z"/></g></svg>