<svg xmlns="http://www.w3.org/2000/svg" viewBox="0 0 640 320"><defs><style>.cls-1{fill:#ddd;}.cls-2{fill:#fcfcfc;}.cls-3{fill:#0d0a09;}</style></defs><g id="ART-fills"><path class="cls-1" d="M44.39,94.33c2.48,17.17,12.1,44,45,69.1,15.63,5.53,32.24,6.34,47.43,11.41C97.8,161,63.3,131.3,44.39,94.33Z"/><path class="cls-2" d="M170.81,163.84c.05-.19.11-.38.16-.57a256.75,256.75,0,0,1-34.16-14.43c-22-10.57-40.71-26-56.3-44.26L50.38,81.11a4.18,4.18,0,0,0-6.77,3.27,72.83,72.83,0,0,0,.78,10c18.91,37,53.41,66.63,92.42,80.51-15.19-5.07-31.8-5.88-47.43-11.41,1.87,1.43,3.82,2.86,5.85,4.27l-34.7-10.35a4.2,4.2,0,0,0-4.73,6.3c3.47,5.41,31.14,16.73,47.61,35.64,13.76,7.47,22.72,10.05,34.83,20.24,20,17,49.57,30.31,75.57,23.31C183.81,228.84,161.81,197.84,170.81,163.84Z"/><path class="cls-1" d="M60.49,20.65c-2,21.51-.19,58.5,27.49,89.75l-7.47-5.82c15.59,18.29,34.3,33.69,56.3,44.26A256.75,256.75,0,0,0,171,163.27q.54-2.06,1.2-4.08C116.14,132.09,70.4,82.39,60.49,20.65Z"/><path class="cls-2" d="M112.28,61.19C82.76,44.5,68.92,7.82,68.92,7.82a4.18,4.18,0,0,0-7,2.25c-.5,2.84-1,6.43-1.4,10.58,9.91,61.74,55.65,111.44,111.68,138.54a79.69,79.69,0,0,1,20.14-32.7C175.56,110.7,136.37,74.8,112.28,61.19Z"/><path class="cls-2" d="M220.42,176.26h0l-.12,0Z"/><path class="cls-2" d="M220.42,176.26l-20.1-42.13s-3-2.93-8-7.64a79.69,79.69,0,0,0-20.14,32.7,230.35,230.35,0,0,0,48.13,17.05Z"/><path class="cls-1" d="M220.42,176.26l-.12,0a383.64,383.64,0,0,1-49.33-13c-.05.19-.11.38-.16.57-9,34,13,65,43,79-26,7-55.57-6.31-75.57-23.31-12.11-10.19-21.07-12.77-34.83-20.24,7,8.09,8.81,9.65,11.93,15.3,32.94,59.75,139,32.8,139,32.8Z"/><path class="cls-2" d="M172.17,159.19q-.66,2-1.2,4.08a383.64,383.64,0,0,0,49.33,13A230.35,230.35,0,0,1,172.17,159.19Z"/><path class="cls-3" d="M103.87,68.27l5.1,6.47c.83,1.09,1.74,2.12,2.64,3.16l2.7,3.11c1.74,2.11,3.66,4.07,5.53,6.07l2.82,3,3,2.87a234.89,234.89,0,0,0,25,21.3q6.58,4.92,13.36,9.57t13.89,8.84c9.42,5.65,19.06,10.93,28.77,16.14a1.18,1.18,0,1,1-1.12,2.08h0c-9.66-5.29-19.37-10.53-28.85-16.2-4.74-2.83-9.42-5.77-14.07-8.77s-9.2-6.15-13.61-9.49a230.53,230.53,0,0,1-24.86-22l-2.9-3-2.77-3.09c-1.84-2.07-3.73-4.09-5.43-6.27l-2.61-3.22c-.87-1.07-1.75-2.14-2.55-3.27L102.94,69a.59.59,0,0,1,.12-.81.59.59,0,0,1,.8.11Z"/><path class="cls-3" d="M124.84,115.14l4.82,4.7c1.6,1.58,3.34,3,5,4.52s3.4,2.92,5.13,4.35l2.6,2.13,2.69,2a187.19,187.19,0,0,0,22.56,14.59,251,251,0,0,0,24.06,12c8.24,3.58,16.64,6.81,25.05,10a1,1,0,1,1-.69,1.8h0c-8.41-3.23-16.84-6.47-25.13-10.07a254,254,0,0,1-24.39-11.87,192.68,192.68,0,0,1-22.49-15.19l-2.67-2.1-2.58-2.2c-1.71-1.48-3.46-2.91-5.08-4.5s-3.32-3.07-4.87-4.71l-4.7-4.89a.47.47,0,0,1,0-.67.47.47,0,0,1,.65,0Z"/><path class="cls-3" d="M166.57,165.74a143.7,143.7,0,0,1-25.94-9.39l-3.14-1.48c-1-.5-2-1.08-3.06-1.61-2-1.1-4.11-2.16-6.08-3.36-4-2.31-7.89-4.83-11.71-7.43A85.83,85.83,0,0,1,106,133.6c-1.65-1.62-3.38-3.12-5-4.7s-3.42-3.05-5.06-4.63-3.34-3.12-5-4.71-3.29-3.15-4.91-4.74l-9.71-9.47,0,0A4.79,4.79,0,1,1,83,98.48l.09.09c6.28,6.48,12.6,12.79,19.21,18.73a117.92,117.92,0,0,0,10.22,8.49c3.59,2.6,7.21,5.09,10.63,7.83s7,5.38,10.55,7.89c1.76,1.32,3.61,2.49,5.44,3.72s3.69,2.39,5.56,3.54a238.14,238.14,0,0,0,23.4,12.56l0,0a2.34,2.34,0,0,1-1.57,4.39Z"/><path class="cls-3" d="M133.56,179.07a154.75,154.75,0,0,0,21.73,2.73,157.77,157.77,0,0,0,21.85-.35q5.46-.42,10.9-1t10.84-1.63c7.2-1.29,14.36-2.86,21.51-4.51a1.09,1.09,0,1,1,.49,2.12h0c-7.17,1.57-14.35,3.21-21.61,4.52-3.62.66-7.27,1.24-10.92,1.79s-7.33,1-11,1.23a153.32,153.32,0,0,1-22.17-.2l-2.76-.23-2.75-.35c-1.83-.24-3.67-.44-5.48-.8s-3.64-.61-5.44-1l-5.39-1.24a.52.52,0,0,1-.4-.63.54.54,0,0,1,.62-.41Z"/><path class="cls-3" d="M140.78,211.74a153.9,153.9,0,0,0,21.4-4.65,157,157,0,0,0,20.49-7.61q5-2.21,9.93-4.59c3.29-1.6,6.51-3.33,9.68-5.14,6.36-3.62,12.59-7.48,18.79-11.42a1.09,1.09,0,1,1,1.17,1.84h0C216,184,209.76,188,203.36,191.63c-3.2,1.83-6.45,3.59-9.71,5.33s-6.58,3.36-10,4.82a150.79,150.79,0,0,1-21,7.19l-2.68.7-2.71.59c-1.81.38-3.61.8-5.43,1.07s-3.64.64-5.48.84l-5.49.63a.53.53,0,0,1-.14-1.06Z"/><path class="cls-1" d="M595.61,94.33c-2.48,17.17-12.1,44-45,69.1-15.63,5.53-32.24,6.34-47.43,11.41C542.2,161,576.7,131.3,595.61,94.33Z"/><path class="cls-2" d="M469.19,163.84c-.05-.19-.11-.38-.16-.57a256.75,256.75,0,0,0,34.16-14.43c22-10.57,40.71-26,56.3-44.26l30.13-23.47a4.18,4.18,0,0,1,6.77,3.27,72.83,72.83,0,0,1-.78,10c-18.91,37-53.41,66.63-92.42,80.51,15.19-5.07,31.8-5.88,47.43-11.41-1.87,1.43-3.82,2.86-5.85,4.27l34.7-10.35a4.2,4.2,0,0,1,4.73,6.3c-3.47,5.41-31.14,16.73-47.61,35.64-13.76,7.47-22.72,10.05-34.83,20.24-20,17-49.57,30.31-75.57,23.31C456.19,228.84,478.19,197.84,469.19,163.84Z"/><path class="cls-1" d="M579.51,20.65c2,21.51.18,58.5-27.49,89.75l7.47-5.82c-15.59,18.29-34.3,33.69-56.3,44.26A256.75,256.75,0,0,1,469,163.27q-.54-2.06-1.2-4.08C523.86,132.09,569.6,82.39,579.51,20.65Z"/><path class="cls-2" d="M527.72,61.19C557.24,44.5,571.08,7.82,571.08,7.82a4.18,4.18,0,0,1,7,2.25c.5,2.84,1,6.43,1.4,10.58-9.91,61.74-55.65,111.44-111.68,138.54a79.69,79.69,0,0,0-20.14-32.7C464.44,110.7,503.63,74.8,527.72,61.19Z"/><path class="cls-2" d="M419.58,176.26h0l.12,0Z"/><path class="cls-2" d="M419.58,176.26l20.1-42.13s3-2.93,8-7.64a79.69,79.69,0,0,1,20.14,32.7,230.35,230.35,0,0,1-48.13,17.05Z"/><path class="cls-1" d="M419.58,176.26l.12,0a383.64,383.64,0,0,0,49.33-13c.05.19.11.38.16.57,9,34-13,65-43,79,26,7,55.57-6.31,75.57-23.31,12.11-10.19,21.07-12.77,34.83-20.24-7,8.09-8.82,9.65-11.93,15.3-32.94,59.75-139,32.8-139,32.8Z"/><path class="cls-2" d="M467.83,159.19q.66,2,1.2,4.08a383.64,383.64,0,0,1-49.33,13A230.35,230.35,0,0,0,467.83,159.19Z"/><path class="cls-3" d="M537.06,69l-4.91,6.67c-.8,1.13-1.68,2.2-2.55,3.27L527,82.11c-1.7,2.18-3.59,4.2-5.43,6.27l-2.77,3.09-2.9,3a230.53,230.53,0,0,1-24.86,22c-4.41,3.34-9,6.5-13.61,9.49s-9.33,5.94-14.07,8.77c-9.48,5.67-19.19,10.91-28.85,16.2a1.18,1.18,0,0,1-1.6-.47,1.17,1.17,0,0,1,.46-1.6h0c9.71-5.21,19.35-10.49,28.77-16.14q7.08-4.22,13.89-8.84t13.36-9.57a234.89,234.89,0,0,0,25-21.3l3-2.87,2.82-3c1.87-2,3.79-4,5.53-6.07l2.7-3.11c.9-1,1.81-2.07,2.64-3.16l5.1-6.47v0a.58.58,0,0,1,.92.7Z"/><path class="cls-3" d="M515.84,115.79l-4.69,4.89c-1.55,1.64-3.25,3.14-4.87,4.71s-3.37,3-5.08,4.5l-2.58,2.2-2.67,2.1a192.68,192.68,0,0,1-22.49,15.19,254,254,0,0,1-24.39,11.87c-8.29,3.6-16.72,6.84-25.13,10.07a1,1,0,1,1-.69-1.8h0c8.41-3.23,16.81-6.46,25.05-10a251,251,0,0,0,24.06-12,187.19,187.19,0,0,0,22.56-14.59l2.69-2,2.6-2.13c1.73-1.43,3.49-2.82,5.13-4.35s3.4-2.94,5-4.52l4.82-4.7,0,0a.47.47,0,0,1,.66.67Z"/><path class="cls-3" d="M471.88,161.33a238.14,238.14,0,0,0,23.4-12.56c1.87-1.15,3.74-2.3,5.56-3.54s3.68-2.4,5.44-3.72q5.4-3.76,10.55-7.89c3.42-2.74,7-5.23,10.63-7.83a117.92,117.92,0,0,0,10.22-8.49c6.61-5.94,12.93-12.25,19.21-18.73a4.78,4.78,0,1,1,6.87,6.66.3.3,0,0,1-.08.08l0,0-9.71,9.47c-1.62,1.59-3.27,3.16-4.91,4.74s-3.29,3.15-5,4.71-3.37,3.09-5.06,4.63-3.4,3.08-5,4.7a85.83,85.83,0,0,1-10.61,8.87c-3.82,2.6-7.7,5.12-11.71,7.43-2,1.2-4,2.26-6.08,3.36-1,.53-2,1.11-3.06,1.61l-3.14,1.48a143.7,143.7,0,0,1-25.94,9.39,2.34,2.34,0,0,1-1.58-4.39Z"/><path class="cls-3" d="M506.67,180.1l-5.39,1.24c-1.8.42-3.63.68-5.44,1s-3.65.56-5.48.8l-2.75.35-2.76.23a153.32,153.32,0,0,1-22.17.2c-3.69-.25-7.37-.67-11-1.23s-7.3-1.13-10.92-1.79c-7.26-1.31-14.44-3-21.61-4.52a1.09,1.09,0,1,1,.46-2.13h0c7.15,1.65,14.31,3.22,21.51,4.51q5.4,1,10.84,1.63t10.9,1a157.77,157.77,0,0,0,21.85.35,154.75,154.75,0,0,0,21.73-2.73h0a.53.53,0,0,1,.22,1Z"/><path class="cls-3" d="M499.09,212.8l-5.49-.63c-1.84-.2-3.65-.56-5.48-.84s-3.62-.69-5.43-1.07l-2.71-.59-2.68-.7a150.79,150.79,0,0,1-21-7.19c-3.4-1.46-6.73-3.08-10-4.82s-6.51-3.5-9.71-5.33C430.24,188,424,184,417.77,180.18a1.09,1.09,0,0,1,1.15-1.86h0c6.2,3.94,12.43,7.8,18.79,11.42,3.17,1.81,6.39,3.54,9.68,5.14s6.6,3.12,9.93,4.59a157,157,0,0,0,20.49,7.61,154.08,154.08,0,0,0,21.39,4.65h0a.55.55,0,0,1,.45.61A.54.54,0,0,1,499.09,212.8Z"/></g><g id="ART-strokes"><path class="cls-3" d="M84.44,111.63c-9.68-9.11-19.72-17.76-29.89-26.24L50.74,82.2l-1.91-1.58c-.15-.11-.36-.29-.45-.36l-.29-.2a2.37,2.37,0,0,0-.62-.25,2.47,2.47,0,0,0-2.49.93,2.24,2.24,0,0,0-.43,1.35l0,2.42a77.59,77.59,0,0,0,3.2,19.15,84.79,84.79,0,0,0,7.71,17.89c.38.72.81,1.41,1.26,2.09l1.31,2,1.32,2.06c.43.69,1,1.32,1.42,2l2.9,3.92c1,1.26,2.13,2.47,3.18,3.7A114.31,114.31,0,0,0,97,161.69a4.52,4.52,0,0,1-4.43,7.88,4.19,4.19,0,0,1-.69-.47l0,0c-10.41-8.78-20.16-18.26-28.34-29A111,111,0,0,1,44.9,104.52a84.54,84.54,0,0,1-3.65-19.85l-.14-2.54A5.82,5.82,0,0,1,42,78.78a6.13,6.13,0,0,1,6.17-2.65,6.47,6.47,0,0,1,1.7.59,7.39,7.39,0,0,1,.76.47c.24.16.35.26.54.39l2,1.48,4,2.91C67.93,89.75,78.76,97.38,90,104.53a4.52,4.52,0,0,1-4.87,7.62A4.88,4.88,0,0,1,84.44,111.63Z"/><path class="cls-3" d="M196.4,135c-10.44-11.15-21.41-22-32.63-32.38-5.62-5.21-11.29-10.37-17.12-15.34S135,77.41,128.88,72.79A210.87,210.87,0,0,0,110,59.87a82.38,82.38,0,0,1-18.25-14.7A131.19,131.19,0,0,1,66.62,6.06l.4.6a2.55,2.55,0,0,0-3.85.41,2.91,2.91,0,0,0-.38,1l-.28,1.77c-.17,1.18-.33,2.37-.47,3.55a134.26,134.26,0,0,0-.92,14.31,124.86,124.86,0,0,0,3,28.36A106.24,106.24,0,0,0,74,82.56,98.45,98.45,0,0,0,90.57,105.1h0a4.51,4.51,0,1,1-6.47,6.28,3.11,3.11,0,0,1-.29-.33,133.06,133.06,0,0,1-8.7-12.33,116.87,116.87,0,0,1-7.06-13.25,120.75,120.75,0,0,1-8.81-28.42,134.73,134.73,0,0,1-2-29.44,138.67,138.67,0,0,1,1.29-14.68c.17-1.21.36-2.43.57-3.64l.32-1.81a6.52,6.52,0,0,1,1-2.34,5.9,5.9,0,0,1,4.28-2.46A6,6,0,0,1,67.14,3a6.43,6.43,0,0,1,2.12,1.32l.25.24.15.36A111.84,111.84,0,0,0,74.4,15.21c1.72,3.39,3.67,6.66,5.65,9.9A110.36,110.36,0,0,0,94,43a78.66,78.66,0,0,0,17.67,14,214.55,214.55,0,0,1,19.47,12.7c12.54,9.07,24.46,18.86,36.34,28.7s23.49,20,35.2,30.14a4.51,4.51,0,0,1-5.92,6.8c-.11-.1-.22-.2-.32-.31Z"/><path class="cls-3" d="M93.17,169.69,84,166.5l-9.15-3.12-9.16-3.07-4.58-1.53-2.3-.76c-.84-.31-1.49-.55-2.2-.78s-1.4-.44-2.06-.59a9,9,0,0,0-1.75-.27c-.21,0-.39,0-.33,0a2,2,0,0,0,.29-.16,1.78,1.78,0,0,0,.51-.59,1.15,1.15,0,0,0,.17-.79,2.27,2.27,0,0,0,.14.42,12,12,0,0,0,2.27,3,17.08,17.08,0,0,0,1.56,1.36l1.86,1.45,15.35,11.68c5.12,3.92,10.18,7.93,15.14,12.08s9.86,8.37,14.5,12.92c2.32,2.28,4.57,4.64,6.7,7.14.53.62,1.06,1.24,1.57,1.89s1,1.29,1.51,2c1,1.32,1.9,2.79,2.76,4.06a82.75,82.75,0,0,0,12,14.59,78.6,78.6,0,0,0,32.48,18.65,100.4,100.4,0,0,0,18.6,3.52c3.14.32,6.31.46,9.47.55s6.33-.05,9.49-.2a164.18,164.18,0,0,0,18.88-2.22q9.36-1.71,18.52-4.29t18-6q4.43-1.73,8.76-3.62c2.85-1.29,5.78-2.67,8.41-4.06l.05,0a4.51,4.51,0,1,1,4.22,8,3.52,3.52,0,0,1-.4.18c-3.2,1.32-6.22,2.38-9.34,3.45s-6.21,2.06-9.34,3c-6.25,1.88-12.55,3.55-18.92,4.93s-12.77,2.57-19.23,3.41c-3.23.41-6.46.77-9.71,1s-6.5.42-9.76.49a144.74,144.74,0,0,1-19.52-.92,105.53,105.53,0,0,1-19.14-4.06,84.49,84.49,0,0,1-9.2-3.38,81.62,81.62,0,0,1-8.77-4.4,87.13,87.13,0,0,1-8.19-5.41,92.35,92.35,0,0,1-7.48-6.36,85.9,85.9,0,0,1-12.54-15c-.94-1.38-1.72-2.65-2.68-3.89-.46-.63-.94-1.24-1.44-1.85s-1-1.21-1.52-1.79c-2.1-2.35-4.34-4.59-6.65-6.77-4.63-4.34-9.54-8.42-14.55-12.38s-10.21-7.7-15.42-11.41S61.38,169.2,56,165.54l-2-1.41a19.81,19.81,0,0,1-2.14-1.73,17.26,17.26,0,0,1-3.56-4.6,7.09,7.09,0,0,1-.65-1.85,4.64,4.64,0,0,1,.4-3.14,4.27,4.27,0,0,1,1.31-1.47,4.9,4.9,0,0,1,1.37-.67,7.45,7.45,0,0,1,2.06-.3,15.72,15.72,0,0,1,3,.32c.91.18,1.77.41,2.6.65s1.69.52,2.36.74l2.33.61,4.65,1.23,9.31,2.44,9.32,2.39,9.33,2.32a4.5,4.5,0,0,1-2.18,8.74A2.52,2.52,0,0,1,93.17,169.69Z"/><path class="cls-3" d="M550,104.53c11.21-7.15,22-14.78,32.76-22.56l4-2.91,2-1.48c.19-.13.3-.23.54-.39a7.39,7.39,0,0,1,.76-.47,6.47,6.47,0,0,1,1.7-.59A6.13,6.13,0,0,1,598,78.78a5.82,5.82,0,0,1,.92,3.35l-.14,2.54a84.54,84.54,0,0,1-3.65,19.85,111,111,0,0,1-18.64,35.56c-8.18,10.73-17.93,20.21-28.34,29l0,0a4.52,4.52,0,1,1-5.83-6.91,4.44,4.44,0,0,1,.7-.49,114.31,114.31,0,0,0,30.16-24.34c1-1.23,2.15-2.44,3.18-3.7l2.9-3.92c.47-.66,1-1.29,1.42-2l1.32-2.06,1.31-2c.45-.68.88-1.37,1.26-2.09a84.79,84.79,0,0,0,7.71-17.89,77.59,77.59,0,0,0,3.2-19.15l0-2.42a2.24,2.24,0,0,0-.43-1.35,2.47,2.47,0,0,0-2.49-.93,2.37,2.37,0,0,0-.62.25l-.29.2c-.09.07-.3.25-.45.36l-1.91,1.58-3.81,3.19c-10.17,8.48-20.21,17.13-29.89,26.24a4.52,4.52,0,0,1-6.19-6.58A5.38,5.38,0,0,1,550,104.53Z"/><path class="cls-3" d="M437.32,128.58c11.71-10.18,23.35-20.24,35.2-30.14s23.8-19.63,36.34-28.7A214.55,214.55,0,0,1,528.33,57,78.66,78.66,0,0,0,546,43a110.36,110.36,0,0,0,14-17.93c2-3.24,3.93-6.51,5.65-9.9a111.84,111.84,0,0,0,4.74-10.29l.15-.36.25-.24A6.43,6.43,0,0,1,572.86,3a6,6,0,0,1,2.49-.31,5.9,5.9,0,0,1,4.28,2.46,6.52,6.52,0,0,1,1,2.34l.32,1.81c.21,1.21.4,2.43.57,3.64a138.67,138.67,0,0,1,1.29,14.68,134.73,134.73,0,0,1-2,29.44,120.75,120.75,0,0,1-8.81,28.42,116.87,116.87,0,0,1-7.06,13.25,133.06,133.06,0,0,1-8.7,12.33,4.51,4.51,0,1,1-7-5.62c.09-.11.19-.22.29-.32l0,0A98.45,98.45,0,0,0,566,82.56a106.24,106.24,0,0,0,9.87-26.49,124.86,124.86,0,0,0,3-28.36A134.26,134.26,0,0,0,578,13.4c-.14-1.18-.3-2.37-.48-3.55l-.27-1.77a2.91,2.91,0,0,0-.38-1A2.55,2.55,0,0,0,573,6.66l.39-.6a131,131,0,0,1-25.15,39.11A82.38,82.38,0,0,1,530,59.87a210.87,210.87,0,0,0-18.85,12.92c-6.09,4.62-12,9.53-17.77,14.52s-11.5,10.13-17.12,15.34C465,113.08,454,123.88,443.6,135l0,0A4.51,4.51,0,0,1,437,128.9C437.09,128.79,437.21,128.68,437.32,128.58Z"/><path class="cls-3" d="M544.26,161.07l9.33-2.32,9.32-2.39,9.31-2.44,4.65-1.23,2.33-.61c.67-.22,1.53-.51,2.36-.74s1.69-.47,2.6-.65a15.72,15.72,0,0,1,3-.32,7.45,7.45,0,0,1,2.06.3,4.9,4.9,0,0,1,1.37.67,4.27,4.27,0,0,1,1.31,1.47,4.64,4.64,0,0,1,.4,3.14,7.09,7.09,0,0,1-.65,1.85,17.08,17.08,0,0,1-3.57,4.6,18.82,18.82,0,0,1-2.13,1.73l-2,1.41c-5.34,3.66-10.66,7.2-15.87,10.93s-10.38,7.48-15.42,11.41-9.92,8-14.55,12.38c-2.31,2.18-4.55,4.42-6.65,6.77-.52.58-1,1.18-1.52,1.79s-1,1.22-1.44,1.85c-1,1.24-1.74,2.51-2.68,3.89a85.9,85.9,0,0,1-12.54,15,92.35,92.35,0,0,1-7.48,6.36,87.13,87.13,0,0,1-8.19,5.41,81.62,81.62,0,0,1-8.77,4.4,84.49,84.49,0,0,1-9.2,3.38,105.53,105.53,0,0,1-19.14,4.06,144.74,144.74,0,0,1-19.52.92c-3.26-.07-6.51-.24-9.76-.49s-6.48-.62-9.71-1q-9.69-1.26-19.23-3.41c-6.37-1.38-12.67-3.05-18.92-4.93q-4.69-1.41-9.34-3c-3.12-1.07-6.14-2.13-9.34-3.45a4.51,4.51,0,0,1,3.42-8.34l.39.19.06,0c2.63,1.39,5.56,2.77,8.41,4.06s5.81,2.47,8.76,3.62q8.85,3.42,18,6t18.52,4.29a164.27,164.27,0,0,0,18.87,2.22c3.17.15,6.34.27,9.5.2s6.33-.23,9.47-.55a100.4,100.4,0,0,0,18.6-3.52,78.6,78.6,0,0,0,32.48-18.65,82.75,82.75,0,0,0,12-14.59c.86-1.27,1.76-2.74,2.76-4.06.48-.67,1-1.33,1.51-2s1-1.27,1.57-1.89c2.13-2.5,4.38-4.86,6.7-7.14,4.64-4.55,9.52-8.8,14.5-12.92s10-8.16,15.14-12.08l15.35-11.68,1.86-1.45a17.08,17.08,0,0,0,1.56-1.36,12,12,0,0,0,2.27-3,2.27,2.27,0,0,0,.14-.42,1.15,1.15,0,0,0,.17.79,1.78,1.78,0,0,0,.51.59,2,2,0,0,0,.29.16c.06,0-.12,0-.33,0a9,9,0,0,0-1.75.27c-.66.15-1.36.36-2.06.59s-1.36.47-2.21.78l-2.29.76-4.58,1.53-9.16,3.07L556,166.5l-9.14,3.19a4.5,4.5,0,0,1-3-8.5A3,3,0,0,1,544.26,161.07Z"/></g></svg>