<svg xmlns="http://www.w3.org/2000/svg" viewBox="0 0 640 320"><defs><style>.cls-1{fill:blue;}.cls-2{fill:aqua;}.cls-3{fill:#00007f;}.cls-4{fill:#0d0a09;}</style></defs><g id="ART-fills"><path class="cls-1" d="M502.74,138.92a3.42,3.42,0,0,0-.52,1.87c-.1,23.67.68,58-42.69,62.6-.93.1-1.85.15-2.75.17-8.25,10.65-21.06,21.2-16.2,28.48,7,9,26,5,39-2l4.71-2.75a73.32,73.32,0,0,0,7-7.2C502.19,195.25,507.81,166.12,502.74,138.92Z"/><path class="cls-2" d="M507.42,140.32c-.76-2.82-3.52-3.16-4.68-1.4,5.07,27.2-.55,56.33-11.42,81.17C510.5,197.57,514.25,165.86,507.42,140.32Z"/><path class="cls-3" d="M440.58,232c-4.86-7.28,7.95-17.83,16.2-28.48-20.1.57-34.38-16.34-43.89-32.43l-30.73,60.52c14.21,14.35,43.93,20.64,71,12.62a80.39,80.39,0,0,0,31.13-17L479.58,230C466.58,237,447.58,241,440.58,232Z"/></g><g id="ART-strokes"><path class="cls-4" d="M385.33,228.52a42.5,42.5,0,0,0,7.79,6.49,24.1,24.1,0,0,0,2.24,1.34c.77.41,1.5.91,2.31,1.26,1.59.74,3.16,1.56,4.84,2.16a73.73,73.73,0,0,0,20.93,4.85A83.59,83.59,0,0,0,466,237a73.61,73.61,0,0,0,18.18-12.1l2-1.89c.67-.62,1.27-1.31,1.91-2,1.29-1.3,2.42-2.74,3.62-4.12a77,77,0,0,0,6.23-9.06c7.41-12.71,11-27.52,11.18-42.27a93.18,93.18,0,0,0-2.44-22L506,141a3,3,0,0,0-.16-.52,1.48,1.48,0,0,0-.18-.38,1.41,1.41,0,0,0-.46-.5.8.8,0,0,0-.49-.15.57.57,0,0,0-.4.13,1.49,1.49,0,0,0-.47,1.21c0,3.68,0,7.5-.09,11.27a88,88,0,0,1-3,22.7,41.51,41.51,0,0,1-12.22,19.85,40.8,40.8,0,0,1-10,6.39,60.17,60.17,0,0,1-11.13,3.73,65,65,0,0,1-11.67,1.63,40.23,40.23,0,0,1-12-1.78,47.57,47.57,0,0,1-10.88-5.27,69.34,69.34,0,0,1-9.22-7.56,96.78,96.78,0,0,1-7.79-8.81c-2.4-3.08-4.64-6.26-6.75-9.51l7.67-4.53c1.73,3.2,3.57,6.32,5.55,9.34a87.73,87.73,0,0,0,6.56,8.5,56.41,56.41,0,0,0,7.76,7.16,41.18,41.18,0,0,0,9,5,34.19,34.19,0,0,0,10.08,2,61.11,61.11,0,0,0,10.63-1c7.07-1.35,13.92-4,19.37-8.47a33.75,33.75,0,0,0,7-7.92,40.4,40.4,0,0,0,4.45-9.77,84.6,84.6,0,0,0,3.27-21.73c.17-3.73.15-7.42.2-11.24a4.58,4.58,0,0,1,1.82-3.7,3.91,3.91,0,0,1,4.39,0,5.16,5.16,0,0,1,2.12,3.23l.67,2.78a97.93,97.93,0,0,1,2.4,22.69,90.59,90.59,0,0,1-11.29,43.88,81.14,81.14,0,0,1-6.34,9.59c-1.23,1.47-2.39,3-3.72,4.4-.66.7-1.28,1.43-2,2.11l-2.06,2c-.68.69-1.42,1.3-2.14,1.94s-1.43,1.28-2.19,1.87c-1.53,1.17-3,2.4-4.62,3.46-.79.55-1.57,1.12-2.38,1.64L472.9,238l-1.24.76-1.26.68-2.55,1.38a92.26,92.26,0,0,1-44.78,9.75,82.81,82.81,0,0,1-23-4,56.9,56.9,0,0,1-21-11.83Z"/></g></svg>