<svg xmlns="http://www.w3.org/2000/svg" viewBox="0 0 640 320"><defs><style>.cls-1{fill:maroon;}.cls-2{fill:#ff0;}.cls-3{fill:red;}.cls-4{fill:#0d0a09;}</style></defs><g id="ART-fills"><path class="cls-1" d="M509.36,124.59c-25.53-21-68.38-15.63-91.1,8.75-23.45,25.16-52.32,104.92-18.51,111.2a99.47,99.47,0,0,0,18.66,1.61C460.93,217.54,497.5,174.08,509.36,124.59Z"/><path class="cls-2" d="M505.12,190c-18.34,20.84-38.76,37.5-60.11,52.9,22.39-5.23,43.44-16.55,57.46-31.59,9.41-10.1,16.8-21.94,20.67-34A55.49,55.49,0,0,0,505.12,190Z"/><path class="cls-3" d="M511.76,126.69q-1.17-1.09-2.4-2.1c-11.86,49.49-48.43,92.95-90.95,121.56a119.85,119.85,0,0,0,26.6-3.21c21.35-15.4,41.77-32.06,60.11-52.9a55.49,55.49,0,0,1,18-12.72C528.92,159.29,526.83,140.73,511.76,126.69Z"/><path class="cls-2" d="M510.47,178.25c-2.31.7.29-12.72-1.4-18.29s1-18.6,3.28-19.3,5.39,10.89,5.09,16.76S512.78,177.55,510.47,178.25Z"/></g><g id="ART-strokes"><path class="cls-4" d="M417.5,132.63a54.24,54.24,0,0,1,21.59-18,79.12,79.12,0,0,1,27.67-6.51A69.83,69.83,0,0,1,495,112.34a57.23,57.23,0,0,1,23.63,16.44,46.15,46.15,0,0,1,10.87,26.9,53.89,53.89,0,0,1,0,7.3,63.81,63.81,0,0,1-1,7.18,72.53,72.53,0,0,1-4.13,13.71A96.86,96.86,0,0,1,509.8,208c-1.49,1.82-3,3.58-4.63,5.31s-3.35,3.33-5,5l-5.37,4.58-5.66,4.19a121.59,121.59,0,0,1-24.76,13,130.82,130.82,0,0,1-26.91,7.3,116.12,116.12,0,0,1-27.88,1.13c-1.16-.11-2.32-.18-3.48-.31l-3.47-.53-3.48-.55a21.64,21.64,0,0,1-3.72-1.09,18.64,18.64,0,0,1-6.55-4.33,22,22,0,0,1-4.21-6.44A38.68,38.68,0,0,1,381.93,221,80.61,80.61,0,0,1,383,207a147.37,147.37,0,0,1,7.11-26.76A191.55,191.55,0,0,1,401.31,155a110.34,110.34,0,0,1,7.28-11.75,62.31,62.31,0,0,1,9.1-10.44Zm1.32,1.24a163.69,163.69,0,0,0-14.06,23,185.79,185.79,0,0,0-10.65,24.79,143.31,143.31,0,0,0-6.55,26,76.09,76.09,0,0,0-.82,13.18,34.07,34.07,0,0,0,2.49,12.38,16.85,16.85,0,0,0,3.28,4.89,13.22,13.22,0,0,0,4.79,3.07,17.37,17.37,0,0,0,2.83.79l3.27.46,3.28.47c1.1.1,2.21.15,3.31.24a110.19,110.19,0,0,0,26.52-1.44,125.51,125.51,0,0,0,25.59-7.3,115.53,115.53,0,0,0,23.33-12.64l5.28-4,5-4.31c1.54-1.56,3.11-3.08,4.63-4.66s2.93-3.3,4.31-5a90.13,90.13,0,0,0,13.44-22.49,66.07,66.07,0,0,0,3.64-12.42,56.79,56.79,0,0,0,.8-6.35,47.72,47.72,0,0,0,0-6.33,39.75,39.75,0,0,0-9.26-22.87,50.33,50.33,0,0,0-20.71-14.39,62.93,62.93,0,0,0-25.39-3.8A72.29,72.29,0,0,0,441.9,121a126.9,126.9,0,0,0-11.79,5.62A77.75,77.75,0,0,0,419,134.05Z"/></g></svg>