<svg xmlns="http://www.w3.org/2000/svg" viewBox="0 0 640 320"><defs><style>.cls-1{fill:#e44e8d;}.cls-2{fill:#ff8abf;}.cls-3{fill:#cc2e76;}.cls-4{fill:#0d0a09;}</style></defs><g id="ART-fills"><path class="cls-1" d="M190.62,47.84H149.21S152,171,143.7,226s-20,78.43-20,78.43,6.94-10.05,22.05-13.59c12-17.91,24.66-35.1,29.35-57.8,5-23,2-45,7-68C190.88,125.2,192,86.64,190.62,47.84Z"/><path class="cls-2" d="M223.12,150c5.25-34.48,2.07-68.4-.27-102.18H190.62c1.41,38.8.26,77.36-8.5,117.18-5,23-2,45-7,68-4.69,22.7-17.36,39.89-29.35,57.8,7.24-1.71,16.36-1.92,27.51,1.2,1.65.46,3.24.93,4.8,1.41-1.87-15.88,3.33-32.41,9-47.41C200.12,214,218.12,184,223.12,150Z"/><path class="cls-1" d="M261.16,47.84H222.85c2.34,33.78,5.52,67.7.27,102.18-5,34-23,64-36,96-5.71,15-10.91,31.53-9,47.41,10.27,3.1,18.65,6.37,26.31,9,20.16-31.5,41.6-61.19,48.73-100.42C262.24,150.05,261.38,98.91,261.16,47.84Z"/><path class="cls-3" d="M249.12,283c7.16-80.5,63.1-154.6,56.95-235.18H261.16c.22,51.07,1.08,102.21-8,154.18-7.13,39.23-28.57,68.92-48.73,100.42,15.39,5.31,27.82,8.09,46.63,2,1-.34,2.08-.66,3.14-1C251.13,296.7,248.48,290.06,249.12,283Z"/><path class="cls-1" d="M340.12,111c-1.86-21.45-11.54-41.16-15.28-63.18H306.07c6.15,80.58-49.79,154.68-56.95,235.18-.64,7,2,13.68,5,20.43,19.52-5.52,42.48-4.76,55.53-3.66C327.53,238.62,344.81,175.7,340.12,111Z"/><path class="cls-3" d="M388.12,188c-6-40-13-78-16-118a158.11,158.11,0,0,1,.36-22.18H343.79c1.72,36.39,3,72.79.33,109.18-3,44-12,87-7,131a87.1,87.1,0,0,0,2.33,11.2,179.75,179.75,0,0,1,32.87,1.35C383.54,263.84,392.58,226.33,388.12,188Z"/><path class="cls-1" d="M410.47,47.84h-38A158.11,158.11,0,0,0,372.12,70c3,40,10,78,16,118,4.46,38.31-4.58,75.82-15.8,112.55a101.3,101.3,0,0,1,17.06,3.84c20.9,6.8,33.9,2.61,51.87-3.83-5.47-30.45-21.81-57.84-34.13-86.56C384,159.82,402,103.27,410.47,47.84Z"/><path class="cls-3" d="M449.12,218c-5.34-57.84,5.95-114.1,17.66-170.18H410.47C402,103.27,384,159.82,407.12,214c12.32,28.72,28.66,56.11,34.13,86.56,4.95-1.77,10.28-3.71,16.26-5.65C460.47,269.87,451.39,243.66,449.12,218Z"/><path class="cls-2" d="M461.12,167c4-38,17-73,26-111,.59-2.73,1.07-5.45,1.51-8.18H466.78c-11.71,56.08-23,112.34-17.66,170.18,2.27,25.64,11.35,51.85,8.39,76.91,3-1,6.2-2,9.6-2.91a56.7,56.7,0,0,1,24.27-1.85C473.84,251.23,455.72,211.15,461.12,167Z"/><path class="cls-1" d="M496.69,226c-8.25-55-5.5-178.14-5.5-178.14h-2.56c-.44,2.73-.92,5.45-1.51,8.18-9,38-22,73-26,111-5.4,44.13,12.72,84.21,30.26,123.15,17.37,2.75,25.3,14.24,25.3,14.24S505,281,496.69,226Z"/><path class="cls-2" d="M344.12,157c2.67-36.39,1.39-72.79-.33-109.18h-19c3.74,22,13.42,41.73,15.28,63.18,4.69,64.68-12.59,127.6-30.43,188.77,6.46.55,10.51,1.18,10.51,1.18a192.9,192.9,0,0,1,19.25-1.75,87.1,87.1,0,0,1-2.33-11.2C332.12,244,341.12,201,344.12,157Z"/></g><g id="ART-strokes"><path class="cls-4" d="M491.49,47.85l.4,32.44.64,32.42c.51,21.6,1.17,43.2,2.39,64.74.36,5.38.63,10.77,1.08,16.14l.61,8,.78,8c.46,5.36,1.28,10.65,1.95,16,.88,5.31,1.7,10.63,2.67,15.92.44,2.65,1,5.29,1.49,7.92s1.05,5.27,1.63,7.9,1.13,5.25,1.74,7.86,1.25,5.22,1.9,7.83c1.35,5.19,2.76,10.36,4.36,15.47.79,2.55,1.64,5.09,2.53,7.6s1.87,5,2.91,7.32v0a2.12,2.12,0,0,1-3.65,2.13,20.28,20.28,0,0,0-1.83-2.2c-.66-.75-1.41-1.42-2.14-2.12s-1.53-1.31-2.33-1.93-1.62-1.21-2.49-1.73-1.72-1.09-2.63-1.55l-2.73-1.35-2.85-1.1c-.95-.39-2-.59-2.93-.89l-1.48-.42L492,292c-1-.17-2-.38-3-.52l-3.08-.24c-.51,0-1-.09-1.54-.11l-1.55,0-3.11.07c-1,0-2.06.23-3.09.33l-3.1.38-3.06.67A224,224,0,0,0,446.11,300c-4,1.4-8.05,2.81-12.11,4.16a105.11,105.11,0,0,1-12.43,3.4,62.68,62.68,0,0,1-12.9,1.24,58.32,58.32,0,0,1-6.47-.49c-1.07-.16-2.15-.23-3.21-.47l-3.17-.66c-1.06-.2-2.09-.5-3.13-.8l-3.11-.89-6.09-1.73c-2.06-.43-4.12-.91-6.19-1.3s-4.17-.7-6.27-1a164.91,164.91,0,0,0-25.34-1.09q-6.35.17-12.67.73c-4.21.35-8.45.83-12.57,1.48a2.26,2.26,0,0,1-.45,0h-.06c-4.13-.54-8.38-.9-12.59-1.15s-8.44-.4-12.66-.39a178.71,178.71,0,0,0-25.16,1.66c-2.08.29-4.12.7-6.18,1.05s-4.06.92-6.09,1.38l-6,1.78-3.16.95a31.18,31.18,0,0,1-3.19.85l-3.23.72c-1.08.25-2.2.34-3.29.52a59.23,59.23,0,0,1-6.66.57,62.21,62.21,0,0,1-13.29-1.21,108.81,108.81,0,0,1-12.64-3.44c-4.12-1.34-8.14-2.79-12.15-4.19s-8-2.8-12-4l-3-1-3-.87-3-.88-3-.68-3-.68-3-.4c-1-.11-2-.3-3-.35l-3-.09-1.51-.05c-.5,0-1,.06-1.49.09l-3,.2c-1,.13-2,.33-2.94.48l-1.46.25-1.43.39a37.72,37.72,0,0,0-10.83,4.59c-.85.5-1.62,1.11-2.44,1.65s-1.53,1.21-2.28,1.83-1.45,1.31-2.09,2c-.35.34-.65.7-1,1.05-.16.18-.31.36-.44.53l-.36.46-.07.1a3.2,3.2,0,0,1-5.42-3.35c.49-1,1-2.3,1.53-3.5s1-2.45,1.44-3.68q1.38-3.72,2.63-7.53c1.66-5.06,3.13-10.2,4.55-15.37,2.77-10.34,5.06-20.84,7-31.4,1-5.28,1.85-10.59,2.74-15.9.7-5.3,1.55-10.58,2-15.94l.82-8,.64-8c.48-5.37.76-10.75,1.13-16.13,1.27-21.54,2.06-43.14,2.56-64.74l.61-32.42q.24-16.22.35-32.44a.3.3,0,0,1,.3-.3.31.31,0,0,1,.3.29c.52,10.81.84,21.62,1.13,32.44s.49,21.63.55,32.45c.17,21.65.1,43.3-.78,65-.26,5.41-.4,10.83-.79,16.25l-.52,8.13-.7,8.12c-.39,5.42-1.17,10.84-1.79,16.27l-1.23,8.06c-.39,2.69-.91,5.36-1.36,8-1.9,10.71-4.14,21.38-6.87,31.95-1.38,5.28-2.85,10.54-4.59,15.75-.86,2.6-1.77,5.2-2.73,7.78-.5,1.29-1,2.58-1.52,3.86s-1.06,2.53-1.73,3.93l-5.5-3.25c.24-.34.43-.56.62-.81s.39-.48.58-.7c.39-.45.78-.9,1.19-1.31.8-.86,1.67-1.63,2.52-2.41s1.78-1.47,2.7-2.16,1.87-1.35,2.86-1.93,2-1.19,3-1.7l3.11-1.47,3.23-1.18c1.07-.41,2.2-.61,3.3-.93l1.66-.43,1.68-.27c1.13-.17,2.25-.38,3.38-.51l3.39-.2c.56,0,1.13-.07,1.69-.08l1.69.07,3.38.14c1.12.07,2.22.29,3.33.42l3.32.48,3.24.77,3.24.78,3.1.93,3.09.93,3.07,1c4.1,1.32,8.14,2.77,12.16,4.23,8,2.89,15.92,6,23.95,7.67a59.63,59.63,0,0,0,12.1,1.27,56.28,56.28,0,0,0,6.08-.42c1-.15,2-.2,3-.42l3-.61c1-.18,2-.46,3-.74l3-.84,6.31-1.75c2.13-.44,4.26-.93,6.4-1.33s4.29-.71,6.44-1a168.08,168.08,0,0,1,25.84-1.07c4.3.11,8.59.38,12.87.76s8.53.85,12.83,1.53h-.51c4.32-.57,8.57-.94,12.86-1.2s8.56-.42,12.85-.42a182.2,182.2,0,0,1,25.67,1.64c2.13.29,4.24.71,6.36,1.06s4.19.94,6.29,1.41l6.19,1.81,3,.89a29.22,29.22,0,0,0,3.06.79l3.08.66c1,.24,2.07.31,3.11.47a57,57,0,0,0,6.26.51,58.46,58.46,0,0,0,12.5-1.25c8.24-1.73,16.19-4.8,24.19-7.74,4-1.46,8-2.93,12.09-4.26l3-1,3.06-1,3.07-.95,3.16-.79,3.16-.79,3.24-.5c1.08-.14,2.15-.36,3.24-.44l3.28-.17,1.64-.08c.55,0,1.1,0,1.65.06l3.3.16c1.09.12,2.18.31,3.28.47l1.64.24,1.61.41c1.06.29,2.17.48,3.21.87l3.14,1.11,3,1.39c1,.48,1.95,1.08,2.93,1.61s1.87,1.23,2.8,1.84,1.79,1.35,2.65,2.06,1.69,1.48,2.48,2.31c.4.39.78.82,1.17,1.25.19.21.38.43.56.66s.37.45.58.74l-3.64,2.16c-1.28-2.6-2.29-5.08-3.31-7.65s-1.93-5.13-2.82-7.71-1.73-5.18-2.54-7.78-1.54-5.24-2.25-7.86-1.42-5.26-2.05-7.91-1.31-5.29-1.88-7.95-1.16-5.31-1.67-8-1.08-5.33-1.54-8-1-5.34-1.41-8l-1.25-8c-.65-5.42-1.45-10.83-1.87-16.25l-.73-8.12-.55-8.12c-.42-5.41-.57-10.83-.85-16.25-.93-21.66-1.11-43.31-.95-65q.12-16.23.59-32.45c.3-10.82.63-21.63,1.19-32.44a.3.3,0,0,1,.6,0Z"/></g></svg>