<svg xmlns="http://www.w3.org/2000/svg" viewBox="0 0 640 320"><defs><style>.cls-1{fill:aqua;}.cls-2{fill:#00007f;}.cls-3{fill:blue;}.cls-4{fill:none;stroke:#0d0a09;stroke-miterlimit:10;stroke-width:6.24px;}</style></defs><g id="ART-fills"><path class="cls-1" d="M154,190.76a24.58,24.58,0,0,0,5,4c39.5,26.81,92.67,43.87,151.53,45.66-45.65-8.78-92.16-22.52-128.26-54.21C172.79,187.38,163.38,188.85,154,190.76Z"/><path class="cls-2" d="M495.49,110.78a195.55,195.55,0,0,0-10.3-27.4l-164.45-.89-164.45.89A194.31,194.31,0,0,0,146,110.78c-14.41,49.22-.22,71.69,8,80,54.62-11.19,111-7.22,166.73-8.64,55.75,1.42,112.11-2.55,166.73,8.64C495.7,182.47,509.89,160,495.49,110.78Z"/><path class="cls-1" d="M487.47,190.76a24.58,24.58,0,0,1-5,4C443,221.61,389.83,238.67,331,240.46c45.65-8.78,92.15-22.52,128.26-54.21C468.69,187.38,478.11,188.85,487.47,190.76Z"/><path class="cls-3" d="M320.74,182.12c-46.18,1.18-92.8-1.34-138.49,4.13,36.1,31.69,82.61,45.43,128.26,54.21,3.39.1,6.8.16,10.23.16s6.84-.06,10.24-.16c45.65-8.78,92.15-22.52,128.26-54.21C413.54,180.78,366.93,183.3,320.74,182.12Z"/></g><g id="ART-strokes"><path class="cls-4" d="M155,83a196.46,196.46,0,0,0-10.47,27.77c-19.37,66.21,13,84,13,84,41.78,28.36,98.84,45.82,161.76,45.82s120-17.46,161.76-45.82c0,0,32.36-17.81,13-84A195.24,195.24,0,0,0,483.54,83"/></g></svg>