<svg xmlns="http://www.w3.org/2000/svg" viewBox="0 0 640 320"><defs><style>.cls-1{fill:aqua;}.cls-2{fill:#00007f;}.cls-3{fill:blue;}.cls-4{fill:none;stroke:#0d0a09;stroke-miterlimit:10;stroke-width:6.5px;}</style></defs><g id="ART-fills"><path class="cls-1" d="M188.22,188.92c-7.46,1.25-14.88,2.72-22.25,4.46,6.37,11,16.6,20.17,32.76,27.28,17.78,7.82,82.16,17.6,112.15,19.6-19.2-7.17-39-10.36-58.88-17.26C229.25,215.42,203.64,207.25,188.22,188.92Z"/><path class="cls-2" d="M481.62,79H158.38c0,47.34-8.47,86.67,7.59,114.38,7.37-1.74,14.79-3.21,22.25-4.46C231.49,181.67,276,182,320,182s88.51-.33,131.78,6.92c7.46,1.25,14.88,2.72,22.25,4.46C490.09,165.67,481.62,126.34,481.62,79Z"/><path class="cls-1" d="M451.78,188.92c7.46,1.25,14.88,2.72,22.25,4.46-6.37,11-16.6,20.17-32.76,27.28-17.78,7.82-82.16,17.6-112.15,19.6,19.2-7.17,39-10.36,58.88-17.26C410.75,215.42,436.36,207.25,451.78,188.92Z"/><path class="cls-3" d="M320,182c-44,0-88.51-.33-131.78,6.92,15.42,18.33,41,26.5,63.78,34.08,19.84,6.9,39.68,10.09,58.88,17.26,3.57.23,6.66.36,9.12.36s5.55-.13,9.12-.36c19.2-7.17,39-10.36,58.88-17.26,22.75-7.58,48.36-15.75,63.78-34.08C408.51,181.67,364,182,320,182Z"/></g><g id="ART-strokes"><path class="cls-4" d="M481.62,79c0,66.13,16.53,116.64-40.35,141.66-19.9,8.75-98.14,20-121.27,20s-101.37-11.21-121.27-20c-56.88-25-40.35-75.53-40.35-141.66"/></g></svg>