<svg xmlns="http://www.w3.org/2000/svg" viewBox="0 0 640 320"><defs><style>.cls-1{fill:#00007f;}.cls-2{fill:aqua;}.cls-3{fill:blue;}.cls-4{fill:none;stroke:#0d0a09;stroke-miterlimit:10;stroke-width:6.5px;}</style></defs><g id="ART-fills"><path class="cls-1" d="M320,65.27c-44.6,0-85-12.07-114.23-13,12.39,56.2,54.07,110.07,114.23,111.3,60.16-1.23,101.84-55.1,114.23-111.3C405,53.2,364.6,65.27,320,65.27Z"/><path class="cls-2" d="M196.49,52.41c-1,.06-2,.13-2.9.24-22,2.43-35.21,15.45-35.21,53.53A161.27,161.27,0,0,0,213.74,228l1,.89A141.19,141.19,0,0,1,205,204.36C187.5,157.37,174.24,100.21,196.49,52.41Z"/><path class="cls-2" d="M443.51,52.41c1,.06,1.95.13,2.9.24,22,2.43,35.21,15.45,35.21,53.53A161.27,161.27,0,0,1,426.26,228l-1,.89A141.19,141.19,0,0,0,435,204.36C452.5,157.37,465.76,100.21,443.51,52.41Z"/><path class="cls-1" d="M228.79,239.61a160.63,160.63,0,0,0,74.32,27.31,162.39,162.39,0,0,0,16.89.88h0a162.39,162.39,0,0,0,16.89-.88,160.63,160.63,0,0,0,74.71-27.59C351.17,253.88,287.47,258.34,228.79,239.61Z"/><path class="cls-3" d="M411.6,239.33a159.35,159.35,0,0,0,13.62-10.48A141.19,141.19,0,0,0,435,204.36c17.5-47,30.76-104.15,8.51-152l-1.38-.09c-2.54-.13-5.16-.15-7.9-.07-12.39,56.2-54.08,110.07-114.23,111.3-60.16-1.23-101.84-55.1-114.23-111.3-2.74-.08-5.36-.06-7.9.07l-1.38.09c-22.25,47.8-9,105,8.51,152a141.19,141.19,0,0,0,9.78,24.49,163.07,163.07,0,0,0,14,10.76C287.47,258.34,351.17,253.88,411.6,239.33Z"/></g><g id="ART-strokes"><path class="cls-4" d="M158.38,106.18c0-89.26,72.36-40.91,161.62-40.91s161.62-48.35,161.62,40.91a161.62,161.62,0,0,1-323.24,0Z"/></g></svg>