<svg xmlns="http://www.w3.org/2000/svg" viewBox="0 0 320 640"><defs><style>.cls-1{fill:#00007f;}.cls-2{fill:blue;}.cls-3{fill:aqua;}.cls-4{fill:#0d0a09;}.cls-5{fill:none;stroke:#0d0a09;stroke-miterlimit:10;}</style></defs><g id="ART-strokes"><path class="cls-1" d="M139.11,214.43c-1.61,1.48-3.22,2.95-4.69,4.56.24,3.88.64,8,1.23,12.36l23.37-.24s4.08-5.49,6-15.54C147.7,204.68,158,203,139.11,214.43Z"/><path class="cls-2" d="M143.72,192.05a47.28,47.28,0,0,1-3.05-16c-3.93,7.69-7.58,21.61-6.25,43,1.47-1.61,3.08-3.08,4.69-4.56,18.87-11.43,8.59-9.75,25.94,1.14,1.07-5.49,1.83-17,.63-25C159.72,198,146.51,201,143.72,192.05Z"/><path class="cls-3" d="M160.89,173.09c-1.6-4-13.19-5-14.76-4.05s-3.52,3.18-5.46,7a47.28,47.28,0,0,0,3.05,16c2.79,9,16,5.91,22-1.49A79.28,79.28,0,0,0,160.89,173.09Z"/><path class="cls-1" d="M149.36,219.94a22.61,22.61,0,0,0-8.91,1.57c15.72,2.12,28,17.87,31.82,33.06A20.33,20.33,0,0,1,171,267.9c.42.74.83,1.48,1.23,2.23-.4-.75-.81-1.49-1.23-2.23a38.16,38.16,0,0,1-5.13,8.59c-8.83,8.82-18,16.62-28.68,22.23,2.83,1.62,6.73,2.5,12.13,2.5a40.64,40.64,0,0,0,0-81.28Z"/><path class="cls-2" d="M131.65,232.37c-2.37,8.27-1.49,19.73-1.49,31.47,0,17.05-1.86,29.75,7.07,34.88,10.68-5.61,19.85-13.41,28.68-22.23A38.16,38.16,0,0,0,171,267.9,84.54,84.54,0,0,0,131.65,232.37Z"/><path class="cls-3" d="M140.45,221.51c-4.74,2-7.37,5.85-8.8,10.86A84.54,84.54,0,0,1,171,267.9a20.33,20.33,0,0,0,1.23-13.33C168.47,239.38,156.17,223.63,140.45,221.51Z"/><path class="cls-4" d="M160.94,224.54a32.4,32.4,0,0,0,2.56-7.48,48.19,48.19,0,0,0,1.06-7.82,58.4,58.4,0,0,0-1.29-15.56,119,119,0,0,0-4.53-14.9c-.44-1.23-.92-2.44-1.39-3.65l-.18-.46,0-.09v0a.41.41,0,0,0,0,.09c0,.09.09.12.05.09a3.41,3.41,0,0,0-.69-.44,12.78,12.78,0,0,0-2.89-1,25.79,25.79,0,0,0-3.43-.53c-.58,0-1.15-.08-1.68-.08s-1.11.06-1,0a.84.84,0,0,0,.23-.07l.31-.14.14-.08,0,0-.26.16-.54.4a14.59,14.59,0,0,0-1.12,1,23.92,23.92,0,0,0-3.91,5.63,44.24,44.24,0,0,0-2.81,6.88,72.3,72.3,0,0,0-1.85,7.48c-1.92,10.27-2,21.08-1.92,31.95l-1,.13a111.32,111.32,0,0,1-3-16.19c-.16-1.38-.27-2.76-.38-4.14s-.16-2.77-.19-4.17a74,74,0,0,1,.22-8.41,60.67,60.67,0,0,1,1.25-8.48,43.2,43.2,0,0,1,2.7-8.4,28.25,28.25,0,0,1,5-7.86,19.68,19.68,0,0,1,1.87-1.75,13.21,13.21,0,0,1,1.08-.81l.6-.39.07,0,.25-.13a4.46,4.46,0,0,1,.55-.25c.26-.1.47-.16.71-.23a12.81,12.81,0,0,1,3-.3c.83,0,1.61,0,2.39.1a33,33,0,0,1,4.59.74,20.71,20.71,0,0,1,4.77,1.71,10.92,10.92,0,0,1,2.63,1.87,8,8,0,0,1,1.3,1.68,5.6,5.6,0,0,1,.27.55l.13.28.05.14.19.5c.47,1.32,1,2.63,1.39,4a66,66,0,0,1,2.09,8.22,70.58,70.58,0,0,1,1,8.45,64.37,64.37,0,0,1-1.11,16.87,39.45,39.45,0,0,1-6.49,15.38Z"/><path class="cls-5" d="M149.36,219.94c-22.44,0-19.2,21.46-19.2,43.9s-3.24,37.38,19.2,37.38a40.64,40.64,0,0,0,0-81.28Z"/><path class="cls-4" d="M149.36,223.09a23.42,23.42,0,0,0-6.3.7,12,12,0,0,0-5,2.78,14,14,0,0,0-3.21,5,29.36,29.36,0,0,0-1.59,6.46,92.71,92.71,0,0,0-.66,14.14c.05,4.81.17,9.7.16,14.59s-.18,9.73,0,14.42a43.15,43.15,0,0,0,.75,6.78,19.91,19.91,0,0,0,.87,3,12.83,12.83,0,0,0,1.38,2.54,9.7,9.7,0,0,0,1.93,1.91,11.48,11.48,0,0,0,2.51,1.31,21.33,21.33,0,0,0,6.2,1.15c1.1.07,2.24.08,3.36,0l3.34-.23,3.29-.56c1.1-.2,2.15-.57,3.23-.84a37.15,37.15,0,0,0,11.72-6.06,38.42,38.42,0,0,0,8.88-9.68,36.51,36.51,0,0,0,4.95-12.09,38.86,38.86,0,0,0,.43-13,38.31,38.31,0,0,0-3.95-12.44,37.6,37.6,0,0,0-8.06-10.34,37,37,0,0,0-11.2-7A38.26,38.26,0,0,0,149.36,223.09Zm0-6.3a44.6,44.6,0,0,1,29,10.38,44.15,44.15,0,0,1,10.1,12.15,42.94,42.94,0,0,1,5,15.06,43.88,43.88,0,0,1-32.05,48.5c-1.28.29-2.54.67-3.84.86s-2.6.37-3.89.53l-3.92.13a36.64,36.64,0,0,1-3.91-.17,27.37,27.37,0,0,1-8-1.81,17.32,17.32,0,0,1-3.83-2.2,15.6,15.6,0,0,1-3.1-3.29,20.46,20.46,0,0,1-3-7.86,48.46,48.46,0,0,1-.66-7.67c-.08-5,.13-9.84.21-14.65s0-9.6-.09-14.48a124.67,124.67,0,0,1,.46-14.89,37.66,37.66,0,0,1,1.65-7.69,19.69,19.69,0,0,1,4.31-7.26A18,18,0,0,1,141.3,218,28.75,28.75,0,0,1,149.36,216.79Z"/></g></svg>