<svg xmlns="http://www.w3.org/2000/svg" viewBox="0 0 640 320"><defs><style>.cls-1{fill:aqua;}.cls-2{fill:blue;}.cls-3{fill:#00007f;}.cls-4{fill:none;stroke:#0d0a09;stroke-miterlimit:10;stroke-width:6.5px;}</style></defs><g id="ART-fills"><path class="cls-1" d="M213.67,196.36c-6-27-32-42-24-72,5-20,15-40,29-55,2.11-2.82.75-11.11-.24-19.25l-9.81-.31-12.9-.4L197,63.88c-17.44,14.19-28.08,42.67-34.47,69-6,24.83,5.89,50.93,29.06,61.69,10.91,5.06,20.77,14.77,24.15,32.82.17.88.33,1.76.47,2.68l.12.09C218.55,218.9,216.67,207.63,213.67,196.36Z"/><path class="cls-1" d="M426.33,196.36c6-27,32-42,24-72-5-20-15-40-29-55-2.11-2.82-.75-11.11.24-19.25l9.81-.31,12.9-.4L443,63.88c17.44,14.19,28.08,42.67,34.47,69,6,24.83-5.89,50.93-29.06,61.69-10.91,5.06-20.76,14.77-24.15,32.82-.17.88-.33,1.76-.47,2.68l-.12.09C421.45,218.9,423.33,207.63,426.33,196.36Z"/><path class="cls-2" d="M450.33,124.36c-5-20-15-40-29-55-2.11-2.82-.75-11.11.24-19.25l-14.19.44c5.9,51.92-24.85,104.62-75.78,112.94a72,72,0,0,1-23.2,0c-50.93-8.32-81.68-61-75.78-112.94l-14.19-.44c1,8.14,2.35,16.43.24,19.25-14,15-24,35-29,55-8,30,18,45,24,72,3,11.27,4.88,22.54,2.66,33.81a161.62,161.62,0,0,0,207.34,0c-2.22-11.27-.34-22.54,2.66-33.81C432.33,169.36,458.33,154.36,450.33,124.36Z"/><path class="cls-3" d="M407.38,50.55,320,53.29l-87.38-2.74c-4.65,40.93,13.47,82.34,46.3,102.11a79.31,79.31,0,0,0,82.16,0C393.91,132.89,412,91.48,407.38,50.55Z"/><path class="cls-3" d="M419.14,233.83c6.72-8.1,16.53-34.36,17.57-63.08a1.08,1.08,0,0,0-2.14-.28,100.75,100.75,0,0,1-47.25,65.35c-48,28.55-71.75,32-71.75,32s38.15,1.29,63-10.95,40.54-23,40.54-23"/><path class="cls-3" d="M220.86,233.83c-6.72-8.1-16.54-34.36-17.58-63.08a1.09,1.09,0,0,1,2.15-.28,100.73,100.73,0,0,0,47.24,65.35c48,28.55,71.76,32,71.76,32s-38.15,1.29-63-10.95-40.54-23-40.54-23"/></g><g id="ART-strokes"><path class="cls-4" d="M477.47,132.88c-6.39-26.34-17-54.81-34.47-69l1.28-14.48L320,53.28,195.72,49.4,197,63.88c-17.44,14.19-28.08,42.67-34.47,69-6,24.83,5.89,50.93,29.06,61.69,11.44,5.31,21.74,15.7,24.62,35.5a161.65,161.65,0,0,0,207.58,0c2.88-19.8,13.17-30.18,24.61-35.5C471.58,183.81,483.49,157.71,477.47,132.88Z"/></g></svg>