<svg xmlns="http://www.w3.org/2000/svg" viewBox="0 0 640 320"><defs><style>.cls-1{fill:aqua;}.cls-2{fill:blue;}.cls-3{fill:#00007f;}.cls-4{fill:none;stroke:#0d0a09;stroke-miterlimit:10;stroke-width:6.5px;}</style></defs><g id="ART-fills"><path class="cls-1" d="M223,97.36C216.47,82.67,215.94,66,216,50l-4.77-.15-15.47-.48,3.59,40.84c-37.34,30.38-47.54,86.34-36.24,108.41,8,15.69,27.1,17.49,42.84,25a54.12,54.12,0,0,1,6.44,3.61C174.66,191.41,183.55,129.11,223,97.36Z"/><path class="cls-1" d="M417,97.36C423.53,82.67,424.06,66,424,50l4.77-.15,15.47-.48-3.59,40.84c37.34,30.38,47.54,86.34,36.24,108.41-8,15.69-27.1,17.49-42.84,25a54.12,54.12,0,0,0-6.44,3.61C465.34,191.41,456.45,129.11,417,97.36Z"/><path class="cls-2" d="M417,97.36C423.53,82.67,424.06,66,424,50L414,50.34c-2.25,48.93-30.86,95.93-74.72,111.2a58.69,58.69,0,0,1-38.52,0C256.88,146.27,228.27,99.27,226,50.34L216,50c0,16,.51,32.64,7,47.33-39.45,31.75-48.34,94.05-10.65,129.89a40.62,40.62,0,0,1,3.86,2.83,161.65,161.65,0,0,0,207.58,0,40.62,40.62,0,0,1,3.86-2.83C465.34,191.41,456.45,129.11,417,97.36Z"/><path class="cls-3" d="M320,53.29l-94-2.95c2.25,48.93,30.86,95.93,74.72,111.2a58.61,58.61,0,0,0,38.52,0c43.86-15.27,72.47-62.27,74.72-111.2Z"/><path class="cls-3" d="M427.65,227.25c14.07-8.51,22.89-27.78,24.06-56.5.05-1.31-2.09-1.56-2.42-.28C445,187.35,432.55,216.52,396,235.82c-54.13,28.55-81,32-81,32s43.05,1.29,71.13-10.95S427.65,227.25,427.65,227.25Z"/><path class="cls-3" d="M212.35,227.25c-14.07-8.51-22.89-27.78-24.06-56.5,0-1.31,2.09-1.56,2.42-.28,4.25,16.88,16.74,46.05,53.31,65.35,54.13,28.55,81,32,81,32s-43.05,1.29-71.13-10.95S212.35,227.25,212.35,227.25Z"/></g><g id="ART-strokes"><path class="cls-4" d="M440.69,90.24l3.59-40.84L320,53.28,195.72,49.4l3.59,40.84c-37.34,30.38-47.54,86.34-36.24,108.41,9.92,19.36,36.61,17.57,53.14,31.43a161.65,161.65,0,0,0,207.58,0C440.32,216.22,467,218,476.93,198.65,488.23,176.58,478,120.62,440.69,90.24Z"/></g></svg>