<svg xmlns="http://www.w3.org/2000/svg" viewBox="0 0 640 320"><defs><style>.cls-1{fill:#00007f;}.cls-2{fill:aqua;}.cls-3{fill:blue;}.cls-4{fill:none;stroke:#0d0a09;stroke-miterlimit:10;stroke-width:6.5px;}</style></defs><g id="ART-fills"><path class="cls-1" d="M412.51,50.39,320,53.29l-92.51-2.9c-3.21,29.17-.75,59.41,18.46,82,18.9,22.67,45.83,31.06,74.05,31.92,28.22-.86,55.15-9.25,74.05-31.92C413.26,109.8,415.72,79.56,412.51,50.39Z"/><path class="cls-2" d="M217,86.36a128.16,128.16,0,0,1-5.75-36.48l-15.48-.48L197,63.88c-35.94,29.24-73.58,93.57-38.59,168.75.32.69.66,1.39,1,2.08C153.78,178.91,165.24,111.79,217,86.36Z"/><path class="cls-2" d="M423.05,86.36a128.16,128.16,0,0,0,5.75-36.48l15.48-.48L443,63.88c35.94,29.24,73.58,93.57,38.6,168.75-.33.69-.67,1.39-1,2.08C486.22,178.91,474.76,111.79,423.05,86.36Z"/><path class="cls-3" d="M423.05,86.36a128.16,128.16,0,0,0,5.75-36.48L425,50l-12.5.39c3.21,29.17.75,59.41-18.46,82C375.15,155,348.22,163.42,320,164.28c-28.22-.86-55.15-9.25-74.05-31.92-19.21-22.56-21.67-52.8-18.46-82L215,50l-3.79-.12A128.16,128.16,0,0,0,217,86.36c-51.71,25.43-63.17,92.55-57.54,148.35,1.08,2.26,2.21,4.52,3.43,6.8C178.37,270.45,204,280,202.65,273.62c-13.63-33-5.29-37.13,13.56-43.54a161.65,161.65,0,0,0,207.58,0c18.85,6.41,27.19,10.55,13.56,43.54-1.33,6.34,24.28-3.17,39.81-32.11,1.22-2.28,2.35-4.54,3.43-6.8C486.22,178.91,474.76,111.79,423.05,86.36Z"/><path class="cls-1" d="M425.53,230.67c5.49-3.32,17.56,15.61,17.56,12,0-18.61,8.81-54.44,9.53-71.94.05-1.31-2.1-1.56-2.42-.28-4.25,16.88-16.74,46.05-53.32,65.35-54.12,28.55-81,32-81,32S359,269.09,387,256.85,425.53,230.67,425.53,230.67Z"/><path class="cls-1" d="M214.47,230.67c-5.49-3.32-17.56,15.61-17.56,12,0-18.61-8.81-54.44-9.53-71.94,0-1.31,2.1-1.56,2.42-.28,4.25,16.88,16.74,46.05,53.32,65.35,54.12,28.55,81,32,81,32S281,269.09,253,256.85,214.47,230.67,214.47,230.67Z"/></g><g id="ART-strokes"><path class="cls-4" d="M443,63.88l1.28-14.48L320,53.29,195.72,49.4,197,63.88c-37.35,30.39-76.54,98.66-34.16,177.63C178.37,270.45,204,280,202.65,273.62c-13.63-33-5.29-37.13,13.56-43.54a161.65,161.65,0,0,0,207.58,0c18.85,6.41,27.19,10.55,13.56,43.54-1.33,6.34,24.28-3.17,39.81-32.11C519.54,162.54,480.35,94.27,443,63.88Z"/></g></svg>