<svg xmlns="http://www.w3.org/2000/svg" viewBox="0 0 320 640"><defs><style>.cls-1{fill:#00007f;}.cls-2{fill:blue;}.cls-3{fill:aqua;}.cls-4{fill:none;stroke:#0d0a09;stroke-miterlimit:10;}.cls-5{fill:#0d0a09;}</style></defs><g id="ART-strokes"><path class="cls-1" d="M133.59,288.44a22.75,22.75,0,0,1,7.41-5.19c-9.62,12.62-7.18,32.45.88,45.88a20.27,20.27,0,0,0,10.3,8.55c.22.82.45,1.63.7,2.45-.25-.82-.48-1.63-.7-2.45a37.85,37.85,0,0,0,9.7,2.45c12.48,0,24.47-1,36-4.56-.85,3.15-3,6.52-6.81,10.34a40.64,40.64,0,1,1-57.47-57.47Z"/><path class="cls-2" d="M154.9,284.7c7.53,4.18,15,12.91,23.31,21.21,12,12,22.35,19.72,19.66,29.66-11.52,3.59-23.51,4.56-36,4.56a37.85,37.85,0,0,1-9.7-2.45A84.52,84.52,0,0,1,154.9,284.7Z"/><path class="cls-3" d="M141,283.25c4.77-1.93,9.35-1.08,13.9,1.45a84.52,84.52,0,0,0-2.72,53,20.27,20.27,0,0,1-10.3-8.55C133.82,315.7,131.38,295.87,141,283.25Z"/><path class="cls-4" d="M133.59,288.44c15.87-15.87,28.75,1.6,44.62,17.47s28.72,24.13,12.85,40a40.64,40.64,0,1,1-57.47-57.47Z"/><path class="cls-5" d="M131.36,286.21a28.76,28.76,0,0,1,6.54-4.86,17.91,17.91,0,0,1,8.39-2.08,19.72,19.72,0,0,1,8.19,2.08,37.65,37.65,0,0,1,6.59,4.27,124.51,124.51,0,0,1,10.86,10.2c3.4,3.5,6.7,7,10.17,10.3s7,6.62,10.51,10.21a48.93,48.93,0,0,1,5,5.9,20.49,20.49,0,0,1,3.43,7.68,15.92,15.92,0,0,1,.14,4.52,17.5,17.5,0,0,1-1.16,4.26,27,27,0,0,1-4.36,6.92c-.84,1-1.71,2-2.63,2.89l-2.87,2.67c-1,.81-2.08,1.59-3.13,2.38s-2.21,1.4-3.32,2.11a44.26,44.26,0,0,1-30.57,5A43.76,43.76,0,0,1,126.71,344a42.73,42.73,0,0,1-7.1-14.19,44.08,44.08,0,0,1-1.45-15.74A44.68,44.68,0,0,1,131.36,286.21Zm4.46,4.46a38.26,38.26,0,0,0-7.36,11.08,36.9,36.9,0,0,0-3,12.85,37.69,37.69,0,0,0,1.62,13,38.44,38.44,0,0,0,15.53,20.49,36.23,36.23,0,0,0,12.05,5.06,38.54,38.54,0,0,0,13.12.57,37.48,37.48,0,0,0,12.58-4c1-.57,2-1.05,2.87-1.69l2.72-1.93,2.52-2.2a33.33,33.33,0,0,0,2.36-2.4,21.61,21.61,0,0,0,3.57-5.19,11.74,11.74,0,0,0,.84-2.71,9.84,9.84,0,0,0,0-2.71,12.89,12.89,0,0,0-.82-2.78,21.64,21.64,0,0,0-1.53-2.76,43.27,43.27,0,0,0-4.27-5.32c-3.17-3.47-6.73-6.78-10.17-10.23s-6.85-7-10.21-10.43a94.11,94.11,0,0,0-10.47-9.53,30.16,30.16,0,0,0-5.69-3.44,14,14,0,0,0-5.83-1.3,12,12,0,0,0-5.52,1.6A23.09,23.09,0,0,0,135.82,290.67Z"/></g></svg>