<svg xmlns="http://www.w3.org/2000/svg" viewBox="0 0 640 320"><defs><style>.cls-1{fill:aqua;}.cls-2{fill:#00007f;}.cls-3{fill:blue;}.cls-4{fill:none;stroke:#0d0a09;stroke-miterlimit:10;stroke-width:6.5px;}</style></defs><g id="ART-fills"><path class="cls-1" d="M185,156.36C173.77,107.87,171.28,55,192.89,11.64h-18a26.33,26.33,0,0,0-26.1,22.56c-7.51,52.8-3.07,95.8,12.41,131.38,20.24,46.49,33.82,50.56,47.54,59.14a65.91,65.91,0,0,1,7.48,5.36l1.67,1.37C208,212.53,200,192.71,192,172.36,189,167.36,186,162.36,185,156.36Z"/><path class="cls-1" d="M455,156.36C466.21,107.87,468.69,55,447.09,11.64h18A26.35,26.35,0,0,1,491.2,34.2c7.51,52.8,3.07,95.8-12.42,131.38-20.24,46.49-33.81,50.56-47.53,59.14a64.17,64.17,0,0,0-7.48,5.36l-1.67,1.37C432,212.53,440,192.71,448,172.36,451,167.36,454,162.36,455,156.36Z"/><path class="cls-2" d="M213.8,223.39c1.33,2.7,2.68,5.39,4.08,8.06A160.89,160.89,0,0,0,320,267.8h0a160.89,160.89,0,0,0,102.1-36.35c1-1.95,2-3.91,3-5.88A214.51,214.51,0,0,1,395,230.78C333.82,239.13,272.61,241.44,213.8,223.39Z"/><path class="cls-3" d="M455,156.36C466.21,107.87,468.69,55,447.09,11.64H436c-2.12,57.43-30.19,123-82.92,145.59a84.33,84.33,0,0,1-66.26,0c-52.74-22.59-80.81-88.16-82.92-145.59H192.89C171.28,55,173.77,107.87,185,156.36c1,6,4,11,7,16,6.86,17.48,13.75,34.57,21.84,51,58.81,18.05,120,15.74,181.23,7.39a214.51,214.51,0,0,0,30.06-5.21c8.56-17.13,15.76-34.95,22.93-53.21C451,167.36,454,162.36,455,156.36Z"/><path class="cls-2" d="M424.3,11.64c-32.7,0-36.61,7.65-65.84,22.33L320,53.29,281.54,34C252.31,19.29,248.4,11.64,215.7,11.64H203.94c2.11,57.43,30.18,123,82.92,145.59a84.3,84.3,0,0,0,66.28,0C405.88,134.64,434,69.07,436.06,11.64Z"/></g><g id="ART-strokes"><path class="cls-4" d="M491.22,34.2a26.33,26.33,0,0,0-26.1-22.56H424.3c-32.7,0-36.61,7.64-65.84,22.33L320,53.28,281.54,34C252.31,19.28,248.4,11.64,215.7,11.64H174.88a26.33,26.33,0,0,0-26.1,22.56c-7.51,52.8-3.07,95.8,12.41,131.38,23.9,54.88,38.49,50.64,55,64.5a161.65,161.65,0,0,0,207.58,0c16.53-13.86,31.12-9.62,55-64.5C494.29,130,498.73,87,491.22,34.2Z"/></g></svg>