<svg xmlns="http://www.w3.org/2000/svg" viewBox="0 0 640 320"><defs><style>.cls-1{fill:#00007f;}.cls-2{fill:aqua;}.cls-3{fill:blue;}.cls-4{fill:none;stroke:#0d0a09;stroke-miterlimit:10;stroke-width:6.5px;}</style></defs><g id="ART-fills"><path class="cls-1" d="M477.53,79.19H158.38a161.18,161.18,0,0,0,49.55,116.45c.68.65,1.38,1.3,2.07,1.94a48.22,48.22,0,0,1,15-5.41l.13.13A666,666,0,0,1,314,182.36q3-.13,6-.13t6,.13a666,666,0,0,1,88.83,9.94l.13-.13a48.22,48.22,0,0,1,15,5.41c.69-.64,1.39-1.29,2.07-1.94A161.18,161.18,0,0,0,481.62,79.19Z"/><path class="cls-2" d="M243.43,188.85c-6.68,1-13.34,2.1-20,3.31l-.13-.12a48,48,0,0,0-14,4.88A161.07,161.07,0,0,0,320,240.81v-1.15C290.54,229.77,258.13,217.65,243.43,188.85Z"/><path class="cls-2" d="M396.57,188.85c6.68,1,13.34,2.1,20,3.31l.13-.12a48,48,0,0,1,14,4.88A161.07,161.07,0,0,1,320,240.81v-1.15C349.46,229.77,381.87,217.65,396.57,188.85Z"/><path class="cls-3" d="M326.13,182c-2-.09-4.09-.14-6.13-.14s-4.09,0-6.13.14a675.05,675.05,0,0,0-70.44,6.87c14.7,28.8,47.11,40.92,76.57,50.81,29.46-9.89,61.87-22,76.57-50.81A674.79,674.79,0,0,0,326.13,182Z"/></g><g id="ART-strokes"><path class="cls-4" d="M481.62,79.19a161.62,161.62,0,0,1-323.24,0Z"/></g></svg>