<svg xmlns="http://www.w3.org/2000/svg" viewBox="0 0 320 640"><defs><style>.cls-1{fill:#00007f;}.cls-2{fill:aqua;}.cls-3{fill:blue;}.cls-4{fill:#0d0a09;}</style></defs><g id="ART-strokes"><path class="cls-1" d="M165.75,314.13c-1-14-5-27-2-41-3.58,15.2-12,31.19-26.56,39.42A40.51,40.51,0,0,0,163,321.82a41.16,41.16,0,0,0,7.25-.65C167.78,319.32,166.06,317,165.75,314.13Z"/><path class="cls-2" d="M203.68,281.19c0-14.64-9.12-18.35-21.69-19.16-.73,2.14-.83,4.05.76,5.1,15.67,16.6,10.93,40-5.58,52.16A40.64,40.64,0,0,0,203.68,281.19Z"/><path class="cls-3" d="M182.75,267.13c-1.59-1.05-1.49-3-.76-5.1-6.71-.44-14.4,0-22.21,0-20.5,0-34.72-2.69-37,13.93,2.37,12.83,8.61,26.88,21,25.22,12-1,6-19,10-30,1-2,7-2,10,2-3,14,1,27,2,41,.31,2.85,2,5.19,4.54,7a40.61,40.61,0,0,0,6.88-1.88C193.68,307.12,198.42,283.73,182.75,267.13Z"/><path class="cls-2" d="M153.75,271.13c-4,11,2,29-10,30-12.4,1.66-18.64-12.39-21-25.22a38.19,38.19,0,0,0-.34,5.28,40.58,40.58,0,0,0,14.79,31.36c14.6-8.23,23-24.22,26.56-39.42C160.75,269.13,154.75,269.13,153.75,271.13Z"/><path class="cls-2" d="M124.31,207.81c-3.14,2.48-6.47,5.94-6.91,8.33-4.59,25.09,6.55,46.47,13.46,56.84C124.26,252,123.29,229.51,124.31,207.81Z"/><path class="cls-3" d="M152.27,263.91c-2.46-40.67-16.77-57.07-22.41-59.09-.75-.26-3.09,1.06-5.55,3-1,21.7,0,44.15,6.55,65.17a66.66,66.66,0,0,0,5,6.69Z"/><path class="cls-2" d="M185.83,216.14c-.52-2.85-5.15-7.22-8.68-9.62,1.06,23.82-.79,48.08-7.72,70.61C175.25,269.48,191.17,245.32,185.83,216.14Z"/><path class="cls-3" d="M177.15,206.52c-1.74-1.19-3.21-1.9-3.78-1.7-5.64,2-20,18.42-22.41,59.09l16.42,15.76s.8-.9,2.05-2.54C176.36,254.6,178.21,230.34,177.15,206.52Z"/><path class="cls-4" d="M128.1,270.24c-.14-.62-.79-.63-1.41-.31a4.07,4.07,0,0,0-.86.69,6,6,0,0,0-.72,1,9.57,9.57,0,0,0-1,2.36,18.92,18.92,0,0,0-.42,2.61,15.76,15.76,0,0,0,.13,2.66c.07.44.16.88.25,1.31,0,.22.14.42.15.64l.09.67a49.51,49.51,0,0,0,.9,5.29,45.48,45.48,0,0,0,9.29,19,36.75,36.75,0,0,0,17.2,11.65,37.75,37.75,0,0,0,47.89-28.13,36.12,36.12,0,0,0,.72-5.08,33.91,33.91,0,0,0,0-5,16.12,16.12,0,0,0-1-4.44A9.9,9.9,0,0,0,197,271.7c-2-1.92-5-3.16-8.3-4.1s-7-1.65-10.66-2.52l2-7.75c3.49,1,7.13,1.84,10.89,3.09a38,38,0,0,1,5.7,2.36,20.67,20.67,0,0,1,5.41,4,16.79,16.79,0,0,1,3.66,5.91,22.47,22.47,0,0,1,1.23,6.42,26.54,26.54,0,0,1,0,3.09c0,1-.11,2-.21,3a42.28,42.28,0,0,1-1.05,5.91A43.61,43.61,0,0,1,173.57,323a42.47,42.47,0,0,1-23.28-1,41.5,41.5,0,0,1-18.95-13.33,49.14,49.14,0,0,1-9.75-20.8,52.69,52.69,0,0,1-.88-5.7l-.07-.72a.87.87,0,0,1,0-.36l0-.37c0-.5.07-1,.12-1.48.1-1,.1-1.94.23-2.91s.1-1.94.21-2.92c0-.49,0-1,.1-1.5,0-.25.06-.5.1-.76s0-.52.07-.78c.05-.54.15-1.06.26-1.63a10.23,10.23,0,0,1,.43-1.76,8.56,8.56,0,0,1,2.6-4.08Z"/><path class="cls-4" d="M135.47,280A81.31,81.31,0,0,1,124,264.71a88.85,88.85,0,0,1-8-17.62,68.14,68.14,0,0,1-3.48-19.4,59.32,59.32,0,0,1,.57-10l.19-1.24.09-.62,0-.31,0-.17.06-.3a10.72,10.72,0,0,1,1.54-3.43,25.8,25.8,0,0,1,3.62-4.29,40.25,40.25,0,0,1,4-3.4c.71-.53,1.44-1,2.25-1.53.41-.25.83-.49,1.31-.74A10.31,10.31,0,0,1,128,201a6.79,6.79,0,0,1,.78-.17,3.88,3.88,0,0,1,.53-.06,4.13,4.13,0,0,1,.77,0,3.09,3.09,0,0,1,.48.07,4.44,4.44,0,0,1,.6.16l.26.1.46.19a12,12,0,0,1,1.53.84,18.15,18.15,0,0,1,2.4,1.82,27.79,27.79,0,0,1,3.67,4,58.92,58.92,0,0,1,8.85,17.91,97,97,0,0,1,3.88,19,118.36,118.36,0,0,1,.53,19.09l-1,.06c-2.21-12.4-4.89-24.64-9.62-35.83a61,61,0,0,0-8.83-15.23,29.53,29.53,0,0,0-2.79-2.88,9.73,9.73,0,0,0-1.37-1,3.77,3.77,0,0,0-.53-.29l-.09,0s-.07,0,0,0a3.45,3.45,0,0,0,.46.12l.33.05a2.68,2.68,0,0,0,.48,0l.24,0,.2,0c.08,0-.15.06-.36.17s-.48.26-.74.42c-.53.33-1.09.72-1.65,1.13a34.11,34.11,0,0,0-3.19,2.69,18.41,18.41,0,0,0-2.49,2.88,3.59,3.59,0,0,0-.44.82l-.34,2c-.13.72-.23,1.46-.3,2.19s-.21,1.46-.28,2.2c-.12,1.47-.26,2.95-.28,4.43s-.06,3-.07,4.46.09,3,.22,4.48a72.24,72.24,0,0,0,1.18,9,89.65,89.65,0,0,0,14.72,33.7Z"/><path class="cls-4" d="M167,279.34a89.47,89.47,0,0,0,14.71-33.7,70.43,70.43,0,0,0,1.19-9c.12-1.49.18-3,.22-4.48s0-3-.07-4.46-.16-3-.28-4.43c-.07-.74-.19-1.47-.28-2.2s-.17-1.47-.3-2.19l-.34-2a4.18,4.18,0,0,0-.44-.82,18,18,0,0,0-2.5-2.88,32.87,32.87,0,0,0-3.19-2.69c-.55-.41-1.11-.8-1.64-1.13-.27-.16-.52-.31-.74-.42s-.44-.2-.36-.17l.2,0,.24,0a2.57,2.57,0,0,0,.47,0l.34-.05a3,3,0,0,0,.45-.12c.07,0,0,0,0,0l-.09,0a3.77,3.77,0,0,0-.53.29,9.73,9.73,0,0,0-1.37,1,28.41,28.41,0,0,0-2.79,2.88,60.64,60.64,0,0,0-8.83,15.23c-4.73,11.19-7.41,23.43-9.62,35.83l-1-.06a119.53,119.53,0,0,1,.54-19.09,97,97,0,0,1,3.88-19,58.69,58.69,0,0,1,8.85-17.91,27.79,27.79,0,0,1,3.67-4,18.7,18.7,0,0,1,2.39-1.82,12.84,12.84,0,0,1,1.54-.84l.45-.19.27-.1a4.44,4.44,0,0,1,.6-.16,3.09,3.09,0,0,1,.48-.07,4.7,4.7,0,0,1,1.3,0,6.57,6.57,0,0,1,.77.17,10.15,10.15,0,0,1,1.83.73c.48.25.9.49,1.31.74.8.49,1.54,1,2.25,1.53a40.25,40.25,0,0,1,4,3.4,26.28,26.28,0,0,1,3.62,4.29,10.72,10.72,0,0,1,1.53,3.43l.07.3,0,.17.05.31.09.62.19,1.24a60.4,60.4,0,0,1,.57,10,68.14,68.14,0,0,1-3.48,19.4,88.85,88.85,0,0,1-8,17.62A81.31,81.31,0,0,1,167.76,280Z"/><path class="cls-4" d="M148.56,270.82a5.65,5.65,0,0,1,1.94-1.11,13.35,13.35,0,0,1,2.1-.57,30.16,30.16,0,0,1,4.26-.45,10.37,10.37,0,0,1,4.46.68,6.58,6.58,0,0,1,1.49.8,3.66,3.66,0,0,1,.59.53,3.81,3.81,0,0,1,.4.53,3.89,3.89,0,0,1,.22.39l.1.24,0,.07c.08.26.17.53.23.77a10.91,10.91,0,0,1,.28,2.61,25.2,25.2,0,0,1-1.7,8.54,46.4,46.4,0,0,1-3.51,7.43A70.36,70.36,0,0,1,149.83,304a89.35,89.35,0,0,1-11.75,10.45l-.51-.55c3.35-4,6.6-8,9.56-12.11a87.43,87.43,0,0,0,7.72-12.95,48.56,48.56,0,0,0,2.62-6.82,22.74,22.74,0,0,0,1.11-6.65,5.67,5.67,0,0,0-.13-1.24c0-.08,0-.11,0-.17v0l.07.18a2.19,2.19,0,0,0,.16.29,2.51,2.51,0,0,0,.25.34,1.48,1.48,0,0,0,.23.21c.14.08,0,0-.21-.13-.78-.38-1.91-.9-3-1.47a22.3,22.3,0,0,0-3.44-1.39,9.22,9.22,0,0,0-3.56-.56Z"/></g></svg>