<svg xmlns="http://www.w3.org/2000/svg" viewBox="0 0 640 320"><defs><style>.cls-1{fill:aqua;}.cls-2{fill:blue;}.cls-3{fill:#00007f;}.cls-4{fill:none;stroke:#0d0a09;stroke-miterlimit:10;stroke-width:6.5px;}</style></defs><g id="ART-fills"><path class="cls-1" d="M195,102.36c-1.75-16.58-3.49-33.16-7.89-49.07H158.38l8.5,52.89c0,26.5-17.1,61.38-5.8,83.45,8,15.59,28.15,23.32,44.32,33a90,90,0,0,1,9.2,6.2C202.25,214,192.31,197.1,187,177.36,180,150.36,198,128.36,195,102.36Z"/><path class="cls-1" d="M445,102.36c1.75-16.58,3.49-33.16,7.89-49.07h28.73l-8.5,52.89c0,26.5,17.1,61.38,5.8,83.45-8,15.59-28.15,23.32-44.32,33a90,90,0,0,0-9.2,6.2c12.35-14.85,22.29-31.7,27.6-51.44C460,150.36,442,128.36,445,102.36Z"/><path class="cls-2" d="M445,102.36c1.75-16.58,3.49-33.16,7.89-49.07H436.47c1.89,61-57.31,109.28-116.47,110.1-59.16-.82-118.36-49.09-116.47-110.1H187.11c4.4,15.91,6.14,32.49,7.89,49.07,3,26-15,48-8,75,5.31,19.74,15.25,36.59,27.6,51.44.54.42,1.09.84,1.61,1.28a161.65,161.65,0,0,0,207.58,0c.52-.44,1.07-.86,1.61-1.28,12.35-14.85,22.29-31.7,27.6-51.44C460,150.36,442,128.36,445,102.36Z"/><path class="cls-3" d="M436.47,53.29H203.53c-1.89,61,57.31,109.28,116.47,110.1C379.16,162.57,438.36,114.3,436.47,53.29Z"/><path class="cls-3" d="M419.14,233.83c6.72-8.1,16.53-34.36,17.57-63.08a1.08,1.08,0,0,0-2.14-.28,100.75,100.75,0,0,1-47.25,65.35c-48,28.55-71.75,32-71.75,32s38.15,1.29,63-10.95,40.54-23,40.54-23"/><path class="cls-3" d="M220.86,233.83c-6.72-8.1-16.53-34.36-17.57-63.08a1.08,1.08,0,0,1,2.14-.28,100.77,100.77,0,0,0,47.24,65.35c48,28.55,71.76,32,71.76,32s-38.15,1.29-63-10.95-40.54-23-40.54-23"/></g><g id="ART-strokes"><path class="cls-4" d="M473.12,106.18l8.5-52.9H158.38l8.5,52.9c0,26.5-17.1,61.38-5.8,83.45,9.92,19.36,38.6,26.59,55.13,40.45a161.65,161.65,0,0,0,207.58,0C440.32,216.22,469,209,478.92,189.63,490.22,167.56,473.12,132.68,473.12,106.18Z"/></g></svg>