<svg xmlns="http://www.w3.org/2000/svg" viewBox="0 0 640 320"><defs><style>.cls-1{fill:#00007f;}.cls-2{fill:aqua;}.cls-3{fill:blue;}.cls-4{fill:none;stroke:#0d0a09;stroke-miterlimit:10;stroke-width:6.5px;}</style></defs><g id="ART-fills"><path class="cls-1" d="M394,282.86c-23.75-18.28-43.34-41.37-74-42.17-30.66.8-50.25,23.89-74,42.17a25.19,25.19,0,0,1-11.85,6.46c42.83-2.24,62.5-27.58,85.85-27.58s43,25.34,85.85,27.58A25.19,25.19,0,0,1,394,282.86Z"/><path class="cls-2" d="M197.38,72.12a196.07,196.07,0,0,0-73.66,153.24c0,23.81,21.16,53.44,52.82,59.48.89.17,1.82.32,2.73.48C145.75,224.92,161.11,131,197.38,72.12Z"/><path class="cls-2" d="M442.62,72.12a196.07,196.07,0,0,1,73.66,153.24c0,23.81-21.16,53.44-52.82,59.48-.89.17-1.82.32-2.73.48C494.25,224.92,478.89,131,442.62,72.12Z"/><path class="cls-3" d="M442.62,72.12a196.19,196.19,0,0,0-245.24,0c-36.27,58.9-51.63,152.8-18.11,213.2a315.56,315.56,0,0,0,45.42,4.12c3.28.09,6.42,0,9.46-.12A25.19,25.19,0,0,0,246,282.86c23.75-18.28,43.34-41.37,74-42.17,30.66.8,50.25,23.89,74,42.17a25.19,25.19,0,0,0,11.85,6.46c3,.16,6.18.21,9.46.12a315.56,315.56,0,0,0,45.42-4.12C494.25,224.92,478.89,131,442.62,72.12Z"/></g><g id="ART-strokes"><path class="cls-4" d="M320,29.08c-108.4,0-196.28,87.87-196.28,196.28,0,34.54,44.51,62.52,101,64.08,49.53,1.37,70.31-27.7,95.31-27.7s45.78,29.07,95.31,27.7c56.46-1.56,101-29.54,101-64.08C516.28,117,428.4,29.08,320,29.08Z"/></g></svg>