<svg xmlns="http://www.w3.org/2000/svg" viewBox="0 0 640 320"><defs><style>.cls-1{fill:aqua;}.cls-2{fill:blue;}.cls-3{fill:#00007f;}.cls-4{fill:none;stroke:#0d0a09;stroke-miterlimit:10;stroke-width:6.5px;}</style></defs><g id="ART-fills"><path class="cls-1" d="M180.43,87.38a195.63,195.63,0,0,0-56.71,138c0,34.47,9.63,45.69,54.37,51.42,2.91.37,6,.71,9.19,1C152.79,221.68,151,147.16,180.43,87.38Z"/><path class="cls-1" d="M459.57,87.38a195.63,195.63,0,0,1,56.71,138c0,34.47-9.63,45.69-54.37,51.42-2.91.37-6,.71-9.19,1C487.21,221.68,489,147.16,459.57,87.38Z"/><path class="cls-2" d="M459.57,87.38a196.22,196.22,0,0,0-279.14,0c-29.44,59.78-27.64,134.3,6.85,190.41,7.42.71,15.67,1.24,24.83,1.65,3.68-2.18,7.92-3.3,11.85-4.43,32.06-8.48,63.24-15.3,96-14.25,32.8-1.05,64,5.77,96,14.25,3.93,1.13,8.17,2.25,11.85,4.43,9.16-.41,17.41-.94,24.83-1.65C487.21,221.68,489,147.16,459.57,87.38Z"/><path class="cls-3" d="M416,275c-32.06-8.48-63.24-15.3-96-14.25-32.8-1.05-64,5.77-96,14.25-3.93,1.13-8.17,2.25-11.85,4.43q11,.49,23.74.75c23.14.49,50.89.53,84.15.53s61,0,84.15-.53q12.78-.27,23.74-.75C424.21,277.26,420,276.14,416,275Z"/></g><g id="ART-strokes"><path class="cls-4" d="M320,29.08c-108.4,0-196.28,87.87-196.28,196.28,0,57.23,26.51,55.36,196.28,55.36s196.28,1.87,196.28-55.36C516.28,117,428.4,29.08,320,29.08Z"/></g></svg>