<svg xmlns="http://www.w3.org/2000/svg" viewBox="0 0 640 320"><defs><style>.cls-1{fill:aqua;}.cls-2{fill:#00007f;}.cls-3{fill:blue;}.cls-4{fill:none;stroke:#0d0a09;stroke-miterlimit:10;stroke-width:6.5px;}</style></defs><g id="ART-fills"><path class="cls-1" d="M165,225.85c-6-44-3-89,15-130q3.67-8.09,8.05-15.79a197.48,197.48,0,0,0-30.47,35.06,195.38,195.38,0,0,0-33.86,110.24c0,53.05,19.76,65.3,53.11,56.6,2.7-.71,5.5-1.48,8.37-2.29C172.58,269.14,166.79,241,165,225.85Z"/><path class="cls-1" d="M475,225.85c6-44,3-89-15-130q-3.67-8.09-8.05-15.79a197.48,197.48,0,0,1,30.47,35.06,195.38,195.38,0,0,1,33.86,110.24c0,53.05-19.76,65.3-53.11,56.6-2.7-.71-5.5-1.48-8.37-2.29C467.42,269.14,473.21,241,475,225.85Z"/><path class="cls-2" d="M352,259.86c-10.69,2.91-20.44,6.76-32,6.05-11.56.71-21.31-3.14-32-6.05-22.74-7-49.3-2.52-65,15.44,7.43-1.65,15.18-3.08,23.23-4.07,1.29-.16,2.54-.25,3.77-.33,30-1.72,46,21.16,70,21.16s40-22.88,70-21.16c1.23.08,2.48.17,3.77.33,8.05,1,15.8,2.42,23.23,4.07C401.3,257.34,374.74,252.86,352,259.86Z"/><path class="cls-3" d="M460,95.85q-3.67-8.09-8.05-15.79a196.25,196.25,0,0,0-263.9,0q-4.37,7.71-8.05,15.79c-18,41-21,86-15,130,1.79,15.19,7.58,43.29,20.2,53.82,11.34-3.18,24-1.32,37.82-4.37,15.68-18,42.24-22.44,65-15.44,10.69,2.91,20.44,6.76,32,6.05,11.56.71,21.31-3.14,32-6.05,22.74-7,49.3-2.52,65,15.44,13.8,3.05,26.48,1.19,37.82,4.37,12.62-10.53,18.41-38.63,20.2-53.82C481,181.85,478,136.85,460,95.85Z"/></g><g id="ART-strokes"><path class="cls-4" d="M320,29.08c-108.4,0-196.28,87.87-196.28,196.28,0,83.4,48.82,54.95,122.53,45.87,32.44-4,48.75,20.83,73.75,20.83s41.31-24.82,73.75-20.83c73.71,9.08,122.53,37.53,122.53-45.87C516.28,117,428.4,29.08,320,29.08Z"/></g></svg>