<svg xmlns="http://www.w3.org/2000/svg" viewBox="0 0 640 320"><defs><style>.cls-1{fill:aqua;}.cls-2{fill:blue;}.cls-3{fill:#00007f;}.cls-4{fill:none;stroke:#0d0a09;stroke-miterlimit:10;stroke-width:6.83px;}</style></defs><g id="ART-fills"><path class="cls-1" d="M257.87,185.3a109.61,109.61,0,0,0-28,7.64c14.33,9.44,28.69,17.73,41.6,24.64a102.32,102.32,0,0,0,41,11.73C290.52,220.05,270.12,204.27,257.87,185.3Z"/><path class="cls-1" d="M382.13,185.3a109.61,109.61,0,0,1,28,7.64c-14.33,9.44-28.69,17.73-41.6,24.64a102.32,102.32,0,0,1-41,11.73C349.48,220.05,369.88,204.27,382.13,185.3Z"/><path class="cls-2" d="M320,183.07c-20.23.46-41.67-.77-62.13,2.23,12.25,19,32.65,34.75,54.6,44,2.51.18,5,.28,7.53.28s5-.1,7.53-.28c22-9.26,42.35-25,54.6-44C361.67,182.3,340.23,183.53,320,183.07Z"/><path class="cls-3" d="M320,79.19H141.42c0,44.36,44.11,84.55,88.49,113.75,28-12.18,60.35-9.19,90.09-9.87,29.74.68,62.08-2.31,90.09,9.87,44.38-29.2,88.49-69.39,88.49-113.75Z"/></g><g id="ART-strokes"><path class="cls-4" d="M498.58,79.19c0,58.69-77.21,110.08-130.09,138.39a103.91,103.91,0,0,1-97,0c-52.88-28.31-130.09-79.7-130.09-138.39Z"/></g></svg>