<svg xmlns="http://www.w3.org/2000/svg" viewBox="0 0 640 320"><defs><style>.cls-1{fill:aqua;}.cls-2{fill:blue;}.cls-3{fill:#00007f;}.cls-4{fill:none;stroke:#0d0a09;stroke-miterlimit:10;stroke-width:6.5px;}</style></defs><g id="ART-fills"><path class="cls-1" d="M160.67,202.85c0-40.22,2.63-84.8,24.23-119.86A197.31,197.31,0,0,0,159,113a195.32,195.32,0,0,0-35.31,112.32c0,21,3.49,41.13,29.54,46.22a42,42,0,0,0,13.65.38c5.08-.66,9.68,3.59,13.91,2.23C166.52,257.52,159.8,223.76,160.67,202.85Z"/><path class="cls-1" d="M479.33,202.85c0-40.22-2.63-84.8-24.23-119.86A197.31,197.31,0,0,1,481,113a195.32,195.32,0,0,1,35.31,112.32c0,21-3.49,41.13-29.54,46.22a42,42,0,0,1-13.65.38c-5.08-.66-9.68,3.59-13.91,2.23C473.48,257.52,480.2,223.76,479.33,202.85Z"/><path class="cls-2" d="M479.33,202.85c0-40.22-2.63-84.8-24.23-119.86a196.24,196.24,0,0,0-270.2,0c-21.6,35.06-24.23,79.64-24.23,119.86-.87,20.91,5.85,54.67,20.15,71.34l2.86-.92c4.7-1.51,8.94-2.69,12.91-2.28a53.75,53.75,0,0,1,10.76,2.6c9.54-1.94,19-3.7,24.32-10.4,18-20,42-9,62-16,8.81-2.94,15.71-17.26,26.33-16.71,10.62-.55,17.52,13.77,26.33,16.71,20,7,44-4,62,16,5.37,6.7,14.78,8.46,24.32,10.4a53.75,53.75,0,0,1,10.76-2.6c4-.41,8.21.77,12.91,2.28l2.86.92C473.48,257.52,480.2,223.76,479.33,202.85Z"/><path class="cls-3" d="M408.33,263.19c-18-20-42-9-62-16-8.81-2.94-15.71-17.26-26.33-16.71-10.62-.55-17.52,13.77-26.33,16.71-20,7-44-4-62,16-5.37,6.7-14.78,8.46-24.32,10.4,5.12,1.66,10.31,3.48,16.18,3.64,15.48.43,22.27-7.83,33.14-11.53,9.47-3.23,25.14,3.62,33.87,2.16,14.43-2.41,18.65-11.79,29.46-11.79s15,9.38,29.46,11.79c8.73,1.46,24.4-5.39,33.87-2.16,10.87,3.7,17.66,12,33.14,11.53,5.87-.16,11.06-2,16.18-3.64C423.11,271.65,413.7,269.89,408.33,263.19Z"/></g><g id="ART-strokes"><path class="cls-4" d="M320,29.08c-108.4,0-196.28,87.87-196.28,196.28,0,21,3.49,41.13,29.54,46.22,19.14,3.73,32.32-1.73,43.33-.59,9,.94,17,6,26.94,6.24,15.48.43,22.27-7.83,33.14-11.53,9.47-3.23,25.14,3.62,33.87,2.16,14.43-2.41,18.65-11.79,29.46-11.79s15,9.38,29.46,11.79c8.73,1.46,24.4-5.39,33.87-2.16,10.87,3.7,17.66,12,33.14,11.53,9.94-.27,17.92-5.3,26.94-6.24,11-1.14,24.19,4.32,43.33.59,26-5.09,29.54-25.18,29.54-46.22C516.28,117,428.4,29.08,320,29.08Z"/></g></svg>