<svg xmlns="http://www.w3.org/2000/svg" viewBox="0 0 640 320"><defs><style>.cls-1{fill:aqua;}.cls-2{fill:#00007f;}.cls-3{fill:blue;}.cls-4{fill:none;stroke:#0d0a09;stroke-miterlimit:10;stroke-width:6.33px;}</style></defs><g id="ART-fills"><path class="cls-1" d="M208.2,218c-19.07,6.41-36.55-9-40.82-27.73q-5.15.81-10.32,1.73a14.71,14.71,0,0,0-2.71.87c1.3,16.56,7.58,30.29,21.88,37,37.92,17.69,60.1-21.78,100.11,2.55,9.07,5.51,22.55,7.37,32.16,8C295.08,234.51,283.36,223,270.71,216,249.87,205,229,211,208.2,218Z"/><path class="cls-2" d="M450.77,83H189c-12.36,14.35-37.75,70.23-34.62,109.86a14.71,14.71,0,0,1,2.71-.87c55.48-9.93,108.16-9,162.68-9H320c54.51,0,107.2-.93,162.68,9a15,15,0,0,1,2.71.87C488.51,153.24,463.12,97.36,450.77,83Z"/><path class="cls-1" d="M431.54,218c19.07,6.41,36.54-9,40.82-27.73q5.14.81,10.32,1.73a15,15,0,0,1,2.71.87c-1.31,16.56-7.59,30.29-21.88,37-37.92,17.69-60.1-21.78-100.12,2.55-9.06,5.51-22.55,7.37-32.15,8C344.65,234.51,356.37,223,369,216,389.86,205,410.7,211,431.54,218Z"/><path class="cls-3" d="M319.84,183c-51.16,0-100.71-.82-152.46,7.27C171.65,209,189.13,224.41,208.2,218c20.84-7,41.67-13,62.51-2,12.65,7,24.37,18.51,37.79,24.35,5.92.38,10.37.28,11.37.27s5.46.11,11.37-.27C344.65,234.51,356.37,223,369,216c20.83-11,41.67-5,62.5,2,19.08,6.41,36.55-9,40.83-27.73C420.58,182.17,371,183,319.84,183Z"/></g><g id="ART-strokes"><path class="cls-4" d="M451,83c17.52,20.34,61.25,124.19,12.74,146.82-37.92,17.69-60.1-21.78-100.11,2.55-14.93,9.07-41.85,8.24-43.66,8.24s-28.73.83-43.66-8.24c-40-24.33-62.19,15.14-100.11-2.55C127.72,207.2,171.45,103.35,189,83"/></g></svg>