<svg xmlns="http://www.w3.org/2000/svg" viewBox="0 0 640 320"><defs><style>.cls-1{fill:aqua;}.cls-2{fill:blue;}.cls-3{fill:#00007f;}.cls-4{fill:none;stroke:#0d0a09;stroke-miterlimit:10;stroke-width:6.5px;}</style></defs><g id="ART-fills"><path class="cls-1" d="M183,84.88a197.39,197.39,0,0,0-27.23,33.05,195.32,195.32,0,0,0-32,107.43c0,42.11,31.31,72.63,65.61,68.22,1-.13,2.07-.3,3.11-.49C170.92,270.8,166.63,235,164,205.52,159.3,166,169.67,122,183,84.88Z"/><path class="cls-1" d="M457.05,84.88a197.93,197.93,0,0,1,27.24,33.05,195.4,195.4,0,0,1,32,107.43c0,42.11-31.31,72.63-65.61,68.22-1-.13-2.07-.3-3.11-.49,21.52-22.29,25.81-63.78,28.49-93.24C480.7,160.32,470.33,122,457.05,84.88Z"/><path class="cls-2" d="M457.05,84.88a196.2,196.2,0,0,0-274.1,0C169.67,122,159.3,166,164,205.52c2.68,29.46,7,65.28,28.49,87.57a72.82,72.82,0,0,0,32.25-15q3.47-2.73,6.8-5.18c16.4-32.29,52.3-53.7,88.51-52.74,36.21-1,72.11,20.45,88.51,52.74q3.33,2.44,6.8,5.18a72.82,72.82,0,0,0,32.25,15c21.52-22.29,25.81-63.78,28.49-93.24C480.7,160.32,470.33,122,457.05,84.88Z"/><path class="cls-3" d="M320,220.18c-36.21-1-72.11,20.45-88.51,52.74,9.25-6.81,17.39-7.29,25.3-11.33,25.48-13,45.16-7.21,63.21-7.21s37-4.23,62.48,8.79c7.91,4,16.78,2.94,26,9.75C392.11,240.63,356.21,219.22,320,220.18Z"/></g><g id="ART-strokes"><path class="cls-4" d="M320,29.08c-108.4,0-196.28,87.87-196.28,196.28,0,56.64,57,88.15,101,52.74C253.57,254.86,295,254.38,320,254.38s58.19,1.93,95.31,23.72c48.71,28.6,101,3.9,101-52.74C516.28,117,428.4,29.08,320,29.08Z"/></g></svg>