<svg xmlns="http://www.w3.org/2000/svg" viewBox="0 0 320 640"><defs><style>.cls-1{fill:aqua;}.cls-2{fill:blue;}.cls-3{fill:#00007f;}.cls-4{fill:#0d0a09;}</style></defs><g id="ART-strokes"><path class="cls-1" d="M195.45,282.43a40.63,40.63,0,0,0-70.81-.17C146.25,271.89,172.17,273.81,195.45,282.43Z"/><path class="cls-2" d="M124.64,282.26a40.09,40.09,0,0,0-4.76,13.58c17.29,12.55,43.16,10.41,63.22,4.94A48.44,48.44,0,0,0,199,290.9a41.13,41.13,0,0,0-3.56-8.47C172.17,273.81,146.25,271.89,124.64,282.26Z"/><path class="cls-3" d="M183.1,300.78c-20.06,5.47-45.93,7.61-63.22-4.94a40.39,40.39,0,0,0-.52,6.45c0,22.45,21.46,19.2,43.91,19.2s37.37,3.25,37.37-19.2A40.72,40.72,0,0,0,199,290.9,48.44,48.44,0,0,1,183.1,300.78Z"/><path class="cls-4" d="M122.52,302.29a22.76,22.76,0,0,0,.7,6.31,12,12,0,0,0,2.77,5,14.11,14.11,0,0,0,5,3.21,29.93,29.93,0,0,0,6.46,1.58,92.7,92.7,0,0,0,14.14.67c4.81-.06,9.7-.17,14.59-.16s9.73.17,14.42,0a44.52,44.52,0,0,0,6.79-.74,20.12,20.12,0,0,0,3-.88,11.88,11.88,0,0,0,2.54-1.38,9.75,9.75,0,0,0,1.92-1.93,12.15,12.15,0,0,0,1.31-2.51,21.54,21.54,0,0,0,1.15-6.2c.06-1.09.08-2.24,0-3.36l-.23-3.34-.56-3.29c-.19-1.09-.57-2.15-.84-3.22a37.2,37.2,0,0,0-6.06-11.73,38.2,38.2,0,0,0-9.68-8.87A36.09,36.09,0,0,0,168,266.49a38.86,38.86,0,0,0-13-.44A38.18,38.18,0,0,0,142.48,270a37.68,37.68,0,0,0-10.35,8.06,36.76,36.76,0,0,0-7,11.2A37.79,37.79,0,0,0,122.52,302.29Zm-6.31,0a44.37,44.37,0,0,1,22.53-39.15,42.79,42.79,0,0,1,15.06-5,43.88,43.88,0,0,1,48.5,32c.29,1.29.67,2.55.87,3.84s.37,2.6.52,3.9l.14,3.92c0,1.3-.05,2.58-.18,3.9a27,27,0,0,1-1.81,8,17.62,17.62,0,0,1-2.2,3.84,15.86,15.86,0,0,1-3.29,3.1,20.37,20.37,0,0,1-7.86,3,49.71,49.71,0,0,1-7.67.67c-5,.07-9.84-.14-14.65-.22s-9.6,0-14.48.09a122.61,122.61,0,0,1-14.89-.46,37.53,37.53,0,0,1-7.68-1.64,19.81,19.81,0,0,1-7.27-4.32,18.08,18.08,0,0,1-4.46-7.41A29.12,29.12,0,0,1,116.21,302.29Z"/></g></svg>