<svg xmlns="http://www.w3.org/2000/svg" viewBox="0 0 640 320"><defs><style>.cls-1{fill:#00007f;}.cls-2{fill:aqua;}.cls-3{fill:blue;}.cls-4{fill:none;stroke:#0d0a09;stroke-miterlimit:10;stroke-width:6.5px;}</style></defs><g id="ART-fills"><path class="cls-1" d="M386,271.85c-16.39-12-34-17.49-52.5-19.88a105.18,105.18,0,0,0-27,0c-18.53,2.39-36.11,7.9-52.5,19.88-4.63,3.79-9.09,7.93-13.82,11.24,24.39-4,51.4-8,79.82-8s55.43,4,79.82,8C395.09,279.78,390.63,275.64,386,271.85Z"/><path class="cls-2" d="M180,97.85A160.26,160.26,0,0,1,189.29,79,197.46,197.46,0,0,0,152.48,123a195.39,195.39,0,0,0-28.76,102.34c0,60.5,27.38,68.95,70.42,64.6C146,237.73,157,159.09,180,97.85Z"/><path class="cls-3" d="M460,97.85A160.26,160.26,0,0,0,450.71,79a196.2,196.2,0,0,0-261.42,0A160.26,160.26,0,0,0,180,97.85C157,159.09,146,237.73,194.14,290l2-.21c13.35-1.45,28.15-4.05,44.07-6.66,4.73-3.31,9.19-7.45,13.82-11.24,16.39-12,34-17.49,52.5-19.88a105.18,105.18,0,0,1,27,0c18.53,2.39,36.11,7.9,52.5,19.88,4.63,3.79,9.09,7.93,13.82,11.24,15.92,2.61,30.72,5.21,44.07,6.66l2,.21C494,237.73,483,159.09,460,97.85Z"/><path class="cls-2" d="M460,97.85A160.26,160.26,0,0,0,450.71,79,197.46,197.46,0,0,1,487.52,123a195.39,195.39,0,0,1,28.76,102.34c0,60.5-27.38,68.95-70.42,64.6C494,237.73,483,159.09,460,97.85Z"/></g><g id="ART-strokes"><path class="cls-4" d="M516.28,225.36c0,108.4-87.88,49.69-196.28,49.69s-196.28,58.71-196.28-49.69S211.6,29.08,320,29.08,516.28,117,516.28,225.36Z"/></g></svg>