<svg xmlns="http://www.w3.org/2000/svg" viewBox="0 0 320 640"><defs><style>.cls-1{fill:aqua;}.cls-2{fill:blue;}.cls-3{fill:#00007f;}.cls-4{fill:#0d0a09;}</style></defs><g id="ART-strokes"><path class="cls-1" d="M119.3,255.29c-17.82,1.27-27.12,6.86-29.3,10.2-.69,1.06,1.55,6.85,4.31,10.91C106.08,274.13,113.44,265.42,119.3,255.29Z"/><path class="cls-2" d="M119.3,255.29c-5.86,10.13-13.22,18.84-25,21.11a10.72,10.72,0,0,0,3.8,3.84,78.22,78.22,0,0,0,18.45,5.68c-.49-11.08,1.35-21.88,7.83-30.87C122.62,255.09,120.93,255.17,119.3,255.29Z"/><path class="cls-3" d="M152.68,257.45a144.72,144.72,0,0,0-28.29-2.4c-6.48,9-8.32,19.79-7.83,30.87,22,3.76,35-5.13,35-5.13Z"/><path class="cls-1" d="M235.47,292.89c-1-3.66-5.87-12.67-20-19.92.15,10.76,4.28,21.34,10.58,30.38C230.36,300.85,235.88,294.32,235.47,292.89Z"/><path class="cls-3" d="M206.76,269.21a108.22,108.22,0,0,0-23-5.32l-21,18.24s18.43,18.72,45.34,22.08C212.12,292.94,212.17,280.48,206.76,269.21Z"/><path class="cls-2" d="M226.06,303.35c-6.3-9-10.43-19.62-10.58-30.38a72,72,0,0,0-8.72-3.76c5.41,11.27,5.36,23.73,1.32,35a65.67,65.67,0,0,0,15.5.1A7,7,0,0,0,226.06,303.35Z"/><path class="cls-3" d="M124.5,289.24a40.63,40.63,0,0,0,68.72,17.05C169.77,311.21,145.05,303.17,124.5,289.24Z"/><path class="cls-2" d="M193.22,306.29a40.64,40.64,0,0,0,7.87-12.05c-13.81-16.31-39.44-20.4-60.23-19.87a48.27,48.27,0,0,0-17.8,5.8,40.39,40.39,0,0,0,1.44,9.07C145.05,303.17,169.77,311.21,193.22,306.29Z"/><path class="cls-1" d="M140.86,274.37c20.79-.53,46.42,3.56,60.23,19.87a41.28,41.28,0,0,0,2-6.14c5.35-21.8-16.26-23.77-38.06-29.12s-35.52-12.06-40.87,9.74a40.43,40.43,0,0,0-1.13,11.45A48.27,48.27,0,0,1,140.86,274.37Z"/><path class="cls-1" d="M147.18,271.91l-6.47-11.76c-6.37,26.89-4.18,44.55-.65,54.11C138.82,301.13,143.53,284.66,147.18,271.91Z"/><path class="cls-2" d="M151,289.3l-4.75-13.51c-3.65,12.75-7.38,25.34-6.14,38.47,1.61,4.35,3.5,7,5,8.11.41.3,1.63.16,3.2-.27C144.66,312.26,148.22,300.7,151,289.3Z"/><path class="cls-3" d="M160.05,315.23l-.2-37-4.32,5.37a32.8,32.8,0,0,0-6.36,13c-2.14,9-3.75,17.77-.93,25.52C152.26,321,158.64,318,160.05,315.23Z"/><path class="cls-1" d="M169.59,276.36l-7-9.37c-7.61,32.12-2.62,50.2,2,57.58C165.6,309.47,165.49,290.81,169.59,276.36Z"/><path class="cls-3" d="M181.13,305.76c-2.5-1.33-5-.8-6.24,1.14-3.07,5.38-4.73,11.11-3,17a135.55,135.55,0,0,0,10.62-15.35Z"/><path class="cls-2" d="M174.89,306.9c1.23-1.94,3.74-2.47,6.24-1.14L168.68,279.7c-4.1,14.45-3.08,29.77-4,44.87a12.59,12.59,0,0,0,2.87,3.35c.5.37,2.22-1.38,4.33-4C170.16,318,171.82,312.28,174.89,306.9Z"/><path class="cls-4" d="M179.53,311.43a35.61,35.61,0,0,0,16.4-13.17,36.31,36.31,0,0,0,4.69-9.78,19.61,19.61,0,0,0,.89-10.35,13.17,13.17,0,0,0-5.94-8,40.87,40.87,0,0,0-10.14-4.55c-3.62-1.18-7.36-2.09-11.12-3s-7.54-1.74-11.31-2.72-7.5-2-11.23-2.9a58.28,58.28,0,0,0-11.15-1.88,16.15,16.15,0,0,0-5.28.58,10.26,10.26,0,0,0-4.32,2.56c-2.42,2.4-3.81,5.92-4.75,9.48a38.49,38.49,0,0,0-1.16,11,36.66,36.66,0,0,0,2.08,10.71,35.14,35.14,0,0,0,12.66,16.89,4,4,0,0,1-4.62,6.58,4.32,4.32,0,0,1-.52-.44l-.06-.06a46.94,46.94,0,0,1-12.36-21.48,44,44,0,0,1,.61-24.12,34.48,34.48,0,0,1,2.21-5.69,18.31,18.31,0,0,1,3.75-5.11,13.36,13.36,0,0,1,5.66-3.13,20.39,20.39,0,0,1,6.22-.58,61.2,61.2,0,0,1,11.69,2.07c3.77,1,7.49,2,11.23,2.93,7.47,1.85,15.07,3.27,22.66,5.38a44.46,44.46,0,0,1,11.11,4.61,20.85,20.85,0,0,1,4.83,4.11,15.61,15.61,0,0,1,3.08,5.78,24.83,24.83,0,0,1-.26,12.57,42.34,42.34,0,0,1-1.82,5.87,47.45,47.45,0,0,1-2.66,5.58,46.09,46.09,0,0,1-17.6,17.5h0a4,4,0,0,1-4-7C179.17,311.59,179.36,311.5,179.53,311.43Z"/><path class="cls-4" d="M123.92,287.11c-4.7,1.29-9.59,1.13-14.42.54l-1.82-.25-1.81-.32c-1.22-.2-2.39-.52-3.58-.83-.59-.18-1.17-.37-1.74-.58s-1.16-.4-1.71-.66-1.12-.48-1.67-.75l-.82-.39-.11-.05-.19-.1-.35-.21a6.3,6.3,0,0,1-.63-.43,16,16,0,0,1-3.19-3.3,34.9,34.9,0,0,1-2.17-3.27,37.66,37.66,0,0,1-3.26-7.05,14.24,14.24,0,0,1-.56-2.38,5.85,5.85,0,0,1-.07-.92,5.4,5.4,0,0,1,.18-1.54,5.69,5.69,0,0,1,.21-.62,5.11,5.11,0,0,1,.4-.74l.2-.29.41-.55a17.63,17.63,0,0,1,3.25-3,34,34,0,0,1,6.73-3.82,58.65,58.65,0,0,1,14.11-4,81.55,81.55,0,0,1,14.26-.93A105.59,105.59,0,0,1,153.24,255l-.18,1a171,171,0,0,0-27.27.16c-8.89.87-17.72,2.8-25.28,6.52a32,32,0,0,0-5.16,3.13,12.52,12.52,0,0,0-1.79,1.67l-.1.14,0,.07a4,4,0,0,0,.29-.55,4.45,4.45,0,0,0,.15-.42,3.08,3.08,0,0,0,.1-.69c0-.08,0-.08,0-.05a5.68,5.68,0,0,0,.25,1,30.41,30.41,0,0,0,2.52,5.45,27.41,27.41,0,0,0,1.62,2.49,9.21,9.21,0,0,0,1.54,1.68l.09.07h0l.09,0,.72.38c.48.24,1,.5,1.43.77,1,.5,1.91,1,2.86,1.56,1.91,1,3.81,2.18,5.84,3a46.73,46.73,0,0,0,6.25,2.31c1.08.32,2.17.61,3.27.83a25.84,25.84,0,0,0,3.33.52Z"/><path class="cls-4" d="M197.67,300.53a31.64,31.64,0,0,0,3.25.64c1.09.18,2.19.31,3.29.42a65.5,65.5,0,0,0,6.55.36c2.18,0,4.36-.13,6.51-.27,1.07,0,2.15-.12,3.22-.13l1.6-.05,1.54,0c-.2,0,0,0,.18-.09a5.59,5.59,0,0,0,.88-.47,16.83,16.83,0,0,0,2.13-1.63,30,30,0,0,0,4-4.32c.28-.37.54-.75.76-1.09s.38-.72.33-.6a1.94,1.94,0,0,0-.09.5,2.93,2.93,0,0,0,0,.33,5,5,0,0,0,.06.53c0,.11,0,.23.07.32v0l0-.05-.06-.18-.09-.23a9,9,0,0,0-.54-1.08,28.87,28.87,0,0,0-3.38-4.74,58.05,58.05,0,0,0-9.16-8.5c-1.7-1.28-3.47-2.47-5.29-3.63s-3.71-2.18-5.61-3.22a128.71,128.71,0,0,0-24.65-9.51l.16-1A86.11,86.11,0,0,1,210,268.24a72.87,72.87,0,0,1,12.53,6.18,55.52,55.52,0,0,1,11.14,9,33.81,33.81,0,0,1,4.57,6,15.77,15.77,0,0,1,.95,1.93l.22.54.21.62,0,.15,0,.08c0,.12.07.28.09.42a4.59,4.59,0,0,1,.08.73,4.36,4.36,0,0,1,0,.55,6,6,0,0,1-.27,1.32,11.08,11.08,0,0,1-1.16,2.39c-.38.61-.76,1.15-1.14,1.67a37.45,37.45,0,0,1-5.13,5.54,24.46,24.46,0,0,1-3.21,2.42,14.52,14.52,0,0,1-2.09,1.08,8.66,8.66,0,0,1-3.07.69l-1.81-.05c-.59,0-1.17-.06-1.75-.11-1.17-.12-2.33-.25-3.49-.47s-2.3-.49-3.44-.81-2.26-.63-3.39-1a47.7,47.7,0,0,1-12.7-5.73Z"/><path class="cls-4" d="M160.49,315.46a7.3,7.3,0,0,1-1.31,2.63,16.93,16.93,0,0,1-1.88,2.16,39.64,39.64,0,0,1-4.33,3.61,13.69,13.69,0,0,1-5.38,2.52,9.55,9.55,0,0,1-2.23.2,4.85,4.85,0,0,1-1.05-.15,4.91,4.91,0,0,1-.83-.29l-.23-.11-.3-.17-.28-.19-.08-.06c-.28-.22-.58-.46-.82-.69a14.63,14.63,0,0,1-2.21-2.65,27.2,27.2,0,0,1-2.7-5.28,41.4,41.4,0,0,1-1.66-5.33A62.64,62.64,0,0,1,133.65,301a92.57,92.57,0,0,1,1.28-21,118,118,0,0,1,5.29-20l1,.23c-.35,3.4-.76,6.77-1,10.14s-.49,6.73-.6,10.08a114.84,114.84,0,0,0,1,19.78,63,63,0,0,0,2.1,9.36,30.46,30.46,0,0,0,3.61,8.08,8,8,0,0,0,1,1.26l.16.13s0,0,0,0l-.22-.15-.22-.12-.17-.08a2.87,2.87,0,0,0-.52-.19,1.58,1.58,0,0,0-.42-.06c-.22,0,.06,0,.31,0l2-.28c.75-.1,1.53-.18,2.34-.27a27.8,27.8,0,0,0,4.77-1,12.12,12.12,0,0,0,4.31-2Z"/><path class="cls-4" d="M183.88,307.13a86.17,86.17,0,0,1-4.52,10.62c-1.72,3.44-3.24,7-5.74,10.16a19.92,19.92,0,0,1-2.29,2.51,7.48,7.48,0,0,1-1.1.85,5.29,5.29,0,0,1-1.39.61,5.35,5.35,0,0,1-.8.14,4.26,4.26,0,0,1-.54,0,4.66,4.66,0,0,1-.64-.08l-.31-.06-.4-.13a4.49,4.49,0,0,1-.76-.38l-.29-.19,0,0,0-.05a12.79,12.79,0,0,1-1.55-1.41,18.32,18.32,0,0,1-2.14-2.83,27.85,27.85,0,0,1-1.56-2.87,42.59,42.59,0,0,1-3.41-11.75,79,79,0,0,1,.17-23.29,111.37,111.37,0,0,1,5.6-22.1l1,.23a213.32,213.32,0,0,0-1.59,22.26,90.3,90.3,0,0,0,2,21.5,43.06,43.06,0,0,0,3.4,9.62,16.34,16.34,0,0,0,2.44,3.67,4,4,0,0,0,.52.48h0l-.25-.17a3.32,3.32,0,0,0-.68-.34l-.35-.11-.27-.06a3.57,3.57,0,0,0-.56-.07c-.19,0-.38,0-.45,0a3.22,3.22,0,0,0-.62.11,2.18,2.18,0,0,0-.76.31c-.15.1-.07.07,0,0a20.88,20.88,0,0,0,1.57-1.57c2.32-2.57,5.17-5.12,7.76-7.82s5.21-5.46,7.66-8.27Z"/></g></svg>