<svg xmlns="http://www.w3.org/2000/svg" viewBox="0 0 320 640"><defs><style>.cls-1{fill:#00007f;}.cls-2{fill:blue;}.cls-3{fill:aqua;}.cls-4{fill:#0d0a09;}.cls-5{fill:none;stroke:#0d0a09;stroke-miterlimit:10;}</style></defs><g id="ART-strokes"><path class="cls-1" d="M180.89,214.43c1.61,1.48,3.22,2.95,4.69,4.56-.24,3.88-.64,8-1.23,12.36L161,231.11s-4.08-5.49-6-15.54C172.3,204.68,162,203,180.89,214.43Z"/><path class="cls-2" d="M176.28,192.05a47.28,47.28,0,0,0,3.05-16c3.93,7.69,7.58,21.61,6.25,43-1.47-1.61-3.08-3.08-4.69-4.56C162,203,172.3,204.68,155,215.57c-1.07-5.49-1.83-17-.63-25C160.28,198,173.49,201,176.28,192.05Z"/><path class="cls-3" d="M159.11,173.09c1.6-4,13.19-5,14.76-4.05s3.52,3.18,5.46,7a47.28,47.28,0,0,1-3.05,16c-2.79,9-16,5.91-22-1.49A79.28,79.28,0,0,1,159.11,173.09Z"/><path class="cls-1" d="M170.64,219.94a22.61,22.61,0,0,1,8.91,1.57c-15.72,2.12-28,17.87-31.82,33.06A20.33,20.33,0,0,0,149,267.9c-.42.74-.83,1.48-1.23,2.23.4-.75.81-1.49,1.23-2.23a38.16,38.16,0,0,0,5.13,8.59c8.83,8.82,18,16.62,28.68,22.23-2.83,1.62-6.73,2.5-12.13,2.5a40.64,40.64,0,1,1,0-81.28Z"/><path class="cls-2" d="M188.35,232.37c2.37,8.27,1.49,19.73,1.49,31.47,0,17.05,1.86,29.75-7.07,34.88-10.68-5.61-19.85-13.41-28.68-22.23A38.16,38.16,0,0,1,149,267.9,84.54,84.54,0,0,1,188.35,232.37Z"/><path class="cls-3" d="M179.55,221.51c4.74,2,7.37,5.85,8.8,10.86A84.54,84.54,0,0,0,149,267.9a20.33,20.33,0,0,1-1.23-13.33C151.53,239.38,163.83,223.63,179.55,221.51Z"/><path class="cls-4" d="M158.24,225.12a39.6,39.6,0,0,1-6.49-15.38,64.37,64.37,0,0,1-1.11-16.87,70.58,70.58,0,0,1,1-8.45,66,66,0,0,1,2.09-8.22c.4-1.36.92-2.67,1.39-4l.19-.5.05-.14.13-.28a5.6,5.6,0,0,1,.27-.55,8,8,0,0,1,1.3-1.68,10.92,10.92,0,0,1,2.63-1.87,20.71,20.71,0,0,1,4.77-1.71,33,33,0,0,1,4.59-.74c.78-.06,1.56-.1,2.39-.1a12.81,12.81,0,0,1,3,.3c.24.07.45.13.71.23a4.46,4.46,0,0,1,.55.25l.25.13.07,0,.6.39a13.21,13.21,0,0,1,1.08.81,19.68,19.68,0,0,1,1.87,1.75,28.25,28.25,0,0,1,5,7.86,43.2,43.2,0,0,1,2.7,8.4,60.67,60.67,0,0,1,1.25,8.48,74,74,0,0,1,.22,8.41c0,1.4-.11,2.78-.19,4.17s-.22,2.76-.38,4.14a111.32,111.32,0,0,1-3,16.19l-1-.13c.12-10.87,0-21.68-1.92-31.95a72.3,72.3,0,0,0-1.85-7.48,44.24,44.24,0,0,0-2.81-6.88,23.92,23.92,0,0,0-3.91-5.63,14.59,14.59,0,0,0-1.12-1l-.54-.4-.26-.16,0,0,.14.08.31.14a.84.84,0,0,0,.23.07c.08,0-.55-.06-1,0s-1.1,0-1.68.08a25.79,25.79,0,0,0-3.43.53,12.78,12.78,0,0,0-2.89,1,3.41,3.41,0,0,0-.69.44s0,0,.05-.09a.41.41,0,0,0,0-.09v0l0,.09-.18.46c-.47,1.21-1,2.42-1.39,3.65a119,119,0,0,0-4.53,14.9,58.4,58.4,0,0,0-1.29,15.56,48.19,48.19,0,0,0,1.06,7.82,32.4,32.4,0,0,0,2.56,7.48Z"/><path class="cls-5" d="M170.64,219.94c22.44,0,19.2,21.46,19.2,43.9s3.24,37.38-19.2,37.38a40.64,40.64,0,1,1,0-81.28Z"/><path class="cls-4" d="M170.64,216.79A28.75,28.75,0,0,1,178.7,218a18,18,0,0,1,7.41,4.46,19.69,19.69,0,0,1,4.31,7.26,37.66,37.66,0,0,1,1.65,7.69,124.67,124.67,0,0,1,.46,14.89c-.07,4.88-.21,9.68-.09,14.48s.29,9.65.21,14.65a48.46,48.46,0,0,1-.66,7.67,20.46,20.46,0,0,1-3,7.86,15.6,15.6,0,0,1-3.1,3.29,17.32,17.32,0,0,1-3.83,2.2,27.37,27.37,0,0,1-8,1.81,36.64,36.64,0,0,1-3.91.17l-3.92-.13c-1.29-.16-2.59-.35-3.89-.53s-2.56-.57-3.84-.86a43.88,43.88,0,0,1-32.05-48.5,42.74,42.74,0,0,1,5-15.06,44.15,44.15,0,0,1,10.1-12.15A44.6,44.6,0,0,1,170.64,216.79Zm0,6.3a38.26,38.26,0,0,0-13,2.63,37,37,0,0,0-11.2,7,37.6,37.6,0,0,0-8.06,10.34,38.31,38.31,0,0,0-3.95,12.44,38.86,38.86,0,0,0,.43,13,36.51,36.51,0,0,0,4.95,12.09,38.42,38.42,0,0,0,8.88,9.68,37.15,37.15,0,0,0,11.72,6.06c1.08.27,2.13.64,3.23.84l3.29.56,3.34.23c1.12,0,2.26,0,3.36,0a21.33,21.33,0,0,0,6.2-1.15,11.48,11.48,0,0,0,2.51-1.31,9.7,9.7,0,0,0,1.93-1.91,12.83,12.83,0,0,0,1.38-2.54,19.91,19.91,0,0,0,.87-3,43.15,43.15,0,0,0,.75-6.78c.21-4.69,0-9.54,0-14.42s.11-9.78.16-14.59a92.71,92.71,0,0,0-.66-14.14,29.36,29.36,0,0,0-1.59-6.46,14,14,0,0,0-3.21-5,12,12,0,0,0-5-2.78A23.42,23.42,0,0,0,170.64,223.09Z"/></g></svg>