<svg xmlns="http://www.w3.org/2000/svg" viewBox="0 0 320 640"><defs><style>.cls-1{fill:#00007f;}.cls-2{fill:blue;}.cls-3{fill:aqua;}.cls-4{fill:none;stroke:#0d0a09;stroke-miterlimit:10;}.cls-5{fill:#0d0a09;}</style></defs><g id="ART-strokes"><path class="cls-1" d="M186.41,288.44a22.75,22.75,0,0,0-7.41-5.19c9.62,12.62,7.18,32.45-.88,45.88a20.27,20.27,0,0,1-10.3,8.55c-.22.82-.45,1.63-.7,2.45.25-.82.48-1.63.7-2.45a37.85,37.85,0,0,1-9.7,2.45c-12.48,0-24.47-1-36-4.56.85,3.15,3,6.52,6.81,10.34a40.64,40.64,0,0,0,57.47-57.47Z"/><path class="cls-2" d="M165.1,284.7c-7.53,4.18-15,12.91-23.31,21.21-12,12-22.35,19.72-19.66,29.66,11.52,3.59,23.51,4.56,36,4.56a37.85,37.85,0,0,0,9.7-2.45A84.52,84.52,0,0,0,165.1,284.7Z"/><path class="cls-3" d="M179,283.25c-4.77-1.93-9.35-1.08-13.9,1.45a84.52,84.52,0,0,1,2.72,53,20.27,20.27,0,0,0,10.3-8.55C186.18,315.7,188.62,295.87,179,283.25Z"/><path class="cls-4" d="M186.41,288.44c-15.87-15.87-28.75,1.6-44.62,17.47s-28.72,24.13-12.85,40a40.64,40.64,0,0,0,57.47-57.47Z"/><path class="cls-5" d="M184.18,290.67a23.09,23.09,0,0,0-5-4,12,12,0,0,0-5.52-1.6,14,14,0,0,0-5.83,1.3,30.16,30.16,0,0,0-5.69,3.44,94.11,94.11,0,0,0-10.47,9.53c-3.36,3.44-6.74,7-10.21,10.43s-7,6.76-10.17,10.23a43.27,43.27,0,0,0-4.27,5.32,21.64,21.64,0,0,0-1.53,2.76,12.35,12.35,0,0,0-.82,2.78,9.84,9.84,0,0,0,0,2.71,11.74,11.74,0,0,0,.84,2.71,21.61,21.61,0,0,0,3.57,5.19,33.33,33.33,0,0,0,2.36,2.4l2.52,2.2,2.72,1.93c.91.64,1.92,1.12,2.87,1.69a37.48,37.48,0,0,0,12.58,4,38.54,38.54,0,0,0,13.12-.57,36.23,36.23,0,0,0,12.05-5.06,38.44,38.44,0,0,0,15.53-20.49,37.69,37.69,0,0,0,1.62-13,37.13,37.13,0,0,0-3-12.85A38.26,38.26,0,0,0,184.18,290.67Zm4.46-4.46a44.68,44.68,0,0,1,13.2,27.88,44.08,44.08,0,0,1-1.45,15.74,42.73,42.73,0,0,1-7.1,14.19,43.76,43.76,0,0,1-26.39,16.63,44.26,44.26,0,0,1-30.57-5c-1.11-.71-2.27-1.33-3.32-2.11s-2.1-1.57-3.13-2.38L127,348.5c-.92-.92-1.79-1.87-2.63-2.89a27,27,0,0,1-4.36-6.92,17.62,17.62,0,0,1-1.16-4.26,15.92,15.92,0,0,1,.14-4.52,20.49,20.49,0,0,1,3.43-7.68,48.93,48.93,0,0,1,5-5.9c3.48-3.59,7-6.86,10.51-10.21s6.77-6.8,10.17-10.3a124.51,124.51,0,0,1,10.86-10.2,37.65,37.65,0,0,1,6.59-4.27,19.72,19.72,0,0,1,8.19-2.08,17.91,17.91,0,0,1,8.39,2.08A28.76,28.76,0,0,1,188.64,286.21Z"/></g></svg>