<svg xmlns="http://www.w3.org/2000/svg" viewBox="0 0 320 640"><defs><style>.cls-1{fill:aqua;}.cls-2{fill:blue;}.cls-3{fill:#00007f;}.cls-4{fill:#0d0a09;}</style></defs><g id="ART-strokes"><path class="cls-1" d="M124.55,282.43a40.63,40.63,0,0,1,70.81-.17C173.75,271.89,147.83,273.81,124.55,282.43Z"/><path class="cls-2" d="M195.36,282.26a40.09,40.09,0,0,1,4.76,13.58c-17.29,12.55-43.16,10.41-63.22,4.94A48.44,48.44,0,0,1,121,290.9a41.13,41.13,0,0,1,3.56-8.47C147.83,273.81,173.75,271.89,195.36,282.26Z"/><path class="cls-3" d="M136.9,300.78c20.06,5.47,45.93,7.61,63.22-4.94a40.39,40.39,0,0,1,.52,6.45c0,22.45-21.46,19.2-43.91,19.2s-37.37,3.25-37.37-19.2A40.72,40.72,0,0,1,121,290.9,48.44,48.44,0,0,0,136.9,300.78Z"/><path class="cls-4" d="M203.79,302.29a29.12,29.12,0,0,1-1.18,8.06,18.08,18.08,0,0,1-4.46,7.41,19.81,19.81,0,0,1-7.27,4.32,37.53,37.53,0,0,1-7.68,1.64,122.61,122.61,0,0,1-14.89.46c-4.88-.06-9.68-.21-14.48-.09s-9.65.29-14.65.22a49.71,49.71,0,0,1-7.67-.67,20.37,20.37,0,0,1-7.86-3,15.94,15.94,0,0,1-3.3-3.11,17.68,17.68,0,0,1-2.19-3.83,27,27,0,0,1-1.81-8c-.13-1.32-.18-2.6-.18-3.9l.14-3.92c.15-1.3.35-2.6.52-3.9s.58-2.55.87-3.84a43.88,43.88,0,0,1,48.5-32,42.79,42.79,0,0,1,15.06,5,44.37,44.37,0,0,1,22.53,39.15Zm-6.31,0a37.79,37.79,0,0,0-2.63-13,36.76,36.76,0,0,0-7-11.2A37.68,37.68,0,0,0,177.52,270a38.18,38.18,0,0,0-12.43-3.95,38.86,38.86,0,0,0-13,.44A36.09,36.09,0,0,0,140,271.44a38.2,38.2,0,0,0-9.68,8.87A37.2,37.2,0,0,0,124.22,292c-.27,1.07-.65,2.13-.84,3.22l-.56,3.29-.23,3.34c0,1.12,0,2.27,0,3.36a21.54,21.54,0,0,0,1.15,6.2,11.72,11.72,0,0,0,1.32,2.51,9.44,9.44,0,0,0,1.91,1.93,11.88,11.88,0,0,0,2.54,1.38,20.12,20.12,0,0,0,3,.88,44.52,44.52,0,0,0,6.79.74c4.69.21,9.54,0,14.42,0s9.78.1,14.59.16a92.7,92.7,0,0,0,14.14-.67,29.93,29.93,0,0,0,6.46-1.58,14.11,14.11,0,0,0,5-3.21,12,12,0,0,0,2.77-5A22.76,22.76,0,0,0,197.48,302.29Z"/></g></svg>