<svg xmlns="http://www.w3.org/2000/svg" viewBox="0 0 640 320"><defs><style>.cls-1{fill:aqua;}.cls-2{fill:#00007f;}.cls-3{fill:blue;}.cls-4{fill:none;stroke:#0d0a09;stroke-miterlimit:10;stroke-width:6.83px;}</style></defs><g id="ART-fills"><path class="cls-1" d="M251.14,210.83c-15-.9-26.37-8.38-34.94-18.71-5.9,1.08-11.77,2.34-17.6,3.82,23.1,22.2,49.75,34.65,73,24.47,21.37-9.37,35.35-14.48,48.18-15.16C298,191.45,275.08,211.82,251.14,210.83Z"/><path class="cls-2" d="M320,82H141.6c0,34,25.12,83.27,57,113.92,39.6-10,81-10.1,121.4-10.11s81.8.07,121.4,10.11c31.88-30.65,57-79.88,57-113.92Z"/><path class="cls-3" d="M320,185.83c-34.47,0-69.64,0-103.8,6.29,8.57,10.33,19.94,17.81,34.94,18.71,23.94,1,46.81-19.38,68.6-5.58l.26,0,.25,0c21.8-13.8,44.67,6.57,68.61,5.58,15-.9,26.37-8.38,34.94-18.71C389.64,185.88,354.47,185.83,320,185.83Z"/><path class="cls-1" d="M388.86,210.83c15-.9,26.37-8.38,34.94-18.71,5.9,1.08,11.77,2.34,17.6,3.82-23.1,22.2-49.75,34.65-73,24.47-21.37-9.37-35.35-14.48-48.19-15.16C342.05,191.45,364.92,211.82,388.86,210.83Z"/></g><g id="ART-strokes"><path class="cls-4" d="M320,82H141.6c0,58.7,74.71,162.62,130,138.39,21.51-9.43,35.53-14.55,48.44-15.18,12.91.63,26.93,5.75,48.44,15.18,55.25,24.23,130-79.69,130-138.39Z"/></g></svg>