<svg xmlns="http://www.w3.org/2000/svg" viewBox="0 0 320 640"><defs><style>.cls-1{fill:aqua;}.cls-2{fill:blue;}.cls-3{fill:#00007f;}.cls-4{fill:#0d0a09;}</style></defs><g id="ART-strokes"><path class="cls-1" d="M197.93,252.41c17.87,0,27.55,4.87,30,8,.76,1-1,6.94-3.5,11.2C212.5,270.24,204.52,262.09,197.93,252.41Z"/><path class="cls-2" d="M197.93,252.41c6.59,9.68,14.57,17.83,26.47,19.24a10.82,10.82,0,0,1-3.51,4.11,78.9,78.9,0,0,1-18,7c-.31-11.09-2.94-21.73-10.06-30.22C194.61,252.46,196.3,252.42,197.93,252.41Z"/><path class="cls-3" d="M164.81,257a144.23,144.23,0,0,1,28-4.46c7.12,8.49,9.75,19.13,10.06,30.22-21.63,5.35-35.25-2.57-35.25-2.57Z"/><path class="cls-1" d="M84.82,298.4c.76-3.72,4.93-13.07,18.48-21.33.64,10.74-2.7,21.59-8.33,31.07C90.5,306,84.52,299.85,84.82,298.4Z"/><path class="cls-3" d="M111.72,272.68a108.71,108.71,0,0,1,22.58-7l22.27,16.67s-17,20-43.61,25.33C108.11,296.75,107.15,284.32,111.72,272.68Z"/><path class="cls-2" d="M95,308.14c5.63-9.48,9-20.33,8.33-31.07a74.59,74.59,0,0,1,8.42-4.39c-4.57,11.64-3.61,24.07,1.24,35a65.57,65.57,0,0,1-15.44,1.23A6.92,6.92,0,0,1,95,308.14Z"/><path class="cls-3" d="M195.23,286.65a40.63,40.63,0,0,1-67.3,22C151.69,311.87,175.75,302,195.23,286.65Z"/><path class="cls-2" d="M127.93,308.67a40.34,40.34,0,0,1-8.72-11.44C131.79,280,157.06,274,177.82,273A48.31,48.31,0,0,1,196,277.51a40.33,40.33,0,0,1-.78,9.14C175.75,302,151.69,311.87,127.93,308.67Z"/><path class="cls-1" d="M177.82,273c-20.76,1-46,6.94-58.61,24.21a42.21,42.21,0,0,1-2.48-6c-6.93-21.34,14.49-24.88,35.84-31.81s34.54-14.62,41.47,6.72a41,41,0,0,1,2,11.35A48.31,48.31,0,0,0,177.82,273Z"/><path class="cls-1" d="M171.34,271l5.6-12.2c8.32,26.36,7.42,44.13,4.6,53.92C181.82,299.56,175.91,283.48,171.34,271Z"/><path class="cls-2" d="M168.86,288.65l3.74-13.83c4.58,12.46,9.22,24.74,8.94,37.92-1.29,4.46-3,7.26-4.38,8.46-.38.33-1.61.28-3.2,0C176.81,311.09,172.41,299.82,168.86,288.65Z"/><path class="cls-3" d="M161.67,315.17l-2.5-36.9,4.7,5a32.83,32.83,0,0,1,7.29,12.46c2.79,8.79,5,17.46,2.8,25.39C169.87,320.36,163.27,317.8,161.67,315.17Z"/><path class="cls-1" d="M149.32,277.1l6.27-9.85c9.94,31.48,6.28,49.87,2.18,57.57C155.72,309.83,154.47,291.21,149.32,277.1Z"/><path class="cls-3" d="M140,307.26c2.39-1.51,4.94-1.16,6.3.69,3.46,5.14,5.53,10.73,4.28,16.76a135.58,135.58,0,0,1-11.72-14.54Z"/><path class="cls-2" d="M146.26,308c-1.36-1.85-3.91-2.2-6.3-.69l10.51-26.89c5.15,14.11,5.25,29.46,7.3,44.45a12.47,12.47,0,0,1-2.62,3.55c-.48.41-2.32-1.21-4.61-3.66C151.79,318.68,149.72,313.09,146.26,308Z"/><path class="cls-4" d="M139,320.25a46.1,46.1,0,0,1-18.84-16.17,47.58,47.58,0,0,1-3.06-5.37,44.36,44.36,0,0,1-2.25-5.72c-1.23-3.87-2.06-8.17-1.17-12.52a15.62,15.62,0,0,1,2.65-6,20.71,20.71,0,0,1,4.52-4.45,44.4,44.4,0,0,1,10.74-5.41c7.41-2.66,14.89-4.63,22.2-7,3.67-1.18,7.3-2.51,11-3.75a61.22,61.22,0,0,1,11.51-2.91,20.15,20.15,0,0,1,6.24.12,13.42,13.42,0,0,1,5.88,2.71,18.12,18.12,0,0,1,4.11,4.83,34.27,34.27,0,0,1,2.63,5.51,44,44,0,0,1,2.37,24,47.08,47.08,0,0,1-10.76,22.33l-.05.05a4,4,0,0,1-6.09-5.24,3.85,3.85,0,0,1,.5-.49A35.05,35.05,0,0,0,192.55,287a36.5,36.5,0,0,0,1.3-10.83,38.56,38.56,0,0,0-2-10.86c-1.2-3.48-2.83-6.89-5.43-9.11A10.41,10.41,0,0,0,182,254a16.27,16.27,0,0,0-5.32-.18,58.57,58.57,0,0,0-11,2.68c-3.65,1.18-7.31,2.46-11,3.72s-7.41,2.38-11.09,3.54-7.35,2.33-10.87,3.76a41.56,41.56,0,0,0-9.78,5.28,13.22,13.22,0,0,0-5.34,8.45,19.69,19.69,0,0,0,1.65,10.25,36.34,36.34,0,0,0,5.39,9.42A35.58,35.58,0,0,0,142,312.8a4,4,0,1,1-2.37,7.67,4.65,4.65,0,0,1-.52-.2Z"/><path class="cls-4" d="M195.72,283.49a25.26,25.26,0,0,0,3.29-.76c1.09-.3,2.15-.67,3.2-1.07a45.51,45.51,0,0,0,6.07-2.76c2-1,3.77-2.31,5.6-3.46.91-.62,1.82-1.19,2.74-1.76.45-.31.91-.6,1.37-.88l.69-.42.09-.06h0l.08-.07a8.91,8.91,0,0,0,1.41-1.79,25.51,25.51,0,0,0,1.44-2.6,30.79,30.79,0,0,0,2.11-5.62,7.11,7.11,0,0,0,.19-1s0,0,0,.06a2.38,2.38,0,0,0,.15.67,2.57,2.57,0,0,0,.17.41,4.09,4.09,0,0,0,.33.53l0-.06-.11-.13a11.62,11.62,0,0,0-1.91-1.54,31.44,31.44,0,0,0-5.37-2.75c-7.82-3.15-16.76-4.44-25.69-4.65a170.62,170.62,0,0,0-27.21,1.83l-.25-1a105.77,105.77,0,0,1,27.27-6.34,81.25,81.25,0,0,1,14.3-.12A58.54,58.54,0,0,1,220,251.09a34.4,34.4,0,0,1,7,3.31,18.25,18.25,0,0,1,3.46,2.78c.15.16.3.35.45.53l.23.27a5.64,5.64,0,0,1,.44.7,4.82,4.82,0,0,1,.26.61,5.26,5.26,0,0,1,.29,1.52,5.61,5.61,0,0,1,0,.92,14.27,14.27,0,0,1-.39,2.41,37.43,37.43,0,0,1-2.73,7.28,36.77,36.77,0,0,1-1.92,3.42,16.74,16.74,0,0,1-3,3.53c-.18.15-.37.31-.59.47l-.34.23-.19.12-.1.06-.79.44c-.53.31-1.07.6-1.61.88s-1.1.53-1.66.77-1.12.49-1.69.71c-1.16.39-2.31.8-3.51,1.09l-1.78.45-1.79.39c-4.78.94-9.65,1.45-14.43.51Z"/><path class="cls-4" d="M123.59,304.12a47.25,47.25,0,0,1-12.26,6.64c-1.09.42-2.19.84-3.31,1.21s-2.23.74-3.37,1-2.29.52-3.44.74c-.58.09-1.16.16-1.74.23l-1.8.18a8.71,8.71,0,0,1-3.12-.46,14,14,0,0,1-2.16-.93A25.2,25.2,0,0,1,89,310.6a37.72,37.72,0,0,1-5.51-5.14c-.43-.5-.84-1-1.26-1.59a11,11,0,0,1-1.34-2.3,5.85,5.85,0,0,1-.36-1.29,3.54,3.54,0,0,1-.06-.55,4.88,4.88,0,0,1,0-.74c0-.14,0-.3.07-.42v-.08l0-.16.16-.63.19-.56a16.81,16.81,0,0,1,.81-2,33.13,33.13,0,0,1,4.12-6.36A55.24,55.24,0,0,1,96.34,279,72.23,72.23,0,0,1,108.4,272a86.19,86.19,0,0,1,26.3-7.37l.23,1A128.3,128.3,0,0,0,111,276.84c-1.82,1.19-3.64,2.35-5.37,3.63s-3.4,2.61-5,4a59.11,59.11,0,0,0-8.52,9.15,29.84,29.84,0,0,0-3,5,10.06,10.06,0,0,0-.45,1.12l-.08.24,0,.18v.07a3.06,3.06,0,0,0,0-.32c0-.26,0-.38,0-.53a2.11,2.11,0,0,0,0-.34,2.3,2.3,0,0,0-.12-.49c-.06-.12.15.28.38.57s.52.69.83,1a30.69,30.69,0,0,0,4.27,4,17.11,17.11,0,0,0,2.24,1.47,6.57,6.57,0,0,0,.91.41c.24.08.39.07.18.07l1.54-.09,1.61-.07c1.06-.07,2.14-.06,3.21-.1,2.16,0,4.34,0,6.51-.21a65.68,65.68,0,0,0,6.52-.84c1.08-.19,2.17-.4,3.24-.66a31.45,31.45,0,0,0,3.2-.87Z"/><path class="cls-4" d="M162.1,314.91a12.09,12.09,0,0,0,4.44,1.64,29.27,29.27,0,0,0,4.83.61c.81,0,1.6,0,2.35.09l2,.14c.24,0,.52,0,.3,0a1.92,1.92,0,0,0-.41.1,3.52,3.52,0,0,0-.51.22l-.16.1-.21.14-.21.16,0,0c0-.06.09-.08.15-.16a7.09,7.09,0,0,0,1-1.32,30.56,30.56,0,0,0,3-8.32,63.94,63.94,0,0,0,1.4-9.5,114.34,114.34,0,0,0-.47-19.8c-.36-3.32-.81-6.66-1.34-10s-1.16-6.67-1.77-10l1-.3a116.78,116.78,0,0,1,6.73,19.54A92.34,92.34,0,0,1,187,299a61.52,61.52,0,0,1-.77,10.78,39.43,39.43,0,0,1-1.26,5.43,27,27,0,0,1-2.31,5.46,14.69,14.69,0,0,1-2,2.82c-.22.24-.51.49-.76.74l-.08.06-.27.21-.28.19-.23.13a4.54,4.54,0,0,1-.8.35,5.12,5.12,0,0,1-1,.23,9.12,9.12,0,0,1-2.23,0,13.55,13.55,0,0,1-5.56-2.12,38.2,38.2,0,0,1-4.58-3.29,15.41,15.41,0,0,1-2-2,7.17,7.17,0,0,1-1.5-2.53Z"/><path class="cls-4" d="M138.17,308.31c2.65,2.62,5.47,5.17,8.24,7.69s5.81,4.84,8.31,7.23c.62.55,1.27,1.17,1.68,1.45.09.06.17.09,0,0a2.23,2.23,0,0,0-.77-.25,2.7,2.7,0,0,0-.63-.07l-.46,0a3.22,3.22,0,0,0-.54.1l-.27.09a3,3,0,0,0-.35.13,3.86,3.86,0,0,0-.65.39c-.08,0-.25.2-.24.19h0a5.32,5.32,0,0,0,.49-.52,16.36,16.36,0,0,0,2.16-3.84,43.39,43.39,0,0,0,2.69-9.84,90.39,90.39,0,0,0,.47-21.6,217.77,217.77,0,0,0-3.21-22.07l.95-.3a112.45,112.45,0,0,1,7.2,21.62,79.43,79.43,0,0,1,1.87,23.22,43.18,43.18,0,0,1-2.55,12,27.86,27.86,0,0,1-1.35,3,17.68,17.68,0,0,1-1.93,3,11.68,11.68,0,0,1-1.43,1.52l-.06.05,0,0-.27.21a4.93,4.93,0,0,1-.74.43l-.38.16-.31.09-.63.12-.55,0a7.47,7.47,0,0,1-.8-.08,5.42,5.42,0,0,1-1.43-.51,6.82,6.82,0,0,1-1.16-.76,21.13,21.13,0,0,1-2.47-2.34c-2.73-3-4.5-6.41-6.46-9.72a84.82,84.82,0,0,1-5.29-10.26Z"/></g></svg>