<svg xmlns="http://www.w3.org/2000/svg" viewBox="0 0 320 640"><defs><style>.cls-1{fill:#00007f;}.cls-2{fill:blue;}.cls-3{fill:aqua;}.cls-4{fill:#0d0a09;}.cls-5{fill:none;stroke:#0d0a09;stroke-miterlimit:10;}</style></defs><g id="ART-strokes"><path class="cls-1" d="M148.44,317.38c-1.87-1.13-3.74-2.25-5.51-3.53-.54-3.85-1-8-1.26-12.35L164.61,297a156,156,0,0,1,7.25,15.31C165.2,318.7,157.71,320.69,148.44,317.38Z"/><path class="cls-2" d="M150,334a47.19,47.19,0,0,0,.23,16.32c-5.4-6.74-4.29-15.3-7.28-36.5,1.77,1.28,3.64,2.4,5.51,3.53,9.27,3.31,16.76,1.32,23.42-5,2.14,5.16-1.77,6.15-1.33,14.27C163.22,320.57,150.91,324.67,150,334Z"/><path class="cls-1" d="M169.34,344.7c-.75,4.27-10.67,12-12.39,11.39s-4.09-2.41-6.74-5.74A47.19,47.19,0,0,1,150,334c.93-9.36,13.24-13.46,20.55-7.41A78.75,78.75,0,0,1,169.34,344.7Z"/><path class="cls-1" d="M142.71,228.12a22.75,22.75,0,0,0-8.37,3.43c15.81-1.27,31.18,11.49,38.13,25.52a20.34,20.34,0,0,1,1.64,13.29c.57.63,1.13,1.26,1.68,1.91-.55-.65-1.11-1.28-1.68-1.91a37.81,37.81,0,0,1-3.18,9.48c-6.74,10.51-14,20.08-23.28,27.84,3.11,1,7.11,1,12.39-.15a40.64,40.64,0,0,0-17.33-79.41Z"/><path class="cls-2" d="M128.05,244c-.55,8.59,2.76,19.6,5.26,31.07,3.63,16.65,4.53,29.46,14.34,32.57,9.24-7.76,16.54-17.33,23.28-27.84a37.81,37.81,0,0,0,3.18-9.48A84.58,84.58,0,0,0,128.05,244Z"/><path class="cls-3" d="M134.34,231.55c-4.21,3-6,7.29-6.29,12.49a84.58,84.58,0,0,1,46.06,26.32,20.34,20.34,0,0,0-1.64-13.29C165.52,243,150.15,230.28,134.34,231.55Z"/><path class="cls-4" d="M168.47,302.35a10.27,10.27,0,0,1,2.31,3.29,21.54,21.54,0,0,1,1.41,3.62,17.57,17.57,0,0,1,.52,1.85c.15.63.33,1.26.45,1.88.22,1.26.5,2.53.63,3.79a108.11,108.11,0,0,1,.8,15.24c0,2.54-.21,5.07-.46,7.58-.17,1.25-.31,2.5-.5,3.74l-.28,1.87,0,.28c0,.16-.06.33-.1.47a7.41,7.41,0,0,1-.26.83,10.08,10.08,0,0,1-.6,1.35,19.29,19.29,0,0,1-2.74,3.8,35.65,35.65,0,0,1-3,2.94,39.35,39.35,0,0,1-3.23,2.59c-.57.4-1.17.8-1.82,1.19a13.06,13.06,0,0,1-2.42,1.17,7.33,7.33,0,0,1-1.1.29,4.91,4.91,0,0,1-2.47-.19,13.55,13.55,0,0,1-1.39-.61,11.81,11.81,0,0,1-2.27-1.57,18,18,0,0,1-3.1-3.64,33.79,33.79,0,0,1-3.5-7.54,82.57,82.57,0,0,1-3.25-15.07,161.73,161.73,0,0,1-.92-30l1-.07c1.92,9.76,3.61,19.48,6,28.89a95,95,0,0,0,4.32,13.56,29.91,29.91,0,0,0,3,5.72,9.52,9.52,0,0,0,1.73,2,3.68,3.68,0,0,0,.77.53,2.73,2.73,0,0,0,.31.14,3,3,0,0,0-1.56-.16l-.2,0a6.33,6.33,0,0,0,.89-.46c.41-.25.84-.54,1.27-.85a30.07,30.07,0,0,0,2.57-2,31,31,0,0,0,2.31-2.26,12.24,12.24,0,0,0,1.63-2.18,2.57,2.57,0,0,0,.15-.33l0-.06s0,0,0,0l0-.18.31-1.79c.21-1.19.46-2.38.68-3.57.44-2.38.93-4.75,1.4-7.13a95.71,95.71,0,0,0,2-14.35,49.12,49.12,0,0,0-.11-7.18,17.11,17.11,0,0,0-.22-1.77c-.1-.59-.19-1.18-.34-1.75a9.81,9.81,0,0,0-1.25-3.16Z"/><path class="cls-5" d="M142.71,228.12c-21.93,4.79-14.19,25.06-9.4,47s4.8,37.21,26.73,32.42a40.64,40.64,0,0,0-17.33-79.41Z"/><path class="cls-4" d="M143.38,231.2a23.12,23.12,0,0,0-6,2,12,12,0,0,0-4.32,3.79,13.88,13.88,0,0,0-2.06,5.6,29.33,29.33,0,0,0-.18,6.65,92.6,92.6,0,0,0,2.37,14c1.08,4.69,2.23,9.44,3.26,14.22s1.91,9.55,3.11,14.09a44.12,44.12,0,0,0,2.18,6.46,18.84,18.84,0,0,0,1.5,2.78,11.93,11.93,0,0,0,1.89,2.19,9.88,9.88,0,0,0,2.29,1.46,11.87,11.87,0,0,0,2.74.74,21,21,0,0,0,6.3-.2,32,32,0,0,0,3.29-.68l3.21-.94,3.1-1.24c1-.43,2-1,3-1.51a37.33,37.33,0,0,0,10.16-8.42,38.29,38.29,0,0,0,6.61-11.35A36.32,36.32,0,0,0,188.05,268a38.53,38.53,0,0,0-8.86-24.14,37.77,37.77,0,0,0-10.09-8.39A36.77,36.77,0,0,0,156.67,231,38.05,38.05,0,0,0,143.38,231.2ZM142,225a44.69,44.69,0,0,1,30.6,4,44.18,44.18,0,0,1,12.46,9.72,42.76,42.76,0,0,1,8.11,13.65,43.87,43.87,0,0,1-21,54.21c-1.19.56-2.34,1.2-3.57,1.67s-2.45.91-3.69,1.34l-3.8,1c-1.27.28-2.54.5-3.85.66a27.41,27.41,0,0,1-8.18-.07,17.87,17.87,0,0,1-4.21-1.33,15.74,15.74,0,0,1-3.73-2.56,20.32,20.32,0,0,1-4.61-7,49.25,49.25,0,0,1-2.29-7.35c-1.14-4.87-2-9.64-2.91-14.36s-2.07-9.37-3.18-14.13a123.44,123.44,0,0,1-2.72-14.64,37.5,37.5,0,0,1,0-7.86,19.77,19.77,0,0,1,2.66-8,18,18,0,0,1,6.29-5.94A28.7,28.7,0,0,1,142,225Z"/></g></svg>