<svg xmlns="http://www.w3.org/2000/svg" viewBox="0 0 320 640"><defs><style>.cls-1{fill:#00007f;}.cls-2{fill:blue;}.cls-3{fill:aqua;}.cls-4{fill:#0d0a09;}.cls-5{fill:none;stroke:#0d0a09;stroke-miterlimit:10;}</style></defs><g id="ART-strokes"><path class="cls-1" d="M171.56,317.38c1.87-1.13,3.74-2.25,5.51-3.53.54-3.85,1-8,1.26-12.35L155.39,297a156,156,0,0,0-7.25,15.31C154.8,318.7,162.29,320.69,171.56,317.38Z"/><path class="cls-2" d="M170,334a47.19,47.19,0,0,1-.23,16.32c5.4-6.74,4.29-15.3,7.28-36.5-1.77,1.28-3.64,2.4-5.51,3.53-9.27,3.31-16.76,1.32-23.42-5-2.14,5.16,1.77,6.15,1.33,14.27C156.78,320.57,169.09,324.67,170,334Z"/><path class="cls-1" d="M150.66,344.7c.75,4.27,10.67,12,12.39,11.39s4.09-2.41,6.74-5.74A47.19,47.19,0,0,0,170,334c-.93-9.36-13.24-13.46-20.55-7.41A78.75,78.75,0,0,0,150.66,344.7Z"/><path class="cls-1" d="M177.29,228.12a22.75,22.75,0,0,1,8.37,3.43c-15.81-1.27-31.18,11.49-38.13,25.52a20.34,20.34,0,0,0-1.64,13.29c-.57.63-1.13,1.26-1.68,1.91.55-.65,1.11-1.28,1.68-1.91a37.81,37.81,0,0,0,3.18,9.48c6.74,10.51,14,20.08,23.28,27.84-3.11,1-7.11,1-12.39-.15a40.64,40.64,0,1,1,17.33-79.41Z"/><path class="cls-2" d="M192,244c.55,8.59-2.76,19.6-5.26,31.07-3.63,16.65-4.53,29.46-14.34,32.57-9.24-7.76-16.54-17.33-23.28-27.84a37.81,37.81,0,0,1-3.18-9.48A84.58,84.58,0,0,1,192,244Z"/><path class="cls-3" d="M185.66,231.55c4.21,3,6,7.29,6.29,12.49a84.58,84.58,0,0,0-46.06,26.32,20.34,20.34,0,0,1,1.64-13.29C154.48,243,169.85,230.28,185.66,231.55Z"/><path class="cls-4" d="M152.18,303.11a9.81,9.81,0,0,0-1.25,3.16c-.15.57-.24,1.16-.34,1.75a17.11,17.11,0,0,0-.22,1.77,49.12,49.12,0,0,0-.11,7.18,95.71,95.71,0,0,0,2,14.35c.47,2.38,1,4.75,1.4,7.13.22,1.19.47,2.38.68,3.57l.31,1.79,0,.18s0,0,0,0l0,.06a2.57,2.57,0,0,0,.15.33,12.24,12.24,0,0,0,1.63,2.18,31,31,0,0,0,2.31,2.26,31.6,31.6,0,0,0,2.56,2c.44.31.87.6,1.28.85a6.33,6.33,0,0,0,.89.46l-.2,0a3,3,0,0,0-1.56.16,2.73,2.73,0,0,0,.31-.14,3.68,3.68,0,0,0,.77-.53,9.52,9.52,0,0,0,1.73-2,29.91,29.91,0,0,0,3-5.72,95,95,0,0,0,4.32-13.56c2.35-9.41,4-19.13,6-28.89l1,.07a161.73,161.73,0,0,1-.92,30,82.57,82.57,0,0,1-3.25,15.07,33.79,33.79,0,0,1-3.5,7.54,18,18,0,0,1-3.1,3.64,11.81,11.81,0,0,1-2.27,1.57,13.55,13.55,0,0,1-1.39.61,4.91,4.91,0,0,1-2.47.19,7.33,7.33,0,0,1-1.1-.29,13.06,13.06,0,0,1-2.42-1.17c-.65-.39-1.25-.79-1.82-1.19a39.35,39.35,0,0,1-3.23-2.59,35.65,35.65,0,0,1-3-2.94,19.29,19.29,0,0,1-2.74-3.8,10.08,10.08,0,0,1-.6-1.35,7.41,7.41,0,0,1-.26-.83c0-.14-.07-.31-.1-.47l0-.28-.28-1.87c-.19-1.24-.33-2.49-.5-3.74-.25-2.51-.43-5-.46-7.58a108.11,108.11,0,0,1,.8-15.24c.13-1.26.41-2.53.63-3.79.12-.62.3-1.25.45-1.87a17.92,17.92,0,0,1,.52-1.87,21.77,21.77,0,0,1,1.41-3.61,10.27,10.27,0,0,1,2.31-3.29Z"/><path class="cls-5" d="M177.29,228.12c21.93,4.79,14.19,25.06,9.4,47s-4.8,37.21-26.73,32.42a40.64,40.64,0,1,1,17.33-79.41Z"/><path class="cls-4" d="M178,225a28.7,28.7,0,0,1,7.62,2.88,18,18,0,0,1,6.29,5.94,19.77,19.77,0,0,1,2.66,8,37.5,37.5,0,0,1,0,7.86,123.44,123.44,0,0,1-2.72,14.64c-1.11,4.76-2.27,9.42-3.18,14.13s-1.77,9.49-2.91,14.36a49.25,49.25,0,0,1-2.29,7.35,20.32,20.32,0,0,1-4.61,7,15.74,15.74,0,0,1-3.73,2.56,17.87,17.87,0,0,1-4.21,1.33,27.41,27.41,0,0,1-8.18.07c-1.31-.16-2.58-.38-3.85-.66l-3.8-1c-1.24-.43-2.46-.89-3.69-1.34s-2.38-1.11-3.57-1.67a43.87,43.87,0,0,1-21-54.21,42.76,42.76,0,0,1,8.11-13.65A44.18,44.18,0,0,1,147.37,229,44.69,44.69,0,0,1,178,225Zm-1.35,6.16a38.05,38.05,0,0,0-13.29-.2,36.77,36.77,0,0,0-12.43,4.43,37.77,37.77,0,0,0-10.09,8.39A38.53,38.53,0,0,0,132,268a36.32,36.32,0,0,0,2.26,12.87,38.29,38.29,0,0,0,6.61,11.35A37.33,37.33,0,0,0,151,300.6c1,.49,1.94,1.08,3,1.51l3.1,1.24,3.21.94a32,32,0,0,0,3.29.68,21,21,0,0,0,6.3.2,11.87,11.87,0,0,0,2.74-.74,9.88,9.88,0,0,0,2.29-1.46,11.93,11.93,0,0,0,1.89-2.19,18.84,18.84,0,0,0,1.5-2.78,44.12,44.12,0,0,0,2.18-6.46c1.2-4.54,2.06-9.32,3.11-14.09s2.19-9.53,3.26-14.22a92.6,92.6,0,0,0,2.37-14,29.33,29.33,0,0,0-.18-6.65A14,14,0,0,0,187,237a12,12,0,0,0-4.32-3.78A23.12,23.12,0,0,0,176.62,231.2Z"/></g></svg>