<svg xmlns="http://www.w3.org/2000/svg" viewBox="0 0 640 320"><defs><style>.cls-1{fill:aqua;}.cls-2{fill:blue;}.cls-3{fill:#00007f;}.cls-4{fill:none;stroke:#0d0a09;stroke-miterlimit:10;stroke-width:6.5px;}</style></defs><g id="ART-fills"><path class="cls-1" d="M173,188.7q-6.92,1-13.8,2.31c5,18.52,16.19,32.81,39.27,40.5,44.4,14.8,87.94-14,115.2,7a11.3,11.3,0,0,0,1,.68C306.06,231.37,297,223.86,285,223,247.15,220.09,185.87,236,173,188.7Z"/><path class="cls-1" d="M467,188.7q6.91,1,13.8,2.31c-5,18.52-16.19,32.81-39.27,40.5-44.4,14.8-87.94-14-115.2,7a11.3,11.3,0,0,1-1,.68c8.66-7.8,17.74-15.31,29.77-16.17C392.85,220.09,454.13,236,467,188.7Z"/><path class="cls-2" d="M320,183.06h0c-48.9.63-98.41-1.59-147,5.64C185.87,236,247.15,220.09,285,223c12,.86,21.11,8.37,29.77,16.17a10.37,10.37,0,0,0,5.28,1.45h0a10.37,10.37,0,0,0,5.28-1.45c8.66-7.8,17.74-15.31,29.77-16.17,37.8-2.91,99.08,13,111.92-34.3C418.41,181.47,368.91,183.69,320,183.06Z"/><path class="cls-3" d="M481.62,83H158.38c0,40.25-7,79.22.85,108,53-10,107.22-7.26,160.77-7.95,53.55.69,107.81-2.05,160.77,7.95C488.59,162.23,481.62,123.26,481.62,83Z"/></g><g id="ART-strokes"><path class="cls-4" d="M481.62,83c0,66.13,18.84,128.85-40.12,148.5-44.4,14.8-87.94-14-115.2,7a10.38,10.38,0,0,1-12.6,0c-27.26-21-70.8,7.82-115.2-7-59-19.65-40.12-82.37-40.12-148.5"/></g></svg>