<svg xmlns="http://www.w3.org/2000/svg" viewBox="0 0 640 320"><defs><style>.cls-1{fill:#00007f;}.cls-2{fill:maroon;}.cls-3{fill:red;}.cls-4{fill:#ff0;}.cls-5{fill:#0d0a09;}.cls-6{fill:#ddd6ce;}.cls-7{fill:#fff6e9;}.cls-8{fill:#fffdfa;}</style></defs><g id="ART-fills"><path class="cls-1" d="M340,173.63c0,6.66-8.9,12.06-19.87,12.06s-19.86-5.4-19.86-12.06,8.89-19.3,19.86-19.3S340,167,340,173.63Z"/><path class="cls-2" d="M315.25,186.76A69.79,69.79,0,0,1,302.62,174a17.71,17.71,0,0,0-.3,3.2c0,5.53,5.69,17.24,10.61,26.33a7.86,7.86,0,0,0,4.95,3.92C321.05,200,321.37,191.35,315.25,186.76Z"/><path class="cls-3" d="M326.82,160.87A17.67,17.67,0,0,0,302.62,174a69.79,69.79,0,0,0,12.63,12.77c6.12,4.59,5.8,13.27,2.63,20.68a8.19,8.19,0,0,0,3.78.11C327.12,191.78,333.68,174.09,326.82,160.87Z"/><path class="cls-4" d="M326.82,160.87c6.86,13.22.3,30.91-5.16,46.68a7.91,7.91,0,0,0,5.41-4c4.92-9.09,10.61-20.8,10.61-26.33A17.69,17.69,0,0,0,326.82,160.87Z"/><path class="cls-2" d="M317.14,215.72a4.61,4.61,0,0,0-1.23,1.45c-2.58,4.76-5.51,10.75-6,14.22a19.38,19.38,0,0,0,2.38-.63C317.54,229,318.94,221,317.14,215.72Z"/><path class="cls-3" d="M321.6,215a4.67,4.67,0,0,0-4.46.7c1.8,5.29.4,13.27-4.89,15a19.38,19.38,0,0,1-2.38.63,6.38,6.38,0,0,0-.1,1,10.19,10.19,0,0,0,3.36,7.57c5.67-2.07,10.87-4.56,12.12-10.21C326.14,225.31,320.71,220.87,321.6,215Z"/><path class="cls-4" d="M324.09,217.17A4.52,4.52,0,0,0,321.6,215c-.89,5.85,4.54,10.29,3.65,14.74-1.25,5.65-6.45,8.14-12.12,10.21a10.22,10.22,0,0,0,17.1-7.57C330.23,229.2,326.94,222.43,324.09,217.17Z"/><path class="cls-5" d="M321.87,208.77a10.8,10.8,0,0,1-2.46,1,13.32,13.32,0,0,1-2.64.48,4.5,4.5,0,0,1-1.32-.09c-.44-.08-.88-.1-1.31-.14l-2.55-.25h0a1,1,0,1,1,.19-1.92h.05c.83.12,1.66.22,2.48.26a6.22,6.22,0,0,0,1.22,0,7.1,7.1,0,0,1,1.21-.08c.8.05,1.6.05,2.41,0s1.61-.1,2.44-.19h0a.48.48,0,0,1,.53.42A.49.49,0,0,1,321.87,208.77Z"/><path class="cls-5" d="M317.68,211.08c.83.09,1.64.17,2.45.2s1.6,0,2.4,0a7.08,7.08,0,0,1,1.21.07,6.22,6.22,0,0,0,1.22,0c.83-.05,1.65-.14,2.49-.27a1,1,0,1,1,.28,1.91h-.06l-2.56.25c-.43,0-.87.06-1.3.14a5,5,0,0,1-1.33.1,14.83,14.83,0,0,1-2.63-.48,10.9,10.9,0,0,1-2.47-1,.48.48,0,0,1-.18-.65.49.49,0,0,1,.47-.24Z"/><path class="cls-5" d="M324.78,193.86a60.44,60.44,0,0,0,2-7.36,57.66,57.66,0,0,0,1.06-7.52,71.32,71.32,0,0,0,.5-7.61c0-2.55-.1-5.11-.25-7.69a1,1,0,0,1,1.93-.12v0c.08,2.58.23,5.17.24,7.78s.1,5.22-.21,7.84a53.27,53.27,0,0,1-1.59,7.71,44.08,44.08,0,0,1-2.84,7.31.47.47,0,0,1-.87-.37Z"/><path class="cls-5" d="M314.35,183.8a30.88,30.88,0,0,1-3.25-10.35A52.08,52.08,0,0,1,311,168c0-1.8.11-3.58.16-5.36a1,1,0,0,1,1.93,0v0c-.12,1.77-.17,3.53-.17,5.28a45,45,0,0,0,.38,5.2,40.34,40.34,0,0,0,.65,5.14,48.35,48.35,0,0,0,1.27,5.08.47.47,0,0,1-.87.36Z"/><path class="cls-6" d="M328.07,211.67c-.21-.82.51-4,.7-4.8-4.78,1.15-8.71,4.86-14.52,3.89,4.22,2.81,9.42,1.68,14.57,2.14A4.41,4.41,0,0,1,328.07,211.67Z"/><path class="cls-7" d="M329.53,214.06a5,5,0,0,0-.71-1.16c-5.15-.46-10.35.67-14.57-2.14,5.81,1,9.74-2.74,14.52-3.89l.05-.19a8,8,0,0,0-.29-2.58c-5.31.71-11.29,1.64-16.36.53a34.89,34.89,0,0,1-.8,3.78c-.34,1-1.2,2.34-1.72,3.52,5.74,4.07,14.34,1.9,19.77,4.79A3,3,0,0,0,329.53,214.06Z"/><path class="cls-8" d="M309.25,213.11c-.47,2.9,2.39,5.33,5.33,5.33h10.84a4.56,4.56,0,0,0,4-1.72c-5.43-2.89-14-.72-19.77-4.79A5,5,0,0,0,309.25,213.11Z"/><path class="cls-8" d="M328.53,204.1c-.39-1.1-1.25-1.6-3.11-1.6H314.58c-1.56,0-2.1.89-2.41,2.13C317.24,205.74,323.22,204.81,328.53,204.1Z"/></g><g id="ART-strokes"><path class="cls-5" d="M311.17,204.36c-1.66-4.43-3.58-8.76-5.36-13.15q-1.35-3.28-2.54-6.65c-.38-1.13-.73-2.28-1-3.45a16,16,0,0,1-.55-3.62,22.27,22.27,0,0,1,1.27-7.14,23,23,0,0,1,3.39-6.63,15.13,15.13,0,0,1,6.05-4.78,16.16,16.16,0,0,1,7.66-1.22A17.6,17.6,0,0,1,327.3,160a22.61,22.61,0,0,1,5.62,4.62,20.91,20.91,0,0,1,3.84,6,18.65,18.65,0,0,1,1.38,7,29.19,29.19,0,0,1-1.4,7.05c-.67,2.28-1.5,4.5-2.31,6.73-1.66,4.44-3.46,8.83-5.16,13.29l-4.4-2.38a102.43,102.43,0,0,0,7.45-11.86c1.11-2,2.1-4.15,3-6.28a24.19,24.19,0,0,0,1.87-6.59,16.2,16.2,0,0,0-4.76-12.49,14,14,0,0,0-5.89-3.3,17.41,17.41,0,0,0-6.47-.51,21.52,21.52,0,0,0-6.05,1.47,24,24,0,0,0-5.54,3,13.74,13.74,0,0,0-4.28,5,14.27,14.27,0,0,0-1.25,6.6,21,21,0,0,0,1.88,6.51,62.27,62.27,0,0,0,3.1,6.23A114,114,0,0,0,315.57,202Z"/><path class="cls-5" d="M327.83,219.35c.49,2.48,1.31,4.82,2,7.23a27.79,27.79,0,0,1,.88,3.68,11.25,11.25,0,0,1,0,3.84,26.61,26.61,0,0,1-1.05,3.7,12.48,12.48,0,0,1-1.91,3.64,8,8,0,0,1-3.46,2.51,9.12,9.12,0,0,1-4.26.46,10.17,10.17,0,0,1-3.89-1.47,17.43,17.43,0,0,1-5.29-5.4,11.5,11.5,0,0,1-1.54-5.38,6.1,6.1,0,0,1,.32-2,24.34,24.34,0,0,1,1.51-3.48,27.53,27.53,0,0,0,2.53-6.7,2.61,2.61,0,1,1,5.13,1,2.56,2.56,0,0,1-.63,1.26l-.08.09c-1.82,2-3.58,3.74-5.18,5.52a14.43,14.43,0,0,0-2.05,2.8,4.34,4.34,0,0,0-.52,1.53,8.17,8.17,0,0,0,0,1.71,9.1,9.1,0,0,0,1,3.31,6.8,6.8,0,0,0,5.47,3.79,10.75,10.75,0,0,0,3.18-.17,27.28,27.28,0,0,0,5.57-1.94,7.41,7.41,0,0,0,2.65-1.91,5.77,5.77,0,0,0,1.3-3.09c.4-2.28-.49-4.47-1.66-6.5a29.75,29.75,0,0,0-4.44-5.72,2.61,2.61,0,0,1,3.71-3.68A2.67,2.67,0,0,1,327.83,219.35Z"/><path class="cls-5" d="M325.42,219.94c-2.05,0-4.1,0-6.14-.09l-3.08-.09-1.53-.06a7.08,7.08,0,0,1-1.82-.31,6.84,6.84,0,0,1-3.08-1.91,5.31,5.31,0,0,1-1.47-3.39,4.9,4.9,0,0,1,.06-.94,4.35,4.35,0,0,1,.25-.91,12,12,0,0,1,.74-1.48,23.76,23.76,0,0,0,1.43-2.61,19.72,19.72,0,0,0,.7-2.89,7.63,7.63,0,0,1,.45-1.59,2.6,2.6,0,0,1,1.25-1.39,3.92,3.92,0,0,1,1.72-.28h1.54l3.07,0c2.06-.06,4.08-.1,6.17-.2a5.22,5.22,0,0,1,1.76.18,3,3,0,0,1,1.71,1.27,4.86,4.86,0,0,1,.62,1.82c.09.57.13,1.11.17,1.65v.08l0,.18a34.29,34.29,0,0,0-.61,3.6,5.31,5.31,0,0,0,0,.76c0,.06,0,.07,0,0h0l.12.18a13.58,13.58,0,0,1,1.2,1.65,5.81,5.81,0,0,1,.44,1.22,4.28,4.28,0,0,1,.12,1.35,4,4,0,0,1-1.22,2.6A6.78,6.78,0,0,1,325.42,219.94Zm0-3a4,4,0,0,0,2.53-.71,1.17,1.17,0,0,0,.42-.73,1.59,1.59,0,0,0,0-.53,2.76,2.76,0,0,0-.16-.57,14.63,14.63,0,0,0-.93-1.49,4.44,4.44,0,0,1-.31-.65,2.12,2.12,0,0,1-.12-.45,2.52,2.52,0,0,1,0-.42,8.78,8.78,0,0,1,.09-1.13,38,38,0,0,1,.84-3.85l0,.27a6.19,6.19,0,0,0-.18-2.54,1.1,1.1,0,0,0-.63-.6,3.55,3.55,0,0,0-1.25-.27c-2-.13-4.09-.16-6.13-.22l-3.07,0-1.54,0a2.7,2.7,0,0,0-1.27.2c-.67.31-.92,1.27-1.07,2.25a20.22,20.22,0,0,1-.56,3.11,25.65,25.65,0,0,1-1.27,2.91,10.46,10.46,0,0,0-.51,1.32,2,2,0,0,0-.1.58,2.32,2.32,0,0,0,0,.59,4,4,0,0,0,3.31,3.13,4.51,4.51,0,0,0,1.22.09l1.53-.07,3.08-.09C321.32,217,323.37,217,325.42,216.94Z"/></g><g id="Kitchen_Sink" data-name="Kitchen Sink"><path class="cls-4" d="M323,189.93a55.63,55.63,0,0,0,1.33-6.83,51.34,51.34,0,0,0,.43-6.9,61.86,61.86,0,0,0-.08-6.94c-.18-2.32-.44-4.64-.76-7a.88.88,0,1,1,1.74-.24v0c.26,2.33.57,4.68.76,7a67.68,67.68,0,0,1,.36,7.13,45.77,45.77,0,0,1-.9,7.11,40,40,0,0,1-2.06,6.84.43.43,0,0,1-.56.24A.45.45,0,0,1,323,189.93Z"/><path class="cls-4" d="M310,165.21a39.71,39.71,0,0,0,.14,10.22,46.21,46.21,0,0,0,.79,5.08q.57,2.51,1.29,5a.65.65,0,1,1-1.25.36v0c-.43-1.68-.9-3.36-1.29-5.07a50.4,50.4,0,0,1-1-5.18,36.08,36.08,0,0,1-.09-5.3,29.66,29.66,0,0,1,.8-5.22.32.32,0,0,1,.39-.23A.34.34,0,0,1,310,165.21Z"/><path class="cls-6" d="M311.36,212.85a18.48,18.48,0,0,0,4.79.89c.81,0,1.62,0,2.43,0a12.83,12.83,0,0,1,2.47.4,0,0,0,0,1,0,.06s0,0,0,0a8.89,8.89,0,0,1-2.48.5,10.62,10.62,0,0,1-2.51-.23,15.33,15.33,0,0,1-4.74-1.59s0,0,0-.07A.07.07,0,0,1,311.36,212.85Z"/><path class="cls-6" d="M311.36,212.82a18.91,18.91,0,0,0,4.79.89c.81,0,1.62-.05,2.43,0a12.8,12.8,0,0,1,2.47.39.05.05,0,0,1,0,.07,0,0,0,0,1,0,0,8.56,8.56,0,0,1-2.48.51,10.13,10.13,0,0,1-2.51-.24,15.07,15.07,0,0,1-4.74-1.59,0,0,0,0,1,0-.07A0,0,0,0,1,311.36,212.82Z"/><path class="cls-6" d="M313,204.84c.87,0,1.67,0,2.47,0s1.59.19,2.4.21a40.61,40.61,0,0,0,4.91-.22.05.05,0,0,1,.05,0,.05.05,0,0,1,0,.05,26.66,26.66,0,0,1-4.9.92,8.65,8.65,0,0,1-2.54,0,6.43,6.43,0,0,1-2.38-.93,0,0,0,0,1,0-.07S313,204.84,313,204.84Z"/></g></svg>