<svg xmlns="http://www.w3.org/2000/svg" viewBox="0 0 640 160"><defs><style>.cls-1{fill:#ddd6ce;}.cls-2{fill:#fff6e9;}.cls-3{fill:#0d0a09;}</style></defs><g id="ART-fills"><path class="cls-1" d="M236.48,52.44c4.64-6,9.29-17.15,15.1-20.78a35.7,35.7,0,0,0-13.71,3.42c-5,2.36-8.44,11.82-9.32,15.76-2.71,12.27,2.32,17.77,8.71,23.47a5.79,5.79,0,0,0,3.07,1.32C233.31,70.33,231.74,60,236.48,52.44Z"/><path class="cls-2" d="M252.66,31.62c-.37,0-.72,0-1.08,0-5.81,3.63-10.46,14.82-15.1,20.78-4.74,7.6-3.17,17.89,3.85,23.19,3.85.56,8.83-1.63,9.77-5.08,3.07-11.14,16.56-32,16.56-32S269.64,31.46,252.66,31.62Z"/><path class="cls-1" d="M263.48,56.44C266,49.64,269.2,36,273.91,29.77A41.66,41.66,0,0,0,264.28,33c-5.65,2.68-9.57,12.65-10.56,17.12-3.09,13.92,2.62,20.16,9.87,26.62a6.54,6.54,0,0,0,3.4,1.48C262.93,71.57,260.8,63.61,263.48,56.44Z"/><path class="cls-2" d="M281.06,29a38.38,38.38,0,0,0-7.15.73c-4.71,6.26-8,19.87-10.43,26.67-2.68,7.17-.55,15.13,3.51,21.74,4.39.68,10.09-1.81,11.17-5.74,3.48-12.64,18.77-35.54,18.77-35.54S300.32,28.86,281.06,29Z"/><path class="cls-1" d="M306,24.08a47,47,0,0,0-15.7,14.23c-4.72,6.57-7,20-6.09,26.46,2.21,16.33,8.31,22.76,16,27.07-5.13-6.87-7.58-16.06-5.73-24.4,3-10.82,15.58-15.83,26.47-14.08,2.05-11.94,4.77-27.48,4.77-27.48S325.83,13.46,306,24.08Z"/><path class="cls-2" d="M294.48,67.44c-1.85,8.34.6,17.53,5.73,24.4,1.75,1,3.57,1.84,5.45,2.69,5.62,2.52,14-6,13.28-13.48-.76-8.07.42-18.49,2-27.69C310.06,51.61,297.44,56.62,294.48,67.44Z"/><path class="cls-2" d="M405.48,61.44C397.24,53.2,387.65,40,378.37,32.53c-6.76,1.88-5,6-5,6s13.49,20.86,16.56,32c.87,3.16,5.13,5.27,8.8,5.16C404.39,72,408.86,65.67,405.48,61.44Z"/><path class="cls-1" d="M411.45,50.84c-.88-3.94-4.34-13.4-9.32-15.76a35.34,35.34,0,0,0-14.79-3.46,32.85,32.85,0,0,0-9,.91c9.28,7.44,18.87,20.67,27.11,28.91,3.38,4.23-1.09,10.59-6.78,14.27a6.23,6.23,0,0,0,4-1.4C409.13,68.61,414.16,63.11,411.45,50.84Z"/><path class="cls-2" d="M347,30.68c-5.54,2.31-3.9,6.22-3.9,6.22s15.29,22.9,18.77,35.54c1.4,5.09,10.59,7.8,14.57,4.26,1-.92,2-1.83,3-2.76,2.64-5.71,3.18-12.07-.9-17.5A149.26,149.26,0,0,0,347,30.68Z"/><path class="cls-1" d="M375.72,33A40.21,40.21,0,0,0,358.94,29c-5.82-.06-9.57.65-12,1.64a149.26,149.26,0,0,1,31.51,25.76c4.08,5.43,3.54,11.79.9,17.5,5.72-5.63,9.55-11.92,6.9-23.86C385.29,45.61,381.37,35.64,375.72,33Z"/><path class="cls-2" d="M322.67,53.79c1.12,7.82,1.83,16.28,1.11,23-.74,7,6.9,14.8,12.12,12.38a61.29,61.29,0,0,0,5.77-3c5.49-6.14,8.58-13.93,6.81-22.77C346.56,51.91,332.63,48.69,322.67,53.79Z"/><path class="cls-1" d="M336.39,23.23c-18.25-9.65-18.3,1.91-18.3,1.91s2.81,16.38,4.58,28.65c10-5.1,23.89-1.88,25.81,9.65,1.77,8.84-1.32,16.63-6.81,22.77,6.88-4.11,12.3-10.25,14.46-25,.88-6-1.1-18.88-5.38-24.94A42.05,42.05,0,0,0,336.39,23.23Z"/></g><g id="ART-strokes"><path class="cls-3" d="M255.26,48.66c-1,6.94-2.27,13.76-3.95,20.54L251,70.46a7,7,0,0,1-.49,1.39,7.3,7.3,0,0,1-1.84,2.27,11.6,11.6,0,0,1-5.07,2.37,9.22,9.22,0,0,1-5.74-.49,6.72,6.72,0,0,1-1.33-.86l-1-.86c-.66-.57-1.33-1.15-2-1.76a23.72,23.72,0,0,1-6.39-8.92A24.13,24.13,0,0,1,226,52.45c.11-.93.2-1.81.4-2.76s.41-1.82.66-2.71a47.51,47.51,0,0,1,1.8-5.23,31.33,31.33,0,0,1,2.67-5.12,14,14,0,0,1,4.84-4.71l.31-.18a3.54,3.54,0,0,1,3.46,6.18,3.47,3.47,0,0,1-.78.32,6.93,6.93,0,0,0-2.84,2.14,22,22,0,0,0-2.63,3.8,34.69,34.69,0,0,0-2.09,4.39,30.91,30.91,0,0,0-1.44,4.59,18.83,18.83,0,0,0-.08,9.4,19.58,19.58,0,0,0,5,8.21c.58.61,1.17,1.22,1.78,1.81l.94.89a4.19,4.19,0,0,0,.82.59,7.15,7.15,0,0,0,4.41.55,9.4,9.4,0,0,0,4.31-1.83A5.69,5.69,0,0,0,249,71.09a4.25,4.25,0,0,0,.39-1.06l.34-1.24a107.17,107.17,0,0,0,3.35-20.33v0a1.1,1.1,0,1,1,2.19.14A.28.28,0,0,1,255.26,48.66Z"/><path class="cls-3" d="M289,46a158.67,158.67,0,0,0-8.79,22.44c-.28,1-.57,1.92-.82,2.89L279,72.79a6.53,6.53,0,0,1-.7,1.6,10.58,10.58,0,0,1-5.16,4.07,12.73,12.73,0,0,1-6.52.84,8.05,8.05,0,0,1-3.3-1.25c-.54-.39-.89-.72-1.29-1l-1.16-1a31.15,31.15,0,0,1-8-9.84,25.06,25.06,0,0,1-2-12.84c.08-1.07.2-2.14.37-3.19a26.57,26.57,0,0,1,.7-3.21,50,50,0,0,1,2.13-6.09A33.46,33.46,0,0,1,257.27,35a16.57,16.57,0,0,1,5.51-5.19l.17-.09a3.52,3.52,0,0,1,3.36,6.18,3.59,3.59,0,0,1-.53.24,9,9,0,0,0-3.53,2.7,26.72,26.72,0,0,0-3.08,4.49,36.86,36.86,0,0,0-2.38,5.14,25.37,25.37,0,0,0-.83,2.65c-.26.92-.46,1.84-.63,2.77a18.92,18.92,0,0,0,3.45,15.83,37.82,37.82,0,0,0,3.89,4.36l1.06,1.05c.37.34.75.71,1,.93A5.45,5.45,0,0,0,267,77a10.52,10.52,0,0,0,5.39-.5,8.37,8.37,0,0,0,4.32-3.11,4.25,4.25,0,0,0,.54-1.14l.44-1.45c.29-1,.61-1.94.92-2.9,1.24-3.87,2.63-7.67,4-11.47l2.14-5.69L287,45.1a1.1,1.1,0,1,1,2,.8l0,.07Z"/><path class="cls-3" d="M322.87,48.86A54.07,54.07,0,0,0,321,56a70.86,70.86,0,0,0-1.14,7.41,80.61,80.61,0,0,0-.18,15c.09,1.26.27,2.42.27,3.86a13,13,0,0,1-.75,4,16.88,16.88,0,0,1-4.4,6.68,13.49,13.49,0,0,1-3.4,2.33,8.28,8.28,0,0,1-4.28.86,7.63,7.63,0,0,1-1.16-.21,9.22,9.22,0,0,1-1-.39l-1.76-.76c-1.17-.52-2.33-1.08-3.48-1.69a34.49,34.49,0,0,1-6.57-4.41,27.53,27.53,0,0,1-5.21-6.12,45,45,0,0,1-5.56-14.78c-.14-.64-.27-1.28-.38-1.92s-.23-1.32-.31-2a31.39,31.39,0,0,1-.15-4.09,58.12,58.12,0,0,1,.69-7.93A54.47,54.47,0,0,1,283.94,44a31.84,31.84,0,0,1,3.46-7.75,3.51,3.51,0,1,1,5.9,3.79,2.69,2.69,0,0,1-.2.27v0a23.29,23.29,0,0,0-3.2,5.78A51.2,51.2,0,0,0,286.59,60a31.35,31.35,0,0,0-.1,3.47c.05,1.05.2,2.36.35,3.55a39.15,39.15,0,0,0,4.1,13.73,24.19,24.19,0,0,0,4.27,5.62,29.44,29.44,0,0,0,5.78,4.3c1.06.61,2.15,1.19,3.26,1.75l1.68.82a7.08,7.08,0,0,0,.72.3,4,4,0,0,0,.7.16c2,.28,4.21-.84,5.93-2.37a14.88,14.88,0,0,0,4-5.72,11.13,11.13,0,0,0,.73-3.39c0-1.08-.12-2.43-.18-3.69a103.66,103.66,0,0,1,.35-15.26c.25-2.53.56-5.06,1-7.57s.94-5,1.61-7.54a1.1,1.1,0,0,1,2.13.56l0,.09Z"/><path class="cls-3" d="M387.86,52.6a51.48,51.48,0,0,0,.5,9.68,33.3,33.3,0,0,0,1,4.7,12.74,12.74,0,0,0,1.92,4.16,9.81,9.81,0,0,0,7.9,3.44,5.13,5.13,0,0,0,1.94-.54,4.15,4.15,0,0,0,.77-.55c.27-.24.58-.55.86-.83a44.65,44.65,0,0,0,3.28-3.49A17,17,0,0,0,410,61.12a20.91,20.91,0,0,0-.64-8.93,34.76,34.76,0,0,0-3.52-8.44,21.62,21.62,0,0,0-2.52-3.53,6.83,6.83,0,0,0-2.68-2,3.54,3.54,0,1,1,1.95-6.8,3.89,3.89,0,0,1,.72.3l.32.18a13.91,13.91,0,0,1,4.67,4.44,29.44,29.44,0,0,1,2.63,4.84,44.43,44.43,0,0,1,1.8,4.94c.26.84.49,1.68.69,2.54a21.88,21.88,0,0,1,.48,2.62,26.61,26.61,0,0,1-.44,10.61A21.11,21.11,0,0,1,408.1,71a47.83,47.83,0,0,1-3.71,3.45l-1,.81a6.34,6.34,0,0,1-1.27.81,7.28,7.28,0,0,1-2.81.65,11.15,11.15,0,0,1-5.23-1.2,11.77,11.77,0,0,1-4.17-3.29,7.63,7.63,0,0,1-.74-1.16c-.2-.4-.36-.79-.53-1.19a23.83,23.83,0,0,1-.83-2.42,44.24,44.24,0,0,1-1.08-4.9c-.53-3.3-.87-6.58-1.1-9.94a1.1,1.1,0,0,1,2.2-.15v.15Z"/><path class="cls-3" d="M351.79,36c2.49,8.49,5.07,16.94,7.66,25.4l1.91,6.35.95,3.19c.15.51.31,1.11.46,1.54a4.91,4.91,0,0,0,.65,1.24,9.08,9.08,0,0,0,5,3.15,9.35,9.35,0,0,0,5.81-.12,4.45,4.45,0,0,0,1.14-.67l.25-.21.29-.28.59-.57c.79-.75,1.56-1.52,2.29-2.3a27.57,27.57,0,0,0,3.86-5A18.44,18.44,0,0,0,385,56a32.45,32.45,0,0,0-3.64-11.74,29.64,29.64,0,0,0-3.28-5,9.59,9.59,0,0,0-3.86-3.07,3.52,3.52,0,1,1,2.24-6.68,3.25,3.25,0,0,1,.54.23l.22.12a14,14,0,0,1,3.45,2.68,22.54,22.54,0,0,1,2.42,3.06A35.23,35.23,0,0,1,386.37,42a45.18,45.18,0,0,1,2.1,6.75,38.07,38.07,0,0,1,.73,7.05,25.33,25.33,0,0,1-.91,7.11,21.45,21.45,0,0,1-3.06,6.46,33.78,33.78,0,0,1-4.57,5.21c-.83.78-1.67,1.52-2.52,2.25l-.64.54-.32.28-.41.31a7.68,7.68,0,0,1-1.75.91,11.45,11.45,0,0,1-7.21-.09,11.31,11.31,0,0,1-5.87-4.06,6.66,6.66,0,0,1-.85-1.71c-.19-.62-.3-1.09-.45-1.64l-.88-3.18c-.59-2.13-1.23-4.24-1.85-6.36q-3.8-12.68-8.21-25.18a1.1,1.1,0,0,1,2.07-.74A.14.14,0,0,1,351.79,36Z"/><path class="cls-3" d="M321.07,33.11c.91,5.23,1.75,10.42,2.37,15.67s1.18,10.5,1.42,15.78c.12,2.65.17,5.3.09,8,0,1.33-.15,2.66-.23,4a9.35,9.35,0,0,0,.29,3.58,13,13,0,0,0,3.84,6.09,9.73,9.73,0,0,0,3,1.86,4.56,4.56,0,0,0,3.07.17,14.24,14.24,0,0,0,1.61-.75l1.72-.89c1.13-.61,2.24-1.25,3.29-1.95a24.47,24.47,0,0,0,5.57-4.89C350.24,76,352,71.17,353,66.24c.26-1.24.44-2.49.61-3.75.06-.62.16-1.29.2-1.87s.06-1.14.06-1.74a40.43,40.43,0,0,0-.81-7.35,49.82,49.82,0,0,0-2-7.17,22.4,22.4,0,0,0-3.16-6l0,0A3.5,3.5,0,0,1,353.39,34a1.69,1.69,0,0,1,.21.31A30.75,30.75,0,0,1,357,42.49a54.71,54.71,0,0,1,1.53,8.2,51.6,51.6,0,0,1,.27,8.36c-.05.72-.12,1.45-.24,2.2s-.26,1.35-.39,2c-.3,1.33-.61,2.66-1,4-1.45,5.24-3.78,10.52-7.65,14.65A29.14,29.14,0,0,1,343,87.05c-1.18.7-2.38,1.33-3.6,1.91l-1.82.84a17.14,17.14,0,0,1-2,.81A7,7,0,0,1,331,90.2a12.2,12.2,0,0,1-3.61-2.41,15,15,0,0,1-4.23-7.22,11.51,11.51,0,0,1-.23-4.25c.09-1.29.27-2.57.29-3.87s.12-2.6.1-3.91,0-2.61-.06-3.91a170.38,170.38,0,0,0-4.3-31.06v0a1.1,1.1,0,0,1,.83-1.31,1.08,1.08,0,0,1,1.31.82S321.07,33.09,321.07,33.11Z"/></g></svg>