<svg id="ART-fills" xmlns="http://www.w3.org/2000/svg" viewBox="0 0 640 160"><defs><style>.cls-1{fill:maroon;}.cls-2{fill:#0d0a09;}.cls-3{fill:#fff;}</style></defs><path class="cls-1" d="M357.64,116.1c0,17.44-16.85,31.58-37.64,31.58s-37.64-14.14-37.64-31.58S299.21,93.53,320,93.53,357.64,98.65,357.64,116.1Z"/><path class="cls-2" d="M360,116.1a29.65,29.65,0,0,1-3,13.77,35.57,35.57,0,0,1-8.55,11.25,42,42,0,0,1-25.79,10.21A45,45,0,0,1,308.75,150a43.17,43.17,0,0,1-12.87-5.61,36.8,36.8,0,0,1-10.19-9.75,31.36,31.36,0,0,1-5.36-13.07l-.26-1.76c-.05-.59-.05-1.19-.07-1.78l-.05-1.77c0-.59.06-1.18.09-1.77a22.27,22.27,0,0,1,1.72-7,19.11,19.11,0,0,1,4-6,22.72,22.72,0,0,1,5.68-4.14,40.76,40.76,0,0,1,12.86-4,86.93,86.93,0,0,1,13.15-1c2.19,0,4.37,0,6.56.09s4.38.22,6.57.43a60.45,60.45,0,0,1,13.05,2.53,31.09,31.09,0,0,1,6.25,2.8,21.7,21.7,0,0,1,5.41,4.56,19.49,19.49,0,0,1,3.5,6.32A24,24,0,0,1,360,116.1Zm-4.75,0a17.2,17.2,0,0,0-3-10.93,21.52,21.52,0,0,0-9.59-7,47,47,0,0,0-12.28-2.94,85.65,85.65,0,0,0-12.82-.46,80,80,0,0,0-12.69,1.35,37.44,37.44,0,0,0-11.66,4.21,16.73,16.73,0,0,0-7.41,8.71,17.69,17.69,0,0,0-1,5.67c0,.49,0,1,0,1.47l.14,1.47c.06.49.08,1,.15,1.47l.32,1.43a25.8,25.8,0,0,0,5.1,10.44,32.8,32.8,0,0,0,8.94,7.59,42.12,42.12,0,0,0,44.86-2.54,29.13,29.13,0,0,0,7.77-8.74A24.6,24.6,0,0,0,355.26,116.1Z"/><circle class="cls-3" cx="342.42" cy="105.77" r="3.1"/><circle class="cls-3" cx="296.25" cy="113.71" r="5.09"/><path class="cls-2" d="M316.24,146.18l2.36-28.26a1.4,1.4,0,0,1,2.8,0l2.36,28.26a3.77,3.77,0,1,1-7.52.63A3.31,3.31,0,0,1,316.24,146.18Z"/></svg>