<svg id="ART-fills" xmlns="http://www.w3.org/2000/svg" viewBox="0 0 640 160"><defs><style>.cls-1{fill:blue;}.cls-2{fill:#0d0a09;}.cls-3{fill:#ff0;}</style></defs><path class="cls-1" d="M352.45,82.93c2.93,1.79,3.74,7.81,1.55,11.39-15.35,25.07-22.38,34.56-34,34.56s-18.65-9.49-34-34.56c-2.19-3.58-1.38-9.6,1.55-11.39l4.18-2.57c18.21-11.15,38.33-11.15,56.54,0Z"/><path class="cls-2" d="M283.39,91.74a13.18,13.18,0,0,1,.91-6.14,16.6,16.6,0,0,1,3.45-5.22,30.15,30.15,0,0,1,10.06-6.51A56.42,56.42,0,0,1,309,70.55a64.62,64.62,0,0,1,11.6-1.18,61.79,61.79,0,0,1,22.73,4.54,29.36,29.36,0,0,1,9.95,6.59,16.13,16.13,0,0,1,3.32,5.22,13.15,13.15,0,0,1,.79,6,1,1,0,0,1-1.93,0h0a12.66,12.66,0,0,0-4.77-8.54,28.73,28.73,0,0,0-9.1-4.76A61.35,61.35,0,0,0,331.21,76a66.91,66.91,0,0,0-10.63-.85,64.67,64.67,0,0,0-10.59,1,62.85,62.85,0,0,0-10.33,2.54,29.62,29.62,0,0,0-9.05,4.76,12.31,12.31,0,0,0-4.71,8.32v0a1.26,1.26,0,0,1-2.51,0Z"/><path class="cls-3" d="M339.53,124.3c6.27-2,9.36-14.78,6.92-22.25s-9.51-11.85-15.77-9.8-6.12,8.7-3.68,16.17S333.26,126.35,339.53,124.3Z"/><path class="cls-2" d="M338.89,122.35a6.38,6.38,0,0,0,2.81-2.77,16.24,16.24,0,0,0,1.67-4.35,28,28,0,0,0,.54-9.45,14.9,14.9,0,0,0-1.08-4.21,14.36,14.36,0,0,0-2.28-3.7,12.23,12.23,0,0,0-3.3-2.71,9.22,9.22,0,0,0-4-1.11,7.19,7.19,0,0,0-4,1A5.4,5.4,0,0,0,327,98.53a14.62,14.62,0,0,0-.08,5,33.58,33.58,0,0,0,1.19,5.1,39.16,39.16,0,0,0,4.28,9.67,13.19,13.19,0,0,0,3.2,3.58,3.92,3.92,0,0,0,1.71.74A3,3,0,0,0,338.89,122.35Zm1.28,3.9a6.86,6.86,0,0,1-3.76,0,7.27,7.27,0,0,1-3-1.78,15.76,15.76,0,0,1-3.34-4.94c-1.59-3.43-2.67-6.9-3.88-10.32a42.09,42.09,0,0,1-1.58-5.33,18.55,18.55,0,0,1-.47-5.81,10.09,10.09,0,0,1,.78-3.1,8.33,8.33,0,0,1,2-2.76,9.76,9.76,0,0,1,2.83-1.82,12.23,12.23,0,0,1,3.15-.9,13.28,13.28,0,0,1,6.52.73,15.62,15.62,0,0,1,5.48,3.46,17.72,17.72,0,0,1,3.77,5.2,16.59,16.59,0,0,1,1.17,3,21.92,21.92,0,0,1,.59,3.14A25.61,25.61,0,0,1,348.6,117a22.27,22.27,0,0,1-3,5.35A11,11,0,0,1,340.17,126.25Z"/><path class="cls-3" d="M300.47,124.3c-6.27-2-9.36-14.78-6.92-22.25s9.51-11.85,15.77-9.8,6.12,8.7,3.68,16.17S306.74,126.35,300.47,124.3Z"/><path class="cls-2" d="M299.83,126.25a11,11,0,0,1-5.41-4,22.27,22.27,0,0,1-3-5.35,25.61,25.61,0,0,1-1.79-11.89,21.92,21.92,0,0,1,.59-3.14,16.59,16.59,0,0,1,1.17-3,17.72,17.72,0,0,1,3.77-5.2,15.62,15.62,0,0,1,5.48-3.46,13.28,13.28,0,0,1,6.52-.73,12.23,12.23,0,0,1,3.15.9,9.76,9.76,0,0,1,2.83,1.82,8.33,8.33,0,0,1,2,2.76,10.09,10.09,0,0,1,.78,3.1,18.55,18.55,0,0,1-.47,5.81,42.09,42.09,0,0,1-1.58,5.33c-1.21,3.42-2.29,6.89-3.88,10.32a15.76,15.76,0,0,1-3.34,4.94,7.27,7.27,0,0,1-3,1.78A6.86,6.86,0,0,1,299.83,126.25Zm1.28-3.9a3,3,0,0,0,1.57.22,3.92,3.92,0,0,0,1.71-.74,13.19,13.19,0,0,0,3.2-3.58,39.16,39.16,0,0,0,4.28-9.67,33.58,33.58,0,0,0,1.19-5.1,14.62,14.62,0,0,0-.08-5,5.4,5.4,0,0,0-2.21-3.45,7.19,7.19,0,0,0-4-1,9.22,9.22,0,0,0-4,1.11,12.23,12.23,0,0,0-3.3,2.71,14.36,14.36,0,0,0-2.28,3.7,14.9,14.9,0,0,0-1.08,4.21,28,28,0,0,0,.54,9.45,16.24,16.24,0,0,0,1.67,4.35A6.38,6.38,0,0,0,301.11,122.35Z"/></svg>