<svg xmlns="http://www.w3.org/2000/svg" viewBox="0 0 640 320"><defs><style>.cls-1{fill:aqua;}.cls-2{fill:blue;}.cls-3{fill:#00007f;}.cls-4{fill:#fcfcfc;}.cls-5{fill:#0d0a09;}</style></defs><g id="ART-fills"><path class="cls-1" d="M358,67.28c.57,2.87,2.8,4.75,5.73,6-.79-15.41,10.88-21.77,5.9-32.12C363.29,28.08,348.09,21,334.37,16A171.63,171.63,0,0,1,352,30.28C363,40.28,355,54.28,358,67.28Z"/><path class="cls-1" d="M294,62.28c5-7-5-15-6-22-.83-10.77,13.41-14.68,21.75-22.51-12.35,4.94-24.93,11.8-30.52,23.41-4.66,9.68,5.28,15.88,5.91,29.27A26,26,0,0,0,294,62.28Z"/><path class="cls-2" d="M281.33,87.64h86.13a40.11,40.11,0,0,1-3.77-14.34c-2.93-1.27-5.16-3.15-5.73-6-3-13,5-27-6-37A171.63,171.63,0,0,0,334.37,16c-3.48-1.28-6.86-2.44-10-3.54-4.51,1.59-9.58,3.31-14.68,5.36C301.37,25.6,287.13,29.51,288,40.28c1,7,11,15,6,22a26,26,0,0,1-8.86,8.17C285.33,75.15,284.42,80.72,281.33,87.64Z"/><path class="cls-2" d="M474.63,79.07C470.26,70.72,464,63,459,56.57a203.41,203.41,0,0,0-21.21-4.34c-4.71,1.43-8.47,3.88-9.85,8.05-5,15.84-19.42,26-34.54,28.91A44.27,44.27,0,0,1,388.59,93c-.31.2-.6.41-.91.62l67.17,43.23c.15-1,.33-2,.53-2.85-4-2.68-5.26-7.7-4.42-12.73,3-11,16-12,20-21C474.36,93.46,475,86.35,474.63,79.07Z"/><path class="cls-1" d="M428,60.28c1.38-4.17,5.14-6.62,9.85-8.05-10-1.29-20.25-1-28.48,4.09-10.33,6.34-1.26,19.49-15.91,32.87C408.54,86.25,422.91,76.12,428,60.28Z"/><path class="cls-1" d="M474.63,79.07c.41,7.28-.27,14.39-3.67,21.21-4,9-17,10-20,21-.84,5,.44,10.05,4.42,12.73q.3-1.41.66-2.7c5.74-20.56,22.27-17.26,23.8-29.61C480.8,93.94,478.4,86.27,474.63,79.07Z"/><path class="cls-2" d="M534.73,194.9c9-6,12-22,8-33-5.75-15.08-20.25-23.45-36.12-28.09-8.84,2-9.06,14.39-24.29,18.72C496.38,172.87,507,212.44,534.73,194.9Z"/><path class="cls-1" d="M548.91,156.57c-10.38-9.63-24.49-23.58-40.24-23a10.94,10.94,0,0,0-2.06.26c15.87,4.64,30.37,13,36.12,28.09,4,11,1,27-8,33-27.7,17.54-38.35-22-52.41-42.37A40,40,0,0,1,474,153.9l34.7,66c15.63-19.87,29-7,36.44-17.09C554.47,190.11,551,170.57,548.91,156.57Z"/><path class="cls-2" d="M173.64,79.07c4.37-8.35,10.6-16.06,15.6-22.5a204.15,204.15,0,0,1,21.22-4.34c4.71,1.43,8.46,3.88,9.85,8.05,5,15.84,19.42,26,34.54,28.91A44.27,44.27,0,0,0,259.68,93c.31.2.59.41.91.62l-67.17,43.23c-.16-1-.33-2-.53-2.85,4-2.68,5.26-7.7,4.42-12.73-3-11-16-12-20-21C173.9,93.46,173.22,86.35,173.64,79.07Z"/><path class="cls-1" d="M220.31,60.28c-1.39-4.17-5.14-6.62-9.85-8.05,10-1.29,20.25-1,28.48,4.09,10.33,6.34,1.26,19.49,15.91,32.87C239.73,86.25,225.35,76.12,220.31,60.28Z"/><path class="cls-1" d="M173.64,79.07c-.42,7.28.26,14.39,3.67,21.21,4,9,17,10,20,21,.84,5-.44,10.05-4.42,12.73q-.3-1.41-.66-2.7c-5.74-20.56-22.27-17.26-23.8-29.61C167.47,93.94,169.87,86.27,173.64,79.07Z"/><path class="cls-2" d="M114.31,193.28c-9-6-12-22-8-33,5.75-15.08,20.25-23.46,36.12-28.09,8.84,2,9.06,14.39,24.29,18.72C152.66,171.25,142,210.82,114.31,193.28Z"/><path class="cls-1" d="M100.13,155c10.38-9.63,24.49-23.59,40.24-23a10.94,10.94,0,0,1,2.06.26c-15.87,4.63-30.37,13-36.12,28.09-4,11-1,27,8,33,27.7,17.54,38.35-22,52.41-42.37a40,40,0,0,0,8.37,1.37l-34.7,65.95c-15.63-19.87-29-7-36.44-17.08C94.57,188.49,98.08,169,100.13,155Z"/><path class="cls-3" d="M512.6,175.73c-.37,4.45-6.64-7.95-10.13-8.24s-9.53-12.57-9.16-17,7.51-3.08,10.52.89S513,171.27,512.6,175.73Z"/><path class="cls-3" d="M433.77,85.4c-1.54-4.2,9.37,4.41,12.66,3.21S460.37,96,461.9,100.19s-5.51,6-9.91,3.63S435.3,89.6,433.77,85.4Z"/><path class="cls-3" d="M140.75,163.16c-.38-4.46-6.64,7.94-10.14,8.24s-9.53,12.57-9.15,17,7.5,3.09,10.51-.88S141.12,167.61,140.75,163.16Z"/><path class="cls-3" d="M186.73,103.59c-1.7,4.65,10.37-4.89,14-3.55s15.44-8.18,17.14-12.83-6.11-6.6-11-4S188.43,98.94,186.73,103.59Z"/><path class="cls-3" d="M304.55,61.12c-5.3-3-3.51-10.59.31-9.41,6,1.86,32.24,4.16,42.72.2,5.71-2.15-2.74,13.5-9,14.33S309.85,64.12,304.55,61.12Z"/><path class="cls-4" d="M288.74,35.35c1.36-.51.32,7.66,1.55,10.94s.15,11.22-1.21,11.73-3.67-6.33-3.72-9.88S287.37,35.86,288.74,35.35Z"/><path class="cls-4" d="M355.93,60.35c-1.44.22,1.23-7.57.69-11s2.13-11,3.57-11.25,2.31,7,1.64,10.43S357.36,60.12,355.93,60.35Z"/><path class="cls-4" d="M421.47,59c1.31.3-3.67,6.1-4.39,9.27s-5.62,8.77-6.94,8.47.39-6.78,2.17-9.55S420.15,58.69,421.47,59Z"/><path class="cls-4" d="M460.74,109.67c-1.23-.56,4.83-5.23,6.18-8.19s7.29-7.45,8.51-6.89-1.76,6.57-4.06,8.92S462,110.23,460.74,109.67Z"/><path class="cls-4" d="M518.71,200.91c-1.29-1.23,8.3-4.47,11.27-7.59s12.33-6.18,13.63-4.95-5,7.46-8.93,9.41S520,202.14,518.71,200.91Z"/><path class="cls-4" d="M523.66,149.77c-.31,1.12-5.08-3.43-7.78-4.2s-7.29-5.24-7-6.36,5.83.65,8.13,2.31S524,148.65,523.66,149.77Z"/><path class="cls-4" d="M226.8,59c-1.31.3,3.67,6.1,4.39,9.27s5.62,8.77,6.94,8.47-.4-6.78-2.17-9.55S228.12,58.69,226.8,59Z"/><path class="cls-4" d="M187.53,109.67c1.22-.56-4.83-5.23-6.18-8.19s-7.29-7.45-8.52-6.89,1.77,6.57,4.07,8.92S186.3,110.23,187.53,109.67Z"/><path class="cls-4" d="M129.56,200.91c1.29-1.23-8.3-4.47-11.27-7.59s-12.33-6.18-13.63-4.95,5,7.46,8.93,9.41S128.26,202.14,129.56,200.91Z"/><path class="cls-4" d="M124.61,149.77c.31,1.12,5.08-3.43,7.78-4.2s7.29-5.24,7-6.36-5.82.65-8.12,2.31S124.29,148.65,124.61,149.77Z"/><path class="cls-3" d="M155,218.47c-.82,1.33-1.42,2.58-2.06,3.81a31.71,31.71,0,0,1-2,3.53,13.26,13.26,0,0,1-2.88,3.08,22.21,22.21,0,0,1-4.13,2.35l-.51.25a3,3,0,1,1,.41-5.25,3.76,3.76,0,0,0,3.12.55,4.6,4.6,0,0,0,2.62-1.93A7.06,7.06,0,0,0,150,218a2.93,2.93,0,1,1,5.12.25Z"/><path class="cls-3" d="M204.48,137.76c-1.85,3.51-3.64,6.94-5.71,10.2a47.57,47.57,0,0,1-7.23,9,27.64,27.64,0,0,1-9.87,6.18,35,35,0,0,1-12,1.7,2.55,2.55,0,0,1,0-5.09,2.5,2.5,0,0,1,.91.18,18.17,18.17,0,0,0,10.37.91,19.32,19.32,0,0,0,9.39-5.08,29.17,29.17,0,0,0,6.26-9,35.16,35.16,0,0,0,3.05-10.54,2.54,2.54,0,0,1,5,.61,2.6,2.6,0,0,1-.27.87Z"/><path class="cls-3" d="M292.86,89c-2.85,2.76-5.63,5.45-8.62,7.9a47.89,47.89,0,0,1-9.68,6.3A28,28,0,0,1,263.25,106a35.25,35.25,0,0,1-11.89-2.14,2.54,2.54,0,1,1,2.43-4.37,18.13,18.13,0,0,0,9.56,4.12,19.22,19.22,0,0,0,10.5-1.9,28.91,28.91,0,0,0,8.75-6.55,34.7,34.7,0,0,0,6.2-9.06,2.55,2.55,0,1,1,4.08,2.9Z"/><path class="cls-3" d="M397.91,107c-4,.31-7.82.62-11.68.61a48.26,48.26,0,0,1-11.48-1.31,28,28,0,0,1-10.49-5.06,35.12,35.12,0,0,1-7.81-9.22,2.54,2.54,0,0,1,4.32-2.69,2.59,2.59,0,0,1,.34.87,18.17,18.17,0,0,0,4.75,9.26,19.31,19.31,0,0,0,9.31,5.23,29,29,0,0,0,10.91.51,34.71,34.71,0,0,0,10.55-3,2.55,2.55,0,0,1,2.18,4.6,2.63,2.63,0,0,1-.88.24Z"/><path class="cls-3" d="M461.38,157.69c-2.39-1.47-4.73-2.81-7-4.31a36.82,36.82,0,0,1-6.21-5.06,20.62,20.62,0,0,1-4.44-6.83,27.68,27.68,0,0,1-1.62-8.44V133a2.61,2.61,0,0,1,5.2-.34,2.71,2.71,0,0,1-.27,1.34,11,11,0,0,0-1,6.87,12.28,12.28,0,0,0,3.36,6.34,18.25,18.25,0,0,0,6.15,4.11,20.47,20.47,0,0,0,7.29,1.63,2.6,2.6,0,1,1-.14,5.19,2.56,2.56,0,0,1-1.28-.38Z"/><path class="cls-3" d="M500.81,239c-.94-2.65-1.92-5.16-2.71-7.73a37.47,37.47,0,0,1-1.65-7.84,20.52,20.52,0,0,1,.84-8.09,28.14,28.14,0,0,1,4-7.59l.05-.07a2.61,2.61,0,1,1,4.26,3,2.69,2.69,0,0,1-1.06.87,11,11,0,0,0-5.1,4.7,12.23,12.23,0,0,0-1.37,7,18.56,18.56,0,0,0,2.19,7.07,20.41,20.41,0,0,0,4.66,5.85,2.6,2.6,0,0,1-3.37,3.95,2.55,2.55,0,0,1-.76-1.1Z"/></g><g id="ART-strokes"><path class="cls-5" d="M363.81,89.27a57,57,0,0,1-2.06-6.65,38.39,38.39,0,0,1-1.13-7,34.11,34.11,0,0,1,.23-7.14,32.36,32.36,0,0,1,1.79-6.83c1.58-4.37,4-8.14,5.32-11.77a10.11,10.11,0,0,0,.61-5.3,11,11,0,0,0-.8-2.59l-1.39-2.68a34.37,34.37,0,0,0-8.09-9.2,63.74,63.74,0,0,0-10.56-6.86c-7.52-3.94-15.65-6.72-23.78-9.61h.89c-8.13,2.88-16.26,5.67-23.79,9.6a63.24,63.24,0,0,0-10.55,6.86,34.41,34.41,0,0,0-8.1,9.2L281,42a10.86,10.86,0,0,0-.79,2.59,8.21,8.21,0,0,0,0,2.62,11.62,11.62,0,0,0,.65,2.68c1.31,3.63,3.75,7.41,5.32,11.77a31.94,31.94,0,0,1,1.8,6.83,33.45,33.45,0,0,1,.23,7.14,37.54,37.54,0,0,1-1.13,7,56.93,56.93,0,0,1-2,6.65,4,4,0,0,1-7.55-2.71,5,5,0,0,1,.21-.48l0-.07a37.86,37.86,0,0,0,4-11.11A25.22,25.22,0,0,0,281,63.37a52.69,52.69,0,0,0-2.14-5.8,54.69,54.69,0,0,1-2.38-6.33,15,15,0,0,1-.37-7.44,14.83,14.83,0,0,1,1.27-3.51l1.73-3a41.11,41.11,0,0,1,9.28-9.77,66.22,66.22,0,0,1,11.29-6.89c7.84-3.92,16.1-6.69,24.23-9.5l.44-.15.45.15c8.13,2.8,16.38,5.59,24.23,9.49a66.87,66.87,0,0,1,11.29,6.89,41,41,0,0,1,9.29,9.78l1.73,3a14.75,14.75,0,0,1,1.27,3.52,15.19,15.19,0,0,1-.37,7.45,55.39,55.39,0,0,1-2.38,6.33,52.69,52.69,0,0,0-2.14,5.8,25.31,25.31,0,0,0-.66,11.52,37.86,37.86,0,0,0,4,11.11l0,0A4,4,0,0,1,364,89.77,5.32,5.32,0,0,1,363.81,89.27Z"/><path class="cls-5" d="M385.49,90.28a34.57,34.57,0,0,0,8.68-6.56,23.16,23.16,0,0,0,5.26-9.21,47.59,47.59,0,0,0,1.25-5.58A50.43,50.43,0,0,1,402,62.78a14.18,14.18,0,0,1,3.49-6.05,14.43,14.43,0,0,1,2.79-2.13l2.86-1.45a38.3,38.3,0,0,1,12.2-3,61.46,61.46,0,0,1,12.29.31c8.09.9,15.93,2.87,23.67,4.78l.46.11.29.37c4.93,6.26,10,12.57,14.14,19.57a62.4,62.4,0,0,1,5.38,11A38.7,38.7,0,0,1,482,98.71l-.14,3.2a13.87,13.87,0,0,1-.78,3.42,14.2,14.2,0,0,1-4,5.69,54,54,0,0,1-5,3.77,46.09,46.09,0,0,0-4.56,3.45,23,23,0,0,0-6.2,8.61,34.45,34.45,0,0,0-2.38,10.62v.05a4,4,0,1,1-8-.68,5.4,5.4,0,0,1,.1-.58,51.34,51.34,0,0,1,1.77-6.24,35.55,35.55,0,0,1,2.66-6,30.86,30.86,0,0,1,3.81-5.48,30.47,30.47,0,0,1,4.87-4.45c3.44-2.62,7.26-4.33,10.07-6.48a9.17,9.17,0,0,0,3.1-3.76,9.76,9.76,0,0,0,.68-2.38l.27-2.78a32,32,0,0,0-1.67-11.2,59.83,59.83,0,0,0-4.77-10.64C467.79,70,462.86,63.72,458,57.39l.75.48c-7.8-1.82-15.53-3.73-23.36-4.43a58.86,58.86,0,0,0-11.65.07,31.58,31.58,0,0,0-10.89,3.12L410.4,58a10.11,10.11,0,0,0-1.88,1.6A9.21,9.21,0,0,0,406.38,64c-.79,3.45-.77,7.63-1.72,11.85a30.2,30.2,0,0,1-2,6.27,30.71,30.71,0,0,1-3.41,5.74,35,35,0,0,1-4.4,4.92,51.84,51.84,0,0,1-4.95,4.2,4,4,0,0,1-4.9-6.35,3.37,3.37,0,0,1,.46-.31Z"/><path class="cls-5" d="M472.92,148.29a32.12,32.12,0,0,0,10-1.28,21.45,21.45,0,0,0,8.45-5,41.55,41.55,0,0,0,3.58-3.93,48.17,48.17,0,0,1,3.94-4.38,13.54,13.54,0,0,1,5.69-3.34,13.29,13.29,0,0,1,3.28-.45l3,.14a35.86,35.86,0,0,1,11.3,3.23A57.77,57.77,0,0,1,532,139.2c6.16,4.46,11.62,9.67,17,14.77l.34.32.07.47c1.14,7.35,2.34,14.8,2.51,22.4a57.55,57.55,0,0,1-.7,11.47,36.22,36.22,0,0,1-3.74,11.13l-1.59,2.55a13.13,13.13,0,0,1-2.22,2.45,13.41,13.41,0,0,1-6,2.79,48.4,48.4,0,0,1-5.84.77,44.2,44.2,0,0,0-5.26.72,21.28,21.28,0,0,0-8.9,4.15,32,32,0,0,0-6.72,7.52l0,0a4,4,0,0,1-6.66-4.5c.12-.17.26-.34.39-.49a50,50,0,0,1,4.35-4.26,33.27,33.27,0,0,1,5-3.69,30,30,0,0,1,5.66-2.71,28.14,28.14,0,0,1,6-1.36c4-.54,7.91-.17,11.16-.61a8.52,8.52,0,0,0,4.19-1.59,9.41,9.41,0,0,0,1.62-1.6l1.49-2.12A29.34,29.34,0,0,0,548,188a55.3,55.3,0,0,0,1-10.8c0-7.33-1.15-14.67-2.21-22.06l.41.78c-5.49-5-10.89-10.15-16.93-14.3a54.53,54.53,0,0,0-9.48-5.28,29.6,29.6,0,0,0-10.24-2.44l-2.59,0a9.2,9.2,0,0,0-2.22.43,8.48,8.48,0,0,0-3.69,2.55c-2.19,2.42-4.1,5.84-6.82,8.85a28.49,28.49,0,0,1-4.55,4.2,29.79,29.79,0,0,1-5.44,3.14,34.06,34.06,0,0,1-5.86,2,49.71,49.71,0,0,1-6,1.17,4,4,0,1,1-.58-8Z"/><path class="cls-5" d="M258.4,97a54.43,54.43,0,0,1-4.95-4.2,35.61,35.61,0,0,1-4.39-4.92,31.31,31.31,0,0,1-3.42-5.74,30.77,30.77,0,0,1-2-6.27c-1-4.22-.94-8.4-1.72-11.85a9.3,9.3,0,0,0-2.14-4.38,9.87,9.87,0,0,0-1.89-1.6l-2.42-1.39a31.46,31.46,0,0,0-10.88-3.12,58.86,58.86,0,0,0-11.65-.07c-7.84.7-15.57,2.61-23.36,4.43l.74-.48c-4.89,6.33-9.81,12.59-13.71,19.42a59.12,59.12,0,0,0-4.77,10.64,31.72,31.72,0,0,0-1.67,11.2l.27,2.78a9.76,9.76,0,0,0,.68,2.38,9.22,9.22,0,0,0,3.09,3.76c2.82,2.15,6.64,3.86,10.08,6.48a30.47,30.47,0,0,1,4.87,4.45,31.39,31.39,0,0,1,3.81,5.48,36.36,36.36,0,0,1,2.66,6,53.21,53.21,0,0,1,1.77,6.24,4,4,0,1,1-7.81,1.84,5.43,5.43,0,0,1-.09-.56v-.07a34.44,34.44,0,0,0-2.37-10.62,23.16,23.16,0,0,0-6.2-8.61,46.09,46.09,0,0,0-4.56-3.45,51.52,51.52,0,0,1-5-3.77,14.11,14.11,0,0,1-4-5.69,13.89,13.89,0,0,1-.79-3.42l-.13-3.2a38.43,38.43,0,0,1,2.35-12.33,63.06,63.06,0,0,1,5.37-11c4.17-7,9.22-13.31,14.15-19.57l.29-.37.46-.11c7.74-1.91,15.58-3.88,23.67-4.78a61.44,61.44,0,0,1,12.29-.31,38.3,38.3,0,0,1,12.2,3L240,54.6a13.48,13.48,0,0,1,6.28,8.18,48.52,48.52,0,0,1,1.34,6.15,47.58,47.58,0,0,0,1.26,5.58,23.16,23.16,0,0,0,5.26,9.21,34.39,34.39,0,0,0,8.68,6.56l.05,0a4,4,0,0,1-3.94,7A4.13,4.13,0,0,1,258.4,97Z"/><path class="cls-5" d="M174.83,156.27a49.56,49.56,0,0,1-6-1.17,33.77,33.77,0,0,1-5.86-2,29.46,29.46,0,0,1-5.44-3.14,28.56,28.56,0,0,1-4.56-4.2c-2.71-3-4.62-6.43-6.81-8.85a8.48,8.48,0,0,0-3.69-2.55,9.38,9.38,0,0,0-2.23-.43l-2.59,0a29.6,29.6,0,0,0-10.23,2.44,54.53,54.53,0,0,0-9.48,5.28c-6,4.15-11.44,9.25-16.93,14.3l.41-.78c-1.06,7.39-2.19,14.73-2.21,22.06a55.3,55.3,0,0,0,1,10.8,29.34,29.34,0,0,0,3.79,9.82l1.49,2.12a9.41,9.41,0,0,0,1.62,1.6,8.52,8.52,0,0,0,4.19,1.59c3.24.44,7.14.07,11.16.61a28.14,28.14,0,0,1,6,1.36,30,30,0,0,1,5.66,2.71,33.79,33.79,0,0,1,5,3.69,50,50,0,0,1,4.35,4.26,4,4,0,0,1-5.88,5.48,3.41,3.41,0,0,1-.37-.48l0,0a32,32,0,0,0-6.72-7.52,21.33,21.33,0,0,0-8.9-4.15,44.2,44.2,0,0,0-5.26-.72,48.14,48.14,0,0,1-5.84-.77,13.41,13.41,0,0,1-6-2.79,13.13,13.13,0,0,1-2.22-2.45l-1.59-2.55A36.22,36.22,0,0,1,97,188.63a58.32,58.32,0,0,1-.71-11.47c.18-7.6,1.38-15,2.51-22.4l.08-.47.34-.32a172.77,172.77,0,0,1,17-14.77,57.77,57.77,0,0,1,9.85-5.91,35.86,35.86,0,0,1,11.3-3.23l3-.14a13.29,13.29,0,0,1,3.28.45,13.54,13.54,0,0,1,5.69,3.34,49.71,49.71,0,0,1,3.94,4.38,42.88,42.88,0,0,0,3.57,3.93,21.48,21.48,0,0,0,8.46,5,32.12,32.12,0,0,0,10,1.28h0a4,4,0,1,1,.06,8A4.3,4.3,0,0,1,174.83,156.27Z"/></g></svg>