<svg id="ART-fills" xmlns="http://www.w3.org/2000/svg" viewBox="0 0 640 160"><defs><style>.cls-1{fill:#00007f;}</style></defs><path class="cls-1" d="M223.67,76.16c.4-.55,1.82-.19,3.18.8s2.15,2.23,1.75,2.77-2.24.78-3.61-.21S223.28,76.7,223.67,76.16Z"/><path class="cls-1" d="M204.39,76.77c.66.15.94,1.33.64,2.63s-1.07,2.24-1.72,2.09a2.48,2.48,0,0,1,1.08-4.72Z"/><path class="cls-1" d="M394.08,73.94c0,1.2-1.61,2.18-3.58,2.18s-3.59-1-3.59-2.18,1.61-3.48,3.59-3.48S394.08,72.74,394.08,73.94Z"/><path class="cls-1" d="M206.48,71.81c-1.18.23-2.45-1.15-2.84-3.09s.25-3.71,1.43-3.94,3.73.88,4.12,2.82S207.66,71.57,206.48,71.81Z"/><path class="cls-1" d="M235,84.59c-.52-.76.09-2.07,1.35-2.92s2.7-.92,3.21-.15A2.75,2.75,0,0,1,235,84.59Z"/><path class="cls-1" d="M197.81,71.38c.77-.52,2.08.09,2.92,1.35s.91,2.7.15,3.22a2.75,2.75,0,0,1-3.07-4.57Z"/><path class="cls-1" d="M224.2,82.42c-1.88.65-2.53,3.7-1.44,6.8s3.48,5.07,5.36,4.41,4.57-4.41,3.49-7.51S226.08,81.76,224.2,82.42Z"/><path class="cls-1" d="M240.63,68.44c0,.28-.62.44-1.32.36s-1.25-.37-1.22-.65a1.31,1.31,0,0,1,1.36-.67C240.16,67.56,240.66,68.16,240.63,68.44Z"/><path class="cls-1" d="M247.46,74c-.23.16-.74-.2-1.12-.79s-.5-1.2-.26-1.35,1,0,1.38.63A1.29,1.29,0,0,1,247.46,74Z"/><path class="cls-1" d="M235.22,69.65c.3-.78,1.58-1,2.87-.51s2.07,1.54,1.77,2.31a2.49,2.49,0,0,1-4.64-1.8Z"/><path class="cls-1" d="M243.62,67.47c.5.08.79.82.64,1.63s-.65,1.42-1.15,1.33a1.5,1.5,0,0,1,.51-3Z"/><path class="cls-1" d="M247.59,76.46c.09.38-.35.8-1,.94s-1.19-.05-1.28-.43a1.15,1.15,0,0,1,2.25-.51Z"/><path class="cls-1" d="M242.44,77.23c.84,0,1.55-1.06,1.6-2.44s-.59-2.51-1.43-2.54a2.49,2.49,0,0,0-.17,5Z"/><path class="cls-1" d="M234.33,78.3c.83,0,1.55-1.06,1.59-2.44s-.59-2.51-1.42-2.54a2.49,2.49,0,0,0-.17,5Z"/><path class="cls-1" d="M203.6,88.79c-.32,0-.53-.69-.48-1.49s.36-1.44.68-1.42.89.72.83,1.52S203.92,88.81,203.6,88.79Z"/><path class="cls-1" d="M197.65,96.86c-.19-.26.19-.85.85-1.32s1.34-.63,1.52-.37,0,1.14-.64,1.61A1.51,1.51,0,0,1,197.65,96.86Z"/><path class="cls-1" d="M202,82.68c.9.3,1.22,1.76.72,3.24s-1.64,2.45-2.54,2.15A2.85,2.85,0,0,1,202,82.68Z"/><path class="cls-1" d="M204.86,92.15c-.07.57-.89.94-1.83.82s-1.65-.68-1.57-1.25a1.71,1.71,0,0,1,3.4.43Z"/><path class="cls-1" d="M194.81,97.13c-.43.12-.93-.36-1.12-1.06s0-1.36.42-1.48a1.32,1.32,0,0,1,.7,2.54Z"/><path class="cls-1" d="M193.67,91.3c0,1,1.29,1.71,2.86,1.7s2.83-.81,2.82-1.76a2.84,2.84,0,0,0-5.68.06Z"/><path class="cls-1" d="M192,82.1c0,1,1.29,1.71,2.86,1.7s2.83-.81,2.82-1.76a2.84,2.84,0,0,0-5.68.06Z"/><path class="cls-1" d="M208.92,89.09c0,2,2.66,3.6,5.94,3.6s5.94-1.61,5.94-3.6-2.66-5.78-5.94-5.78S208.92,87.09,208.92,89.09Z"/><path class="cls-1" d="M208.21,76.23c0,2,2.66,3.61,5.94,3.61s5.94-1.62,5.94-3.61-2.66-5.77-5.94-5.77S208.21,74.24,208.21,76.23Z"/><path class="cls-1" d="M368.46,84.63c-.19.32-1,.21-1.8-.24s-1.31-1.09-1.13-1.42a1.74,1.74,0,0,1,2-.1C368.33,83.33,368.64,84.31,368.46,84.63Z"/><path class="cls-1" d="M379,83.13c-.37,0-.6-.68-.51-1.41s.45-1.29.82-1.25a1.41,1.41,0,0,1,.91,1.45A1.43,1.43,0,0,1,379,83.13Z"/><path class="cls-1" d="M378.15,86c.63-.2,1.41.48,1.74,1.52s.09,2.05-.54,2.25a2,2,0,0,1-1.2-3.77Z"/><path class="cls-1" d="M361.75,80.69c.33.39.08,1.15-.56,1.69s-1.43.67-1.76.28a1.52,1.52,0,0,1,2.32-2Z"/><path class="cls-1" d="M382.92,85.68c-.38.33-1.14.08-1.68-.57s-.66-1.42-.27-1.75a1.52,1.52,0,0,1,1.95,2.32Z"/><path class="cls-1" d="M367.78,81.23c1-.47,1.16-2.18.38-3.81s-2.22-2.57-3.21-2.1a3.28,3.28,0,0,0,2.83,5.91Z"/><path class="cls-1" d="M359.63,89.9c0-.16.31-.29.7-.28s.71.12.71.28a.73.73,0,0,1-.71.45C359.94,90.35,359.63,90.05,359.63,89.9Z"/><path class="cls-1" d="M355.54,87.28c.12-.1.42.07.67.37s.35.63.22.72a.7.7,0,0,1-.79-.26A.72.72,0,0,1,355.54,87.28Z"/><path class="cls-1" d="M362.52,88.9c-.12.45-.81.65-1.54.46s-1.23-.72-1.12-1.16a1.38,1.38,0,0,1,2.66.7Z"/><path class="cls-1" d="M358.05,90.61c-.28,0-.48-.4-.46-.86s.28-.81.56-.79a.83.83,0,0,1-.1,1.65Z"/><path class="cls-1" d="M355.32,85.92c-.07-.2.15-.46.48-.57s.66,0,.73.16a.73.73,0,0,1-.4.79A.75.75,0,0,1,355.32,85.92Z"/><path class="cls-1" d="M358.1,85.19c-.46,0-.79.67-.73,1.43s.48,1.34.94,1.31a1.58,1.58,0,0,0,1.22-1.48A1.56,1.56,0,0,0,358.1,85.19Z"/><path class="cls-1" d="M362.48,84.1c-.46,0-.78.68-.72,1.44s.47,1.34.93,1.3a1.57,1.57,0,0,0,1.23-1.47A1.6,1.6,0,0,0,362.48,84.1Z"/><path class="cls-1" d="M378.69,76.48c.18,0,.34.35.36.79s-.12.81-.29.82-.53-.34-.55-.78S378.51,76.49,378.69,76.48Z"/><path class="cls-1" d="M381.46,71.7c.12.13,0,.48-.38.77s-.7.43-.82.3a.84.84,0,0,1,.26-.92C380.85,71.55,381.35,71.56,381.46,71.7Z"/><path class="cls-1" d="M380,79.73c-.51-.11-.78-.88-.59-1.73s.75-1.44,1.26-1.33a1.57,1.57,0,0,1-.67,3.06Z"/><path class="cls-1" d="M377.8,74.72c0-.32.43-.57.95-.56s.94.27.94.59a1.08,1.08,0,0,1-1,.9A1.07,1.07,0,0,1,377.8,74.72Z"/><path class="cls-1" d="M383,71.38c.23-.09.53.14.68.51s.09.75-.14.84a.82.82,0,0,1-.92-.42A.83.83,0,0,1,383,71.38Z"/><path class="cls-1" d="M384,74.5c-.06-.52-.81-.86-1.67-.75s-1.5.61-1.44,1.13A1.57,1.57,0,0,0,384,74.5Z"/><path class="cls-1" d="M385.44,79.45c-.06-.52-.81-.86-1.67-.76s-1.51.62-1.45,1.14a1.57,1.57,0,0,0,3.12-.38Z"/><path class="cls-1" d="M375.76,76.65c-.13-1.1-1.68-1.82-3.48-1.62s-3.16,1.25-3,2.34a3.28,3.28,0,0,0,6.52-.72Z"/><path class="cls-1" d="M376.93,83.65c-.12-1.09-1.68-1.81-3.48-1.61s-3.16,1.24-3,2.34a3.28,3.28,0,0,0,6.52-.73Z"/><path class="cls-1" d="M417.88,92.24c-.17-.65,1-1.53,2.64-1.95s3.08-.25,3.25.4-.82,2.23-2.45,2.66S418.05,92.89,417.88,92.24Z"/><path class="cls-1" d="M397.93,85.85c.39-.55,1.81-.19,3.18.8s2.14,2.22,1.75,2.77-2.25.78-3.61-.21S397.53,86.39,397.93,85.85Z"/><path class="cls-1" d="M428.87,84.87c0,2-2.66,3.61-5.94,3.61S417,86.86,417,84.87s2.66-5.77,5.94-5.77S428.87,82.88,428.87,84.87Z"/><path class="cls-1" d="M412.07,97c-1.18.23-2.45-1.15-2.84-3.09s.25-3.7,1.43-3.94,3.73.88,4.12,2.82S413.25,96.74,412.07,97Z"/><path class="cls-1" d="M395.49,80.41c-.51-.77.09-2.08,1.35-2.93s2.7-.92,3.22-.15a2.76,2.76,0,0,1-4.57,3.08Z"/><path class="cls-1" d="M406.27,74.25c-1.88.66-2.53,3.7-1.44,6.8s3.48,5.07,5.36,4.41,4.57-4.41,3.49-7.51S408.15,73.59,406.27,74.25Z"/><path class="cls-1" d="M423.4,64.87c-1.88.66-2.53,3.7-1.45,6.8s3.48,5.07,5.37,4.42,4.57-4.42,3.48-7.52S425.28,64.21,423.4,64.87Z"/><path class="cls-1" d="M436.21,77.06c-.4-.13-.46-1-.13-2s.92-1.69,1.32-1.56a2,2,0,0,1,.55,2.18C437.63,76.64,436.61,77.19,436.21,77.06Z"/><path class="cls-1" d="M440.21,88.39c0-.42.61-.81,1.45-.88s1.53.21,1.56.63a1.6,1.6,0,0,1-1.4,1.34A1.63,1.63,0,0,1,440.21,88.39Z"/><path class="cls-1" d="M436.87,88.09c.37.65-.21,1.67-1.29,2.27s-2.25.55-2.61-.1a2.23,2.23,0,0,1,3.9-2.17Z"/><path class="cls-1" d="M439.08,68.76c-.36.45-1.25.34-2-.24s-1.06-1.43-.7-1.88a1.71,1.71,0,0,1,2.69,2.12Z"/><path class="cls-1" d="M438.26,93.31c-.45-.35-.34-1.25.25-2s1.43-1,1.88-.69a1.71,1.71,0,0,1-2.13,2.68Z"/><path class="cls-1" d="M439.82,75.57c.75,1,2.68.8,4.31-.43s2.35-3,1.61-4-3.49-1.88-5.12-.65S439.08,74.57,439.82,75.57Z"/><path class="cls-1" d="M446.67,83.37c1.18-.37,1.64-2.26,1-4.21s-2.09-3.22-3.27-2.84-2.92,2.67-2.3,4.62S445.49,83.75,446.67,83.37Z"/><path class="cls-1" d="M439.17,86.23c1.18-.38,1.64-2.26,1-4.21s-2.08-3.22-3.26-2.85-2.93,2.67-2.31,4.62S438,86.6,439.17,86.23Z"/><path class="cls-1" d="M393.57,84.93c.23-.11.66.27.95.85s.34,1.15.11,1.27a1.23,1.23,0,0,1-1.21-.72A1.21,1.21,0,0,1,393.57,84.93Z"/><path class="cls-1" d="M386.82,81.71c.2.16.09.62-.25,1s-.77.58-1,.41a1,1,0,0,1,1.22-1.43Z"/><path class="cls-1" d="M388.42,80.37c-.45-.13-.64-.83-.43-1.57s.75-1.23,1.2-1.1a1.39,1.39,0,0,1-.77,2.67Z"/><path class="cls-1" d="M396,89.85c0-.35.4-.69,1-.76s1.09.16,1.13.52a1.07,1.07,0,0,1-2.12.24Z"/><path class="cls-1" d="M385.51,78.68c.36,0,.7.4.77,1s-.17,1.1-.53,1.14a1.07,1.07,0,0,1-.24-2.12Z"/><path class="cls-1" d="M392.63,87.19c-.76-.11-1.53.82-1.71,2.08s.3,2.37,1.06,2.48a2.3,2.3,0,0,0,.65-4.56Z"/><path class="cls-1" d="M386.18,86.76c-.35.68.27,1.71,1.4,2.3s2.34.5,2.69-.18a2.3,2.3,0,0,0-4.09-2.12Z"/><path class="cls-1" d="M388.23,82.2c-.36.69.27,1.72,1.4,2.3s2.34.51,2.69-.18a2.3,2.3,0,0,0-4.09-2.12Z"/><path class="cls-1" d="M254.43,79.24c.08.3-.46.7-1.21.9s-1.42.11-1.49-.19.37-1,1.12-1.22A1.44,1.44,0,0,1,254.43,79.24Z"/><path class="cls-1" d="M263.58,82.17c-.18.25-.83.09-1.46-.37s-1-1-.8-1.27a1.54,1.54,0,0,1,2.26,1.64Z"/><path class="cls-1" d="M249.39,82.62c0-.91,1.22-1.66,2.72-1.66s2.73.75,2.73,1.66a2.73,2.73,0,0,1-5.45,0Z"/><path class="cls-1" d="M257.09,77.07c.54-.11,1.13.52,1.31,1.41s-.12,1.7-.66,1.81a1.64,1.64,0,0,1-.65-3.22Z"/><path class="cls-1" d="M264.7,84.67c.23.35,0,1-.62,1.34s-1.24.42-1.48.07a1.27,1.27,0,0,1,2.1-1.41Z"/><path class="cls-1" d="M259.75,87.49c.86-.3,1.16-1.7.67-3.12s-1.6-2.32-2.47-2a2.72,2.72,0,0,0,1.8,5.14Z"/><path class="cls-1" d="M251.9,91.79c.86-.3,1.16-1.7.66-3.12s-1.6-2.32-2.46-2a2.72,2.72,0,0,0,1.8,5.14Z"/><path class="cls-1" d="M246,86.2c.19.06.21.48.06.93s-.42.78-.6.72a.89.89,0,0,1-.26-1C245.37,86.39,245.84,86.14,246,86.2Z"/><path class="cls-1" d="M244.19,81c0,.2-.28.38-.66.41s-.71-.1-.72-.29a.73.73,0,0,1,.64-.61A.75.75,0,0,1,244.19,81Z"/><path class="cls-1" d="M245.72,81.14c-.17-.3.1-.76.59-1s1-.25,1.2.05a1,1,0,0,1-1.79,1Z"/><path class="cls-1" d="M244.71,90c.16-.21.57-.16.91.11s.48.65.32.86a.89.89,0,0,1-1.09.11A.88.88,0,0,1,244.71,90Z"/><path class="cls-1" d="M245.08,78.75c.21.16.16.57-.11.91s-.66.48-.86.32a.9.9,0,0,1-.11-1.09A.88.88,0,0,1,245.08,78.75Z"/><path class="cls-1" d="M244.37,86.89c-.35-.46-1.23-.37-2,.19s-1.08,1.39-.74,1.85a1.7,1.7,0,0,0,2.72-2Z"/><path class="cls-1" d="M241.23,83.31c-.55.17-.75,1-.47,1.93s1,1.47,1.5,1.3a1.7,1.7,0,0,0-1-3.23Z"/><path class="cls-1" d="M244.66,82c-.54.17-.75,1-.46,1.93s1,1.47,1.49,1.3a1.7,1.7,0,0,0-1-3.23Z"/><path class="cls-1" d="M265.58,82.59c-.11,0-.3-.12-.44-.39s-.15-.52-.05-.58a.57.57,0,0,1,.56.33C265.78,82.22,265.69,82.54,265.58,82.59Z"/><path class="cls-1" d="M268.67,84.07c-.09-.08,0-.29.12-.47s.35-.26.44-.19a.48.48,0,0,1,0,.56A.46.46,0,0,1,268.67,84.07Z"/><path class="cls-1" d="M267.94,84.68c.2.06.29.38.19.72s-.34.57-.54.51a.64.64,0,0,1,.35-1.23Z"/><path class="cls-1" d="M264.48,80.33c0,.17-.18.32-.45.35s-.5-.07-.52-.23a.56.56,0,0,1,.43-.53A.55.55,0,0,1,264.48,80.33Z"/><path class="cls-1" d="M269.27,85.46c-.16,0-.32-.18-.35-.45s.08-.5.24-.52a.49.49,0,0,1,.11,1Z"/><path class="cls-1" d="M266,81.56c.35,0,.7-.38.78-1s-.13-1.08-.48-1.13a1.2,1.2,0,0,0-1.17.9A1.22,1.22,0,0,0,266,81.56Z"/><path class="cls-1" d="M269,81.75c.16-.31-.13-.78-.65-1s-1.07-.23-1.23.08a1.06,1.06,0,0,0,1.88,1Z"/><path class="cls-1" d="M268,83.84c.16-.31-.13-.78-.65-1s-1.07-.23-1.23.08a1.06,1.06,0,0,0,1.88,1Z"/></svg>