<svg xmlns="http://www.w3.org/2000/svg" viewBox="0 0 640 320"><defs><style>.cls-1{fill:aqua;}.cls-2{fill:blue;}.cls-3{fill:#00007f;}.cls-4{fill:red;}.cls-5{fill:maroon;}.cls-6{fill:#fcfcfc;}.cls-7{fill:#0d0a09;}</style></defs><g id="ART-fills"><path class="cls-1" d="M129.49,144.78c-2-28,0-57,16-83,10.08-14.27,25.09-10.92,36.15-2.37-8.89-13.16-17.34-20.09-22.78-22-4.62-1.65-41.43,20.92-43.53,77.81-3.55,96.68,59.59,123.09,59.59,123.09l3.39-3.25C148.09,215.82,132.45,179.33,129.49,144.78Z"/><path class="cls-2" d="M181.64,59.41c-11.06-8.55-26.07-11.9-36.15,2.37-16,26-18,55-16,83,3,34.55,18.6,71,48.82,90.25L219,196C214.77,126.05,197.5,82.85,181.64,59.41Z"/><path class="cls-3" d="M194.75,227.2s-49.36-41.12-38.17-102.31c1.35-7.35,17.94-18.33,27.22-17.64,10.3.76,27.06,33.35,29.6,100.69"/><path class="cls-4" d="M169.49,129.78c2.67-6.23,10.89-7.69,16.9-3.7-3.72-6.2-7.36-9.69-10.31-10.75s-16.16,3.77-17.5,11.12C147.38,187.64,187,235.29,187,235.29l2.9-3C171.63,202.64,156.85,164.8,169.49,129.78Z"/><path class="cls-5" d="M186.39,126.08c-6-4-14.23-2.53-16.9,3.7-12.64,35,2.14,72.86,20.44,102.51L205.68,216C203.91,169.08,195,140.36,186.39,126.08Z"/><path class="cls-1" d="M510.51,144.78c2-28,0-57-16-83-10.08-14.27-25.09-10.92-36.15-2.37,8.89-13.16,17.34-20.09,22.78-22,4.62-1.65,41.43,20.92,43.53,77.81,3.55,96.68-59.59,123.09-59.59,123.09L461.69,235C491.91,215.82,507.55,179.33,510.51,144.78Z"/><path class="cls-2" d="M458.36,59.41c11.06-8.55,26.07-11.9,36.15,2.37,16,26,18,55,16,83-3,34.55-18.6,71-48.82,90.25L421,196C425.22,126.05,442.5,82.85,458.36,59.41Z"/><path class="cls-3" d="M445.25,227.2s49.36-41.12,38.17-102.31c-1.35-7.35-17.94-18.33-27.22-17.64-10.3.76-27.06,33.35-29.6,100.69"/><path class="cls-4" d="M470.51,129.78c-2.67-6.23-10.89-7.69-16.9-3.7,3.72-6.2,7.36-9.69,10.31-10.75s16.16,3.77,17.5,11.12C492.62,187.64,453,235.29,453,235.29l-2.9-3C468.37,202.64,483.15,164.8,470.51,129.78Z"/><path class="cls-5" d="M453.61,126.08c6-4,14.23-2.53,16.9,3.7,12.64,35-2.14,72.86-20.44,102.51L434.32,216C436.09,169.08,445.05,140.36,453.61,126.08Z"/><path class="cls-6" d="M492.28,59.42c-2.09.16,4.23,10.18,4.61,15.2s6.62,14.71,8.7,14.55.94-10.48-1.15-15.13S494.36,59.26,492.28,59.42Z"/><path class="cls-6" d="M147.72,59.42c2.09.16-4.23,10.18-4.61,15.2s-6.62,14.71-8.7,14.55-.94-10.48,1.15-15.13S145.64,59.26,147.72,59.42Z"/></g><g id="ART-strokes"><path class="cls-7" d="M174.73,238.74a71.63,71.63,0,0,1-11.48-6.26,96.59,96.59,0,0,1-10.4-7.95A111.13,111.13,0,0,1,135.34,205c-10.14-14.38-16.92-31.08-20.63-48.32q-1.36-6.48-2.21-13c-.54-4.38-.89-8.78-1.1-13.17s-.27-8.81-.15-13.2a132.44,132.44,0,0,1,.91-13.29,114.29,114.29,0,0,1,6.21-26,95.44,95.44,0,0,1,12.76-23.73,79.23,79.23,0,0,1,9-10.22,54.81,54.81,0,0,1,11.15-8.41,25,25,0,0,1,3.52-1.62,13.09,13.09,0,0,1,2.32-.61c.27,0,.48-.07.81-.08h.46l.59,0,.31,0,.4.09a6.2,6.2,0,0,1,.61.18l.48.18a29.74,29.74,0,0,1,6.5,3.77,63.7,63.7,0,0,1,10,9.53c11.62,13.86,19.26,30,25.25,46.41a277.5,277.5,0,0,1,12.59,50.69q2,12.87,3.09,25.83c.69,8.64,1.16,17.28,1.3,25.93l-1,.06c-.93-8.58-1.9-17.14-3.23-25.65s-2.74-17-4.53-25.37a304.76,304.76,0,0,0-14.49-49.12,188.94,188.94,0,0,0-10.83-23,119.09,119.09,0,0,0-14.2-20.57A56.58,56.58,0,0,0,162.48,44a21.91,21.91,0,0,0-4.67-2.72l-.27-.1a2.29,2.29,0,0,0,.22.07l.21,0,.1,0h.25a4.84,4.84,0,0,0-.8.22,17.86,17.86,0,0,0-2.35,1.1,47.89,47.89,0,0,0-9.43,7.17A73.89,73.89,0,0,0,137.65,59,87.26,87.26,0,0,0,126,80.75a105.57,105.57,0,0,0-5.78,24.2c-.51,4.15-.78,8.29-.89,12.53s-.13,8.46,0,12.68.34,8.45.76,12.65.87,8.39,1.56,12.56a139.34,139.34,0,0,0,6.22,24.51,118.4,118.4,0,0,0,11,22.84,107.19,107.19,0,0,0,15.87,19.88,104.18,104.18,0,0,0,9.68,8.36,70.58,70.58,0,0,0,10.8,6.86Z"/><path class="cls-7" d="M205.37,216c-1.3-20.41-3.72-40.83-9.12-60.45a146.6,146.6,0,0,0-4.77-14.42A86.89,86.89,0,0,0,185,127.64a43.66,43.66,0,0,0-4.27-5.93,22.12,22.12,0,0,0-2.48-2.46,9.16,9.16,0,0,0-2.63-1.65c-.08,0-.25-.13-.27-.11s0,0-.06,0-.36,0-.53,0a12.07,12.07,0,0,0-1.53.27,22.41,22.41,0,0,0-3.26,1.11,22.09,22.09,0,0,0-5.9,3.54,12.52,12.52,0,0,0-1.16,1.14l-.51.58-.42.62-.21.3-.15.32-.3.61c-.05.21-.1.42-.16.62s-.06.19-.09.32l-.07.46c-.36,2.48-.83,4.95-1,7.45a125.5,125.5,0,0,0-.76,15,136.92,136.92,0,0,0,3.68,29.86,140.13,140.13,0,0,0,4.2,14.54q2.44,7.17,5.59,14.1c2.09,4.61,4.44,9.12,6.92,13.54a122.93,122.93,0,0,0,8.24,12.76l-1.44,0,6.45-6.22,6.47-6.19.45.44-6,6.67-6,6.64-.72.8-.71-.85a137.49,137.49,0,0,1-16.82-26,147.39,147.39,0,0,1-11.11-29,127.37,127.37,0,0,1-4.28-30.92,115.2,115.2,0,0,1,.83-15.64c.24-2.6.72-5.18,1.13-7.76l.08-.48c0-.19.11-.41.17-.61l.37-1.23.54-1.1.28-.55.34-.49.68-1,.75-.84a16.45,16.45,0,0,1,1.61-1.53,27,27,0,0,1,7.26-4.25,24,24,0,0,1,4-1.25,15.57,15.57,0,0,1,2.26-.32h1a2.13,2.13,0,0,1,.39,0c.3,0,.59.12.88.19a3.45,3.45,0,0,1,.62.25,13.85,13.85,0,0,1,3.79,2.49,25.72,25.72,0,0,1,2.89,3,47.42,47.42,0,0,1,4.48,6.67,92.12,92.12,0,0,1,6.31,14.35,151,151,0,0,1,4.34,14.91,242.64,242.64,0,0,1,5.06,30.45c1.11,10.21,1.62,20.47,1.81,30.72Z"/><path class="cls-7" d="M464.88,237.82a70.58,70.58,0,0,0,10.8-6.86,104.18,104.18,0,0,0,9.68-8.36,107.19,107.19,0,0,0,15.87-19.88,118.4,118.4,0,0,0,11-22.84,139.34,139.34,0,0,0,6.22-24.51q1-6.26,1.56-12.56c.42-4.2.66-8.42.76-12.65s.1-8.45,0-12.68-.38-8.38-.89-12.53A105.57,105.57,0,0,0,514,80.75,87.26,87.26,0,0,0,502.35,59a73.89,73.89,0,0,0-8.09-9.19,47.89,47.89,0,0,0-9.43-7.17,17.86,17.86,0,0,0-2.35-1.1,4.84,4.84,0,0,0-.8-.22h.25l.1,0a1.52,1.52,0,0,0,.21,0,2.29,2.29,0,0,0,.22-.07l-.27.1A21.91,21.91,0,0,0,477.52,44a56.58,56.58,0,0,0-8.74,8.27,119.09,119.09,0,0,0-14.2,20.57,188.94,188.94,0,0,0-10.83,23A304.76,304.76,0,0,0,429.26,145c-1.79,8.39-3.28,16.86-4.53,25.37s-2.3,17.07-3.23,25.65l-1-.06c.15-8.65.62-17.29,1.31-25.93s1.77-17.25,3.09-25.83a277.5,277.5,0,0,1,12.59-50.69c6-16.42,13.63-32.55,25.25-46.41a63.7,63.7,0,0,1,10-9.53,29.74,29.74,0,0,1,6.5-3.77l.48-.18a6.2,6.2,0,0,1,.61-.18l.4-.09.31,0,.59,0h.46c.33,0,.54,0,.81.08a13.09,13.09,0,0,1,2.32.61,25,25,0,0,1,3.52,1.62A54.81,54.81,0,0,1,499.87,44a79.23,79.23,0,0,1,9,10.22,95.44,95.44,0,0,1,12.76,23.73A114.82,114.82,0,0,1,527.84,104a132.44,132.44,0,0,1,.91,13.29c.12,4.39.08,8.8-.15,13.2s-.56,8.79-1.1,13.17-1.3,8.72-2.21,13c-3.71,17.24-10.49,33.94-20.63,48.32a111.13,111.13,0,0,1-17.51,19.54,97.59,97.59,0,0,1-10.4,7.95,71.63,71.63,0,0,1-11.48,6.26Z"/><path class="cls-7" d="M434,216c.19-10.25.71-20.51,1.81-30.72a240.86,240.86,0,0,1,5.07-30.45,150.78,150.78,0,0,1,4.34-14.9,90.83,90.83,0,0,1,6.32-14.35,47.73,47.73,0,0,1,4.47-6.68,25.61,25.61,0,0,1,2.89-3,13.85,13.85,0,0,1,3.79-2.49,3.69,3.69,0,0,1,.61-.24c.29-.08.59-.14.88-.19a2.13,2.13,0,0,1,.39,0h1a15.4,15.4,0,0,1,2.25.33,24,24,0,0,1,4,1.24,27,27,0,0,1,7.27,4.24,19.13,19.13,0,0,1,1.6,1.53l.76.85.68,1,.33.48.28.55.55,1.11.36,1.22c.06.21.13.43.17.61l.08.49c.41,2.57.9,5.15,1.14,7.75a118.52,118.52,0,0,1,.83,15.64l-.1,3.92c-.06,1.3-.16,2.61-.25,3.91s-.2,2.6-.35,3.9-.26,2.59-.47,3.88a134.9,134.9,0,0,1-3.09,15.32,145.88,145.88,0,0,1-11.1,29A137.13,137.13,0,0,1,453.76,236l-.76.9-.77-.85-6.79-7.5L438.68,221l.45-.43,7.31,7,7.27,7-1.53.06a121.74,121.74,0,0,0,8.24-12.75c2.5-4.41,4.84-8.92,6.93-13.53s4-9.32,5.6-14.1a139.12,139.12,0,0,0,4.21-14.52,136.32,136.32,0,0,0,3.69-29.86,119.55,119.55,0,0,0-.75-15c-.22-2.5-.69-5-1-7.45l-.07-.47c0-.12-.06-.21-.09-.31s-.12-.41-.16-.62l-.31-.62-.14-.31-.21-.31-.42-.61-.52-.59a12.39,12.39,0,0,0-1.15-1.14,22.15,22.15,0,0,0-5.91-3.54,19.6,19.6,0,0,0-3.26-1.11,11.88,11.88,0,0,0-1.53-.28c-.17,0-.45,0-.53,0a.07.07,0,0,1-.06,0s-.19.07-.28.1a9.57,9.57,0,0,0-2.63,1.66,23,23,0,0,0-2.48,2.46,44.6,44.6,0,0,0-4.28,5.93,87.75,87.75,0,0,0-6.52,13.52,145.91,145.91,0,0,0-4.77,14.43c-5.4,19.62-7.82,40-9.11,60.45Z"/></g></svg>