<svg xmlns="http://www.w3.org/2000/svg" viewBox="0 0 640 320"><defs><style>.cls-1{fill:aqua;}.cls-2{fill:blue;}.cls-3{fill:#00007f;}.cls-4{fill:#fcfcfc;}.cls-5{fill:#0d0a09;}</style></defs><g id="ART-fills"><path class="cls-1" d="M213.61,82c-7.36,3.58-11.58,11.32-11.88,20,2-4.25,5.12-7.78,9.27-9.56,9.8-6,20.79-8.41,31.19-6.64C235.38,78.75,221.9,78,213.61,82Z"/><path class="cls-2" d="M211,92.49c-4.15,1.78-7.23,5.31-9.27,9.56A31.66,31.66,0,0,0,205,116.94L246.42,96.8a15.28,15.28,0,0,0-4.23-11C231.79,84.08,220.8,86.5,211,92.49Z"/><path class="cls-2" d="M215.84,104.28c-14.44-4.47-30.09-2.51-44.84,6.21-9.46,5.82-14.15,15.88-17.93,26.32a45.65,45.65,0,0,0,5.5,17.74L225.16,118A26.52,26.52,0,0,0,215.84,104.28Z"/><path class="cls-1" d="M171,110.49c14.75-8.72,30.4-10.68,44.84-6.21-11.67-9.43-31-12.21-44.25-4.91s-20,22.1-18.52,37.44C156.85,126.37,161.54,116.31,171,110.49Z"/><path class="cls-2" d="M208.54,143.78a50.38,50.38,0,0,0-23.67-17.72A62.91,62.91,0,0,0,151,132.49a41.5,41.5,0,0,0-22.31,48.87c.1-.29.2-.58.31-.87-.11.29-.21.58-.31.87.1.38.2.75.31,1.13-.11-.38-.21-.75-.31-1.13a176.65,176.65,0,0,0-5.16,17.92,72.43,72.43,0,0,0,12.92,17.26Z"/><path class="cls-1" d="M151,132.49a62.91,62.91,0,0,1,33.87-6.43c-19.46-7.13-42.47-2.84-56,10.85-15.51,15.65-16.87,40.75-5.31,62.37a176.65,176.65,0,0,1,5.16-17.92A41.5,41.5,0,0,1,151,132.49Z"/><path class="cls-1" d="M131,185.49c8.74-7.77,18.66-11.29,28.95-12.52-21.72-10.15-46-1.29-54.49,20.7-7.2,18.72-.74,41.65,18.62,57.32C115,229.22,111,203.65,131,185.49Z"/><path class="cls-2" d="M131,185.49c-20,18.16-16,43.73-6.92,65.5a71.94,71.94,0,0,0,10.41,7l40.9-73.85A52.39,52.39,0,0,0,160,173C149.66,174.2,139.74,177.72,131,185.49Z"/><path class="cls-1" d="M148.72,231.8c-16.42-12.08-32.86-2.79-32.84,16.43,0,12.73,13.52,23.88,28.78,24.46"/><path class="cls-1" d="M434.65,82c7.36,3.58,11.58,11.32,11.89,20-2-4.25-5.13-7.78-9.27-9.56-9.81-6-20.79-8.41-31.19-6.64C412.89,78.75,426.37,78,434.65,82Z"/><path class="cls-2" d="M437.27,92.49c4.14,1.78,7.23,5.31,9.27,9.56a31.66,31.66,0,0,1-3.24,14.89L401.85,96.8a15.28,15.28,0,0,1,4.23-11C416.48,84.08,427.46,86.5,437.27,92.49Z"/><path class="cls-2" d="M432.43,104.28c14.44-4.47,30.09-2.51,44.84,6.21,9.46,5.82,14.15,15.88,17.93,26.32a45.65,45.65,0,0,1-5.5,17.74L423.11,118A26.52,26.52,0,0,1,432.43,104.28Z"/><path class="cls-1" d="M477.27,110.49c-14.75-8.72-30.4-10.68-44.84-6.21,11.67-9.43,31-12.21,44.25-4.91s20,22.1,18.52,37.44C491.42,126.37,486.73,116.31,477.27,110.49Z"/><path class="cls-2" d="M439.73,143.78a50.33,50.33,0,0,1,23.67-17.72,62.91,62.91,0,0,1,33.87,6.43,41.5,41.5,0,0,1,22.31,48.87c-.11-.29-.2-.58-.31-.87.11.29.2.58.31.87-.1.38-.2.75-.31,1.13.11-.38.21-.75.31-1.13a179.27,179.27,0,0,1,5.16,17.92,72.43,72.43,0,0,1-12.92,17.26Z"/><path class="cls-1" d="M497.27,132.49a62.91,62.91,0,0,0-33.87-6.43c19.46-7.13,42.47-2.84,56,10.85,15.51,15.65,16.87,40.75,5.31,62.37a179.27,179.27,0,0,0-5.16-17.92A41.5,41.5,0,0,0,497.27,132.49Z"/><path class="cls-1" d="M517.27,185.49c-8.74-7.77-18.66-11.29-28.95-12.52,21.72-10.15,46-1.29,54.49,20.7,7.2,18.72.73,41.65-18.63,57.32C533.31,229.22,537.24,203.65,517.27,185.49Z"/><path class="cls-2" d="M517.27,185.49c20,18.16,16,43.73,6.91,65.5a71.29,71.29,0,0,1-10.4,7l-40.9-73.85A52.39,52.39,0,0,1,488.32,173C498.61,174.2,508.53,177.72,517.27,185.49Z"/><path class="cls-1" d="M499.55,231.8C516,219.72,532.4,229,532.39,248.23c0,12.73-13.53,23.88-28.78,24.46"/><path class="cls-3" d="M164.23,238.31a37.87,37.87,0,0,0-8.72-10.72,35.48,35.48,0,0,0-11.9-6.86,25.28,25.28,0,0,0-13.39-.84,21.65,21.65,0,0,0-11.28,6.47A4.68,4.68,0,1,1,112,220a4.58,4.58,0,0,1,2-1.29l.21-.06a55,55,0,0,1,15.46-3,43,43,0,0,1,14.82,2.24A71,71,0,0,1,158,224.07c4.31,2.47,8.42,5.27,12.79,8.06l.09.06a4.67,4.67,0,0,1-5,7.86A4.75,4.75,0,0,1,164.23,238.31Z"/><path class="cls-3" d="M142.11,279.58a9.3,9.3,0,0,0,5.52-.48A9.73,9.73,0,0,0,151.8,276a7,7,0,0,0,1.5-4.67A5.6,5.6,0,0,0,151,267.1a5.93,5.93,0,1,1,9.16-3.27l-.37,1.34a49.93,49.93,0,0,1-2.27,7.07,26.91,26.91,0,0,1-3.29,5.57c-1.25,1.66-2.61,3.19-4,4.77a59.29,59.29,0,0,0-4.33,5.2l-.39.54a5.61,5.61,0,1,1-3.33-8.74Z"/><path class="cls-3" d="M187.45,187.19a48.12,48.12,0,0,0-9-13.63,47.53,47.53,0,0,0-13-9.95,37.46,37.46,0,0,0-15.6-4.24,31.94,31.94,0,0,0-15.45,3.2,4.62,4.62,0,0,1-4.11-8.27,4.47,4.47,0,0,1,1.93-.48h.08a80.79,80.79,0,0,1,18.08,1.31A63.32,63.32,0,0,1,166.79,161a91.59,91.59,0,0,1,14.52,9.43c4.59,3.57,8.91,7.49,13.42,11.51l0,0a4.61,4.61,0,1,1-6.14,6.89A4.83,4.83,0,0,1,187.45,187.19Z"/><path class="cls-3" d="M217.77,151.93a45,45,0,0,0-14.07-26.46,34.28,34.28,0,0,0-13-7.42,28.82,28.82,0,0,0-14.62-.58,4.64,4.64,0,1,1-2.07-9,4.59,4.59,0,0,1,2.15,0l.1,0a78.93,78.93,0,0,1,16,5.61,60.16,60.16,0,0,1,13.45,9.16,88.06,88.06,0,0,1,10.91,11.91c3.33,4.28,6.34,8.82,9.55,13.48l0,.06a4.64,4.64,0,0,1-7.65,5.24A4.74,4.74,0,0,1,217.77,151.93Z"/><path class="cls-3" d="M234.52,124.42a20.33,20.33,0,0,0,0-9,22.48,22.48,0,0,0-3.56-8.23,18.55,18.55,0,0,0-6.58-5.85A14.27,14.27,0,0,0,216,99.67a4.93,4.93,0,1,1,2.29-8.86l.33.25a84.59,84.59,0,0,1,8.33,6.79,51.37,51.37,0,0,1,6.5,7.57,82.3,82.3,0,0,1,5.13,8.43c1.6,2.92,3.06,5.94,4.86,9.11l.12.23a4.89,4.89,0,1,1-9,1.23Z"/><path class="cls-3" d="M477.5,232.13c4.37-2.79,8.48-5.59,12.79-8.06a71,71,0,0,1,13.44-6.18,43,43,0,0,1,14.82-2.24,55.07,55.07,0,0,1,15.46,3l.19.06a4.68,4.68,0,1,1-4.87,7.62,21.65,21.65,0,0,0-11.28-6.47,25.28,25.28,0,0,0-13.39.84,35.48,35.48,0,0,0-11.9,6.86A37.7,37.7,0,0,0,484,238.31a4.66,4.66,0,1,1-6.65-6.11Z"/><path class="cls-3" d="M502.44,287.78a59.29,59.29,0,0,0-4.33-5.2c-1.41-1.58-2.77-3.11-4-4.77a27.33,27.33,0,0,1-3.28-5.57,49.93,49.93,0,0,1-2.27-7.07l-.37-1.33a5.93,5.93,0,1,1,9.16,3.26,5.57,5.57,0,0,0-2.35,4.24,7,7,0,0,0,1.5,4.67,9.76,9.76,0,0,0,4.16,3.09,9.34,9.34,0,0,0,5.53.48,5.61,5.61,0,1,1-3.33,8.75Z"/><path class="cls-3" d="M453.54,181.89c4.51-4,8.83-7.94,13.42-11.51A90.69,90.69,0,0,1,481.48,161a63.19,63.19,0,0,1,16.44-5.82A80.79,80.79,0,0,1,516,153.82h0a4.62,4.62,0,1,1-.2,9.23,4.56,4.56,0,0,1-2-.48,31.94,31.94,0,0,0-15.45-3.2,37.46,37.46,0,0,0-15.6,4.24,47.72,47.72,0,0,0-13,9.95,48.55,48.55,0,0,0-9,13.63,4.61,4.61,0,1,1-8.47-3.65,4.69,4.69,0,0,1,1.15-1.61Z"/><path class="cls-3" d="M422.12,148.63c3.2-4.66,6.21-9.2,9.55-13.48a87.41,87.41,0,0,1,10.91-11.91A60.16,60.16,0,0,1,456,114.08a78.93,78.93,0,0,1,16-5.61l.08,0a4.64,4.64,0,1,1,2.27,9,4.69,4.69,0,0,1-2.17,0,28.82,28.82,0,0,0-14.62.58,34.28,34.28,0,0,0-13,7.42,45,45,0,0,0-14.07,26.46,4.64,4.64,0,0,1-9.19-1.24,4.58,4.58,0,0,1,.76-2Z"/><path class="cls-3" d="M404.87,123c1.8-3.17,3.26-6.19,4.86-9.11a80.56,80.56,0,0,1,5.13-8.43,51.37,51.37,0,0,1,6.5-7.57,83.43,83.43,0,0,1,8.33-6.79l.32-.24a4.94,4.94,0,1,1,2.3,8.85,14.27,14.27,0,0,0-8.42,1.62,18.55,18.55,0,0,0-6.58,5.85,22.67,22.67,0,0,0-3.57,8.23,20.33,20.33,0,0,0,0,9,4.89,4.89,0,1,1-9-1.22Z"/><path class="cls-4" d="M513,138.92c0,1.46-7.29-2.39-10.79-2.39s-10.56-3.82-10.56-5.27,7.23-1.21,10.56,0S513,137.47,513,138.92Z"/><path class="cls-4" d="M477.86,105c0,1-7.05-1.68-10.45-1.68s-10.23-2.66-10.23-3.67,7-.84,10.23,0S477.86,103.94,477.86,105Z"/><path class="cls-4" d="M437.52,87.38c0,.82-5.69-1.34-8.44-1.34s-8.25-2.15-8.25-3,5.65-.68,8.25,0S437.52,86.57,437.52,87.38Z"/><path class="cls-4" d="M534.81,189.33c0,1.67-8.37-2.76-12.39-2.76s-12.13-4.38-12.13-6,8.3-1.38,12.13,0S534.81,187.65,534.81,189.33Z"/><path class="cls-4" d="M527.49,244.59c-.46.77-3.07-3.54-4.91-4.64s-4.33-5.33-3.87-6.09,4.16,1.64,5.53,3.32S527.94,243.83,527.49,244.59Z"/><path class="cls-4" d="M512.8,264.31c-.7-.55,3.88-2.64,5.18-4.34s5.78-3.7,6.49-3.16-2.11,3.95-3.93,5.12S513.51,264.85,512.8,264.31Z"/><path class="cls-4" d="M135.32,138.92c0,1.46,7.29-2.39,10.79-2.39s10.56-3.82,10.56-5.27-7.23-1.21-10.56,0S135.32,137.47,135.32,138.92Z"/><path class="cls-4" d="M170.41,105c0,1,7.05-1.68,10.45-1.68s10.23-2.66,10.23-3.67-7-.84-10.23,0S170.41,103.94,170.41,105Z"/><path class="cls-4" d="M210.75,87.38c0,.82,5.69-1.34,8.43-1.34s8.26-2.15,8.26-3-5.65-.68-8.26,0S210.75,86.57,210.75,87.38Z"/><path class="cls-4" d="M113.46,189.33c0,1.67,8.37-2.76,12.39-2.76s12.13-4.38,12.13-6-8.3-1.38-12.13,0S113.46,187.65,113.46,189.33Z"/><path class="cls-4" d="M120.78,244.59c.46.77,3.07-3.54,4.9-4.64s4.34-5.33,3.88-6.09-4.17,1.64-5.53,3.32S120.32,243.83,120.78,244.59Z"/><path class="cls-4" d="M135.47,264.31c.7-.55-3.88-2.64-5.18-4.34s-5.78-3.7-6.49-3.16,2.11,3.95,3.93,5.12S134.76,264.85,135.47,264.31Z"/></g><g id="ART-strokes"><path class="cls-5" d="M242.42,96.8a11.63,11.63,0,0,0-.43-6.11,12,12,0,0,0-3.78-5.2,15.24,15.24,0,0,0-2.9-1.93,20.78,20.78,0,0,0-3.32-1.4,27.08,27.08,0,0,0-7.25-1.26c-4.94-.13-10.11.94-14,4a19.37,19.37,0,0,0-7.18,12.6,1.25,1.25,0,0,1-2.48-.36.59.59,0,0,1,0-.14v0a25.64,25.64,0,0,1,8.49-13.54,22.47,22.47,0,0,1,7.18-3.77,31.19,31.19,0,0,1,7.95-1.43,32,32,0,0,1,8.15.55,25.1,25.1,0,0,1,8,2.9,19.27,19.27,0,0,1,3.58,2.65,16.45,16.45,0,0,1,3,3.56,21.32,21.32,0,0,1,3.08,8.89l0,.15a4.06,4.06,0,1,1-8,1.13A4.22,4.22,0,0,1,242.42,96.8Z"/><path class="cls-5" d="M152.6,123.57a40.78,40.78,0,0,1,12.29-20.63,35.51,35.51,0,0,1,10.35-6.38,39.3,39.3,0,0,1,11.91-2.62,50,50,0,0,1,6.12,0,54.67,54.67,0,0,1,6.1.77,48.1,48.1,0,0,1,11.79,3.78,39.48,39.48,0,0,1,5.5,3.13,33.92,33.92,0,0,1,5,4.07A30.1,30.1,0,0,1,229,116.92l0,.08a4,4,0,0,1-7.55,2.79,3.86,3.86,0,0,1-.21-.81,20.16,20.16,0,0,0-4.1-9.28,29.8,29.8,0,0,0-8.2-7.19,41.38,41.38,0,0,0-21.73-5.92A35.74,35.74,0,0,0,176,98.53a31.06,31.06,0,0,0-9.87,5.8,33.72,33.72,0,0,0-11.06,19.77,1.25,1.25,0,0,1-2.47-.43.29.29,0,0,1,0-.09Z"/><path class="cls-5" d="M115.2,178.09a70.06,70.06,0,0,1-.38-8.56,59.52,59.52,0,0,1,.84-8.53,53.61,53.61,0,0,1,2.2-8.27,51.73,51.73,0,0,1,3.62-7.77,49,49,0,0,1,5-7,44.77,44.77,0,0,1,6.25-5.9,47.57,47.57,0,0,1,7.22-4.66,49.25,49.25,0,0,1,7.9-3.4,54.1,54.1,0,0,1,8.34-2.18,58.77,58.77,0,0,1,8.59-.93,57.11,57.11,0,0,1,8.67.27,59.93,59.93,0,0,1,8.59,1.53c1.43.32,2.82.79,4.22,1.22s2.77,1,4.12,1.58a51.58,51.58,0,0,1,7.87,4.09,56.76,56.76,0,0,1,13.5,11.81,4,4,0,1,1-6.12,5.18,4.59,4.59,0,0,1-.33-.44l0,0a43.9,43.9,0,0,0-10.47-11.55,44.75,44.75,0,0,0-6.68-4.3c-1.16-.66-2.4-1.17-3.61-1.74s-2.48-1-3.76-1.41a54,54,0,0,0-32.1-.57,47.25,47.25,0,0,0-7.64,3,42.82,42.82,0,0,0-7,4.24,41.31,41.31,0,0,0-10.94,12.12,46,46,0,0,0-3.49,7.45,52.17,52.17,0,0,0-2,8,53.63,53.63,0,0,0-.6,8.21,56.28,56.28,0,0,0,.73,8.2v0a1.26,1.26,0,0,1-2.48.39A.17.17,0,0,0,115.2,178.09Z"/><path class="cls-5" d="M115.24,244.27a62.21,62.21,0,0,1-9.37-14.88c-.59-1.34-1.11-2.72-1.61-4.1s-.93-2.79-1.23-4.24a50,50,0,0,1-1.37-8.7,46.71,46.71,0,0,1,2.25-17.44,41.22,41.22,0,0,1,8.85-15.31,39.89,39.89,0,0,1,14.73-10.1,42.87,42.87,0,0,1,17.82-2.85A48.33,48.33,0,0,1,163,171.11a60.71,60.71,0,0,1,15.27,10.26,4,4,0,1,1-5.36,6,4.4,4.4,0,0,1-.37-.38l0,0a47,47,0,0,0-12.28-10.46,42.41,42.41,0,0,0-7.37-3.4,41.44,41.44,0,0,0-7.94-1.85,37.31,37.31,0,0,0-16.24,1.54,36.45,36.45,0,0,0-14,8.66c-7.85,8-11.8,19.55-11.16,30.82a46.29,46.29,0,0,0,4.11,16.37,53.09,53.09,0,0,0,9.49,14h0a1.26,1.26,0,0,1-1.83,1.72Z"/><path class="cls-5" d="M146.35,235a21.69,21.69,0,0,0-8.23-5.42,15.3,15.3,0,0,0-9.62-.29,14.8,14.8,0,0,0-7.82,6.05,21.84,21.84,0,0,0-3.32,9.86l-.1,1.32,0,1.34c0,.88.1,1.72.16,2.58a18.54,18.54,0,0,0,1.55,4.92,22.37,22.37,0,0,0,6.58,7.95,26.55,26.55,0,0,0,19.29,5.36,4.06,4.06,0,1,1,1.07,8.05,4.28,4.28,0,0,1-1.24,0l-.13,0A44.7,44.7,0,0,1,132.83,273,37.39,37.39,0,0,1,123,266.2a29,29,0,0,1-6.78-9.64,22.21,22.21,0,0,1-1-2.81c-.29-.95-.39-1.95-.59-2.92s-.16-2-.15-3l0-1.45.12-1.45a27,27,0,0,1,3.47-11.15,19.67,19.67,0,0,1,8.94-8.05,21.54,21.54,0,0,1,12.27-1.39,36.82,36.82,0,0,1,11.7,4.22l.07,0a4.06,4.06,0,1,1-4.81,6.4Z"/><path class="cls-5" d="M397.85,96.8a21.31,21.31,0,0,1,3.07-8.89,17,17,0,0,1,3-3.56,19.33,19.33,0,0,1,3.59-2.65,25,25,0,0,1,7.94-2.9,32.05,32.05,0,0,1,8.16-.55,31.19,31.19,0,0,1,7.95,1.43,22.32,22.32,0,0,1,7.17,3.77A25.59,25.59,0,0,1,447.19,97h0a1.25,1.25,0,0,1-2.42.66l0-.15a19.34,19.34,0,0,0-7.19-12.6c-3.91-3.07-9.08-4.14-14-4a27.08,27.08,0,0,0-7.25,1.26,20.78,20.78,0,0,0-3.32,1.4,14.93,14.93,0,0,0-2.9,1.93,12,12,0,0,0-3.79,5.2,11.73,11.73,0,0,0-.42,6.11,4.06,4.06,0,0,1-8,1.43,4.11,4.11,0,0,1,0-1.26Z"/><path class="cls-5" d="M493.22,124.1a33.72,33.72,0,0,0-11.06-19.77,31.17,31.17,0,0,0-9.87-5.8A35.74,35.74,0,0,0,461,96.59a41.38,41.38,0,0,0-21.73,5.92,30,30,0,0,0-8.21,7.19A20.25,20.25,0,0,0,427,119a4,4,0,0,1-8-1.17,4.16,4.16,0,0,1,.2-.79l0-.1a30.2,30.2,0,0,1,7.34-11.26,34,34,0,0,1,5-4.07,39.48,39.48,0,0,1,5.5-3.13,48.1,48.1,0,0,1,11.79-3.78,54.79,54.79,0,0,1,6.09-.77,50.14,50.14,0,0,1,6.13,0A39.3,39.3,0,0,1,473,96.56a35.51,35.51,0,0,1,10.35,6.38,40.78,40.78,0,0,1,12.29,20.63h0a1.25,1.25,0,0,1-2.43.62S493.23,124.13,493.22,124.1Z"/><path class="cls-5" d="M530.58,177.74a54.93,54.93,0,0,0,.74-8.2,52.4,52.4,0,0,0-.61-8.21,51,51,0,0,0-2-8,46,46,0,0,0-3.49-7.45,41.44,41.44,0,0,0-10.94-12.12,42.82,42.82,0,0,0-7-4.24,47.61,47.61,0,0,0-7.64-3,54,54,0,0,0-32.1.57c-1.28.4-2.51.93-3.76,1.41s-2.45,1.08-3.61,1.74a45.36,45.36,0,0,0-6.69,4.3A44,44,0,0,0,443,146.13v0a4,4,0,1,1-6.8-4.26,3.9,3.9,0,0,1,.34-.46A56.57,56.57,0,0,1,450,129.62a51.58,51.58,0,0,1,7.87-4.09c1.35-.6,2.74-1.07,4.12-1.58s2.79-.9,4.22-1.22a59.68,59.68,0,0,1,8.59-1.53,57.07,57.07,0,0,1,8.67-.27,58.92,58.92,0,0,1,8.59.93A54.7,54.7,0,0,1,500.4,124a49.25,49.25,0,0,1,7.9,3.4,48.07,48.07,0,0,1,7.22,4.66,45.33,45.33,0,0,1,6.25,5.9,49,49,0,0,1,5,7,51.73,51.73,0,0,1,3.62,7.77,53.61,53.61,0,0,1,2.2,8.27,61,61,0,0,1,.84,8.53,70.06,70.06,0,0,1-.38,8.56,1.26,1.26,0,0,1-1.38,1.12,1.25,1.25,0,0,1-1.12-1.37s0-.05,0-.07Z"/><path class="cls-5" d="M531.16,242.6a53.09,53.09,0,0,0,9.49-14,46.29,46.29,0,0,0,4.11-16.37c.64-11.27-3.31-22.86-11.16-30.82a36.45,36.45,0,0,0-14-8.66,37.31,37.31,0,0,0-16.24-1.54,41.44,41.44,0,0,0-7.94,1.85,42.41,42.41,0,0,0-7.37,3.4,46.87,46.87,0,0,0-12.28,10.46h0a4,4,0,0,1-6.14-5.17,4.93,4.93,0,0,1,.39-.4,60.71,60.71,0,0,1,15.27-10.26A48.23,48.23,0,0,1,503,166.65a42.87,42.87,0,0,1,17.82,2.85,39.89,39.89,0,0,1,14.73,10.1,41.06,41.06,0,0,1,8.84,15.31,46.52,46.52,0,0,1,2.26,17.44,50,50,0,0,1-1.37,8.7c-.3,1.45-.81,2.83-1.23,4.24s-1,2.76-1.61,4.1A61.94,61.94,0,0,1,533,244.27a1.25,1.25,0,0,1-1.92-1.61l0,0Z"/><path class="cls-5" d="M497.18,228.58a36.73,36.73,0,0,1,11.7-4.22,21.54,21.54,0,0,1,12.27,1.39,19.72,19.72,0,0,1,8.94,8.05A27,27,0,0,1,533.56,245l.12,1.45.05,1.45c0,1-.1,2-.15,3-.2,1-.3,2-.59,2.92a22.21,22.21,0,0,1-1,2.81,29.12,29.12,0,0,1-6.78,9.64,37.28,37.28,0,0,1-9.8,6.75,44.5,44.5,0,0,1-11.67,3.74l-.11,0a4.06,4.06,0,0,1-1.46-8,4.52,4.52,0,0,1,1.27,0,26.55,26.55,0,0,0,19.29-5.36,22.37,22.37,0,0,0,6.58-7.95,18.54,18.54,0,0,0,1.55-4.92c.06-.86.16-1.7.16-2.58l0-1.34-.1-1.32a21.84,21.84,0,0,0-3.32-9.86,14.8,14.8,0,0,0-7.82-6.05,15.3,15.3,0,0,0-9.62.29,21.61,21.61,0,0,0-8.23,5.42,4.06,4.06,0,1,1-5.84-5.63,4.1,4.1,0,0,1,1-.77Z"/></g></svg>