<svg xmlns="http://www.w3.org/2000/svg" viewBox="0 0 640 320"><defs><style>.cls-1{fill:aqua;}.cls-2{fill:blue;}.cls-3{fill:#00007f;}.cls-4{fill:red;}.cls-5{fill:maroon;}.cls-6{fill:#0d0a09;}.cls-7{fill:#fcfcfc;}</style></defs><g id="ART-fills"><path class="cls-1" d="M152.56,151.45a9,9,0,0,1,1.45-3.37c-5.51.93-9.78,4.12-10.09,10.24-1.16,22.8,14.33,58.59,28.49,72.37l8.45-8.12C165,202.75,146.65,179.05,152.56,151.45Z"/><path class="cls-2" d="M161.25,148a24,24,0,0,0-7.24,0,9,9,0,0,0-1.45,3.37c-5.91,27.6,12.45,51.3,28.3,71.12L236,169.64C225.23,158.91,183.51,151.14,161.25,148Z"/><path class="cls-3" d="M190.6,221.9c-6.21-6.2-33.15-39.91-6.72-45,7.18-1.39,31.15-1.2,47.73,5.12"/><path class="cls-4" d="M183.06,183.18c-3.7.22-6.51.94-7.87,2.3-5.18,5.17,9.2,30.22,15.41,36.42l8.24-3.25C192.06,209.4,179.66,196.64,183.06,183.18Z"/><path class="cls-5" d="M183.06,183.18c-3.4,13.46,8.66,26.76,15.44,36,0,0,9.88-7.26,12.47-10.38a89.42,89.42,0,0,0,11.95-18.21C210.71,185.94,193.41,182.57,183.06,183.18Z"/><path class="cls-5" d="M449.4,221.9c6.21-6.2,20.59-31.25,15.41-36.42s-31.15-1.2-47.73,5.12"/><path class="cls-6" d="M449.19,221.69a38.5,38.5,0,0,0,3.24-4.54c1-1.57,1.93-3.19,2.83-4.82a107.69,107.69,0,0,0,4.83-10.05A53,53,0,0,0,463.41,192a15.36,15.36,0,0,0,.26-2.46,5.08,5.08,0,0,0-.27-1.92.83.83,0,0,0-.26-.38,2.2,2.2,0,0,0-.53-.34,7.4,7.4,0,0,0-2-.63c-3.16-.56-6.85-.23-10.41.1s-7.23.77-10.88,1.22-7.31,1-11,1.55l-11.15,1.77-.22-.56a57.6,57.6,0,0,1,10.33-5.09,80.93,80.93,0,0,1,11-3.38,62.66,62.66,0,0,1,11.48-1.65,48.89,48.89,0,0,1,5.92.09,31.55,31.55,0,0,1,6.12,1,12.58,12.58,0,0,1,3.26,1.37,6.78,6.78,0,0,1,1.66,1.41,5.77,5.77,0,0,1,1.09,2.07,9.38,9.38,0,0,1,.27,3.65,18.44,18.44,0,0,1-.58,3.11A50.84,50.84,0,0,1,463,203.67a101.47,101.47,0,0,1-6,9.7,54.49,54.49,0,0,1-7.31,8.74Z"/><path class="cls-1" d="M487.44,151.45a9,9,0,0,0-1.45-3.37c5.51.93,9.78,4.12,10.09,10.24,1.16,22.8-14.33,58.59-28.49,72.37l-8.45-8.12C475,202.75,493.35,179.05,487.44,151.45Z"/><path class="cls-2" d="M478.75,148a24,24,0,0,1,7.24,0,9,9,0,0,1,1.45,3.37c5.91,27.6-12.45,51.3-28.3,71.12L404,169.64C414.77,158.91,456.49,151.14,478.75,148Z"/><path class="cls-3" d="M449.4,221.9c6.21-6.2,33.15-39.91,6.72-45-7.18-1.39-31.15-1.2-47.73,5.12"/><path class="cls-4" d="M456.94,183.18c3.69.22,6.51.94,7.87,2.3,5.18,5.17-9.2,30.22-15.41,36.42l-8.24-3.25C447.94,209.4,460.34,196.64,456.94,183.18Z"/><path class="cls-5" d="M456.94,183.18c3.4,13.46-8.66,26.76-15.44,36,0,0-9.88-7.26-12.48-10.38a89.6,89.6,0,0,1-11.94-18.21C429.29,185.94,446.59,182.57,456.94,183.18Z"/><path class="cls-7" d="M486.65,174.27c-.8.14.32-5.85-.16-8.55s.65-8.5,1.46-8.65,1.67,5.44,1.46,8.13S487.46,174.12,486.65,174.27Z"/><path class="cls-7" d="M153.34,174.27c.81.14-.31-5.85.17-8.55s-.65-8.5-1.46-8.65-1.67,5.44-1.46,8.13S152.54,174.12,153.34,174.27Z"/></g><g id="ART-strokes"><path class="cls-6" d="M172.13,231c-5.65-5.15-10.06-11.48-14-18a141.18,141.18,0,0,1-10.05-20.56,113.44,113.44,0,0,1-6.33-22.2,66.54,66.54,0,0,1-.94-11.79,14.14,14.14,0,0,1,1.83-6.94,13.56,13.56,0,0,1,5.36-5.09,19.93,19.93,0,0,1,6.53-2.1,28.49,28.49,0,0,1,6.51-.2l.8.07.71.08,1.42.15,2.83.35c1.89.24,3.77.5,5.65.8a222.08,222.08,0,0,1,22.36,4.58c3.69.95,7.37,2,11,3.16s7.26,2.43,10.83,3.86q2.69,1.07,5.29,2.31c1.75.84,3.48,1.68,5.16,2.66a43.14,43.14,0,0,1,4.89,3.19,21.87,21.87,0,0,1,4.24,4l-.57.57a25.83,25.83,0,0,0-4.8-2.71c-1.68-.76-3.4-1.42-5.15-2-3.5-1.19-7.08-2.15-10.68-3.06s-7.24-1.66-10.88-2.44-7.32-1.43-11-2.1l-22.06-3.89-11-1.92a16.21,16.21,0,0,0-9,.74,6.66,6.66,0,0,0-4.13,6.19,61.63,61.63,0,0,0,.3,10.75A115.28,115.28,0,0,0,152.07,191a143.44,143.44,0,0,0,8.35,20.71,105.91,105.91,0,0,0,5.51,9.74,61,61,0,0,0,6.76,8.92Z"/><path class="cls-6" d="M222.81,190.88A130.7,130.7,0,0,0,201,186c-3.69-.51-7.4-.87-11.08-1a38.77,38.77,0,0,0-10.62.82,7.52,7.52,0,0,0-2,.84,2.29,2.29,0,0,0-.54.46,1.81,1.81,0,0,0-.21.49,6,6,0,0,0-.08,2,17,17,0,0,0,.45,2.4,46.29,46.29,0,0,0,4.14,9.85c1.74,3.21,3.64,6.34,5.57,9.44,1,1.54,1.94,3.07,2.94,4.57a44.74,44.74,0,0,0,3.08,4.15l-2.45-.78c.33,0,.85-.13,1.29-.22l1.39-.3c.93-.22,1.86-.48,2.78-.78a40.68,40.68,0,0,0,5.41-2.21c.86-.45,1.74-.9,2.59-1.41s1.67-1.06,2.49-1.63a40.87,40.87,0,0,0,4.65-4l.49.34a24.9,24.9,0,0,1-3.46,5.4,30.5,30.5,0,0,1-4.73,4.49,34.1,34.1,0,0,1-5.6,3.45c-1,.48-2,.92-3.05,1.32-.52.2-1,.39-1.59.55s-1,.32-1.73.48l-1.3.29-1.15-1.08a35.88,35.88,0,0,1-4-4.57c-1.2-1.56-2.29-3.17-3.31-4.81a75,75,0,0,1-5.32-10.31A60.74,60.74,0,0,1,172.21,193a19.78,19.78,0,0,1-.39-3.16,10,10,0,0,1,.45-3.63,5.82,5.82,0,0,1,1.14-2,6.45,6.45,0,0,1,1.66-1.28,11.74,11.74,0,0,1,3.22-1.16,27.87,27.87,0,0,1,6-.51c2,0,3.89.14,5.8.34a98.65,98.65,0,0,1,11.28,1.88A121.16,121.16,0,0,1,223,190.32Z"/><path class="cls-6" d="M417,190.32a121.16,121.16,0,0,1,21.63-6.85,98.65,98.65,0,0,1,11.28-1.88c1.91-.2,3.84-.33,5.8-.34a27.92,27.92,0,0,1,6,.51,11.74,11.74,0,0,1,3.22,1.16,6.45,6.45,0,0,1,1.66,1.28,5.82,5.82,0,0,1,1.14,2,10,10,0,0,1,.45,3.63,19.78,19.78,0,0,1-.39,3.16,60.74,60.74,0,0,1-3.73,11.24,75,75,0,0,1-5.32,10.31c-1,1.64-2.11,3.25-3.31,4.81a35.88,35.88,0,0,1-4,4.57L450.24,225l-1.3-.29c-.69-.16-1.17-.3-1.73-.48s-1.07-.35-1.59-.55c-1-.4-2.05-.84-3.05-1.32a34.1,34.1,0,0,1-5.6-3.45,30.06,30.06,0,0,1-4.73-4.49,24.9,24.9,0,0,1-3.46-5.4l.49-.34a40.87,40.87,0,0,0,4.65,4c.82.57,1.65,1.12,2.49,1.63s1.73,1,2.59,1.41a40.68,40.68,0,0,0,5.41,2.21c.92.3,1.85.56,2.78.78l1.39.3c.44.09,1,.18,1.29.22l-2.45.78a44.74,44.74,0,0,0,3.08-4.15c1-1.5,2-3,2.94-4.57,1.93-3.1,3.83-6.23,5.57-9.44a46.29,46.29,0,0,0,4.14-9.85,17,17,0,0,0,.45-2.4,6,6,0,0,0-.08-2,1.81,1.81,0,0,0-.21-.49,2.53,2.53,0,0,0-.54-.46,7.66,7.66,0,0,0-2-.84,38.81,38.81,0,0,0-10.63-.82c-3.67.14-7.38.5-11.07,1a130.7,130.7,0,0,0-21.85,4.93Z"/><path class="cls-6" d="M467.31,230.41a61,61,0,0,0,6.76-8.92,105.91,105.91,0,0,0,5.51-9.74A144.59,144.59,0,0,0,487.93,191a115.28,115.28,0,0,0,4.78-21.56,61.63,61.63,0,0,0,.3-10.75,6.66,6.66,0,0,0-4.13-6.19,16.2,16.2,0,0,0-9.05-.74l-11,1.92-22.06,3.89c-3.66.67-7.33,1.37-11,2.1s-7.28,1.55-10.88,2.44-7.18,1.87-10.68,3.06c-1.75.59-3.47,1.25-5.15,2a25.83,25.83,0,0,0-4.8,2.71l-.57-.57a21.87,21.87,0,0,1,4.24-4,43.14,43.14,0,0,1,4.89-3.19c1.68-1,3.41-1.82,5.16-2.66s3.5-1.6,5.29-2.31q5.35-2.14,10.83-3.86c3.64-1.17,7.32-2.21,11-3.16a222.65,222.65,0,0,1,22.36-4.58c1.88-.3,3.76-.56,5.65-.8l2.83-.35,1.42-.15.71-.08.8-.07a28.49,28.49,0,0,1,6.51.2,19.93,19.93,0,0,1,6.53,2.1,13.56,13.56,0,0,1,5.36,5.09,14.14,14.14,0,0,1,1.83,6.94,66.54,66.54,0,0,1-.94,11.79,113.44,113.44,0,0,1-6.33,22.2,141.18,141.18,0,0,1-10,20.56c-3.92,6.5-8.33,12.83-14,18Z"/></g></svg>