<svg xmlns="http://www.w3.org/2000/svg" viewBox="0 0 640 160"><defs><style>.cls-1{fill:aqua;}.cls-2{fill:blue;}.cls-3{fill:#00007f;}.cls-4{fill:#fcfcfc;}.cls-5{fill:#0d0a09;}</style></defs><g id="ART-fills"><path class="cls-1" d="M105.47,62.09C117.67,45.2,137.79,38.88,156.76,34a51.8,51.8,0,0,0-46.07,90.39C97.45,105.5,91.77,82.63,105.47,62.09Z"/><path class="cls-2" d="M183.28,116.53c.31-.39.65-.76.95-1.16L162.83,36.1A50.47,50.47,0,0,0,156.76,34c-19,4.85-39.09,11.17-51.29,28.06a45.37,45.37,0,0,0-7.65,30.32C118.12,115.91,153.27,124,183.28,116.53Z"/><path class="cls-3" d="M97.82,92.41c1.1,11.15,6,22.12,12.87,32a51.71,51.71,0,0,0,72.59-7.89C153.27,124,118.12,115.91,97.82,92.41Z"/><path class="cls-3" d="M221.51,78.29c0,14-21.92,25.28-40.21,25.28s-26-11.32-26-25.28S170.12,53,188.4,53,221.51,64.33,221.51,78.29Z"/><path class="cls-4" d="M122.27,49.18a46.18,46.18,0,0,1,22.19-8.81c1.63-.2,3-2.73,1.65-3-10-1.69-22.9,2.89-33.49,12.84-10.76,10.11-16.15,23-14.85,33.13.18,1.39,2.82.06,3.07-1.54C102.49,70.89,109,58.44,122.27,49.18Z"/><path class="cls-1" d="M534.53,62.09C522.33,45.2,502.21,38.88,483.24,34a51.8,51.8,0,0,1,46.07,90.39C542.55,105.5,548.23,82.63,534.53,62.09Z"/><path class="cls-2" d="M456.72,116.53c-.31-.39-.65-.76-1-1.16l21.4-79.27A50.47,50.47,0,0,1,483.24,34c19,4.85,39.09,11.17,51.29,28.06a45.37,45.37,0,0,1,7.65,30.32C521.88,115.91,486.73,124,456.72,116.53Z"/><path class="cls-3" d="M542.18,92.41c-1.1,11.15-5.95,22.12-12.87,32a51.71,51.71,0,0,1-72.59-7.89C486.73,124,521.88,115.91,542.18,92.41Z"/><path class="cls-3" d="M418.49,78.29c0,14,21.92,25.28,40.21,25.28s26-11.32,26-25.28S469.88,53,451.6,53,418.49,64.33,418.49,78.29Z"/><path class="cls-4" d="M517.73,49.18a46.18,46.18,0,0,0-22.19-8.81c-1.63-.2-3-2.73-1.65-3,10-1.69,22.9,2.89,33.49,12.84,10.76,10.11,16.15,23,14.85,33.13-.18,1.39-2.82.06-3.07-1.54C537.51,70.89,531,58.44,517.73,49.18Z"/></g><g id="ART-strokes"><path class="cls-5" d="M186.64,117.22a56.66,56.66,0,0,1-11.16,10.23l-3.19,2c-.53.33-1,.69-1.6,1l-1.68.84c-1.13.55-2.22,1.16-3.38,1.64l-3.5,1.34a53,53,0,0,1-14.59,3l-1.86.13-1.85,0c-1.24,0-2.48,0-3.72-.1l-3.68-.41-.92-.1-.91-.19-1.82-.38a58.7,58.7,0,0,1-7.12-2l-3.41-1.41c-.57-.24-1.15-.44-1.7-.73l-1.63-.87-1.63-.86a14,14,0,0,1-1.59-.93l-3.07-2a12.05,12.05,0,0,1-1.47-1.11l-1.43-1.16a26.6,26.6,0,0,1-2.76-2.44l-2.6-2.6c-.82-.9-1.57-1.88-2.36-2.81l-1.17-1.42c-.37-.49-.69-1-1-1.52l-2-3L96,108c-.28-.54-.59-1.07-.85-1.63l-.7-1.7c-.44-1.14-1-2.25-1.35-3.41l-1-3.52a51.69,51.69,0,0,1-1.84-14.53c0-.61,0-1.23,0-1.84l.17-1.83c.13-1.22.16-2.45.39-3.65l.68-3.62a15.94,15.94,0,0,1,.44-1.78l.5-1.77L93,66.92c.16-.59.42-1.15.63-1.73l1.35-3.43a58.54,58.54,0,0,1,3.53-6.46A52.75,52.75,0,0,1,107.92,44a53.57,53.57,0,0,1,26.31-13.14A56.64,56.64,0,0,1,164,33.29h0A3,3,0,1,1,161.94,39l-.26-.11a48.34,48.34,0,0,0-26.79-4,49,49,0,0,0-13.31,3.81,47.79,47.79,0,0,0-11.74,7.49,25.07,25.07,0,0,0-2.58,2.36L106,49.78a12.05,12.05,0,0,0-1.2,1.28l-2.23,2.72a10.82,10.82,0,0,0-1,1.41l-1,1.47a53.22,53.22,0,0,0-3.5,6.1L95.73,66c-.21.55-.48,1.07-.64,1.64l-.51,1.68L94.06,71a12.22,12.22,0,0,0-.43,1.71L93,76.19c-.23,1.15-.26,2.33-.4,3.5l-.17,1.76c0,.58,0,1.17,0,1.76,0,1.18,0,2.36,0,3.53l.33,3.52a27.73,27.73,0,0,0,.57,3.48A26.73,26.73,0,0,0,94,97.18l1,3.38c.38,1.11.89,2.18,1.32,3.27l.68,1.63c.26.53.56,1,.83,1.56l1.68,3.1,2,2.92c.34.49.65,1,1,1.46l1.14,1.35c.76.89,1.49,1.82,2.28,2.69l2.54,2.44a24.27,24.27,0,0,0,2.68,2.28l1.39,1.09a12.26,12.26,0,0,0,1.42,1l3,1.88a11.51,11.51,0,0,0,1.53.86l1.57.79,1.57.8c.52.27,1.08.44,1.62.66,1.1.42,2.18.86,3.28,1.27a56.76,56.76,0,0,0,6.81,1.65l1.72.3.86.15.87.07,3.49.27c1.16.06,2.33,0,3.49,0l1.74,0,1.73-.21a48.26,48.26,0,0,0,13.42-3.37l3.16-1.41c1-.5,2-1.13,3-1.69l1.49-.85c.49-.31.94-.67,1.41-1l2.78-2a46.91,46.91,0,0,0,9.3-10,3,3,0,0,1,5,3.46l-.16.21Z"/><path class="cls-5" d="M458.18,113.53a46.91,46.91,0,0,0,9.3,10l2.78,2c.47.32.92.68,1.41,1l1.49.85c1,.56,2,1.19,3,1.69l3.16,1.41a48.26,48.26,0,0,0,13.42,3.37l1.73.21,1.74,0c1.16,0,2.33.08,3.49,0l3.49-.27.87-.07.86-.15,1.72-.3a56.76,56.76,0,0,0,6.81-1.65c1.1-.41,2.18-.85,3.28-1.27.54-.22,1.1-.39,1.62-.66l1.57-.8,1.57-.79a11.51,11.51,0,0,0,1.53-.86l3-1.88a12.26,12.26,0,0,0,1.42-1l1.39-1.09a24.27,24.27,0,0,0,2.68-2.28l2.54-2.44c.79-.87,1.52-1.8,2.28-2.69l1.14-1.35c.35-.47.66-1,1-1.46l2-2.92,1.68-3.1c.27-.52.57-1,.83-1.56l.68-1.63c.43-1.09.94-2.16,1.32-3.27l1-3.38a26.73,26.73,0,0,0,.77-3.44,27.73,27.73,0,0,0,.57-3.48l.33-3.52c0-1.17,0-2.35,0-3.53,0-.59,0-1.18,0-1.76l-.17-1.76c-.14-1.17-.17-2.35-.4-3.5l-.68-3.46a12.22,12.22,0,0,0-.43-1.71l-.52-1.69-.51-1.68c-.16-.57-.43-1.09-.64-1.64l-1.35-3.25a53.22,53.22,0,0,0-3.5-6.1l-1-1.47a10.82,10.82,0,0,0-1-1.41l-2.23-2.72a12.05,12.05,0,0,0-1.2-1.28l-1.25-1.23a25.07,25.07,0,0,0-2.58-2.36,47.79,47.79,0,0,0-11.74-7.49,49,49,0,0,0-13.31-3.81,48.34,48.34,0,0,0-26.79,4,3,3,0,1,1-2.58-5.49l.26-.11h0a56.64,56.64,0,0,1,29.76-2.42A53.57,53.57,0,0,1,532.08,44a52.75,52.75,0,0,1,9.46,11.29,58.54,58.54,0,0,1,3.53,6.46l1.35,3.43c.21.58.47,1.14.63,1.73l.51,1.77.5,1.77a15.94,15.94,0,0,1,.44,1.78l.68,3.62c.23,1.2.26,2.43.39,3.65l.17,1.83c0,.61,0,1.23,0,1.84a51.69,51.69,0,0,1-1.84,14.53l-1,3.52c-.39,1.16-.91,2.27-1.35,3.41l-.7,1.7c-.26.56-.57,1.09-.85,1.63l-1.73,3.25-2,3c-.35.51-.67,1-1,1.52L538,117.21c-.79.93-1.54,1.91-2.36,2.81l-2.61,2.6a25.5,25.5,0,0,1-2.75,2.44l-1.43,1.16a12.05,12.05,0,0,1-1.47,1.11l-3.07,2a14,14,0,0,1-1.59.93l-1.63.86-1.63.87c-.55.29-1.13.49-1.7.73l-3.41,1.41a58.7,58.7,0,0,1-7.12,2l-1.82.38-.91.19-.92.1-3.68.41c-1.24.1-2.48.06-3.72.1l-1.86,0-1.85-.13a53,53,0,0,1-14.59-3l-3.5-1.34c-1.16-.48-2.25-1.09-3.38-1.64l-1.68-.84c-.55-.3-1.07-.66-1.6-1l-3.19-2a56.66,56.66,0,0,1-11.16-10.23v0a3,3,0,0,1,4.67-3.88A1.46,1.46,0,0,1,458.18,113.53Z"/></g></svg>