<svg id="ART-fills" xmlns="http://www.w3.org/2000/svg" viewBox="0 0 640 160"><defs><style>.cls-1{fill:#00007f;}.cls-2{fill:#0d0a09;}.cls-3{fill:#fcfcfc;}</style></defs><path class="cls-1" d="M407,85c-2.35,3.13.32,12.58,15.17,12.58,11.59,0,29.7-5.11,29.7-9s-9.4-7.11-21-7.11S409.87,81.07,407,85Z"/><path class="cls-1" d="M233,85c2.35,3.13-.32,12.58-15.17,12.58-11.59,0-29.7-5.11-29.7-9s9.4-7.11,21-7.11S230.13,81.07,233,85Z"/><circle class="cls-2" cx="218.1" cy="74.69" r="12.19"/><circle class="cls-3" cx="220.76" cy="69.06" r="3.12"/><circle class="cls-3" cx="214.8" cy="80" r="3.82"/><circle class="cls-2" cx="421.77" cy="74.69" r="12.19"/><circle class="cls-3" cx="424.43" cy="69.06" r="3.12"/><circle class="cls-3" cx="418.47" cy="80" r="3.82"/></svg>