<svg xmlns="http://www.w3.org/2000/svg" viewBox="0 0 640 160"><defs><style>.cls-1{fill:maroon;}.cls-2{fill:#ff0;}.cls-3{fill:red;}.cls-4{fill:#fcfcfc;}.cls-5{fill:#0d0a09;}</style></defs><g id="ART-fills"><path class="cls-1" d="M307.78,132.35c-17-7.27-24.14-24.34-29.44-41.7-5,8.86-8,18.46-8,26.81,0,23,22.22,41.64,49.63,41.64,19.8,0,36.89-9.74,44.85-23.81C345.72,140.32,325.49,140,307.78,132.35Z"/><path class="cls-2" d="M320,61.84c-9.51,0-18.38,3.93-25.92,10,10.38-.49,20.48.19,29.7,3.49C346.88,82.7,361.71,101.63,369,124a35.69,35.69,0,0,0,.63-6.57C369.63,94.46,347.41,61.84,320,61.84Z"/><path class="cls-3" d="M323.78,75.35c-9.22-3.3-19.32-4-29.7-3.49a66.62,66.62,0,0,0-15.74,18.79c5.3,17.36,12.47,34.43,29.44,41.7,17.71,7.66,37.94,8,57.07,2.94A36.8,36.8,0,0,0,369,124C361.71,101.63,346.88,82.7,323.78,75.35Z"/><path class="cls-4" d="M325.64,75.55c-1.37,1.12,9.63,7.17,13.18,11.51s14.28,10.14,15.66,9S348.31,86.2,343.8,83,327,74.42,325.64,75.55Z"/></g><g id="ART-strokes"><path class="cls-5" d="M372.76,117.46a40.62,40.62,0,0,1-4.9,20.12,48.22,48.22,0,0,1-13.67,15.64,52.61,52.61,0,0,1-8.94,5.35,54.2,54.2,0,0,1-9.78,3.55,56.41,56.41,0,0,1-10.22,1.73,57.71,57.71,0,0,1-10.35,0,59.78,59.78,0,0,1-20-5.3,51.71,51.71,0,0,1-16.73-12.23,45.86,45.86,0,0,1-6.09-8.52,40.62,40.62,0,0,1-3.81-9.77,40,40,0,0,1-1.13-10.38,46.68,46.68,0,0,1,1.41-10.14,66.13,66.13,0,0,1,7.79-18.29,73.22,73.22,0,0,1,12.38-15.33,59.51,59.51,0,0,1,7.77-6.11,47.77,47.77,0,0,1,8.78-4.63,39.87,39.87,0,0,1,9.63-2.53,37.89,37.89,0,0,1,10,0,45,45,0,0,1,18.34,7.18A65.56,65.56,0,0,1,357.78,81,71.58,71.58,0,0,1,368.1,97.87,53.61,53.61,0,0,1,372.76,117.46Zm-6.27,0a48.12,48.12,0,0,0-3.31-17.61,68.78,68.78,0,0,0-8.71-16.24,56.26,56.26,0,0,0-13.08-13,38.43,38.43,0,0,0-16.9-6.85,33.77,33.77,0,0,0-17.87,2.6,43.5,43.5,0,0,0-8,4.47,55.47,55.47,0,0,0-7,6,63.54,63.54,0,0,0-11,14.84,61,61,0,0,0-6.26,17.14,39.75,39.75,0,0,0-.77,8.84,32.17,32.17,0,0,0,1.53,8.51,35.81,35.81,0,0,0,9.11,14.48,45.4,45.4,0,0,0,14.48,9.49,53.87,53.87,0,0,0,17,4,55.73,55.73,0,0,0,33.41-8.15,40.43,40.43,0,0,0,12.3-12.06A32.21,32.21,0,0,0,366.49,117.46Z"/></g></svg>