<svg id="ART-fills" xmlns="http://www.w3.org/2000/svg" viewBox="0 0 640 160"><defs><style>.cls-1{fill:#00007f;}.cls-2{fill:#0d0a09;}.cls-3{fill:#fcfcfc;}</style></defs><path class="cls-1" d="M459.55,106c2.41,4.79-1.6,18.46-18.72,17.32-13.35-.89-33.73-9.8-33.34-15.56s11.52-9.7,24.88-8.81S456.58,100.08,459.55,106Z"/><path class="cls-2" d="M214.27,95.09a2.17,2.17,0,0,0,.35-.15l.08,0,0,0h-.2l-.66-.07-1.5,0-3,0-6,0c-4,0-7.86-.09-11.73-.22s-7.71-.35-11.54-.63-7.63-.71-11.53-.89a2.06,2.06,0,1,1,.18-4.11,2.26,2.26,0,0,1,.53.09l.08,0a39.67,39.67,0,0,0,10.92,1.9,53.61,53.61,0,0,0,11.1-.68,57.87,57.87,0,0,0,10.75-2.82,53.57,53.57,0,0,0,5.11-2.21c.83-.43,1.66-.85,2.48-1.33l1.25-.73.71-.4.18-.11,0,0,.12,0,.26-.08c.34-.11.69-.21,1.05-.29a6.5,6.5,0,0,1,1,13Z"/><path class="cls-2" d="M211.08,96.46a1.58,1.58,0,0,0,.38,0h.14l0,0-.14-.09-.54-.38-1.29-.77L207,93.73l-5.23-2.92c-3.46-1.93-6.84-3.89-10.17-5.87s-6.58-4-9.79-6.12-6.34-4.31-9.68-6.35A2.06,2.06,0,1,1,174.23,69a1.7,1.7,0,0,1,.42.33l.06.06a39.67,39.67,0,0,0,8.64,6.94,53.36,53.36,0,0,0,10,4.77,58.14,58.14,0,0,0,10.78,2.73c1.83.28,3.69.44,5.54.54.94,0,1.87,0,2.81,0l1.45,0h1.08l.13,0,.27,0c.35.08.7.16,1.05.26a6.5,6.5,0,0,1-5.42,11.82Z"/><path class="cls-2" d="M217.75,96.78a.73.73,0,0,0,.24-.07l.06,0,0,0h0l-.22-.06-.9-.23-2-.42-4.06-.82c-2.7-.51-5.38-1.1-8-1.65-5.33-1.12-10.57-2.37-15.76-3.74s-10.3-2.91-15.35-4.6c-1.27-.43-2.53-.86-3.8-1.27l-3.76-1.38-1.89-.66c-.62-.25-1.24-.51-1.87-.74-1.25-.48-2.51-1-3.79-1.38a2,2,0,1,1,1.29-3.89,1.84,1.84,0,0,1,.38.17l.1.06c1.12.66,2.27,1.27,3.42,1.87.57.31,1.15.6,1.73.89l1.79.78,3.61,1.47c1.23.44,2.47.83,3.7,1.24a84.73,84.73,0,0,0,15.26,3.22,92.91,92.91,0,0,0,15.55.56c2.59-.13,5.17-.4,7.74-.75,1.28-.2,2.57-.4,3.85-.65l1.95-.39,1.07-.22.27,0h.53c.41,0,.82,0,1.23,0a6.5,6.5,0,0,1-2.3,12.8Z"/><path class="cls-2" d="M426.65,82.12c.36.08.71.18,1.05.29l.26.08.12,0,.05,0,.18.11.72.4,1.24.73c.82.48,1.65.9,2.48,1.33a53.57,53.57,0,0,0,5.11,2.21,57.87,57.87,0,0,0,10.75,2.82,53.61,53.61,0,0,0,11.1.68,39.67,39.67,0,0,0,10.92-1.9l.07,0A2.06,2.06,0,1,1,472,92.83a2.54,2.54,0,0,1-.54.09c-3.9.18-7.7.68-11.53.89s-7.67.52-11.54.63-7.77.2-11.73.22l-6,0-3,0-1.5,0-.66.07h-.2l0,0,.08,0a2.17,2.17,0,0,0,.35.15,6.5,6.5,0,0,1,1-13Z"/><path class="cls-2" d="M423.46,84.64c.35-.1.7-.18,1.05-.26l.27,0,.13,0H426l1.45,0c.94,0,1.87,0,2.81,0,1.85-.1,3.71-.26,5.54-.54a58.14,58.14,0,0,0,10.78-2.73,53.36,53.36,0,0,0,10-4.77,39.67,39.67,0,0,0,8.64-6.94l.06,0a2.06,2.06,0,1,1,3,2.82,2.69,2.69,0,0,1-.42.35c-3.34,2-6.42,4.31-9.68,6.35s-6.46,4.16-9.79,6.12-6.71,3.94-10.17,5.87L433,93.73l-2.64,1.5-1.3.77-.54.38-.14.09,0,0h.15a1.55,1.55,0,0,0,.37,0,6.5,6.5,0,0,1-5.42-11.82Z"/><path class="cls-2" d="M419.91,84c.41,0,.82,0,1.23,0h.53l.27,0,1.07.22,1.95.39c1.28.25,2.57.45,3.85.65,2.57.35,5.15.62,7.74.75a92.91,92.91,0,0,0,15.55-.56,84.73,84.73,0,0,0,15.26-3.22c1.24-.41,2.48-.8,3.7-1.24l3.61-1.47,1.79-.78c.58-.29,1.16-.58,1.73-.89,1.16-.6,2.3-1.21,3.42-1.87l.09,0a2.05,2.05,0,1,1,2.08,3.54,1.78,1.78,0,0,1-.4.17c-1.28.43-2.54.9-3.79,1.38-.63.23-1.24.49-1.87.74l-1.89.66-3.76,1.38c-1.27.41-2.53.84-3.8,1.27-5,1.69-10.16,3.26-15.35,4.6s-10.43,2.62-15.76,3.74c-2.66.55-5.34,1.14-8,1.65l-4.05.82-2,.42-.9.23-.22.06h-.05l0,0,.06,0a.73.73,0,0,0,.24.07,6.5,6.5,0,0,1-2.3-12.8Z"/><circle class="cls-2" cx="218.1" cy="74.69" r="24.1"/><circle class="cls-3" cx="228.66" cy="64.26" r="6"/><circle class="cls-3" cx="210.93" cy="81.98" r="9.39"/><circle class="cls-3" cx="229.77" cy="82.85" r="4.54"/><circle class="cls-2" cx="421.9" cy="74.69" r="24.1"/><circle class="cls-3" cx="431.33" cy="64.13" r="6"/><circle class="cls-3" cx="413.6" cy="81.86" r="9.39"/><circle class="cls-3" cx="432.44" cy="82.72" r="4.54"/><path class="cls-2" d="M460.13,108.14a5.35,5.35,0,0,0-.58-.65c-.25-.23-.5-.47-.78-.7-.55-.45-1.15-.88-1.76-1.29a29.67,29.67,0,0,0-4-2.16l-2.12-.86-2.19-.74-2.24-.6c-.76-.18-1.52-.32-2.28-.49s-1.53-.27-2.31-.38-1.54-.22-2.32-.27l-2.34-.21c-.78,0-1.57-.07-2.35-.08-1.56-.06-3.15,0-4.73.06l-2.37.06c-.79,0-1.57.09-2.36.16a97.26,97.26,0,0,0-18.63,3,62.45,62.45,0,0,0-8.86,3,45.36,45.36,0,0,0-4.14,2c-.66.38-1.32.76-1.94,1.17-.3.21-.61.41-.9.63s-.6.46-.75.6a2.62,2.62,0,0,1-3.71-3.71,3,3,0,0,1,.54-.41l.19-.11a13.83,13.83,0,0,1,1.28-.64c.4-.19.79-.34,1.19-.5.79-.34,1.57-.63,2.36-.91,1.57-.54,3.13-1.06,4.71-1.48,3.13-.91,6.3-1.57,9.47-2.17a164,164,0,0,1,19.08-2.24c.79,0,1.59-.1,2.39-.16l2.39-.1c1.6,0,3.18-.16,4.8-.13a74.66,74.66,0,0,1,9.67.42c.8.09,1.61.18,2.42.29l2.41.42,2.41.5,2.4.63A40.72,40.72,0,0,1,459,101.8c.79.33,1.57.69,2.35,1.11.39.2.78.43,1.17.65a10.41,10.41,0,0,1,1.27.87l.43.35a2.68,2.68,0,1,1-3.37,4.18A3,3,0,0,1,460.13,108.14Z"/><path class="cls-1" d="M180.41,106c-2.41,4.79,1.6,18.46,18.72,17.32,13.36-.89,33.73-9.8,33.34-15.56s-11.52-9.7-24.88-8.81S183.38,100.08,180.41,106Z"/><path class="cls-1" d="M232.81,115.36c.8,1.31,4.54,3.62,6.58,1.14,1.59-2,2.24-6.48.83-7.63s-3.82-.5-5.41,1.45S231.82,113.74,232.81,115.36Z"/><path class="cls-1" d="M394.84,112.48c.52,1.44,3.75,4.44,6.23,2.4,1.94-1.6,3.46-5.91,2.31-7.31s-3.66-1.24-5.6.36S394.18,110.7,394.84,112.48Z"/><path class="cls-1" d="M226.82,118.22c.29.47,1.64,1.31,2.37.41.57-.7.81-2.33.3-2.74s-1.37-.18-2,.52S226.47,117.64,226.82,118.22Z"/><path class="cls-1" d="M243,112.49c.29.47,1.64,1.31,2.37.41.57-.7.81-2.33.3-2.74a1.47,1.47,0,0,0-1.95.52C243.17,111.38,242.67,111.91,243,112.49Z"/><path class="cls-1" d="M405.61,115.16c.51.2,2.09.07,2.14-1.09,0-.9-.74-2.35-1.39-2.38s-1.22.68-1.26,1.58S405,114.9,405.61,115.16Z"/><path class="cls-1" d="M412.18,114.89c-.41-.52-2.14-1.32-2.88-.14-.58.91-.62,2.89,0,3.3a1.75,1.75,0,0,0,2.24-.89C412.16,116.24,412.68,115.53,412.18,114.89Z"/><path class="cls-2" d="M176.21,104.43a10.41,10.41,0,0,1,1.27-.87c.39-.22.78-.45,1.17-.65.78-.42,1.56-.78,2.35-1.11a40.72,40.72,0,0,1,4.75-1.68l2.4-.63,2.41-.5,2.41-.42c.81-.11,1.62-.2,2.43-.29a74.43,74.43,0,0,1,9.66-.42c1.62,0,3.2.08,4.8.13l2.39.1c.8.06,1.6.12,2.4.16a164.1,164.1,0,0,1,19.07,2.24c3.17.6,6.34,1.26,9.47,2.17,1.58.42,3.14.94,4.72,1.48.78.29,1.56.57,2.35.91.4.16.79.31,1.19.5a13.83,13.83,0,0,1,1.28.64l.18.1a2.63,2.63,0,1,1-2.62,4.55,2.24,2.24,0,0,1-.54-.42c-.15-.14-.48-.4-.75-.6s-.6-.42-.9-.63c-.62-.41-1.28-.79-1.94-1.17a45.36,45.36,0,0,0-4.14-2,62.45,62.45,0,0,0-8.86-3,97.26,97.26,0,0,0-18.63-3c-.79-.07-1.57-.12-2.36-.16l-2.37-.06c-1.58,0-3.17-.12-4.73-.06-.78,0-1.57.05-2.35.08l-2.34.2c-.78.06-1.55.17-2.32.28s-1.55.2-2.31.38-1.52.31-2.28.49l-2.24.6-2.19.74-2.12.86a29,29,0,0,0-4,2.16,21.75,21.75,0,0,0-1.77,1.29c-.28.23-.53.47-.78.7a4.68,4.68,0,0,0-.58.65,2.68,2.68,0,0,1-4.73-2.54,2.64,2.64,0,0,1,.67-.81Z"/></svg>