<svg xmlns="http://www.w3.org/2000/svg" viewBox="0 0 640 320"><defs><style>.cls-1{fill:#00007f;}.cls-2{fill:#fff6e9;}.cls-3{fill:#fffdfa;}.cls-4{fill:#ddd6ce;}.cls-5{fill:#b7b1ac;}.cls-6{fill:#fff;}.cls-7{fill:#0d0a09;}</style></defs><g id="ART-fills"><path class="cls-1" d="M280.49,191.41c-2.19,11.91,9.69,44,37.75,38.2,21.9-4.51,52.44-29.48,49.61-43.22S345,165.17,323.07,169.68,283.18,176.71,280.49,191.41Z"/><path class="cls-2" d="M343.58,132.85c-5-3-8-9-8-15-4-30-5-60-24-87a5.16,5.16,0,0,1-.35-.51c-2.93,8.55-5.72,20.06-8.34,32.48-1.5,37.88-1.94,76.34.69,114,1,12,17,25,24,17,16.66-16.67,22.37-38.08,23.13-61.2A7.15,7.15,0,0,1,343.58,132.85Z"/><path class="cls-3" d="M348.44,119.24c-9.68-36.93-16.26-103.63-27.59-103.63-3.33,0-6.55,5.72-9.62,14.73a5.16,5.16,0,0,0,.35.51c19,27,20,57,24,87,0,6,3,12,8,15a7.15,7.15,0,0,0,7.13-.2c0-1.29.07-2.58.08-3.88C350.05,125.57,349.26,122.38,348.44,119.24Z"/><path class="cls-4" d="M350.79,128.77c-.24,24.6-5.62,47.48-23.21,65.08-7,8-23-5-24-17-2.63-37.69-2.19-76.15-.69-114-4,19.08-7.66,40.28-10.74,56.06-4.68,23.92-9.21,50.79-9.21,59.46a37.91,37.91,0,1,0,75.82,0C358.76,170.83,355.65,149.64,350.79,128.77Z"/><path class="cls-4" d="M342.37,91.83a34.35,34.35,0,0,1-1.43,8.81,27.31,27.31,0,0,1-4.12,8.21,25.94,25.94,0,0,1-6.85,6.36,32.65,32.65,0,0,1-4.08,2.17c-1.37.62-2.82,1.16-4,1.66l-.18.08-.22.06-3.77,1c-1.32.32-2.66.62-4,.83a30,30,0,0,1-8.43.21,16.05,16.05,0,0,1-8.1-3.26,13.51,13.51,0,0,1-2.89-3.3,15.49,15.49,0,0,1-1.62-3.9l1.55-.61a18.23,18.23,0,0,0,2.12,3,11.6,11.6,0,0,0,2.71,2.17,13.9,13.9,0,0,0,6.6,1.73,30.27,30.27,0,0,0,7.22-.73c1.2-.26,2.42-.53,3.64-.87l3.81-1.1-.41.14c1.48-.62,2.72-1.06,4-1.61a34.38,34.38,0,0,0,3.53-1.8,24.22,24.22,0,0,0,5.94-5,27.69,27.69,0,0,0,4.22-6.71,48.84,48.84,0,0,0,2.66-7.84Z"/><path class="cls-5" d="M341.94,89.21a37.35,37.35,0,0,1-1.68,8.62,27.22,27.22,0,0,1-4.14,7.91,25.39,25.39,0,0,1-6.66,6.08,32.13,32.13,0,0,1-4,2.1c-1.35.61-2.76,1.13-4,1.65l-.11,0-.13,0a78.09,78.09,0,0,1-7.73,1.84,29.81,29.81,0,0,1-8.18.32,15.51,15.51,0,0,1-7.8-3,13.41,13.41,0,0,1-2.85-3.08,15.08,15.08,0,0,1-1.73-3.71l.93-.36a17.79,17.79,0,0,0,2,3.17,11.17,11.17,0,0,0,2.75,2.39,14.21,14.21,0,0,0,6.9,2,29.88,29.88,0,0,0,7.45-.63c1.25-.24,2.49-.53,3.72-.86l3.81-1.07-.25.08c1.42-.59,2.7-1,4-1.62a32.74,32.74,0,0,0,3.63-1.88,24.42,24.42,0,0,0,6.13-5.24,27.45,27.45,0,0,0,4.19-7,42.49,42.49,0,0,0,2.42-8Z"/><path class="cls-6" d="M342.54,94.73a37.87,37.87,0,0,1-1.81,8.51,27.67,27.67,0,0,1-4.15,7.76,24.82,24.82,0,0,1-6.58,5.93,34.8,34.8,0,0,1-3.91,2.07c-1.33.6-2.71,1.11-4,1.65l-.07,0-.09,0c-2.45.65-5.07,1.4-7.7,1.83a29,29,0,0,1-8.06.39,15.68,15.68,0,0,1-7.65-2.8,13.24,13.24,0,0,1-2.82-3,15.65,15.65,0,0,1-1.79-3.62l.63-.24a17.93,17.93,0,0,0,2,3.27,12.17,12.17,0,0,0,2.77,2.5,14.2,14.2,0,0,0,7.05,2.2,31.22,31.22,0,0,0,7.58-.56c2.55-.47,4.95-1.21,7.56-1.95l-.17.06c1.39-.58,2.69-1,4-1.61A31.4,31.4,0,0,0,329,115.3a25.2,25.2,0,0,0,6.21-5.39,26.54,26.54,0,0,0,4.18-7.18,41.66,41.66,0,0,0,2.3-8.12Z"/><path class="cls-4" d="M334.92,51.11a20.66,20.66,0,0,1-.7,5.86,17.6,17.6,0,0,1-2.65,5.57A16.68,16.68,0,0,1,327,66.9a22.64,22.64,0,0,1-2.73,1.48c-.9.41-1.88.77-2.58,1.07l-.18.08-.22,0-2.42.63c-.87.2-1.76.39-2.68.52a19.14,19.14,0,0,1-5.66,0A10.86,10.86,0,0,1,305,68.39a8.77,8.77,0,0,1-1.9-2.33,9.48,9.48,0,0,1-1-2.68l1.55-.61a8.29,8.29,0,0,0,3.18,3,8.74,8.74,0,0,0,4,.85,21.67,21.67,0,0,0,4.44-.56c.75-.18,1.51-.36,2.28-.59l2.47-.71-.4.13c1-.42,1.76-.69,2.54-1a20.14,20.14,0,0,0,2.18-1.09,15.91,15.91,0,0,0,3.69-2.95,18.06,18.06,0,0,0,2.73-4.08,35.46,35.46,0,0,0,1.95-4.88Z"/><path class="cls-5" d="M334.49,48.28a22.21,22.21,0,0,1-.95,5.67,17.56,17.56,0,0,1-2.66,5.27,16.73,16.73,0,0,1-4.4,4.07,31.61,31.61,0,0,1-5.2,2.47l-.12,0-.12,0A49.73,49.73,0,0,1,316,67a19.15,19.15,0,0,1-5.41.15,10.31,10.31,0,0,1-5.2-2.07A8.87,8.87,0,0,1,303.54,63a10,10,0,0,1-1.06-2.49l.93-.37a8.43,8.43,0,0,0,3.11,3.38,9.18,9.18,0,0,0,4.3,1.16,20.33,20.33,0,0,0,4.69-.46c.78-.17,1.57-.35,2.36-.57l2.46-.7-.24.08c.94-.4,1.75-.68,2.55-1a19.76,19.76,0,0,0,2.29-1.18,15.37,15.37,0,0,0,3.86-3.23,17.64,17.64,0,0,0,2.72-4.37,30.38,30.38,0,0,0,1.69-5.09Z"/><path class="cls-6" d="M337,52.58a23.9,23.9,0,0,1-1.48,5.89,19.71,19.71,0,0,1-3.18,5.29,19,19,0,0,1-4.75,4,37.88,37.88,0,0,1-5.5,2.53l-.08,0-.07,0c-1.66.46-3.48,1-5.29,1.34a22.59,22.59,0,0,1-5.58.43,11.69,11.69,0,0,1-5.48-1.61A8.29,8.29,0,0,1,302.19,66l.63-.24a7.7,7.7,0,0,0,3.4,3.65,10.1,10.1,0,0,0,4.87,1.06,23.78,23.78,0,0,0,5.15-.63c1.73-.36,3.37-.88,5.17-1.4l-.14,0a40.26,40.26,0,0,0,5.3-2.39A19.36,19.36,0,0,0,331,62.59a18.67,18.67,0,0,0,3.17-4.7,26.83,26.83,0,0,0,1.94-5.46Z"/><path class="cls-4" d="M351.1,130.94A57.36,57.36,0,0,1,350,143.36a40.52,40.52,0,0,1-4.43,12,31.06,31.06,0,0,1-8.72,9.69,33.57,33.57,0,0,1-5.63,3.28c-1.93.92-4,1.67-5.66,2.39l-.25.11-.24.05c-.78.17-1.72.42-2.63.65s-1.87.45-2.82.66a52.75,52.75,0,0,1-5.8,1,34.12,34.12,0,0,1-12-.69,23.08,23.08,0,0,1-5.68-2.29,22.34,22.34,0,0,1-4.83-3.75,25.3,25.3,0,0,1-5.75-10.25l1.56-.61a26.55,26.55,0,0,0,6.42,8.5,19.83,19.83,0,0,0,9.21,4.31,32.47,32.47,0,0,0,10.46,0c1.76-.25,3.53-.58,5.29-1,.89-.2,1.77-.44,2.67-.68S323,166.2,324,166l-.49.16c2.06-.87,3.84-1.48,5.59-2.31A32.73,32.73,0,0,0,334,161a28.35,28.35,0,0,0,7.75-8,41.39,41.39,0,0,0,4.72-10.53,78.58,78.58,0,0,0,2.45-11.66Z"/><path class="cls-5" d="M351.6,127.17a62.58,62.58,0,0,1-1.77,12.64,42.11,42.11,0,0,1-5.07,11.89,32.24,32.24,0,0,1-9.07,9.4,36.8,36.8,0,0,1-5.7,3.21c-1.95.92-4,1.66-5.83,2.44l-.14.06-.14,0c-1.77.41-3.71,1-5.62,1.41s-3.88.83-5.85,1.08a36.44,36.44,0,0,1-12-.24,22.53,22.53,0,0,1-10.82-5.38,24.48,24.48,0,0,1-6.26-10.1l.94-.37a24.18,24.18,0,0,0,6.61,9,20.34,20.34,0,0,0,10,4.38,36.34,36.34,0,0,0,11.16-.13q2.79-.44,5.57-1.11c1.87-.45,3.64-1,5.64-1.48l-.28.09c2.05-.87,3.95-1.54,5.81-2.4a36.82,36.82,0,0,0,5.29-2.94,31.35,31.35,0,0,0,8.52-8.43,40.49,40.49,0,0,0,5.19-11,69.86,69.86,0,0,0,2.55-12.16Z"/><path class="cls-6" d="M353.1,131.5A62.62,62.62,0,0,1,351,144.22a42.37,42.37,0,0,1-5.34,11.84,33,33,0,0,1-9.23,9.25,39.48,39.48,0,0,1-5.72,3.18c-2,.92-4,1.67-5.91,2.48l-.09,0-.09,0c-1.83.44-3.77,1-5.7,1.45s-3.89.84-5.87,1.12a37.58,37.58,0,0,1-12,0,22.52,22.52,0,0,1-10.91-5.08,23.9,23.9,0,0,1-6.48-10l.62-.24a23.92,23.92,0,0,0,6.7,9.25,21,21,0,0,0,10.35,4.43,38.72,38.72,0,0,0,11.47-.18c1.91-.3,3.8-.7,5.69-1.16s3.72-1,5.71-1.52l-.18.06c2-.86,4-1.55,5.9-2.43a38.62,38.62,0,0,0,5.47-3,32.88,32.88,0,0,0,8.83-8.65,41,41,0,0,0,5.42-11.26,68.18,68.18,0,0,0,2.58-12.39Z"/></g><g id="ART-strokes"><path class="cls-7" d="M346.48,119.76c-4.53-18.69-7.24-37.55-10.56-56.3q-1.25-7-2.62-14c-.92-4.66-1.92-9.3-3.11-13.89a81.59,81.59,0,0,0-4.45-13.37,21,21,0,0,0-1.65-3A7.21,7.21,0,0,0,322,17a2.12,2.12,0,0,0-2.35.08,8,8,0,0,0-2.17,2.24,32.14,32.14,0,0,0-3.16,6.12c-.89,2.16-1.67,4.38-2.39,6.63-1.44,4.5-2.65,9.08-3.78,13.69-2.24,9.22-4.06,18.56-5.81,27.9s-3.33,18.74-4.92,28.14l-4.85,28.16c-1.56,9.38-3,18.78-4.32,28.17-.63,4.69-1.21,9.39-1.62,14a60.41,60.41,0,0,0-.28,6.75,34.63,34.63,0,0,0,.84,6.43,34,34,0,0,0,5.09,11.8,35.24,35.24,0,0,0,9,9.09,34.11,34.11,0,0,0,11.64,5.17,35.34,35.34,0,0,0,12.72.55,34.87,34.87,0,0,0,21.84-12.22,34.18,34.18,0,0,0,6.28-11.2,35.72,35.72,0,0,0,1.72-12.89c-.19-4.57-.72-9.29-1.29-14s-1.26-9.38-2.05-14.05C350.55,138.26,348.69,129,346.48,119.76Zm3.93-1q3.87,13.84,6.74,27.94c1,4.69,1.87,9.4,2.69,14.13s1.56,9.48,2,14.42a41.06,41.06,0,0,1-1.41,15.35,41.66,41.66,0,0,1-7.07,13.88,41,41,0,0,1-26.64,15.38,41.4,41.4,0,0,1-46.43-33.11,40.29,40.29,0,0,1-.69-7.74,66,66,0,0,1,.57-7.51c.6-4.83,1.36-9.56,2.17-14.28,1.63-9.44,3.45-18.81,5.38-28.16,4-18.66,7.57-37.32,11.48-56,1.95-9.34,4-18.66,6.44-27.91,1.2-4.63,2.49-9.24,4-13.8.77-2.28,1.6-4.54,2.55-6.77a34.63,34.63,0,0,1,3.5-6.49,10,10,0,0,1,2.84-2.79,4.51,4.51,0,0,1,2.19-.66,4.34,4.34,0,0,1,2.24.6,9,9,0,0,1,2.79,2.86,23.26,23.26,0,0,1,1.79,3.27,62.19,62.19,0,0,1,2.56,6.8c.74,2.29,1.39,4.6,2,6.91,2.39,9.28,4.37,18.61,6.22,28L344,91C345.92,100.32,347.91,109.62,350.41,118.73Z"/></g></svg>