<svg xmlns="http://www.w3.org/2000/svg" viewBox="0 0 640 320"><defs><style>.cls-1{fill:#00007f;}.cls-2{fill:blue;}.cls-3{fill:#ff0;}.cls-4{fill:red;}.cls-5{fill:maroon;}.cls-6{fill:aqua;}.cls-7{fill:#0d0a09;}</style></defs><g id="ART-fills"><path class="cls-1" d="M261.94,190.73a27.57,27.57,0,0,0-9.58-2.87,24.26,24.26,0,0,0-9.86.78,16,16,0,0,0-8,5.26,14.41,14.41,0,0,0-3.06,8.73,3.49,3.49,0,1,1-7-.08,3.53,3.53,0,0,1,.5-1.76l.07-.11a36.17,36.17,0,0,1,7.19-9,26.48,26.48,0,0,1,9.6-5.17,48.6,48.6,0,0,1,10.56-1.85c3.59-.3,7.19-.33,10.94-.49h.06a3.48,3.48,0,1,1-1.46,6.56Z"/><path class="cls-2" d="M246,193.85c.93,1.86,7.05,2,11.12,2l.68-.21C251,176.53,239.89,158.77,223.14,145c-19.95-16.77-47.12-26.28-73.9-26.54a165.82,165.82,0,0,0-68.65,14.32c-1.4.62-2.72,1.24-4.17,2a2.92,2.92,0,0,0-1.11,4.47,4.38,4.38,0,0,0,5.08,1.35c2.55-1.09,5.39-2.15,8.11-3.07A162.6,162.6,0,0,1,135,128.79C181.67,126.72,231.4,143.57,246,193.85Z"/><path class="cls-2" d="M238.11,201.59l.13,0h-.14Z"/><path class="cls-1" d="M246,193.85c-14.63-50.28-64.36-67.13-111-65.06,26.24-.85,52.41,5.62,73.25,23.37,15.85,13.53,25.15,31.16,29.81,49.38h.14s1.47,4.08,7,1.84a42.88,42.88,0,0,0,11.9-7.54C253.08,195.84,247,195.71,246,193.85Z"/><path class="cls-3" d="M54,142.85a45.83,45.83,0,0,0,6.27-16,29.28,29.28,0,0,0-4.95,2.28C47,133.91,42.12,141.94,42,149.52A15.77,15.77,0,0,0,54,142.85Z"/><path class="cls-4" d="M77.31,126.66a24.76,24.76,0,0,0-17,.18,45.83,45.83,0,0,1-6.27,16,15.77,15.77,0,0,1-12,6.67A16.19,16.19,0,0,0,44.14,158a11.12,11.12,0,0,0,.68,1c7.15-.42,14.32-2.95,21.21-7.19C74.31,146.05,80.53,136.14,77.31,126.66Z"/><path class="cls-5" d="M86,133.84a16.68,16.68,0,0,0-8.65-7.18c3.22,9.48-3,19.39-11.28,25.19C59.14,156.09,52,158.62,44.82,159c5.54,8,15.81,5.28,26.89-1.12C83.26,151.25,91.31,143.12,86,133.84Z"/><path class="cls-6" d="M84.76,131.21c15.67-4.61,31.45-9.41,47.82-11.36,2-.28,4.1-.41,6.15-.61s4.1-.28,6.16-.3c4.12-.18,8.24,0,12.35.16A110.33,110.33,0,0,1,204.53,133a118.45,118.45,0,0,1,10.57,6.64c3.41,2.39,6.66,5,9.82,7.73a112.34,112.34,0,0,1,9,8.72,113.7,113.7,0,0,1,8.11,9.65,95.85,95.85,0,0,1,12.73,22.17,4.51,4.51,0,0,1-8.36,3.38c-.06-.16-.11-.32-.16-.48v0a66.59,66.59,0,0,0-4.06-10.85,95.62,95.62,0,0,0-5.67-10.35,105.91,105.91,0,0,0-15-18.47,107.82,107.82,0,0,0-18.86-14.81,103.34,103.34,0,0,0-21.83-10.12l-1.44-.48-1.45-.41-2.91-.82c-2-.45-3.91-1-5.89-1.34a100.78,100.78,0,0,0-12-1.66,126.08,126.08,0,0,0-24.26.5c-16.15,1.82-31.76,6.81-47.22,12h0a1.41,1.41,0,1,1-.89-2.68Z"/><path class="cls-1" d="M384.93,184.17c3.75.16,7.35.19,10.94.49a48.6,48.6,0,0,1,10.56,1.85,26.57,26.57,0,0,1,9.6,5.17,36.17,36.17,0,0,1,7.19,9l.06.1a3.49,3.49,0,1,1-6.47,1.85,14.41,14.41,0,0,0-3.06-8.73,16,16,0,0,0-8-5.26,24.26,24.26,0,0,0-9.86-.78,27.57,27.57,0,0,0-9.58,2.87,3.48,3.48,0,1,1-1.48-6.56Z"/><path class="cls-2" d="M402.24,193.85c-.93,1.86-7.05,2-11.12,2l-.68-.21c6.83-19.11,17.94-36.87,34.69-50.68,19.95-16.77,47.11-26.28,73.9-26.54a165.78,165.78,0,0,1,68.64,14.32c1.4.62,2.73,1.24,4.18,2a2.91,2.91,0,0,1,1.1,4.47,4.36,4.36,0,0,1-5.07,1.35c-2.56-1.09-5.39-2.15-8.11-3.07a162.6,162.6,0,0,0-46.55-8.68C466.6,126.72,416.87,143.57,402.24,193.85Z"/><path class="cls-2" d="M410.16,201.59l-.14,0h.15Z"/><path class="cls-1" d="M402.24,193.85c14.63-50.28,64.36-67.13,111-65.06-26.23-.85-52.4,5.62-73.25,23.37-15.84,13.53-25.14,31.16-29.8,49.38H410s-1.47,4.08-7,1.84a42.88,42.88,0,0,1-11.9-7.54C395.19,195.84,401.31,195.71,402.24,193.85Z"/><path class="cls-3" d="M594.24,142.85a46.05,46.05,0,0,1-6.28-16,29,29,0,0,1,5,2.28c8.3,4.79,13.23,12.82,13.35,20.4A15.75,15.75,0,0,1,594.24,142.85Z"/><path class="cls-4" d="M571,126.66a24.74,24.74,0,0,1,17,.18,46.05,46.05,0,0,0,6.28,16,15.75,15.75,0,0,0,12,6.67,16.29,16.29,0,0,1-2.14,8.47c-.22.37-.44.72-.68,1-7.15-.42-14.32-2.95-21.21-7.19C574,146.05,567.74,136.14,571,126.66Z"/><path class="cls-5" d="M562.31,133.84a16.68,16.68,0,0,1,8.65-7.18c-3.22,9.48,3,19.39,11.28,25.19,6.89,4.24,14.06,6.77,21.21,7.19-5.54,8-15.81,5.28-26.89-1.12C565,151.25,557,143.12,562.31,133.84Z"/><path class="cls-6" d="M562.66,133.89c-15.46-5.16-31.07-10.15-47.22-12a126.08,126.08,0,0,0-24.26-.5,100.78,100.78,0,0,0-12,1.66c-2,.35-3.93.89-5.89,1.34l-2.91.82-1.45.41-1.44.48a103.34,103.34,0,0,0-21.83,10.12,108.27,108.27,0,0,0-18.87,14.81,106.31,106.31,0,0,0-15,18.47,95.62,95.62,0,0,0-5.67,10.35A66.59,66.59,0,0,0,402,190.73h0a4.51,4.51,0,1,1-8.69-2.38,3.28,3.28,0,0,1,.17-.5,95.85,95.85,0,0,1,12.73-22.17,113.7,113.7,0,0,1,8.11-9.65,112.34,112.34,0,0,1,9-8.72c3.16-2.72,6.41-5.34,9.82-7.73A118.45,118.45,0,0,1,443.74,133,110.33,110.33,0,0,1,491,119.1c4.11-.19,8.23-.34,12.34-.16,2.06,0,4.12.21,6.17.3s4.11.33,6.14.61c16.38,2,32.16,6.75,47.82,11.36a1.41,1.41,0,1,1-.79,2.7h-.05Z"/></g><g id="ART-strokes"><path class="cls-7" d="M87.54,134.62a187.8,187.8,0,0,1,46.15-7.22A138.14,138.14,0,0,1,157,128.78c3.84.58,7.67,1.26,11.44,2.22a99,99,0,0,1,11.16,3.41c1.84.63,3.63,1.39,5.43,2.11s3.57,1.57,5.3,2.47,3.44,1.81,5.15,2.75,3.35,2,5,3.09a93.51,93.51,0,0,1,17.83,15.11c10.61,11.56,18.09,25.82,22.8,40.91h0a3,3,0,1,1-5.82,1.47,89,89,0,0,0-19.14-40.49,84.23,84.23,0,0,0-16.9-15.18,82.79,82.79,0,0,0-9.82-5.81c-1.68-.9-3.44-1.65-5.16-2.46s-3.51-1.49-5.32-2.11a99.17,99.17,0,0,0-11-3.25A97.16,97.16,0,0,0,156.65,131c-3.78-.5-7.6-.76-11.41-.88s-7.63,0-11.44.18a143.65,143.65,0,0,0-44.34,10,3,3,0,1,1-2.23-5.58Z"/><path class="cls-7" d="M255,196.65A113.37,113.37,0,0,0,245,173.24a103.3,103.3,0,0,0-15.35-20.45,96.1,96.1,0,0,0-9.49-8.66c-1.64-1.4-3.4-2.61-5.11-3.91-.87-.62-1.78-1.2-2.66-1.81s-1.78-1.21-2.71-1.75a113,113,0,0,0-23.3-10.92,124.42,124.42,0,0,0-12.44-3.43l-3.16-.62c-1-.22-2.11-.42-3.18-.56l-3.18-.5c-1.07-.14-2.14-.24-3.21-.35-2.13-.27-4.28-.34-6.42-.49s-4.3-.13-6.45-.12c-4.31,0-8.6.24-12.88.63A150.94,150.94,0,0,0,86,133.72a3,3,0,0,1-2.53-5.45l.27-.11a189.11,189.11,0,0,1,51.45-10.72c17.43-1.08,35.22.67,51.77,6.41a116.1,116.1,0,0,1,61.44,47.27,143.34,143.34,0,0,1,12.25,23.51,3,3,0,1,1-5.54,2.32c0-.09-.07-.19-.1-.28Z"/><path class="cls-7" d="M43.26,158.32a17.08,17.08,0,0,1-2.48-8.13,21,21,0,0,1,1.39-8.45,28.77,28.77,0,0,1,10.6-13.33A29.78,29.78,0,0,1,69.22,123a23.9,23.9,0,0,1,8.88,1.52,19.35,19.35,0,0,1,7.65,5.25,17.42,17.42,0,0,1,2.63,3.93,14.32,14.32,0,0,1,1.37,4.75,12.7,12.7,0,0,1-.49,5,15.73,15.73,0,0,1-2.08,4.3A27.76,27.76,0,0,1,81,154.06a54.32,54.32,0,0,1-7.11,4.62,71.08,71.08,0,0,1-7.55,3.67,37.52,37.52,0,0,1-8.14,2.44,16.22,16.22,0,0,1-8.66-.61A12.24,12.24,0,0,1,43.26,158.32Zm1.16-.67a10.66,10.66,0,0,0,5.77,4.72,14,14,0,0,0,7.51,0A34,34,0,0,0,65,159.46a73.41,73.41,0,0,0,6.88-4.06,60.11,60.11,0,0,0,6.32-4.73,26.29,26.29,0,0,0,5-5.56,9.64,9.64,0,0,0,1.65-6.2A11.47,11.47,0,0,0,82,133c-3-3.5-7.87-5.34-12.81-5.46a27,27,0,0,0-14.47,3.91,25.51,25.51,0,0,0-10.35,11.21,19,19,0,0,0-1.73,7.51A15.34,15.34,0,0,0,44.42,157.65Z"/><path class="cls-7" d="M558.81,140.31a143.65,143.65,0,0,0-44.35-10c-3.8-.22-7.62-.34-11.43-.18s-7.63.38-11.41.88A97.16,97.16,0,0,0,480.37,133a99.34,99.34,0,0,0-11,3.25c-1.8.62-3.54,1.4-5.31,2.11s-3.48,1.56-5.16,2.46a83.73,83.73,0,0,0-9.83,5.81,84.78,84.78,0,0,0-16.9,15.18,89.22,89.22,0,0,0-19.14,40.49,3,3,0,1,1-5.81-1.47h0c4.71-15.09,12.19-29.35,22.8-40.91a93.51,93.51,0,0,1,17.83-15.11c1.61-1.1,3.3-2.07,5-3.09s3.4-1.91,5.15-2.75,3.52-1.66,5.29-2.47,3.6-1.48,5.44-2.11A99.5,99.5,0,0,1,479.87,131c3.77-1,7.61-1.64,11.45-2.22a138.14,138.14,0,0,1,23.26-1.38,187.8,187.8,0,0,1,46.15,7.22,3,3,0,1,1-1.61,5.79Z"/><path class="cls-7" d="M387.62,194.63a142.57,142.57,0,0,1,12.25-23.51,116.12,116.12,0,0,1,61.43-47.27c16.55-5.74,34.34-7.49,51.78-6.41a189,189,0,0,1,51.44,10.72,3,3,0,0,1-2,5.67l-.27-.11a150.94,150.94,0,0,0-49.41-13.42c-4.28-.39-8.58-.66-12.88-.63-2.16,0-4.3,0-6.45.12s-4.29.22-6.42.49c-1.07.11-2.14.21-3.21.35l-3.19.5c-1.06.14-2.12.34-3.17.56l-3.17.62a125,125,0,0,0-12.43,3.43,113.1,113.1,0,0,0-23.31,10.92c-.92.54-1.8,1.16-2.7,1.75s-1.79,1.19-2.66,1.81c-1.71,1.3-3.48,2.51-5.11,3.91a95,95,0,0,0-9.49,8.66,102.91,102.91,0,0,0-15.35,20.45,113.37,113.37,0,0,0-10.05,23.41v0a3,3,0,0,1-5.75-1.75C387.54,194.82,387.58,194.73,387.62,194.63Z"/><path class="cls-7" d="M603.84,157.65a15.24,15.24,0,0,0,1.79-7.5,19,19,0,0,0-1.73-7.51,25.51,25.51,0,0,0-10.35-11.21,27,27,0,0,0-14.47-3.91c-4.94.12-9.79,2-12.82,5.46a11.45,11.45,0,0,0-2.82,5.93,9.64,9.64,0,0,0,1.65,6.2,26.29,26.29,0,0,0,5,5.56,59.09,59.09,0,0,0,6.32,4.73,73.41,73.41,0,0,0,6.88,4.06,34,34,0,0,0,7.32,2.87,14,14,0,0,0,7.51,0A10.6,10.6,0,0,0,603.84,157.65Zm1.17.67a12.27,12.27,0,0,1-6.28,5.86,16.22,16.22,0,0,1-8.66.61,37.52,37.52,0,0,1-8.14-2.44,71.08,71.08,0,0,1-7.55-3.67,54.32,54.32,0,0,1-7.11-4.62,27.76,27.76,0,0,1-6.18-6.37,15.73,15.73,0,0,1-2.08-4.3,12.51,12.51,0,0,1-.49-5,14.55,14.55,0,0,1,1.36-4.75,17.8,17.8,0,0,1,2.64-3.93,19.39,19.39,0,0,1,7.64-5.25,24,24,0,0,1,8.89-1.52,29.78,29.78,0,0,1,16.45,5.46,28.77,28.77,0,0,1,10.6,13.33,21,21,0,0,1,1.39,8.45A17.2,17.2,0,0,1,605,158.32Z"/></g></svg>