<svg id="ART-fills" xmlns="http://www.w3.org/2000/svg" viewBox="0 0 640 320"><defs><style>.cls-1{fill:#00007f;}.cls-2{fill:#ddd6ce;}.cls-3{fill:#fff6e9;}.cls-4{fill:#fcfcfc;}.cls-5{fill:#0d0a09;}.cls-6{fill:#ded7cf;}</style></defs><path class="cls-1" d="M361.06,162.7s1.48.73,3.75,2.07a146.91,146.91,0,0,1,20.25-9.46c2.27-2.95,4.16-2.43,8-3.88-.27-.67,1.06-2,0-5.63-1.5-5.23-4.12-5.87-8.7-6.68-3.51-.62-7.66-.07-12.22,2.44C354,151.51,361.06,162.7,361.06,162.7Z"/><path class="cls-2" d="M392,190.26c-.47,1.88-2.62,3-5.14,3.06,3.05,4,8.8,2.9,10-2.52,2.49-10.93,4.06-20.93-2.69-36.46-2.17-5-6.19-8.52-10.77-9.34a16.68,16.68,0,0,0-9,.8C392.76,149.86,394.9,174.85,392,190.26Z"/><path class="cls-3" d="M371.25,147.44c-12.55,8.05-7.61,16.32-7.61,16.32s15.81,14.31,22.39,28.13a8,8,0,0,0,.87,1.43c2.52,0,4.67-1.18,5.14-3.06,2.86-15.41.72-40.4-17.55-44.46A17.63,17.63,0,0,0,371.25,147.44Z"/><path class="cls-4" d="M391.48,191.66c-1,.26.36-5.51-.28-8s.76-8,1.77-8.31,2.15,4.82,1.91,7.36S392.5,191.39,391.48,191.66Z"/><path class="cls-5" d="M395.7,190.52a90,90,0,0,0,2-10.26,43,43,0,0,0,0-10.33,44.29,44.29,0,0,0-2.58-10c-.33-.8-.62-1.62-1-2.41s-.78-1.55-1.22-2.31a13.82,13.82,0,0,0-3.17-3.6,24.2,24.2,0,0,0-3.63-2.43,13.8,13.8,0,0,0-1.85-.83,13.12,13.12,0,0,0-2-.51,14.41,14.41,0,0,0-8.83.84,10.24,10.24,0,0,0-1,.52l-1.07.63a22.06,22.06,0,0,0-2,1.44,14.56,14.56,0,0,0-3.19,3.48,9.21,9.21,0,0,0-1.52,4.1,8.34,8.34,0,0,0,.07,2.12,6.88,6.88,0,0,0,.24,1c.05.17.11.32.17.48a3.44,3.44,0,0,0,.16.35l-.36-.43a123.31,123.31,0,0,1,8.92,9.4,117.86,117.86,0,0,1,8,10.19c.63.89,1.23,1.79,1.8,2.72s1.15,1.84,1.68,2.8,1,1.92,1.53,2.9l.69,1.36a6.68,6.68,0,0,0,.74,1.06,4.16,4.16,0,0,0,4.35,1.41A4.77,4.77,0,0,0,395.7,190.52Zm2.46.56a8.54,8.54,0,0,1-1.56,3.4,6.71,6.71,0,0,1-3.2,2.24,6.5,6.5,0,0,1-3.95,0,7.42,7.42,0,0,1-3.25-2.1,9.44,9.44,0,0,1-1.11-1.53l-.78-1.48c-.48-.92-.95-1.83-1.51-2.71s-1.08-1.78-1.67-2.64-1.17-1.73-1.79-2.57a108.77,108.77,0,0,0-8-9.7c-2.86-3.08-5.91-6-9-8.84l-.23-.21-.13-.22a7,7,0,0,1-.41-.85c-.1-.25-.2-.51-.28-.76a9.47,9.47,0,0,1-.38-1.55,11.62,11.62,0,0,1-.1-3.17,13.53,13.53,0,0,1,2.14-5.73,22,22,0,0,1,3.86-4.38l1.08-.93,1.11-.87,1.14-.84c.42-.26.81-.56,1.24-.81A18.63,18.63,0,0,1,383.07,142a13.6,13.6,0,0,1,3.16.66,14,14,0,0,1,2.95,1.4,13.33,13.33,0,0,1,2.46,2,15.15,15.15,0,0,1,1.86,2.48,22.71,22.71,0,0,1,2.24,5.46c.23.88.5,1.74.8,2.59l.83,2.57a64.11,64.11,0,0,1,2.35,10.55,51.41,51.41,0,0,1,.2,10.81A88.26,88.26,0,0,1,398.16,191.08Z"/><path class="cls-6" d="M374,152.82a17,17,0,0,1,3.17-1.17,22.16,22.16,0,0,1,3.33-.61c1.13-.11,2.25,0,3.37,0s2.23.1,3.33.15a.49.49,0,0,1,.47.51.5.5,0,0,1-.51.46h0c-1.11-.09-2.21-.14-3.3-.16a32.06,32.06,0,0,0-3.26.15,25.05,25.05,0,0,0-6.41,1.11.24.24,0,0,1-.3-.16A.24.24,0,0,1,374,152.82Z"/><path class="cls-6" d="M379.89,159.24a17.31,17.31,0,0,1,5.79-1.58c1-.1,2,0,3,0s2,.09,3,.13a.44.44,0,0,1,0,.87h0q-1.47-.12-2.94-.15c-1,0-1.94.09-2.91.14a22.63,22.63,0,0,0-5.7,1,.21.21,0,0,1-.27-.13A.23.23,0,0,1,379.89,159.24Z"/><path class="cls-6" d="M378.18,175.23a16.71,16.71,0,0,1,3.59-2.38,19.82,19.82,0,0,1,2-.72c.69-.22,1.38-.4,2.07-.58a.3.3,0,0,1,.36.22.29.29,0,0,1-.21.37h0c-.69.18-1.37.36-2,.57a16.36,16.36,0,0,0-1.94.78,21.19,21.19,0,0,0-3.7,2,.14.14,0,0,1-.2,0A.15.15,0,0,1,378.18,175.23Z"/><path class="cls-1" d="M278.94,162.7s-1.48.73-3.75,2.07a146.91,146.91,0,0,0-20.25-9.46c-2.27-2.95-4.16-2.43-8-3.88.27-.67-1.06-2,0-5.63,1.5-5.23,4.12-5.87,8.7-6.68,3.51-.62,7.66-.07,12.22,2.44C286,151.51,278.94,162.7,278.94,162.7Z"/><path class="cls-2" d="M248,190.26c.47,1.88,2.62,3,5.14,3.06-3,4-8.8,2.9-10-2.52-2.49-10.93-4.06-20.93,2.69-36.46,2.17-5,6.19-8.52,10.77-9.34a16.68,16.68,0,0,1,9,.8C247.24,149.86,245.1,174.85,248,190.26Z"/><path class="cls-3" d="M268.75,147.44c12.55,8.05,7.61,16.32,7.61,16.32S260.55,178.07,254,191.89a8,8,0,0,1-.87,1.43c-2.52,0-4.67-1.18-5.14-3.06-2.86-15.41-.72-40.4,17.55-44.46A17.63,17.63,0,0,1,268.75,147.44Z"/><path class="cls-4" d="M248.52,191.66c1,.26-.36-5.51.28-8s-.76-8-1.77-8.31-2.15,4.82-1.91,7.36S247.5,191.39,248.52,191.66Z"/><path class="cls-5" d="M241.84,191.08a88.26,88.26,0,0,1-1.76-10.59,51.41,51.41,0,0,1,.2-10.81,64.11,64.11,0,0,1,2.35-10.55l.83-2.57c.3-.85.57-1.71.8-2.59a22.71,22.71,0,0,1,2.24-5.46,15.15,15.15,0,0,1,1.86-2.48,13.33,13.33,0,0,1,2.46-2,14.17,14.17,0,0,1,2.94-1.4,13.79,13.79,0,0,1,3.17-.66,18.63,18.63,0,0,1,11.66,2.89c.43.25.82.55,1.24.81l1.13.84,1.12.87,1.08.93a22,22,0,0,1,3.86,4.38,13.38,13.38,0,0,1,2.13,5.73,11.24,11.24,0,0,1-.09,3.17,9.47,9.47,0,0,1-.38,1.55c-.08.25-.18.51-.28.76a7,7,0,0,1-.41.85l-.13.22-.23.21c-3.05,2.8-6.1,5.76-9,8.84a108.77,108.77,0,0,0-8,9.7c-.62.84-1.22,1.7-1.79,2.57s-1.14,1.74-1.67,2.64-1,1.79-1.51,2.71l-.78,1.48a9.44,9.44,0,0,1-1.11,1.53,7.42,7.42,0,0,1-3.25,2.1,6.5,6.5,0,0,1-4,0,6.71,6.71,0,0,1-3.2-2.24A8.54,8.54,0,0,1,241.84,191.08Zm2.46-.56a4.77,4.77,0,0,0,3.09,3.68,4.16,4.16,0,0,0,4.35-1.41,6.68,6.68,0,0,0,.74-1.06l.69-1.36c.49-1,1-2,1.53-2.9s1.09-1.9,1.68-2.8,1.17-1.83,1.8-2.72a117.86,117.86,0,0,1,8-10.19,123.31,123.31,0,0,1,8.92-9.4l-.36.43a3.44,3.44,0,0,0,.16-.35c.06-.16.12-.31.17-.48a6.88,6.88,0,0,0,.24-1,8.34,8.34,0,0,0,.07-2.12,9.21,9.21,0,0,0-1.52-4.1,14.56,14.56,0,0,0-3.19-3.48,22.06,22.06,0,0,0-2-1.44l-1.07-.63a10.24,10.24,0,0,0-1-.52,14.41,14.41,0,0,0-8.83-.84,13.12,13.12,0,0,0-2,.51,13.8,13.8,0,0,0-1.85.83,23.7,23.7,0,0,0-3.63,2.43,13.82,13.82,0,0,0-3.17,3.6c-.44.76-.84,1.53-1.22,2.31s-.65,1.61-1,2.41a44.29,44.29,0,0,0-2.58,10,43,43,0,0,0,0,10.33A90,90,0,0,0,244.3,190.52Z"/><path class="cls-6" d="M265.84,153.26a25.05,25.05,0,0,0-6.41-1.11,32.06,32.06,0,0,0-3.26-.15c-1.09,0-2.19.07-3.3.16a.5.5,0,0,1-.52-.45.49.49,0,0,1,.45-.52h0c1.1-.05,2.21-.13,3.33-.15s2.24-.11,3.37,0a22.16,22.16,0,0,1,3.33.61,17,17,0,0,1,3.17,1.17.25.25,0,0,1,.11.31A.25.25,0,0,1,265.84,153.26Z"/><path class="cls-6" d="M260,159.63a22.63,22.63,0,0,0-5.7-1c-1-.05-1.94-.18-2.91-.14s-2,.07-2.94.15a.43.43,0,0,1-.46-.4.42.42,0,0,1,.39-.46h0c1,0,2-.11,3-.13s2-.1,3,0a17.31,17.31,0,0,1,5.79,1.58.23.23,0,0,1,.1.29A.22.22,0,0,1,260,159.63Z"/><path class="cls-6" d="M261.64,175.46a21.19,21.19,0,0,0-3.7-2,16.36,16.36,0,0,0-1.94-.78c-.66-.21-1.34-.39-2-.57a.31.31,0,0,1-.22-.37.31.31,0,0,1,.37-.22h0c.69.18,1.38.36,2.07.58a19.82,19.82,0,0,1,2,.72,16.71,16.71,0,0,1,3.59,2.38.15.15,0,0,1,0,.21A.15.15,0,0,1,261.64,175.46Z"/></svg>