<svg id="ART-fills" xmlns="http://www.w3.org/2000/svg" viewBox="0 0 640 160"><defs><style>.cls-1{fill:#00007f;}.cls-2{fill:#0d0a09;}</style></defs><path class="cls-1" d="M210.15,46.66a93.8,93.8,0,0,0-18.4,7.1,69.06,69.06,0,0,0-15.81,11,47.44,47.44,0,0,0-6.23,7A46.08,46.08,0,0,0,165,79.71l-.5,1L164,81.82c-.27.72-.59,1.42-.84,2.15-.45,1.48-1,2.92-1.29,4.44a58.73,58.73,0,0,0-1.56,9.2l0,.2a4.61,4.61,0,0,1-9.18-.85,53.73,53.73,0,0,1,5.7-21.25,48.84,48.84,0,0,1,6.08-9.26,54.06,54.06,0,0,1,7.78-7.72,66.46,66.46,0,0,1,8.92-6.07,72.11,72.11,0,0,1,9.64-4.51,87.66,87.66,0,0,1,10-3.14,69.92,69.92,0,0,1,10.39-1.7,1.7,1.7,0,0,1,.56,3.33Z"/><path class="cls-1" d="M430.32,43.31A69.92,69.92,0,0,1,440.71,45a87.66,87.66,0,0,1,10,3.14,72.11,72.11,0,0,1,9.64,4.51,66.46,66.46,0,0,1,8.92,6.07,54.06,54.06,0,0,1,7.78,7.72,48.84,48.84,0,0,1,6.08,9.26A53.73,53.73,0,0,1,488.87,97a4.61,4.61,0,0,1-9.18.86l0-.21a58.73,58.73,0,0,0-1.56-9.2c-.31-1.52-.84-3-1.29-4.44-.25-.73-.57-1.43-.84-2.15l-.43-1.07-.5-1a46.08,46.08,0,0,0-4.75-7.94,47.44,47.44,0,0,0-6.23-7,69.06,69.06,0,0,0-15.81-11,93.8,93.8,0,0,0-18.4-7.1l-.08,0a1.69,1.69,0,0,1,.55-3.33Z"/><path class="cls-2" d="M197.88,47.89c-.61.25-1.37.53-2.06.83s-1.42.58-2.12.89c-1.4.62-2.79,1.24-4.14,1.93A80.1,80.1,0,0,0,181.69,56a59.22,59.22,0,0,0-13.28,11.29,51.88,51.88,0,0,0-5,7A54.17,54.17,0,0,0,159.77,82a80,80,0,0,0-3.92,17.6v0a2.58,2.58,0,0,1-5.09.18,48.49,48.49,0,0,1,.44-20.4,47.94,47.94,0,0,1,3.69-9.89,48.58,48.58,0,0,1,5.92-8.82,51.4,51.4,0,0,1,16.55-12.62,58,58,0,0,1,9.57-3.61c1.65-.42,3.29-.83,5-1.1a36.73,36.73,0,0,1,5.15-.56,2.56,2.56,0,0,1,1.08,4.93Z"/><path class="cls-2" d="M443,42.86a36.73,36.73,0,0,1,5.15.56c1.67.27,3.31.68,5,1.1a58,58,0,0,1,9.57,3.61,51.4,51.4,0,0,1,16.55,12.62,48.58,48.58,0,0,1,5.92,8.82,47.94,47.94,0,0,1,3.69,9.89,48.49,48.49,0,0,1,.44,20.4,2.58,2.58,0,0,1-5.09-.18v0A80,80,0,0,0,480.23,82a54.17,54.17,0,0,0-3.68-7.81,51.88,51.88,0,0,0-5-7A59.22,59.22,0,0,0,458.31,56a80.1,80.1,0,0,0-7.87-4.42c-1.35-.69-2.74-1.31-4.14-1.93-.7-.31-1.41-.61-2.12-.89s-1.45-.58-2.06-.83l-.24-.1A2.56,2.56,0,0,1,443,42.86Z"/></svg>