<svg id="ART-fills" xmlns="http://www.w3.org/2000/svg" viewBox="0 0 640 160"><defs><style>.cls-1{fill:aqua;}.cls-2{fill:#00007f;}.cls-3{fill:#0d0a09;}</style></defs><path class="cls-1" d="M201,40.48a.71.71,0,0,0-.12-.18s-.13-.11-.08-.07l.13.13.25.24.54.51,1.11,1c.74.66,1.51,1.28,2.27,1.92,1.53,1.24,3.08,2.47,4.67,3.65,3.16,2.38,6.44,4.61,9.75,6.77,1.68,1.06,3.36,2.1,5.06,3.12s3.41,2,5.18,2.89S233.26,62.22,235,63c.89.36,1.77.71,2.62,1a5.54,5.54,0,0,0,.61.16,1.68,1.68,0,0,0,.53.1c.14,0,.36,0,.27,0l0,0v0l-.1,0a2.77,2.77,0,0,0-1.25,0,4.5,4.5,0,0,1,1.67,8.85,7,7,0,0,1-2-.1.72.72,0,0,1-.28-.08l-.19-.07-.37-.15a5.64,5.64,0,0,1-1.11-.6,7.57,7.57,0,0,1-.81-.54c-.24-.18-.5-.36-.71-.53-.88-.71-1.7-1.38-2.47-2.07-1.59-1.36-3.09-2.72-4.61-4s-3-2.64-4.52-4l-4.55-3.89L213.14,53c-1.55-1.23-3.07-2.51-4.65-3.71s-3.15-2.41-4.74-3.6L201.33,44l-1.23-.86-.62-.42-.32-.22-.16-.11a1.48,1.48,0,0,1-.22-.19,3.31,3.31,0,0,1-.25-.3,1.41,1.41,0,1,1,2.45-1.4Z"/><path class="cls-2" d="M204.31,34.84s30.45,23.2,47.54,23,15.61-1,17.51,3-.44,8.33-.44,8.33S248.53,66.69,239.07,62s-8.62-4.27-9.47-4.72-23.73-15.77-27.2-18S204.31,34.84,204.31,34.84Z"/><path class="cls-3" d="M265.34,76.83c-1.58-.68-3-1.33-4.45-2s-2.88-1.33-4.31-2c-2.86-1.33-5.68-2.73-8.5-4.1q-2.09-1.09-4.19-2.13l-4.16-2.18c-1.39-.71-2.75-1.48-4.12-2.22l-2.05-1.11-2-1.18c-5.45-3-10.72-6.33-15.93-9.74-1.29-.86-2.57-1.74-3.88-2.59l-3.8-2.71L206,43.53l-1.86-1.42q-1.86-1.41-3.77-2.79A1.41,1.41,0,0,1,202,37l.13.1,0,0q1.7,1.55,3.44,3l1.74,1.5,1.83,1.4,3.69,2.75c1.27.86,2.56,1.69,3.84,2.54.65.41,1.28.85,1.93,1.25l2,1.16c1.34.77,2.64,1.57,4,2.3,2.71,1.43,5.45,2.84,8.23,4.12l2.09,1,2.13.9c1.42.58,2.81,1.23,4.25,1.75l4.31,1.61c1.45.51,2.9,1,4.36,1.46s2.92.91,4.39,1.33,3,.81,4.43,1.17a83.4,83.4,0,0,0,8.87,1.72,4.55,4.55,0,1,1-1.11,9,4.31,4.31,0,0,1-1.23-.33Z"/><path class="cls-3" d="M199.28,46.59A21.41,21.41,0,0,0,202.19,44a30.14,30.14,0,0,0,2.49-3,23.2,23.2,0,0,0,2-3.33,11.57,11.57,0,0,0,1.2-3.63,1,1,0,0,1,2,.25,1.11,1.11,0,0,1-.13.4l0,0c-.74,1.24-1.5,2.34-2.26,3.44s-1.54,2.17-2.31,3.24c-1.53,2.17-3.09,4.27-4.47,6.62a1,1,0,0,1-1.4.37,1,1,0,0,1-.36-1.4A1,1,0,0,1,199.28,46.59Z"/><path class="cls-3" d="M206.78,50.69a20.83,20.83,0,0,0,2.91-2.64,28.93,28.93,0,0,0,2.5-3,23.14,23.14,0,0,0,2-3.33,11.32,11.32,0,0,0,1.2-3.63,1,1,0,0,1,2,.25,1.12,1.12,0,0,1-.14.4v0c-.75,1.24-1.51,2.34-2.27,3.44s-1.53,2.17-2.31,3.24c-1.53,2.17-3.08,4.27-4.47,6.62a1,1,0,1,1-1.76-1A1,1,0,0,1,206.78,50.69Z"/><path class="cls-3" d="M212.12,59.21a24.17,24.17,0,0,0,3.15-2.92A35.86,35.86,0,0,0,218,53a26.09,26.09,0,0,0,2.23-3.64,13.18,13.18,0,0,0,1.36-3.94,1,1,0,1,1,2,.28,1.15,1.15,0,0,1-.12.37h0c-.79,1.36-1.61,2.56-2.43,3.77s-1.66,2.37-2.51,3.54c-1.67,2.36-3.37,4.65-4.92,7.18a1,1,0,1,1-1.74-1.06A1,1,0,0,1,212.12,59.21Z"/><path class="cls-3" d="M222.12,63.77a40.29,40.29,0,0,0,3.38-4.6,54,54,0,0,0,2.83-5A40.87,40.87,0,0,0,230.55,49a19.49,19.49,0,0,0,1.14-5.47,1,1,0,1,1,2,.07.93.93,0,0,1-.05.29c-.65,1.93-1.43,3.7-2.22,5.46s-1.65,3.48-2.51,5.19c-1.7,3.45-3.5,6.8-5.14,10.35a1,1,0,0,1-1.34.5A1,1,0,0,1,222,64a1.88,1.88,0,0,1,.16-.23Z"/><path class="cls-3" d="M226.65,82.31A54.81,54.81,0,0,0,231.94,76a75.76,75.76,0,0,0,4.54-6.84,58.25,58.25,0,0,0,3.68-7.32,28.38,28.38,0,0,0,2.15-7.74,1.45,1.45,0,1,1,2.79.7,81.73,81.73,0,0,1-3.7,7.63c-1.31,2.45-2.69,4.84-4.09,7.21s-2.82,4.74-4.21,7.13S230.3,81.56,229,84a1.45,1.45,0,1,1-2.55-1.38,1,1,0,0,1,.24-.33Z"/></svg>