<svg id="ART-fills" xmlns="http://www.w3.org/2000/svg" viewBox="0 0 640 320"><defs><style>.cls-1{fill:maroon;}.cls-2{fill:#0d0a09;}.cls-3{fill:#ff0;}</style></defs><path class="cls-1" d="M256.83,148.24c.82,4.56,6.11,9.22,9.24,9.14s5-3.85,4.19-8.41-3.6-5.84-6.73-5.76S256,143.67,256.83,148.24Z"/><path class="cls-2" d="M256.93,148.22a6.86,6.86,0,0,0,1.05,2.49,11.87,11.87,0,0,0,1.78,2,32.43,32.43,0,0,0,4.09,3.18,5.72,5.72,0,0,0,2.23.92,3.05,3.05,0,0,0,2.28-.75,5.76,5.76,0,0,0,1.53-4.82,12.1,12.1,0,0,0-.51-2.56,8.37,8.37,0,0,0-1-2.25,4.86,4.86,0,0,0-3.83-2.14,21.82,21.82,0,0,0-2.58-.05,15.22,15.22,0,0,0-2.55.2,3.2,3.2,0,0,0-2.08,1.2A3.62,3.62,0,0,0,256.93,148.22Zm-.2,0a5.51,5.51,0,0,1,.12-2.84,4.45,4.45,0,0,1,2.11-2.19,8.58,8.58,0,0,1,2.84-.88,15.63,15.63,0,0,1,2.94-.16,7.27,7.27,0,0,1,3.05.94,6.29,6.29,0,0,1,2.21,2.35,9.86,9.86,0,0,1,1,5.81,9.15,9.15,0,0,1-2.18,5.27,4.72,4.72,0,0,1-2.69,1.38,5.91,5.91,0,0,1-3-.54,9.6,9.6,0,0,1-2.47-1.62,11.37,11.37,0,0,1-1.85-2.24A17.26,17.26,0,0,1,256.73,148.25Z"/><path class="cls-3" d="M260.55,150c.41,2.18,3.49,4.34,5.36,4.25s3-1.94,2.64-4.13-2-2.76-3.92-2.66S260.14,147.79,260.55,150Z"/></svg>