<svg xmlns="http://www.w3.org/2000/svg" viewBox="0 0 640 320"><defs><style>.cls-1{fill:blue;}.cls-2{fill:aqua;}.cls-3{fill:#00007f;}.cls-4{fill:red;}.cls-5{fill:maroon;}.cls-6{fill:#fcfcfc;}.cls-7{fill:#0d0a09;}</style></defs><g id="ART-fills"><path class="cls-1" d="M166.57,150.29c-2.83,13.21-1,28.46-30.82,41.65,16.73,12.55,39.9,23.1,38.24,46.52l50.54-59.66C182.86,179.23,171.28,128.31,166.57,150.29Z"/><path class="cls-2" d="M135.75,191.94c-2.05.91-4.24,1.8-6.6,2.69-21.37,8,44.08,8.46,38.42,51.41l6.42-7.58C175.65,215,152.48,204.49,135.75,191.94Z"/><path class="cls-2" d="M135.23,193.78c-9.29-7.74-5.39-21.47.55-32.85-11.6,14.24-17,32.14-10.81,37.17,0,0,9.53,7.32,23.7-.83,1.65-1,3.4-2,5.17-3.25C147.2,195.27,139.9,198.46,135.23,193.78Z"/><path class="cls-1" d="M171.65,141.26c-16-4.29-30.41,13.25-34.85,18.45l-1,1.22c-5.94,11.38-9.84,25.11-.55,32.85,4.67,4.68,12,1.49,18.61.24A52.29,52.29,0,0,0,170,176.9C180.9,157.62,171.65,141.26,171.65,141.26Z"/><path class="cls-3" d="M172.76,165c-10.22-5-17.81,2.57-20.17,5.39-3.08,3.68-5.2,10.9.14,18.42,0,0,8.06-4.91,13.15-11.57C171.65,169.64,172.76,165,172.76,165Z"/><path class="cls-4" d="M151,172.42c-.25.28-.48.54-.66.76-3.08,3.69-5.2,10.91.13,18.42,0,0,1.35-.82,3.28-2.23C148.86,185.57,150,178.11,151,172.42Z"/><path class="cls-5" d="M151,172.42c-1,5.69-2.09,13.15,2.75,17a50.23,50.23,0,0,0,9.87-9.33c5.77-7.56,6.89-12.25,6.89-12.25C161.05,163.19,153.87,169.23,151,172.42Z"/><path class="cls-1" d="M473.2,150.29c2.83,13.21,1,28.46,30.82,41.65-16.73,12.55-39.89,23.1-38.24,46.52L415.24,178.8C456.91,179.23,468.5,128.31,473.2,150.29Z"/><path class="cls-2" d="M504,191.94c2.05.91,4.24,1.8,6.6,2.69,21.37,8-44.08,8.46-38.41,51.41l-6.43-7.58C464.13,215,487.29,204.49,504,191.94Z"/><path class="cls-2" d="M504.54,193.78c9.29-7.74,5.39-21.47-.55-32.85,11.6,14.24,17,32.14,10.82,37.17,0,0-9.53,7.32-23.7-.83-1.66-1-3.41-2-5.18-3.25C492.58,195.27,499.87,198.46,504.54,193.78Z"/><path class="cls-1" d="M468.13,141.26c16-4.29,30.41,13.25,34.84,18.45.35.4.68.81,1,1.22,5.94,11.38,9.84,25.11.55,32.85-4.67,4.68-12,1.49-18.61.24a52.29,52.29,0,0,1-16.2-17.12C458.87,157.62,468.13,141.26,468.13,141.26Z"/><path class="cls-3" d="M467,165c10.22-5,17.82,2.57,20.17,5.39,3.08,3.68,5.2,10.9-.14,18.42,0,0-8.06-4.91-13.14-11.57C468.12,169.64,467,165,467,165Z"/><path class="cls-4" d="M488.82,172.42l.67.76c3.07,3.69,5.2,10.91-.14,18.42,0,0-1.35-.82-3.27-2.23C490.91,185.57,489.79,178.11,488.82,172.42Z"/><path class="cls-5" d="M488.82,172.42c1,5.69,2.09,13.15-2.74,17A50.26,50.26,0,0,1,476.2,180c-5.77-7.56-6.89-12.25-6.89-12.25C478.72,163.19,485.9,169.23,488.82,172.42Z"/><path class="cls-6" d="M472,144.55c.75-.12-.38,5.42,0,7.92s-.73,7.88-1.48,8-1.47-5.06-1.24-7.55S471.21,144.68,472,144.55Z"/><path class="cls-6" d="M168,144.55c-.75-.12.37,5.42,0,7.92s.73,7.88,1.47,8,1.48-5.06,1.25-7.55S168.79,144.68,168,144.55Z"/><path class="cls-6" d="M483.47,205c1.15.57-5.82,7.06-7.72,10.9S467,226,465.9,225.43s2.94-8.39,5.69-11.58S482.32,204.44,483.47,205Z"/><path class="cls-6" d="M156.53,205c-1.15.57,5.82,7.06,7.71,10.9S173,226,174.1,225.43s-2.94-8.39-5.7-11.58S157.68,204.44,156.53,205Z"/></g><g id="ART-strokes"><path class="cls-7" d="M129.11,198c-.41-.24-.81-.48-1.2-.73a1.79,1.79,0,0,1-.34-.3,1.67,1.67,0,0,1,.22.93,1.77,1.77,0,0,1-.28.85A12.5,12.5,0,0,1,129.11,198Z"/><path class="cls-7" d="M169.1,140.78h1.47A6.57,6.57,0,0,0,169.1,140.78Z"/><path class="cls-7" d="M224.53,178.4a53,53,0,0,1-18.32-5.78c-9.41-5-16.51-12.67-23.3-21a91.24,91.24,0,0,0-6.81-7.79,9,9,0,0,0-4.45-2.92c1,1.87,2.37,3.76,1.7,5.63a30.85,30.85,0,0,1,2.64,9.66l.66.74c6,6.86,12.94,13.32,21.14,17.58a43.48,43.48,0,0,0,26.75,4.72Z"/><path class="cls-7" d="M121.92,197.42c-.17,4.9,7.32,6.6,10.68,8.22,18.79,7,36.7,17.47,34.57,40.35l.79.11a32.5,32.5,0,0,0-5.74-25.86c-5.47-7.39-13.44-12.46-21.49-16.53-1.71-.92-3.52-1.75-5.33-2.59a52.65,52.65,0,0,1-13.42-4C122,197.23,121.93,197.32,121.92,197.42Z"/><path class="cls-7" d="M171.4,141.57c-.42,0-.81-.1-1.2-.17s-.89-.1-1.32-.15a20,20,0,0,0-2.68,0,21.23,21.23,0,0,0-5.23,1,32,32,0,0,0-9.39,5c-5.75,4.29-10.43,9.89-14.79,15.65a65.39,65.39,0,0,0-9.86,18.76,28.39,28.39,0,0,0-1.61,9.81,7,7,0,0,0,1,3.64,2.3,2.3,0,0,0,.44.48l.09.07c-.11-.08,0,0,.08,0l.43.25a14.11,14.11,0,0,0,2,.9,17.65,17.65,0,0,0,9.13.48,25.84,25.84,0,0,0,8.81-3.86A68.57,68.57,0,0,0,163,180.21a42.55,42.55,0,0,0,9.15-17.87,39.35,39.35,0,0,0,.94-10.32,39.81,39.81,0,0,0-.53-5.3c-.14-.89-.32-1.77-.53-2.65q-.15-.66-.33-1.32l-.19-.65-.1-.33-.05-.16S171.25,141.45,171.4,141.57Zm.49-.63a3.46,3.46,0,0,1,.22.27l.1.15.21.29.4.59c.25.4.5.81.73,1.23.46.83.89,1.68,1.28,2.56a37.19,37.19,0,0,1,1.89,5.44,36.49,36.49,0,0,1,1,11.67,39.73,39.73,0,0,1-2.64,11.6,44.79,44.79,0,0,1-5.81,10.43,53.65,53.65,0,0,1-17.9,15.07,33.56,33.56,0,0,1-11.64,4,24.3,24.3,0,0,1-12.58-1.47,20.68,20.68,0,0,1-2.94-1.47c-.24-.14-.48-.3-.73-.47l-.49-.36-.43-.39a9.16,9.16,0,0,1-1.33-1.62,12.91,12.91,0,0,1-1.8-6.87,33.85,33.85,0,0,1,2.45-11.75,69.86,69.86,0,0,1,11.74-19.5c4.89-5.61,10.15-11.09,16.53-15.19a34.14,34.14,0,0,1,10.35-4.61,23,23,0,0,1,5.66-.61,20.38,20.38,0,0,1,2.82.25c.47.1.91.16,1.41.28S171.41,140.79,171.89,140.94Z"/><path class="cls-7" d="M415.24,178.4a53,53,0,0,0,18.32-5.78c9.41-5,16.51-12.67,23.31-21a89.39,89.39,0,0,1,6.8-7.79,9,9,0,0,1,4.46-2.92c-1,1.87-2.38,3.76-1.71,5.63a31.4,31.4,0,0,0-2.64,9.66l-.65.74c-6,6.86-12.95,13.32-21.14,17.58a43.5,43.5,0,0,1-26.75,4.72Z"/><path class="cls-7" d="M517.85,197.42c.18,4.9-7.32,6.6-10.68,8.22-18.79,7-36.7,17.47-34.57,40.35l-.79.11a32.5,32.5,0,0,1,5.75-25.86C483,212.85,491,207.78,499,203.71c1.71-.92,3.53-1.75,5.33-2.59a52.72,52.72,0,0,0,13.43-4C517.81,197.23,517.84,197.32,517.85,197.42Z"/><path class="cls-7" d="M467.88,140.94c.48-.15,1-.3,1.49-.43s.93-.18,1.4-.28a20.52,20.52,0,0,1,2.83-.25,22.92,22.92,0,0,1,5.65.61,34,34,0,0,1,10.35,4.61c6.38,4.1,11.64,9.58,16.54,15.19a70.06,70.06,0,0,1,11.73,19.5,33.63,33.63,0,0,1,2.45,11.75,12.82,12.82,0,0,1-1.8,6.87,9.16,9.16,0,0,1-1.33,1.62l-.43.39-.49.36c-.25.17-.49.33-.73.47a20.06,20.06,0,0,1-2.93,1.47A24.32,24.32,0,0,1,500,204.29a33.56,33.56,0,0,1-11.64-4,53.68,53.68,0,0,1-17.91-15.07,45.16,45.16,0,0,1-5.81-10.43,40.06,40.06,0,0,1-2.64-11.6,36.77,36.77,0,0,1,1-11.67,37.19,37.19,0,0,1,1.89-5.44c.39-.88.82-1.73,1.28-2.56.23-.42.48-.83.74-1.23l.39-.59.21-.29.11-.15A2.1,2.1,0,0,1,467.88,140.94Zm.49.63c.15-.12.05,0,.05,0l-.05.16-.1.33-.19.65q-.18.66-.33,1.32c-.21.88-.39,1.76-.53,2.65a41.54,41.54,0,0,0-.53,5.3,38.93,38.93,0,0,0,.95,10.32,42.42,42.42,0,0,0,9.14,17.87,68.79,68.79,0,0,0,15.6,13.25,25.84,25.84,0,0,0,8.81,3.86,17.69,17.69,0,0,0,9.14-.48,14.48,14.48,0,0,0,2-.9l.44-.25s.18-.12.07,0l.09-.07a2.3,2.3,0,0,0,.44-.48,6.87,6.87,0,0,0,1-3.64,28.39,28.39,0,0,0-1.61-9.81A65.61,65.61,0,0,0,503,162.89c-4.37-5.76-9.05-11.36-14.8-15.65a32,32,0,0,0-9.39-5,21.14,21.14,0,0,0-5.23-1,19.83,19.83,0,0,0-2.67,0c-.44.05-.92.09-1.32.15S468.79,141.52,468.37,141.57Z"/></g></svg>