<svg xmlns="http://www.w3.org/2000/svg" viewBox="0 0 640 320"><defs><style>.cls-1{fill:aqua;}.cls-2{fill:blue;}.cls-3{fill:#00007f;}.cls-4{fill:red;}.cls-5{fill:maroon;}.cls-6{fill:#fcfcfc;}.cls-7{fill:#0d0a09;}</style></defs><g id="ART-fills"><path class="cls-1" d="M133.89,138.83c-9.14-1-16.57-.15-16.9,6.29-1.82,35.73,33,85.31,35.45,123l9.81-9.65a106.06,106.06,0,0,0-5.85-23C147.88,205.18,121.48,170.43,133.89,138.83Z"/><path class="cls-2" d="M163.14,143.88c-7.06-.62-19.19-3.95-29.25-5-12.41,31.6,14,66.35,22.51,96.62a106.88,106.88,0,0,1,6.09,23l94.95-93.63C240.64,148,220.78,148.87,163.14,143.88Z"/><path class="cls-3" d="M180.68,247c0-34.83-38-61.62-29.87-72.82,8.87-12.27,75.29-13.22,106.63-1.29"/><path class="cls-4" d="M163.89,171.57c-5.4,1-9.45,2.49-11.49,4.53-9.77,9.77,17.89,46.61,17.89,81.44l11.27-10.94c-.93-20-9.42-38.07-17.16-56.15C162.43,185.87,161.32,177.41,163.89,171.57Z"/><path class="cls-5" d="M163.89,171.57c-2.57,5.84-1.46,14.3.51,18.88,7.74,18.08,16.23,36.16,17.16,56.15l67.76-65.76C224.52,171.39,184.4,167.81,163.89,171.57Z"/><path class="cls-1" d="M506.11,138.83c9.14-1,16.57-.15,16.9,6.29,1.82,35.73-32.95,85.31-35.45,123l-9.81-9.65a106.06,106.06,0,0,1,5.85-23C492.12,205.18,518.52,170.43,506.11,138.83Z"/><path class="cls-2" d="M476.85,143.88c7.07-.62,19.2-3.95,29.26-5,12.41,31.6-14,66.35-22.51,96.62-2.87,7.66-3.38,17.24-7.3,24.27l-93.74-94.93C399.36,148,419.22,148.87,476.85,143.88Z"/><path class="cls-3" d="M459.32,247c0-34.83,38-61.62,29.86-72.82-8.86-12.27-75.28-13.22-106.62-1.29"/><path class="cls-4" d="M476.11,171.57c5.4,1,9.45,2.49,11.49,4.53,9.77,9.77-17.89,46.61-17.89,81.44L458.44,246.6c.93-20,9.42-38.07,17.16-56.15C477.57,185.87,478.67,177.41,476.11,171.57Z"/><path class="cls-5" d="M476.11,171.57c2.56,5.84,1.46,14.3-.51,18.88-7.74,18.08-16.23,36.16-17.16,56.15l-67.76-65.76C415.48,171.39,455.6,167.81,476.11,171.57Z"/><path class="cls-6" d="M140.15,195.16a67.4,67.4,0,0,1-6-10.11,95,95,0,0,1-4.48-10.89,75.73,75.73,0,0,1-3-11.54,37,37,0,0,1-.54-6.24,16.56,16.56,0,0,1,.4-3.5,9.15,9.15,0,0,1,.72-2,6.06,6.06,0,0,1,1.77-2.16l1.08-.81,1.34.29c3.3.7,6.71,1.36,10.07,2l10.13,2,10.18,1.87c3.4.63,6.82,1.14,10.31,1.72a67.52,67.52,0,0,1-10.51,1.2c-3.52.13-7,.06-10.55-.14s-7-.56-10.49-1-6.91-1-10.4-1.76l2.41-.52c.11-.07.06-.08,0,.07a2.86,2.86,0,0,0-.25.7,11,11,0,0,0-.27,2.24,34.5,34.5,0,0,0,.26,5.3c.4,3.65,1.12,7.36,1.91,11.07S136,180.31,137,184,139,191.42,140.15,195.16Z"/><path class="cls-6" d="M499.85,195.16c1.13-3.74,2.24-7.42,3.19-11.14s1.9-7.42,2.69-11.12,1.51-7.42,1.91-11.07a34.5,34.5,0,0,0,.26-5.3,11,11,0,0,0-.27-2.24,2.86,2.86,0,0,0-.25-.7c-.07-.15-.12-.14,0-.07l2.41.52c-3.49.72-6.92,1.29-10.41,1.76s-7,.82-10.48,1-7,.27-10.55.14a67.39,67.39,0,0,1-10.51-1.2c3.49-.58,6.91-1.09,10.31-1.72l10.18-1.87,10.13-2c3.36-.67,6.77-1.33,10.07-2l1.34-.29,1.08.81a6.06,6.06,0,0,1,1.77,2.16,9.15,9.15,0,0,1,.72,2,16.56,16.56,0,0,1,.4,3.5,38,38,0,0,1-.54,6.24,75.73,75.73,0,0,1-3,11.54,95,95,0,0,1-4.48,10.89A68.26,68.26,0,0,1,499.85,195.16Z"/></g><g id="ART-strokes"><path class="cls-7" d="M152,268.1a94,94,0,0,0-3.35-16.87c-1.56-5.53-3.45-11-5.51-16.33-4.12-10.74-8.88-21.25-13.44-31.89s-8.94-21.43-12.15-32.77a97.52,97.52,0,0,1-3.42-17.49q-.21-2.25-.27-4.53c0-.76,0-1.52,0-2.28,0-.41,0-.71,0-1.2a10.09,10.09,0,0,1,.21-1.52,8.55,8.55,0,0,1,1.27-3.06,8.81,8.81,0,0,1,2.31-2.36,13.53,13.53,0,0,1,5.22-2.1,36.24,36.24,0,0,1,9.51-.37c3,.21,6,.61,8.9,1.07,5.82.92,11.52,2.1,17.08,3,1.38.21,2.75.4,4.07.53l1,.08,1.08.06,2.15.13,8.64.58c5.75.4,11.51.85,17.27,1.42,11.51,1.16,23.08,2.39,34.63,5,2.88.69,5.75,1.47,8.59,2.44a60.14,60.14,0,0,1,8.26,3.56,43.46,43.46,0,0,1,13.64,11.31l-.57.57a49.94,49.94,0,0,0-14.65-8.37,58.38,58.38,0,0,0-8-2.28c-2.73-.61-5.51-1.05-8.31-1.41-5.6-.76-11.29-1.18-17-1.59s-11.47-.69-17.22-1.1-11.52-.82-17.28-1.36c-2.88-.25-5.76-.57-8.64-.86l-4.42-.5c-1.55-.21-3-.47-4.5-.76-5.82-1.15-11.38-2.55-17-3.59-2.78-.53-5.54-1-8.27-1.26a30.48,30.48,0,0,0-7.76,0,7.32,7.32,0,0,0-2.81,1,2.48,2.48,0,0,0-1.15,1.59,5,5,0,0,0-.1.62c0,.23,0,.65-.06,1,0,.68-.05,1.37-.06,2.05,0,1.37,0,2.75.09,4.13a92.3,92.3,0,0,0,2.65,16.58c2.7,11,6.7,21.83,10.81,32.59s8.36,21.56,12,32.57,6.79,22.33,7.31,34Z"/><path class="cls-7" d="M249.21,181.12a128.3,128.3,0,0,0-14.12-4c-4.77-1.11-9.58-2-14.42-2.76a228.79,228.79,0,0,0-29.19-2.56c-4.88-.13-9.76-.09-14.6.19a87.54,87.54,0,0,0-14.29,1.85,28.67,28.67,0,0,0-6.47,2.22,14.18,14.18,0,0,0-1.33.8c-.22.14-.35.31-.54.45s-.38.29-.47.46a5,5,0,0,0-1.07,2.31,17.06,17.06,0,0,0,.37,6.4,62.9,62.9,0,0,0,2,6.81c3.2,9.08,7.3,18.09,10.74,27.42S172,239.77,172.89,250c.1,1.26.14,2.56.21,3.81a1.25,1.25,0,0,0-.26-.67,1.29,1.29,0,0,0-.57-.43,1.34,1.34,0,0,0-.72,0,1.16,1.16,0,0,0-.6.34l5.41-5c3.65-3.3,7.26-6.63,11-9.88,7.34-6.55,14.76-13,22.41-19.24l.42.43C203.7,226.73,197,234,190.25,241.1c-3.35,3.6-6.8,7.11-10.2,10.66L174.89,257a4.46,4.46,0,0,1-4.73,1,4.4,4.4,0,0,1-2-1.54,4.59,4.59,0,0,1-.87-2.39c-.12-1.19-.21-2.35-.36-3.53-1.16-9.4-3.74-18.69-6.75-27.91-1.5-4.62-3.13-9.22-4.81-13.84s-3.4-9.25-4.88-14.05a64.78,64.78,0,0,1-1.89-7.41,21.17,21.17,0,0,1-.13-8.23,9.4,9.4,0,0,1,.34-1.11,5.39,5.39,0,0,1,.46-1.09c.19-.35.39-.71.6-1.06s.52-.63.78-.95a5.94,5.94,0,0,1,.87-.8,8.28,8.28,0,0,1,.9-.69,16.43,16.43,0,0,1,1.85-1,32.65,32.65,0,0,1,7.5-2.35,91.93,91.93,0,0,1,15-1.49c5-.13,9.93,0,14.87.26A233.55,233.55,0,0,1,221,172.52a155.75,155.75,0,0,1,28.44,8Z"/><path class="cls-7" d="M390.57,180.56a155.75,155.75,0,0,1,28.44-8,233.55,233.55,0,0,1,29.39-3.74c4.94-.28,9.9-.39,14.87-.26a91.93,91.93,0,0,1,15,1.49,32.65,32.65,0,0,1,7.5,2.35,16.43,16.43,0,0,1,1.85,1,9.37,9.37,0,0,1,.9.69,5.41,5.41,0,0,1,.86.8c.27.32.54.63.79.95s.41.71.6,1.06a5.39,5.39,0,0,1,.46,1.09,9.4,9.4,0,0,1,.34,1.11,21.17,21.17,0,0,1-.13,8.23,64.78,64.78,0,0,1-1.89,7.41c-1.48,4.8-3.2,9.43-4.88,14.05s-3.31,9.22-4.81,13.84c-3,9.22-5.59,18.51-6.75,27.91-.15,1.18-.24,2.34-.36,3.53a4.59,4.59,0,0,1-.87,2.39,4.4,4.4,0,0,1-2,1.54,4.46,4.46,0,0,1-4.73-1L460,251.76c-3.4-3.55-6.85-7.06-10.21-10.66C443,234,436.3,226.73,429.85,219.27l.42-.43c7.65,6.23,15.07,12.69,22.41,19.24,3.7,3.25,7.31,6.58,11,9.88l5.41,5a1.16,1.16,0,0,0-.6-.34,1.34,1.34,0,0,0-.72,0,1.29,1.29,0,0,0-.57.43,1.25,1.25,0,0,0-.26.67c.07-1.25.11-2.55.21-3.81.89-10.18,3.66-19.95,7.11-29.26s7.54-18.34,10.74-27.42a62.9,62.9,0,0,0,2-6.81,17.06,17.06,0,0,0,.37-6.4,5,5,0,0,0-1.07-2.31c-.09-.17-.31-.3-.47-.46s-.32-.31-.54-.45a14.18,14.18,0,0,0-1.33-.8,28.67,28.67,0,0,0-6.47-2.22A87.54,87.54,0,0,0,463.12,172c-4.84-.28-9.72-.32-14.6-.19a228.79,228.79,0,0,0-29.19,2.56c-4.84.74-9.65,1.65-14.42,2.76a128.3,128.3,0,0,0-14.12,4Z"/><path class="cls-7" d="M487.16,268c.52-11.65,3.68-23,7.31-34s7.95-21.78,12-32.57,8.11-21.57,10.81-32.59A92.3,92.3,0,0,0,520,152.32c.08-1.38.11-2.76.09-4.13,0-.68,0-1.37-.06-2.05,0-.31,0-.73-.06-1a5,5,0,0,0-.1-.62,2.48,2.48,0,0,0-1.15-1.59,7.32,7.32,0,0,0-2.81-1,30.48,30.48,0,0,0-7.76,0c-2.73.27-5.5.73-8.27,1.26-5.57,1-11.13,2.44-16.95,3.59-1.47.29-2.95.55-4.5.76l-4.42.5c-2.88.29-5.76.61-8.64.86q-8.64.81-17.28,1.36c-5.75.41-11.5.67-17.22,1.1s-11.4.83-17,1.59c-2.8.36-5.58.8-8.31,1.41a58.38,58.38,0,0,0-8,2.28,49.94,49.94,0,0,0-14.65,8.37l-.57-.57a43.46,43.46,0,0,1,13.64-11.31,60.14,60.14,0,0,1,8.26-3.56c2.84-1,5.71-1.75,8.59-2.44,11.55-2.62,23.12-3.85,34.63-5,5.76-.57,11.52-1,17.27-1.42l8.64-.58,2.15-.13,1.08-.06,1-.08c1.32-.13,2.69-.32,4.07-.53,5.56-.89,11.26-2.07,17.08-3,2.91-.46,5.86-.86,8.9-1.07a36.24,36.24,0,0,1,9.51.37,13.53,13.53,0,0,1,5.22,2.1,8.81,8.81,0,0,1,2.31,2.36,8.55,8.55,0,0,1,1.27,3.06,10.09,10.09,0,0,1,.21,1.52c0,.49,0,.79,0,1.2,0,.76,0,1.52,0,2.28q-.06,2.28-.27,4.53a97.52,97.52,0,0,1-3.42,17.49c-3.21,11.34-7.65,22.1-12.15,32.77s-9.32,21.15-13.44,31.89c-2.06,5.37-4,10.8-5.51,16.33A94.91,94.91,0,0,0,488,268.1Z"/></g></svg>