<svg id="ART-fills" xmlns="http://www.w3.org/2000/svg" viewBox="0 0 640 160"><defs><style>.cls-1{fill:#00007f;}.cls-2{fill:#0d0a09;}</style></defs><path class="cls-1" d="M295.87,139.39c-5.11-2.07-7.63-14.86-5.64-22.37s7.75-11.92,12.86-9.86,5,8.75,3,16.26S301,141.45,295.87,139.39Z"/><path class="cls-1" d="M344.13,139.39c5.11-2.07,7.63-14.86,5.64-22.37s-7.75-11.92-12.86-9.86-5,8.75-3,16.26S339,141.45,344.13,139.39Z"/><path class="cls-2" d="M296.64,129.64c-3.59-1.45-5.36-10.44-4-15.71s5.44-8.37,9-6.92,3.51,6.15,2.11,11.42S300.23,131.09,296.64,129.64Z"/><path class="cls-2" d="M343.36,129.64c3.59-1.45,5.36-10.44,4-15.71s-5.44-8.37-9-6.92-3.51,6.15-2.11,11.42S339.77,131.09,343.36,129.64Z"/></svg>