<svg id="ART-fills" xmlns="http://www.w3.org/2000/svg" viewBox="0 0 640 160"><defs><style>.cls-1{fill:#00007f;}.cls-2{fill:#0d0a09;}</style></defs><path class="cls-1" d="M482.16,81.13c-9.49,1.37-19,2.17-28.5,2.75-4.76.32-9.52.47-14.28.68s-9.53.23-14.3.29-9.53,0-14.29-.06-9.53-.18-14.3-.46c-9.52-.4-19-1.14-28.52-2.31a2,2,0,0,1,.15-4.08h0c9.51-.46,19-.57,28.46-.74L425,76.85l28.42-.1c9.48,0,19,0,28.46.31h0a2,2,0,0,1,.24,4.07Z"/><path class="cls-1" d="M158.1,77.06c9.48-.26,19-.31,28.46-.31l28.42.1,28.42.35c9.48.17,19,.28,28.46.74h0A2,2,0,0,1,272,82c-9.48,1.17-19,1.91-28.52,2.31-4.77.28-9.53.32-14.3.46s-9.53.09-14.29.06-9.53-.15-14.3-.29-9.52-.36-14.28-.68c-9.52-.58-19-1.38-28.5-2.75a2,2,0,0,1,.24-4.07Z"/><path class="cls-2" d="M481.87,80.16c-9.48.46-19,.62-28.45.69s-18.94.06-28.41,0-18.93-.21-28.4-.45-18.94-.46-28.45-1.12h0a2.57,2.57,0,0,1-.19-5.1c9.47-1.37,19-2.22,28.53-2.7s19.08-.7,28.61-.63,19.08.41,28.6,1.09,19,1.56,28.5,3.13a2.56,2.56,0,0,1-.29,5.09Z"/><path class="cls-2" d="M157.81,75.07c9.49-1.57,19-2.48,28.5-3.13s19.06-1,28.6-1.09,19.08.09,28.61.63,19.06,1.33,28.53,2.7a2.57,2.57,0,0,1-.19,5.1h0c-9.51.66-19,.88-28.45,1.12s-18.94.37-28.4.45-18.93.1-28.41,0-19-.23-28.45-.69h0a2.56,2.56,0,0,1-.29-5.09Z"/></svg>