<svg xmlns="http://www.w3.org/2000/svg" viewBox="0 0 640 320"><defs><style>.cls-1{fill:#00007f;}.cls-2{fill:aqua;}.cls-3{fill:blue;}.cls-4{fill:red;}.cls-5{fill:maroon;}.cls-6{fill:#fcfcfc;}.cls-7{fill:#0d0a09;}</style></defs><g id="ART-fills"><path class="cls-1" d="M173.56,191.16c-2.87,10.53,2.51,22,10.87,27.3l34-34C204.2,175,178.44,172.64,173.56,191.16Z"/><path class="cls-2" d="M166,157.18a39.83,39.83,0,0,0-6.19,5l-.28.26c-18.63,18.63-15.61,51.84,6.74,74.19l2.37-2.36a5.75,5.75,0,0,0,.42-7.7C153.71,207.76,153.93,178,166,157.18Z"/><path class="cls-3" d="M166,157.18c-12.94,22.33-12.28,54.81,6.54,73.14l0,0,11.83-11.82c-8.36-5.35-13.74-16.77-10.87-27.3,4.88-18.52,30.64-16.14,44.91-6.74l15.27-15.27C213.78,149.19,185.18,144.67,166,157.18Z"/><path class="cls-4" d="M176,187.74c-.32.25-.62.51-.92.78s-.47.43-.69.65c-9.05,9-7.58,25.17,3.27,36l4.61-4.61,8.32-.63C185.27,212.09,172.56,197.72,176,187.74Z"/><path class="cls-5" d="M176,187.74c-3.39,10,6.7,25.35,14.59,32.22,0,0,29.11-18.47,19.82-27.52C199.22,181.59,185.2,180.33,176,187.74Z"/><path class="cls-1" d="M468.14,191.16c2.87,10.53-2.51,22-10.87,27.3l-34-34C437.5,175,463.26,172.64,468.14,191.16Z"/><path class="cls-2" d="M475.68,157.18a39.83,39.83,0,0,1,6.19,5l.28.26c18.62,18.63,15.61,51.84-6.74,74.19l-4.34-4.33a2.8,2.8,0,0,1-.07-3.86C488,209.78,488.17,178.75,475.68,157.18Z"/><path class="cls-3" d="M475.68,157.18c12.93,22.33,12.28,54.81-6.54,73.14l-.05,0-11.82-11.82c8.36-5.35,13.74-16.77,10.87-27.3-4.88-18.52-30.64-16.14-44.91-6.74L408,169.15C427.91,149.19,456.52,144.67,475.68,157.18Z"/><path class="cls-6" d="M483,187.25c2.43,8.12,1.47,15.51-.92,22.41-.55,1.58,1.52,3.26,2.42,2,6.52-9.31,7.66-22.31,1.89-33.76-5.86-11.64-17.26-18.49-28.82-18.58-1.59,0-1.4,2.69.22,3.13C468.84,165.45,479.23,173.35,483,187.25Z"/><path class="cls-6" d="M158.74,187.25c-2.43,8.12-1.46,15.51.93,22.41.54,1.58-1.52,3.26-2.43,2-6.51-9.31-7.66-22.31-1.89-33.76,5.87-11.64,17.27-18.49,28.83-18.58,1.59,0,1.39,2.69-.23,3.13C172.9,165.45,162.51,173.35,158.74,187.25Z"/><path class="cls-4" d="M465.79,187.74c.31.25.62.51.92.78l.69.65c9,9,7.58,25.17-3.28,36l-4.6-4.61L451.2,220C456.46,212.09,469.18,197.72,465.79,187.74Z"/><path class="cls-5" d="M465.79,187.74c3.39,10-6.7,25.35-14.59,32.22,0,0-29.11-18.47-19.83-27.52C442.52,181.59,456.54,180.33,465.79,187.74Z"/></g><g id="ART-strokes"><path class="cls-7" d="M166,236.87a64.48,64.48,0,0,1-20.17-36.14,51.7,51.7,0,0,1,.82-21.46,44.17,44.17,0,0,1,10.62-19.13,45.37,45.37,0,0,1,40.87-13.42,56,56,0,0,1,20.31,7.75A54.78,54.78,0,0,1,234,168.86l-.57.57a90.94,90.94,0,0,0-17.58-10,65.88,65.88,0,0,0-18.79-4.83,55.34,55.34,0,0,0-18.8,1.23,37.85,37.85,0,0,0-8.78,3.31,37,37,0,0,0-7.69,5.49,38.12,38.12,0,0,0-10,16.1,46.86,46.86,0,0,0-2,19.43,58,58,0,0,0,5.4,19.25,69.76,69.76,0,0,0,11.36,16.86Z"/><path class="cls-7" d="M210.15,192.66a30.73,30.73,0,0,0-17.49-8,23,23,0,0,0-9.32,1,18.11,18.11,0,0,0-7.62,4.87,19.37,19.37,0,0,0-4.52,16.76,26.69,26.69,0,0,0,3.18,8.45,39.74,39.74,0,0,0,5.4,7.27l-2.94-.8c1-.26,2.27-.62,3.42-1s2.32-.74,3.47-1.14a72.62,72.62,0,0,0,6.81-2.72,59.47,59.47,0,0,0,6.52-3.41,43.59,43.59,0,0,0,6-4.43l.48.37a26.5,26.5,0,0,1-4.71,6.31,39.1,39.1,0,0,1-2.94,2.67c-1,.83-2.1,1.62-3.19,2.37a55.75,55.75,0,0,1-6.88,3.93c-1.19.58-2.4,1.11-3.63,1.6s-2.44.92-3.83,1.34l-1.59.48-1.36-1.28A30.8,30.8,0,0,1,166.09,208a27.06,27.06,0,0,1,1.07-10.91,21.4,21.4,0,0,1,15.29-14.47A25,25,0,0,1,193,182.3a31.43,31.43,0,0,1,17.6,9.93Z"/><path class="cls-7" d="M431.16,192.23a31.4,31.4,0,0,1,17.6-9.93,25,25,0,0,1,10.53.32,21.85,21.85,0,0,1,9.49,5.17,22.12,22.12,0,0,1,5.8,9.3A27.24,27.24,0,0,1,475.65,208a30.81,30.81,0,0,1-9.36,19.36l-1.36,1.28-1.58-.48c-1.39-.42-2.59-.84-3.84-1.34s-2.44-1-3.63-1.6a55.63,55.63,0,0,1-6.87-3.93c-1.1-.75-2.16-1.54-3.19-2.37a39.1,39.1,0,0,1-2.94-2.67,26.24,26.24,0,0,1-4.71-6.31l.48-.37a43,43,0,0,0,6,4.43,58.44,58.44,0,0,0,6.51,3.41c2.23,1,4.51,1.92,6.81,2.72q1.74.6,3.48,1.14c1.14.34,2.36.7,3.42,1L462,223a39.34,39.34,0,0,0,5.41-7.27,26.44,26.44,0,0,0,3.17-8.45A19.36,19.36,0,0,0,466,190.55a18.23,18.23,0,0,0-7.62-4.87,23,23,0,0,0-9.33-1,30.76,30.76,0,0,0-17.49,8Z"/><path class="cls-7" d="M475.12,236.31a69.52,69.52,0,0,0,11.37-16.86,58.26,58.26,0,0,0,5.4-19.25,46.86,46.86,0,0,0-2-19.43,38.22,38.22,0,0,0-10-16.1,37.3,37.3,0,0,0-7.69-5.49,38,38,0,0,0-8.78-3.31,55.34,55.34,0,0,0-18.8-1.23,65.8,65.8,0,0,0-18.79,4.83,91.31,91.31,0,0,0-17.59,10l-.56-.57a54.78,54.78,0,0,1,15.56-14.39,56,56,0,0,1,20.31-7.75,46.07,46.07,0,0,1,22.09,1.55,45.57,45.57,0,0,1,18.77,11.87A44.09,44.09,0,0,1,495,179.27a51.53,51.53,0,0,1,.81,21.46,64.4,64.4,0,0,1-20.16,36.14Z"/></g></svg>