<svg id="ART-fills" xmlns="http://www.w3.org/2000/svg" viewBox="0 0 640 160"><defs><style>.cls-1{fill:#00007f;}.cls-2{fill:#0d0a09;}.cls-3{fill:aqua;}</style></defs><path class="cls-1" d="M459.55,101.48c2.41,4.79-1.6,18.46-18.72,17.32-13.35-.89-33.73-9.8-33.34-15.56s11.52-9.7,24.88-8.81S456.58,95.57,459.55,101.48Z"/><path class="cls-2" d="M460.13,103.63a4.73,4.73,0,0,0-.58-.64c-.25-.24-.5-.48-.78-.71-.55-.45-1.15-.88-1.76-1.29a30.85,30.85,0,0,0-4-2.16L450.92,98l-2.19-.74-2.24-.6c-.76-.18-1.52-.32-2.28-.49s-1.53-.27-2.3-.38-1.55-.22-2.33-.27l-2.34-.21c-.78,0-1.57-.07-2.35-.08-1.56-.06-3.15,0-4.73.06l-2.37.06c-.79,0-1.57.09-2.36.16a97.26,97.26,0,0,0-18.63,3,62.45,62.45,0,0,0-8.86,3,45.36,45.36,0,0,0-4.14,2c-.66.38-1.32.76-1.94,1.17-.3.21-.61.41-.89.63a9.24,9.24,0,0,0-.76.6,2.62,2.62,0,0,1-3.71-3.71,3,3,0,0,1,.54-.41l.19-.11a13.83,13.83,0,0,1,1.28-.64c.4-.19.79-.34,1.19-.5.79-.34,1.57-.62,2.36-.91,1.57-.54,3.13-1.06,4.71-1.48,3.14-.91,6.3-1.57,9.47-2.17a164.27,164.27,0,0,1,19.08-2.24c.79,0,1.59-.1,2.39-.16l2.39-.1c1.6,0,3.18-.16,4.8-.13a74.66,74.66,0,0,1,9.67.42c.8.1,1.61.18,2.42.29l2.41.42,2.41.5,2.4.63A40.72,40.72,0,0,1,459,97.29c.79.34,1.57.69,2.35,1.12.39.19.78.42,1.17.64a10.41,10.41,0,0,1,1.27.87l.43.35a2.68,2.68,0,1,1-3.37,4.18A3,3,0,0,1,460.13,103.63Z"/><path class="cls-1" d="M180.41,101.48c-2.41,4.79,1.6,18.46,18.72,17.32,13.36-.89,33.73-9.8,33.34-15.56s-11.52-9.7-24.88-8.81S183.38,95.57,180.41,101.48Z"/><path class="cls-2" d="M176.21,99.92a11.24,11.24,0,0,1,1.27-.87c.39-.22.78-.45,1.17-.64.78-.43,1.56-.78,2.35-1.12a40.72,40.72,0,0,1,4.75-1.68l2.4-.63,2.41-.5,2.41-.42c.81-.11,1.62-.19,2.43-.29a74.43,74.43,0,0,1,9.66-.42c1.62,0,3.2.08,4.8.13l2.39.1c.8.06,1.6.12,2.4.16A164.1,164.1,0,0,1,233.72,96c3.17.6,6.34,1.26,9.47,2.17,1.58.42,3.14.94,4.72,1.48.78.29,1.56.57,2.35.91.4.16.79.31,1.19.5a13.83,13.83,0,0,1,1.28.64l.18.1a2.63,2.63,0,1,1-2.62,4.55,2.24,2.24,0,0,1-.54-.42c-.15-.14-.48-.4-.75-.6s-.6-.42-.9-.63c-.62-.41-1.28-.79-1.94-1.17a45.36,45.36,0,0,0-4.14-2,62.45,62.45,0,0,0-8.86-3,97.26,97.26,0,0,0-18.63-3c-.79-.07-1.57-.12-2.36-.16l-2.37-.06c-1.58,0-3.16-.12-4.73-.06-.78,0-1.57,0-2.35.08l-2.34.21c-.78.05-1.55.16-2.32.27s-1.55.21-2.31.38-1.52.31-2.28.49l-2.24.6L189,98l-2.12.86a30.72,30.72,0,0,0-4,2.16,21.75,21.75,0,0,0-1.77,1.29c-.28.23-.53.47-.78.71a4.73,4.73,0,0,0-.58.64,2.68,2.68,0,1,1-4.73-2.54,2.64,2.64,0,0,1,.67-.81Z"/><path class="cls-2" d="M404.71,78.16a1.72,1.72,0,0,0-.27.27l-.05.08,0,0h0l.15-.05.64-.19,1.4-.54,2.82-1.15,5.53-2.3c3.66-1.52,7.28-3,10.9-4.36s7.24-2.68,10.87-3.91,7.31-2.31,11-3.66a2.06,2.06,0,1,1,1.42,3.86,2.31,2.31,0,0,1-.52.12h-.08a39.72,39.72,0,0,0-10.8,2.49,53.71,53.71,0,0,0-10,4.94,58.41,58.41,0,0,0-8.81,6.77,54.24,54.24,0,0,0-3.85,4c-.6.72-1.2,1.43-1.77,2.19l-.86,1.15-.5.66-.13.16,0,0-.1.09-.21.18c-.27.23-.56.45-.85.66a6.5,6.5,0,0,1-5.93-11.57Z"/><path class="cls-2" d="M407.88,77.45a1.58,1.58,0,0,0-.37.11l-.09,0,0,0h0l.16,0,.65.14,1.49.2,3,.36,6,.66q5.91.65,11.65,1.45c3.84.51,7.63,1.15,11.41,1.83s7.51,1.51,11.38,2.1a2.06,2.06,0,0,1-.62,4.07,2.15,2.15,0,0,1-.51-.15l-.08,0a39.53,39.53,0,0,0-10.66-3,52.93,52.93,0,0,0-11.11-.48,56.8,56.8,0,0,0-11,1.67,55.29,55.29,0,0,0-5.31,1.66c-.87.34-1.74.68-2.6,1.06l-1.32.6-.75.33-.19.08-.05,0-.13,0-.27,0c-.35.07-.71.13-1.07.17a6.5,6.5,0,0,1,.41-13Z"/><path class="cls-2" d="M406.25,77.61a.59.59,0,0,0-.2.15l0,0,0,0H406l.23,0,.92-.14,2-.39,4.05-.82c2.69-.59,5.39-1.08,8.05-1.61,5.34-1,10.66-1.92,16-2.68s10.62-1.32,15.94-1.73c1.33-.09,2.66-.19,4-.31l4-.18,2-.13c.67,0,1.34,0,2,0,1.34,0,2.68-.1,4-.21a2.06,2.06,0,0,1,.33,4.1,3.05,3.05,0,0,1-.43,0l-.11,0c-1.29-.17-2.58-.29-3.88-.4-.64-.06-1.29-.09-1.94-.14l-1.95,0-3.9,0c-1.3.08-2.59.2-3.89.31a84,84,0,0,0-15.31,3,91.44,91.44,0,0,0-14.54,5.53c-2.34,1.13-4.62,2.37-6.85,3.7-1.1.68-2.21,1.36-3.29,2.09l-1.64,1.12-.91.62-.22.15-.07,0-.13.07-.28.13c-.37.17-.75.33-1.13.48a6.5,6.5,0,1,1-2.85-12.68Z"/><path class="cls-2" d="M229.32,89.73c-.29-.21-.58-.43-.85-.66l-.21-.18-.1-.09,0,0L228,88.6l-.5-.66-.86-1.15c-.57-.76-1.17-1.47-1.76-2.19-1.23-1.4-2.5-2.76-3.86-4a57.92,57.92,0,0,0-8.81-6.77,53.4,53.4,0,0,0-10-4.94,39.72,39.72,0,0,0-10.8-2.49h-.07a2.06,2.06,0,1,1,.36-4.1,1.79,1.79,0,0,1,.53.12c3.67,1.35,7.36,2.37,11,3.66s7.26,2.51,10.87,3.91,7.24,2.84,10.9,4.36l5.53,2.3,2.82,1.15,1.4.54.64.19.15.05h0l0,0,0-.08a1.72,1.72,0,0,0-.27-.27,6.5,6.5,0,0,1-5.93,11.57Z"/><path class="cls-2" d="M232.49,90.44c-.36,0-.72-.1-1.07-.17l-.26,0-.14,0-.05,0-.19-.08-.75-.33-1.32-.6c-.86-.38-1.73-.72-2.6-1.06a54.42,54.42,0,0,0-5.31-1.66,56.8,56.8,0,0,0-11-1.67,52.93,52.93,0,0,0-11.11.48,39.53,39.53,0,0,0-10.66,3l-.07,0a2.06,2.06,0,0,1-1.66-3.77,2,2,0,0,1,.52-.15c3.87-.59,7.59-1.49,11.38-2.1s7.57-1.32,11.41-1.83,7.71-1,11.65-1.45l6-.66,3-.36,1.49-.2.65-.14.16,0h0l0,0-.09,0a1.65,1.65,0,0,0-.36-.11,6.5,6.5,0,0,1,.4,13Z"/><path class="cls-2" d="M230.86,90.29c-.38-.15-.76-.31-1.13-.48l-.28-.13-.13-.07-.07,0-.22-.15-.91-.62-1.64-1.12c-1.08-.73-2.19-1.41-3.29-2.09-2.23-1.33-4.51-2.57-6.84-3.7a91.92,91.92,0,0,0-14.55-5.53,83.85,83.85,0,0,0-15.31-3c-1.3-.11-2.59-.23-3.89-.31l-3.9,0-1.95,0c-.65.05-1.3.08-1.94.14-1.3.11-2.59.23-3.88.4h-.1a2,2,0,1,1-.11-4.08c1.35.11,2.69.17,4,.21.67,0,1.34,0,2,0l2,.13,4,.18c1.33.12,2.66.22,4,.31,5.32.41,10.63,1,15.94,1.73s10.63,1.64,16,2.68c2.67.53,5.36,1,8.05,1.61l4,.82,2,.39.92.14.23,0H234l0,0,0,0a.59.59,0,0,0-.2-.15,6.5,6.5,0,1,1-2.85,12.68Z"/><path class="cls-3" d="M476.12,58c-2-.44-4.09-.84-6.16-1.14s-4.15-.59-6.23-.79a96.37,96.37,0,0,0-12.47-.42A70.2,70.2,0,0,0,439,57.11l-3,.72c-1,.21-1.93.62-2.9.91A55.66,55.66,0,0,0,427.55,61l-.21.08a2.14,2.14,0,0,1-1.71-3.92A49.89,49.89,0,0,1,438.2,53a69,69,0,0,1,13-1,89.23,89.23,0,0,1,12.88,1.31,78.46,78.46,0,0,1,12.48,3.26.79.79,0,0,1,.47,1,.78.78,0,0,1-.91.5Z"/><path class="cls-3" d="M163.37,56.52a78.07,78.07,0,0,1,12.47-3.26A89.23,89.23,0,0,1,188.72,52a69,69,0,0,1,13,1,49.76,49.76,0,0,1,12.57,4.16,2.14,2.14,0,0,1-1.7,3.92l-.22-.08a55.66,55.66,0,0,0-5.62-2.23c-1-.29-1.9-.7-2.89-.91l-3-.72a70.2,70.2,0,0,0-12.23-1.44,96.37,96.37,0,0,0-12.47.42c-2.08.2-4.16.46-6.22.79s-4.15.7-6.17,1.14h0a.79.79,0,0,1-.94-.6A.8.8,0,0,1,163.37,56.52Z"/></svg>