<svg id="ART-fills" xmlns="http://www.w3.org/2000/svg" viewBox="0 0 640 320"><defs><style>.cls-1{fill:#fcfcfc;}.cls-2{fill:#00007f;}.cls-3{fill:#0d0a09;}.cls-4{fill:none;stroke:#0d0a09;stroke-miterlimit:10;stroke-width:12px;}</style></defs><path class="cls-1" d="M266.7,210.49a19.28,19.28,0,0,1-3.47-4.81c-.12-.34-2.2.42-2.17.73.15,2.22,1.89,4.78,4.26,6.94a10.61,10.61,0,0,0,7.57,3.11c.31,0,1.44-2.67,1.08-2.64C271.54,214,269,213.19,266.7,210.49Z"/><path class="cls-1" d="M281.38,195a18.81,18.81,0,0,1,3.46,4.82c.13.34,2.2-.43,2.18-.73-.15-2.23-1.89-4.79-4.26-7a10.63,10.63,0,0,0-7.57-3.11c-.31,0-1.44,2.67-1.08,2.64C276.54,191.48,279.05,192.33,281.38,195Z"/><path class="cls-1" d="M360.6,210.49a19.28,19.28,0,0,1-3.47-4.81c-.12-.34-2.2.42-2.17.73.15,2.22,1.89,4.78,4.26,6.94a10.61,10.61,0,0,0,7.57,3.11c.31,0,1.44-2.67,1.08-2.64C365.44,214,362.93,213.19,360.6,210.49Z"/><path class="cls-1" d="M375.28,195a18.81,18.81,0,0,1,3.46,4.82c.13.34,2.2-.43,2.18-.73-.15-2.23-1.89-4.79-4.26-7a10.63,10.63,0,0,0-7.57-3.11c-.31,0-1.44,2.67-1.08,2.64C370.44,191.48,373,192.33,375.28,195Z"/><path class="cls-2" d="M400.36,218.08c2.76,3.69-.38,14.8-17.84,14.8-13.62,0-34.9-6-34.9-10.63s11-8.34,24.66-8.34S396.94,213.53,400.36,218.08Z"/><path class="cls-2" d="M239.64,218.08c-2.76,3.69.38,14.8,17.84,14.8,13.62,0,34.9-6,34.9-10.63s-11-8.34-24.66-8.34S243.06,213.53,239.64,218.08Z"/><path class="cls-3" d="M292.37,194.84l.28-.22a1,1,0,0,1,.19-.11l.34-.18c.21-.12.39-.19.59-.29.39-.19.73-.29,1.1-.44.7-.25,1.38-.48,2-.67,1.31-.39,2.55-.69,3.78-1a66.76,66.76,0,0,1,7-1.07,121.38,121.38,0,0,1,13.06-.55c4.26,0,8.52.16,13,.53,2.24.21,4.54.48,6.95.89,1.22.2,2.45.44,3.75.76.65.15,1.32.33,2,.53.36.12.71.2,1.1.35.2.08.37.14.59.24l.34.14.18.1.28.18L338.67,205l.13,0c.05,0,0,0,0,0l.05-.09a1.09,1.09,0,0,0,0-.25,3.42,3.42,0,0,0-.14-.55,6,6,0,0,0-.55-1.11,11.23,11.23,0,0,0-1.67-2.07,18,18,0,0,0-4.57-3.17,26,26,0,0,0-11.22-2.43,24.56,24.56,0,0,0-11.14,2.47,16.12,16.12,0,0,0-4.41,3.22,9.59,9.59,0,0,0-1.52,2.09,5.22,5.22,0,0,0-.46,1.11,2.13,2.13,0,0,0-.08.53c0,.08,0,.17,0,.22l.06.09s0,0,.05,0l.15-.08Z"/><circle class="cls-4" cx="274.61" cy="203.34" r="24.04"/><circle class="cls-4" cx="367.08" cy="203.34" r="24.04"/></svg>