<svg id="ART-fills" xmlns="http://www.w3.org/2000/svg" viewBox="0 0 640 160"><defs><style>.cls-1{fill:#00007f;}.cls-2{fill:aqua;}.cls-3{fill:#0d0a09;}.cls-4{fill:#fcfcfc;}</style></defs><path class="cls-1" d="M404.09,82c-2.56,5.21.35,20.89,16.47,20.89,12.59,0,27.13-14.4,27.13-20.91s-5.08-5.87-17.66-5.87S407.24,75.62,404.09,82Z"/><path class="cls-2" d="M448.44,71.17C451,66,448.09,50.28,432,50.28c-12.58,0-27.13,14.4-27.13,20.91s5.08,5.87,17.67,5.87S445.28,77.6,448.44,71.17Z"/><path class="cls-2" d="M192,71.17c-2.55-5.21.35-20.89,16.48-20.89,12.59,0,27.13,14.4,27.13,20.91s-5.08,5.87-17.66,5.87S195.19,77.6,192,71.17Z"/><path class="cls-1" d="M246.7,82c2.55,5.21-.36,20.89-16.48,20.89-12.59,0-27.13-14.4-27.13-20.91s5.08-5.87,17.66-5.87S243.54,75.62,246.7,82Z"/><circle class="cls-3" cx="204.18" cy="66.18" r="12.19"/><circle class="cls-4" cx="206.84" cy="60.56" r="3.12"/><circle class="cls-4" cx="200.88" cy="71.5" r="3.82"/><circle class="cls-3" cx="435.82" cy="66.18" r="12.19"/><circle class="cls-4" cx="438.48" cy="60.56" r="3.12"/><circle class="cls-4" cx="432.52" cy="71.5" r="3.82"/><path class="cls-3" d="M403.09,78.63c.7,0,1.13,0,1.67,0s1,0,1.5.08c1,.06,2,.11,2.93.19l5.69.48c3.76.34,7.48.71,11.19,1.1s7.43.89,11.16,1.4,7.42,1,11.41,1.3a3.35,3.35,0,0,1-.54,6.67,3.27,3.27,0,0,1-1.52-.51,43.92,43.92,0,0,0-10-4.45,54.69,54.69,0,0,0-10.72-2.26,59.15,59.15,0,0,0-11-.15,40.73,40.73,0,0,0-5.39.8c-.88.22-1.76.41-2.6.7-.43.13-.84.28-1.25.43a5.82,5.82,0,0,0-1.06.52A3.56,3.56,0,0,1,400,79.49a3.6,3.6,0,0,1,2.16-.83Z"/><path class="cls-3" d="M246.21,85a5.82,5.82,0,0,0-1.06-.52c-.41-.15-.82-.3-1.25-.44-.84-.28-1.72-.47-2.6-.69a40.49,40.49,0,0,0-5.39-.8,59.15,59.15,0,0,0-11,.15,54.69,54.69,0,0,0-10.72,2.26,43.92,43.92,0,0,0-10,4.45,3.34,3.34,0,1,1-2.06-6.16c4-.33,7.66-.81,11.41-1.3s7.44-1,11.16-1.4,7.43-.76,11.19-1.1l5.69-.48c1-.08,1.94-.13,2.93-.19.49,0,1-.06,1.5-.08s1-.06,1.67,0l.93,0a3.56,3.56,0,1,1-2.41,6.3Z"/></svg>