<svg xmlns="http://www.w3.org/2000/svg" viewBox="0 0 640 320"><defs><style>.cls-1{fill:aqua;}.cls-2{fill:blue;}.cls-3{fill:#00007f;}.cls-4{fill:red;}.cls-5{fill:maroon;}.cls-6{fill:#fcfcfc;}.cls-7{fill:#0d0a09;}</style></defs><g id="ART-fills"><path class="cls-1" d="M122.35,225.65c-4.08-7.34-2.16-16,2-23.32-5.73,2.31-9.93,5.22-11.75,9.15-7.87,17,17.39,48.56,48.78,42.85l3.4-5.83C148.86,244.55,130.25,240.46,122.35,225.65Z"/><path class="cls-2" d="M124.3,202.33c-4.11,7.29-6,16-2,23.32,7.9,14.81,26.51,18.9,42.38,22.85l38.7-66.4C181.8,193.46,144,194.38,124.3,202.33Z"/><path class="cls-3" d="M179.06,222.12c-16.32,7.37-39.4,12.71-33.36-.38,7.78-16.88,43-16.57,53.13-12.73"/><path class="cls-4" d="M150.15,219.62a11,11,0,0,0-1,1.09c-9.88,13.09,2.86,22.82,17.92,23.77L169,236C159.55,233.37,151.29,229.39,150.15,219.62Z"/><path class="cls-5" d="M150.15,219.62c1.14,9.77,8.5,14.68,17.95,17.35,0,0,4.54-14,22-22.07C180,209.82,158,211.71,150.15,219.62Z"/><path class="cls-1" d="M519.35,225.65c4.08-7.34,2.16-16-2-23.32,5.73,2.31,9.93,5.22,11.75,9.15,7.87,17-17.39,48.56-48.79,42.85L477,248.5C492.84,244.55,511.45,240.46,519.35,225.65Z"/><path class="cls-2" d="M517.4,202.33c4.11,7.29,6,16,2,23.32-7.9,14.81-26.51,18.9-42.38,22.85l-38.7-66.4C459.9,193.46,497.7,194.38,517.4,202.33Z"/><path class="cls-3" d="M462.64,222.12c16.32,7.37,39.4,12.71,33.36-.38-7.79-16.88-42.95-16.57-53.13-12.73"/><path class="cls-4" d="M491.55,219.62a9.73,9.73,0,0,1,1,1.09c9.88,13.09-2.85,22.82-17.91,23.77L472.7,236C482.14,233.37,490.41,229.39,491.55,219.62Z"/><path class="cls-5" d="M491.55,219.62C490.41,229.39,483,234.3,473.6,237c0,0-4.55-14-22-22.07C461.67,209.82,483.72,211.71,491.55,219.62Z"/><path class="cls-6" d="M131.87,239.56c1.08-.3-3.67-6.28-4.58-9.55s-5.57-9-6.65-8.73,1,7,2.75,9.82S130.8,239.86,131.87,239.56Z"/><path class="cls-6" d="M509.82,239.56c-1.07-.3,3.67-6.28,4.59-9.55s5.57-9,6.64-8.73-1,7-2.74,9.82S510.9,239.86,509.82,239.56Z"/></g><g id="ART-strokes"><path class="cls-7" d="M161.41,254.72a42.13,42.13,0,0,1-10.93,1.05,43.45,43.45,0,0,1-10.94-1.86,48.74,48.74,0,0,1-19.23-11.3,46,46,0,0,1-7.26-8.8A33.5,33.5,0,0,1,108.52,223a21.17,21.17,0,0,1,1-12.45,15.77,15.77,0,0,1,3.91-5.43,25.55,25.55,0,0,1,5-3.58,53.06,53.06,0,0,1,10.68-4.25c3.59-1.07,7.2-1.83,10.79-2.56s7.19-1.28,10.77-1.84,7.16-1.09,10.73-1.6c7.13-1.05,14.22-2.12,21.25-3.5a104.82,104.82,0,0,0,20.58-6l.37.71a85,85,0,0,1-20.14,8.5c-3.49,1.07-7,2-10.55,2.86s-7.08,1.64-10.63,2.39c-7.08,1.52-14.16,2.89-21.09,4.51-3.47.79-6.89,1.71-10.22,2.7a51.5,51.5,0,0,0-9.41,3.78c-2.85,1.53-5.2,3.5-6.23,5.87a15.46,15.46,0,0,0-.91,8.82,29.75,29.75,0,0,0,3.19,9.28,41.19,41.19,0,0,0,5.85,8.37,45.29,45.29,0,0,0,16.95,11.85,41.88,41.88,0,0,0,20.84,2.55Z"/><path class="cls-7" d="M190,215.19a40.41,40.41,0,0,0-9.91-1.49,65.54,65.54,0,0,0-10,.39,51.86,51.86,0,0,0-9.68,2,22.18,22.18,0,0,0-8.17,4.37,9.58,9.58,0,0,0-1.37,1.57,22.24,22.24,0,0,0-1.2,2,13,13,0,0,0-1.48,4,8.62,8.62,0,0,0,.25,3.89,9.57,9.57,0,0,0,2,3.44,14.85,14.85,0,0,0,3.37,2.77,23.64,23.64,0,0,0,4.11,2.08,35.68,35.68,0,0,0,9.24,2.24l-2.12,1.66a39.2,39.2,0,0,1,1.18-4c.45-1.29,1-2.55,1.51-3.79a45.52,45.52,0,0,1,3.92-7.11,36.44,36.44,0,0,1,5.21-6.2,30.11,30.11,0,0,1,6.48-4.72l.32.5a33.59,33.59,0,0,0-5.49,5.43,40,40,0,0,0-4.2,6.39,49.62,49.62,0,0,0-3,7,47.08,47.08,0,0,0-1.91,7.25l-.28,1.7L167,246.5a35.77,35.77,0,0,1-10.63-1.85,22.56,22.56,0,0,1-9.51-6,14.25,14.25,0,0,1-3-5.3,12.71,12.71,0,0,1-.24-6.18,17.23,17.23,0,0,1,2.21-5.42,26.73,26.73,0,0,1,1.62-2.28,13.71,13.71,0,0,1,2.12-2.12,25.28,25.28,0,0,1,10-4.42,53.37,53.37,0,0,1,10.39-1.28,65.78,65.78,0,0,1,10.32.49,38.79,38.79,0,0,1,10,2.49Z"/><path class="cls-7" d="M451.45,214.62a38.81,38.81,0,0,1,10-2.49,66,66,0,0,1,10.33-.49,53.18,53.18,0,0,1,10.38,1.28,25.32,25.32,0,0,1,10,4.42,13.71,13.71,0,0,1,2.12,2.12,26.73,26.73,0,0,1,1.62,2.28,17.47,17.47,0,0,1,2.21,5.42,12.71,12.71,0,0,1-.25,6.18,14.09,14.09,0,0,1-3,5.3,22.56,22.56,0,0,1-9.51,6,35.77,35.77,0,0,1-10.63,1.85l-1.84.05-.28-1.7a46,46,0,0,0-1.92-7.25,48.43,48.43,0,0,0-3-7,40,40,0,0,0-4.2-6.39,33.26,33.26,0,0,0-5.5-5.43l.33-.5a30.11,30.11,0,0,1,6.48,4.72,36.38,36.38,0,0,1,5.2,6.2,45.57,45.57,0,0,1,3.93,7.11c.56,1.24,1.06,2.5,1.51,3.79a39.2,39.2,0,0,1,1.18,4l-2.12-1.66a35.68,35.68,0,0,0,9.24-2.24,23.64,23.64,0,0,0,4.11-2.08,15.07,15.07,0,0,0,3.37-2.77,9.71,9.71,0,0,0,2.05-3.44,8.62,8.62,0,0,0,.24-3.89,12.75,12.75,0,0,0-1.48-4,22.11,22.11,0,0,0-1.19-2,10.08,10.08,0,0,0-1.37-1.57,22.18,22.18,0,0,0-8.17-4.37,52,52,0,0,0-9.68-2,65.54,65.54,0,0,0-10-.39,40.56,40.56,0,0,0-9.92,1.49Z"/><path class="cls-7" d="M480.43,253.93a41.9,41.9,0,0,0,20.85-2.55,45.29,45.29,0,0,0,17-11.85,41.59,41.59,0,0,0,5.85-8.37,29.75,29.75,0,0,0,3.19-9.28,15.38,15.38,0,0,0-.92-8.82c-1-2.37-3.37-4.34-6.23-5.87a51.12,51.12,0,0,0-9.4-3.78c-3.33-1-6.75-1.91-10.22-2.7-6.94-1.62-14-3-21.1-4.51-3.54-.75-7.08-1.53-10.62-2.39S461.72,192,458.23,191a85,85,0,0,1-20.14-8.5l.37-.71a104.92,104.92,0,0,0,20.57,6c7,1.38,14.13,2.45,21.26,3.5,3.57.51,7.15,1,10.73,1.6s7.18,1.12,10.77,1.84,7.2,1.49,10.79,2.56a53.06,53.06,0,0,1,10.68,4.25,25.55,25.55,0,0,1,5,3.58,15.9,15.9,0,0,1,3.91,5.43,21.17,21.17,0,0,1,1,12.45,33.5,33.5,0,0,1-4.53,10.85,46,46,0,0,1-7.26,8.8,48.74,48.74,0,0,1-19.23,11.3,43.45,43.45,0,0,1-10.94,1.86,42.13,42.13,0,0,1-10.93-1.05Z"/></g></svg>