<svg xmlns="http://www.w3.org/2000/svg" viewBox="0 0 640 160"><defs><style>.cls-1{fill:maroon;}.cls-2{fill:red;}.cls-3{fill:#0d0a09;}.cls-4{fill:#ff0;}</style></defs><g id="ART-fills"><path class="cls-1" d="M381.61,86.76C368.21,85,360.41,76,356.76,64.14a22.54,22.54,0,0,0-4.35,5.42c-8.54,28.7,39.45,40.48,84.2,18.4a73.18,73.18,0,0,0,13.46-8.38C428.52,88.16,402.85,90.14,381.61,86.76Z"/><path class="cls-2" d="M461.17,37.34a.36.36,0,0,0-.67.25c1.71,6.84,2.09,20.56-20.5,24.47-30.49,5.27-25.32-5.6-52.26-7.37-16.54-1.08-26.08,4.77-31,9.45C360.41,76,368.21,85,381.61,86.76c21.24,3.38,46.91,1.4,68.46-7.18C470.18,63.46,464.79,45.06,461.17,37.34Z"/><path class="cls-1" d="M258.39,86.76C271.79,85,279.59,76,283.24,64.14a22.54,22.54,0,0,1,4.35,5.42c8.54,28.7-39.45,40.48-84.2,18.4a73.18,73.18,0,0,1-13.46-8.38C211.48,88.16,237.15,90.14,258.39,86.76Z"/><path class="cls-2" d="M178.83,37.34a.36.36,0,0,1,.67.25c-1.71,6.84-2.09,20.56,20.5,24.47,30.49,5.27,25.32-5.6,52.26-7.37,16.54-1.08,26.08,4.77,31,9.45C279.59,76,271.79,85,258.39,86.76c-21.24,3.38-46.91,1.4-68.46-7.18C169.82,63.46,175.21,45.06,178.83,37.34Z"/></g><g id="ART-strokes"><path class="cls-3" d="M349.39,68.36c.06-.14.13-.27.19-.4l.15-.26.19-.32a6.86,6.86,0,0,1,.38-.6c.25-.38.51-.76.78-1.11.52-.73,1.1-1.38,1.67-2.05a31.92,31.92,0,0,1,3.81-3.55,33.34,33.34,0,0,1,8.88-5c.4-.15.79-.33,1.18-.47l1.21-.38c.81-.24,1.6-.52,2.42-.72l2.45-.5,1.23-.24,1.24-.14a41,41,0,0,1,4.93-.37l2.46,0c.81,0,1.62.1,2.44.15l2.43.17c.81.05,1.59.2,2.39.3,1.59.21,3.17.42,4.75.77.79.16,1.58.31,2.36.48l2.34.62c.78.19,1.55.42,2.32.68s1.54.47,2.28.77c3,1.08,5.87,2.55,8.71,3.74a31.67,31.67,0,0,0,8.74,2.51,38.88,38.88,0,0,0,4.58.34c1.54,0,3.09-.06,4.63-.15s3.09-.29,4.62-.51,3.07-.51,4.59-.79,3-.7,4.46-1.16a33.1,33.1,0,0,0,4.21-1.71,19.85,19.85,0,0,0,6.95-5.16,13.74,13.74,0,0,0,3.14-7.35,17.21,17.21,0,0,0,0-4.06l-.12-1-.18-1c-.05-.34-.15-.68-.23-1l-.14-.61a3.06,3.06,0,0,1,4.89-3,3.14,3.14,0,0,1,.78.93l.11.22,0,.07.26.57c.18.38.33.77.5,1.15.32.77.6,1.56.87,2.36a36.6,36.6,0,0,1,1.25,4.87,31.08,31.08,0,0,1,.54,5,28.33,28.33,0,0,1-.24,5A30.71,30.71,0,0,1,464,64.9,35.4,35.4,0,0,1,458.49,73a61.18,61.18,0,0,1-15,11.68,130.71,130.71,0,0,1-35,13.74A99.55,99.55,0,0,1,389.72,101a67.39,67.39,0,0,1-19.22-1.8,43,43,0,0,1-9.31-3.57,27.51,27.51,0,0,1-8.12-6.5,20.2,20.2,0,0,1-4.55-9.85,21.24,21.24,0,0,1-.2-5.45c.13-.91.17-1.76.38-2.7S349.15,69.29,349.39,68.36Zm6,2.4c-.12.59-.25,1.17-.4,1.75s-.18,1.3-.29,1.94a16.92,16.92,0,0,0,.06,3.9,15.27,15.27,0,0,0,3,7.08A22.24,22.24,0,0,0,364,90.88a38.66,38.66,0,0,0,7.93,3.72,65.06,65.06,0,0,0,17.84,3.19,88.71,88.71,0,0,0,18.46-1.08,102.6,102.6,0,0,0,18-4.73A88.16,88.16,0,0,0,443,83.92a52.75,52.75,0,0,0,7.38-5.64,40.28,40.28,0,0,0,6.08-6.86,31.68,31.68,0,0,0,4.08-8,28.39,28.39,0,0,0,1.63-8.56,32.38,32.38,0,0,0-.8-8.6,40.64,40.64,0,0,0-1.2-4.18c-.24-.69-.51-1.36-.77-2-.15-.33-.28-.67-.43-1l-.22-.5,0-.06s-.05-.1,0,.09a2.67,2.67,0,0,0,.6.7,2.33,2.33,0,0,0,1.85.48,2.31,2.31,0,0,0,1.5-.93,2.39,2.39,0,0,0,.39-1.86c0-.17,0,0,0,0v.08l0,.16.06.32c.08.43.19.85.24,1.28l.18,1.29.09,1.31a23.26,23.26,0,0,1,0,2.64,18.44,18.44,0,0,1-.4,2.65,17.25,17.25,0,0,1-5.21,9.13c-.68.54-1.33,1.11-2,1.62l-2.16,1.34a31.09,31.09,0,0,1-4.55,1.94A53.26,53.26,0,0,1,440,62.91c-6.22.81-12.5,1.79-18.91,1.15a36.53,36.53,0,0,1-9.35-2.16c-3-1.1-5.85-2.26-8.79-3a51.32,51.32,0,0,0-9-1.61c-1.51-.19-3-.24-4.57-.3-.76,0-1.53-.1-2.28-.07l-2.26,0a44.41,44.41,0,0,0-17.13,3.63,30.49,30.49,0,0,0-10.2,7.37c-.43.53-.9,1-1.28,1.59-.2.27-.39.54-.56.81s-.18.27-.25.39l-.11.19,0,0,0-.06A.58.58,0,0,0,355.43,70.76Z"/><path class="cls-3" d="M284.57,70.76a.58.58,0,0,0,.05.14l0,.06,0,0-.11-.19c-.07-.12-.16-.26-.25-.39s-.36-.54-.56-.81c-.38-.55-.85-1.06-1.28-1.59a30.49,30.49,0,0,0-10.2-7.37,44.41,44.41,0,0,0-17.13-3.63l-2.26,0c-.75,0-1.52,0-2.28.07-1.53.06-3.06.11-4.57.3a51.32,51.32,0,0,0-9,1.61c-2.94.78-5.81,1.94-8.79,3a36.53,36.53,0,0,1-9.35,2.16c-6.41.64-12.68-.34-18.91-1.15a53.26,53.26,0,0,1-9.36-2.16,31.09,31.09,0,0,1-4.55-1.94l-2.16-1.34c-.68-.51-1.33-1.08-2-1.62a17.25,17.25,0,0,1-5.21-9.13,18.44,18.44,0,0,1-.4-2.65,23.26,23.26,0,0,1,0-2.64l.09-1.31.18-1.29c0-.43.16-.85.24-1.28l.07-.32,0-.16V37s0-.15,0,0a2.39,2.39,0,0,0,.39,1.86,2.31,2.31,0,0,0,1.5.93,2.34,2.34,0,0,0,1.85-.48,2.49,2.49,0,0,0,.6-.7c.09-.19,0-.1,0-.09l0,.06-.22.5c-.15.33-.28.67-.42,1-.27.68-.54,1.35-.78,2a40.64,40.64,0,0,0-1.2,4.18,32.38,32.38,0,0,0-.8,8.6,28.39,28.39,0,0,0,1.63,8.56,31.68,31.68,0,0,0,4.08,8,40.28,40.28,0,0,0,6.08,6.86A53.34,53.34,0,0,0,197,83.92,88.16,88.16,0,0,0,213.79,92a102.6,102.6,0,0,0,18,4.73,88.71,88.71,0,0,0,18.46,1.08,65.06,65.06,0,0,0,17.84-3.19A38.66,38.66,0,0,0,276,90.88a22.24,22.24,0,0,0,6.19-5.45,15.27,15.27,0,0,0,3-7.08,16.92,16.92,0,0,0,.06-3.9c-.11-.64-.14-1.36-.29-1.94S284.69,71.35,284.57,70.76Zm6-2.4c.24.93.48,1.87.69,2.81s.25,1.79.38,2.7a21.24,21.24,0,0,1-.2,5.45,20.2,20.2,0,0,1-4.55,9.85,27.51,27.51,0,0,1-8.12,6.5,43,43,0,0,1-9.31,3.57,67.39,67.39,0,0,1-19.22,1.8,99.55,99.55,0,0,1-18.81-2.61,130.71,130.71,0,0,1-35-13.74,61.18,61.18,0,0,1-15-11.68A35.4,35.4,0,0,1,176,64.9a31,31,0,0,1-2.88-9.58,29.3,29.3,0,0,1-.23-5,31.08,31.08,0,0,1,.54-5,36.6,36.6,0,0,1,1.25-4.87c.27-.8.55-1.59.87-2.36.17-.38.32-.77.5-1.15l.26-.57,0-.07.11-.22a3.14,3.14,0,0,1,.78-.93,3.06,3.06,0,0,1,4.89,3l-.14.61c-.08.33-.18.67-.23,1l-.18,1-.12,1a17.21,17.21,0,0,0,0,4.06,13.74,13.74,0,0,0,3.14,7.35,19.85,19.85,0,0,0,7,5.16,33.1,33.1,0,0,0,4.21,1.71c1.46.46,3,.79,4.46,1.16s3.06.53,4.59.79,3.08.35,4.62.51,3.09.13,4.63.15a38.88,38.88,0,0,0,4.58-.34,31.67,31.67,0,0,0,8.74-2.51c2.84-1.19,5.67-2.66,8.71-3.74.74-.3,1.52-.51,2.28-.77s1.54-.49,2.32-.68l2.34-.62c.78-.17,1.57-.32,2.36-.48,1.58-.35,3.16-.56,4.75-.77.8-.1,1.58-.25,2.39-.3l2.43-.17c.82-.05,1.63-.14,2.44-.15l2.46,0a41,41,0,0,1,4.93.37l1.24.14,1.22.24,2.46.5c.82.2,1.61.48,2.42.72l1.21.38c.39.14.78.32,1.18.47a33.34,33.34,0,0,1,8.88,5,31.92,31.92,0,0,1,3.81,3.55c.57.67,1.15,1.32,1.67,2.05.27.35.53.73.78,1.11a6.86,6.86,0,0,1,.38.6l.19.32.15.26C290.48,68.09,290.55,68.22,290.61,68.36Z"/></g><g id="Kitchen_Sink" data-name="Kitchen Sink"><path class="cls-4" d="M388.6,59.11l7.25,2.21c2.41.76,4.83,1.48,7.24,2.17a117.93,117.93,0,0,0,14.53,3.4c1.22.17,2.43.35,3.63.57s2.42.35,3.63.44a31.38,31.38,0,0,0,7.25-.15,38.88,38.88,0,0,0,13.77-4.43,1.79,1.79,0,0,1,1.71,3.15h-.05a45.85,45.85,0,0,1-15,4.79c-.65.07-1.31.19-2,.23l-2,.1c-1.32.15-2.63,0-3.95.09s-2.62-.12-3.93-.19-2.59-.36-3.88-.58a105.86,105.86,0,0,1-14.78-4.4c-4.79-1.77-9.48-3.71-14.11-5.79a.87.87,0,0,1,.61-1.63Z"/><path class="cls-4" d="M252,60.74c-4.63,2.08-9.32,4-14.11,5.79a105.86,105.86,0,0,1-14.78,4.4c-1.29.22-2.58.44-3.88.58s-2.61.2-3.93.19-2.63.06-3.95-.09l-2-.1c-.66,0-1.32-.16-2-.23a45.85,45.85,0,0,1-15-4.79h0a1.79,1.79,0,0,1,1.62-3.19l0,0a38.88,38.88,0,0,0,13.77,4.43,31.38,31.38,0,0,0,7.25.15c1.21-.09,2.42-.31,3.63-.44s2.41-.4,3.63-.57a117.93,117.93,0,0,0,14.53-3.4c2.41-.69,4.83-1.41,7.24-2.17l7.25-2.21a.87.87,0,0,1,.61,1.63Z"/></g></svg>