<svg id="ART-fills" xmlns="http://www.w3.org/2000/svg" viewBox="0 0 640 160"><defs><style>.cls-1{fill:#ff0;}.cls-2{fill:#0d0a09;}.cls-3{fill:#fff;}</style></defs><path class="cls-1" d="M344.18,128.48c0,11.21-10.82,20.29-24.18,20.29s-24.18-9.08-24.18-20.29S306.64,114,320,114,344.18,117.27,344.18,128.48Z"/><path class="cls-2" d="M346.24,128.48a20.21,20.21,0,0,1-1.89,9.13,23.58,23.58,0,0,1-5.58,7.51,27.21,27.21,0,0,1-17,6.83,29.39,29.39,0,0,1-17.68-4.68,24.16,24.16,0,0,1-6.69-6.49,20.35,20.35,0,0,1-3.47-8.69,17.33,17.33,0,0,1,1.07-9.31l.23-.56.31-.52.61-1a17.24,17.24,0,0,1,1.54-1.84,14.21,14.21,0,0,1,1.81-1.51l1-.65,1-.54a26.4,26.4,0,0,1,8.39-2.56,56.73,56.73,0,0,1,8.5-.62c1.41,0,2.82,0,4.23.06s2.82.15,4.24.28a41.25,41.25,0,0,1,8.47,1.58c.71.19,1.38.52,2.08.77s1.35.67,2,1a22.35,22.35,0,0,1,1.9,1.33,12.76,12.76,0,0,1,1.7,1.67c.25.31.51.61.76.93l.62,1a12.52,12.52,0,0,1,1,2.2,23.18,23.18,0,0,1,.59,2.32C346.1,126.91,346.16,127.69,346.24,128.48Zm-4.11,0a10.78,10.78,0,0,0-1.79-6.74,13,13,0,0,0-5.92-4.45,29.16,29.16,0,0,0-7.8-1.94,51,51,0,0,0-8.2-.29,51.88,51.88,0,0,0-8.11.91,23.32,23.32,0,0,0-7.35,2.74,10.11,10.11,0,0,0-4.52,5.43,13.42,13.42,0,0,0-.1,7.12,18,18,0,0,0,8.85,11.05,25.42,25.42,0,0,0,14.24,3.15,26.08,26.08,0,0,0,13.73-4.72,18.1,18.1,0,0,0,4.91-5.33A14.8,14.8,0,0,0,342.13,128.48Z"/><circle class="cls-3" cx="332.79" cy="124.51" r="2.68"/><circle class="cls-3" cx="309.6" cy="134.88" r="4.39"/></svg>