<svg id="ART-fills" xmlns="http://www.w3.org/2000/svg" viewBox="0 0 640 160"><defs><style>.cls-1{fill:#00007f;}.cls-2{fill:#0d0a09;}</style></defs><path class="cls-1" d="M171.85,82.46c.55.15,1.28.35,1.94.5s1.36.33,2.05.48c1.38.3,2.76.59,4.16.81,2.78.49,5.58.84,8.38,1.07a80.26,80.26,0,0,0,16.77-.39,69,69,0,0,0,16.19-4.2,83,83,0,0,0,15-8l0,0A2.06,2.06,0,0,1,239,75.81a56.28,56.28,0,0,1-14.85,11.13,63,63,0,0,1-8.68,3.65,70.5,70.5,0,0,1-9.17,2.25,73.78,73.78,0,0,1-9.38.84,68.16,68.16,0,0,1-9.37-.47,66.78,66.78,0,0,1-9.19-1.75c-1.5-.4-3-.85-4.47-1.37-.74-.26-1.48-.53-2.21-.82s-1.42-.61-2.26-1a3.14,3.14,0,0,1,2.18-5.87Z"/><path class="cls-1" d="M472.42,88.44c-.85.4-1.55.7-2.31,1s-1.51.57-2.27.84c-1.52.53-3,1-4.6,1.4A70.38,70.38,0,0,1,444.19,94a74.25,74.25,0,0,1-9.63-.86,72.39,72.39,0,0,1-9.4-2.3,63.43,63.43,0,0,1-8.92-3.74A58.23,58.23,0,0,1,401,75.67a2.05,2.05,0,0,1,2.62-3.13l0,0a84.58,84.58,0,0,0,15.46,8.29,70.64,70.64,0,0,0,16.66,4.34A81.66,81.66,0,0,0,453,85.6c2.88-.24,5.77-.6,8.63-1.11,1.44-.23,2.86-.54,4.27-.84l2.11-.5c.69-.16,1.43-.36,2-.52l.21-.06a3.14,3.14,0,0,1,2.18,5.87Z"/><path class="cls-2" d="M247.12,68.71a41.06,41.06,0,0,1-3.67,3.48c-1.25,1.07-2.56,2.07-3.89,3a75.81,75.81,0,0,1-8.42,5.23,76.3,76.3,0,0,1-18.65,6.93,76.77,76.77,0,0,1-9.91,1.54,70.24,70.24,0,0,1-10.05.06,57.64,57.64,0,0,1-19.3-4.69,2.58,2.58,0,0,1,1.29-4.92h.06a124,124,0,0,0,18.09.66c3-.12,5.92-.43,8.86-.8s5.85-1,8.75-1.6a123,123,0,0,0,17.12-5.3c2.8-1.11,5.6-2.27,8.35-3.57s5.55-2.67,8.14-4l.17-.08a2.57,2.57,0,0,1,3.06,4Z"/><path class="cls-2" d="M396.11,64.76c2.59,1.35,5.39,2.79,8.14,4s5.55,2.46,8.35,3.57a123,123,0,0,0,17.12,5.3c2.9.65,5.81,1.18,8.75,1.6s5.89.68,8.86.8a124,124,0,0,0,18.09-.66h.06a2.58,2.58,0,0,1,1.29,4.92A57.64,57.64,0,0,1,447.47,89a70.09,70.09,0,0,1-10-.06,76.65,76.65,0,0,1-9.92-1.54,76.3,76.3,0,0,1-18.65-6.93,75.81,75.81,0,0,1-8.42-5.23c-1.33-1-2.64-2-3.9-3a42.37,42.37,0,0,1-3.66-3.48,2.57,2.57,0,0,1,3.06-4Z"/></svg>