<svg xmlns="http://www.w3.org/2000/svg" viewBox="0 0 640 320"><defs><style>.cls-1{fill:aqua;}.cls-2{fill:blue;}.cls-3{fill:#00007f;}.cls-4{fill:#ddd6ce;}.cls-5{fill:#fff6e9;}.cls-6{fill:#fcfcfc;}.cls-7{fill:#0d0a09;}.cls-8{fill:#ded7cf;}</style></defs><g id="ART-fills"><path class="cls-1" d="M111.36,285.78c-5-1.42-5.41-12-3.79-22.66a95.28,95.28,0,0,0-9.24,32.39,8.71,8.71,0,0,0,8,9.57c16,1.08,51.55-2.93,77.22-52.81l-1.29-13.52C164.13,263.85,141.5,294,111.36,285.78Z"/><path class="cls-2" d="M111.36,285.78c30.14,8.22,52.77-21.93,70.94-47L178,193s-49.11,25.94-70.38,70.17C106,273.79,106.37,284.36,111.36,285.78Z"/><path class="cls-3" d="M225.66,162.19s-3.21-.69-8.26-2.19c-11.1,10.24-22.31,19.77-34.65,28.11-3,6.8-12.08,9.89-18.86,14.56.85,1.18,1.72,2.37,2.65,3.58,6.61,8.61,16.1,13.51,25.36,12.88a33.3,33.3,0,0,0,22.49-10.63C234.81,186.85,225.66,162.19,225.66,162.19Z"/><path class="cls-4" d="M152.36,123.78c0-3.86,3.59-7.12,8.46-8.41-7.82-6.18-18.43-1.35-18.21,9.74.46,22.37,2.25,42.49,22.84,69.31,6.61,8.61,16.1,13.51,25.36,12.87a33.3,33.3,0,0,0,17-5.88C170.48,202.37,154.25,155,152.36,123.78Z"/><path class="cls-5" d="M213.3,196.67c20.42-21.65,6.85-35.29,6.85-35.29s-37.53-20.06-57-43.65a16,16,0,0,0-2.38-2.36c-4.87,1.29-8.46,4.55-8.46,8.41,1.89,31.24,18.12,78.59,55.47,77.63A35.25,35.25,0,0,0,213.3,196.67Z"/><path class="cls-1" d="M528.64,285.78c5-1.42,5.41-12,3.79-22.66a95.28,95.28,0,0,1,9.24,32.39,8.71,8.71,0,0,1-8,9.57c-16,1.08-51.55-2.93-77.22-52.81l1.29-13.52C475.87,263.85,498.5,294,528.64,285.78Z"/><path class="cls-2" d="M528.64,285.78c-30.14,8.22-52.77-21.93-70.94-47l4.35-45.8s49.11,25.94,70.38,70.17C534.05,273.79,533.63,284.36,528.64,285.78Z"/><path class="cls-3" d="M414.34,162.19s3.21-.69,8.26-2.19c11.1,10.24,22.31,19.77,34.65,28.11,3,6.8,12.08,9.89,18.86,14.56-.85,1.18-1.72,2.37-2.65,3.58-6.61,8.61-16.1,13.51-25.36,12.88a33.3,33.3,0,0,1-22.49-10.63C405.19,186.85,414.34,162.19,414.34,162.19Z"/><path class="cls-4" d="M487.64,123.78c0-3.86-3.59-7.12-8.46-8.41,7.82-6.18,18.43-1.35,18.21,9.74-.46,22.37-2.25,42.49-22.84,69.31-6.61,8.61-16.1,13.51-25.36,12.87a33.3,33.3,0,0,1-17-5.88C469.52,202.37,485.75,155,487.64,123.78Z"/><path class="cls-5" d="M426.7,196.67c-20.42-21.65-6.85-35.29-6.85-35.29s37.53-20.06,56.95-43.65a16,16,0,0,1,2.38-2.36c4.87,1.29,8.46,4.55,8.46,8.41-1.89,31.24-18.12,78.59-55.47,77.63A35.25,35.25,0,0,1,426.7,196.67Z"/><path class="cls-6" d="M487.25,120.81c-1.84-1-2,10.84-4.39,15.27S480.44,152,482.27,153s6.48-8.3,7.25-13.33S489.08,121.81,487.25,120.81Z"/><path class="cls-6" d="M516.7,263.25c-2.08.15,4.23,10.17,4.62,15.2s6.61,14.71,8.7,14.55.94-10.49-1.15-15.13S518.79,263.09,516.7,263.25Z"/><path class="cls-6" d="M123.3,263.25c2.08.15-4.23,10.17-4.62,15.2S112.07,293.16,110,293s-.94-10.49,1.15-15.13S121.21,263.09,123.3,263.25Z"/><path class="cls-6" d="M152.75,120.81c1.84-1,2,10.84,4.39,15.27s2.42,15.95.59,16.95-6.48-8.3-7.25-13.33S150.92,121.81,152.75,120.81Z"/></g><g id="ART-strokes"><path class="cls-7" d="M183.15,252a149,149,0,0,1-18.47,24.41c-7.89,8.17-17,15-27.24,19.33a67.16,67.16,0,0,1-28.52,5.38,21.61,21.61,0,0,1-3-.23,4.81,4.81,0,0,1-3.53-5.12l.12-.91c.28-2.85.86-6.32,1.44-9.13,7.89-36.32,35.32-65.88,65.71-86.77a10.58,10.58,0,0,1-1.75-1.06c-5.7,3.41-11.21,7.13-16.56,11.08-14.7,10.92-28.2,23.72-38.72,38.78A101.25,101.25,0,0,0,95.31,288c-.41,1.92-.55,4.06-.87,6a17,17,0,0,0-.2,2.37,12.79,12.79,0,0,0,12.4,12.72c19.53,1.12,38.58-7,52.67-20.2C170,278.75,178.18,265.88,184,252.5Z"/><path class="cls-7" d="M144.52,125.07A176.82,176.82,0,0,0,145.73,146a86.05,86.05,0,0,0,5,20.12,91.16,91.16,0,0,0,9.81,18.31A62.72,62.72,0,0,0,167,192.6a30.27,30.27,0,0,0,7.78,5.93,40,40,0,0,0,8.48,3.4,27.7,27.7,0,0,0,4.28.78,24.74,24.74,0,0,0,4.39,0,33.39,33.39,0,0,0,9.05-1.88,26.42,26.42,0,0,0,4.26-2,25.38,25.38,0,0,0,3.93-2.7c.63-.5,1.22-1,1.81-1.6l1.76-1.8c.57-.61,1.11-1.24,1.66-1.88s1-1.3,1.53-2a30.81,30.81,0,0,0,4.62-8.53,19.28,19.28,0,0,0,1-9.1,17.77,17.77,0,0,0-1.21-4.32,16,16,0,0,0-1-2c-.19-.31-.4-.61-.61-.9s-.21-.29-.31-.41l-.25-.3.68.51c-7.58-4.23-14.74-8.86-21.8-13.76a234.18,234.18,0,0,1-20.39-15.75c-3.24-2.83-6.38-5.8-9.37-8.93-1.49-1.57-3-3.17-4.36-4.83-.7-.83-1.43-1.7-2-2.35a13.92,13.92,0,0,0-2.06-1.79,10.11,10.11,0,0,0-4.89-1.79,8.46,8.46,0,0,0-4.92,1.17,8.84,8.84,0,0,0-3.41,3.84A12.26,12.26,0,0,0,144.52,125.07Zm-3.81.08a16.26,16.26,0,0,1,1.34-7.06,12.78,12.78,0,0,1,4.87-5.61,12.48,12.48,0,0,1,7.26-1.85,14.22,14.22,0,0,1,7,2.41,18.42,18.42,0,0,1,2.78,2.34c.85.93,1.49,1.69,2.17,2.48,1.35,1.57,2.79,3.08,4.25,4.57,2.93,3,6,5.78,9.24,8.48a220.94,220.94,0,0,0,20.25,15c7,4.61,14.32,9,21.64,12.92l.41.21.27.29c.3.31.44.48.62.7s.34.42.5.63c.31.43.61.85.87,1.29a19,19,0,0,1,1.43,2.71,21.66,21.66,0,0,1,1.64,5.83,25.81,25.81,0,0,1-1.32,11.72,35,35,0,0,1-2.31,5.27,47.08,47.08,0,0,1-2.92,4.84c-.54.76-1.1,1.51-1.65,2.26s-1.16,1.45-1.73,2.18l-1.79,2.11c-.66.69-1.27,1.43-2,2.1a38.39,38.39,0,0,1-9.38,7,36.72,36.72,0,0,1-5.48,2.31,36,36,0,0,1-5.79,1.32,29.84,29.84,0,0,1-6.16.22,28.22,28.22,0,0,1-6.09-1.22,27,27,0,0,1-5.54-2.54,31.28,31.28,0,0,1-4.72-3.63,43.94,43.94,0,0,1-7.09-9c-1.88-3.06-3.87-6-5.76-9.06a119.81,119.81,0,0,1-9.66-19.16,98,98,0,0,1-5.53-20.74A173.84,173.84,0,0,1,140.71,125.15Z"/><path class="cls-7" d="M456.85,252a149,149,0,0,0,18.47,24.41c7.89,8.17,16.95,15,27.24,19.33a67.16,67.16,0,0,0,28.52,5.38,21.61,21.61,0,0,0,3-.23,4.81,4.81,0,0,0,3.53-5.12l-.12-.91c-.28-2.85-.86-6.32-1.44-9.13-7.89-36.32-35.32-65.88-65.71-86.77a10.58,10.58,0,0,0,1.75-1.06c5.7,3.41,11.21,7.13,16.56,11.08,14.7,10.92,28.2,23.72,38.72,38.78A101.25,101.25,0,0,1,544.69,288c.41,1.92.55,4.06.87,6a17,17,0,0,1,.2,2.37,12.79,12.79,0,0,1-12.4,12.72c-19.53,1.12-38.58-7-52.67-20.2C470,278.75,461.82,265.88,456,252.5Z"/><path class="cls-7" d="M499.29,125.15a173.84,173.84,0,0,1-1.64,21.29,98,98,0,0,1-5.53,20.74,119.81,119.81,0,0,1-9.66,19.16c-1.89,3-3.88,6-5.76,9.06a43.94,43.94,0,0,1-7.09,9,31.28,31.28,0,0,1-4.72,3.63,27,27,0,0,1-5.54,2.54,28.22,28.22,0,0,1-6.09,1.22,29.84,29.84,0,0,1-6.16-.22,36,36,0,0,1-5.79-1.32,36.72,36.72,0,0,1-5.48-2.31,38.39,38.39,0,0,1-9.38-7c-.7-.67-1.31-1.41-2-2.1l-1.79-2.11c-.57-.73-1.14-1.47-1.73-2.18s-1.11-1.5-1.65-2.26a47.08,47.08,0,0,1-2.92-4.84,35,35,0,0,1-2.31-5.27,25.81,25.81,0,0,1-1.32-11.72,21.66,21.66,0,0,1,1.64-5.83,19,19,0,0,1,1.43-2.71c.26-.44.56-.86.87-1.29.16-.21.32-.42.5-.63s.32-.39.62-.7l.27-.29.41-.21c7.32-4,14.61-8.31,21.64-12.92a220.94,220.94,0,0,0,20.25-15c3.21-2.7,6.31-5.52,9.24-8.48,1.46-1.49,2.9-3,4.25-4.57.68-.79,1.32-1.55,2.17-2.48a18.42,18.42,0,0,1,2.78-2.34,14.22,14.22,0,0,1,7-2.41,12.48,12.48,0,0,1,7.26,1.85,12.78,12.78,0,0,1,4.87,5.61A16.26,16.26,0,0,1,499.29,125.15Zm-3.81-.08a12.26,12.26,0,0,0-1.08-5.35,8.84,8.84,0,0,0-3.41-3.84,8.46,8.46,0,0,0-4.92-1.17,10.11,10.11,0,0,0-4.89,1.79,13.43,13.43,0,0,0-2.06,1.79c-.57.65-1.3,1.52-2,2.35-1.4,1.66-2.87,3.26-4.36,4.83-3,3.13-6.13,6.1-9.37,8.93A234.18,234.18,0,0,1,443,150.15c-7.06,4.9-14.22,9.53-21.8,13.76l.68-.51-.25.3c-.1.12-.21.27-.31.41s-.42.59-.61.9a16,16,0,0,0-1,2,17.77,17.77,0,0,0-1.21,4.32,19.28,19.28,0,0,0,1,9.1,30.81,30.81,0,0,0,4.62,8.53c.5.66,1,1.31,1.53,2s1.09,1.27,1.66,1.88l1.76,1.8c.59.55,1.18,1.1,1.81,1.6a25.38,25.38,0,0,0,3.93,2.7,26.42,26.42,0,0,0,4.26,2,33.39,33.39,0,0,0,9,1.88,24.74,24.74,0,0,0,4.39,0,27.7,27.7,0,0,0,4.28-.78,40,40,0,0,0,8.48-3.4A30.27,30.27,0,0,0,473,192.6a62.72,62.72,0,0,0,6.44-8.21,91.16,91.16,0,0,0,9.81-18.31,86.05,86.05,0,0,0,5-20.12A176.82,176.82,0,0,0,495.48,125.07Z"/></g><g id="Kitchen_Sink" data-name="Kitchen Sink"><path class="cls-8" d="M205.41,187.57a34.14,34.14,0,0,1-5.56,3.8,44.18,44.18,0,0,1-6.16,2.78c-2.13.76-4.37,1.09-6.53,1.64s-4.36.87-6.53,1.31a1,1,0,1,1-.38-1.89h0q3.27-.55,6.46-1.28c2.15-.43,4.18-1.24,6.25-1.87a50.39,50.39,0,0,0,11.87-5.24.47.47,0,0,1,.65.15A.49.49,0,0,1,205.41,187.57Z"/><path class="cls-8" d="M190.87,178a34.73,34.73,0,0,1-10.45,5.87c-1.9.67-3.89,1-5.81,1.45s-3.89.78-5.82,1.17a.85.85,0,0,1-1-.67.86.86,0,0,1,.67-1h0c1.95-.33,3.86-.71,5.76-1.15A55.76,55.76,0,0,0,179.8,182a44.2,44.2,0,0,0,10.57-4.67.42.42,0,0,1,.5.68Z"/><path class="cls-8" d="M186.45,146.2a33.16,33.16,0,0,1-2.68,3.36,31.49,31.49,0,0,1-3.13,3,40.72,40.72,0,0,1-3.6,2.38c-1.22.75-2.49,1.42-3.72,2.11a.59.59,0,0,1-.82-.22.62.62,0,0,1,.23-.83h0q1.88-1,3.66-2.07a35.46,35.46,0,0,0,3.38-2.45,45,45,0,0,0,6.2-5.62h0a.29.29,0,0,1,.42,0A.3.3,0,0,1,186.45,146.2Z"/><path class="cls-8" d="M435.14,186.81A50.39,50.39,0,0,0,447,192.05c2.07.63,4.1,1.44,6.25,1.87s4.28.91,6.46,1.28a1,1,0,0,1-.32,1.91h0c-2.17-.44-4.36-.82-6.53-1.31s-4.4-.88-6.53-1.64a44.18,44.18,0,0,1-6.16-2.78,34.14,34.14,0,0,1-5.56-3.8.47.47,0,0,1-.06-.66A.48.48,0,0,1,435.14,186.81Z"/><path class="cls-8" d="M454.37,170.38A44,44,0,0,0,465,175.05a52.53,52.53,0,0,0,5.57,1.66q2.84.66,5.75,1.15a.86.86,0,0,1,.71,1,.87.87,0,0,1-1,.71h0c-1.93-.39-3.88-.73-5.82-1.17s-3.92-.78-5.81-1.45a34.49,34.49,0,0,1-10.45-5.87.41.41,0,0,1-.05-.59A.43.43,0,0,1,454.37,170.38Z"/><path class="cls-8" d="M468.91,148.86a44.44,44.44,0,0,0,7.08,4.45,33.33,33.33,0,0,0,3.75,1.83c1.29.51,2.62,1,4,1.41a.6.6,0,1,1-.37,1.15h0c-1.33-.47-2.69-.91-4-1.43s-2.7-1-4-1.72a32.56,32.56,0,0,1-3.6-2.39,33.62,33.62,0,0,1-3.22-2.85.29.29,0,0,1,.38-.44Z"/><path class="cls-8" d="M428.17,161.54a44.24,44.24,0,0,0,4.88,6.8,32.68,32.68,0,0,0,2.78,3.11c1,1,2.05,1.9,3.14,2.81a.61.61,0,0,1,.08.85.6.6,0,0,1-.85.07h0c-1.05-.94-2.15-1.86-3.18-2.85a40,40,0,0,1-3-3.09,33,33,0,0,1-2.43-3.57,33.53,33.53,0,0,1-1.9-3.85.3.3,0,0,1,.16-.39.29.29,0,0,1,.36.12Z"/></g></svg>