<svg id="ART-fills" xmlns="http://www.w3.org/2000/svg" viewBox="0 0 640 160"><defs><style>.cls-1{fill:#00007f;}.cls-2{fill:#0d0a09;}.cls-3{fill:#fcfcfc;}.cls-4{fill:blue;}.cls-5{fill:aqua;}</style></defs><path class="cls-1" d="M248.77,90.89c3.46,4.61-.48,18.53-22.33,18.53-17.06,0-43.71-7.53-43.71-13.31s13.83-10.45,30.88-10.45S244.49,85.19,248.77,90.89Z"/><path class="cls-1" d="M392.23,90.89c-3.46,4.61.48,18.53,22.33,18.53,17.06,0,43.71-7.53,43.71-13.31s-13.83-10.45-30.88-10.45S396.51,85.19,392.23,90.89Z"/><circle class="cls-2" cx="218.1" cy="74.69" r="24.1"/><circle class="cls-2" cx="422.9" cy="74.69" r="24.1"/><circle class="cls-3" cx="435.56" cy="77.94" r="5.09"/><circle class="cls-3" cx="414.56" cy="83.03" r="8.34"/><circle class="cls-3" cx="232.17" cy="77.94" r="5.09"/><circle class="cls-3" cx="209.89" cy="83.03" r="8.34"/><path class="cls-4" d="M451.28,54c4.84,5.56,7.19,8.4,8.13,16.1a4.19,4.19,0,0,1-4.2,4.64H394.13c-6,0-8.31-17.94,6.91-30.95"/><path class="cls-2" d="M453.23,52.25a69.3,69.3,0,0,1,4.61,6.58,22.54,22.54,0,0,1,2.79,7.88c.11.67.2,1.34.28,2l.1,1A6.12,6.12,0,0,1,461,71a5.72,5.72,0,0,1-2.76,4.27,5.84,5.84,0,0,1-2.43.78l-.63,0h-.48l-1,0-3.84-.1c-5.13-.15-10.27-.19-15.4-.28l-15.39-.1-15.39.09-7.7.12-1.93,0a4.24,4.24,0,0,1-2.44-.8A6,6,0,0,1,390,73.27a10.28,10.28,0,0,1-1-2,19.17,19.17,0,0,1-.78-8.2,28.5,28.5,0,0,1,1.94-7.89,38.77,38.77,0,0,1,9.12-13.44h0A2.6,2.6,0,1,1,403,45.45a3.73,3.73,0,0,1-.3.26,30.11,30.11,0,0,0-9.3,10.89,25.28,25.28,0,0,0-2.25,6.87,16,16,0,0,0,.25,7A5.35,5.35,0,0,0,393,73.14a1.87,1.87,0,0,0,1.13.44l1.91,0,7.7.13,15.39.09,15.39-.1c5.13-.09,10.27-.13,15.4-.29l3.84-.1,1,0,.48,0,.33,0a2.67,2.67,0,0,0,1.17-.48,2.6,2.6,0,0,0,1.12-2.05,3.14,3.14,0,0,0-.06-.63l-.16-.9c-.11-.61-.23-1.2-.39-1.79a17.87,17.87,0,0,0-2.92-6.31,48.7,48.7,0,0,0-5-5.46l0,0A2.6,2.6,0,1,1,453,52,1.61,1.61,0,0,1,453.23,52.25Z"/><path class="cls-4" d="M188.72,54c-4.84,5.56-7.19,8.4-8.13,16.1a4.19,4.19,0,0,0,4.2,4.64h61.08c6,0,8.31-17.94-6.91-30.95"/><path class="cls-2" d="M190.67,55.65a48.7,48.7,0,0,0-5,5.46,17.87,17.87,0,0,0-2.92,6.31c-.16.59-.28,1.18-.39,1.79l-.16.9a3.14,3.14,0,0,0-.06.63,2.6,2.6,0,0,0,1.12,2.05,2.67,2.67,0,0,0,1.17.48l.33,0,.48,0,1,0,3.84.1c5.13.16,10.27.2,15.4.29l15.39.1,15.39-.09,7.7-.13,1.91,0a1.87,1.87,0,0,0,1.13-.44,5.35,5.35,0,0,0,1.57-2.64,16,16,0,0,0,.25-7,25.28,25.28,0,0,0-2.25-6.87,30.11,30.11,0,0,0-9.3-10.89,2.6,2.6,0,1,1,3.06-4.2,2.09,2.09,0,0,1,.28.24l0,0a38.77,38.77,0,0,1,9.12,13.44,28.5,28.5,0,0,1,1.94,7.89,19.17,19.17,0,0,1-.78,8.2,10.28,10.28,0,0,1-1,2A6,6,0,0,1,248.34,75a4.24,4.24,0,0,1-2.44.8l-1.93,0-7.7-.12-15.39-.09-15.39.1c-5.13.09-10.27.13-15.4.28l-3.84.1-1,0h-.48l-.63,0a5.84,5.84,0,0,1-2.43-.78A5.72,5.72,0,0,1,179,71a6.12,6.12,0,0,1,0-1.29l.1-1c.08-.66.17-1.33.28-2a22.54,22.54,0,0,1,2.79-7.88,69.3,69.3,0,0,1,4.61-6.58,2.59,2.59,0,0,1,4.16,3.1,2,2,0,0,1-.23.27Z"/><path class="cls-5" d="M216.24,46.59a19,19,0,0,0-6.8,2.22,24.2,24.2,0,0,0-5.75,4.35,29.42,29.42,0,0,0-4.35,5.71,27.88,27.88,0,0,0-1.59,3.19c-.23.56-.44,1.1-.62,1.66a9.62,9.62,0,0,0-.42,1.61,3.13,3.13,0,0,1-6.21-.85,3.08,3.08,0,0,1,.58-1.43l.2-.28c.49-.65.9-1.12,1.34-1.65s.87-1,1.32-1.5c.87-1,1.78-1.93,2.68-2.86a58.59,58.59,0,0,1,5.76-5.09,40.68,40.68,0,0,1,6.41-4.09,46.05,46.05,0,0,1,7.08-2.83.95.95,0,0,1,.61,1.79l-.16,0Z"/><path class="cls-5" d="M424.13,44.75a46.05,46.05,0,0,1,7.08,2.83,40.68,40.68,0,0,1,6.41,4.09,58.59,58.59,0,0,1,5.76,5.09c.9.93,1.81,1.87,2.68,2.86.45.48.88,1,1.32,1.5s.85,1,1.34,1.65l.19.27a3.13,3.13,0,1,1-5,3.73,3.18,3.18,0,0,1-.59-1.44,9.62,9.62,0,0,0-.42-1.61c-.18-.56-.39-1.1-.62-1.66a27.88,27.88,0,0,0-1.59-3.19,29.42,29.42,0,0,0-4.35-5.71,24.2,24.2,0,0,0-5.75-4.35,19,19,0,0,0-6.8-2.22h-.07a.94.94,0,1,1,.27-1.87Z"/></svg>