<svg id="ART-fills" xmlns="http://www.w3.org/2000/svg" viewBox="0 0 640 320"><defs><style>.cls-1{fill:#00007f;}.cls-2{fill:red;}.cls-3{fill:#0d0a09;}</style></defs><path class="cls-1" d="M357.47,163.9c-.14.18-.33.43-.44.54l-.27.25c-.18.17-.36.34-.53.48-.36.31-.69.62-1.05.9-.7.58-1.4,1.14-2.11,1.69s-1.42,1.06-2.14,1.56-1.45,1-2.19,1.46a60.57,60.57,0,0,1-9.18,4.84c-.77.38-1.6.62-2.4.94l-2.41.93c-.8.31-1.59.67-2.39,1.06l-2.45,1c-.41.17-.82.35-1.25.5l-1.28.35c-.86.22-1.73.38-2.61.52s-1.77.07-2.65.06a15.68,15.68,0,0,1-2.65-.19,32.27,32.27,0,0,1-5.16-1.22c-.84-.27-1.67-.51-2.5-.75s-1.63-.57-2.45-.81-1.64-.48-2.45-.74-1.65-.47-2.45-.75c-1.6-.61-3.22-1.17-4.78-1.89a70.25,70.25,0,0,1-9.13-4.86l-2.19-1.44c-.7-.52-1.45-1-2.16-1.52s-1.43-1.06-2.13-1.62-1.39-1.1-2.16-1.8l-.07-.06a2.56,2.56,0,1,1,3.44-3.79,2.77,2.77,0,0,1,.59.79,14,14,0,0,0,1.2,2c.46.68,1,1.34,1.48,2s1.07,1.26,1.63,1.88L292,168a38.91,38.91,0,0,0,8.15,5.83,33.49,33.49,0,0,0,9.42,3.57c.84.13,1.67.24,2.51.31s1.7,0,2.54,0c1.67,0,3.35-.31,5-.43.81,0,1.63-.19,2.44-.25s1.62-.13,2.43-.16a21.81,21.81,0,0,1,2.44-.11l1.24,0,1.24,0,2.53,0c.83-.1,1.66-.23,2.48-.41a9.9,9.9,0,0,0,1.22-.31c.39-.14.79-.29,1.17-.45a24.77,24.77,0,0,0,2.31-1,33.39,33.39,0,0,0,8.25-5.58,29.55,29.55,0,0,0,3.39-3.6c.49-.65,1-1.29,1.42-2,.23-.34.43-.68.62-1,.1-.18.19-.35.27-.52l.12-.25c0-.05-.06,0-.07,0a2.5,2.5,0,1,1,4.42,2.34Z"/><line class="cls-2" x1="351.56" y1="155.3" x2="369.92" y2="190.03"/><path class="cls-3" d="M353.25,154.41l17,35.47a.33.33,0,0,1-.58.3l-19.76-34a1.92,1.92,0,1,1,3.31-1.93A.61.61,0,0,1,353.25,154.41Z"/><line class="cls-2" x1="335.96" y1="161.88" x2="351.56" y2="200.89"/><path class="cls-3" d="M337.74,161.17l14.13,39.6a.33.33,0,0,1-.2.42.32.32,0,0,1-.41-.18l-17.08-38.42a1.92,1.92,0,1,1,3.5-1.56Z"/><line class="cls-2" x1="325.66" y1="170.47" x2="336.59" y2="218.69"/><path class="cls-3" d="M327.53,170l9.38,48.58a.33.33,0,0,1-.26.39.34.34,0,0,1-.38-.24l-12.48-47.88a1.92,1.92,0,1,1,3.71-1Z"/><line class="cls-2" x1="330.42" y1="166.32" x2="342.83" y2="209.44"/><path class="cls-3" d="M332.26,165.79l10.89,43.55a.33.33,0,0,1-.24.4.32.32,0,0,1-.39-.21l-13.94-42.68a1.92,1.92,0,0,1,3.65-1.19Z"/><line class="cls-2" x1="342.83" y1="162.85" x2="364.78" y2="202.59"/><path class="cls-3" d="M344.51,161.92l20.56,40.51a.33.33,0,0,1-.14.45.32.32,0,0,1-.43-.13l-23.34-39a1.91,1.91,0,1,1,3.28-2A.75.75,0,0,1,344.51,161.92Z"/><line class="cls-2" x1="319.5" y1="158.49" x2="321.03" y2="229.38"/><path class="cls-3" d="M321.79,158.45l-.36,70.92a.39.39,0,0,1-.4.39.39.39,0,0,1-.39-.37l-3.42-70.85a2.29,2.29,0,0,1,4.57-.22Z"/><line class="cls-2" x1="296.36" y1="150.42" x2="268.76" y2="193.79"/><path class="cls-3" d="M298,151.45,269,194a.34.34,0,0,1-.46.09.35.35,0,0,1-.1-.44l26.26-44.22a1.92,1.92,0,0,1,3.3,1.95A.86.86,0,0,1,298,151.45Z"/><line class="cls-2" x1="302.96" y1="165.02" x2="288.44" y2="207.12"/><path class="cls-3" d="M304.77,165.64l-16,41.59a.34.34,0,0,1-.43.19.32.32,0,0,1-.19-.4l13-42.62a1.91,1.91,0,1,1,3.66,1.12S304.78,165.6,304.77,165.64Z"/><line class="cls-2" x1="313.74" y1="168.5" x2="307.88" y2="212.21"/><path class="cls-3" d="M315.64,168.75l-7.44,43.5a.33.33,0,0,1-.38.27.34.34,0,0,1-.27-.35l4.29-43.93a1.92,1.92,0,0,1,3.82.37S315.65,168.71,315.64,168.75Z"/><line class="cls-2" x1="309.63" y1="164.03" x2="298.55" y2="216.42"/><path class="cls-3" d="M311.5,164.43l-12.63,52.06a.32.32,0,0,1-.4.24.32.32,0,0,1-.24-.37l9.53-52.73a1.92,1.92,0,0,1,3.77.68Z"/><line class="cls-2" x1="299.31" y1="160" x2="272.41" y2="207.12"/><path class="cls-3" d="M301,161,272.7,207.29a.35.35,0,0,1-.46.11.34.34,0,0,1-.12-.44l25.53-47.91a1.91,1.91,0,1,1,3.38,1.8Z"/></svg>