<svg xmlns="http://www.w3.org/2000/svg" viewBox="0 0 640 320"><defs><style>.cls-1{fill:aqua;}.cls-2{fill:blue;}.cls-3{fill:#00007f;}.cls-4{fill:#fcfcfc;}.cls-5{fill:#0d0a09;}</style></defs><g id="ART-fills"><path class="cls-1" d="M283.6,29c-.22-.23-.45-.44-.69-.65a9.56,9.56,0,0,0-14.49,2.39l-3.25,8.38-15,38.58a194.71,194.71,0,0,0,24.59-33,236.35,236.35,0,0,0,41.23,18Z"/><path class="cls-2" d="M274.77,44.71a194.71,194.71,0,0,1-24.59,33l-6,15.55L332.7,80.11,316,62.73A236.35,236.35,0,0,1,274.77,44.71Z"/><path class="cls-1" d="M243.21,85.28,196.62,63.77a9.54,9.54,0,0,0-12.32,7.28c-.06.32-.11.65-.14,1v48c9.12-13.38,9.52-29.23,8.66-45.37C209,81.11,226.23,85.76,243.21,85.28Z"/><path class="cls-2" d="M192.82,74.64c.86,16.14.46,32-8.66,45.37v20.16l74.45-47.79-15.4-7.1C226.23,85.76,209,81.11,192.82,74.64Z"/><path class="cls-2" d="M178.75,129.5c-11.92,9.88-27.43,13.17-43.2,13.08a101.26,101.26,0,0,1,3.36,42l17.33,36.86,44.94-89.65Z"/><path class="cls-1" d="M178.75,129.5l-3.51-.37-45.6-4.77c-7.49-2-15.52,2.82-13.81,11.2,4.58,9.77,18.45,39.21,23.08,49.07a101.26,101.26,0,0,0-3.36-42C151.32,142.67,166.83,139.38,178.75,129.5Z"/><path class="cls-1" d="M138.51,199.9,92.86,216.16l-6,2.15-9.17,3.27a9.54,9.54,0,0,0-2.82,15.09c.09.09.16.19.25.28.78.78,1.67,1.61,2.64,2.48,10.71,9.56,32.11,24.15,50.21,35.75-5-16.76-11.75-33.55-22.41-46.73C118.86,221.72,130.71,212.76,138.51,199.9Z"/><path class="cls-2" d="M151.85,287.75c7.62-9.24,6.82-20.95,2.64-39.37-3.39-14.9,8.7-34.73,1.14-42.66a24.53,24.53,0,0,0-6.66-5c-3.14-1.57-6.58-2.25-9.7-1.13l-.76.27c-7.8,12.86-19.65,21.82-33,28.55,10.66,13.18,17.43,30,22.41,46.73,7.18,4.6,13.84,8.73,19.09,11.89C149.15,288.35,150.47,289.43,151.85,287.75Z"/><path class="cls-1" d="M364.66,29c.23-.23.46-.44.7-.65a9.56,9.56,0,0,1,14.49,2.39l3.25,8.38,15,38.58a194.18,194.18,0,0,1-24.59-33,236.12,236.12,0,0,1-41.24,18Z"/><path class="cls-2" d="M373.5,44.71a194.18,194.18,0,0,0,24.59,33l6,15.55L315.57,80.11l16.69-17.38A236.12,236.12,0,0,0,373.5,44.71Z"/><path class="cls-1" d="M405.06,85.28l46.59-21.51A9.54,9.54,0,0,1,464,71.05c.06.32.11.65.14,1v48c-9.12-13.38-9.52-29.23-8.66-45.37C439.23,81.11,422,85.76,405.06,85.28Z"/><path class="cls-2" d="M455.45,74.64c-.86,16.14-.46,32,8.66,45.37v20.16L389.66,92.38l15.4-7.1C422,85.76,439.23,81.11,455.45,74.64Z"/><path class="cls-2" d="M469.52,129.5c11.92,9.88,27.43,13.17,43.2,13.08a101.26,101.26,0,0,0-3.36,42L492,221.49l-44.94-89.65Z"/><path class="cls-1" d="M469.52,129.5l3.51-.37,45.6-4.77c7.49-2,15.52,2.82,13.81,11.2-4.58,9.77-18.45,39.21-23.08,49.07a101.26,101.26,0,0,1,3.36-42C497,142.67,481.44,139.38,469.52,129.5Z"/><path class="cls-1" d="M509.76,199.9l45.65,16.26,6,2.15,9.17,3.27a9.54,9.54,0,0,1,2.82,15.09c-.09.09-.16.19-.25.28-.79.78-1.67,1.61-2.65,2.48-10.7,9.56-32.11,24.15-50.2,35.75,5-16.76,11.75-33.55,22.41-46.73C529.41,221.72,517.56,212.76,509.76,199.9Z"/><path class="cls-2" d="M481.65,285.86c2.11-7.43,5.87-23.72,8.23-36.58,2.76-15-10-41.45-2.41-49.38,1.83-1.92,9.32,2.1,11.83.86,3.14-1.57,6.58-2.25,9.7-1.13l.76.27c7.8,12.86,19.65,21.82,33,28.55-10.66,13.18-17.43,30-22.41,46.73-7.18,4.6-13.84,8.73-19.1,11.89-2.12,1.28-7.9,2.12-12.64,1.95C484.43,288.87,481.06,288,481.65,285.86Z"/><path class="cls-3" d="M497.91,270.7a5.1,5.1,0,0,0-.76.15l-.37.13-.29.14h.1l.26-.08.57-.19,1.18-.41,2.36-.9c1.57-.62,3.11-1.3,4.66-2,3.09-1.35,6.12-2.8,9.12-4.31q9-4.53,17.57-9.78a199.58,199.58,0,0,0,16.63-11.26c2.66-2,5.27-4.12,7.71-6.35,1.2-1.13,2.39-2.26,3.44-3.43.51-.59,1-1.19,1.4-1.73a5,5,0,0,0,.39-.74c0-.06,0-.06,0-.09s0-.09,0,0a.57.57,0,0,0-.14.13,2.57,2.57,0,0,0-.28.66,4.5,4.5,0,0,1,8.79,1.93,8,8,0,0,1-.5,1.25c-.14.23-.3.46-.45.68s-.27.32-.41.49-.27.31-.38.4a14.22,14.22,0,0,1-1.33,1.1c-.83.63-1.6,1.11-2.38,1.6-1.55.95-3,1.84-4.56,2.67l-8.9,5c-5.88,3.34-11.69,6.72-17.41,10.24s-11.39,7.14-17,10.93c-2.77,1.91-5.53,3.85-8.26,5.86-1.34,1-2.71,2-4.06,3.07l-2,1.58-1,.82-.53.42-.29.23-.2.14-.12.07-.33.15a2.74,2.74,0,0,1-.4.15,5,5,0,0,1-.84.18,4.5,4.5,0,0,1-.95-8.95Z"/><path class="cls-3" d="M482.9,199.22a4.11,4.11,0,0,0-1,1h0l.06,0,.18-.17.39-.39.8-.82,1.56-1.72c1-1.14,2-2.33,3-3.52,2-2.38,3.83-4.83,5.66-7.3q5.43-7.45,10.19-15.34a178.8,178.8,0,0,0,8.73-16.18c1.3-2.77,2.51-5.58,3.54-8.43.5-1.42,1-2.85,1.32-4.25a20.16,20.16,0,0,0,.38-2,2.9,2.9,0,0,0,0-.74c0-.06,0-.05,0-.06s0-.05-.05,0a1.09,1.09,0,0,0-.07.24,2.49,2.49,0,0,0,.08.84,4.5,4.5,0,0,1,8.64-2.5,6.39,6.39,0,0,1,.15,1.41c0,.27-.05.55-.09.82a4.71,4.71,0,0,1-.14.59c-.05.19-.1.38-.15.51a10.84,10.84,0,0,1-.66,1.47c-.43.86-.86,1.58-1.31,2.3-.89,1.41-1.76,2.75-2.65,4.06l-5.2,7.79c-3.42,5.17-6.73,10.36-9.9,15.64s-6.22,10.61-9.11,16.06q-2.16,4.1-4.18,8.29c-.66,1.4-1.33,2.8-1.95,4.24l-.95,2.16-.46,1.1-.25.57-.13.31-.11.21-.06.11a5.06,5.06,0,0,1-1.08,1.09,4.5,4.5,0,0,1-5.17-7.37Z"/><path class="cls-4" d="M558.26,227.19a1.26,1.26,0,0,0,.34.21l0,0-.08,0-.19-.08-.41-.16-.83-.32-1.67-.61c-1.13-.41-2.26-.77-3.39-1.16-2.27-.72-4.55-1.43-6.85-2.07-4.58-1.31-9.22-2.44-13.88-3.48-2.33-.49-4.67-1-7-1.41s-4.69-.84-7-1.14-4.72-.58-7-.74c-1.16,0-2.32-.11-3.4-.07a10.45,10.45,0,0,0-1.48.13,1.09,1.09,0,0,0-.44.15s0,0,0,0,0,0,.1,0a1.65,1.65,0,0,0,.32,0,3,3,0,0,0,.83-.35,4.5,4.5,0,0,1-4.74-7.65,6.63,6.63,0,0,1,1.25-.52l.75-.14c.25,0,.36,0,.55,0a3.5,3.5,0,0,1,.46,0,9,9,0,0,1,1.35.17c.79.14,1.44.31,2.09.49,1.28.37,2.47.74,3.65,1.15,2.36.77,4.65,1.59,6.94,2.38l6.83,2.38,6.82,2.31c4.55,1.49,9.09,3,13.67,4.35,2.28.7,4.58,1.36,6.88,2l3.47.92,1.74.45.88.21.45.11.23.07.13,0,.07,0a1.83,1.83,0,0,1,.45.25,1.41,1.41,0,0,1,.2,2A1.39,1.39,0,0,1,558.26,227.19Z"/><path class="cls-4" d="M513.37,131.16a.75.75,0,0,0,.21,0l.1,0-.17,0-.35.06-.73.12-1.45.29c-1,.2-1.93.43-2.9.65-1.92.47-3.83,1-5.73,1.52-3.81,1.08-7.56,2.35-11.29,3.68-1.85.7-3.7,1.41-5.54,2.15s-3.65,1.52-5.43,2.38-3.54,1.73-5.22,2.68c-.83.49-1.64,1-2.36,1.5-.19.13-.33.26-.49.38a2.52,2.52,0,0,0-.4.36c-.09.11-.26.26-.13.26h.07l.09-.06a2.61,2.61,0,0,0,.8-1,4.5,4.5,0,1,1-8.06-4,6.56,6.56,0,0,1,1.28-1.54,1,1,0,0,1,.23-.17l.17-.11.35-.21a6.43,6.43,0,0,1,1.14-.52,9.07,9.07,0,0,1,.92-.31c.29-.08.59-.19.85-.25,1.1-.27,2.13-.52,3.15-.72,2-.45,4-.82,6-1.23s3.93-.83,5.9-1.21l5.84-1.27,5.81-1.36c1.92-.5,3.85-.94,5.76-1.48s3.83-1.05,5.73-1.6l2.85-.88,1.42-.46.71-.24.37-.12.19-.07a1.83,1.83,0,0,1,.28-.05,1.79,1.79,0,0,1,.4,0,1.41,1.41,0,0,1-.37,2.79Z"/><path class="cls-4" d="M455.08,70.12a.76.76,0,0,0,.21,0c.06,0,.16-.07.09,0l-.16.07-.33.13-.68.29-1.35.61c-.9.41-1.78.85-2.68,1.28-1.76.9-3.51,1.81-5.24,2.78-3.46,1.91-6.83,4-10.16,6.13q-2.47,1.65-4.91,3.34c-1.6,1.17-3.22,2.31-4.76,3.55s-3.06,2.48-4.48,3.78c-.7.67-1.38,1.33-2,2-.15.17-.26.33-.39.49a2.8,2.8,0,0,0-.31.44c-.06.13-.19.31-.06.28H418s0,0,.07-.07A2.62,2.62,0,0,0,418.6,94a4.5,4.5,0,1,1-8.75-2.08,6.69,6.69,0,0,1,.9-1.79,1.45,1.45,0,0,1,.18-.22l.14-.14.3-.28a5.49,5.49,0,0,1,1-.77,9.42,9.42,0,0,1,.83-.51c.26-.14.53-.31.77-.43,1-.51,2-1,2.91-1.42,1.88-.89,3.73-1.7,5.56-2.55s3.65-1.69,5.48-2.5l5.4-2.56,5.35-2.64c1.76-.91,3.55-1.78,5.29-2.73s3.49-1.89,5.22-2.86l2.57-1.5,1.28-.76.64-.4.34-.2.16-.11.27-.12.38-.11a1.41,1.41,0,0,1,.27,2.81Z"/><path class="cls-4" d="M370.75,36.28c.05,0,.17-.12.13-.09l-.08.07-.16.15-.34.31-.66.65-1.3,1.31c-.85.89-1.69,1.79-2.5,2.72-1.64,1.84-3.19,3.75-4.71,5.69s-3,3.94-4.31,6c-.67,1-1.31,2.07-1.89,3.12-.28.53-.55,1.06-.77,1.57a4.32,4.32,0,0,0-.25.7c0,.1-.06.23,0,.2s0,0,.05,0A1.4,1.4,0,0,0,354,58a2.5,2.5,0,0,1-5,.53,4.33,4.33,0,0,1,.15-1.13,3.72,3.72,0,0,1,.21-.47,3.62,3.62,0,0,1,.41-.63,10,10,0,0,1,.71-.88c.47-.51.91-1,1.37-1.44l2.69-2.68c1.79-1.75,3.54-3.51,5.28-5.27s3.44-3.55,5.1-5.37c.84-.91,1.66-1.83,2.47-2.76l1.21-1.41.59-.71.3-.37.15-.18.08-.09a1.43,1.43,0,0,1,.3-.25.79.79,0,0,1,.67,1.42Z"/><path class="cls-4" d="M372.2,34.51a1.9,1.9,0,0,1,.2.34,1.3,1.3,0,0,1,.11.26l.05.2.1.37.19.73.4,1.44.83,2.86c.59,1.89,1.18,3.79,1.82,5.66s1.31,3.75,2,5.63l2.07,5.59,2.16,5.58c.76,1.85,1.45,3.72,2.24,5.58s1.53,3.75,2.28,5.69c.39,1,.76,2,1.13,3,.09.26.17.57.26.85a7.41,7.41,0,0,1,.25.94,5.9,5.9,0,0,1,.19,1.24l0,.41v.2a2.18,2.18,0,0,1,0,.29,6.4,6.4,0,0,1-.58,1.91,4.5,4.5,0,1,1-7.78-4.52,2.71,2.71,0,0,0-.37,1.2c0,.15,0,.08,0,.11l0,0,0,0c.06.11.1-.11.14-.24a1.93,1.93,0,0,0,.08-.54,5.77,5.77,0,0,0,0-.62c0-.89,0-1.83,0-2.8-.13-1.92-.35-3.88-.64-5.83s-.65-3.89-1-5.84-.82-3.87-1.26-5.81c-.94-3.84-1.95-7.67-3.15-11.44-.58-1.89-1.22-3.77-1.89-5.63-.35-.92-.68-1.86-1-2.77l-.56-1.37-.3-.68-.14-.33-.08-.15c0-.07,0,0,0,.09a.55.55,0,0,0,.13.17,1.41,1.41,0,1,1,2.13-1.84Z"/><path class="cls-4" d="M88.23,225a1.83,1.83,0,0,1,.45-.25l.07,0,.13,0,.23-.07.45-.11.88-.21,1.74-.45,3.47-.92c2.3-.65,4.6-1.31,6.88-2,4.58-1.36,9.12-2.86,13.67-4.35l6.82-2.31,6.83-2.38c2.29-.79,4.58-1.61,6.94-2.38,1.18-.41,2.37-.78,3.65-1.15.65-.18,1.3-.35,2.08-.49a9.31,9.31,0,0,1,1.36-.17,3.5,3.5,0,0,1,.46,0c.19,0,.3,0,.55,0l.75.14a6.55,6.55,0,0,1,1.24.52,4.5,4.5,0,1,1-4.74,7.65,3.13,3.13,0,0,0,.84.35,1.65,1.65,0,0,0,.32,0c.1,0,.06,0,.1,0s0,0,0,0a1.09,1.09,0,0,0-.44-.15,10.45,10.45,0,0,0-1.48-.13c-1.08,0-2.24,0-3.4.07-2.32.16-4.69.41-7,.74s-4.7.74-7,1.14-4.68.92-7,1.41c-4.65,1-9.29,2.17-13.87,3.48-2.3.64-4.58,1.35-6.85,2.07-1.13.39-2.27.75-3.39,1.16l-1.68.61-.82.32-.41.16-.19.09-.08,0,0,0a1.16,1.16,0,0,0,.35-.21A1.41,1.41,0,0,1,88.23,225Z"/><path class="cls-4" d="M134.53,128.37a2.7,2.7,0,0,1,.68.07l.19.07.36.12.72.24,1.42.46,2.85.88c1.9.55,3.81,1.11,5.73,1.6s3.84,1,5.76,1.48l5.81,1.36,5.84,1.27c2,.38,3.91.84,5.9,1.21s4,.78,6,1.23c1,.2,2.05.45,3.14.72.27.06.57.17.86.25a9.07,9.07,0,0,1,.92.31,6.43,6.43,0,0,1,1.14.52l.35.21.17.11a1,1,0,0,1,.23.17,6.56,6.56,0,0,1,1.28,1.54,4.5,4.5,0,0,1-8.06,4,2.61,2.61,0,0,0,.8,1l.09.06h.06c.14,0,0-.15-.12-.26a2.52,2.52,0,0,0-.4-.36c-.16-.12-.3-.25-.49-.38-.72-.52-1.53-1-2.36-1.5-1.68-1-3.44-1.85-5.22-2.68s-3.61-1.6-5.44-2.38-3.68-1.45-5.53-2.15c-3.73-1.33-7.48-2.6-11.29-3.68-1.9-.55-3.81-1-5.73-1.52-1-.22-1.93-.45-2.9-.65l-1.45-.29-.73-.12-.35-.06-.18,0,.11,0a.75.75,0,0,0,.21,0,1.41,1.41,0,0,1-.37-2.79Z"/><path class="cls-4" d="M193.46,67.31l.38.11.27.12.16.11.33.2.64.4,1.29.76,2.57,1.5c1.73,1,3.46,1.94,5.22,2.86s3.53,1.82,5.29,2.73L215,78.74l5.41,2.56c1.83.81,3.62,1.69,5.47,2.5s3.69,1.66,5.57,2.55c1,.43,1.9.91,2.9,1.42.25.12.52.29.78.43a9.42,9.42,0,0,1,.83.51,5.49,5.49,0,0,1,1,.77l.29.28.15.14a1.45,1.45,0,0,1,.18.22,6.69,6.69,0,0,1,.9,1.79A4.5,4.5,0,1,1,229.67,94a2.62,2.62,0,0,0,.56,1.13c.09.11.05,0,.07.07h.07c.13,0,0-.15-.06-.28a2.8,2.8,0,0,0-.31-.44c-.13-.16-.24-.32-.4-.49-.58-.66-1.26-1.32-2-2-1.42-1.3-2.93-2.58-4.48-3.78s-3.16-2.38-4.76-3.55-3.26-2.24-4.91-3.34c-3.33-2.14-6.7-4.22-10.16-6.13-1.73-1-3.48-1.88-5.25-2.78-.89-.43-1.77-.87-2.67-1.28l-1.35-.61-.68-.29-.33-.13-.17-.07.1,0a.76.76,0,0,0,.21,0,1.41,1.41,0,0,1,.27-2.81Z"/><path class="cls-4" d="M278.19,34.86a1.43,1.43,0,0,1,.3.25l.08.09.15.18.29.37.6.71,1.21,1.41c.81.93,1.63,1.85,2.47,2.76,1.66,1.82,3.38,3.59,5.1,5.37s3.49,3.52,5.27,5.27L296.35,54c.46.46.91.93,1.38,1.44.23.28.46.52.71.88a3.15,3.15,0,0,1,.4.63,2.62,2.62,0,0,1,.22.47,3.94,3.94,0,0,1,.14,1.13,2.5,2.5,0,0,1-5-.53,1.4,1.4,0,0,0,.08.67c.05.09,0,0,.05,0s0-.1,0-.2a4.32,4.32,0,0,0-.25-.7c-.22-.51-.49-1-.77-1.57-.58-1.05-1.22-2.1-1.89-3.12-1.34-2.06-2.81-4.05-4.31-6s-3.07-3.85-4.71-5.69c-.81-.93-1.65-1.83-2.5-2.72l-1.3-1.31-.66-.65-.34-.31-.16-.15-.09-.07s.09.08.14.09a.79.79,0,0,1,.67-1.42Z"/><path class="cls-4" d="M278.2,36.35a.76.76,0,0,0,.13-.17s.06-.16,0-.09l-.08.15-.15.33-.29.68-.56,1.37c-.37.91-.71,1.85-1.06,2.77-.66,1.86-1.3,3.74-1.88,5.63-1.2,3.77-2.21,7.6-3.15,11.44-.44,1.94-.87,3.87-1.26,5.81s-.75,3.88-1,5.84-.51,3.91-.64,5.83c-.05,1-.09,1.91-.05,2.8a5.77,5.77,0,0,0,.05.62,1.93,1.93,0,0,0,.08.54c0,.13.07.35.14.24l0,0v0s0,0,0-.11a2.71,2.71,0,0,0-.37-1.2,4.5,4.5,0,0,1-7.79,4.52,6.68,6.68,0,0,1-.57-1.91,2.18,2.18,0,0,1,0-.29v-.2l0-.41a5.9,5.9,0,0,1,.19-1.24,7.41,7.41,0,0,1,.25-.94c.08-.28.17-.59.26-.85.37-1.06.73-2.06,1.13-3,.75-1.94,1.53-3.81,2.28-5.69s1.48-3.73,2.24-5.58l2.16-5.58L270.41,52c.65-1.88,1.35-3.74,1.95-5.63s1.24-3.77,1.82-5.66l.84-2.86.4-1.44.19-.73.1-.37.05-.2a1.3,1.3,0,0,1,.11-.26,1.9,1.9,0,0,1,.2-.34,1.41,1.41,0,1,1,2.13,1.84Z"/><path class="cls-3" d="M149.41,279.65a5,5,0,0,1-.84-.18,2.74,2.74,0,0,1-.4-.15l-.33-.15-.12-.07-.2-.14-.29-.23-.53-.42-1-.82-2-1.58c-1.34-1.05-2.71-2-4.06-3.07-2.72-2-5.48-3.95-8.26-5.86q-8.34-5.69-17-10.93c-5.72-3.52-11.53-6.9-17.41-10.24l-8.9-5c-1.52-.83-3-1.72-4.56-2.67-.78-.49-1.55-1-2.38-1.6a13,13,0,0,1-1.33-1.1,5,5,0,0,1-.38-.4c-.14-.17-.23-.24-.41-.49s-.31-.45-.45-.68a8,8,0,0,1-.5-1.25,4.5,4.5,0,0,1,8.79-1.93,2.29,2.29,0,0,0-.29-.66.4.4,0,0,0-.13-.13c-.08-.07,0,0,0,0s0,0,0,.09a4.17,4.17,0,0,0,.39.74c.38.54.89,1.14,1.4,1.73,1,1.17,2.24,2.3,3.44,3.43,2.44,2.23,5,4.33,7.71,6.35A199.58,199.58,0,0,0,116,253.5q8.57,5.24,17.57,9.78c3,1.51,6,3,9.12,4.31,1.55.65,3.09,1.33,4.66,2l2.35.9,1.19.41.57.19.26.08h.1l-.29-.14-.37-.13a5.1,5.1,0,0,0-.76-.15,4.5,4.5,0,0,1-1,8.95Z"/><path class="cls-3" d="M159.47,213.46a4.5,4.5,0,0,1-.65-.59c-.1-.1-.2-.22-.29-.33l-.21-.3-.06-.13c0-.08-.09-.17-.11-.22l-.13-.34-.25-.62-.45-1.2-.93-2.36c-.62-1.57-1.3-3.1-1.93-4.65-1.32-3.07-2.71-6.1-4.13-9.11-2.85-6-5.87-11.91-9-17.76s-6.4-11.63-9.76-17.4l-5.1-8.72c-.88-1.47-1.71-3-2.56-4.55-.42-.8-.84-1.61-1.23-2.55a12.82,12.82,0,0,1-.59-1.61c0-.15-.08-.36-.12-.54a3.79,3.79,0,0,1-.1-.63,7,7,0,0,1,0-.81,8,8,0,0,1,.18-1.28,4.5,4.5,0,0,1,8.59,2.7,2.2,2.2,0,0,0,.08-.67.53.53,0,0,0-.06-.19c0-.09,0,0,0,0s0,0,0,.08a3.89,3.89,0,0,0,0,.81,21,21,0,0,0,.31,2.17c.3,1.52.76,3.08,1.21,4.64,1,3.12,2.14,6.21,3.4,9.26A195.4,195.4,0,0,0,144,174.43q4.69,8.74,10.12,17.09c1.82,2.77,3.68,5.52,5.65,8.2,1,1.33,2,2.67,3,4l1.56,1.94.8.93.4.45.19.19s0,0,.06,0h0l-.19-.26a3.88,3.88,0,0,0-.26-.31,4.3,4.3,0,0,0-.61-.52,4.5,4.5,0,1,1-5.25,7.3Z"/><path class="cls-3" d="M189.9,144.3a7.39,7.39,0,0,1,.42-.66c.12-.17.16-.2.24-.31l.43-.52.84-1c.55-.63,1.1-1.25,1.66-1.85,1.12-1.22,2.23-2.41,3.38-3.57,2.3-2.3,4.59-4.58,7-6.74,1.17-1.1,2.41-2.13,3.6-3.21s2.42-2.11,3.67-3.12c2.48-2,5-4,7.55-5.94,5.12-3.84,10.44-7.38,15.87-10.7l4.12-2.42,4.2-2.27c1.38-.78,2.82-1.46,4.23-2.19s2.85-1.41,4.3-2.07c2.85-1.39,5.8-2.58,8.72-3.83s5.9-2.35,8.88-3.46,6-2.24,8.94-3.41l4.54-1.59,2.28-.79,2.31-.7,4.64-1.37c1.56-.39,3.13-.75,4.71-1.09l2.37-.51,2.39-.37c1.59-.24,3.19-.45,4.8-.65s3.21-.24,4.82-.33,3.22-.22,4.84-.16,3.22,0,4.83.07,3.22.15,4.82.29c12.88,1,25.37,4.26,37.49,7.84,6.09,1.75,12.13,3.66,18.05,5.9s11.71,4.83,17.41,7.6a214.13,214.13,0,0,1,32.44,20c5.14,3.8,10.08,7.87,14.92,12.11,2.4,2.13,4.78,4.31,7.11,6.55,1.16,1.13,2.31,2.27,3.46,3.44s2.25,2.31,3.46,3.66a4.52,4.52,0,1,1-6.73,6,4.75,4.75,0,0,1-.54-.73c-.68-1.17-1.58-2.49-2.45-3.72s-1.8-2.5-2.74-3.72c-1.89-2.44-3.85-4.85-5.93-7.16a158.43,158.43,0,0,0-13.18-13.25,166.21,166.21,0,0,0-30.61-21.69c-1.36-.79-2.78-1.47-4.17-2.2s-2.79-1.44-4.23-2.08l-4.28-2-4.36-1.8a119,119,0,0,0-17.94-5.77c-3.05-.76-6.17-1.23-9.27-1.7-1.54-.26-3.12-.35-4.68-.52s-3.11-.32-4.68-.35c-3.14-.11-6.25-.31-9.37-.21h-4.66c-1.56.06-3.11.16-4.66.19-12.4.45-24.59,1.57-37,2.82l-2.33.25-2.31.36c-1.54.24-3.1.44-4.63.73a92.12,92.12,0,0,0-18,5.36c-2.86,1.28-5.74,2.51-8.53,3.94-1.41.69-2.81,1.39-4.17,2.17s-2.76,1.47-4.1,2.28l-4,2.44-3.93,2.57a142.88,142.88,0,0,0-14.8,11.46c-2.35,2-4.59,4.22-6.78,6.42-1.1,1.1-2.15,2.24-3.23,3.36s-2.08,2.3-3.08,3.49c-2,2.35-4,4.76-5.75,7.25-.89,1.25-1.78,2.5-2.6,3.78-.42.63-.81,1.27-1.2,1.91l-.55,1-.24.44c0,.06-.11.19-.09.19a.86.86,0,0,0,.1-.16,4.5,4.5,0,1,1-8-4Z"/></g><g id="ART-strokes"><path class="cls-5" d="M243.08,84.54c2.25-4.43,4.38-8.9,6.45-13.4s4.09-9,6.11-13.54q6-13.59,11.49-27.35l0-.11.05-.09a11,11,0,0,1,14.35-4.2,10.6,10.6,0,0,1,2.27,1.52c.72.64,1.22,1.23,1.78,1.79,4.44,4.62,8.9,9.22,13.43,13.75s9.12,9,13.77,13.43,9.35,8.8,14.23,13a4,4,0,0,1-5.25,6.1,5.61,5.61,0,0,1-.58-.62c-3.9-5.13-8-10.08-12.1-15s-8.32-9.76-12.57-14.55S288,35.75,283.64,31c-.55-.59-1.1-1.21-1.58-1.64a8.52,8.52,0,0,0-1.7-1.16,8,8,0,0,0-4-.87,8.08,8.08,0,0,0-6.74,4.09l.09-.2q-5.27,13.86-10.13,27.89c-1.59,4.69-3.21,9.36-4.71,14.08s-3,9.45-4.35,14.23a4,4,0,0,1-7.73-2.2A4.14,4.14,0,0,1,243.08,84.54Z"/><path class="cls-5" d="M180.16,129.45c.53-4.79.88-9.57,1.2-14.36.19-2.39.28-4.78.42-7.17s.26-4.79.36-7.18c.41-9.57.6-19.14.67-28.71v-.11a11,11,0,0,1,1.5-4.62,11.26,11.26,0,0,1,3.35-3.52,11.05,11.05,0,0,1,9.39-1.36l.06,0,.08,0q12.62,5.4,25.39,10.43c4.28,1.64,8.54,3.33,12.85,4.88s8.63,3.12,13,4.55a4,4,0,1,1-2.5,7.64,4.08,4.08,0,0,1-.74-.33q-6-3.41-12.1-6.56c-4.05-2.15-8.16-4.17-12.24-6.24Q208.52,70.76,196,65.06l.14,0a8.08,8.08,0,0,0-3.62-.37A8.18,8.18,0,0,0,189.14,66a8,8,0,0,0-2.53,2.64,8.12,8.12,0,0,0-1.1,3.49V72c.07,9.57.26,19.14.67,28.71q.15,3.58.36,7.18c.14,2.39.23,4.78.42,7.17.32,4.79.68,9.57,1.2,14.36a4,4,0,1,1-8,.88A4.31,4.31,0,0,1,180.16,129.45Z"/><path class="cls-5" d="M140.83,200.45c-1.91-5.48-4-10.9-6.07-16.3-1-2.72-2.13-5.39-3.2-8.08s-2.15-5.38-3.25-8.06c-4.4-10.71-9-21.33-13.71-31.9l-.06-.12,0-.14A11,11,0,0,1,122,123a11.15,11.15,0,0,1,2.68-.46,10.25,10.25,0,0,1,1.36,0l1.19.1q9.51.79,19,1.4c6.36.42,12.72.71,19.09,1s12.75.45,19.15.4a4,4,0,0,1,.05,8,3.51,3.51,0,0,1-.8-.07c-6.27-1.24-12.57-2.21-18.87-3.17s-12.6-1.83-18.92-2.59-12.64-1.52-19-2.18l-1.18-.13a9,9,0,0,0-1,0,7.58,7.58,0,0,0-2,.3,8.19,8.19,0,0,0-5.66,9.63l-.09-.26c4.84,10.51,9.79,21,14.93,31.34,1.28,2.6,2.59,5.19,3.91,7.76s2.6,5.18,4,7.74c2.68,5.13,5.39,10.26,8.25,15.31a4,4,0,1,1-7,4A3.89,3.89,0,0,1,140.83,200.45Z"/><path class="cls-5" d="M148.54,291.78c-.24-.06-.5-.14-.71-.21l-.37-.16-.56-.28c-.31-.16-.6-.33-.86-.49-.54-.32-1-.64-1.55-1l-2.91-1.92-5.67-3.86-11.22-7.76-11.13-7.81-11.07-7.9c-7.31-5.36-14.66-10.68-21.65-16.52-1.73-1.48-3.48-2.95-5.17-4.51l-1.25-1.19a13.28,13.28,0,0,1-1.28-1.38A11.11,11.11,0,0,1,77,220.18l.06,0,.11,0c5.54-2,11.1-3.93,16.61-6s11-4,16.55-6.15l8.26-3.13,8.23-3.21q8.22-3.21,16.39-6.61a4,4,0,1,1,3.08,7.4,4.91,4.91,0,0,1-.5.17q-8.53,2.29-17,4.77l-8.48,2.49-8.45,2.56c-5.64,1.69-11.24,3.49-16.86,5.24s-11.2,3.6-16.8,5.4l.17-.07a8,8,0,0,0-3.95,4,8.23,8.23,0,0,0-.35,5.64,8.12,8.12,0,0,0,1.31,2.57,23,23,0,0,0,2.2,2.27c1.62,1.52,3.29,3,5,4.42,7,5.67,14.28,10.94,21.78,15.92l5.65,3.72,5.72,3.6c3.83,2.39,7.68,4.73,11.59,7s7.83,4.47,11.8,6.59c2,1.06,4,2.07,6,3.06,1,.5,2,1,3,1.41.5.22,1,.44,1.46.62.23.1.45.18.65.25l.22.06h0a1.17,1.17,0,0,0-.3-.1,4,4,0,0,1-1.59,7.84Z"/><path class="cls-5" d="M397.74,87.46c-1.36-4.78-2.83-9.52-4.35-14.23s-3.12-9.39-4.71-14.08q-4.85-14-10.13-27.89l.09.2a8.08,8.08,0,0,0-6.75-4.09,8,8,0,0,0-4,.87,8.17,8.17,0,0,0-1.69,1.16c-.48.43-1,1.05-1.58,1.64-4.34,4.71-8.66,9.44-12.91,14.24s-8.44,9.64-12.57,14.55-8.21,9.86-12.1,15A4,4,0,1,1,320.64,70a4.8,4.8,0,0,1,.58-.61c4.88-4.2,9.58-8.58,14.23-13s9.24-8.89,13.77-13.43,9-9.13,13.42-13.75c.57-.56,1.06-1.15,1.79-1.79a10.78,10.78,0,0,1,2.26-1.52,11,11,0,0,1,14.36,4.2l.05.09,0,.11Q386.69,44,392.63,57.6c2,4.52,4,9.05,6.1,13.54s4.21,9,6.46,13.4A4,4,0,0,1,398,88.18,5.34,5.34,0,0,1,397.74,87.46Z"/><path class="cls-5" d="M460.11,129.45c.52-4.79.88-9.57,1.2-14.36.18-2.39.28-4.78.42-7.17s.26-4.79.35-7.18c.41-9.57.61-19.14.67-28.71v.12a8.26,8.26,0,0,0-1.1-3.49A8,8,0,0,0,459.13,66a8.18,8.18,0,0,0-3.42-1.28,8.08,8.08,0,0,0-3.62.37l.13,0q-12.48,5.72-24.79,11.79c-4.08,2.07-8.19,4.09-12.24,6.24s-8.11,4.29-12.11,6.56a4,4,0,1,1-4-7,3.65,3.65,0,0,1,.73-.33c4.37-1.43,8.7-3,13-4.55s8.57-3.24,12.85-4.88q12.78-5,25.39-10.43l.08,0,.06,0a11.05,11.05,0,0,1,9.39,1.36A11.26,11.26,0,0,1,464,67.3a11,11,0,0,1,1.5,4.62V72c.07,9.57.26,19.14.67,28.71q.15,3.58.35,7.18c.15,2.39.24,4.78.42,7.17.33,4.79.68,9.57,1.21,14.36a4,4,0,1,1-8,.88A4.31,4.31,0,0,1,460.11,129.45Z"/><path class="cls-5" d="M500.16,197.15c2.86-5.05,5.57-10.18,8.25-15.31,1.36-2.56,2.64-5.16,4-7.74s2.62-5.16,3.9-7.76c5.15-10.37,10.1-20.83,14.94-31.34l-.09.26a8.19,8.19,0,0,0-5.66-9.63,7.58,7.58,0,0,0-2-.3,9,9,0,0,0-1,0l-1.18.13q-9.5,1-19,2.18c-6.32.76-12.62,1.67-18.92,2.59s-12.6,1.93-18.87,3.17a4,4,0,1,1-1.55-7.89,4.43,4.43,0,0,1,.8-.08c6.4.05,12.78-.17,19.15-.4s12.73-.56,19.08-1,12.71-.87,19.05-1.4l1.19-.1a10.11,10.11,0,0,1,1.35,0,11.14,11.14,0,0,1,2.69.46,11,11,0,0,1,7.52,12.82l0,.14-.06.12C529,146.68,524.36,157.3,520,168c-1.1,2.68-2.19,5.36-3.26,8.06s-2.17,5.36-3.19,8.08c-2.09,5.4-4.16,10.82-6.07,16.3a4,4,0,1,1-7.58-2.64A3.54,3.54,0,0,1,500.16,197.15Z"/><path class="cls-5" d="M498.14,283.94a1.17,1.17,0,0,0-.3.1h0l.22-.06c.2-.07.42-.15.65-.25.47-.18,1-.4,1.46-.62,1-.44,2-.91,3-1.41,2-1,4-2,6-3.06q6-3.18,11.8-6.59c3.91-2.24,7.76-4.58,11.59-7l5.72-3.6,5.64-3.72c7.51-5,14.84-10.25,21.79-15.92,1.74-1.41,3.41-2.9,5-4.42a23,23,0,0,0,2.2-2.27,8.1,8.1,0,0,0,.95-8.21,7.9,7.9,0,0,0-3.95-4l.18.07c-5.6-1.8-11.18-3.66-16.8-5.4s-11.22-3.55-16.87-5.24L528,209.85l-8.47-2.49q-8.47-2.48-17-4.77a4,4,0,1,1,2.08-7.74,2.67,2.67,0,0,1,.5.17q8.16,3.39,16.39,6.61l8.23,3.21L538,208c5.49,2.11,11,4.1,16.55,6.15s11.07,4,16.61,6l.11,0,.06,0a11,11,0,0,1,3.82,16.65,12.22,12.22,0,0,1-1.27,1.38l-1.25,1.19c-1.69,1.56-3.44,3-5.17,4.51-7,5.84-14.34,11.16-21.65,16.52l-11.07,7.9-11.13,7.81-11.22,7.76-5.67,3.86-2.91,1.92c-.5.32-1,.64-1.55,1-.26.16-.56.33-.87.49l-.55.28-.37.16c-.21.07-.47.15-.71.21a4,4,0,0,1-1.59-7.84Z"/></g></svg>