<svg xmlns="http://www.w3.org/2000/svg" viewBox="0 0 640 160"><defs><style>.cls-1{fill:#5b2e42;}.cls-2{fill:#914e6d;}.cls-3{fill:#7f4a60;}.cls-4{fill:#0d0a09;}</style></defs><g id="ART-fills"><path class="cls-1" d="M236.12,73.44c6,16,1,40,20,48,2,1,2-6,2-9-3-14-9-28,0-40,4.36-6.53,11.39-8.61,19-8.84,1.16-15,4.54-29.49,12.54-41,0,0-72.43-7.78-72.26,29a125.69,125.69,0,0,0,.53,19.91C225.48,69.3,234.35,69,236.12,73.44Z"/><path class="cls-2" d="M268.12,134.44c-4,3-9,1-13-2-12.49-10-19.44-26.22-32.38-36,5.27,17.55,15.42,36.14,34.88,47.43,18.74,10.87,21.76.21,21.22-19.42C275.21,127.91,272,132,268.12,134.44Z"/><path class="cls-3" d="M277.11,63.6c-7.6.23-14.63,2.31-19,8.84-9,12-3,26,0,40,0,3,0,10-2,9-19-8-14-32-20-48-1.77-4.44-10.64-4.14-18.2-1.92a132.43,132.43,0,0,0,4.82,24.93c12.94,9.77,19.89,26,32.38,36,4,3,9,5,13,2,3.9-2.43,7.09-6.53,10.72-10C278.39,108,275.43,85.26,277.11,63.6Z"/><path class="cls-4" d="M248.83,35.72a97.42,97.42,0,0,0-1.48,12.75c-.27,4.28-.3,8.57-.16,12.84q.13,3.21.41,6.4c.23,2.12.42,4.24.8,6.33a49.89,49.89,0,0,0,3.27,12,4.36,4.36,0,0,1-8,3.54,4.16,4.16,0,0,1-.38-1.6v-.09c-.17-4.75,0-9.17.18-13.58.07-1.1.11-2.19.17-3.28l.21-3.27c.15-2.17.28-4.34.48-6.5.29-4.31.69-8.61,1-12.91s.64-8.58.8-12.93a1.34,1.34,0,0,1,2.68.1,1.23,1.23,0,0,1,0,.19Z"/></g><g id="ART-strokes"><path class="cls-4" d="M221.39,27.5a167.8,167.8,0,0,0-1.45,16.8c-.23,5.66-.18,11.33.07,17s.8,11.32,1.61,16.92A134,134,0,0,0,225,94.84a109.76,109.76,0,0,0,5.63,16,82,82,0,0,0,8.43,14.62,64,64,0,0,0,11.56,12.2,57.74,57.74,0,0,0,6.94,4.78A40.75,40.75,0,0,0,265.1,146c2.56.87,5.35,1.33,7.51.31s3.42-3.5,4.07-6.11a40.07,40.07,0,0,0,1-8.26c.1-2.82.06-5.67-.05-8.51-.2-5.7-.68-11.41-1.13-17.13s-.88-11.46-1.21-17.21-.54-11.53-.49-17.32a152.12,152.12,0,0,1,1-17.42,97.21,97.21,0,0,1,3.53-17.31,67.34,67.34,0,0,1,7.4-16.45l5.75,4a56.26,56.26,0,0,0-7.87,14.27A87.14,87.14,0,0,0,280.35,55a141.41,141.41,0,0,0-1.77,16.87c-.25,5.68-.25,11.38-.12,17.09.32,11.43,1.28,22.85,1.69,34.38.08,2.89.11,5.79,0,8.7a42.08,42.08,0,0,1-1.17,8.77,16.06,16.06,0,0,1-1.76,4.28,8.66,8.66,0,0,1-3.58,3.35,9.59,9.59,0,0,1-4.79.8,18.87,18.87,0,0,1-4.49-1,42.78,42.78,0,0,1-8-3.77,59.3,59.3,0,0,1-7.25-4.93,67.8,67.8,0,0,1-12.25-12.51c-7-9.36-11.9-20.16-15.28-31.27a175.35,175.35,0,0,1-6.46-34.2c-.56-5.78-.86-11.58-1-17.39-.07-2.91-.06-5.82,0-8.74s.13-5.79.35-8.83Z"/></g></svg>