<svg id="ART-fills" xmlns="http://www.w3.org/2000/svg" viewBox="0 0 640 160"><defs><style>.cls-1{fill:#00007f;}.cls-2{fill:blue;}.cls-3{fill:#0d0a09;}</style></defs><path class="cls-1" d="M343.58,104.13c0,6.66-10.56,12.06-23.58,12.06s-23.58-5.4-23.58-12.06S307,84.83,320,84.83,343.58,97.47,343.58,104.13Z"/><path class="cls-2" d="M300.31,116.71c0-15.06,8.82-19.48,19.69-19.48s19.69,4.42,19.69,19.48"/><path class="cls-3" d="M299.11,116.71a26,26,0,0,1,.32-8.42,16.71,16.71,0,0,1,4.14-8,17.88,17.88,0,0,1,7.82-4.7A28.86,28.86,0,0,1,320,94.46a29.43,29.43,0,0,1,8.59,1.22,17.73,17.73,0,0,1,7.74,4.74,16.45,16.45,0,0,1,4,7.93,25.62,25.62,0,0,1,.24,8.36.93.93,0,0,1-1,.81,1,1,0,0,1-.8-.77v0a35.21,35.21,0,0,0-1.83-7.34,14.27,14.27,0,0,0-3.86-5.65c-3.33-2.91-8.17-3.76-13.08-3.73s-9.73.92-13,3.83a14.08,14.08,0,0,0-3.75,5.61,34.6,34.6,0,0,0-1.75,7.28v.05a1.2,1.2,0,0,1-1.38,1A1.21,1.21,0,0,1,299.11,116.71Z"/></svg>