<svg xmlns="http://www.w3.org/2000/svg" viewBox="0 0 640 160"><defs><style>.cls-1{fill:#fff6e9;}.cls-2{fill:#ddd6ce;}.cls-3{fill:#fcfcfc;}.cls-4{fill:#0d0a09;}</style></defs><g id="ART-fills"><path class="cls-1" d="M224.26,69.44a14,14,0,0,0-5.37,7.11,10.84,10.84,0,0,0,7.76,4.72l3.67.43A16.57,16.57,0,0,0,245,75.8C241.37,68.14,231,65.21,224.26,69.44Z"/><path class="cls-2" d="M248.85,38.41a8,8,0,0,0-8-8h-19.7a8,8,0,0,0-7.94,9.1L217,70.1a10.8,10.8,0,0,0,1.88,6.45,14,14,0,0,1,5.37-7.11c6.77-4.23,17.11-1.3,20.74,6.36a16.46,16.46,0,0,0,3.85-10.61Z"/><path class="cls-1" d="M254.26,65.44a15,15,0,0,0-4.21,9.19,12.13,12.13,0,0,0,7.55,3.87l4.11.47A18.54,18.54,0,0,0,280,69.75C274.69,61,261.56,59.05,254.26,65.44Z"/><path class="cls-2" d="M282.41,31a9,9,0,0,0-9-8.95h-22a9,9,0,0,0-8.87,10.17L246.84,66a12.1,12.1,0,0,0,3.21,8.62,15,15,0,0,1,4.21-9.19c7.3-6.39,20.43-4.44,25.71,4.31a18.43,18.43,0,0,0,2.44-9.21Z"/><path class="cls-2" d="M290.26,62.44c8.8-4.4,21.48-4.15,27.8,3.48a20.32,20.32,0,0,0,1.94-8.7V25a9.84,9.84,0,0,0-9.84-9.84H286a9.83,9.83,0,0,0-9.75,11.17l4.68,36.93A13.2,13.2,0,0,0,283.05,71C284,66.66,288,64,290.26,62.44Z"/><path class="cls-1" d="M290.26,62.44C288,64,284,66.66,283.05,71a13.35,13.35,0,0,0,9.67,6l4.51.53a20.43,20.43,0,0,0,20.83-11.58C311.74,58.29,299.06,58,290.26,62.44Z"/><path class="cls-1" d="M399.26,68.44c-2.54,0-5.07,2.15-5.79,5.23a16.6,16.6,0,0,0,16.21,8l3.67-.43A10.85,10.85,0,0,0,419.91,78,16.86,16.86,0,0,0,399.26,68.44Z"/><path class="cls-2" d="M418.86,30.4h-19.7a8,8,0,0,0-8,8V65.19a16.5,16.5,0,0,0,2.32,8.48c.72-3.08,3.25-5.23,5.79-5.23A16.86,16.86,0,0,1,419.91,78,10.86,10.86,0,0,0,423,70.1l3.81-30.6A8,8,0,0,0,418.86,30.4Z"/><path class="cls-2" d="M388.55,22h-22a9,9,0,0,0-9,9V60.54a18.45,18.45,0,0,0,2.08,8.56c5.14-10.2,19.76-4.34,29.59-1.66,1.44.48,2.19,2.13,2.69,4.26A12.11,12.11,0,0,0,393.16,66l4.26-33.84A9,9,0,0,0,388.55,22Z"/><path class="cls-1" d="M389.26,67.44c-9.83-2.68-24.45-8.54-29.59,1.66A18.56,18.56,0,0,0,378.29,79l4.11-.47A12.18,12.18,0,0,0,392,71.7C391.45,69.57,390.7,67.92,389.26,67.44Z"/><path class="cls-2" d="M363.79,26.31A9.83,9.83,0,0,0,354,15.14h-24.2A9.84,9.84,0,0,0,320,25V57.22a20.4,20.4,0,0,0,1.78,8.36c10-5.4,23.92-7.69,32.48.86A22.89,22.89,0,0,1,356,72.3a13.42,13.42,0,0,0,3.15-9.06Z"/><path class="cls-1" d="M321.78,65.58a20.44,20.44,0,0,0,21,11.92l4.51-.53A13.38,13.38,0,0,0,356,72.3a22.89,22.89,0,0,0-1.71-5.86C345.7,57.89,331.73,60.18,321.78,65.58Z"/><path class="cls-3" d="M225.92,78.14c.68,0-1.3-3.31-1.39-4.93s-2-4.78-2.72-4.75-.36,3.38.28,4.89S225.25,78.18,225.92,78.14Z"/><path class="cls-3" d="M255.23,74.22c.67,0-1.3-3.31-1.39-4.93s-2.05-4.79-2.72-4.75-.37,3.37.28,4.89S254.56,74.26,255.23,74.22Z"/><path class="cls-3" d="M290.21,71.33c.74,0-1.45-3.67-1.55-5.48s-2.27-5.31-3-5.27-.41,3.75.31,5.43S289.46,71.38,290.21,71.33Z"/><path class="cls-3" d="M414.08,78.14c-.68,0,1.3-3.31,1.39-4.93s2-4.78,2.72-4.75.36,3.38-.28,4.89S414.75,78.18,414.08,78.14Z"/><path class="cls-3" d="M384.77,74.22c-.67,0,1.3-3.31,1.39-4.93s2-4.79,2.72-4.75.37,3.37-.28,4.89S385.44,74.26,384.77,74.22Z"/><path class="cls-3" d="M349.79,71.33c-.75,0,1.45-3.67,1.55-5.48s2.27-5.31,3-5.27.41,3.75-.31,5.43S350.54,71.38,349.79,71.33Z"/></g><g id="ART-strokes"><path class="cls-4" d="M248.18,67.87a19.66,19.66,0,0,1-1.1,5.86,13.29,13.29,0,0,1-3.22,5.1,13.49,13.49,0,0,1-5.14,3.08,18.22,18.22,0,0,1-5.83.88,27.93,27.93,0,0,1-2.91-.15l-2.8-.28c-.45,0-1-.11-1.46-.19s-1-.23-1.5-.35a13.92,13.92,0,0,1-2.81-1.27,12.12,12.12,0,0,1-4.26-4.45,12.74,12.74,0,0,1-1.57-6v.22c-.59-3.66-1.15-7.33-1.78-11s-1.24-7.32-1.91-11l-1-5.47-.52-2.74a11.86,11.86,0,0,1-.14-3.7,11.45,11.45,0,0,1,3.54-6.83,12,12,0,0,1,7.37-3.18l.38,0a4,4,0,1,1,.56,8.07,4.21,4.21,0,0,1-.94-.05,4.08,4.08,0,0,0-2.88.55,4.58,4.58,0,0,0-2,2.57,4.15,4.15,0,0,0-.18.85,2.23,2.23,0,0,0,0,.45,4.77,4.77,0,0,0,0,.54l.17,2.79.37,5.56c.24,3.71.53,7.41.83,11.11s.65,7.4,1,11.1l0,.17v0a9.59,9.59,0,0,0,4.18,8.53,10.12,10.12,0,0,0,2.25,1.14,12.92,12.92,0,0,0,2.55.53l2.78.36a20.61,20.61,0,0,0,2.7.22,16.22,16.22,0,0,0,5.24-.75,11.09,11.09,0,0,0,4.39-2.68,12.59,12.59,0,0,0,3.15-9.62,1.25,1.25,0,1,1,2.5-.15.33.33,0,0,1,0,.14Z"/><path class="cls-4" d="M281.75,60.42a22.46,22.46,0,0,1-4.35,12.84,16.88,16.88,0,0,1-11.68,6.67,19.77,19.77,0,0,1-3.44.06c-1.15-.08-2.19-.21-3.29-.32l-1.63-.17a12.86,12.86,0,0,1-1.75-.33,13,13,0,0,1-3.29-1.31,13.24,13.24,0,0,1-5.06-5A14.07,14.07,0,0,1,245.4,66v.22c-.64-4.07-1.25-8.14-1.94-12.2s-1.35-8.12-2.08-12.18l-1.09-6.08-.56-3a12.89,12.89,0,0,1-.22-2,13.07,13.07,0,0,1,.12-2.07,12.38,12.38,0,0,1,3.88-7.31A12.88,12.88,0,0,1,251.45,18l.4,0a4,4,0,1,1-.4,8,5,5,0,0,0-3.47.74,5.61,5.61,0,0,0-2.3,3.09,5.54,5.54,0,0,0-.2,1,6.63,6.63,0,0,0,0,1.11l.21,3.09.45,6.17c.3,4.11.65,8.22,1,12.33s.75,8.2,1.13,12.3v.23A10.84,10.84,0,0,0,253.43,76a9.7,9.7,0,0,0,2.72,1.19,10.57,10.57,0,0,0,1.46.32l1.61.21c1.07.13,2.2.3,3.22.4a14.46,14.46,0,0,0,13.44-5.95,18.51,18.51,0,0,0,3.37-11.7,1.25,1.25,0,1,1,2.5-.11Z"/><path class="cls-4" d="M321.25,25c-.2,7.59-.27,15.18-.31,22.78l0,5.69c0,1.91.06,3.76-.1,5.78a21.61,21.61,0,0,1-13.65,18.09,21.15,21.15,0,0,1-5.82,1.4,21.62,21.62,0,0,1-3,.08c-1-.06-2-.16-2.91-.25l-2.83-.28c-.51-.08-1-.15-1.54-.24s-1-.23-1.52-.4a15,15,0,0,1-10.42-14.44v.27q-2.06-13.35-4.27-26.67l-1.13-6.66-.57-3.33a13,13,0,0,1,0-4.4,13.46,13.46,0,0,1,4.32-7.82A13.76,13.76,0,0,1,286,11.14h.25a4,4,0,1,1,.31,8,5.19,5.19,0,0,1-.56,0,5.81,5.81,0,0,0-3.95,1,6.29,6.29,0,0,0-2.52,3.53,6.69,6.69,0,0,0-.21,2.31l.27,3.37.57,6.74q1.17,13.47,2.52,26.92l0,.19v.09a11.75,11.75,0,0,0,3.49,9.06,12.16,12.16,0,0,0,4.27,2.7c.4.16.82.25,1.22.38s.84.16,1.27.24l2.82.38c.95.12,1.89.25,2.76.33a19.5,19.5,0,0,0,7.93-1.07A19.34,19.34,0,0,0,315,69a19,19,0,0,0,3.95-10c.16-1.77.08-3.72.09-5.61l0-5.69c0-7.6-.12-15.19-.31-22.78a1.25,1.25,0,1,1,2.5-.07Z"/><path class="cls-4" d="M394.42,66a15.28,15.28,0,0,0,2.92,10.17,12.12,12.12,0,0,0,4.1,3.36,13.26,13.26,0,0,0,5.19,1.31,14.46,14.46,0,0,0,2.71-.09l2.85-.37a14.51,14.51,0,0,0,2.65-.5,8.62,8.62,0,0,0,2.34-1.09,9.56,9.56,0,0,0,4.38-8.66v0l0-.17c.32-3.7.69-7.39,1-11.1s.59-7.4.83-11.11l.37-5.56.17-2.79a4.77,4.77,0,0,0,0-.54,2.23,2.23,0,0,0,0-.45,4.15,4.15,0,0,0-.18-.85,4.58,4.58,0,0,0-2-2.57,4.08,4.08,0,0,0-2.88-.55,4,4,0,0,1-1.33-8,4.84,4.84,0,0,1,.93-.05l.4,0a12,12,0,0,1,7.37,3.18,11.45,11.45,0,0,1,3.54,6.83,11.86,11.86,0,0,1-.14,3.7l-.52,2.74-1,5.47c-.68,3.65-1.3,7.31-1.91,11s-1.2,7.32-1.79,11v-.22a12.66,12.66,0,0,1-1.64,6.18,11.61,11.61,0,0,1-1.93,2.53,12,12,0,0,1-2.51,1.94,12.52,12.52,0,0,1-2.91,1.21,16.23,16.23,0,0,1-3,.49l-2.88.28a19.13,19.13,0,0,1-3,0,14.74,14.74,0,0,1-10.65-5.36A19.16,19.16,0,0,1,391.91,66h0a1.26,1.26,0,0,1,2.51-.11Z"/><path class="cls-4" d="M360.6,61.54a16.71,16.71,0,0,0,3.52,11.39,14.36,14.36,0,0,0,4.74,3.73,15.69,15.69,0,0,0,5.88,1.48,16.73,16.73,0,0,0,3.08-.09l3.18-.41c.53-.07,1.1-.12,1.58-.22l.73-.13.71-.19a10.08,10.08,0,0,0,2.67-1.22,10.85,10.85,0,0,0,5-9.82v-.23c.38-4.1.8-8.2,1.13-12.3s.71-8.22,1-12.33l.45-6.17.21-3.09a6.63,6.63,0,0,0,0-1.11,5.54,5.54,0,0,0-.2-1,5.61,5.61,0,0,0-2.3-3.09,5,5,0,0,0-3.47-.74,4,4,0,1,1-1.25-8,4.63,4.63,0,0,1,.83-.05l.42,0a12.86,12.86,0,0,1,7.93,3.35,12.38,12.38,0,0,1,3.88,7.31,13.07,13.07,0,0,1,.12,2.07,12.89,12.89,0,0,1-.22,2l-.56,3-1.09,6.08c-.73,4.06-1.41,8.12-2.08,12.18s-1.3,8.13-1.94,12.2V66a14.08,14.08,0,0,1-1.82,6.85,12.84,12.84,0,0,1-2.15,2.82,12.39,12.39,0,0,1-2.8,2.14,13.28,13.28,0,0,1-3.24,1.34l-.85.21-.87.13c-.59.1-1.09.12-1.63.19L378,80a20.07,20.07,0,0,1-3.38,0,17,17,0,0,1-11.95-5.85,20.39,20.39,0,0,1-4.57-12.61h0a1.25,1.25,0,0,1,2.5-.1Z"/><path class="cls-4" d="M321.25,25.32c-.26,7.57-.31,15.14-.34,22.7l0,5.68c0,1.88-.05,3.83.11,5.59a18.72,18.72,0,0,0,4,9.83,19.28,19.28,0,0,0,8.65,6.11,18.56,18.56,0,0,0,5.21,1,18,18,0,0,0,2.65,0c.86-.09,1.81-.22,2.75-.35l2.8-.39a12.77,12.77,0,0,0,2.45-.63,12,12,0,0,0,4.19-2.66,11.54,11.54,0,0,0,3.41-8.93v-.1l0-.2q1.37-13.44,2.56-26.91l.59-6.74.28-3.37a6.58,6.58,0,0,0-.2-2.29A6.33,6.33,0,0,0,358,20.17a5.87,5.87,0,0,0-3.93-1,4,4,0,0,1-.73-8,3.85,3.85,0,0,1,.48,0H354a13.72,13.72,0,0,1,8.55,3.41A13.54,13.54,0,0,1,367,22.38a13.15,13.15,0,0,1,0,4.43l-.56,3.33-1.11,6.66Q363.06,50.14,361,63.48l0-.3a15.4,15.4,0,0,1-5,11.43,15.23,15.23,0,0,1-5.45,3.15,16.4,16.4,0,0,1-3.08.65l-2.83.27c-.94.09-1.87.19-2.9.24a23.39,23.39,0,0,1-3-.06,21.38,21.38,0,0,1-5.85-1.36,22,22,0,0,1-9.47-7.08,20.68,20.68,0,0,1-4.28-11c-.15-2,0-3.85-.07-5.76l0-5.68c0-7.56-.08-15.13-.34-22.7a1.25,1.25,0,1,1,2.5-.09Z"/></g></svg>