<svg id="ART-fills" xmlns="http://www.w3.org/2000/svg" viewBox="0 0 640 160"><defs><style>.cls-1{fill:#00007f;}.cls-2{fill:#0d0a09;}</style></defs><path class="cls-1" d="M401.91,69.9a78.86,78.86,0,0,1,16.67-2.27,98.07,98.07,0,0,1,16.85.79A81.49,81.49,0,0,1,452,72.59a51.21,51.21,0,0,1,14.8,8.66,2.05,2.05,0,0,1-2.16,3.44l-.1,0a111,111,0,0,0-14.75-5.28q-7.62-1.87-15.42-3c-5.23-.71-10.51-1.2-15.83-1.59s-10.72-.59-16.05-.81h-.09a2.06,2.06,0,0,1-.44-4Z"/><path class="cls-1" d="M237.56,74c-5.33.22-10.74.46-16.05.81s-10.6.88-15.83,1.59-10.34,1.77-15.42,3a111,111,0,0,0-14.75,5.28l-.1,0a2.05,2.05,0,0,1-2.16-3.44,51.21,51.21,0,0,1,14.8-8.66,81.49,81.49,0,0,1,16.52-4.17,98.07,98.07,0,0,1,16.85-.79,78.86,78.86,0,0,1,16.67,2.27,2.06,2.06,0,0,1-.43,4Z"/><path class="cls-2" d="M244.73,70c-3-.18-6.13-.41-9.17-.48s-6.13-.13-9.16-.06a115.82,115.82,0,0,0-17.87,1.62A77.91,77.91,0,0,0,199.91,73c-1.43.36-2.8.86-4.21,1.28s-2.77,1-4.11,1.56a83.15,83.15,0,0,0-15.71,8.56l-.08.05a2.84,2.84,0,0,1-3.87-4A47.47,47.47,0,0,1,187.27,67a54.07,54.07,0,0,1,9.43-4.21c1.62-.6,3.28-1,4.93-1.49s3.33-.78,5-1.06a72.93,72.93,0,0,1,20.21-.61,74.21,74.21,0,0,1,9.86,1.73,55.4,55.4,0,0,1,9.57,3.25,2.83,2.83,0,0,1-1.35,5.4Z"/><path class="cls-2" d="M393.71,64.58a55.4,55.4,0,0,1,9.57-3.25,74.21,74.21,0,0,1,9.86-1.73,72.94,72.94,0,0,1,20.21.61c1.68.28,3.35.67,5,1.06s3.31.89,4.93,1.49A54.07,54.07,0,0,1,452.73,67,47.47,47.47,0,0,1,468.07,80.4a2.84,2.84,0,0,1-3.86,4l-.09-.06a83.15,83.15,0,0,0-15.71-8.56c-1.34-.59-2.75-1-4.11-1.56s-2.78-.92-4.21-1.28a77.91,77.91,0,0,0-8.62-1.93,115.82,115.82,0,0,0-17.87-1.62c-3-.07-6.09,0-9.16.06s-6.21.3-9.17.48h-.2a2.83,2.83,0,0,1-1.36-5.4Z"/></svg>