<svg xmlns="http://www.w3.org/2000/svg" viewBox="0 0 640 160"><defs><style>.cls-1{fill:maroon;stroke:#0d0a09;stroke-miterlimit:10;stroke-width:6.5px;}.cls-2{fill:#0d0a09;}.cls-3{fill:#ff0;}.cls-4{fill:red;}</style></defs><g id="Kitchen_Sink" data-name="Kitchen Sink"><path class="cls-1" d="M420.11,106.64c-2.51-14.58-12.84-38.79-25.24-42.26-20.26-5.67-46.6-6.24-74-6.24s-53.76.57-74,6.24c-12.41,3.47-22.73,27.68-25.24,42.26-.52,3,3.23,5.53,7.64,5.15l4.49-.37a4.54,4.54,0,0,1,4.3-2.61,4.66,4.66,0,0,1,3.14,1.09,3.21,3.21,0,0,0,2.31.77l5.39-.39a2.52,2.52,0,0,0,1.91-1,4.89,4.89,0,0,1,8.06.35l2.07-.13a2.91,2.91,0,0,0,2.33-1.54,4.9,4.9,0,0,1,7.88-.57,3.3,3.3,0,0,0,2.77,1.36c15.1-.8,31.62-1.41,47-1.41,10.7,0,22,.3,32.95.75a1.19,1.19,0,0,0,1.13-.71,4.82,4.82,0,0,1,9,1.17h.13a2.27,2.27,0,0,0,2.28-1.37,3.58,3.58,0,0,1,3.63-2.48,4.55,4.55,0,0,1,4.52,3.14,2.1,2.1,0,0,0,1.86,1.38h0a2.13,2.13,0,0,0,2-1.18,4.84,4.84,0,0,1,8.76.61,2.1,2.1,0,0,0,1.86,1.38l4.85.34a4.3,4.3,0,0,0,3.73-1.56,4.9,4.9,0,0,1,7.84.4,4.65,4.65,0,0,0,3.54,2.32l3.45.28C416.88,112.17,420.63,109.64,420.11,106.64Z"/><path class="cls-2" d="M248.15,82.36a61.17,61.17,0,0,0-3.42,6.82,59.08,59.08,0,0,0-2.5,7.17,67.73,67.73,0,0,0-2,7.37q-.73,3.75-1.26,7.59a1,1,0,0,1-1.09.82,1,1,0,0,1-.82-1.08v0c.42-2.54.79-5.12,1.28-7.67a78.24,78.24,0,0,1,1.74-7.65,52.55,52.55,0,0,1,3-7.26,44.87,44.87,0,0,1,4.21-6.61.47.47,0,0,1,.79.52Z"/><path class="cls-2" d="M262.37,88.74a44.44,44.44,0,0,0-2.12,4.54A38.92,38.92,0,0,0,258.69,98a43.28,43.28,0,0,0-1.34,4.81c-.33,1.64-.61,3.31-.82,5a1,1,0,0,1-1.09.83,1,1,0,0,1-.83-1.08v0c.3-1.68.53-3.38.85-5.08s.55-3.44,1.11-5.1a29.5,29.5,0,0,1,5-9.13.48.48,0,0,1,.67-.06A.46.46,0,0,1,262.37,88.74Z"/><path class="cls-2" d="M273.25,82.32A55.25,55.25,0,0,0,271,88.16a48.1,48.1,0,0,0-1.49,6,54.22,54.22,0,0,0-1.11,6.13q-.33,3.12-.47,6.28a1,1,0,1,1-1.93-.08v0c.16-2.11.26-4.24.48-6.37a60.63,60.63,0,0,1,.85-6.4,42.21,42.21,0,0,1,2-6.15,36.13,36.13,0,0,1,3-5.7.49.49,0,0,1,.66-.13.48.48,0,0,1,.17.58Z"/><path class="cls-2" d="M394.32,81.83a43.28,43.28,0,0,1,4.21,6.61,51.4,51.4,0,0,1,3.06,7.26,78.24,78.24,0,0,1,1.74,7.65c.49,2.55.85,5.13,1.28,7.67a1,1,0,0,1-1.91.32v0q-.52-3.84-1.26-7.59a67.73,67.73,0,0,0-2-7.37,59.08,59.08,0,0,0-2.5-7.17,61.24,61.24,0,0,0-3.43-6.82h0a.47.47,0,0,1,.17-.64A.47.47,0,0,1,394.32,81.83Z"/><path class="cls-2" d="M374,69.94a58.77,58.77,0,0,1,5.31,8.56,68.37,68.37,0,0,1,3.86,9.33,98.73,98.73,0,0,1,2.27,9.81c.64,3.29,1.11,6.6,1.64,9.88a1,1,0,1,1-1.9.31v0c-.46-3.3-1-6.56-1.62-9.8a88.37,88.37,0,0,0-2.5-9.53,72.77,72.77,0,0,0-3.31-9.25,74.81,74.81,0,0,0-4.52-8.76.47.47,0,0,1,.15-.65A.48.48,0,0,1,374,69.94Z"/><path class="cls-2" d="M363.42,81.86a35.32,35.32,0,0,1,3,5.7,42.21,42.21,0,0,1,2,6.15,60.63,60.63,0,0,1,.85,6.4c.22,2.13.32,4.26.49,6.37a1,1,0,0,1-1.93.15v0q-.13-3.16-.47-6.28a54.22,54.22,0,0,0-1.11-6.13,46.42,46.42,0,0,0-1.49-6,55.18,55.18,0,0,0-2.23-5.84h0a.48.48,0,0,1,.25-.62A.47.47,0,0,1,363.42,81.86Z"/><path class="cls-2" d="M359.22,92.34a18.92,18.92,0,0,1,1.9,3.22,21.17,21.17,0,0,1,1.28,3.55,8.26,8.26,0,0,1,.26,1.86c0,.62.11,1.24.17,1.85l.28,3.66h0a1,1,0,0,1-1.93.15v0c-.05-1.21-.12-2.4-.26-3.57a11.3,11.3,0,0,0-.3-1.74,17.42,17.42,0,0,1-.4-1.7,33.56,33.56,0,0,0-.73-3.42c-.31-1.13-.69-2.24-1.11-3.36h0a.48.48,0,0,1,.28-.61A.48.48,0,0,1,359.22,92.34Z"/><path class="cls-2" d="M374,92.34a19,19,0,0,1,1.91,3.22,22.09,22.09,0,0,1,1.28,3.55,9.58,9.58,0,0,1,.26,1.86c0,.62.11,1.24.16,1.85l.29,3.66h0a1,1,0,1,1-1.93.15v0c0-1.21-.11-2.4-.26-3.57a12.63,12.63,0,0,0-.29-1.74,17.42,17.42,0,0,1-.4-1.7,33.61,33.61,0,0,0-.74-3.42c-.3-1.13-.69-2.24-1.1-3.36h0a.47.47,0,0,1,.82-.45Z"/><path class="cls-3" d="M399.65,72.22a52.21,52.21,0,0,1,5.77,7.37,61.56,61.56,0,0,1,4.48,8.26,37.62,37.62,0,0,1,1.59,4.42l1.36,4.47c.89,3,1.62,6,2.42,9a1.15,1.15,0,0,1-2.23.6v0q-1.06-4.48-2.37-8.87c-.44-1.46-.92-2.91-1.48-4.32s-1.18-2.79-1.72-4.2a68.94,68.94,0,0,0-3.81-8.23,75,75,0,0,0-4.87-7.71h0a.56.56,0,0,1,.87-.71Z"/><path class="cls-3" d="M388.47,77.5a38.2,38.2,0,0,1,4.11,5.25,44.46,44.46,0,0,1,3.19,5.88,65.16,65.16,0,0,1,2.1,6.33c.63,2.12,1.15,4.26,1.72,6.38a.82.82,0,0,1-.58,1,.84.84,0,0,1-1-.58v0c-.51-2.13-1.07-4.24-1.7-6.31A58.11,58.11,0,0,0,394,89.36a49.36,49.36,0,0,0-2.72-5.86A50,50,0,0,0,387.85,78a.4.4,0,0,1,.09-.56A.41.41,0,0,1,388.47,77.5Z"/><path class="cls-4" d="M383.53,79.21a34.25,34.25,0,0,1,7.79,11.27,14,14,0,0,1,.92,3.31c.19,1.13.5,2.22.76,3.31l1.49,6.5v0a2.18,2.18,0,1,1-4.24,1,.36.36,0,0,1,0-.1c-.39-2.16-.84-4.27-1.41-6.33a18.46,18.46,0,0,0-1-3,22.09,22.09,0,0,1-1.19-2.92,67.21,67.21,0,0,0-4.78-11.73h0a1.08,1.08,0,0,1,1.69-1.28Z"/><path class="cls-4" d="M396.84,76.19a34.37,34.37,0,0,1,7.78,11.27,14.3,14.3,0,0,1,.92,3.31c.19,1.13.5,2.22.76,3.31l1.5,6.5v0a2.18,2.18,0,0,1-4.25,1,.36.36,0,0,0,0-.1c-.39-2.16-.83-4.27-1.4-6.33a17.59,17.59,0,0,0-1-3,22,22,0,0,1-1.18-2.92,68.8,68.8,0,0,0-4.78-11.73h0a1.08,1.08,0,0,1,1.69-1.28Z"/><path class="cls-4" d="M363.3,78.42A31.42,31.42,0,0,1,366.63,83a37.4,37.4,0,0,1,2.52,5.12,53,53,0,0,1,1.57,5.46c.47,1.83.84,3.67,1.25,5.49a.74.74,0,0,1-1.45.33v0c-.36-1.84-.76-3.65-1.22-5.44a52.54,52.54,0,0,0-1.74-5.23,40.7,40.7,0,0,0-2.1-5.07,42.89,42.89,0,0,0-2.74-4.79.36.36,0,0,1,.58-.44Z"/><path class="cls-4" d="M283.13,83.37a43.94,43.94,0,0,0-2.74,4.8,40,40,0,0,0-2.09,5.07,47.14,47.14,0,0,0-1.74,5.23q-.69,2.69-1.23,5.43a.72.72,0,0,1-.86.59.74.74,0,0,1-.59-.87v0c.41-1.82.78-3.66,1.24-5.49a55.59,55.59,0,0,1,1.57-5.46,37.4,37.4,0,0,1,2.52-5.12,32.91,32.91,0,0,1,3.34-4.6.36.36,0,0,1,.51,0A.35.35,0,0,1,283.13,83.37Z"/><path class="cls-4" d="M267.3,83.37a43.94,43.94,0,0,0-2.74,4.8,40.08,40.08,0,0,0-2.1,5.07,49.26,49.26,0,0,0-1.73,5.23c-.47,1.79-.87,3.6-1.23,5.43a.74.74,0,1,1-1.45-.28v0c.41-1.82.78-3.66,1.25-5.49a55.59,55.59,0,0,1,1.57-5.46,37.4,37.4,0,0,1,2.52-5.12,32.12,32.12,0,0,1,3.34-4.6.36.36,0,0,1,.57.44Z"/><path class="cls-4" d="M256.68,85.2a43.94,43.94,0,0,0-2.74,4.8,40.08,40.08,0,0,0-2.1,5.07,49.26,49.26,0,0,0-1.73,5.23q-.69,2.69-1.23,5.43a.74.74,0,1,1-1.45-.28v0c.42-1.82.78-3.67,1.25-5.49a54.81,54.81,0,0,1,1.57-5.46,37.4,37.4,0,0,1,2.52-5.12,32.12,32.12,0,0,1,3.34-4.6.36.36,0,0,1,.51,0A.35.35,0,0,1,256.68,85.2Z"/><path class="cls-4" d="M245.38,83.37a43.94,43.94,0,0,0-2.74,4.8,40.08,40.08,0,0,0-2.1,5.07,49.26,49.26,0,0,0-1.73,5.23q-.69,2.69-1.23,5.43a.74.74,0,1,1-1.45-.28v0c.42-1.82.78-3.66,1.25-5.49A55.59,55.59,0,0,1,239,92.65a37.4,37.4,0,0,1,2.52-5.12,32.12,32.12,0,0,1,3.34-4.6.36.36,0,0,1,.51,0A.35.35,0,0,1,245.38,83.37Z"/><path class="cls-3" d="M279.06,77.06a50.68,50.68,0,0,0-2.91,5.8A46.72,46.72,0,0,0,274,89a58.32,58.32,0,0,0-1.68,6.26c-.42,2.13-.77,4.28-1.07,6.46a.82.82,0,0,1-1.63-.23v0c.36-2.16.66-4.35,1.09-6.52a66.31,66.31,0,0,1,1.47-6.5,44.06,44.06,0,0,1,2.61-6.17,37.4,37.4,0,0,1,3.58-5.62.39.39,0,0,1,.56-.07A.4.4,0,0,1,279.06,77.06Z"/><path class="cls-3" d="M254.33,80.77a50.78,50.78,0,0,0-3.72,5.32,47.83,47.83,0,0,0-3,5.72,57,57,0,0,0-2.56,6c-.73,2-1.39,4.12-2,6.23a.81.81,0,0,1-1,.56.82.82,0,0,1-.56-1v0c.67-2.09,1.29-4.2,2-6.29a64.34,64.34,0,0,1,2.4-6.22,45,45,0,0,1,3.46-5.73,38.19,38.19,0,0,1,4.36-5,.4.4,0,0,1,.59.54Z"/><path class="cls-3" d="M244.31,73.82a67,67,0,0,0-4.8,6.86,63.07,63.07,0,0,0-3.85,7.38c-.57,1.27-1.18,2.52-1.77,3.79s-1.08,2.57-1.55,3.89c-.93,2.64-1.78,5.32-2.57,8a1.06,1.06,0,1,1-2-.59v0c.86-2.69,1.66-5.42,2.61-8.12l1.45-4a33.69,33.69,0,0,1,1.65-4,57.16,57.16,0,0,1,4.47-7.39,49.18,49.18,0,0,1,5.62-6.51.52.52,0,0,1,.77.7Z"/><path class="cls-3" d="M356.29,75.2A38.47,38.47,0,0,1,360,80.71a45.7,45.7,0,0,1,2.79,6.08,66.64,66.64,0,0,1,1.68,6.46c.49,2.16.86,4.33,1.29,6.48a.82.82,0,1,1-1.61.32v0c-.36-2.17-.78-4.3-1.27-6.42a59.08,59.08,0,0,0-1.86-6.2,50,50,0,0,0-2.32-6,51.67,51.67,0,0,0-3.09-5.71.39.39,0,0,1,.12-.55A.41.41,0,0,1,356.29,75.2Z"/><path class="cls-3" d="M369.67,67.65a49,49,0,0,1,5,7.38,59.22,59.22,0,0,1,3.73,8.14,34.46,34.46,0,0,1,1.23,4.3l1,4.34c.65,2.89,1.16,5.81,1.73,8.68a1.1,1.1,0,1,1-2.16.43v0c-.49-2.89-1.05-5.76-1.7-8.59-.32-1.42-.69-2.82-1.14-4.2L376,84a63,63,0,0,0-3.1-8.07,68.91,68.91,0,0,0-4.14-7.64h0a.54.54,0,0,1,.18-.74A.53.53,0,0,1,369.67,67.65Z"/></g></svg>