<svg xmlns="http://www.w3.org/2000/svg" viewBox="0 0 640 160"><defs><style>.cls-1{fill:blue;}.cls-2{fill:aqua;}.cls-3{fill:#fcfcfc;}.cls-4{fill:#0d0a09;}</style></defs><g id="ART-fills"><path class="cls-1" d="M96.12,93.59c-6.19,11.61-5.19,23.81-4,36.16.83.11,1.55-.32,1.84-1.53,5.59-23,4.68-33.86,25.11-33.89,0,0-.24.08-.63.26h19.64C129.12,80.59,104.12,79.59,96.12,93.59Z"/><path class="cls-2" d="M154.13,120.09c4.47,2.48,8.2,6.69,12.29,10.54,1,.17,2,.35,3.08.56l-32-95.79S103.09,40,91.13,77c-6.44,20-7.6,38.39-2.18,49.84a4.92,4.92,0,0,0,3.21,2.87c-1.23-12.35-2.23-24.55,4-36.16,8-14,33-13,42,1H118.48c-3.46,1.52-20,10.46-17.88,41.3a2.64,2.64,0,0,0,4.24,1.91C109.07,121.88,134.31,108.77,154.13,120.09Z"/><path class="cls-1" d="M154.13,120.09c-19.82-11.32-45.06,1.79-49.29,17.71a2.55,2.55,0,0,0,.66-.75c7-11.76,33.63-11,60.92-6.42C162.33,126.78,158.6,122.57,154.13,120.09Z"/><path class="cls-3" d="M114.06,105.83a20.83,20.83,0,0,1,9.19-5.61c.71-.21,1.14-1.44.51-1.44-4.56,0-10,3-13.9,8.27s-5.42,11.46-4.06,15.85c.18.61,1.25-.18,1.24-.91A22.37,22.37,0,0,1,114.06,105.83Z"/><path class="cls-3" d="M95.12,86.52c1.89-6.58,5-9.07,7.5-12.8.57-.85,0-4.43-.5-3.93C98.18,73.45,94,81.93,91.53,91.69c-2.6,10.35-4,21.74-1.85,26.58.3.68,1.28.62.88-.29C88.23,112.65,91.81,97.62,95.12,86.52Z"/><path class="cls-1" d="M543.88,93.59c6.19,11.61,5.19,23.81,4,36.16-.83.11-1.55-.32-1.84-1.53-5.59-23-4.68-33.86-25.11-33.89,0,0,.24.08.63.26H501.88C510.88,80.59,535.88,79.59,543.88,93.59Z"/><path class="cls-2" d="M485.87,120.09c-4.47,2.48-8.2,6.69-12.29,10.54-1,.17-2,.35-3.08.56l32-95.79S536.91,40,548.87,77c6.44,20,7.6,38.39,2.18,49.84a4.92,4.92,0,0,1-3.21,2.87c1.23-12.35,2.23-24.55-4-36.16-8-14-33-13-42,1h19.64c3.46,1.52,20,10.46,17.88,41.3a2.64,2.64,0,0,1-4.24,1.91C530.93,121.88,505.69,108.77,485.87,120.09Z"/><path class="cls-1" d="M485.87,120.09c19.82-11.32,45.06,1.79,49.29,17.71a2.55,2.55,0,0,1-.66-.75c-7-11.76-33.63-11-60.92-6.42C477.67,126.78,481.4,122.57,485.87,120.09Z"/><path class="cls-3" d="M525.94,105.83a20.83,20.83,0,0,0-9.19-5.61c-.71-.21-1.14-1.44-.51-1.44,4.56,0,10,3,13.9,8.27s5.42,11.46,4.06,15.85c-.18.61-1.25-.18-1.24-.91A22.37,22.37,0,0,0,525.94,105.83Z"/><path class="cls-3" d="M544.88,86.52c-1.89-6.58-5-9.07-7.5-12.8-.57-.85,0-4.43.5-3.93,3.94,3.66,8.14,12.14,10.59,21.9,2.6,10.35,4,21.74,1.85,26.58-.3.68-1.28.62-.88-.29C551.77,112.65,548.19,97.62,544.88,86.52Z"/></g><g id="ART-strokes"><path class="cls-4" d="M122,94.72a14.9,14.9,0,0,0-1.57.64c-.55.25-1.09.53-1.63.82a29.25,29.25,0,0,0-3.09,2,32.07,32.07,0,0,0-5.41,5.14,36.89,36.89,0,0,0-7,13.32,51.48,51.48,0,0,0-1.92,15.15c0,1.28.11,2.56.15,3.84a1.7,1.7,0,0,0,1.56,1.78,1.58,1.58,0,0,0,1.18-.32,1.56,1.56,0,0,0,.41-.47c.15-.23.35-.58.54-.85a14.93,14.93,0,0,1,2.8-3.08,23.13,23.13,0,0,1,7.11-3.9,45,45,0,0,1,7.76-2,77.41,77.41,0,0,1,7.88-.84q4-.24,7.9-.19a261.78,261.78,0,0,1,31.39,2.66,2.8,2.8,0,0,1-.74,5.56l-.3-.06h0a170.28,170.28,0,0,0-30.44-5.05,80,80,0,0,0-15.32.32,40,40,0,0,0-7.4,1.61,20.89,20.89,0,0,0-6.55,3.42,13.1,13.1,0,0,0-2.48,2.62c-.19.26-.32.48-.52.78a3.73,3.73,0,0,1-.9,1,3.57,3.57,0,0,1-2.5.65,3.51,3.51,0,0,1-3.19-3.5c0-1.31-.16-2.62-.13-3.94v-2l.08-2c0-1.32.18-2.63.29-3.95a53.55,53.55,0,0,1,1.46-7.8,41.57,41.57,0,0,1,2.7-7.51,39.92,39.92,0,0,1,4.1-6.91,37.74,37.74,0,0,1,5.48-6,30.74,30.74,0,0,1,3.22-2.54c.57-.39,1.14-.78,1.74-1.14a18.26,18.26,0,0,1,1.94-1,2,2,0,1,1,1.63,3.6,1.89,1.89,0,0,1-.21.09Z"/><path class="cls-4" d="M138.06,38.18c-.77.1-1.76.3-2.66.51s-1.84.45-2.76.73q-2.74.82-5.43,1.91a62.41,62.41,0,0,0-19.39,12.58,65.11,65.11,0,0,0-7.67,8.82,67.34,67.34,0,0,0-6,10.11c-.44.88-.85,1.77-1.22,2.68s-.79,1.8-1.12,2.72a56,56,0,0,0-1.77,5.6,87.26,87.26,0,0,0-2.21,11.6,99.09,99.09,0,0,0-.8,11.8A79.57,79.57,0,0,0,87.77,119c.6,3.77,1.36,8,4.46,9.53a1.11,1.11,0,0,0,.62.14s0,0,0,0a1.17,1.17,0,0,0,.09-.32l.29-2.89c.2-2,.44-4,.74-6a62.18,62.18,0,0,1,2.8-11.87,27.27,27.27,0,0,1,6.62-10.66,21.72,21.72,0,0,1,5.33-3.67,27.24,27.24,0,0,1,6.09-2,44.29,44.29,0,0,1,12.51-.58,96.85,96.85,0,0,1,12.17,1.87A2.8,2.8,0,0,1,138.31,98l-.26-.07a75.48,75.48,0,0,0-11.26-2.68,38,38,0,0,0-11.3-.22,19.19,19.19,0,0,0-9.91,4.33,23.24,23.24,0,0,0-6.21,9.23,57.15,57.15,0,0,0-3,11.26c-.33,1.93-.61,3.89-.85,5.85l-.18,1.47-.08.74c0,.24,0,.48-.11.84a3.08,3.08,0,0,1-.42,1.07,2.11,2.11,0,0,1-1.13.91,3,3,0,0,1-2.27-.27,8,8,0,0,1-2.6-2.24,8.69,8.69,0,0,1-.91-1.43,13.54,13.54,0,0,1-.63-1.49,31.58,31.58,0,0,1-1.34-6,81.38,81.38,0,0,1-.63-12.07,104.18,104.18,0,0,1,3-23.89,69.75,69.75,0,0,1,4.06-11.41A73.21,73.21,0,0,1,98.1,61.31a70.46,70.46,0,0,1,16.78-17.59,74.33,74.33,0,0,1,10.47-6.45c1.84-.93,3.72-1.79,5.65-2.55,1-.39,1.94-.76,2.93-1.1a30.7,30.7,0,0,1,3.13-.94,2.8,2.8,0,1,1,1.33,5.44l-.29.06Z"/><path class="cls-4" d="M519.38,91a18.26,18.26,0,0,1,1.94,1c.6.36,1.17.75,1.74,1.14a30.74,30.74,0,0,1,3.22,2.54,37.74,37.74,0,0,1,5.48,6,39.92,39.92,0,0,1,4.1,6.91,41.57,41.57,0,0,1,2.7,7.51,53.55,53.55,0,0,1,1.46,7.8c.11,1.32.27,2.63.29,3.95l.08,2v2c0,1.32-.09,2.63-.13,3.94a3.51,3.51,0,0,1-3.19,3.5,3.57,3.57,0,0,1-2.5-.65,3.73,3.73,0,0,1-.9-1c-.2-.3-.33-.52-.52-.78a13.1,13.1,0,0,0-2.48-2.62,20.89,20.89,0,0,0-6.55-3.42,40,40,0,0,0-7.4-1.61,80,80,0,0,0-15.32-.32A170.28,170.28,0,0,0,471,134h0a2.8,2.8,0,1,1-1.38-5.43,1.8,1.8,0,0,1,.32-.06,261.78,261.78,0,0,1,31.39-2.66q3.94,0,7.9.19a77.41,77.41,0,0,1,7.88.84,45,45,0,0,1,7.76,2,23.13,23.13,0,0,1,7.11,3.9,14.93,14.93,0,0,1,2.8,3.08c.19.27.39.62.54.85a1.56,1.56,0,0,0,.41.47,1.58,1.58,0,0,0,1.18.32,1.7,1.7,0,0,0,1.56-1.78c0-1.28.17-2.56.15-3.84a51.48,51.48,0,0,0-1.92-15.15,36.89,36.89,0,0,0-7-13.32,32.07,32.07,0,0,0-5.41-5.14,29.25,29.25,0,0,0-3.09-2c-.54-.29-1.08-.57-1.63-.82a14.9,14.9,0,0,0-1.57-.64h0a2,2,0,0,1,1.18-3.78A1.09,1.09,0,0,1,519.38,91Z"/><path class="cls-4" d="M502.94,32.68a30.7,30.7,0,0,1,3.13.94c1,.34,2,.71,2.93,1.1,1.93.76,3.81,1.62,5.65,2.55a74.33,74.33,0,0,1,10.47,6.45A70.46,70.46,0,0,1,541.9,61.31a73.21,73.21,0,0,1,5.88,10.61,69.75,69.75,0,0,1,4.06,11.41,104.18,104.18,0,0,1,3,23.89,81.38,81.38,0,0,1-.63,12.07,31.58,31.58,0,0,1-1.34,6,13.54,13.54,0,0,1-.63,1.49,8.69,8.69,0,0,1-.91,1.43,8,8,0,0,1-2.6,2.24,3,3,0,0,1-2.27.27,2.11,2.11,0,0,1-1.13-.91,3.08,3.08,0,0,1-.42-1.07c-.06-.36-.08-.6-.11-.84l-.08-.74-.18-1.47c-.24-2-.52-3.92-.85-5.85a57.15,57.15,0,0,0-3-11.26,23.24,23.24,0,0,0-6.21-9.23A19.19,19.19,0,0,0,524.51,95a38,38,0,0,0-11.3.22A75.48,75.48,0,0,0,502,97.94a2.8,2.8,0,1,1-1.68-5.34l.25-.07a96.85,96.85,0,0,1,12.17-1.87,44.29,44.29,0,0,1,12.51.58,27.24,27.24,0,0,1,6.09,2,21.72,21.72,0,0,1,5.33,3.67,27.27,27.27,0,0,1,6.62,10.66,62.18,62.18,0,0,1,2.8,11.87c.3,2,.54,4,.74,6l.29,2.89a1.17,1.17,0,0,0,.09.32c0,.05,0,0,0,0a1.11,1.11,0,0,0,.62-.14c3.1-1.51,3.86-5.76,4.46-9.53a79.57,79.57,0,0,0,.69-11.77,99.09,99.09,0,0,0-.8-11.8,87.26,87.26,0,0,0-2.21-11.6,56,56,0,0,0-1.77-5.6c-.33-.92-.74-1.82-1.12-2.72s-.79-1.8-1.22-2.68a67.34,67.34,0,0,0-5.95-10.11,62.59,62.59,0,0,0-16.8-16,64.24,64.24,0,0,0-10.26-5.37q-2.68-1.08-5.43-1.91c-.92-.28-1.84-.51-2.76-.73s-1.89-.41-2.66-.51h0a2.8,2.8,0,1,1,.73-5.56Z"/></g></svg>