<svg id="ART-fills" xmlns="http://www.w3.org/2000/svg" viewBox="0 0 640 160"><defs><style>.cls-1{fill:#ddd6ce;}.cls-2{fill:#fff6e9;}.cls-3{fill:#fcfcfc;}.cls-4{fill:#0d0a09;}.cls-5{fill:#ded7cf;}</style></defs><path class="cls-1" d="M427.68,104.89c-1.58,1.13-3.95.61-5.89-1-.25,5,4.81,7.91,9.27,4.59,9-6.7,16.67-13.29,21.61-29.49,1.59-5.2.82-10.5-2.13-14.09a16.73,16.73,0,0,0-7.35-5.22C454.45,74.63,439.87,95,427.68,104.89Z"/><path class="cls-2" d="M439.66,58.83c-14.77-2-16.38,7.48-16.38,7.48s2.74,21.14-1.23,35.92a8.39,8.39,0,0,0-.26,1.66c1.94,1.61,4.31,2.13,5.89,1,12.19-9.86,26.77-30.26,15.51-45.21A16.89,16.89,0,0,0,439.66,58.83Z"/><path class="cls-3" d="M426.35,105.59c-.94-.45,3.85-4,4.95-6.23s5.8-5.63,6.74-5.17-1.49,5.06-3.33,6.83S427.29,106.05,426.35,105.59Z"/><path class="cls-4" d="M430.3,107.47a89.74,89.74,0,0,0,8.16-6.53,43.32,43.32,0,0,0,6.73-7.83,44.38,44.38,0,0,0,4.55-9.31c.27-.82.58-1.63.82-2.46s.41-1.7.57-2.55a14,14,0,0,0-.08-4.8,23.07,23.07,0,0,0-1.18-4.21A16.18,16.18,0,0,0,449,68a13.63,13.63,0,0,0-1.18-1.68,14.46,14.46,0,0,0-7.26-5.09,11.19,11.19,0,0,0-1.14-.29l-1.23-.21a22.28,22.28,0,0,0-2.45-.21,14.88,14.88,0,0,0-4.69.58,9.17,9.17,0,0,0-3.81,2.14,8.37,8.37,0,0,0-1.33,1.65,6.93,6.93,0,0,0-.48.94c-.07.15-.12.31-.18.47s-.1.36-.1.37v-.56A125.07,125.07,0,0,1,425.84,79a116.67,116.67,0,0,1-.54,12.94c-.09,1.08-.22,2.16-.39,3.23s-.33,2.15-.54,3.22-.45,2.14-.72,3.21l-.36,1.48a8.06,8.06,0,0,0-.13,1.29,4.16,4.16,0,0,0,2.4,3.89A4.77,4.77,0,0,0,430.3,107.47Zm1.51,2a8.43,8.43,0,0,1-3.4,1.57,6.64,6.64,0,0,1-3.88-.37,6.52,6.52,0,0,1-3-2.54,7.46,7.46,0,0,1-1.11-3.72,9.74,9.74,0,0,1,.15-1.88l.36-1.63c.24-1,.47-2,.61-3s.34-2,.45-3.09.23-2.08.3-3.12a109.92,109.92,0,0,0,.21-12.58c-.18-4.2-.58-8.43-1.09-12.54l0-.31.05-.25a7,7,0,0,1,.23-.91c.09-.26.18-.52.28-.76a10.07,10.07,0,0,1,.72-1.43,11,11,0,0,1,2-2.47,13.39,13.39,0,0,1,5.35-3,22.24,22.24,0,0,1,5.77-.84h1.43l1.41.05,1.41.1c.49.07,1,.1,1.47.19a18.66,18.66,0,0,1,10.75,5.36,14.74,14.74,0,0,1,2,2.56,13.92,13.92,0,0,1,1.33,3,13,13,0,0,1,.56,3.13,15.8,15.8,0,0,1-.18,3.09,22.81,22.81,0,0,1-1.85,5.61q-.58,1.23-1.08,2.49l-1,2.49a64.56,64.56,0,0,1-5.05,9.55,52.42,52.42,0,0,1-6.87,8.36A90.71,90.71,0,0,1,431.81,109.49Z"/><path class="cls-5" d="M438.25,64.69a17.48,17.48,0,0,1,3.17,1.16,21.85,21.85,0,0,1,2.92,1.71,33.6,33.6,0,0,1,2.57,2.18c.83.74,1.63,1.53,2.44,2.28a.49.49,0,0,1,0,.68.48.48,0,0,1-.68,0h0c-.78-.78-1.58-1.54-2.4-2.26s-1.72-1.35-2.58-2a25.35,25.35,0,0,0-5.59-3.31.24.24,0,0,1-.13-.31A.24.24,0,0,1,438.25,64.69Z"/><path class="cls-5" d="M438.57,73.41A17,17,0,0,1,444,76c.83.57,1.53,1.3,2.29,1.94s1.45,1.36,2.17,2a.44.44,0,0,1,0,.61.42.42,0,0,1-.61,0h0c-.7-.69-1.41-1.36-2.14-2a27.72,27.72,0,0,0-2.3-1.78,22.14,22.14,0,0,0-5-3,.2.2,0,0,1-.11-.27A.21.21,0,0,1,438.57,73.41Z"/><path class="cls-5" d="M426.9,84.47a16.27,16.27,0,0,1,4.27.52,20.49,20.49,0,0,1,2,.77c.66.28,1.31.59,1.95.9a.31.31,0,1,1-.27.55h0c-.64-.31-1.27-.62-1.91-.89a20,20,0,0,0-2-.67,21.7,21.7,0,0,0-4.1-.89.15.15,0,0,1-.13-.16A.15.15,0,0,1,426.9,84.47Z"/><path class="cls-1" d="M212.32,104.89c1.58,1.13,4,.61,5.89-1,.25,5-4.81,7.91-9.27,4.59-9-6.7-16.67-13.29-21.61-29.49-1.59-5.2-.82-10.5,2.13-14.09a16.73,16.73,0,0,1,7.35-5.22C185.55,74.63,200.13,95,212.32,104.89Z"/><path class="cls-2" d="M200.34,58.83c14.77-2,16.38,7.48,16.38,7.48s-2.74,21.14,1.22,35.92a7.75,7.75,0,0,1,.27,1.66c-1.94,1.61-4.31,2.13-5.89,1C200.13,95,185.55,74.63,196.81,59.68A16.89,16.89,0,0,1,200.34,58.83Z"/><path class="cls-3" d="M213.65,105.59c.94-.45-3.85-4-5-6.23s-5.8-5.63-6.74-5.17,1.49,5.06,3.32,6.83S212.7,106.05,213.65,105.59Z"/><path class="cls-4" d="M208.19,109.49a90.71,90.71,0,0,1-8.21-6.91,52.42,52.42,0,0,1-6.87-8.36,64.56,64.56,0,0,1-5.05-9.55l-1-2.49q-.5-1.26-1.08-2.49a22.81,22.81,0,0,1-1.85-5.61,15.8,15.8,0,0,1-.18-3.09,13,13,0,0,1,.56-3.13,13.92,13.92,0,0,1,1.33-3,14.74,14.74,0,0,1,2-2.56A18.66,18.66,0,0,1,198.54,57c.49-.09,1-.12,1.47-.19l1.41-.1,1.41-.05h1.43a22.24,22.24,0,0,1,5.77.84,13.39,13.39,0,0,1,5.35,3,11,11,0,0,1,2,2.47,10.07,10.07,0,0,1,.72,1.43c.1.24.19.5.28.76a7,7,0,0,1,.23.91l0,.25,0,.31c-.5,4.11-.9,8.34-1.08,12.54a109.92,109.92,0,0,0,.21,12.58q.11,1.56.3,3.12c.11,1,.27,2.06.45,3.09s.37,2,.61,3l.36,1.63a9.74,9.74,0,0,1,.15,1.88,7.46,7.46,0,0,1-1.11,3.72,6.52,6.52,0,0,1-3,2.54,6.64,6.64,0,0,1-3.88.37A8.43,8.43,0,0,1,208.19,109.49Zm1.51-2a4.77,4.77,0,0,0,4.74.79,4.14,4.14,0,0,0,2.39-3.89,7,7,0,0,0-.12-1.29l-.36-1.48c-.27-1.07-.54-2.13-.72-3.21s-.4-2.14-.54-3.22-.3-2.15-.39-3.23A116.67,116.67,0,0,1,214.16,79a125.07,125.07,0,0,1,.68-12.94v.56s-.06-.24-.1-.37-.11-.32-.18-.47a8.31,8.31,0,0,0-.48-.94,8.75,8.75,0,0,0-1.33-1.65A9.17,9.17,0,0,0,209,61.05a14.9,14.9,0,0,0-4.7-.58,22.31,22.31,0,0,0-2.44.21l-1.23.21a11.19,11.19,0,0,0-1.14.29,14.46,14.46,0,0,0-7.26,5.09A12.63,12.63,0,0,0,191,68a16.18,16.18,0,0,0-.87,1.83A23.07,23.07,0,0,0,189,74a13.76,13.76,0,0,0-.08,4.8q.24,1.27.57,2.55c.24.83.55,1.64.82,2.46a44.38,44.38,0,0,0,4.55,9.31,43.32,43.32,0,0,0,6.73,7.83A89.74,89.74,0,0,0,209.7,107.47Z"/><path class="cls-5" d="M201.9,65.14a25.35,25.35,0,0,0-5.59,3.31c-.86.66-1.78,1.26-2.58,2s-1.62,1.48-2.41,2.26a.48.48,0,0,1-.68,0,.49.49,0,0,1,0-.69h0c.81-.75,1.61-1.54,2.44-2.28a33.6,33.6,0,0,1,2.57-2.18,21.85,21.85,0,0,1,2.92-1.71,17.48,17.48,0,0,1,3.17-1.16.24.24,0,0,1,.29.17A.24.24,0,0,1,201.9,65.14Z"/><path class="cls-5" d="M201.56,73.81a22.14,22.14,0,0,0-5,3,26.15,26.15,0,0,0-2.3,1.78c-.73.65-1.44,1.32-2.14,2a.43.43,0,1,1-.61-.61h0c.72-.67,1.43-1.37,2.17-2S195.17,76.54,196,76a17,17,0,0,1,5.43-2.56.21.21,0,0,1,.26.16A.21.21,0,0,1,201.56,73.81Z"/><path class="cls-5" d="M213.12,84.76a21.7,21.7,0,0,0-4.1.89,20,20,0,0,0-2,.67c-.64.27-1.27.58-1.91.89a.31.31,0,1,1-.27-.55h0c.64-.31,1.29-.62,1.95-.9a20.49,20.49,0,0,1,2-.77,16.27,16.27,0,0,1,4.27-.52.15.15,0,0,1,.15.15A.15.15,0,0,1,213.12,84.76Z"/></svg>