<svg xmlns="http://www.w3.org/2000/svg" viewBox="0 0 640 320"><defs><style>.cls-1{fill:aqua;}.cls-2{fill:blue;}.cls-3{fill:#fcfcfc;}.cls-4{fill:none;}.cls-5{fill:#00007f;}.cls-6{fill:#0d0a09;}</style></defs><g id="ART-fills"><path class="cls-1" d="M314,49.28c23.39-4.5,39.49,10.42,52.68,26.56a42.8,42.8,0,0,0-83.28-8C290.82,58.71,301.51,52.24,314,49.28Z"/><path class="cls-2" d="M314,49.28c-12.44,3-23.13,9.43-30.6,18.58a42.65,42.65,0,0,0-2,13h85.61a41.64,41.64,0,0,0-.31-5C353.44,59.7,337.34,44.78,314,49.28Z"/><path class="cls-1" d="M396,63.28c13.7,5.64,23.5,17.77,27.31,32.21a42.8,42.8,0,0,0-75-30.57A61.37,61.37,0,0,1,396,63.28Z"/><path class="cls-2" d="M396,63.28a61.37,61.37,0,0,0-47.68,1.64,42.74,42.74,0,0,0-9,16.6l82.44,23.06a42.42,42.42,0,0,0,1.51-9.09C419.45,81.05,409.65,68.92,396,63.28Z"/><path class="cls-2" d="M456,105.28a39,39,0,0,0-10.34-12.07,30.26,30.26,0,0,0-26.82,10.85l38.91,32C462.06,126.1,461.89,114.61,456,105.28Z"/><path class="cls-1" d="M461.46,99.92a30.13,30.13,0,0,0-15.85-6.71A39,39,0,0,1,456,105.28c5.94,9.33,6.11,20.82,1.75,30.81l7.89,6.5A30.32,30.32,0,0,0,461.46,99.92Z"/><path class="cls-1" d="M435,91.28c5.54,6.23,8.2,13.89,9.32,21.67a37,37,0,0,0-59-33.91C402.44,75,421.1,78.11,435,91.28Z"/><path class="cls-2" d="M435,91.28C421.1,78.11,402.44,75,385.31,79a36.76,36.76,0,0,0-11.6,14.6l67.66,29.89a37.33,37.33,0,0,0,2.9-10.58C443.15,105.17,440.49,97.51,435,91.28Z"/><path class="cls-2" d="M452.52,132.81l12,15.24a102.59,102.59,0,0,1,7.95-21.69A30.16,30.16,0,0,0,452.52,132.81Z"/><path class="cls-1" d="M495.08,137.91a30.2,30.2,0,0,0-22.63-11.55,102.59,102.59,0,0,0-7.95,21.69L490,180.47A30.31,30.31,0,0,0,495.08,137.91Z"/><path class="cls-1" d="M252.31,63.28C238.62,68.92,228.82,81.05,225,95.49a42.81,42.81,0,0,1,75-30.57A61.39,61.39,0,0,0,252.31,63.28Z"/><path class="cls-2" d="M252.31,63.28A61.39,61.39,0,0,1,300,64.92,42.59,42.59,0,0,1,309,81.52l-82.43,23.06A43.07,43.07,0,0,1,225,95.49C228.82,81.05,238.62,68.92,252.31,63.28Z"/><path class="cls-2" d="M192.31,105.28a39.12,39.12,0,0,1,10.35-12.07,30.26,30.26,0,0,1,26.82,10.85l-38.91,32C186.21,126.1,186.37,114.61,192.31,105.28Z"/><path class="cls-1" d="M186.81,99.92a30.13,30.13,0,0,1,15.85-6.71,39.12,39.12,0,0,0-10.35,12.07c-5.94,9.33-6.1,20.82-1.74,30.81l-7.89,6.5A30.31,30.31,0,0,1,186.81,99.92Z"/><path class="cls-1" d="M213.31,91.28c-5.53,6.23-8.19,13.89-9.31,21.67A37,37,0,0,1,263,79C245.83,75,227.17,78.11,213.31,91.28Z"/><path class="cls-2" d="M213.31,91.28C227.17,78.11,245.83,75,263,79a36.73,36.73,0,0,1,11.59,14.6L206.9,123.53A37.33,37.33,0,0,1,204,113C205.12,105.17,207.78,97.51,213.31,91.28Z"/><path class="cls-1" d="M153.19,137.91a30.31,30.31,0,0,0,5.1,42.56l24.5-31.17c-1.06-7.9-5.53-15.22-6.93-22.94A30.2,30.2,0,0,0,153.19,137.91Z"/><path class="cls-2" d="M175.86,126.36c1.4,7.72,5.87,15,6.93,22.94l13-16.49A30.16,30.16,0,0,0,175.86,126.36Z"/><path class="cls-3" d="M336.32,45.54c.45,1.38-7.66,0-11,1s-11.21-.41-11.66-1.79,6.51-3.36,10-3.23S335.88,44.15,336.32,45.54Z"/><path class="cls-3" d="M401.59,62.79c0,1.45-7.28-2.4-10.79-2.4s-10.55-3.81-10.55-5.26,7.22-1.21,10.55,0S401.59,61.33,401.59,62.79Z"/><path class="cls-3" d="M467.63,123c-1,1.08-3.82-6.64-6.44-9s-5.32-9.88-4.35-11,6.19,3.92,7.87,7S468.6,121.86,467.63,123Z"/><path class="cls-3" d="M417,78.26c.2,1-5.34-.63-7.75-.14s-7.78-1.16-8-2.16,4.8-1.83,7.26-1.47S416.79,77.26,417,78.26Z"/><path class="cls-3" d="M435,90.37c-.43.81-3.37-3.47-5.33-4.5s-4.79-5.23-4.36-6,4.39,1.44,5.9,3.09S435.41,89.56,435,90.37Z"/><path class="cls-3" d="M494.11,166.83c-1.52.86-1.79-9-3.86-12.7S488,140.84,489.52,140s5.53,6.85,6.24,11S495.63,166,494.11,166.83Z"/><path class="cls-3" d="M246.68,62.79c0,1.45,7.28-2.4,10.79-2.4S268,56.58,268,55.13s-7.22-1.21-10.55,0S246.68,61.33,246.68,62.79Z"/><path class="cls-3" d="M180.63,123c1,1.08,3.83-6.64,6.44-9s5.33-9.88,4.36-11-6.19,3.92-7.87,7S179.66,121.86,180.63,123Z"/><path class="cls-3" d="M231.28,78.26c-.2,1,5.34-.63,7.75-.14S246.81,77,247,76s-4.79-1.83-7.25-1.47S231.48,77.26,231.28,78.26Z"/><path class="cls-3" d="M213.29,90.37c.43.81,3.37-3.47,5.33-4.5s4.79-5.23,4.36-6-4.39,1.44-5.91,3.09S212.86,89.56,213.29,90.37Z"/><path class="cls-3" d="M154.16,166.83c1.52.86,1.79-9,3.86-12.7s2.25-13.29.73-14.15-5.53,6.85-6.24,11S152.64,166,154.16,166.83Z"/><path class="cls-4" d="M193.92,146.31c.54-1.07,43.13-63.6,128.37-63.3S456,149.6,456,149.6"/><path class="cls-5" d="M489.75,194.45c-1.67-1.41-3.31-2.63-4.87-3.94a32.82,32.82,0,0,1-4.33-4.25,16.82,16.82,0,0,1-3.05-5.41,24.92,24.92,0,0,1-1-6.61V174a2.7,2.7,0,1,1,4.84,1.5,7.19,7.19,0,0,0-1.46,4.83,8.42,8.42,0,0,0,2,4.84,12.42,12.42,0,0,0,4.35,3.3,13.12,13.12,0,0,0,5.4,1.3,2.68,2.68,0,1,1-1.75,4.72Z"/><path class="cls-5" d="M472.55,151.27c-2.17-.22-4.21-.29-6.24-.49a32,32,0,0,1-6-1.05,16.8,16.8,0,0,1-5.57-2.73,24.52,24.52,0,0,1-4.6-4.85L450,142a2.7,2.7,0,1,1,4.84-1.51,7.19,7.19,0,0,0,1.53,4.81,8.52,8.52,0,0,0,4.39,2.86,12.52,12.52,0,0,0,5.45.25,13.25,13.25,0,0,0,5.19-2,2.68,2.68,0,1,1,1.23,4.88Z"/><path class="cls-5" d="M194.7,146.18c-1.35.92-2.48,1.87-3.64,2.77a31.47,31.47,0,0,1-3.55,2.5,14,14,0,0,1-4.18,1.64,22.84,22.84,0,0,1-5,.31h-.49a3,3,0,1,1,.07-5.93,3,3,0,0,1,2.46,1.37,4.22,4.22,0,0,0,2.84,1.88,5.13,5.13,0,0,0,3.45-.71,7.42,7.42,0,0,0,2.62-2.66,7.58,7.58,0,0,0,1.11-3.73,2.88,2.88,0,1,1,4.5,2.42Z"/><path class="cls-5" d="M168.18,176.8c-.76,1.46-1.3,2.83-1.89,4.17a30.53,30.53,0,0,1-1.94,3.88,13.75,13.75,0,0,1-2.9,3.43,21.88,21.88,0,0,1-4.24,2.65l-.43.23a3,3,0,0,1-2.76-5.24,3,3,0,0,1,2.82,0,4.17,4.17,0,0,0,3.39.3,5.09,5.09,0,0,0,2.7-2.26,7.9,7.9,0,0,0,.25-7.39,2.87,2.87,0,1,1,5.11,0Z"/><path class="cls-5" d="M213,130c.13-.22.28-.42.43-.63l.21-.24.38-.43.73-.77c.48-.5,1-1,1.44-1.46,1-.95,1.93-1.88,2.91-2.79,2-1.79,3.94-3.56,6-5.24,4.05-3.38,8.24-6.52,12.55-9.46a159.94,159.94,0,0,1,27.23-15c4.74-2.09,9.62-3.78,14.47-5.58,1.22-.46,2.42-.94,3.65-1.36l3.66-1.38c2.47-.83,4.92-1.81,7.44-2.54a75.2,75.2,0,0,1,15.43-3.29c1.31-.1,2.62-.19,3.93-.24s2.63-.16,3.95-.1,2.63,0,3.94.09,2.62.15,3.93.28c10.5,1,20.65,3.77,30.55,6.57,2.48.67,4.95,1.4,7.42,2.13,1.24.33,2.46.74,3.69,1.14s2.46.77,3.66,1.22c4.87,1.69,9.64,3.66,14.35,5.76a187.15,187.15,0,0,1,27,15.27c4.3,2.94,8.52,6,12.61,9.32q3.06,2.48,6.06,5.08l3,2.68c.5.45,1,.91,1.48,1.38s1,.92,1.52,1.5l.11.12a4.54,4.54,0,1,1-6.58,6.26,5.73,5.73,0,0,1-.64-.85c-.24-.42-.59-1-.93-1.46s-.7-1-1.06-1.51c-.71-1-1.47-2-2.25-3-1.56-2-3.17-3.89-4.9-5.73a117.92,117.92,0,0,0-10.9-10.53,133.7,133.7,0,0,0-25.27-17c-2.28-1.14-4.55-2.31-6.9-3.3s-4.7-2-7.09-2.91a95.2,95.2,0,0,0-14.68-4.37c-10-2.17-20.37-1.84-30.38-1.32s-19.91,1.35-30,2c-2.54.14-5,.5-7.58.8A67.77,67.77,0,0,0,280,90.62,84.34,84.34,0,0,0,265.73,96a114.9,114.9,0,0,0-25.6,16.33c-1.94,1.61-3.79,3.34-5.6,5.09S231,121,229.3,122.86s-3.27,3.79-4.75,5.79c-.73,1-1.47,2-2.14,3-.34.51-.66,1-1,1.53L221,134c-.08.13-.12.23-.19.35a.9.9,0,0,0-.06.14.86.86,0,0,0,.15-.22A4.5,4.5,0,1,1,213,130Z"/></g><g id="ART-strokes"><path class="cls-6" d="M290.27,52a52.78,52.78,0,0,1,16.08-10.73,45.8,45.8,0,0,1,36.46.43,52.91,52.91,0,0,1,15.84,11.1l.11.11A4.08,4.08,0,1,1,353,58.68a4.17,4.17,0,0,1-.86-1.25,28.21,28.21,0,0,0-11.08-12.38,31.85,31.85,0,0,0-16.45-4.7,32.21,32.21,0,0,0-16.55,4.33,28.31,28.31,0,0,0-11.38,12.11,4.08,4.08,0,1,1-6.52-4.68Z"/><path class="cls-6" d="M335.46,80.45a56,56,0,0,1,6.48-12.1,52.59,52.59,0,0,1,9.37-9.65,51.27,51.27,0,0,1,11.55-6.51,47,47,0,0,1,12.76-3,46,46,0,0,1,25.17,5.07,46.89,46.89,0,0,1,18.48,17.79h0a1.25,1.25,0,1,1-2.16,1.27s0,0,0-.08a39,39,0,0,0-17.14-17.34,40.93,40.93,0,0,0-5.72-2.4c-.48-.18-1-.3-1.48-.45a12.74,12.74,0,0,0-1.5-.4l-3-.64a28.41,28.41,0,0,0-3.06-.38l-1.54-.15c-.51,0-1,0-1.54,0-1,0-2.06,0-3.09,0l-3.06.31a42.91,42.91,0,0,0-11.67,3.52,43.36,43.36,0,0,0-10,6.83A42.15,42.15,0,0,0,347,71.6a39.69,39.69,0,0,0-3.85,11l0,.11a4,4,0,1,1-7.9-1.54A4.27,4.27,0,0,1,335.46,80.45Z"/><path class="cls-6" d="M462.5,140.05a24.78,24.78,0,0,0,4.78-6,25.26,25.26,0,0,0,2.71-7.4,27,27,0,0,0-1.72-15.94,27.28,27.28,0,0,0-4.4-7,27.56,27.56,0,0,0-6.3-5.44,26.48,26.48,0,0,0-15.92-4,1.25,1.25,0,1,1-.19-2.5h.14a34.94,34.94,0,0,1,16.94,4.94,38.26,38.26,0,0,1,3.63,2.56,34.81,34.81,0,0,1,3.26,3c.48.56,1.05,1,1.5,1.65l1.37,1.77c.47.59.82,1.25,1.23,1.88l.6,1c.19.32.35.67.52,1a31.3,31.3,0,0,1,3.12,8.48,33.77,33.77,0,0,1,.77,9.16l-.17,2.32-.38,2.32a18.16,18.16,0,0,1-.51,2.3,22.8,22.8,0,0,1-.66,2.28,40.81,40.81,0,0,1-4.14,8.71,4,4,0,0,1-6.95-4.14,4.2,4.2,0,0,1,.69-.86Z"/><path class="cls-6" d="M437.71,121.91a29.93,29.93,0,0,0,4.1-12.53,32.73,32.73,0,0,0-1.56-13.46,33.62,33.62,0,0,0-7-11.85,33.81,33.81,0,0,0-24.85-11,33.51,33.51,0,0,0-13.5,2.79,32.76,32.76,0,0,0-11,7.91,30,30,0,0,0-6.49,11.48A4,4,0,0,1,369.62,93a4.19,4.19,0,0,1,.36-.87l.07-.13A43.46,43.46,0,0,1,393.5,72.33a40.35,40.35,0,0,1,50.3,22.21,43.24,43.24,0,0,1,1.22,30.6l0,.12a4,4,0,0,1-7.68-2.49A4.22,4.22,0,0,1,437.71,121.91Z"/><path class="cls-6" d="M487.51,177.33a26.28,26.28,0,0,0,6.3-5.31,27.08,27.08,0,0,0,4.25-7.32l.72-2,.49-2.11a19.24,19.24,0,0,0,.34-2.15l.14-1.08,0-1.09a25.44,25.44,0,0,0-1.06-8.72,26.9,26.9,0,0,0-3.82-8,26.57,26.57,0,0,0-6.18-6.47A26.92,26.92,0,0,0,472,127.59a1.26,1.26,0,1,1-.07-2.51H472a34.52,34.52,0,0,1,17.8,6.45,31.31,31.31,0,0,1,6.78,6.72,30.2,30.2,0,0,1,4.63,8.42,33.81,33.81,0,0,1,1.4,4.66l.4,2.41c.16.8.13,1.62.22,2.44a33.06,33.06,0,0,1-.8,9.84,36.86,36.86,0,0,1-3.67,9.39,41.08,41.08,0,0,1-6.34,8.21,4,4,0,0,1-5.77-5.64A4.24,4.24,0,0,1,487.51,177.33Z"/><path class="cls-6" d="M305.1,82.6a39.4,39.4,0,0,0-3.86-11A41.81,41.81,0,0,0,294,62.2a43.36,43.36,0,0,0-10-6.83,42.91,42.91,0,0,0-11.67-3.52l-3.07-.31c-1-.07-2.05,0-3.08,0-.51,0-1,0-1.54,0l-1.54.15a28.41,28.41,0,0,0-3.06.38l-3,.64a12.74,12.74,0,0,0-1.5.4c-.5.15-1,.27-1.49.45a41.31,41.31,0,0,0-5.71,2.4A39,39,0,0,0,231.2,73.27,1.25,1.25,0,1,1,229,72.16l0-.08h0a46.89,46.89,0,0,1,18.48-17.79,46,46,0,0,1,25.17-5.07,47,47,0,0,1,12.76,3A51.27,51.27,0,0,1,297,58.7a52.21,52.21,0,0,1,9.36,9.65,56,56,0,0,1,6.49,12.1,4,4,0,0,1-7.47,3,3.11,3.11,0,0,1-.21-.7Z"/><path class="cls-6" d="M179.59,145.13a41.33,41.33,0,0,1-4.15-8.71c-.29-.73-.43-1.53-.65-2.28a16.58,16.58,0,0,1-.51-2.3l-.38-2.32-.18-2.32a33.38,33.38,0,0,1,.78-9.16,31.3,31.3,0,0,1,3.12-8.48c.17-.33.33-.68.52-1l.6-1c.41-.63.76-1.29,1.23-1.88l1.37-1.77c.45-.6,1-1.09,1.5-1.65a36,36,0,0,1,3.25-3,39.73,39.73,0,0,1,3.64-2.56,34.94,34.94,0,0,1,16.94-4.94A1.26,1.26,0,0,1,208,93a1.25,1.25,0,0,1-1.2,1.3h-.15a26.45,26.45,0,0,0-15.92,4,27.56,27.56,0,0,0-6.3,5.44,27.28,27.28,0,0,0-4.4,7,27,27,0,0,0-1.72,15.94,25.26,25.26,0,0,0,2.71,7.4,25,25,0,0,0,4.77,6l.08.07a4,4,0,0,1-5.55,5.88A3.62,3.62,0,0,1,179.59,145.13Z"/><path class="cls-6" d="M203.24,125.14a43.35,43.35,0,0,1,1.22-30.6,40.36,40.36,0,0,1,50.31-22.21A43.4,43.4,0,0,1,278.21,92l.07.12a4,4,0,0,1-7,4,3.93,3.93,0,0,1-.37-.88,30,30,0,0,0-6.49-11.48,32.76,32.76,0,0,0-11-7.91,33.55,33.55,0,0,0-13.5-2.79,33.81,33.81,0,0,0-24.85,11,33.62,33.62,0,0,0-7,11.85,32.73,32.73,0,0,0-1.56,13.46,29.93,29.93,0,0,0,4.1,12.53,4,4,0,1,1-6.88,4.21,3.67,3.67,0,0,1-.39-.83Z"/><path class="cls-6" d="M155.82,183.62a41.08,41.08,0,0,1-6.34-8.21,36.49,36.49,0,0,1-3.67-9.39,33.06,33.06,0,0,1-.8-9.84c.09-.82.06-1.64.22-2.44l.4-2.41a35.22,35.22,0,0,1,1.39-4.66,30.72,30.72,0,0,1,4.63-8.42,31.77,31.77,0,0,1,6.78-6.72,34.58,34.58,0,0,1,17.81-6.45h0a1.25,1.25,0,1,1,.18,2.5h-.12A26.9,26.9,0,0,0,159.54,133a28.16,28.16,0,0,0-10,14.49,30.73,30.73,0,0,0-.91,4.32,32.37,32.37,0,0,0-.16,4.4l0,1.09.15,1.08a19.24,19.24,0,0,0,.34,2.15l.49,2.11.72,2a27.08,27.08,0,0,0,4.25,7.32,26.28,26.28,0,0,0,6.3,5.31,4,4,0,1,1-4.94,6.29Z"/></g></svg>