<svg xmlns="http://www.w3.org/2000/svg" viewBox="0 0 640 320"><defs><style>.cls-1{fill:aqua;}.cls-2{fill:#00007f;}.cls-3{fill:blue;}.cls-4{fill:#0d0a09;}</style></defs><g id="ART-fills"><path class="cls-1" d="M339.09,181.76c-3.57,15.71-12.25,27.84-25.29,32.05a.75.75,0,0,0,.57.72c4.75,1.18,21.19-3.42,24.37-19.86,1.86-9.64,5.49-15.66,8.83-19.35C343.6,175,339.86,178.67,339.09,181.76Z"/><path class="cls-2" d="M286.05,169.22c2.78,1.81,7.6,5.92,12,14.53,8,15.66,22.82,17.74,24.57,18.43C312.4,189,302.91,172.63,286.05,169.22Z"/><path class="cls-3" d="M283.72,168a12.89,12.89,0,0,1,2.33,1.25c16.86,3.41,26.35,19.8,36.58,33h.05c2.85-3.51,3.81-7.65,5.41-12.43,1-8-4-15-10-20,10,3,18,12,15,22-1.78,5.76-5.91,9.56-11.1,11.91-1.61,3.06-3.11,7.71-7.7,9.41a.73.73,0,0,0-.49.73c13-4.21,21.72-16.34,25.29-32.05.77-3.09,4.51-6.75,8.48-6.44a19.45,19.45,0,0,1,7.2-5.34Z"/><path class="cls-2" d="M333.09,191.76c3-10-5-19-15-22,5,7.33,7.82,11.1,10,20-1.6,4.78-2.56,8.92-5.41,12.43.11.05.16.09.13.13a11.2,11.2,0,0,0-.82,1.35C327.18,201.32,331.31,197.52,333.09,191.76Z"/><path class="cls-4" d="M323.69,177.71a24.11,24.11,0,0,1,3.77,6,16.14,16.14,0,0,1,1.27,7.29,18.6,18.6,0,0,1-2,7,23.18,23.18,0,0,1-4.12,5.78.52.52,0,0,1-.72,0,.49.49,0,0,1-.11-.57v0c.92-2.11,1.95-4.1,2.62-6.18a22.88,22.88,0,0,0,1.31-6.23,18.14,18.14,0,0,0-.79-6.22c-.59-2.06-1.56-4.06-2.39-6.26a.66.66,0,0,1,.38-.85.63.63,0,0,1,.74.2Z"/></g><g id="ART-strokes"><path class="cls-4" d="M284.55,165.61l.39.17.3.15a5.87,5.87,0,0,1,.56.31c.37.2.7.42,1,.64.66.44,1.28.91,1.88,1.4a34.77,34.77,0,0,1,3.28,3.13,45,45,0,0,1,5.19,7.13l1.07,1.89,1,1.94c.64,1.29,1.17,2.45,1.87,3.62a30.44,30.44,0,0,0,4.92,6.38,33.15,33.15,0,0,0,14,8.14c.66.2,1.32.38,2,.56l.53.14.29.09a2,2,0,0,1,.46.22.81.81,0,0,1,.14.12.91.91,0,0,1,.25.42,1,1,0,0,1-.12.74l0,0-.06.1-.13.2c-.09.13-.18.27-.26.41-.66,1.14-1.22,2.44-1.88,3.71a18.06,18.06,0,0,1-2.42,3.67,10.52,10.52,0,0,1-3.64,2.72l-.53.21a.18.18,0,0,0,.06-.05s0,0,0-.1.28.06.55.08.63,0,.95,0a16.19,16.19,0,0,0,3.93-.59,24.28,24.28,0,0,0,7.38-3.31,22.93,22.93,0,0,0,9.46-12.63,40.71,40.71,0,0,0,.87-4c.26-1.41.59-2.81,1-4.2a44.52,44.52,0,0,1,3-8.17,34,34,0,0,1,4.84-7.46,26,26,0,0,1,3.26-3.2,21.93,21.93,0,0,1,1.88-1.41c.34-.22.68-.44,1-.64a9.47,9.47,0,0,1,1.24-.62l.41-.17a2.55,2.55,0,1,1,1.93,4.73,2.67,2.67,0,0,1-.73.17,5.29,5.29,0,0,0-.68.24c-.27.11-.54.23-.81.37a14.48,14.48,0,0,0-1.62.91,21.92,21.92,0,0,0-3,2.39,28.41,28.41,0,0,0-4.86,6.23,40.65,40.65,0,0,0-3.29,7.4c-.41,1.3-.8,2.61-1.11,4s-.65,2.81-1.11,4.18a28.7,28.7,0,0,1-1.75,4,26.28,26.28,0,0,1-2.41,3.66,25.8,25.8,0,0,1-6.49,5.8,28,28,0,0,1-7.95,3.46,18.58,18.58,0,0,1-4.37.61,11.26,11.26,0,0,1-1.15-.07c-.19,0-.39-.06-.6-.1a1.7,1.7,0,0,1-.85-.38,1.62,1.62,0,0,1-.36-2,1.59,1.59,0,0,1,.83-.71l.45-.18c2.39-1,4-3.19,5.22-5.62.62-1.22,1.16-2.51,1.89-3.81.09-.16.19-.32.29-.48L322,202l.09-.13s0-.05,0,0a.88.88,0,0,0-.11.67.84.84,0,0,0,.22.37.24.24,0,0,0,.09.08c.13.08,0,0,0,0l-.22-.06-.49-.13c-.67-.17-1.37-.35-2.05-.55a36.65,36.65,0,0,1-21-14.59c-.83-1.18-1.6-2.51-2.29-3.69l-1-1.76-1.11-1.7a37,37,0,0,0-5.15-6.1,26.55,26.55,0,0,0-3-2.44c-.53-.35-1.06-.68-1.6-1-.27-.14-.54-.28-.8-.39a4.07,4.07,0,0,0-.38-.17l-.18-.06c-.05,0-.12-.05-.09,0a2.5,2.5,0,0,1,1.66-4.72Z"/></g></svg>