<svg xmlns="http://www.w3.org/2000/svg" viewBox="0 0 640 160"><defs><style>.cls-1{fill:#7f4a60;}.cls-2{fill:#5b2e42;}.cls-3{fill:aqua;}.cls-4{fill:#00007f;}.cls-5{fill:#0d0a09;}</style></defs><g id="ART-fills"><path class="cls-1" d="M258.58,66.07c-.74.09-1.49.14-2.24.16,2.25,29.56,29.89,12,63.68,12,31.18,0,57.14,14.93,62.72-6a37.92,37.92,0,0,1-12.16-2.17C333.58,56.07,296.58,63.07,258.58,66.07Z"/><path class="cls-2" d="M320,20.11c-35.26,0-63.84,6.74-63.84,42,0,1.47.06,2.84.16,4.13.75,0,1.5-.07,2.24-.16,38-3,75-10,112,4a37.92,37.92,0,0,0,12.16,2.17,40.08,40.08,0,0,0,1.11-10.14C383.85,26.85,355.27,20.11,320,20.11Z"/><path class="cls-3" d="M274.45,83.34a159.61,159.61,0,0,1,22.21-5.22A176,176,0,0,1,319.47,76c1.92,0,3.83,0,5.74.09s3.81.29,5.71.48,3.79.4,5.69.56l5.69.57c7.57.86,15.08,2,22.57,3.33a3.24,3.24,0,0,1-1.13,6.39h-.11a206.85,206.85,0,0,0-22-3.32c-1.84-.15-3.68-.33-5.53-.47s-3.7-.15-5.55-.16c-3.7,0-7.39.11-11.08,0-7.37-.21-14.76,0-22.15.45s-14.77,1.39-22.17,2.5h0a1.58,1.58,0,0,1-.7-3.08Z"/><path class="cls-4" d="M350,94.86a51.09,51.09,0,0,0-14.39-7,56.3,56.3,0,0,0-15.88-2.58,48.28,48.28,0,0,0-15.82,2.39,38.83,38.83,0,0,0-13.67,7.75A4.31,4.31,0,1,1,284.48,89a4.26,4.26,0,0,1,1.55-.89l.05,0a123.52,123.52,0,0,1,16.86-4.31,92.57,92.57,0,0,1,16.82-1.3A119.34,119.34,0,0,1,336.5,83.9c5.58.85,11.1,2,16.85,3.24h0a4.31,4.31,0,1,1-1.76,8.43A4.54,4.54,0,0,1,350,94.86Z"/><path class="cls-3" d="M305.28,92.48c0,2.53,9.32,4.58,17.1,4.58s11.06-2,11.06-4.58-6.31-4.58-14.08-4.58S305.28,90,305.28,92.48Z"/></g><g id="ART-strokes"><path class="cls-5" d="M320,20.44a178.08,178.08,0,0,0-20.67,1.26,80.34,80.34,0,0,0-10.12,1.95,62,62,0,0,0-9.68,3.29A34,34,0,0,0,264.4,39.39c-3.51,5.49-4.87,12-4.95,18.55a53.54,53.54,0,0,0,.7,9.7,17.36,17.36,0,0,0,3.08,7.74,7.38,7.38,0,0,0,2.58,2.06,11.13,11.13,0,0,0,3.51,1,38.16,38.16,0,0,0,9-.34c6.45-.83,13.22-2.5,20.19-3.6a142.93,142.93,0,0,1,21.51-2,145.57,145.57,0,0,1,21.5,2c7,1.14,13.74,2.78,20.19,3.62a38.81,38.81,0,0,0,9,.35,11.54,11.54,0,0,0,3.52-1,7.36,7.36,0,0,0,2.59-2.08,17.3,17.3,0,0,0,3.09-7.75,54.46,54.46,0,0,0,.69-9.7c-.09-6.53-1.44-13.08-5-18.56a34,34,0,0,0-15.16-12.45,62.91,62.91,0,0,0-9.67-3.29,80.81,80.81,0,0,0-10.13-1.94A178,178,0,0,0,320,20.44Zm0-.65a180.32,180.32,0,0,1,20.77,1,79.13,79.13,0,0,1,20.26,4.74,42.35,42.35,0,0,1,9.17,5,32.77,32.77,0,0,1,7.4,7.42,33.1,33.1,0,0,1,4.64,9.4,45.09,45.09,0,0,1,1.9,10.29A57.24,57.24,0,0,1,384,68.14a21.73,21.73,0,0,1-3.36,10,12.15,12.15,0,0,1-4,3.63,16.16,16.16,0,0,1-5,1.79,39.38,39.38,0,0,1-10.51.16c-6.93-.7-13.73-2.07-20.56-3a122.58,122.58,0,0,0-41.16,0c-6.84,1-13.63,2.35-20.57,3a38.89,38.89,0,0,1-10.5-.16,15.74,15.74,0,0,1-5-1.79,12,12,0,0,1-4-3.63,21.73,21.73,0,0,1-3.36-10,58.15,58.15,0,0,1-.14-10.47,45.09,45.09,0,0,1,1.9-10.29,33.37,33.37,0,0,1,4.64-9.4,32.77,32.77,0,0,1,7.4-7.42,42.58,42.58,0,0,1,9.17-5,79.1,79.1,0,0,1,20.27-4.74A180.1,180.1,0,0,1,320,19.79Z"/></g></svg>