<svg id="ART-fills" xmlns="http://www.w3.org/2000/svg" viewBox="0 0 640 160"><defs><style>.cls-1{fill:#00007f;}.cls-2{fill:#0d0a09;}.cls-3{fill:#fcfcfc;}.cls-4{fill:blue;}.cls-5{fill:aqua;}</style></defs><path class="cls-1" d="M382.22,62c-4.62,8.81.64,35.38,29.78,35.38,22.74,0,58.28-14.38,58.28-25.4S451.84,52,429.1,52,387.92,51.11,382.22,62Z"/><circle class="cls-2" cx="422.9" cy="74.69" r="24.1"/><circle class="cls-3" cx="435.56" cy="70.52" r="5.09"/><circle class="cls-3" cx="414.56" cy="75.61" r="8.34"/><path class="cls-4" d="M459.41,56.07c-.48,2.45-1.7,4.64-4.2,4.64H394.13c-6,0-2.83-21.94,15.6-29.76"/><path class="cls-2" d="M462,56.57a13.47,13.47,0,0,1-2.24,3.68,6.49,6.49,0,0,1-1.94,1.42,5,5,0,0,1-2.33.43l-6.73-.18c-4.44-.14-8.89-.16-13.33-.24q-13.33-.15-26.67-.06c-4.44,0-8.88.11-13.33.17h-1.25a4.32,4.32,0,0,1-.62-.05,3.31,3.31,0,0,1-2.06-1.3,7.12,7.12,0,0,1-1.26-3.75,19.94,19.94,0,0,1,.83-7.05,34.12,34.12,0,0,1,17.7-21.1l0,0a2.6,2.6,0,1,1,2.31,4.65l-.34.14a27.88,27.88,0,0,0-17.07,17.14,17.77,17.77,0,0,0-1.05,6.08,5.2,5.2,0,0,0,.64,2.54,1.05,1.05,0,0,0,.66.48,1.33,1.33,0,0,0,.21,0h1.25c4.45.06,8.89.17,13.33.17,8.89.08,17.78,0,26.67,0,4.44-.09,8.89-.11,13.33-.25,2.2-.07,4.5-.09,6.61-.19A1.79,1.79,0,0,0,456.66,58a5.25,5.25,0,0,0,.21-2.46,2.72,2.72,0,1,1,5.39-.69,2.66,2.66,0,0,1-.2,1.43Z"/><path class="cls-4" d="M459.41,88.7a4.19,4.19,0,0,0-4.2-4.64H394.13c-6,0-7.57,18.85,13.09,25.36"/><path class="cls-2" d="M456.84,88.38a1.59,1.59,0,0,0-.11-1.27,2,2,0,0,0-1.22-.94,6.79,6.79,0,0,0-1.34-.13l-1.62-.1-3.24-.18-6.48-.3-6.48-.21q-13-.37-25.93-.31c-4.32,0-8.64,0-13,.15l-3.24.07a2.06,2.06,0,0,0-1.75,1.1,8.62,8.62,0,0,0-.88,5.43,16.23,16.23,0,0,0,5.71,10.09A24.69,24.69,0,0,0,408,107a2.6,2.6,0,0,1-1.16,5.06l-.36-.11,0,0a32.47,32.47,0,0,1-11.69-7.45,22.67,22.67,0,0,1-4-5.72,18.57,18.57,0,0,1-1.82-6.78,10.87,10.87,0,0,1,1.65-7,5.12,5.12,0,0,1,1.54-1.41,4,4,0,0,1,2.12-.54l3.24.06c4.32.11,8.64.13,13,.16q13,.06,25.93-.31l6.48-.22,6.48-.29,3.24-.19,1.62-.09a13.54,13.54,0,0,1,1.9,0,6.44,6.44,0,0,1,4.28,2.18A6.55,6.55,0,0,1,462,89l0,.42a2.63,2.63,0,0,1-5.25-.38A3,3,0,0,1,456.84,88.38Z"/><path class="cls-1" d="M257.78,62c4.62,8.81-.64,35.38-29.78,35.38-22.74,0-58.28-14.38-58.28-25.4s18.44-20,41.18-20S252.08,51.11,257.78,62Z"/><circle class="cls-2" cx="217.1" cy="74.69" r="24.1"/><circle class="cls-3" cx="229.76" cy="70.52" r="5.09"/><circle class="cls-3" cx="208.76" cy="75.61" r="8.34"/><path class="cls-4" d="M180.59,56.07c.48,2.45,1.7,4.64,4.2,4.64h61.08c6,0,2.83-21.94-15.6-29.76"/><path class="cls-2" d="M183.13,55.57a5.25,5.25,0,0,0,.21,2.46,1.79,1.79,0,0,0,1.34,1.27c2.11.1,4.41.12,6.61.19,4.44.14,8.89.16,13.33.25,8.89.09,17.78.13,26.67,0,4.44,0,8.89-.11,13.33-.17h1.25a1.33,1.33,0,0,0,.21,0,1.05,1.05,0,0,0,.66-.48,5.2,5.2,0,0,0,.64-2.54,17.77,17.77,0,0,0-1-6.08,27.88,27.88,0,0,0-17.07-17.14,2.6,2.6,0,0,1,1.63-4.93l.32.13.07,0A34.12,34.12,0,0,1,249,49.66a19.94,19.94,0,0,1,.83,7.05,7.12,7.12,0,0,1-1.26,3.75,3.31,3.31,0,0,1-2.06,1.3,4.32,4.32,0,0,1-.62.05h-1.25c-4.44-.06-8.89-.17-13.33-.17q-13.33-.1-26.67.06c-4.44.08-8.89.1-13.33.24l-6.73.18a5,5,0,0,1-2.33-.43,6.49,6.49,0,0,1-1.94-1.42,13.47,13.47,0,0,1-2.24-3.68l-.11-.25a2.72,2.72,0,0,1,5-2.19A2.77,2.77,0,0,1,183.13,55.57Z"/><path class="cls-4" d="M180.59,88.7a4.19,4.19,0,0,1,4.2-4.64h61.08c6,0,7.57,18.85-13.09,25.36"/><path class="cls-2" d="M178,89a6.55,6.55,0,0,1,1.63-4.79A6.44,6.44,0,0,1,183.93,82a13.54,13.54,0,0,1,1.9,0l1.62.09,3.24.19,6.48.29,6.48.22q13,.36,25.93.31c4.32,0,8.64-.05,13-.16l3.24-.06a4,4,0,0,1,2.12.54,5.12,5.12,0,0,1,1.54,1.41,10.87,10.87,0,0,1,1.65,7,18.57,18.57,0,0,1-1.82,6.78,22.67,22.67,0,0,1-4,5.72,32.47,32.47,0,0,1-11.69,7.45h0a2.6,2.6,0,0,1-1.9-4.83A1.73,1.73,0,0,1,232,107a24.69,24.69,0,0,0,10.7-5.17,16.23,16.23,0,0,0,5.71-10.09,8.62,8.62,0,0,0-.88-5.43,2.06,2.06,0,0,0-1.75-1.1l-3.24-.07c-4.32-.11-8.64-.12-13-.15q-13-.06-25.93.31l-6.48.21-6.48.3-3.24.18-1.62.1a6.79,6.79,0,0,0-1.34.13,2,2,0,0,0-1.22.94,1.59,1.59,0,0,0-.11,1.27,2.63,2.63,0,1,1-5,1.71,2.9,2.9,0,0,1-.14-.65Z"/><path class="cls-5" d="M433.19,23.5a45.38,45.38,0,0,1,7.07,2.84,40.63,40.63,0,0,1,6.41,4.08,57.57,57.57,0,0,1,5.76,5.1c.9.92,1.81,1.86,2.68,2.85.45.49.88,1,1.32,1.5s.86,1,1.34,1.66l.2.26a3.14,3.14,0,1,1-5,3.74,3.21,3.21,0,0,1-.59-1.45,9.52,9.52,0,0,0-.42-1.6c-.18-.56-.39-1.11-.62-1.66a28.86,28.86,0,0,0-1.59-3.2,29.73,29.73,0,0,0-4.35-5.71,24,24,0,0,0-5.74-4.34,19.29,19.29,0,0,0-6.81-2.23h-.07a.93.93,0,0,1-.8-1.07,1,1,0,0,1,1.07-.8Z"/><path class="cls-5" d="M207.19,25.34a19.29,19.29,0,0,0-6.81,2.23,24,24,0,0,0-5.74,4.34,29.73,29.73,0,0,0-4.35,5.71,28.86,28.86,0,0,0-1.59,3.2c-.23.55-.44,1.1-.62,1.66a9.52,9.52,0,0,0-.42,1.6A3.13,3.13,0,1,1,182,41.8l.2-.27c.48-.66.9-1.13,1.34-1.66s.87-1,1.32-1.5c.87-1,1.78-1.93,2.68-2.85a57.57,57.57,0,0,1,5.76-5.1,40.63,40.63,0,0,1,6.41-4.08,45.38,45.38,0,0,1,7.07-2.84,1,1,0,0,1,1.21.59.94.94,0,0,1-.59,1.2l-.16,0Z"/></svg>