<svg id="ART-fills" xmlns="http://www.w3.org/2000/svg" viewBox="0 0 640 320"><defs><style>.cls-1{fill:#00007f;}.cls-2{fill:red;}.cls-3{fill:#0d0a09;}.cls-4{fill:#fcfcfc;}</style></defs><path class="cls-1" d="M179.72,144.21c.15-.23.3-.46.46-.68s.17-.2.26-.3l.46-.54.89-1c.59-.64,1.18-1.28,1.78-1.89,1.2-1.23,2.39-2.44,3.61-3.62,2.46-2.34,4.92-4.64,7.47-6.83s5.12-4.34,7.76-6.39c1.33-1,2.64-2,4-3s2.68-2,4.05-2.94c5.45-3.85,11.09-7.38,16.85-10.68a187.89,187.89,0,0,1,17.8-8.87c6.06-2.7,12.29-4.94,18.53-7.18,1.55-.57,3.1-1.18,4.68-1.68L273,86.91c3.17-1,6.32-2.17,9.56-3,1.61-.46,3.23-.94,4.85-1.35s3.28-.73,4.92-1.07l2.48-.5,2.49-.36c1.66-.24,3.33-.44,5-.64s3.35-.24,5-.32,3.35-.21,5-.15,3.36,0,5,.07,3.35.15,5,.28c13.41,1.05,26.46,4.2,39.16,7.73,1.59.45,3.2.85,4.78,1.32l4.74,1.41c1.6.42,3.16,1,4.73,1.47s3.15,1,4.69,1.59c6.23,2.19,12.32,4.76,18.34,7.5a229,229,0,0,1,34.37,19.94c5.46,3.82,10.74,7.9,15.89,12.19,2.57,2.15,5.09,4.36,7.59,6.64,1.24,1.14,2.47,2.31,3.7,3.48.61.59,1.22,1.19,1.83,1.81s1.19,1.2,1.86,1.92l0,.05a4.52,4.52,0,0,1-6.67,6.1,4.26,4.26,0,0,1-.49-.65c-.36-.56-.83-1.25-1.28-1.88s-.93-1.28-1.41-1.92c-.95-1.29-1.95-2.54-3-3.78-2.06-2.49-4.17-4.94-6.42-7.28s-4.52-4.66-6.88-6.9l-3.61-3.28-3.7-3.2a177.19,177.19,0,0,0-32.59-21.7c-1.46-.76-2.94-1.45-4.41-2.18l-2.22-1.06-2.25-1c-1.51-.65-3-1.35-4.52-2l-4.58-1.79a132.09,132.09,0,0,0-18.84-5.66c-12.84-2.89-26.09-2.93-39-2.47s-25.72,1.53-38.68,2.74l-2.44.25c-.81.09-1.61.22-2.42.33l-4.85.71c-3.19.64-6.43,1.22-9.56,2.17a115.44,115.44,0,0,0-18.31,7c-3,1.35-5.87,2.89-8.76,4.4L233,106.34c-1.41.83-2.78,1.71-4.17,2.57A148.89,148.89,0,0,0,213,120.38c-2.53,2-4.93,4.24-7.29,6.47s-4.65,4.52-6.81,6.92-4.29,4.84-6.24,7.38c-1,1.27-1.95,2.54-2.84,3.85-.46.65-.89,1.3-1.32,2l-.61,1c-.1.16-.17.3-.26.46a1.07,1.07,0,0,0-.11.2.66.66,0,0,0,.12-.17,4.5,4.5,0,0,1-8-4.21Z"/><line class="cls-2" x1="214.43" y1="111.45" x2="199.97" y2="84.9"/><path class="cls-3" d="M211.57,113,199.48,85.17a.56.56,0,0,1,1-.53l16.82,25.25a3.26,3.26,0,0,1-5.43,3.62A5.05,5.05,0,0,1,211.57,113Z"/><line class="cls-2" x1="243.85" y1="96.5" x2="234.47" y2="67.11"/><path class="cls-3" d="M240.75,97.49l-6.81-30.21a.56.56,0,0,1,1.06-.34l11.94,28.57a3.26,3.26,0,0,1-6,2.52A3.74,3.74,0,0,1,240.75,97.49Z"/><line class="cls-2" x1="271.7" y1="86.64" x2="266.46" y2="55.93"/><path class="cls-3" d="M268.5,87.18,265.91,56a.56.56,0,0,1,1.1-.19l7.89,30.26a3.26,3.26,0,1,1-6.31,1.65A2.72,2.72,0,0,1,268.5,87.18Z"/><line class="cls-2" x1="303.49" y1="79.52" x2="299.15" y2="48.63"/><path class="cls-3" d="M300.28,80,298.6,48.7a.56.56,0,0,1,.53-.59.57.57,0,0,1,.57.44l7,30.52a3.26,3.26,0,0,1-6.36,1.46A3.57,3.57,0,0,1,300.28,80Z"/><line class="cls-2" x1="287.6" y1="82.56" x2="283.25" y2="51.66"/><path class="cls-3" d="M284.38,83,282.7,51.74a.56.56,0,0,1,1.11-.15l7,30.51a3.26,3.26,0,0,1-6.36,1.47A3.6,3.6,0,0,1,284.38,83Z"/><line class="cls-2" x1="259.03" y1="90.97" x2="251.28" y2="60.96"/><path class="cls-3" d="M255.88,91.78,250.74,61.1a.56.56,0,0,1,.46-.65.57.57,0,0,1,.62.37l10.35,29.33A3.26,3.26,0,1,1,256,92.32,3.58,3.58,0,0,1,255.88,91.78Z"/><line class="cls-2" x1="229.64" y1="103.16" x2="215.18" y2="76.62"/><path class="cls-3" d="M226.79,104.72l-12.1-27.83a.57.57,0,0,1,.29-.74.57.57,0,0,1,.7.2l16.82,25.26a3.26,3.26,0,0,1-5.43,3.61A3.05,3.05,0,0,1,226.79,104.72Z"/><line class="cls-2" x1="202.01" y1="120.09" x2="184.87" y2="95.74"/><path class="cls-3" d="M199.35,122l-14.94-25.9a.57.57,0,0,1,.2-.77.55.55,0,0,1,.71.13l19.34,22.8a3.26,3.26,0,1,1-5,4.22A2.32,2.32,0,0,1,199.35,122Z"/><line class="cls-2" x1="190.34" y1="129.16" x2="173.29" y2="104.72"/><path class="cls-3" d="M187.67,131l-14.84-26a.57.57,0,0,1,.21-.77.58.58,0,0,1,.71.13L193,127.3a3.26,3.26,0,1,1-5,4.2A3.82,3.82,0,0,1,187.67,131Z"/><line class="cls-2" x1="433.03" y1="111.45" x2="447.49" y2="84.9"/><path class="cls-3" d="M430.18,109.89,447,84.64a.56.56,0,0,1,.78-.16.56.56,0,0,1,.2.69L435.89,113a3.26,3.26,0,0,1-6-2.6A3.53,3.53,0,0,1,430.18,109.89Z"/><line class="cls-2" x1="403.61" y1="96.5" x2="412.99" y2="67.11"/><path class="cls-3" d="M400.52,95.51l11.94-28.57a.55.55,0,0,1,.73-.3.57.57,0,0,1,.33.64l-6.81,30.21a3.27,3.27,0,0,1-6.37-1.44A3.42,3.42,0,0,1,400.52,95.51Z"/><line class="cls-2" x1="374.79" y1="86.38" x2="381.97" y2="56.19"/><path class="cls-3" d="M371.63,85.63l9.79-29.57a.56.56,0,0,1,.71-.36.55.55,0,0,1,.38.61L378,87.13a3.26,3.26,0,0,1-6.46-.95A4.43,4.43,0,0,1,371.63,85.63Z"/><line class="cls-2" x1="343.97" y1="79.52" x2="348.31" y2="48.63"/><path class="cls-3" d="M340.75,79.07l7-30.52a.56.56,0,0,1,.67-.42.55.55,0,0,1,.43.57L347.18,80a3.26,3.26,0,0,1-6.51-.35A3.31,3.31,0,0,1,340.75,79.07Z"/><line class="cls-2" x1="330.21" y1="77.62" x2="331.81" y2="46.38"/><path class="cls-3" d="M327,77.45l4.29-31.1a.56.56,0,0,1,1.12.06l1.08,31.37a3.26,3.26,0,1,1-6.52.23A5.12,5.12,0,0,1,327,77.45Z"/><line class="cls-2" x1="318.07" y1="78.74" x2="315.63" y2="47.57"/><path class="cls-3" d="M314.83,79l.24-31.38a.56.56,0,0,1,.57-.55.57.57,0,0,1,.55.46l5.12,31a3.26,3.26,0,0,1-6.44,1.07A3.52,3.52,0,0,1,314.83,79Z"/><line class="cls-2" x1="359.86" y1="82.56" x2="364.21" y2="51.66"/><path class="cls-3" d="M356.64,82.1l7-30.51a.56.56,0,0,1,1.11.15L363.08,83a3.26,3.26,0,1,1-6.51-.35A5.35,5.35,0,0,1,356.64,82.1Z"/><line class="cls-2" x1="388.43" y1="90.97" x2="396.18" y2="60.96"/><path class="cls-3" d="M385.29,90.15l10.35-29.33a.56.56,0,0,1,.72-.34.55.55,0,0,1,.36.62l-5.14,30.68a3.26,3.26,0,1,1-6.43-1.08A3.41,3.41,0,0,1,385.29,90.15Z"/><line class="cls-2" x1="417.81" y1="103.16" x2="432.28" y2="76.62"/><path class="cls-3" d="M415,101.61l16.82-25.26a.55.55,0,0,1,.78-.15.57.57,0,0,1,.21.69l-12.1,27.83a3.26,3.26,0,0,1-6-2.6A3.53,3.53,0,0,1,415,101.61Z"/><line class="cls-2" x1="445.03" y1="122.31" x2="459.49" y2="95.77"/><path class="cls-3" d="M442.17,120.76,459,95.5a.55.55,0,0,1,.77-.15A.57.57,0,0,1,460,96l-12.1,27.83a3.26,3.26,0,0,1-6-2.6A3.53,3.53,0,0,1,442.17,120.76Z"/><line class="cls-2" x1="457.12" y1="131.97" x2="474.17" y2="107.53"/><path class="cls-3" d="M454.45,130.11l19.26-22.9a.56.56,0,0,1,.92.63l-14.84,26a3.27,3.27,0,0,1-5.67-3.24A3.38,3.38,0,0,1,454.45,130.11Z"/><path class="cls-4" d="M369.34,100.4c-2.26,2.08,14.15,7.88,19.18,13.32s21,10.93,23.3,8.85-8.48-12.95-15.12-16.39S371.6,98.32,369.34,100.4Z"/></svg>