<svg id="ART-fills" xmlns="http://www.w3.org/2000/svg" viewBox="0 0 640 320"><defs><style>.cls-1{fill:aqua;}.cls-2{fill:blue;}.cls-3{fill:#fcfcfc;}.cls-4{fill:#0d0a09;}</style></defs><path class="cls-1" d="M350,207.1c.17.24.34.45.51.65,3.29,3.86,8.46,2.82,10.72-2.39l2.4-8.38,11.08-38.58a201.58,201.58,0,0,0-18.17,33c-9.76-7.3-19.95-3.38-30.49-8Z"/><path class="cls-2" d="M356.49,191.4a201.58,201.58,0,0,1,18.17-33l4.47-15.55L313.66,166,326,183.37C336.54,188,346.73,184.1,356.49,191.4Z"/><path class="cls-1" d="M290,207.1a5.63,5.63,0,0,1-.51.65c-3.29,3.86-8.45,2.82-10.71-2.39L276.39,197,265.31,158.4a200.87,200.87,0,0,1,18.18,33c9.75-7.3,19.95-3.38,30.49-8Z"/><path class="cls-2" d="M283.49,191.4a200.87,200.87,0,0,0-18.18-33l-4.46-15.55L326.32,166,314,183.37C303.44,188,293.24,184.1,283.49,191.4Z"/><path class="cls-3" d="M285.41,200c-.05,0-.15.13-.11.09l.06-.08.13-.15.26-.33.5-.66,1-1.34c.64-.91,1.27-1.83,1.88-2.76,1.22-1.85,2.36-3.76,3.47-5.69s2.14-3.89,3.08-5.9q.72-1.5,1.32-3c.19-.51.36-1,.51-1.51.05-.23.14-.48.16-.67l0-.15s0-.05,0-.08v0s0,0,0,0a.69.69,0,0,0,0,.32,2.15,2.15,0,1,1,4.28-.34,3.63,3.63,0,0,1-.08.73,1.54,1.54,0,0,1-.07.24l-.07.17-.14.32-.13.24c-.18.33-.34.57-.51.85-.35.5-.69,1-1,1.44l-2,2.74c-1.37,1.79-2.69,3.59-4,5.39s-2.59,3.63-3.84,5.47c-.62.92-1.23,1.85-1.84,2.79l-.89,1.41-.44.71-.22.36-.11.19-.06.09a.87.87,0,0,1-.24.26.67.67,0,1,1-.72-1.13Z"/><path class="cls-3" d="M284.22,201.34a1.78,1.78,0,0,1-.12-.29,2,2,0,0,1-.07-.22l0-.19-.07-.37-.13-.72-.29-1.44-.6-2.86c-.43-1.9-.87-3.8-1.35-5.68-.93-3.78-2-7.54-3-11.29l-1.65-5.63c-.6-1.86-1.13-3.75-1.74-5.62l-1.77-5.69c-.32-1-.6-1.94-.89-3-.13-.54-.28-1-.39-1.65a5.85,5.85,0,0,1-.16-1.05l0-.32v-.16a.74.74,0,0,1,0-.22,7,7,0,0,1,.29-1.43,3.87,3.87,0,0,1,7.12,3.05,1.91,1.91,0,0,0,.14-.71c0-.09,0,0,0,0l0,0,0,0c-.06,0-.09.23-.12.41a10.52,10.52,0,0,0-.13,1.24c0,.91,0,1.86,0,2.81.06,1.91.18,3.85.37,5.78s.43,3.86.66,5.79.57,3.85.88,5.77c.66,3.83,1.39,7.65,2.27,11.44.43,1.89.91,3.78,1.41,5.66.27.93.52,1.87.8,2.8l.43,1.39.23.69.12.33,0,.17c0,.06,0,0,0-.05a.41.41,0,0,0-.07-.11,1.21,1.21,0,0,1-2,1.31Z"/><path class="cls-3" d="M353.84,201.11a1,1,0,0,1-.24-.26l-.06-.09-.11-.19-.21-.36-.44-.71-.89-1.41c-.61-.94-1.22-1.87-1.85-2.79-1.24-1.84-2.54-3.65-3.84-5.47s-2.64-3.6-4-5.39l-2-2.74c-.35-.46-.7-.94-1-1.44-.17-.28-.34-.52-.51-.85l-.14-.24-.14-.32-.06-.17a.89.89,0,0,1-.07-.24,4.55,4.55,0,0,1-.09-.73,2.15,2.15,0,1,1,4.29.34.85.85,0,0,0,0-.32c0-.08,0,0,0,0v0a.19.19,0,0,0,0,.08l0,.15a5.33,5.33,0,0,0,.16.67c.15.5.32,1,.51,1.51.39,1,.83,2,1.31,3,.94,2,2,4,3.09,5.9s2.25,3.84,3.47,5.69c.6.93,1.23,1.85,1.87,2.76l1,1.34.51.66.26.33.13.15.06.08s-.07-.09-.12-.09a.66.66,0,0,1,.21.92A.67.67,0,0,1,353.84,201.11Z"/><path class="cls-3" d="M353.72,200a.26.26,0,0,0-.07.11s0,.11,0,.05l.06-.17.12-.33L354,199l.43-1.39c.28-.93.53-1.87.8-2.8.49-1.88,1-3.77,1.4-5.66.89-3.79,1.61-7.61,2.28-11.44.3-1.92.6-3.84.87-5.77s.5-3.85.66-5.79.31-3.87.38-5.78c0-1,0-1.9,0-2.81a10.65,10.65,0,0,0-.12-1.24c0-.18-.07-.4-.12-.41l0,0v0s0-.05,0,0a1.58,1.58,0,0,0,.14.71,3.87,3.87,0,1,1,7.11-3.05,7,7,0,0,1,.3,1.43,1.46,1.46,0,0,1,0,.22v.16l0,.32a6.92,6.92,0,0,1-.16,1.05c-.11.63-.26,1.11-.4,1.65-.29,1-.57,2-.88,3L364.84,167c-.62,1.87-1.15,3.76-1.74,5.62l-1.66,5.63c-1.05,3.75-2.1,7.51-3,11.29-.47,1.88-.91,3.78-1.34,5.68l-.6,2.86-.29,1.44-.13.72-.07.37,0,.19a1.24,1.24,0,0,1-.06.22l-.12.29a1.22,1.22,0,0,1-1.68.36A1.2,1.2,0,0,1,353.72,200Z"/><path class="cls-4" d="M381.59,150.78a35.47,35.47,0,0,1-2.21,6.76c-.45,1.07-1,2.1-1.46,3.16s-.92,2.16-1.34,3.27c-1.73,4.4-2.81,9-4.2,13.86-2.7,9.5-5.53,18.93-8.42,28.35l-.06.2-.06.13a12.19,12.19,0,0,1-2.67,3.86,9.06,9.06,0,0,1-4.57,2.37,8.09,8.09,0,0,1-5.25-.82,10.1,10.1,0,0,1-3.58-3.29l.21.26L333.41,192l-7.27-8.47c-2.36-2.88-5.1-5.41-6.65-9a.71.71,0,0,1,.38-.93.69.69,0,0,1,.61,0c3.45,1.89,5.7,4.87,8.34,7.5l7.71,8.07,15.4,16.16.06.07.14.19a4.55,4.55,0,0,0,1.7,1.46,2.67,2.67,0,0,0,1.72.21,3.42,3.42,0,0,0,1.65-1,6.34,6.34,0,0,0,1.31-2.06l-.12.33,8.11-28.36A145.54,145.54,0,0,1,371,161.8a45.69,45.69,0,0,1,3.28-7,16.45,16.45,0,0,1,2.54-3.08,10.38,10.38,0,0,1,1.64-1.27,7.06,7.06,0,0,1,.93-.54,9.11,9.11,0,0,1,1.07-.44,1,1,0,0,1,1.21.59,1.07,1.07,0,0,1,0,.5Z"/><path class="cls-4" d="M259.56,149.44a8.45,8.45,0,0,1,1.07.44,6,6,0,0,1,.93.54,11,11,0,0,1,1.65,1.27,16.45,16.45,0,0,1,2.54,3.08,45.69,45.69,0,0,1,3.28,7,145.54,145.54,0,0,1,4.45,14.37l8.11,28.36-.12-.33a6.49,6.49,0,0,0,1.3,2.06,3.45,3.45,0,0,0,1.66,1,2.65,2.65,0,0,0,1.71-.21,4.47,4.47,0,0,0,1.7-1.46l.15-.19.06-.07,15.4-16.16,7.71-8.07c2.63-2.63,4.88-5.61,8.33-7.5a.71.71,0,0,1,1,.9c-1.54,3.62-4.28,6.15-6.65,9L306.56,192,292,208.89l.21-.26a10.22,10.22,0,0,1-3.59,3.29,8.07,8.07,0,0,1-5.24.82,9,9,0,0,1-4.57-2.37,12.39,12.39,0,0,1-2.68-3.86l-.05-.13-.06-.2q-4.35-14.13-8.43-28.35c-1.38-4.83-2.46-9.46-4.2-13.86-.41-1.11-.87-2.19-1.33-3.27s-1-2.09-1.46-3.16a35.48,35.48,0,0,1-2.22-6.76l-.05-.24a1,1,0,0,1,.72-1.13A1.09,1.09,0,0,1,259.56,149.44Z"/></svg>