<svg xmlns="http://www.w3.org/2000/svg" viewBox="0 0 640 320"><defs><style>.cls-1{fill:#fcfcfc;}.cls-2,.cls-3{fill:none;stroke:#0d0a09;stroke-miterlimit:10;}.cls-2{stroke-linecap:round;stroke-width:14px;}.cls-3{stroke-width:13.56px;}</style></defs><g id="ART-fills"><path class="cls-1" d="M451,145.9a46.09,46.09,0,0,1,13.79,19.49c.58,1.53,3.37,2.3,3.27.9-.7-10.07-8.21-21.57-20.37-29.52-12.36-8.08-26.16-10.27-35.69-6.63-1.31.51.6,2.76,2.22,2.62C425.21,131.79,438.86,135.21,451,145.9Z"/><path class="cls-1" d="M256.61,145.9a46.18,46.18,0,0,1,13.79,19.49c.58,1.53,3.36,2.3,3.27.9-.71-10.07-8.21-21.57-20.37-29.52-12.36-8.08-26.16-10.27-35.69-6.63-1.31.51.6,2.76,2.22,2.62C230.85,131.79,244.5,135.21,256.61,145.9Z"/><path class="cls-1" d="M189.59,219.56c-3.3-3.82-6.26-7.17-7.45-10.34-.27-.73-4.72.91-4.68,1.57.34,4.78,4.07,10.28,9.16,14.92,5.29,4.82,9.55,6.36,16.26,6.69.67,0,3.09-5.75,2.33-5.68C200,227.18,194.59,225.36,189.59,219.56Z"/><path class="cls-1" d="M381.59,219.56c-3.3-3.82-6.26-7.17-7.45-10.34-.28-.73-4.73.91-4.68,1.57.34,4.78,4.07,10.28,9.16,14.92,5.29,4.82,9.55,6.36,16.26,6.69.67,0,3.09-5.75,2.32-5.68C392,227.18,386.59,225.36,381.59,219.56Z"/></g><g id="Kitchen_Sink" data-name="Kitchen Sink"><path class="cls-2" d="M299,194.92s6.19-18,21.54-18,22.08,17,22.08,17"/><circle class="cls-3" cx="415.52" cy="183.05" r="72.85"/><circle class="cls-3" cx="226.18" cy="183.05" r="72.85"/></g></svg>