<svg xmlns="http://www.w3.org/2000/svg" viewBox="0 0 640 160"><defs><style>.cls-1{fill:maroon;}.cls-2{fill:red;}.cls-3{fill:#0d0a09;}.cls-4{fill:#ff0;}</style></defs><g id="ART-fills"><path class="cls-1" d="M321.12,89.11c-35.66,18.24-76.13,11.71-108.3-9.3,4.88,7.63,12.47,15.21,24,22.08,32.43,19.36,66.33,19.72,84.06,7.2,17.73,12.52,51.63,12.16,84-7.2.75-.44,1.48-.89,2.2-1.34C377.65,105.29,346.36,104.77,321.12,89.11Z"/><path class="cls-2" d="M435,39.75a1.14,1.14,0,0,0-2.25.3c.09,9.71-4,22.13-24,26.33-34.56,7.23-28.7-7.69-59.23-10.11-13.16-1-22.39,2.6-28.66,7.08-6.27-4.48-15.51-8.12-28.66-7.08C261.66,58.69,267.52,73.61,233,66.38c-20-4.2-24.13-16.61-24-26.32a1.14,1.14,0,0,0-2.25-.28c-2.49,10.12-3.36,25.15,6.15,40,32.17,21,72.64,27.54,108.3,9.3,25.24,15.66,56.53,16.18,86,11.44C438.89,80.44,438.71,54.72,435,39.75Z"/></g><g id="ART-strokes"><path class="cls-3" d="M322.72,106.43a43.51,43.51,0,0,0,16.39,7.26,70.28,70.28,0,0,0,18.52,1.53,93.56,93.56,0,0,0,18.61-2.94,102,102,0,0,0,17.85-6.42c1.43-.68,2.88-1.33,4.3-2l4.19-2.27a86.87,86.87,0,0,0,8.06-5,75.14,75.14,0,0,0,7.4-5.91,59.25,59.25,0,0,0,6.51-6.84c1-1.21,1.91-2.49,2.82-3.78s1.69-2.65,2.43-4a48.47,48.47,0,0,0,3.66-8.66,49.09,49.09,0,0,0,2-18.64,56.69,56.69,0,0,0-1.62-9.31c-.41-1.52-.87-3-1.38-4.52l-.36-1a.64.64,0,0,0,.28.29.67.67,0,0,0,.38.07.66.66,0,0,0,.53-.52c0-.44,0,0,.07.18l.1.61c.06.41.14.82.18,1.23a33.8,33.8,0,0,1-.11,9.94A25.38,25.38,0,0,1,429.92,55a24.28,24.28,0,0,1-7.1,7.14c-.71.44-1.4.94-2.13,1.34l-2.24,1.12c-.38.18-.75.39-1.13.54l-1.17.43-2.34.87c-1.58.48-3.18.86-4.78,1.29l-4.79.92c-1.59.36-3.23.5-4.85.74a47.12,47.12,0,0,1-4.91.43l-1.24.08c-.41,0-.83,0-1.25,0l-2.5-.06c-.84,0-1.68-.18-2.51-.27l-1.26-.16c-.42-.06-.83-.18-1.24-.27-.82-.2-1.67-.35-2.47-.61l-2.41-.8c-1.55-.64-3.09-1.28-4.55-2-2.94-1.39-5.75-2.77-8.66-3.83a52,52,0,0,0-9-2.33c-1.54-.24-3.06-.52-4.63-.61l-2.33-.21-1.16-.1-1.16,0a47.13,47.13,0,0,0-9.14.53,39,39,0,0,0-8.64,2.42A35.18,35.18,0,0,0,322.74,66a3.25,3.25,0,0,1-4-5.16l.16-.12h0a42.77,42.77,0,0,1,19.36-6.83,55.11,55.11,0,0,1,10.11-.08l1.25.1,1.23.16,2.46.33c1.64.17,3.27.55,4.9.88a56.94,56.94,0,0,1,9.57,2.89c3.09,1.26,6,2.83,8.82,4.29a34.71,34.71,0,0,0,8.56,3.39c.37.09.73.21,1.11.27l1.13.17c.76.1,1.5.27,2.28.31l2.31.12c.39,0,.77.06,1.16.05l1.17,0c1.56-.07,3.12-.07,4.69-.29s3.14-.28,4.7-.59l4.69-.82c1.51-.39,3.05-.73,4.55-1.15l2.19-.78,1.1-.38c.37-.14.7-.33,1.05-.49l2.1-1c.67-.37,1.3-.81,2-1.21a21.68,21.68,0,0,0,6.51-6.32,22.23,22.23,0,0,0,3.28-8.48,31.56,31.56,0,0,0,.15-9.26c0-.39-.11-.77-.17-1.16l-.09-.58,0-.29,0-.24a2,2,0,0,1,0-.48,1.62,1.62,0,0,1,1.37-1.27,1.64,1.64,0,0,1,1,.17,1.59,1.59,0,0,1,.69.72c.08.17.08.2.1.24l0,.15.1.29.21.58c.53,1.55,1,3.12,1.4,4.7a59.68,59.68,0,0,1,1.64,9.68A51.23,51.23,0,0,1,435.62,68a52.49,52.49,0,0,1-9.19,17.31,61.54,61.54,0,0,1-6.66,7.22,80.38,80.38,0,0,1-7.55,6.24A95,95,0,0,1,404,104l-4.22,2.44c-1.44.76-2.91,1.47-4.36,2.21l-2.18,1.09-2.25,1c-1.5.63-3,1.34-4.5,1.91l-4.6,1.68c-1.53.56-3.11,1-4.67,1.48a98.22,98.22,0,0,1-19.3,3.77,77.06,77.06,0,0,1-19.87-.7,44.7,44.7,0,0,1-4.93-1.07,42.81,42.81,0,0,1-4.87-1.52l-1.21-.41-1.17-.52-2.36-1.06a21.24,21.24,0,0,1-2.29-1.25L319,111.74a3.26,3.26,0,1,1,3.61-5.42Z"/><path class="cls-3" d="M319,66a34.74,34.74,0,0,0-7.63-4.44,38.94,38.94,0,0,0-8.65-2.43,47,47,0,0,0-9.13-.52l-1.16,0-1.16.1-2.34.2c-1.56.09-3.08.38-4.62.61a52,52,0,0,0-9,2.34c-2.91,1.06-5.72,2.44-8.66,3.83a40.09,40.09,0,0,1-9.43,3.4c-.41.09-.82.21-1.24.27l-1.26.16c-.83.08-1.67.25-2.51.27l-2.5.06c-.42,0-.84,0-1.25,0l-1.24-.08a47.31,47.31,0,0,1-4.92-.43c-1.61-.24-3.26-.38-4.84-.74l-4.8-.92c-1.59-.44-3.2-.82-4.78-1.3l-2.34-.86-1.16-.43c-.39-.16-.76-.36-1.13-.54L221,63.49c-.73-.4-1.41-.9-2.12-1.35A24.28,24.28,0,0,1,211.77,55a25.47,25.47,0,0,1-3.55-9.4,34.15,34.15,0,0,1-.12-9.94c0-.41.13-.82.19-1.23l.1-.61c0-.14.06-.62.07-.18a.64.64,0,0,0,.53.52.67.67,0,0,0,.38-.07.64.64,0,0,0,.28-.29l-.36,1c-.51,1.49-1,3-1.38,4.52a57.77,57.77,0,0,0-1.62,9.31,48.23,48.23,0,0,0,10.85,35.12,60.21,60.21,0,0,0,6.51,6.85,77.89,77.89,0,0,0,7.4,5.91,90.62,90.62,0,0,0,8.07,5l4.19,2.27c1.42.71,2.86,1.36,4.3,2a101.84,101.84,0,0,0,17.84,6.42,93.65,93.65,0,0,0,18.62,2.94,70.28,70.28,0,0,0,18.52-1.54A43.24,43.24,0,0,0,319,106.43l.15-.11a3.26,3.26,0,0,1,3.92,5.21,2.2,2.2,0,0,1-.32.21l-2.26,1.32a19.42,19.42,0,0,1-2.28,1.24l-2.36,1.06-1.18.53-1.21.41a55.3,55.3,0,0,1-9.8,2.58,77,77,0,0,1-19.86.7,98.22,98.22,0,0,1-19.3-3.77c-1.55-.5-3.14-.92-4.67-1.48l-4.6-1.68c-1.53-.57-3-1.28-4.5-1.91l-2.24-1-2.19-1.09c-1.45-.74-2.92-1.45-4.35-2.21L237.69,104a92.48,92.48,0,0,1-8.2-5.31,77.51,77.51,0,0,1-7.56-6.24,60.68,60.68,0,0,1-6.65-7.22A52.14,52.14,0,0,1,206.08,68a51.56,51.56,0,0,1-2-19.48,60.79,60.79,0,0,1,1.64-9.68q.61-2.37,1.41-4.7l.2-.58.11-.29,0-.15a1,1,0,0,1,.1-.24,1.54,1.54,0,0,1,.69-.72,1.63,1.63,0,0,1,2.34,1.1,2,2,0,0,1,0,.48l0,.24,0,.29-.09.58c-.06.39-.14.77-.17,1.16a31.56,31.56,0,0,0,.15,9.26,22.31,22.31,0,0,0,3.29,8.48A21.81,21.81,0,0,0,220.3,60c.65.39,1.28.84,2,1.2l2.09,1c.35.15.68.34,1.05.48l1.1.39,2.19.77c1.5.43,3,.76,4.55,1.15l4.69.82c1.56.31,3.13.39,4.7.59s3.13.22,4.69.29l1.17,0c.39,0,.77,0,1.16,0l2.31-.12c.77,0,1.52-.21,2.28-.3l1.13-.17c.37-.06.73-.19,1.1-.27.73-.21,1.48-.35,2.2-.61l2.14-.78c1.41-.62,2.81-1.27,4.22-2,2.82-1.46,5.73-3,8.83-4.29a57.31,57.31,0,0,1,9.57-2.89c1.63-.33,3.26-.7,4.9-.88l2.45-.33,1.24-.16,1.25-.1a55.12,55.12,0,0,1,10.11.09,42.77,42.77,0,0,1,19.36,6.83h0a3.25,3.25,0,1,1-3.62,5.4Z"/></g><g id="Kitchen_Sink" data-name="Kitchen Sink"><path class="cls-4" d="M356.17,68.29l7.26,2.21c2.4.76,4.82,1.47,7.24,2.16a117.14,117.14,0,0,0,14.53,3.41c1.21.17,2.42.35,3.63.56s2.41.35,3.62.45a32.62,32.62,0,0,0,7.26-.15,39,39,0,0,0,13.77-4.43,1.79,1.79,0,0,1,1.7,3.14l0,0h0a46,46,0,0,1-15,4.79c-.66.07-1.31.19-2,.23l-2,.1c-1.31.15-2.62,0-3.94.08s-2.62-.12-3.94-.19-2.59-.35-3.87-.57a108.77,108.77,0,0,1-14.79-4.4Q362.5,73,355.56,69.92a.87.87,0,0,1,.61-1.63Z"/><path class="cls-4" d="M286.14,69.92Q279.2,73,272,75.71a109.2,109.2,0,0,1-14.79,4.4c-1.29.22-2.57.44-3.87.57s-2.62.21-3.94.19-2.63.07-4-.08l-2-.1c-.66,0-1.31-.16-2-.23a46.17,46.17,0,0,1-15-4.79h0a1.78,1.78,0,1,1,1.62-3.18l0,0A39,39,0,0,0,242,76.93a32.61,32.61,0,0,0,7.26.15c1.21-.1,2.42-.31,3.62-.45s2.42-.39,3.63-.56A117.14,117.14,0,0,0,271,72.66c2.42-.69,4.83-1.4,7.24-2.16l7.26-2.21a.86.86,0,0,1,1.09.58A.88.88,0,0,1,286.14,69.92Z"/><path class="cls-4" d="M379,87.61l-7.25-2.21c-2.41-.76-4.82-1.47-7.24-2.17A117.51,117.51,0,0,0,350,79.83c-1.21-.17-2.42-.35-3.63-.57s-2.42-.34-3.63-.44a31.94,31.94,0,0,0-7.25.15,38.88,38.88,0,0,0-13.77,4.43A1.79,1.79,0,1,1,320,80.26l0,0h0a46.17,46.17,0,0,1,15-4.79c.65-.07,1.31-.19,2-.23l2-.1c1.32-.15,2.63,0,3.95-.08s2.62.12,3.93.19,2.59.35,3.88.57a107.23,107.23,0,0,1,14.78,4.4C370.27,82,375,83.91,379.59,86a.87.87,0,0,1-.61,1.63Z"/><path class="cls-4" d="M262.1,86c4.64-2.07,9.33-4,14.11-5.79A107.78,107.78,0,0,1,291,75.79c1.29-.22,2.57-.44,3.87-.57s2.62-.21,3.94-.19,2.63-.07,3.95.08l2,.1c.66,0,1.31.16,2,.23a46.17,46.17,0,0,1,15,4.79h0a1.79,1.79,0,1,1-1.62,3.19l0,0A38.88,38.88,0,0,0,306.25,79a31.94,31.94,0,0,0-7.25-.15c-1.22.1-2.43.31-3.63.44s-2.42.4-3.63.57a117.51,117.51,0,0,0-14.53,3.4c-2.42.7-4.83,1.41-7.24,2.17l-7.26,2.21a.86.86,0,0,1-1.08-.58A.88.88,0,0,1,262.1,86Z"/></g></svg>