<svg xmlns="http://www.w3.org/2000/svg" viewBox="0 0 640 160"><defs><style>.cls-1{fill:#5b2e42;}.cls-2{fill:#7f4a60;}.cls-3{fill:aqua;}.cls-4{fill:none;stroke:#0d0a09;stroke-miterlimit:10;stroke-width:5.96px;}</style></defs><g id="ART-fills"><path class="cls-1" d="M397.13,61.25c7.9-7.77,14.11-16.9,14.11-27.15H228.76c0,9.27,5.07,17.62,11.89,24.88a159.46,159.46,0,0,0,28.7,9.76C312.71,78.3,357.29,76.05,397.13,61.25Z"/><path class="cls-2" d="M269.35,68.74A159.46,159.46,0,0,1,240.65,59a127.58,127.58,0,0,0,17.94,15.23C275.31,86.35,299.11,91.56,320,91.56s44.69-5.21,61.41-17.35a138.11,138.11,0,0,0,15.72-13C357.29,76.05,312.71,78.3,269.35,68.74Z"/><path class="cls-3" d="M259,75.06a52.46,52.46,0,0,0,13.08,8.38,84.17,84.17,0,0,0,14.8,5.23,131.85,131.85,0,0,0,31.2,4c5.25,0,10.5.08,15.75-.22a85.21,85.21,0,0,0,15.51-2.35A72.51,72.51,0,0,0,364,85a46.3,46.3,0,0,0,12.44-8.54l0,0A3.24,3.24,0,0,1,381,81l0,0a55.68,55.68,0,0,1-14.22,9.61,85.3,85.3,0,0,1-15.85,5.64,148.11,148.11,0,0,1-16.4,3,90.6,90.6,0,0,1-16.62.8,124.57,124.57,0,0,1-32.64-5.87,88.83,88.83,0,0,1-15.29-6.64,52.59,52.59,0,0,1-13.19-10.34A1.58,1.58,0,0,1,259,75Z"/></g><g id="ART-strokes"><path class="cls-4" d="M320,34.1H228.76c0,16.67,16.39,30.35,29.83,40.11C275.31,86.35,299.11,91.56,320,91.56s44.69-5.21,61.41-17.35c13.44-9.76,29.83-23.44,29.83-40.11Z"/></g></svg>