<svg xmlns="http://www.w3.org/2000/svg" viewBox="0 0 640 320"><defs><style>.cls-1{fill:#00007f;}.cls-2{fill:maroon;}.cls-3{fill:red;}.cls-4{fill:#ff0;}.cls-5{fill:#0d0a09;}</style></defs><g id="ART-fills"><path class="cls-1" d="M339.86,173.63c0,6.66-8.89,12.06-19.86,12.06s-19.86-5.4-19.86-12.06,8.89-19.3,19.86-19.3S339.86,167,339.86,173.63Z"/><path class="cls-2" d="M309.32,179.76c-2.27-3.79,1.19-9.3.83-14.8a17.67,17.67,0,0,0-7.83,14.68c0,4.43,3.63,12.79,7.6,20.61a12.3,12.3,0,0,0,3.4-5.49C315.32,189.76,312.32,184.76,309.32,179.76Z"/><path class="cls-3" d="M320.84,162c-.28,0-.56,0-.84,0a17.6,17.6,0,0,0-9.85,3c.36,5.5-3.1,11-.83,14.8,3,5,6,10,4,15a12.3,12.3,0,0,1-3.4,5.49c.58,1.13,1.16,2.25,1.74,3.34a19.48,19.48,0,0,0,7.66-3.83C330.48,191.39,331.25,172.63,320.84,162Z"/><path class="cls-4" d="M320.84,162c10.41,10.63,9.64,29.39-1.52,37.76a19.48,19.48,0,0,1-7.66,3.83c.42.81.85,1.61,1.27,2.39a8,8,0,0,0,14.14,0c4.92-9.1,10.61-20.8,10.61-26.34A17.67,17.67,0,0,0,320.84,162Z"/></g><g id="ART-strokes"><path class="cls-5" d="M320,159a20.78,20.78,0,0,1,15.65,8.74,19.63,19.63,0,0,1,3.36,8.24,16.95,16.95,0,0,1-.76,8.73,104.11,104.11,0,0,1-6.67,15.06l-1.9,3.62-1,1.79-.49.9-.25.45-.3.48a9,9,0,0,1-3.29,3.12,9.25,9.25,0,0,1-8.77,0,9,9,0,0,1-3.3-3.11l-.3-.48-.25-.45-.48-.9-1-1.79-1.89-3.62a104.64,104.64,0,0,1-6.68-15.06,20.82,20.82,0,0,1-.94-4.27,20.05,20.05,0,0,1,.19-4.46,19.37,19.37,0,0,1,3.36-8.24A20.79,20.79,0,0,1,320,159v6a14.67,14.67,0,0,0-12.44,5.19,15.7,15.7,0,0,0-3.26,6.43,15,15,0,0,0-.39,3.62,17.32,17.32,0,0,0,.61,3.69,52.79,52.79,0,0,0,2.58,7.5c1,2.48,2.14,4.93,3.3,7.35.57,1.22,1.2,2.42,1.81,3.62l.93,1.79.48.89.23.45.24.37a6.91,6.91,0,0,0,11.82,0l.23-.37.24-.45.47-.89.94-1.79c.62-1.2,1.23-2.4,1.8-3.62,1.17-2.43,2.28-4.88,3.3-7.35a54.25,54.25,0,0,0,2.59-7.51,18.47,18.47,0,0,0,.61-3.68,15.21,15.21,0,0,0-3.66-10A14.64,14.64,0,0,0,320,165Z"/></g><g id="Kitchen_Sink" data-name="Kitchen Sink"><path class="cls-4" d="M319.67,194a24.72,24.72,0,0,0,3.16-6.23,14.53,14.53,0,0,0,.4-6.74,29.45,29.45,0,0,0-1.83-6.75,35.74,35.74,0,0,1-2.19-7.09.88.88,0,0,1,1.74-.27V167a29.48,29.48,0,0,0,2.07,6.68c.82,2.26,1.91,4.54,2.21,7.09a16.18,16.18,0,0,1-.91,7.53,21.89,21.89,0,0,1-4,6.25.43.43,0,0,1-.6,0,.42.42,0,0,1-.08-.56Z"/><path class="cls-4" d="M312.58,199a20.45,20.45,0,0,0,2.92-7.67,19.93,19.93,0,0,0-.78-8.09c-.71-2.69-1.46-5.46-2.1-8.33a17.47,17.47,0,0,1,.29-8.9v0a.88.88,0,0,1,1.67.55v0a14.9,14.9,0,0,0-.26,8c.5,2.72,1.69,5.33,2.35,8.18a20.88,20.88,0,0,1,.37,8.84,12.21,12.21,0,0,1-.59,2.15c-.12.35-.23.71-.36,1l-.5,1a25.13,25.13,0,0,1-2.32,3.71.42.42,0,0,1-.72-.45Z"/></g></svg>