<svg xmlns="http://www.w3.org/2000/svg" viewBox="0 0 640 320"><defs><style>.cls-1{fill:#fff6e9;}.cls-2{fill:#ddd6ce;}.cls-3{fill:#00007f;}.cls-4{fill:#fcfcfc;}.cls-5{fill:#0d0a09;}</style></defs><g id="ART-fills"><path class="cls-1" d="M388.17,169.64c7.5-18.44,10.53-38.6,10.06-58.51a9.29,9.29,0,0,0-13.62,4.27c-6.67,16.42-21.25,28.88-24.6,31.59C366.82,157.92,376.72,165,388.17,169.64Z"/><path class="cls-2" d="M401.58,115.11a8.83,8.83,0,0,0-3.35-4c.47,19.91-2.56,40.07-10.06,58.51C376.72,165,366.82,157.92,360,147c-.44.36-.7.55-.7.55s-10,18.41,10.8,26.74A109.16,109.16,0,0,0,384,178.84c8.09,2,12.52,1.93,12.52,1.93q1.71-3.71,3.1-7.35C408.43,150.21,407.56,128.92,401.58,115.11Z"/><path class="cls-2" d="M379.15,156a43.15,43.15,0,0,1-4.48-1.72,39.81,39.81,0,0,1-4.24-2.23c-1.39-.8-2.72-1.7-4-2.6s-2.62-1.86-3.95-2.74l1.3-1.52c1.08,1.18,2.2,2.29,3.37,3.35a40.27,40.27,0,0,0,3.68,3,29,29,0,0,0,4.08,2.36,21.82,21.82,0,0,0,4.44,1.54Z"/><path class="cls-2" d="M406.14,155.13a44.45,44.45,0,0,1-4.75-.65,39.56,39.56,0,0,1-4.64-1.21c-1.53-.46-3-1-4.52-1.62s-3-1.21-4.46-1.76l.92-1.78q2,1.35,4,2.5a41.61,41.61,0,0,0,4.26,2,29.3,29.3,0,0,0,4.51,1.36,22.26,22.26,0,0,0,4.67.5Z"/><path class="cls-1" d="M282.38,147.54a22.67,22.67,0,0,1,2.36,11.28,70.25,70.25,0,0,1-29.21,12.42c-9.51-17.56-13.18-37.93-14.19-58.15a9.26,9.26,0,0,1,15.75,2.31C264.65,134,282.38,147.54,282.38,147.54Z"/><path class="cls-2" d="M284.74,158.82c-.41,5.41-3.38,11.55-13.15,15.46a112,112,0,0,1-11.82,4q-2.29-3.43-4.24-7A70.25,70.25,0,0,0,284.74,158.82Z"/><path class="cls-2" d="M255.53,171.24q1.95,3.62,4.24,7c-9.4,2.59-14.59,2.48-14.59,2.48q-2-4.34-3.55-8.6A66.34,66.34,0,0,0,255.53,171.24Z"/><path class="cls-2" d="M241.34,113.09c1,20.22,4.68,40.59,14.19,58.15a66.34,66.34,0,0,1-13.9.93c-8.32-22.72-7.38-43.5-1.52-57.06A9.23,9.23,0,0,1,241.34,113.09Z"/><path class="cls-2" d="M265.26,159.69a52.69,52.69,0,0,1-12.79,3.63c-2.19.38-4.41.59-6.62.77l-6.65.48v-2c2.21.21,4.4.34,6.6.37a57.65,57.65,0,0,0,6.57-.27,43.12,43.12,0,0,0,6.47-1.21,31.85,31.85,0,0,0,6.14-2.34Z"/><path class="cls-2" d="M250.17,129.11a36.2,36.2,0,0,1-7.19,2.06c-2.46.45-5,.63-7.44,1v-2a30.7,30.7,0,0,0,7.34.35,18,18,0,0,0,7-2Z"/><path class="cls-2" d="M280.21,144.31a46.11,46.11,0,0,1-4,2.57,38.05,38.05,0,0,1-4.32,2.07c-1.46.65-3,1.17-4.49,1.69s-3.05,1-4.55,1.54l-.45-2c1.59-.17,3.15-.4,4.7-.7a42.48,42.48,0,0,0,4.56-1.2,29,29,0,0,0,4.33-1.87,22.38,22.38,0,0,0,3.89-2.64Z"/><path class="cls-3" d="M358.16,160.83a28.87,28.87,0,0,0,6.51,9.89,34.82,34.82,0,0,0,9.58,6.89,30.16,30.16,0,0,0,11.3,3,22.7,22.7,0,0,0,11.3-2,5.74,5.74,0,1,1,1.07,10.71l-.31-.09c-4.65-1.21-8.94-2.26-13.06-3.65a98,98,0,0,1-11.84-4.79c-3.8-1.84-7.48-3.88-11.15-6.07s-7.3-4.53-11.35-6.82l-.21-.11a5.71,5.71,0,1,1,8.16-7Z"/><path class="cls-3" d="M292.74,167c-4.06,2.29-7.66,4.64-11.36,6.82S274,178,270.23,179.86a98.51,98.51,0,0,1-11.83,4.8c-4.13,1.39-8.41,2.43-13.06,3.65l-.31.08a5.74,5.74,0,1,1,1.06-10.7,22.72,22.72,0,0,0,11.3,2,30.54,30.54,0,0,0,11.3-3,34.92,34.92,0,0,0,9.58-6.9,28.85,28.85,0,0,0,6.52-9.88,5.71,5.71,0,1,1,8.16,7Z"/><path class="cls-4" d="M381.65,133.07c-1.41-.38,4.2-6.42,5.1-9.8s6.42-9.21,7.82-8.83-.7,7.29-2.73,10.19S383.05,133.45,381.65,133.07Z"/><path class="cls-4" d="M253.48,122.12c.86-1.17,4.43,6.26,7.24,8.34s6.22,9.35,5.35,10.52-6.52-3.33-8.48-6.28S252.61,123.29,253.48,122.12Z"/></g><g id="ART-strokes"><path class="cls-5" d="M402.74,114.61a57.94,57.94,0,0,1,4.07,16.73,85.8,85.8,0,0,1-.1,17.11,117.82,117.82,0,0,1-3,16.86c-1.32,5.57-3,11.05-4.5,16.72h0l-1,1.8-1.7-.06c-.88,0-1.46-.13-2.17-.21s-1.33-.19-2-.3c-1.31-.23-2.6-.5-3.87-.79-2.55-.57-5.05-1.27-7.51-2.06s-4.9-1.6-7.28-2.54c-1.21-.44-2.38-1-3.57-1.44-.59-.22-1.19-.48-1.8-.76s-1.22-.55-1.81-.88A24.72,24.72,0,0,1,360,170a18.3,18.3,0,0,1-4.18-7.23,20.2,20.2,0,0,1-.54-8.24,26.18,26.18,0,0,1,2.34-7.85h0l.2-.37.32-.23a74.66,74.66,0,0,0,5.84-4.95c1.89-1.75,3.72-3.57,5.46-5.47a83.36,83.36,0,0,0,9.39-12.22,61.87,61.87,0,0,0,3.67-6.74l.76-1.76a11.7,11.7,0,0,1,1.06-2,10.3,10.3,0,0,1,3.27-3.1,10.88,10.88,0,0,1,8.66-1A10.21,10.21,0,0,1,402.74,114.61Zm-2.31,1a7.63,7.63,0,0,0-4.9-4.3,8.19,8.19,0,0,0-6.49.86,7.44,7.44,0,0,0-2.37,2.3,8.74,8.74,0,0,0-.77,1.49l-.79,1.86a65.1,65.1,0,0,1-3.69,7.14,86.84,86.84,0,0,1-9.48,12.88,102.28,102.28,0,0,1-11.48,11.21l.52-.6h0a17.92,17.92,0,0,0-1.3,3.14,20.07,20.07,0,0,0-.79,3.39,16.06,16.06,0,0,0,.41,6.74,13.47,13.47,0,0,0,3.39,5.69,21.2,21.2,0,0,0,5.65,3.94,53.91,53.91,0,0,0,6.82,2.61c2.35.79,4.73,1.45,7.11,2.07s4.81,1,7.21,1.37c1.2.17,2.41.27,3.6.35.6,0,1.19.06,1.77.07a15.36,15.36,0,0,0,1.6,0l-2.65,1.74h0a59,59,0,0,0,7.32-15,80.32,80.32,0,0,0,3.55-16.31,73.08,73.08,0,0,0-.06-16.66A56.59,56.59,0,0,0,400.43,115.61Z"/><path class="cls-5" d="M241.27,115.61a56.59,56.59,0,0,0-4.18,16,73.08,73.08,0,0,0-.06,16.66,81,81,0,0,0,3.54,16.31,59.4,59.4,0,0,0,7.33,15h0l-2.65-1.74a15.27,15.27,0,0,0,1.6,0c.58,0,1.17,0,1.77-.07,1.19-.08,2.39-.18,3.59-.35,2.41-.35,4.82-.8,7.22-1.37s4.76-1.28,7.11-2.07a53.76,53.76,0,0,0,6.81-2.61,21.25,21.25,0,0,0,5.66-3.94,13.47,13.47,0,0,0,3.39-5.69,16.06,16.06,0,0,0,.41-6.74,22.21,22.21,0,0,0-.79-3.39,18.72,18.72,0,0,0-1.3-3.14h0l.51.6a102.19,102.19,0,0,1-11.47-11.21A86.14,86.14,0,0,1,260.28,125a65.17,65.17,0,0,1-3.7-7.14L255.8,116a8.74,8.74,0,0,0-.77-1.49,7.44,7.44,0,0,0-2.37-2.3,8.19,8.19,0,0,0-6.49-.86A7.6,7.6,0,0,0,241.27,115.61Zm-2.31-1a10.21,10.21,0,0,1,6.46-5.82,10.88,10.88,0,0,1,8.66,1,10.16,10.16,0,0,1,3.26,3.1,11.07,11.07,0,0,1,1.07,2l.76,1.76a60.2,60.2,0,0,0,3.67,6.74,84,84,0,0,0,9.38,12.22c1.75,1.9,3.58,3.72,5.46,5.47s3.87,3.46,5.85,4.95l.32.23.2.37h0a25.79,25.79,0,0,1,1.49,3.87,26.84,26.84,0,0,1,.85,4,20.56,20.56,0,0,1-.54,8.24,18.3,18.3,0,0,1-4.18,7.23,24.72,24.72,0,0,1-6.56,4.83c-.59.33-1.2.61-1.81.88s-1.22.54-1.8.76c-1.19.49-2.36,1-3.57,1.44-2.38.94-4.82,1.77-7.28,2.54s-5,1.49-7.51,2.06c-1.27.29-2.56.56-3.87.79-.66.11-1.32.21-2,.3s-1.29.17-2.18.21l-1.69.06-1-1.8h0c-1.53-5.67-3.18-11.15-4.5-16.72a119.25,119.25,0,0,1-3-16.86,86.56,86.56,0,0,1-.09-17.11A57.94,57.94,0,0,1,239,114.61Z"/></g></svg>