<svg xmlns="http://www.w3.org/2000/svg" viewBox="0 0 640 160"><defs><style>.cls-1{fill:#0d0a09;}.cls-2{fill:#fcfcfc;}.cls-3{fill:blue;}.cls-4{fill:#00007f;}.cls-5{fill:aqua;}</style></defs><g id="ART-fills"><path class="cls-1" d="M242.2,83.71c0,13.31-10.79,16.11-24.1,16.11S194,97,194,83.71a24.1,24.1,0,1,1,48.2,0Z"/><path class="cls-1" d="M447,83.71c0,13.31-10.79,16.11-24.1,16.11S398.8,97,398.8,83.71a24.1,24.1,0,0,1,48.2,0Z"/><circle class="cls-2" cx="435.56" cy="79.54" r="5.09"/><circle class="cls-2" cx="414.56" cy="84.63" r="8.34"/><circle class="cls-2" cx="232.17" cy="79.54" r="5.09"/><circle class="cls-2" cx="209.89" cy="84.63" r="8.34"/><path class="cls-3" d="M468.63,116.24c-7.19-5.28-6.22-12-11.78-15.61,0,0-8.07-5.92-28.45-7.51-49.16-3.82-34.14,15.37-34.14,15.37"/><path class="cls-1" d="M467.09,118.32a20.29,20.29,0,0,1-4.63-5,41.49,41.49,0,0,1-2.91-5.69,14.16,14.16,0,0,0-2.76-4.41,7.94,7.94,0,0,0-1-.79c-.37-.28-.66-.51-1.07-.78-.76-.51-1.6-1-2.45-1.44a53.09,53.09,0,0,0-11-4,81.76,81.76,0,0,0-11.77-2c-4-.38-8-.65-12-.63a66.25,66.25,0,0,0-11.88.89A30.8,30.8,0,0,0,400,95.92a12.17,12.17,0,0,0-4.56,2.82,4.62,4.62,0,0,0-1.33,4.08,7.48,7.48,0,0,0,.78,2.19,9.56,9.56,0,0,0,.66,1,6.17,6.17,0,0,0,.73.85,2.64,2.64,0,0,1-3.4,4,2.74,2.74,0,0,1-.51-.57l-.17-.27a10.85,10.85,0,0,1-.9-1.69,16.32,16.32,0,0,1-.64-1.69,11.65,11.65,0,0,1-.59-3.66,8.4,8.4,0,0,1,.84-3.77,9.21,9.21,0,0,1,2.31-2.92,16.51,16.51,0,0,1,5.94-2.94,40.27,40.27,0,0,1,6.14-1.18c8.18-.88,16.27-.5,24.34.07A89.21,89.21,0,0,1,453.74,97a30,30,0,0,1,2.95,1.26,12.88,12.88,0,0,1,1.49.82,12,12,0,0,1,1.42,1.07,18,18,0,0,1,4,5.52,33.6,33.6,0,0,0,2.84,4.91,15.22,15.22,0,0,0,3.75,3.59,2.59,2.59,0,0,1-2.93,4.28l-.12-.09Z"/><path class="cls-3" d="M171.37,116.24c7.19-5.28,6.22-12,11.78-15.61,0,0,8.07-5.92,28.45-7.51,49.16-3.82,34.14,15.37,34.14,15.37"/><path class="cls-1" d="M169.84,114.15a15.22,15.22,0,0,0,3.75-3.59,33.6,33.6,0,0,0,2.84-4.91,18,18,0,0,1,4-5.52,12,12,0,0,1,1.42-1.07,12.88,12.88,0,0,1,1.49-.82A30,30,0,0,1,186.26,97a89.21,89.21,0,0,1,24.08-4.67c8.07-.57,16.16-1,24.34-.07a40.27,40.27,0,0,1,6.14,1.18,16.51,16.51,0,0,1,5.94,2.94,9.21,9.21,0,0,1,2.31,2.92,8.4,8.4,0,0,1,.84,3.77,11.65,11.65,0,0,1-.59,3.66,16.32,16.32,0,0,1-.64,1.69,10.85,10.85,0,0,1-.9,1.69l-.17.26a2.64,2.64,0,0,1-4.42-2.87,3.21,3.21,0,0,1,.51-.58,6.17,6.17,0,0,0,.73-.85,9.56,9.56,0,0,0,.66-1,7.48,7.48,0,0,0,.78-2.19,4.64,4.64,0,0,0-1.32-4.08A12.3,12.3,0,0,0,240,95.92a30.8,30.8,0,0,0-5.62-1.51,66.25,66.25,0,0,0-11.88-.89c-4,0-8,.25-12,.63a81.76,81.76,0,0,0-11.77,2,53.09,53.09,0,0,0-11,4c-.85.46-1.69.93-2.45,1.44-.41.27-.7.5-1.07.78a7.94,7.94,0,0,0-1,.79,14.16,14.16,0,0,0-2.76,4.41,41.49,41.49,0,0,1-2.91,5.69,20.29,20.29,0,0,1-4.63,5l0,0a2.59,2.59,0,0,1-3.17-4.1Z"/><path class="cls-4" d="M397.63,110.65c-3.25,2.14.44,8.56,20.91,8.56,16,0,40.94-3.48,40.94-6.14s-13-4.83-28.92-4.83S401.63,108,397.63,110.65Z"/><path class="cls-4" d="M242.37,110.65c3.25,2.14-.44,8.56-20.91,8.56-16,0-40.94-3.48-40.94-6.14s12.95-4.83,28.92-4.83S238.37,108,242.37,110.65Z"/><path class="cls-5" d="M406.94,97.36A77.84,77.84,0,0,1,419.75,96a89,89,0,0,1,12.94.57,69,69,0,0,1,12.75,2.91,50.26,50.26,0,0,1,11.83,5.94A2.14,2.14,0,0,1,455,109l-.21-.11a54.27,54.27,0,0,0-5.23-3c-.92-.43-1.78-1-2.73-1.32L444,103.41a70.17,70.17,0,0,0-11.89-3.2,96.45,96.45,0,0,0-12.39-1.4c-2.09-.11-4.18-.16-6.28-.13s-4.2.09-6.26.24h0a.79.79,0,0,1-.21-1.56Z"/><path class="cls-5" d="M232.81,98.92c-2.06-.15-4.17-.25-6.26-.24s-4.19,0-6.28.13a96.45,96.45,0,0,0-12.39,1.4,70.17,70.17,0,0,0-11.89,3.2l-2.84,1.15c-1,.35-1.81.89-2.73,1.32a54.27,54.27,0,0,0-5.23,3l-.2.11a2.14,2.14,0,0,1-2.26-3.64,50.26,50.26,0,0,1,11.83-5.94,69,69,0,0,1,12.75-2.91A89,89,0,0,1,220.25,96a77.84,77.84,0,0,1,12.81,1.4.79.79,0,0,1-.21,1.56Z"/><path class="cls-1" d="M388.23,108.57c-.28.11.23.06.51,0l1-.14,2-.28c1.35-.21,2.7-.38,4-.56,2.68-.33,5.34-.63,8-.81s5.31-.3,8-.34,5.3.11,8,.13a1,1,0,0,1,.94,1,1,1,0,0,1-1,.93h-.2a34,34,0,0,0-7.73-.61c-.65,0-1.3,0-1.94.1s-1.29.1-1.94.18c-1.28.18-2.56.38-3.83.63a48.88,48.88,0,0,0-7.44,2.19c-1.21.46-2.39,1-3.55,1.54-.58.3-1.15.59-1.72.9l-.86.49a4.91,4.91,0,0,1-1.38.61,3,3,0,0,1-.9-5.93Z"/></g><g id="Kitchen_Sink" data-name="Kitchen Sink"><path class="cls-1" d="M250.87,114.5a4.91,4.91,0,0,1-1.38-.61l-.86-.49c-.57-.31-1.14-.61-1.72-.9-1.16-.56-2.34-1.08-3.55-1.54a48.88,48.88,0,0,0-7.44-2.19c-1.27-.25-2.55-.45-3.83-.63-.65-.08-1.29-.12-1.94-.18s-1.29-.1-1.94-.1a34,34,0,0,0-7.73.61h0a.95.95,0,0,1-.35-1.86l.17,0c2.68,0,5.32-.19,8-.13s5.3.11,8,.34,5.32.48,8,.81c1.33.18,2.68.35,4,.56l2,.28,1,.14c.28,0,.79.08.51,0a3,3,0,0,1-.9,5.93Z"/></g></svg>