<svg xmlns="http://www.w3.org/2000/svg" viewBox="0 0 640 160"><defs><style>.cls-1{fill:#5b2e42;}.cls-2{fill:#7f4a60;}.cls-3{fill:aqua;}.cls-4{fill:none;stroke:#0d0a09;stroke-miterlimit:10;stroke-width:6.5px;}</style></defs><g id="ART-fills"><path class="cls-1" d="M452,11.71H188A162.09,162.09,0,0,0,263.82,70c38-9.57,78.6-10.69,116.49-1.6A162.1,162.1,0,0,0,452,11.71Z"/><path class="cls-2" d="M263.82,70A161.22,161.22,0,0,0,320,80a161.2,161.2,0,0,0,60.31-11.65C342.42,59.26,301.86,60.38,263.82,70Z"/><path class="cls-3" d="M257.89,72.38c10.05,2.08,20.06,4.2,30.06,6.06a224.62,224.62,0,0,0,29.95,3.8c2.48.09,5,.3,7.43.32l3.72.14c1.23,0,2.46,0,3.7,0s2.48,0,3.71-.11,2.45-.27,3.68-.4c2.47-.21,4.87-.79,7.3-1.24a97.27,97.27,0,0,0,27.68-10.66l.07,0a3.54,3.54,0,0,1,3.47,6.16l-.16.08L371.43,80c-2.43,1-4.84,2.11-7.28,3.11s-5,1.82-7.51,2.6l-3.84,1.08-1.91.54c-.64.17-1.3.28-1.95.43-2.6.52-5.19,1.15-7.83,1.43-1.32.2-2.63.37-3.95.58s-2.64.26-4,.41-2.64.29-4,.36l-4,.12a67.66,67.66,0,0,1-7.93-.3,192.77,192.77,0,0,1-30.75-5.69c-10-2.58-19.84-5.66-29.59-8.93a1.73,1.73,0,0,1,.9-3.33Z"/></g><g id="ART-strokes"><path class="cls-4" d="M188,11.71A161.41,161.41,0,0,0,320,80,161.41,161.41,0,0,0,452,11.71Z"/></g></svg>