<svg id="ART-fills" xmlns="http://www.w3.org/2000/svg" viewBox="0 0 640 160"><defs><style>.cls-1{fill:#00007f;}.cls-2{fill:#0d0a09;}</style></defs><path class="cls-1" d="M204.66,65.78c19.23.81,38.42.78,57.6.49Q276.65,66,291,65.53L305.4,65c4.85-.17,9.69-.27,14.54-.26s9.69.08,14.53.27l14.39.54c9.58.31,19.16.59,28.75.74,19.18.29,38.37.32,57.6-.51a8,8,0,1,1,.7,16,8.18,8.18,0,0,1-1.49-.07c-19.06-2.74-38.16-4.62-57.27-6.24C367.6,74.71,358,74,348.47,73.4l-14.32-.88c-4.74-.21-9.47-.34-14.21-.35s-9.48.13-14.21.37-9.56.55-14.33.88q-14.34.94-28.68,2.13c-19.11,1.62-38.21,3.49-57.27,6.21a8,8,0,0,1-2.27-15.91A8.24,8.24,0,0,1,204.66,65.78Z"/><path class="cls-2" d="M196.05,65.92c20.66.08,41.29-.37,61.91-1,10.32-.26,20.62-.72,30.93-1.09l15.48-.67c5.18-.21,10.38-.3,15.57-.28s10.38.07,15.57.28l15.47.68c10.31.36,20.61.83,30.93,1.1,20.62.63,41.25,1.08,61.91,1a5,5,0,1,1,.05,10l-.54,0c-20.55-2.15-41.13-3.76-61.71-5.18-10.29-.76-20.59-1.32-30.89-2L335.3,67.9c-5.12-.23-10.24-.37-15.36-.38s-10.25.15-15.37.39-10.29.53-15.43.85c-10.3.66-20.6,1.23-30.89,2-20.58,1.42-41.16,3-61.7,5.16a5,5,0,0,1-1-10Z"/></svg>