<svg xmlns="http://www.w3.org/2000/svg" viewBox="0 0 640 160"><defs><style>.cls-1{fill:blue;}.cls-2{fill:aqua;}.cls-3{fill:#fcfcfc;}.cls-4{fill:#0d0a09;}</style></defs><g id="ART-fills"><path class="cls-1" d="M96.12,63.18c-6.19-11.61-4.34-30.64-3.11-43,.83-.11,1.55.31,1.84,1.53,5.59,23,3.83,40.67,24.26,40.7,0,0-.24-.08-.63-.25h19.64C129.12,76.18,104.12,77.18,96.12,63.18Z"/><path class="cls-1" d="M132.2,58.59c0,.76,1.15,2.1,1.26,3.59h-15c-2.94-1.3-14.71-12.88-16.88-35.25.46,1.9,1,3.79,1.6,5.66C108.2,45.59,124.2,46.59,132.2,58.59Z"/><path class="cls-2" d="M158,109.76c-10.52,17.75-46.06-5.46-60.7-16.3a66,66,0,0,1-6.21-13.74c-6.44-20-6.75-45.21-1.33-56.66A4.87,4.87,0,0,1,93,20.2c-1.23,12.34-3.08,31.37,3.11,43,8,14,33,13,42-1h-4.66c-.11-1.49-1.26-2.83-1.26-3.59-8-12-24-13-29-26-.62-1.87-1.14-3.76-1.6-5.66a78,78,0,0,1-.15-12.87,2.65,2.65,0,0,1,4.24-1.92c4.23,15.92,11.62,44.36,31.43,33,4.47-2.49,8.2-6.69,12.29-10.55,1-.16,2-.35,3.08-.55l4.85,101.46a44.37,44.37,0,0,1-7-1.73C155.26,127.1,158.91,118.43,158,109.76Z"/><path class="cls-1" d="M97.34,93.46c14.64,10.84,50.18,34.05,60.7,16.3.87,8.67-2.78,17.34-7.67,24C141.76,131,107.23,109.91,97.34,93.46Z"/><path class="cls-2" d="M137.12,45.18c-19.81,11.32-27.2-17.12-31.43-33a2.68,2.68,0,0,1,.66.75c7,11.76,15.77,26.34,43.06,21.74C145.32,38.49,141.59,42.69,137.12,45.18Z"/><path class="cls-3" d="M121.87,37.26a20.87,20.87,0,0,0,10.67,1.38c.74-.09,1.63.86,1.05,1.11-4.16,1.85-10.33,1.28-16.06-1.89S105.92,23,105.36,18.46c-.08-.63,1.22-.34,1.51.33C108.81,23.39,115.05,34.68,121.87,37.26Z"/><path class="cls-3" d="M95.12,70.24c1.89,6.58,5,9.07,7.5,12.8.57.86,0,4.44-.5,3.93C98.18,83.31,94,74.83,91.53,65.07c-2.6-10.35-3.11-28.56-1-33.4.3-.68,1.27-.62.88.3C89.08,37.29,91.81,59.14,95.12,70.24Z"/><path class="cls-1" d="M543.88,63.18c6.19-11.61,4.34-30.64,3.11-43-.83-.11-1.55.31-1.84,1.53-5.59,23-3.83,40.67-24.26,40.7,0,0,.24-.08.63-.25H501.88C510.88,76.18,535.88,77.18,543.88,63.18Z"/><path class="cls-1" d="M507.8,58.59c0,.76-1.15,2.1-1.26,3.59h15c2.94-1.3,14.71-12.88,16.88-35.25-.46,1.9-1,3.79-1.6,5.66C531.8,45.59,515.8,46.59,507.8,58.59Z"/><path class="cls-2" d="M482,109.76c10.52,17.75,46.06-5.46,60.7-16.3a66,66,0,0,0,6.21-13.74c6.44-20,6.75-45.21,1.33-56.66A4.87,4.87,0,0,0,547,20.2c1.23,12.34,3.08,31.37-3.11,43-8,14-33,13-42-1h4.66c.11-1.49,1.26-2.83,1.26-3.59,8-12,24-13,29-26,.62-1.87,1.14-3.76,1.6-5.66a78,78,0,0,0,.15-12.87,2.65,2.65,0,0,0-4.24-1.92c-4.23,15.92-11.62,44.36-31.43,33-4.47-2.49-8.2-6.69-12.29-10.55-1-.16-2-.35-3.08-.55l-4.85,101.46a44.37,44.37,0,0,0,7-1.73C484.74,127.1,481.09,118.43,482,109.76Z"/><path class="cls-1" d="M542.66,93.46C528,104.3,492.48,127.51,482,109.76c-.87,8.67,2.78,17.34,7.67,24C498.24,131,532.77,109.91,542.66,93.46Z"/><path class="cls-2" d="M502.88,45.18c19.81,11.32,27.2-17.12,31.43-33a2.68,2.68,0,0,0-.66.75c-7,11.76-15.77,26.34-43.06,21.74C494.68,38.49,498.41,42.69,502.88,45.18Z"/><path class="cls-3" d="M518.13,37.26a20.87,20.87,0,0,1-10.67,1.38c-.74-.09-1.63.86-1,1.11,4.16,1.85,10.33,1.28,16.06-1.89S534.08,23,534.64,18.46c.08-.63-1.22-.34-1.51.33C531.19,23.39,525,34.68,518.13,37.26Z"/><path class="cls-3" d="M544.88,70.24c-1.89,6.58-5,9.07-7.5,12.8-.57.86,0,4.44.5,3.93,3.94-3.66,8.14-12.14,10.59-21.9,2.6-10.35,3.11-28.56,1-33.4-.3-.68-1.27-.62-.88.3C550.92,37.29,548.19,59.14,544.88,70.24Z"/></g><g id="ART-strokes"><path class="cls-4" d="M120.19,65.51a30.56,30.56,0,0,1-2.91-2.69c-.9-.91-1.75-1.86-2.57-2.83a55.42,55.42,0,0,1-4.49-6.11,60.24,60.24,0,0,1-6.46-13.56,62.8,62.8,0,0,1-1.93-7.24,63.76,63.76,0,0,1-1.09-7.4c-.09-1.24-.2-2.48-.23-3.73s-.07-2.48-.06-3.73.08-2.48.13-3.73l0-.46a4.48,4.48,0,0,1,.07-.59,3.52,3.52,0,0,1,2.41-2.63,3.58,3.58,0,0,1,4.23,1.69l1.94,3.11a69.33,69.33,0,0,0,4.18,5.93,31.9,31.9,0,0,0,10.93,8.88A32.27,32.27,0,0,0,138,33.31a55,55,0,0,0,14-2h0a2.81,2.81,0,1,1,1.46,5.42,3,3,0,0,1-.41.08,73.68,73.68,0,0,1-15.29.42A37.78,37.78,0,0,1,123.06,33a34.61,34.61,0,0,1-6.25-4.46,40.32,40.32,0,0,1-5.08-5.63,68.8,68.8,0,0,1-4.18-6.21l-1.88-3.19a1.73,1.73,0,0,0-.86-.85,1.76,1.76,0,0,0-1.18,0,1.64,1.64,0,0,0-1.16,1.24,2.71,2.71,0,0,0,0,.33l0,.46c0,1.21-.16,2.42-.14,3.63a60.78,60.78,0,0,0,.29,7.27,57.66,57.66,0,0,0,3.2,14.11,51.81,51.81,0,0,0,6.74,12.71,48.39,48.39,0,0,0,4.63,5.46c.84.84,1.7,1.66,2.59,2.42a29.18,29.18,0,0,0,2.73,2.06l0,0a2,2,0,0,1-2.13,3.33Z"/><path class="cls-4" d="M156.64,138.2c-2.42-.81-4.59-1.7-6.82-2.65s-4.4-1.94-6.56-3a142.17,142.17,0,0,1-12.57-6.94,115.68,115.68,0,0,1-22.41-17.8A84.07,84.07,0,0,1,92,84.34a61.46,61.46,0,0,1-2.62-6.69,62.8,62.8,0,0,1-1.77-7,107.29,107.29,0,0,1-1.75-14.14c-.28-4.74-.36-9.48-.21-14.23a90,90,0,0,1,1.45-14.21,25.73,25.73,0,0,1,.94-3.54A9.17,9.17,0,0,1,90,21.16a8.15,8.15,0,0,1,1.52-1.33,3.89,3.89,0,0,1,2.31-.75,2.2,2.2,0,0,1,1.53.78A3,3,0,0,1,96,21.14c.08.43.09.7.13,1l.1.87a124.83,124.83,0,0,0,2.2,13.83A49.76,49.76,0,0,0,103,49.73,22.19,22.19,0,0,0,112.07,59a25.24,25.24,0,0,0,12.73,2.39,53.5,53.5,0,0,0,13.25-2.54,2.8,2.8,0,1,1,1.66,5.35l-.22.06h0a69.67,69.67,0,0,1-7.24,1.23,50.4,50.4,0,0,1-7.39.42,29.85,29.85,0,0,1-14.56-3.67,25.58,25.58,0,0,1-10-11.05,52.41,52.41,0,0,1-4.43-13.8c-.9-4.7-1.47-9.41-1.91-14.13l-.08-.88c0-.29,0-.62-.08-.77a.8.8,0,0,0-.11-.32s.06,0,0,0a2,2,0,0,0-1,.37,6,6,0,0,0-1.15,1A6.6,6.6,0,0,0,90,25.24a24.29,24.29,0,0,0-.89,3.28,87.7,87.7,0,0,0-1.49,13.87,126.25,126.25,0,0,0,.19,14A109.06,109.06,0,0,0,89.57,70.3,63.31,63.31,0,0,0,91.33,77,60,60,0,0,0,94,83.44a78.12,78.12,0,0,0,16.27,22.43,105,105,0,0,0,22.39,16.44,125.51,125.51,0,0,0,12.53,6.05c2.14.88,4.3,1.71,6.48,2.47s4.43,1.45,6.53,2h.05a2.8,2.8,0,1,1-1.38,5.43Z"/><path class="cls-4" d="M517.55,62.27a29.18,29.18,0,0,0,2.73-2.06c.89-.76,1.75-1.58,2.59-2.42a48.39,48.39,0,0,0,4.63-5.46,51.81,51.81,0,0,0,6.74-12.71,57.66,57.66,0,0,0,3.2-14.11,60.78,60.78,0,0,0,.29-7.27c0-1.21-.09-2.42-.14-3.63l0-.46a2.71,2.71,0,0,0,0-.33,1.64,1.64,0,0,0-1.16-1.24,1.76,1.76,0,0,0-1.18,0,1.73,1.73,0,0,0-.86.85l-1.88,3.19a68.8,68.8,0,0,1-4.18,6.21,40.32,40.32,0,0,1-5.08,5.63A34.61,34.61,0,0,1,516.94,33a37.78,37.78,0,0,1-14.74,4.26,73.68,73.68,0,0,1-15.29-.42,2.81,2.81,0,0,1,.64-5.58,2.57,2.57,0,0,1,.4.08h0a55,55,0,0,0,14,2,32.27,32.27,0,0,0,13.64-2.89,31.9,31.9,0,0,0,10.93-8.88,69.33,69.33,0,0,0,4.18-5.93l1.94-3.11a3.6,3.6,0,0,1,6.17-.21,3.58,3.58,0,0,1,.47,1.15,4.48,4.48,0,0,1,.07.59l0,.46c.05,1.25.15,2.49.13,3.73s0,2.49-.06,3.73-.14,2.49-.23,3.73a63.76,63.76,0,0,1-1.09,7.4,62.8,62.8,0,0,1-1.93,7.24,60.24,60.24,0,0,1-6.46,13.56A55.42,55.42,0,0,1,525.29,60c-.82,1-1.67,1.92-2.57,2.83a30.56,30.56,0,0,1-2.91,2.69,2,2,0,1,1-2.47-3.09.83.83,0,0,1,.16-.12Z"/><path class="cls-4" d="M481.83,132.82c2.1-.54,4.37-1.25,6.53-2s4.34-1.59,6.48-2.47a125.51,125.51,0,0,0,12.53-6.05,105,105,0,0,0,22.39-16.44A78.12,78.12,0,0,0,546,83.44,60,60,0,0,0,548.67,77a63.31,63.31,0,0,0,1.76-6.73,109.06,109.06,0,0,0,1.79-13.88,126.25,126.25,0,0,0,.19-14,87.7,87.7,0,0,0-1.49-13.87,24.29,24.29,0,0,0-.89-3.28,6.6,6.6,0,0,0-1.57-2.66,6,6,0,0,0-1.15-1,2,2,0,0,0-1-.37c-.06,0,0,0,0,0a.8.8,0,0,0-.11.32c0,.15-.05.48-.08.77l-.08.88c-.44,4.72-1,9.43-1.91,14.13a52.41,52.41,0,0,1-4.43,13.8,25.58,25.58,0,0,1-10,11.05,29.85,29.85,0,0,1-14.56,3.67,50.4,50.4,0,0,1-7.39-.42,69.67,69.67,0,0,1-7.24-1.23h0a2.8,2.8,0,0,1,1.21-5.47l.23.06a53.5,53.5,0,0,0,13.25,2.54A25.24,25.24,0,0,0,527.93,59,22.19,22.19,0,0,0,537,49.73a49.76,49.76,0,0,0,4.59-12.9A124.83,124.83,0,0,0,543.81,23l.1-.87c0-.29.05-.56.13-1a3,3,0,0,1,.59-1.28,2.2,2.2,0,0,1,1.53-.78,3.89,3.89,0,0,1,2.31.75A8.15,8.15,0,0,1,550,21.16a9.17,9.17,0,0,1,1.94,3.41,25.73,25.73,0,0,1,.94,3.54,90,90,0,0,1,1.45,14.21c.15,4.75.07,9.49-.21,14.23a107.29,107.29,0,0,1-1.75,14.14,62.8,62.8,0,0,1-1.77,7A61.46,61.46,0,0,1,548,84.34a84.07,84.07,0,0,1-16.25,23.48,115.68,115.68,0,0,1-22.41,17.8,142.17,142.17,0,0,1-12.57,6.94c-2.16,1.05-4.34,2.05-6.56,3s-4.4,1.84-6.82,2.65a2.8,2.8,0,1,1-1.79-5.31l.2-.06Z"/></g></svg>