<svg id="ART-fills" xmlns="http://www.w3.org/2000/svg" viewBox="0 0 640 320"><defs><style>.cls-1{fill:#00007f;}.cls-2{fill:#0d0a09;}.cls-3{fill:#333;}</style></defs><path class="cls-1" d="M134.38,193.71a102.49,102.49,0,0,0,8.88,10.1,120.9,120.9,0,0,0,9.88,9.07A100.55,100.55,0,0,0,175.57,227a79.89,79.89,0,0,0,12.31,4.47,74.5,74.5,0,0,0,12.77,2.2,70.79,70.79,0,0,0,12.86-.19A102.66,102.66,0,0,0,226.28,231,120.34,120.34,0,0,0,238.76,227c2.06-.75,4.07-1.67,6.1-2.5s4-1.78,6-2.77c8-3.79,15.75-7.91,23.55-12.13,15.59-8.48,30.75-18,46.13-27.7l.67.75a157.46,157.46,0,0,1-19.53,19.29,202.21,202.21,0,0,1-22.21,16.28,148.31,148.31,0,0,1-24.66,12.59,168.5,168.5,0,0,1-26.71,8.05,110.23,110.23,0,0,1-14,2,78.27,78.27,0,0,1-14.2-.5,80.16,80.16,0,0,1-13.75-3.24,84.54,84.54,0,0,1-12.83-5.56,104.42,104.42,0,0,1-22.26-16.3,114.61,114.61,0,0,1-17.55-20.92Z"/><path class="cls-1" d="M508.15,194.27a114.66,114.66,0,0,1-17.56,20.92,104.11,104.11,0,0,1-22.25,16.3,84.54,84.54,0,0,1-12.83,5.56,80.16,80.16,0,0,1-13.75,3.24,78.27,78.27,0,0,1-14.2.5,110.64,110.64,0,0,1-14-2,168.7,168.7,0,0,1-26.7-8.05,148.79,148.79,0,0,1-24.67-12.59A202.09,202.09,0,0,1,340,201.89a158.23,158.23,0,0,1-19.54-19.29l.68-.75c15.38,9.71,30.53,19.22,46.13,27.7,7.8,4.22,15.6,8.34,23.55,12.13,2,1,4,1.85,6,2.77s4,1.75,6.09,2.5A121.3,121.3,0,0,0,415.42,231a102.51,102.51,0,0,0,12.76,2.47,70.8,70.8,0,0,0,12.86.19,74.45,74.45,0,0,0,12.78-2.2,79.4,79.4,0,0,0,12.3-4.47,100.38,100.38,0,0,0,22.44-14.13,120.9,120.9,0,0,0,9.88-9.07,103.81,103.81,0,0,0,8.88-10.1Z"/><path class="cls-1" d="M161.33,190.42A109.52,109.52,0,0,1,170.75,174a104.27,104.27,0,0,1,12.12-14.7,77.81,77.81,0,0,1,7.2-6.35,63.73,63.73,0,0,1,8-5.41A52.9,52.9,0,0,1,216.49,141a51,51,0,0,1,9.86-.58,61.69,61.69,0,0,1,9.79,1c1.62.27,3.2.68,4.79,1.05s3.14.88,4.67,1.43,3.05,1.11,4.56,1.71,3,1.29,4.41,2A104,104,0,0,1,271,157.7a90.53,90.53,0,0,1,14.12,12.83.3.3,0,0,1,0,.42.32.32,0,0,1-.37,0h0a209.2,209.2,0,0,0-32.58-17.88c-2.8-1.21-5.65-2.28-8.51-3.26a86.26,86.26,0,0,0-8.68-2.58,51.18,51.18,0,0,0-17.79-1.5A48.7,48.7,0,0,0,200,151a60.14,60.14,0,0,0-7.82,4.75,74.87,74.87,0,0,0-7.21,5.76,102.93,102.93,0,0,0-12.68,13.61c-1.92,2.45-3.74,5-5.48,7.59s-3.4,5.25-4.89,8h0a.3.3,0,0,1-.54-.27Z"/><path class="cls-1" d="M479.82,190.68c-1.48-2.75-3.15-5.41-4.88-8s-3.56-5.14-5.49-7.59a102.27,102.27,0,0,0-12.68-13.61,73.54,73.54,0,0,0-7.2-5.76,60.14,60.14,0,0,0-7.82-4.75,48.77,48.77,0,0,0-17.16-5.22,51.26,51.26,0,0,0-17.8,1.5,86.86,86.86,0,0,0-8.67,2.58c-2.86,1-5.71,2-8.51,3.26A209.2,209.2,0,0,0,357,171h0a.31.31,0,0,1-.42-.09.3.3,0,0,1,0-.36,91.44,91.44,0,0,1,14.12-12.83,104.9,104.9,0,0,1,16.38-10.07c1.45-.71,2.94-1.35,4.42-2s3-1.2,4.56-1.71,3.11-1,4.67-1.43,3.17-.78,4.79-1.05a61.69,61.69,0,0,1,9.78-1,50.88,50.88,0,0,1,9.86.58,53,53,0,0,1,18.4,6.55,64.46,64.46,0,0,1,8,5.41,77.81,77.81,0,0,1,7.2,6.35A103.51,103.51,0,0,1,470.94,174a108.72,108.72,0,0,1,9.43,16.42.3.3,0,0,1-.54.27Z"/><path class="cls-2" d="M456,137.69c-12-12-30-12-46-7-31,10-60,25-93,24s-62-18-94-22c-31-4-51,23-71,44-4.58,5.23-10.44,9.18-16.19,13.25C134.58,192.5,134,194,134,194s37.1,56.16,97.89,40.19A117.32,117.32,0,0,0,259.66,223h0c30.57-16.91,61.21-40.78,61.21-40.78s30.64,23.87,61.21,40.78h0a117.14,117.14,0,0,0,27.81,11.18c60.79,16,97.88-40.19,97.88-40.19s-1.84-4.45-5.32-11.18C485.82,169.62,471.14,152.38,456,137.69ZM230.84,219c-43,11.3-69.24-28.42-69.24-28.42s21.14-45.19,54.71-47,68.56,27.21,68.56,27.21S273.84,207.67,230.84,219Zm180.06,0c-43-11.3-54-48.22-54-48.22s35-29,68.56-27.21,54.71,47,54.71,47S453.9,230.27,410.9,219Z"/><path class="cls-3" d="M430.43,119c-14.94-.81-30.08,2.7-43.81,7.89-8.4,3-37.95,21.37-65.75,21.37s-57.35-18.35-65.75-21.37c-13.73-5.19-28.87-8.7-43.81-7.89-40.66,2.2-68.41,55.63-75.54,70.91,5.75-4.07,11.61-8,16.19-13.25,20-21,40-48,71-44,32,4,61,21,94,22s62-14,93-24c16-5,34-5,46,7,15.18,14.69,29.86,31.93,46.49,45.12C491.87,162.39,466.12,121,430.43,119Z"/></svg>