<svg xmlns="http://www.w3.org/2000/svg" viewBox="0 0 640 160"><defs><style>.cls-1{fill:#00007f;}.cls-2{fill:#0d0a09;}</style></defs><g id="ART-fills"><path class="cls-1" d="M451.27,114c0,2-2.66,3.61-5.94,3.61s-5.94-1.61-5.94-3.61,2.66-5.77,5.94-5.77S451.27,112,451.27,114Z"/><path class="cls-1" d="M433.3,102.78c0,2-2.66,3.6-5.94,3.6s-5.94-1.61-5.94-3.6S424.08,97,427.36,97,433.3,100.78,433.3,102.78Z"/><path class="cls-1" d="M418.07,93.3c0,2-2.66,3.6-5.94,3.6s-5.94-1.61-5.94-3.6,2.66-5.78,5.94-5.78S418.07,91.3,418.07,93.3Z"/><path class="cls-1" d="M188.73,114c0,2,2.66,3.61,5.94,3.61s5.94-1.61,5.94-3.61-2.66-5.77-5.94-5.77S188.73,112,188.73,114Z"/><path class="cls-1" d="M206.7,102.78c0,2,2.66,3.6,5.94,3.6s5.94-1.61,5.94-3.6S215.92,97,212.64,97,206.7,100.78,206.7,102.78Z"/><path class="cls-1" d="M221.93,93.3c0,2,2.66,3.6,5.94,3.6s5.94-1.61,5.94-3.6-2.66-5.78-5.94-5.78S221.93,91.3,221.93,93.3Z"/></g><g id="ART-strokes"><path class="cls-2" d="M410.3,89.6c1.9-.63,3.69-1.16,5.53-1.68s3.66-1,5.49-1.51,3.67-.94,5.52-1.37,3.67-.91,5.52-1.27c3.7-.79,7.38-1.63,11.1-2.28l5.56-1,5.59-.88a420.58,420.58,0,0,1,44.89-4.71c1.87-.16,3.76-.18,5.63-.26l5.64-.19,5.63-.19c1.88,0,3.76,0,5.64,0l11.28,0,11.26.43,5.63.21c1.88,0,3.75.27,5.62.39l11.24.88,2.81.2,2.8.32,5.6.64,11.21,1.26a.88.88,0,1,1-.2,1.74h-.06L578.1,78.85l-5.57-.73-2.79-.36-2.8-.24-11.2-.89c-1.87-.13-3.73-.35-5.6-.4L544.52,76c-3.74-.13-7.48-.3-11.23-.37l-11.23.11c-1.87,0-3.75,0-5.62.08l-5.61.27-5.61.26c-1.87.1-3.74.15-5.6.34l-11.18,1c-3.73.36-7.43.91-11.14,1.36s-7.4,1.06-11.1,1.65c-1.84.3-3.69.58-5.53.9l-5.49,1.11-5.49,1.11-5.46,1.27c-3.64.8-7.24,1.79-10.85,2.73-1.8.47-3.57,1-5.36,1.57s-3.56,1.06-5.32,1.66c-3.52,1.12-7.08,2.38-10.39,3.73l-.07,0a2.8,2.8,0,0,1-2.12-5.18Z"/><path class="cls-2" d="M426.78,98.45c2-.32,3.82-.57,5.72-.79s3.78-.44,5.67-.63,3.77-.35,5.66-.49,3.77-.32,5.66-.38c3.77-.2,7.54-.46,11.31-.51l5.66-.15h5.65a423.94,423.94,0,0,1,45.08,2.41c1.87.13,3.74.41,5.6.63l5.6.7,5.59.7c1.86.25,3.71.59,5.57.89l11.12,1.82,11.06,2.19,5.53,1.1c1.85.33,3.66.85,5.49,1.26l11,2.64,2.74.64,2.72.75,5.43,1.52,10.87,3a.88.88,0,0,1-.47,1.69h0l-10.77-3.22-5.38-1.59-2.7-.79-2.73-.68-10.92-2.64c-1.82-.42-3.63-.94-5.47-1.27l-5.51-1.09c-3.68-.73-7.35-1.48-11-2.13l-11.12-1.66c-1.85-.27-3.7-.58-5.55-.81l-5.59-.62-5.58-.61c-1.86-.2-3.72-.45-5.59-.56L505.81,99c-3.73-.23-7.48-.27-11.21-.41s-7.48-.12-11.22-.12c-1.87,0-3.74,0-5.61,0l-5.6.22-5.59.24-5.59.4c-3.72.22-7.43.62-11.14,1-1.86.17-3.7.47-5.54.7s-3.69.49-5.52.8c-3.66.56-7.36,1.25-10.84,2.06l-.08,0a2.8,2.8,0,1,1-1.28-5.45Z"/><path class="cls-2" d="M445.69,109.55c2,0,3.87,0,5.78.07s3.8.13,5.69.22,3.79.21,5.67.36,3.78.24,5.66.46c3.76.36,7.52.67,11.26,1.18l5.62.69,5.59.85a420.63,420.63,0,0,1,44.22,9.08c1.83.41,3.63,1,5.44,1.46l5.43,1.52,5.43,1.52c1.8.53,3.58,1.14,5.37,1.71l10.74,3.45,10.6,3.82,5.31,1.9c1.78.61,3.49,1.39,5.24,2.07l10.44,4.24,2.62,1,2.58,1.14,5.14,2.31,10.3,4.59a.88.88,0,1,1-.71,1.6h0l0,0L608.89,150l-5.09-2.38-2.55-1.18-2.59-1.07-10.41-4.24c-1.74-.69-3.45-1.47-5.22-2.07l-5.29-1.9c-3.53-1.26-7-2.56-10.59-3.75l-10.74-3.29c-1.8-.54-3.58-1.12-5.38-1.63l-5.43-1.44-5.43-1.44c-1.81-.47-3.61-1-5.44-1.37l-11-2.41c-3.66-.78-7.35-1.37-11-2.07s-7.37-1.22-11.07-1.78c-1.85-.27-3.7-.57-5.55-.81l-5.57-.61L485,116l-5.58-.44c-3.72-.33-7.45-.49-11.17-.67-1.86-.1-3.72-.09-5.58-.13s-3.72-.07-5.58,0c-3.7,0-7.47.13-11,.42H446a2.8,2.8,0,1,1-.45-5.58Z"/><path class="cls-2" d="M227.69,94.82c-3.31-1.35-6.87-2.61-10.39-3.73-1.76-.6-3.54-1.13-5.32-1.66s-3.56-1.1-5.36-1.57c-3.61-.94-7.21-1.93-10.85-2.73l-5.46-1.27-5.49-1.11-5.49-1.11c-1.84-.32-3.69-.6-5.53-.9-3.7-.59-7.38-1.23-11.1-1.65s-7.41-1-11.14-1.36l-11.18-1c-1.86-.19-3.73-.24-5.6-.34l-5.61-.26-5.61-.27c-1.87-.07-3.75,0-5.62-.08l-11.23-.11c-3.75.07-7.49.24-11.23.37l-5.62.21c-1.87,0-3.73.27-5.6.4l-11.2.89-2.8.24-2.79.36-5.57.73L50.77,80.33h0a.88.88,0,1,1-.23-1.74h0l11.21-1.26,5.6-.64,2.8-.32,2.81-.2,11.24-.88c1.87-.12,3.74-.35,5.62-.39l5.63-.21,11.26-.43,11.28,0c1.88,0,3.76,0,5.64,0l5.63.19,5.64.19c1.87.08,3.76.1,5.63.26a420.58,420.58,0,0,1,44.89,4.71l5.59.88,5.56,1c3.72.65,7.4,1.49,11.1,2.28,1.85.36,3.68.85,5.52,1.27s3.69.87,5.52,1.37,3.66,1,5.49,1.51,3.63,1,5.53,1.68a2.8,2.8,0,0,1-1.76,5.32l-.17-.06Z"/><path class="cls-2" d="M212.05,103.92c-3.48-.81-7.18-1.5-10.84-2.06-1.83-.31-3.67-.56-5.52-.8s-3.68-.53-5.54-.7c-3.71-.37-7.42-.77-11.14-1l-5.59-.4-5.59-.24-5.6-.22c-1.87,0-3.74,0-5.61,0-3.74,0-7.48,0-11.22.12s-7.48.18-11.21.41l-11.2.74c-1.87.11-3.73.36-5.59.56l-5.58.61-5.59.62c-1.85.23-3.7.54-5.55.81L89.56,104c-3.68.65-7.35,1.4-11,2.13L73,107.23c-1.84.33-3.65.85-5.47,1.27l-10.92,2.64-2.73.68-2.7.79-5.38,1.59-10.77,3.22h0a.88.88,0,0,1-.5-1.68h0l10.87-3,5.43-1.52,2.72-.75,2.74-.64,11-2.64c1.83-.41,3.64-.93,5.49-1.26l5.53-1.1,11.06-2.19,11.12-1.82c1.86-.3,3.71-.64,5.57-.89l5.59-.7,5.6-.7c1.87-.22,3.73-.5,5.6-.63a423.94,423.94,0,0,1,45.08-2.41h5.65l5.66.15c3.77,0,7.54.31,11.31.51,1.89.06,3.78.25,5.66.38s3.78.28,5.66.49,3.78.37,5.67.63,3.75.47,5.72.79a2.8,2.8,0,0,1-.9,5.53l-.18,0Z"/><path class="cls-2" d="M194,115.13c-3.56-.29-7.33-.41-11-.42-1.86,0-3.72,0-5.58,0s-3.72,0-5.58.13c-3.72.18-7.45.34-11.17.67L155,116l-5.57.6-5.57.61c-1.85.24-3.7.54-5.55.81-3.7.56-7.4,1-11.07,1.78s-7.37,1.29-11,2.07l-11,2.41c-1.83.38-3.63.9-5.44,1.37l-5.43,1.44L89,128.51c-1.8.51-3.58,1.09-5.38,1.63l-10.74,3.29c-3.55,1.19-7.06,2.49-10.59,3.75L57,139.08c-1.77.6-3.48,1.38-5.22,2.07l-10.41,4.24-2.59,1.07-2.55,1.18L31.11,150,20.94,154.8l0,0a.88.88,0,1,1-.75-1.59h0l10.3-4.59,5.14-2.31,2.58-1.14,2.62-1,10.44-4.24c1.75-.68,3.46-1.46,5.24-2.07l5.31-1.9,10.6-3.82,10.73-3.45c1.8-.57,3.58-1.18,5.38-1.71L94,125.44l5.43-1.52c1.81-.5,3.61-1,5.44-1.46A420.63,420.63,0,0,1,149,113.38l5.59-.85,5.62-.69c3.74-.51,7.5-.82,11.26-1.18,1.88-.22,3.77-.31,5.66-.46s3.77-.29,5.67-.36,3.78-.19,5.69-.22,3.78-.1,5.78-.07a2.8,2.8,0,0,1-.07,5.6H194Z"/></g></svg>