<svg id="ART-fills" xmlns="http://www.w3.org/2000/svg" viewBox="0 0 640 160"><defs><style>.cls-1{fill:#00007f;}.cls-2{fill:#0d0a09;}</style></defs><path class="cls-1" d="M347.53,134.89c-2.15,3.21-12.15,5.55-17.51-5.59-4.18-8.69-5.83-24.64-2.08-26.44s10.18,3.78,14.36,12.48S350.19,130.93,347.53,134.89Z"/><path class="cls-1" d="M292.26,134.35c2.15,3.21,12.16,5.55,17.52-5.59,4.18-8.7,5.82-24.64,2.07-26.44s-10.18,3.78-14.36,12.48S289.61,130.39,292.26,134.35Z"/><path class="cls-2" d="M313.26,108.1a34.68,34.68,0,0,0-1,4.78c-.23,1.49-.44,2.93-.78,4.38a17.25,17.25,0,0,1-1.62,4.39,32.76,32.76,0,0,1-3.13,4.51l-.91,1.18a5.18,5.18,0,1,1-1.87-7.83,3.47,3.47,0,0,0,3.32-.09,4.11,4.11,0,0,0,1.88-2.7,6.16,6.16,0,0,0-.31-3.56,6.37,6.37,0,0,0-2.48-3.07,4.76,4.76,0,1,1,7.12-2.61Z"/><path class="cls-2" d="M333.66,110.09a6.37,6.37,0,0,0-2.48,3.07,6.08,6.08,0,0,0-.3,3.56,4.1,4.1,0,0,0,1.87,2.7,3.47,3.47,0,0,0,3.32.09,5.19,5.19,0,1,1-1.87,7.83l-.91-1.18a32.76,32.76,0,0,1-3.13-4.51,17.25,17.25,0,0,1-1.62-4.39c-.34-1.45-.55-2.89-.78-4.38a34.68,34.68,0,0,0-1-4.78l-.19-.62a4.76,4.76,0,1,1,7.11,2.61Z"/></svg>