<svg id="ART-fills" xmlns="http://www.w3.org/2000/svg" viewBox="0 0 640 160"><defs><style>.cls-1{fill:blue;}.cls-2{fill:#0d0a09;}</style></defs><path class="cls-1" d="M356.17,114.82c0,21.11-15.86,33.28-36.17,33.28-18,0-36.17-12.17-36.17-33.28"/><path class="cls-2" d="M357.84,114.82a34,34,0,0,1-1.62,14.49A31.22,31.22,0,0,1,348,141.92a35.62,35.62,0,0,1-13,7.66,45.78,45.78,0,0,1-14.7,2.36,40.52,40.52,0,0,1-27.53-10.4,33.74,33.74,0,0,1-4.92-5.69,32,32,0,0,1-3.46-6.64,31.27,31.27,0,0,1-1.8-14.39,1.29,1.29,0,0,1,2.57,0v0a34.05,34.05,0,0,0,3.78,12.34,30.42,30.42,0,0,0,8,9.48,37.67,37.67,0,0,0,23.29,7.61c8.45-.05,16.86-2.34,23.26-7.46a28.35,28.35,0,0,0,7.6-9.59,37.33,37.33,0,0,0,3.43-12.38v0a1.68,1.68,0,0,1,3.33,0Z"/></svg>