<svg id="ART-fills" xmlns="http://www.w3.org/2000/svg" viewBox="0 0 640 160"><defs><style>.cls-1{fill:aqua;}.cls-2{fill:red;}.cls-3{fill:#0d0a09;}.cls-4{fill:maroon;}.cls-5{fill:#fcfcfc;}</style></defs><path class="cls-1" d="M352,103c0,5.73-14.34,10.38-32,10.38s-32-4.65-32-10.38,14.34-18.76,32-18.76S352,97.22,352,103Z"/><path class="cls-2" d="M360.72,113.51c0,18.87-18.23,34.17-40.72,34.17s-40.72-15.3-40.72-34.17S297.51,89.09,320,89.09,360.72,94.63,360.72,113.51Z"/><path class="cls-3" d="M363.3,113.51a32.93,32.93,0,0,1-3.22,14.9,38.34,38.34,0,0,1-9.25,12.17,45.41,45.41,0,0,1-27.91,11,48.92,48.92,0,0,1-15.09-1.48,46.64,46.64,0,0,1-13.93-6.08,40,40,0,0,1-11-10.53,33.7,33.7,0,0,1-5.79-14.16l-.28-1.9c-.05-.64-.05-1.28-.08-1.92l0-1.92c0-.64.07-1.28.11-1.91a24.21,24.21,0,0,1,1.85-7.56A20.59,20.59,0,0,1,283,97.7a24.79,24.79,0,0,1,6.14-4.48,44.37,44.37,0,0,1,13.92-4.33,93.3,93.3,0,0,1,14.22-1.1c2.37,0,4.73,0,7.1.1s4.74.24,7.11.46a65.51,65.51,0,0,1,14.12,2.74,33.67,33.67,0,0,1,6.76,3,23.48,23.48,0,0,1,5.86,4.93,21.12,21.12,0,0,1,3.78,6.84A26.66,26.66,0,0,1,363.3,113.51Zm-5.15,0a18.52,18.52,0,0,0-3.29-11.82,23.18,23.18,0,0,0-10.38-7.56A50.63,50.63,0,0,0,331.2,91a93,93,0,0,0-13.87-.5,87.22,87.22,0,0,0-13.74,1.46A40.69,40.69,0,0,0,291,96.47a18.14,18.14,0,0,0-8,9.42,19.19,19.19,0,0,0-1.07,6.14c0,.53,0,1.06,0,1.59l.16,1.59c.05.53.08,1.06.16,1.58l.35,1.56a28.23,28.23,0,0,0,5.53,11.28,35.17,35.17,0,0,0,9.65,8.22,43.42,43.42,0,0,0,24.71,5.64A47.47,47.47,0,0,0,335,141a39.13,39.13,0,0,0,11.27-5.94,31.41,31.41,0,0,0,8.41-9.45A26,26,0,0,0,358.15,113.51Z"/><path class="cls-3" d="M316.24,146.18l2.36-17.3a1.41,1.41,0,0,1,2.8,0l2.36,17.3a3.8,3.8,0,1,1-7.52,1A3.55,3.55,0,0,1,316.24,146.18Z"/><path class="cls-4" d="M315.13,114.69c0,4.35-5.9,10.26-10.67,10.26s-9.39-6.73-9.39-11.07,7.26-8.5,12-8.5S315.13,110.34,315.13,114.69Z"/><path class="cls-3" d="M295.61,135.73a16.27,16.27,0,0,0,2-.58c.68-.26,1.37-.54,2.05-.84a33,33,0,0,0,3.93-2.11,25.68,25.68,0,0,0,6.59-5.91,17.21,17.21,0,0,0,3.47-8,16.46,16.46,0,0,0-1-8.61,5.85,5.85,0,0,0-2.61-2.86,6.94,6.94,0,0,0-3.89-.61,14.13,14.13,0,0,0-4.15,1.15,17.12,17.12,0,0,0-2,1c-.31.19-.62.38-.91.58a6.47,6.47,0,0,0-.72.55,4.64,4.64,0,0,0-1.11,3.06,5.81,5.81,0,0,0,.88,3.28c1.22,1.83,3.41,2.66,5.9,2.59a3.85,3.85,0,1,1-1.13,7.49l-.28-.1a18,18,0,0,1-5.38-2.81,11.65,11.65,0,0,1-3.73-5,10.85,10.85,0,0,1-.51-6,8.86,8.86,0,0,1,3-5.26,8,8,0,0,1,1.25-.77c.38-.21.77-.4,1.16-.57.79-.35,1.57-.67,2.38-.94a19.09,19.09,0,0,1,5.07-1,10,10,0,0,1,5.32,1.12,8.72,8.72,0,0,1,3.65,4.06,15.79,15.79,0,0,1,1.34,5,21.92,21.92,0,0,1-3.12,14.66,37,37,0,0,1-6.39,7.87,50.84,50.84,0,0,1-3.82,3.37c-.67.54-1.35,1.06-2,1.57s-1.35,1-2.24,1.57l-.31.2a3.88,3.88,0,1,1-4.17-6.54A3.72,3.72,0,0,1,295.61,135.73Z"/><path class="cls-4" d="M324.87,114.69c0,4.35,5.9,10.26,10.67,10.26s9.39-6.73,9.39-11.07-7.26-8.5-12-8.5S324.87,110.34,324.87,114.69Z"/><path class="cls-3" d="M341.39,142.63c-.89-.57-1.53-1-2.24-1.57s-1.38-1-2-1.57a50.84,50.84,0,0,1-3.82-3.37,37,37,0,0,1-6.39-7.87,21.92,21.92,0,0,1-3.12-14.66,15.79,15.79,0,0,1,1.34-5,8.72,8.72,0,0,1,3.65-4.06,10,10,0,0,1,5.32-1.12,19.09,19.09,0,0,1,5.07,1c.81.27,1.59.59,2.38.94.39.17.78.36,1.16.57a8,8,0,0,1,1.25.77,8.86,8.86,0,0,1,3,5.26,10.85,10.85,0,0,1-.51,6,11.65,11.65,0,0,1-3.73,5,18,18,0,0,1-5.38,2.81l-.27.09a3.85,3.85,0,1,1-2.52-7.27,3.68,3.68,0,0,1,1.38-.21c2.49.07,4.68-.76,5.9-2.59a5.81,5.81,0,0,0,.88-3.28,4.64,4.64,0,0,0-1.11-3.06,6.47,6.47,0,0,0-.72-.55c-.29-.2-.6-.39-.91-.58a17.12,17.12,0,0,0-2-1,14.13,14.13,0,0,0-4.15-1.15,6.94,6.94,0,0,0-3.89.61,5.85,5.85,0,0,0-2.61,2.86,16.46,16.46,0,0,0-1,8.61,17.21,17.21,0,0,0,3.47,8,25.68,25.68,0,0,0,6.59,5.91,33,33,0,0,0,3.93,2.11c.68.3,1.37.58,2.05.84a16.27,16.27,0,0,0,2,.58,3.88,3.88,0,1,1-2.67,7.11Z"/><path class="cls-5" d="M324.17,93.84c-.85,1.21,9.36,3.57,13.19,6.25s13.76,4.9,14.61,3.68-7.19-6.52-11.54-8.07S325,92.62,324.17,93.84Z"/></svg>