<svg xmlns="http://www.w3.org/2000/svg" viewBox="0 0 640 320"><defs><style>.cls-1{fill:red;}.cls-2{fill:maroon;}.cls-3{fill:#ff0;}.cls-4{fill:#dbdb5e;}.cls-5{fill:#bfc453;}.cls-6{fill:#9b9b1e;}.cls-7{fill:#fcfcfc;}.cls-8{fill:#0d0a09;}.cls-10,.cls-9{fill:none;stroke:#0d0a09;stroke-width:5px;}.cls-9{stroke-miterlimit:10;}.cls-10{stroke-linejoin:round;}</style></defs><g id="ART-fills"><path class="cls-1" d="M325.26,159.35c-2.95,10.32,6.05,16.84,15,22.76l.78-.18c-12-34.25-12.73-72,.24-106.11-16.4-1.95-30.06,8.5-34.71,12.61a2.33,2.33,0,0,0-.27,3.22A57.55,57.55,0,0,1,313,102.79C328.22,116.67,332.94,138,325.26,159.35Z"/><path class="cls-2" d="M325.26,159.35c7.68-21.34,3-42.68-12.27-56.56a126.48,126.48,0,0,1,8.09,23.1c7,27.23-19.92,48.82-24.16,55.49A261.43,261.43,0,0,0,324.74,184a66.1,66.1,0,0,0,15.52-1.89C331.31,176.19,322.31,169.67,325.26,159.35Z"/><path class="cls-3" d="M344,141.5c-3.23-13.21,5.22-52.13,7.23-61A2.22,2.22,0,0,0,349.86,78a34.3,34.3,0,0,0-8.58-2.16C328.31,110,329,147.68,341,181.93a146.45,146.45,0,0,0,16.73-5S347.65,156.44,344,141.5Z"/><path class="cls-3" d="M345.46,76.57c-4.15-1.34-10.7-2.13-19.6.78a56.65,56.65,0,0,0-13.41,6.18C323.76,88.73,340.6,87.47,345.46,76.57Z"/><path class="cls-1" d="M345.46,76.57c-4.86,10.9-21.7,12.16-33,7-5.12,3.38-6.51,6.13-6.51,6.13s5.33,7.86,23.08,4.91,21.74-15.34,21.74-15.34A16.77,16.77,0,0,0,345.46,76.57Z"/><path class="cls-4" d="M479.53,83.49c-14.64-6.74-34.1-11.93-59.73-12.57-54.67-1.35-70.09,23.81-74.22,40C376.08,70.38,434.31,84.22,479.53,83.49Z"/><path class="cls-5" d="M479.53,83.49c-45.22.73-103.45-13.11-133.95,27.45-1.9,7.42-1.42,13-1.27,13.2l2.23.24c.6-.51,1.2-1,1.81-1.49C374.64,86,433.17,90.68,474.26,95.35a81.92,81.92,0,0,1,39.56,14.26C508,102.18,497.33,91.68,479.53,83.49Z"/><path class="cls-6" d="M474.26,95.35c-41.09-4.67-99.62-9.33-125.91,27.54,48.92-39.7,113.49-22.16,170.43-5.94a58.94,58.94,0,0,0-5-7.34A81.92,81.92,0,0,0,474.26,95.35Z"/><path class="cls-5" d="M347.27,124.45q.53-.8,1.08-1.56c-.61.49-1.21,1-1.81,1.49Z"/><path class="cls-4" d="M461.26,123.35c-33.55-3.72-74.9-14.38-105.47,2,17.81,1.8,54.25,5.37,94,8.56,38.78,3.12,57.41-5.28,65.2-10.73C497.42,125.68,479,125.08,461.26,123.35Z"/><path class="cls-5" d="M348.35,122.89q-.56.77-1.08,1.56l8.52.88c30.57-16.36,71.92-5.7,105.47-2,17.7,1.73,36.16,2.33,53.74-.19a21.33,21.33,0,0,0,4.79-4.26s-.32-.71-1-2C461.84,100.73,397.27,83.19,348.35,122.89Z"/><path class="cls-7" d="M461.15,86A115.18,115.18,0,0,1,488.79,97.5c1.59.94,5.27,1.25,4.32.36-6.87-6.38-22.44-13.24-41.27-17.52-19.14-4.35-36.4-4.86-45.23-1.91-1.21.41,2.35,1.72,4.13,1.53C422.91,78.62,440.73,79.92,461.15,86Z"/><path class="cls-7" d="M402.92,111.61c7.31-.35,13.47-1.77,18.19-.08,1.09.39,3.12-.38,2.39-.9-5.28-3.77-15.3-5.46-26.39-3.91-11.28,1.58-20.58,6.08-24.51,11.26-.54.71,1.69.87,2.59.18C381.3,113.47,390.54,112.05,402.92,111.61Z"/></g><g id="ART-strokes"><path class="cls-8" d="M368.69,171.26c-2.7,4-6.47,6.56-10.27,8.65a56.94,56.94,0,0,1-12,4.66,102.09,102.09,0,0,1-25,3.21c-4.17,0-8.36-.08-12.56-.47a97.08,97.08,0,0,1-12.56-2A48.07,48.07,0,0,1,284,180.88a26.28,26.28,0,0,1-2.87-1.79,22.83,22.83,0,0,1-2.68-2.16,17.48,17.48,0,0,1-4.19-5.74,2.53,2.53,0,0,1,4-2.88l.18.17a30.25,30.25,0,0,0,4.18,3.05c.4.21.78.43,1.15.66s.81.41,1.2.62c.79.41,1.64.77,2.46,1.16a62.14,62.14,0,0,0,10.68,3.64,108.94,108.94,0,0,0,23.29,2.61c3.94,0,7.89,0,11.8-.41a93.13,93.13,0,0,0,11.58-1.71,56,56,0,0,0,11-3.5,24.58,24.58,0,0,0,8.79-6.19l.1-.12a2.5,2.5,0,0,1,4,3Z"/><path class="cls-9" d="M296.92,181.38c4.24-6.67,31.13-28.26,24.16-55.49-5.3-20.71-11.92-30.66-14.78-34.24a2.33,2.33,0,0,1,.27-3.22C312,83.62,329.79,70.11,349.86,78a2.22,2.22,0,0,1,1.37,2.55c-2,8.84-10.46,47.76-7.23,61,3.65,14.94,13.77,35.42,13.77,35.42s-19.73,7.47-33,7.08A261.43,261.43,0,0,1,296.92,181.38Z"/><path class="cls-10" d="M305.94,89.66s5.33,7.86,23.08,4.91,21.74-15.34,21.74-15.34-8.46-7.25-24.9-1.88S305.94,89.66,305.94,89.66Z"/><path class="cls-8" d="M343,126.28a3.11,3.11,0,0,1-1.21-1.84c0-.24,0-.13,0-.19V124c0-.18-.05-.4-.06-.55,0-.33,0-.67,0-1,0-.63,0-1.25,0-1.87,0-1.23.14-2.44.27-3.65a50.64,50.64,0,0,1,1.35-7.13,52.55,52.55,0,0,1,2.36-6.87A51.23,51.23,0,0,1,349,96.54a49,49,0,0,1,9.35-11.05,57.9,57.9,0,0,1,11.95-8c8.56-4.36,17.88-6.66,27.18-7.93a150.16,150.16,0,0,1,28-.86,177.08,177.08,0,0,1,27.75,3.57,135.06,135.06,0,0,1,26.7,8.7A103.5,103.5,0,0,1,503.9,95.85a84.42,84.42,0,0,1,10.08,10,67,67,0,0,1,4.35,5.67c.68,1,1.33,2,2,3s1.19,2.05,1.78,3.31h0l.61,1.24-.86,1.22c-.24.33-.41.54-.59.75s-.36.44-.54.62c-.37.38-.72.8-1.1,1.13l-1.14,1.05-1.18,1c-.78.66-1.61,1.21-2.43,1.79s-1.68,1.07-2.54,1.57c-1.7,1.06-3.5,1.84-5.27,2.73l-2.73,1.11c-.91.36-1.82.75-2.75,1a99.61,99.61,0,0,1-22.7,4.79l-1.44.17-1.43.1-2.87.19c-1.92.1-3.84.29-5.75.26-3.83,0-7.67.14-11.47-.1l-5.73-.24c-1.89-.09-3.74-.26-5.61-.38L433.34,137c-7.48-.53-14.94-1.15-22.4-1.81s-14.93-1.27-22.38-2q-5.6-.56-11.17-1.25l-5.58-.68-5.57-.78c-1.85-.25-3.71-.53-5.56-.83s-3.7-.57-5.55-.91-3.7-.63-5.55-1l-2.77-.54-1.38-.29-.69-.14-.09,0-.17,0-.51-.11A5.63,5.63,0,0,1,343,126.28Zm2.59-4.27a.68.68,0,0,0-.26-.27.48.48,0,0,0-.16-.08h2.2l2.82,0c1.88,0,3.75.09,5.62.14s3.74.14,5.61.22,3.75.16,5.61.27l5.61.32,5.59.4q5.6.38,11.18.88l44.66,4.16,11.17,1,5.57.5,5.48.4c3.67.35,7.31.33,11,.44,1.84.1,3.65-.05,5.47-.06l2.73-.06,1.37,0,1.36-.1,5.43-.42,5.38-.73a89.32,89.32,0,0,0,10.54-2.24c.88-.21,1.71-.51,2.55-.8l2.54-.84c1.62-.69,3.31-1.28,4.85-2.11a25.57,25.57,0,0,0,2.32-1.23,24.67,24.67,0,0,0,2.21-1.36l1.07-.72,1-.78c.35-.25.61-.54.93-.81a3.92,3.92,0,0,0,.41-.4l.32-.32-.25,2.46h0c-.39-.82-1-1.84-1.5-2.76s-1.16-1.86-1.79-2.77a63.59,63.59,0,0,0-4.05-5.27,78.84,78.84,0,0,0-9.48-9.42A98.86,98.86,0,0,0,477.9,85.49a130,130,0,0,0-25.7-8.36,172.76,172.76,0,0,0-27-3.47,144.9,144.9,0,0,0-27.09.83c-8.9,1.21-17.69,3.41-25.58,7.43a53,53,0,0,0-10.9,7.31,44.42,44.42,0,0,0-8.41,9.94,43.48,43.48,0,0,0-3,5.78,46.44,46.44,0,0,0-2.12,6.18,45.44,45.44,0,0,0-1.23,6.42c-.11,1.07-.2,2.16-.23,3.23,0,.53,0,1.06,0,1.58,0,.26,0,.5,0,.75a2.33,2.33,0,0,0,0,.3v.1s0,.12,0-.08A2.06,2.06,0,0,0,345.61,122Z"/><path class="cls-8" d="M345.37,123.46c.79-.81,1.47-1.42,2.23-2.07s1.48-1.26,2.25-1.85c1.52-1.19,3.07-2.32,4.67-3.38a98,98,0,0,1,9.88-5.78,119.21,119.21,0,0,1,21.19-8.21,139.19,139.19,0,0,1,22.21-4.31l2.8-.33,2.82-.21c1.87-.12,3.74-.33,5.63-.35l5.63-.17,5.63.06a192.7,192.7,0,0,1,22.4,1.82c7.43.95,14.77,2.46,22.06,4.09a303.09,303.09,0,0,1,42.63,13.56A303,303,0,0,0,474.5,104c-7.3-1.42-14.62-2.72-22-3.45a191.76,191.76,0,0,0-22.2-1.18l-5.55.09-5.53.33c-1.85.07-3.68.33-5.52.5l-2.76.28-2.74.4a134.46,134.46,0,0,0-21.52,4.8,114.92,114.92,0,0,0-20.23,8.49,92.37,92.37,0,0,0-9.25,5.77q-2.24,1.56-4.3,3.29c-.69.57-1.37,1.16-2,1.75s-1.32,1.25-1.82,1.78Z"/></g></svg>