<svg xmlns="http://www.w3.org/2000/svg" viewBox="0 0 640 320"><defs><style>.cls-1{fill:aqua;}.cls-2{fill:blue;}.cls-3{fill:#00007f;}.cls-4{fill:#fcfcfc;}.cls-5{fill:#0d0a09;}</style></defs><g id="ART-fills"><path class="cls-1" d="M137.53,247.11c-9.7,0-35.82-15.35-35-44a1.43,1.43,0,0,1,2.38-1c4.84,4.3,21.16,6.26,39.81,1.67"/><path class="cls-1" d="M172.1,162.59c-16.58.42-36.55-3.76-45.71-7.92a13.79,13.79,0,0,1-4.42-2.8,1.58,1.58,0,0,0-2.75.81,39.73,39.73,0,0,0,.69,15C123.5,183,135.15,196,144.85,204.49c-5.16-10.93-13.15-22.83-16.82-34.37C143.56,173.79,160.5,172.17,172.1,162.59Z"/><path class="cls-2" d="M128,170.12c3.67,11.54,11.66,23.44,16.82,34.37a111.15,111.15,0,0,0,13.06,9.95l21.26-52.35c-2.25.27-4.62.44-7.07.5C160.5,172.17,143.56,173.79,128,170.12Z"/><path class="cls-2" d="M212.31,128.36a59,59,0,0,1-22.38-5.22,87,87,0,0,1-34.44-10c-.37,13.9,4.85,29.64,6.63,43.17,2.21,3.58,3.88,5.84,4.13,6.29Z"/><path class="cls-1" d="M155.49,113.1a87,87,0,0,0,34.44,10c-15-6.59-26.59-17.82-31.36-24.31a19.47,19.47,0,0,1-2-3.16,1.77,1.77,0,0,0-3.17-.12,44,44,0,0,0-4.15,14c-2.39,19,7.08,37.39,12.85,46.75C160.34,142.74,155.12,127,155.49,113.1Z"/><path class="cls-2" d="M463.51,101.39a111.25,111.25,0,0,0-30.63-5.91A59.25,59.25,0,0,0,424,99.31l34.93,58.93a36.8,36.8,0,0,1-.63-9.13C451.85,132.9,454.89,115.69,463.51,101.39Z"/><path class="cls-1" d="M486.06,97.16a63.76,63.76,0,0,0-15.84-5c-15.21-2.74-28.87.39-37.34,3.35a111.25,111.25,0,0,1,30.63,5.91c-8.62,14.3-11.66,31.51-5.22,47.72.84-16.57,11.66-33,19.95-42.06,3.2-3.5,6-5.88,7.76-6.73A1.77,1.77,0,0,0,486.06,97.16Z"/><path class="cls-2" d="M468,132a72.9,72.9,0,0,0-10.47,1.21l25,57.61c3.7-8.08,9.56-15.54,15.82-21.8a67.8,67.8,0,0,1,9.28-21.63C495.46,140.14,481.86,135.41,468,132Z"/><path class="cls-1" d="M525.68,147.64a60,60,0,0,0-12-7.67c-16.26-8-34.51-8.63-45.68-8,13.84,3.43,27.44,8.16,39.59,15.39A67.8,67.8,0,0,0,498.33,169a98.61,98.61,0,0,1,19.06-15,27.91,27.91,0,0,1,7.44-3.31A1.77,1.77,0,0,0,525.68,147.64Z"/><path class="cls-1" d="M494.14,173.45c2.17,0,46.08,2.85,58.25,39.44.45,1.35-.21,2.82-1.67,2.69C538,214.44,514.47,223,499.11,240.8"/><path class="cls-2" d="M209.2,74.92a145.34,145.34,0,0,0-9.48,48.64L248.86,97c-1.25-.53-2.47-1.11-3.68-1.72A127.06,127.06,0,0,1,209.2,74.92Z"/><path class="cls-1" d="M213.05,65.88c-3.38-5-5.51-9.42-6.13-12A1.91,1.91,0,0,0,203.6,53a55.74,55.74,0,0,0-6.49,10.65c-12.82,27.46-1.64,59.87-1,61.85l3.61-2a145.34,145.34,0,0,1,9.48-48.64,127.06,127.06,0,0,0,36,20.38C231,88.16,219.64,75.74,213.05,65.88Z"/><path class="cls-2" d="M268.62,48.34C259,58,251.43,69.75,245.54,82.05a106.67,106.67,0,0,0-1.68,12.58L306,89C293.83,75.06,282.26,60.55,268.62,48.34Z"/><path class="cls-1" d="M281.32,37.82a36,36,0,0,1,0-7.83,1.91,1.91,0,0,0-2.76-2A56.28,56.28,0,0,0,262,42.73c-9.85,12.84-14.37,28.55-16.43,39.32C251.43,69.75,259,58,268.62,48.34,282.26,60.55,293.83,75.06,306,89l6.54-.59C289.68,78.5,282.54,52.09,281.32,37.82Z"/><path class="cls-2" d="M416.1,62a194.71,194.71,0,0,0-39.36,5.2c-9,5.74-14.67,10.95-15.26,11.69l64.18,41.75a100.47,100.47,0,0,1-1.56-14.38A115.94,115.94,0,0,1,416.1,62Z"/><path class="cls-1" d="M430,51.17a69,69,0,0,0-14.84.53C399.3,53.92,385.09,61,375,67.43a194.72,194.72,0,0,1,39.36-5.21,116.14,116.14,0,0,0,8,44.27c-.67-16.3,1.76-33.73,5-44,1.21-3.88,2.52-6.73,3.82-8.11A1.91,1.91,0,0,0,430,51.17Z"/><path class="cls-1" d="M356.57,34c.48-6.67,1.51-11.87,2.75-14.55a2.31,2.31,0,0,0-2.56-3.24,69.94,69.94,0,0,0-19.87,8.48c-14.93,9.28-25,22.92-31.31,34a164.38,164.38,0,0,1,34-18.79A88.42,88.42,0,0,0,361.3,78.2,128.46,128.46,0,0,1,356.57,34Z"/><path class="cls-2" d="M339.59,39.9a164.38,164.38,0,0,0-34,18.79,114.7,114.7,0,0,0-8.49,18.42l71,17.52A82.78,82.78,0,0,1,361.3,78.2,88.42,88.42,0,0,1,339.59,39.9Z"/><path class="cls-3" d="M112.51,221.14a56.44,56.44,0,0,0,8.93,9,43,43,0,0,0,10.7,6.46,31,31,0,0,0,11.92,2.5,28,28,0,0,0,6.05-.55,37.45,37.45,0,0,0,5.9-1.63l.07,0a2,2,0,0,1,1.35,3.76A33.88,33.88,0,0,1,144,243.05a30.57,30.57,0,0,1-6.81-1,33.48,33.48,0,0,1-6.43-2.3,43.64,43.64,0,0,1-11-7.61,49.32,49.32,0,0,1-8.42-10.24.72.72,0,0,1,.25-1,.71.71,0,0,1,1,.17Z"/><path class="cls-3" d="M126.58,167a56.29,56.29,0,0,0,5.84,11.27,42.62,42.62,0,0,0,8.28,9.35,30.94,30.94,0,0,0,10.62,5.95,28.69,28.69,0,0,0,6,1.28,37.68,37.68,0,0,0,6.11.2h.08a2,2,0,0,1,.17,4,33.87,33.87,0,0,1-13.56-1.75,30.21,30.21,0,0,1-6.21-2.95,34.29,34.29,0,0,1-5.45-4.11,44.16,44.16,0,0,1-8.26-10.56,49.09,49.09,0,0,1-5-12.28.73.73,0,0,1,.53-.89.73.73,0,0,1,.86.46Z"/><path class="cls-3" d="M417.83,80.4c-.6,1.91-1.16,3.87-1.61,5.84s-.91,4-1.26,5.94a86.48,86.48,0,0,0-1.34,12A63.46,63.46,0,0,0,414.2,116l.51,2.91c.15,1,.49,1.89.72,2.85a50,50,0,0,0,1.85,5.54l.07.21a2,2,0,0,1-3.74,1.38,46.93,46.93,0,0,1-3.31-12.36,63.5,63.5,0,0,1-.14-12.63,83.63,83.63,0,0,1,2.2-12.32,73.85,73.85,0,0,1,4.11-11.76.76.76,0,0,1,1-.36.74.74,0,0,1,.39.89Z"/><path class="cls-3" d="M347.14,56.35c-.15,2.36-.18,4.77-.11,7.16s.14,4.78.33,7.15a103.71,103.71,0,0,0,2.07,14.1,76.65,76.65,0,0,0,4.28,13.43l1.48,3.17a14.15,14.15,0,0,0,.82,1.54l.87,1.5.86,1.52c.28.51.66,1,1,1.43l2,2.84.09.13a2,2,0,0,1-3.22,2.36,55.51,55.51,0,0,1-7.5-13,74.13,74.13,0,0,1-4-14.28,97.54,97.54,0,0,1-1.33-14.65,87.33,87.33,0,0,1,1-14.62.74.74,0,0,1,.84-.61.73.73,0,0,1,.62.77Z"/><path class="cls-3" d="M463.12,109.38c-1.05,1.7-2.09,3.47-3,5.26s-1.85,3.6-2.69,5.44a86.12,86.12,0,0,0-4.26,11.26A63.59,63.59,0,0,0,450.77,143l-.22,2.94c-.09,1,0,2,0,2.94a49.53,49.53,0,0,0,.42,5.83v.22a2,2,0,0,1-4,.41,46.85,46.85,0,0,1-.14-12.79,64,64,0,0,1,3-12.28,82.37,82.37,0,0,1,5.19-11.38,71.58,71.58,0,0,1,6.9-10.37.73.73,0,0,1,1.19.84Z"/><path class="cls-3" d="M499.25,155.69c-1.64,1.14-3.3,2.34-4.87,3.61s-3.13,2.56-4.64,3.91a87.68,87.68,0,0,0-8.42,8.61,64.36,64.36,0,0,0-6.85,9.72l-1.38,2.6c-.48.87-.78,1.8-1.19,2.69a53,53,0,0,0-1.95,5.51l-.07.2a2,2,0,0,1-3.8-1.21,46.4,46.4,0,0,1,5-11.77,63.2,63.2,0,0,1,7.66-10.05,81.67,81.67,0,0,1,9.31-8.35,71.91,71.91,0,0,1,10.48-6.74.73.73,0,0,1,.75,1.25Z"/><path class="cls-3" d="M526.21,210.23c-1.83.81-3.68,1.67-5.47,2.63s-3.56,1.91-5.29,2.95a86.3,86.3,0,0,0-9.9,6.86,64.37,64.37,0,0,0-8.58,8.24l-1.85,2.3c-.63.75-1.1,1.61-1.67,2.41a50.74,50.74,0,0,0-3,5l-.11.19a2,2,0,0,1-3.5-1.91A46.85,46.85,0,0,1,494,228.32a63.67,63.67,0,0,1,9.43-8.41,83,83,0,0,1,10.72-6.44,73.3,73.3,0,0,1,11.57-4.63.74.74,0,0,1,.5,1.38Z"/><path class="cls-3" d="M156.41,123.45a56,56,0,0,0,4.36,11.92,42.46,42.46,0,0,0,7,10.33,30.79,30.79,0,0,0,9.78,7.25,28.27,28.27,0,0,0,5.73,2,37.1,37.1,0,0,0,6,1h.09a2,2,0,0,1-.35,4,34,34,0,0,1-13.22-3.45,30.72,30.72,0,0,1-5.79-3.72A34.41,34.41,0,0,1,165.2,148a43.73,43.73,0,0,1-6.85-11.53A49.26,49.26,0,0,1,155,123.66a.73.73,0,0,1,1.44-.25Z"/><path class="cls-3" d="M197.31,97.63a56.2,56.2,0,0,0,4.36,11.92,42.42,42.42,0,0,0,7,10.33,31.09,31.09,0,0,0,9.79,7.25,28.27,28.27,0,0,0,5.73,2,36.93,36.93,0,0,0,6,1h.08a2,2,0,0,1-.34,4,33.91,33.91,0,0,1-13.23-3.46,30,30,0,0,1-5.78-3.72,33.36,33.36,0,0,1-4.88-4.77,43.71,43.71,0,0,1-6.86-11.52,49.06,49.06,0,0,1-3.38-12.81.72.72,0,0,1,.64-.81.73.73,0,0,1,.8.56Z"/><path class="cls-3" d="M259.46,65a40.72,40.72,0,0,0-3.19,8.21,29.72,29.72,0,0,0-1.11,8.53,21.31,21.31,0,0,0,1.65,8.13,19.27,19.27,0,0,0,2,3.63,27,27,0,0,0,2.58,3.28l.06.07a2,2,0,0,1-3,2.7,23.91,23.91,0,0,1-5.3-8.23,21.4,21.4,0,0,1-1.23-4.78,24.1,24.1,0,0,1-.23-4.87,30.88,30.88,0,0,1,2-9.29,33.51,33.51,0,0,1,4.51-8.21.73.73,0,0,1,1-.14.74.74,0,0,1,.21.93Z"/><path class="cls-3" d="M324.58,47.13A41,41,0,0,0,319,53.91a29.91,29.91,0,0,0-3.75,7.74,21.5,21.5,0,0,0-1,8.24,20.06,20.06,0,0,0,.71,4.07,26.63,26.63,0,0,0,1.42,3.92l0,.08a2,2,0,0,1-3.65,1.64,24.05,24.05,0,0,1-2.43-9.49,21.34,21.34,0,0,1,.34-4.92A24.17,24.17,0,0,1,312,60.5a30.44,30.44,0,0,1,4.88-8.17A33.46,33.46,0,0,1,323.69,46a.73.73,0,0,1,.92,1.14Z"/><path class="cls-4" d="M544.09,206.56c.76,1.62-9.36,1.13-13.26,3s-13.74,1.25-14.5-.37,7.42-5.11,11.75-5.5S543.33,204.94,544.09,206.56Z"/><path class="cls-4" d="M517.94,146.82c1.11,1.39-8.83,3.29-12.2,6s-13.06,4.45-14.17,3,6-6.7,10.13-8.11S516.82,145.42,517.94,146.82Z"/><path class="cls-4" d="M477.63,97.55c1.43,1.07-7.71,5.42-10.29,8.87S455.83,114,454.39,113s4.12-8,7.76-10.4S476.2,96.48,477.63,97.55Z"/><path class="cls-4" d="M425.28,55.84c1.79.09-3.37,8.8-3.58,13.11s-5.31,12.73-7.1,12.64-1.05-8.94.63-13S423.49,55.76,425.28,55.84Z"/><path class="cls-4" d="M276.26,36.41c1.79,0-2.94,9-2.94,13.26s-4.69,13-6.48,13-1.48-8.88,0-13S274.47,36.41,276.26,36.41Z"/><path class="cls-4" d="M204.27,60.12c1.54-.9,2,9.22,4.15,12.94s2.51,13.56,1,14.47-5.76-6.92-6.55-11.2S202.72,61,204.27,60.12Z"/><path class="cls-4" d="M155.14,104.88c1.34-.79,1.72,8,3.61,11.24s2.18,11.8.84,12.59-5-6-5.7-9.74S153.79,105.66,155.14,104.88Z"/><path class="cls-4" d="M122,160.12c1-1.19,4.29,7,7.15,9.4s6,10.39,5,11.58-6.73-4-8.62-7.28S121,161.31,122,160.12Z"/><path class="cls-4" d="M108.1,208.64c1.14-1.35,4.88,7.93,8.13,10.68s6.81,11.82,5.67,13.17-7.65-4.55-9.8-8.28S107,210,108.1,208.64Z"/><path class="cls-4" d="M352.24,23.93c2,.68-6.7,8.82-8.36,13.61S333.7,50.17,331.71,49.48s1.76-10.44,5-14.42S350.25,23.24,352.24,23.93Z"/></g><g id="ART-strokes"><path class="cls-5" d="M137.53,248.36a21.3,21.3,0,0,1-6.77-1.67,42,42,0,0,1-6-3,53.28,53.28,0,0,1-10.47-8.33,46.08,46.08,0,0,1-12.47-23.49c-.26-1.1-.36-2.23-.55-3.35s-.24-2.25-.26-3.39l-.06-1.7v-.21a2.46,2.46,0,0,1,0-.28,2.85,2.85,0,0,1,.17-.85,3,3,0,0,1,1-1.4,3.1,3.1,0,0,1,3.33-.23l1.43,1a18.84,18.84,0,0,0,5.65,1.83,37.92,37.92,0,0,0,6.24.63,64.74,64.74,0,0,0,12.65-.89,75.62,75.62,0,0,0,12.3-3.11,4,4,0,1,1,2.65,7.58,4.23,4.23,0,0,1-.7.18h0A116.26,116.26,0,0,1,132,209a80.59,80.59,0,0,1-13.62-.53,55.35,55.35,0,0,1-6.77-1.31,22.49,22.49,0,0,1-6.6-2.8c-.27-.19-.52-.41-.78-.61l-.39-.31-.09-.08h0c.12,0,.21,0,.23,0a.34.34,0,0,0,.06-.12v-.05s0,.09,0,.14v.19l0,1.59c0,1.06,0,2.12.06,3.18s.13,2.13.32,3.17a40.6,40.6,0,0,0,3.78,12.17,49.62,49.62,0,0,0,3.31,5.51A45.68,45.68,0,0,0,125.71,242a35.42,35.42,0,0,0,5.8,2.69,17.38,17.38,0,0,0,6,1.17h0a1.25,1.25,0,1,1,.06,2.5Z"/><path class="cls-5" d="M148.49,208.26l-3-2.45c-1-.85-2.08-1.72-3.1-2.61-2-1.78-4-3.62-5.89-5.56a80.85,80.85,0,0,1-10.23-12.57,55.13,55.13,0,0,1-6.91-14.73A42.72,42.72,0,0,1,117.74,154l.09-1,0-.51a3.54,3.54,0,0,1,.26-.88,3,3,0,0,1,3.12-1.66,3,3,0,0,1,1.69.85,1.84,1.84,0,0,0,.21.19l.13.12a2.49,2.49,0,0,0,.29.25,12.29,12.29,0,0,0,1.49.93,39.89,39.89,0,0,0,7.17,2.75,108.45,108.45,0,0,0,15.42,3.19,121.94,121.94,0,0,0,15.69,1.17,76.76,76.76,0,0,0,15.34-1.28,4,4,0,1,1,1.61,7.86,3.83,3.83,0,0,1-.58.07h-.05a103.52,103.52,0,0,1-16.68-.64,157.67,157.67,0,0,1-16.13-2.67,131.42,131.42,0,0,1-15.71-4.41,44.54,44.54,0,0,1-7.6-3.41,13.46,13.46,0,0,1-1.84-1.3,3.57,3.57,0,0,1-.45-.43l-.38-.38a.16.16,0,0,0-.05-.06.21.21,0,0,0-.22.05l0,.08-.06.48-.13,1a37.17,37.17,0,0,0-.25,7.75,38.08,38.08,0,0,0,1.26,7.7,45.32,45.32,0,0,0,2.65,7.37,49.87,49.87,0,0,0,3.79,6.91,70.7,70.7,0,0,0,10,12.22c1.89,1.85,3.86,3.62,5.91,5.29,1,.84,2.06,1.65,3.12,2.44l1.61,1.17.82.58c.29.21.51.35.92.69a1.25,1.25,0,0,1-1.59,1.93Z"/><path class="cls-5" d="M165.17,163.18l-2.35-3.69c-.8-1.27-1.58-2.55-2.32-3.85-1.5-2.59-2.92-5.23-4.21-7.93A90.89,90.89,0,0,1,150,130.88,61.32,61.32,0,0,1,147.91,113a53.83,53.83,0,0,1,1.19-9,48.36,48.36,0,0,1,3-8.65,3.32,3.32,0,0,1,1-1.4,3.14,3.14,0,0,1,1.85-.64,3.25,3.25,0,0,1,1.85.54,3.11,3.11,0,0,1,.72.68,5.47,5.47,0,0,1,.45.72,24,24,0,0,0,2.37,3.4l1.38,1.65,1.48,1.59c1,1.07,2.06,2,3.09,3.06a85.75,85.75,0,0,0,13.93,10.38c9.9,5.91,21.2,9.52,32.19,9.08h0a4,4,0,1,1,.32,8,4.47,4.47,0,0,1-.52,0c-12.84-1.19-24.52-6.3-34.51-13.22a97,97,0,0,1-13.87-11.76,71.76,71.76,0,0,1-5.95-6.92,26.41,26.41,0,0,1-2.51-4c-.14-.25-.09-.18-.13-.24a.18.18,0,0,0-.07-.08.34.34,0,0,0-.25-.1.38.38,0,0,0-.23,0c-.06.06,0,0-.24.4a45.47,45.47,0,0,0-3.07,8.07,48.36,48.36,0,0,0-1.39,8.56,56.48,56.48,0,0,0,1.78,17.34A81,81,0,0,0,158,146.86c1.33,2.62,2.76,5.19,4.31,7.69.78,1.24,1.58,2.48,2.41,3.69l2.61,3.7a1.25,1.25,0,1,1-2,1.44l0,0Z"/><path class="cls-5" d="M423.35,98.23c1.37-.72,2.65-1.25,4-1.81s2.66-1.06,4-1.51c2.69-1,5.43-1.73,8.2-2.42a80.21,80.21,0,0,1,16.9-2.28c.71,0,1.42-.06,2.13-.06l2.14.08c1.42.07,2.86,0,4.27.23l4.26.47,4.21.83a40.06,40.06,0,0,1,4.15,1.06l2.07.59,1,.29,1,.39,4,1.57.5.2.25.1.13.05.19.1A2.87,2.87,0,0,1,488,97.47a3.12,3.12,0,0,1-.57,3.39,3,3,0,0,1-.71.57l-.47.28a7.86,7.86,0,0,0-.77.51,19.44,19.44,0,0,0-1.54,1.24c-1,.88-2,1.84-2.93,2.84a71.63,71.63,0,0,0-5.29,6.34,83.25,83.25,0,0,0-8.49,14.13,60.29,60.29,0,0,0-5,15.37,35.79,35.79,0,0,0,.55,15.32,4,4,0,0,1-7.73,2.16,3.82,3.82,0,0,1-.11-.55v0a46.75,46.75,0,0,1,1.41-18.18,71.28,71.28,0,0,1,6.8-16.18A94.23,94.23,0,0,1,473,110.49a79.43,79.43,0,0,1,5.85-6.33c1-1,2.12-2,3.27-2.89.57-.46,1.17-.9,1.81-1.32a9.12,9.12,0,0,1,1-.6l.45-.24a.3.3,0,0,0,.11-.07.53.53,0,0,0,.13-.54.3.3,0,0,0-.14-.17l0,0-.12,0-.23-.1-.48-.2-3.8-1.64-1-.41-1-.32L477,95a30.62,30.62,0,0,0-4-1.14l-4.06-.88-4.13-.53a38.23,38.23,0,0,0-4.14-.3L458.57,92c-.7,0-1.39,0-2.09,0A71.08,71.08,0,0,0,440,94.35a80.52,80.52,0,0,0-7.93,2.56,50.35,50.35,0,0,0-7.45,3.48l-.05,0a1.25,1.25,0,1,1-1.27-2.16Z"/><path class="cls-5" d="M461.66,131.61c.83-.19,1.46-.26,2.17-.36s1.38-.17,2.07-.23c1.38-.14,2.76-.25,4.14-.32,2.75-.14,5.51-.19,8.26-.11a99.38,99.38,0,0,1,16.41,1.78,74,74,0,0,1,30.25,13l.84.63.42.31.21.16.26.22a3,3,0,0,1,.92,1.62,3.2,3.2,0,0,1-.16,1.79,3.14,3.14,0,0,1-1.09,1.44,2.82,2.82,0,0,1-.82.44l-.43.13-.21.07a14.32,14.32,0,0,0-1.72.62,41.58,41.58,0,0,0-6.84,3.86A91.27,91.27,0,0,0,504,166.84a89,89,0,0,0-10.4,12,59.8,59.8,0,0,0-7.41,13.61,4,4,0,0,1-7.53-2.78,5.05,5.05,0,0,1,.24-.53v0a78.47,78.47,0,0,1,10-14,107.35,107.35,0,0,1,12.06-11.7,106.24,106.24,0,0,1,13.59-9.67c1.18-.73,2.45-1.37,3.67-2.05s2.54-1.23,3.92-1.72a15.68,15.68,0,0,1,2.17-.65l.27-.07a.07.07,0,0,1,.06,0l.09,0a.39.39,0,0,0,.15-.16c.07-.17.06-.27,0-.35s0-.05-.12-.11l-.19-.16-.39-.32-.77-.64a63.81,63.81,0,0,0-13.64-8.39c-2.46-1.09-5-2-7.53-2.88s-5.18-1.48-7.82-2a86.88,86.88,0,0,0-16.08-1.67c-2.7,0-5.4.08-8.08.32-1.35.11-2.68.27-4,.46-.66.1-1.33.2-2,.33s-1.35.26-1.84.4l-.08,0a1.25,1.25,0,0,1-.69-2.41Z"/><path class="cls-5" d="M494.14,172.19c1.46.09,2.71.27,4.05.46s2.63.42,3.93.68c2.6.5,5.18,1.1,7.73,1.83a84.9,84.9,0,0,1,14.83,5.63A64.93,64.93,0,0,1,538,189.5a58.22,58.22,0,0,1,5.73,5.6c.84,1,1.76,2,2.53,3.12l1.19,1.62c.38.56.73,1.13,1.1,1.69a55.78,55.78,0,0,1,3.85,7.09c.54,1.23,1,2.5,1.52,3.75a4,4,0,0,1-.2,3.24,3.21,3.21,0,0,1-1.46,1.38,3,3,0,0,1-1,.29,2.58,2.58,0,0,1-.47,0h-.35a45.84,45.84,0,0,0-14.89,1.85,45.1,45.1,0,0,0-13.31,6.49A48,48,0,0,0,511.88,236a4,4,0,0,1-6.46-4.75,2.82,2.82,0,0,1,.38-.46l0,0A62.4,62.4,0,0,1,519,220.56a54.38,54.38,0,0,1,15.43-5.87,52.74,52.74,0,0,1,16.28-.84h.16l0,0s-.07.08-.05.07a.75.75,0,0,0,0-.57c-.42-1.2-.8-2.42-1.25-3.61a51.6,51.6,0,0,0-3.3-6.87c-5.09-8.88-13.23-15.85-22.44-20.47a77.27,77.27,0,0,0-7.11-3.11c-2.43-.88-4.9-1.67-7.41-2.33s-5-1.19-7.59-1.58c-1.28-.21-2.56-.37-3.84-.51s-2.62-.22-3.77-.22h-.07a1.26,1.26,0,1,1,0-2.51Z"/><path class="cls-5" d="M194.92,125.89a117.71,117.71,0,0,1-3.77-17.47,105,105,0,0,1-1-17.82c.09-3,.36-5.95.74-8.92a73.63,73.63,0,0,1,1.75-8.8,60.76,60.76,0,0,1,7.06-16.55c.76-1.31,1.65-2.53,2.51-3.78.13-.17.19-.28.36-.49a3.15,3.15,0,0,1,.74-.67,3.2,3.2,0,0,1,1.9-.52A3.45,3.45,0,0,1,208.23,53L209,55.1l.85,1.91c.67,1.25,1.31,2.52,2.09,3.73s1.58,2.41,2.37,3.61,1.69,2.34,2.59,3.47a82,82,0,0,0,5.67,6.54,85.39,85.39,0,0,0,13,11.24,61.77,61.77,0,0,0,14.89,7.74,4,4,0,1,1-2.59,7.58,3,3,0,0,1-.49-.2h0a78.73,78.73,0,0,1-15.45-10.33,101.54,101.54,0,0,1-12.76-13,93.61,93.61,0,0,1-10.2-14.94c-.34-.68-.72-1.33-1-2l-1-2.08L206,56.19c-.13-.38-.23-.78-.34-1.17l-.17-.59-.07-.26s0,0,0-.06a.47.47,0,0,0-.59-.28l-.08.06c-.07.07-.21.26-.31.39-.86,1.14-1.78,2.26-2.54,3.48a56.83,56.83,0,0,0-7.26,15.68A72,72,0,0,0,192,90.67a95.81,95.81,0,0,0,5.34,34.45,1.25,1.25,0,1,1-2.36.85s0,0,0-.06Z"/><path class="cls-5" d="M242.61,94.54A124.64,124.64,0,0,1,246,75.61a105.23,105.23,0,0,1,6.23-18.16,78.86,78.86,0,0,1,9.87-16.53,60.76,60.76,0,0,1,6.56-7.14c.59-.57,1.19-1.11,1.82-1.62s1.24-1,1.88-1.55c1.32-.95,2.6-2,4-2.8l1-.66.52-.33a3.38,3.38,0,0,1,.95-.39,3.36,3.36,0,0,1,4,3.62l-.06.61a4.73,4.73,0,0,0,0,.54c-.05.74-.05,1.49,0,2.26a58.86,58.86,0,0,0,1,9.21,72.87,72.87,0,0,0,5.65,17.63,55.33,55.33,0,0,0,10.18,15,39.86,39.86,0,0,0,14.67,9.43,4,4,0,0,1-2.69,7.56,3.76,3.76,0,0,1-.46-.2h0a52.34,52.34,0,0,1-8.72-5.58A48.69,48.69,0,0,1,295,79.31a61.22,61.22,0,0,1-9.95-17.19,83.93,83.93,0,0,1-4.83-18.91,65.9,65.9,0,0,1-.64-9.75c0-.83.06-1.66.14-2.51,0-.21.05-.43.08-.64l.08-.57a.48.48,0,0,0,0-.29.57.57,0,0,0-.5-.33.43.43,0,0,0-.15.05l-.5.3-1,.59c-1.35.75-2.6,1.68-3.88,2.55-.62.46-1.22,1-1.84,1.43s-1.21,1-1.79,1.49a55,55,0,0,0-6.5,6.71,66,66,0,0,0-5.41,7.65,68.9,68.9,0,0,0-4.39,8.33,103.8,103.8,0,0,0-8.8,36.51h0a1.26,1.26,0,0,1-2.51-.14S242.61,94.55,242.61,94.54Z"/><path class="cls-5" d="M360.5,78.06a11.71,11.71,0,0,1,1-.94l.91-.79c.61-.51,1.22-1,1.84-1.5Q366.07,73.35,368,72c2.54-1.86,5.14-3.64,7.8-5.31a129.9,129.9,0,0,1,16.59-9,99.83,99.83,0,0,1,17.86-6.11c1.53-.39,3.09-.66,4.64-1s3.12-.53,4.7-.68a68.62,68.62,0,0,1,9.51-.48l2.39.07h.3a3.28,3.28,0,0,1,.47,0,3.53,3.53,0,0,1,1,.37,3.33,3.33,0,0,1,1.34,1.52,3.39,3.39,0,0,1,.23,2,3.25,3.25,0,0,1-.61,1.41l-.26.33a9.53,9.53,0,0,0-1.07,1.68A40.1,40.1,0,0,0,430,65.33a120.84,120.84,0,0,0-2.72,18.21,141.3,141.3,0,0,0-.24,18.4,93.74,93.74,0,0,0,2.58,17.91,4,4,0,0,1-7.77,2,3.86,3.86,0,0,1-.09-.49v0A122.19,122.19,0,0,1,421,102a173.65,173.65,0,0,1,1.71-19,138.25,138.25,0,0,1,3.93-18.6,44.24,44.24,0,0,1,3.56-9.06,11.53,11.53,0,0,1,1.56-2.19l.1-.11s0,0,0-.06a.67.67,0,0,0,.06-.12.58.58,0,0,0,0-.32.56.56,0,0,0-.16-.24l-.1,0-.11,0-.29,0L429,52.08a68.67,68.67,0,0,0-9.18.19c-1.53.09-3.05.34-4.58.52s-3,.48-4.54.84a84,84,0,0,0-8.92,2.43,87.15,87.15,0,0,0-8.65,3.33,111.2,111.2,0,0,0-16.3,8.86c-2.59,1.71-5.12,3.5-7.55,5.4-1.22.95-2.42,1.93-3.58,2.93-.59.51-1.16,1-1.72,1.54l-.82.79c-.25.24-.55.56-.68.71l-.06.08a1.26,1.26,0,0,1-1.94-1.6Z"/><path class="cls-5" d="M295.92,76.68a124.8,124.8,0,0,1,9.37-19.41,109.89,109.89,0,0,1,12.58-17.5A88.84,88.84,0,0,1,334,25.38a71.8,71.8,0,0,1,9.35-5.5c1.6-.85,3.29-1.52,4.95-2.24.84-.35,1.7-.64,2.55-1s1.71-.63,2.58-.87L356,15a3.94,3.94,0,0,1,1.91-.2,3.66,3.66,0,0,1,1.92,1,3.8,3.8,0,0,1,.94,4c-.15.41-.17.49-.25.71l-.2.58c-.12.39-.29.74-.38,1.16a56.65,56.65,0,0,0-1.5,10.26,119,119,0,0,0,.63,21A121.66,121.66,0,0,0,363.26,74a79.52,79.52,0,0,0,8.34,18.69h0a4,4,0,0,1-6.77,4.3,3.23,3.23,0,0,1-.22-.41,93.88,93.88,0,0,1-7.19-21,128.25,128.25,0,0,1-3-21.64A137,137,0,0,1,355,32.17a61.08,61.08,0,0,1,2-10.8c.12-.45.34-.91.5-1.36l.48-1.23a.92.92,0,0,0-.18-1,.82.82,0,0,0-.41-.25c-.17,0-.18-.05-.72.1l-2.53.67c-.85.21-1.68.5-2.51.78s-1.67.54-2.48.85c-1.62.66-3.27,1.26-4.84,2a66.67,66.67,0,0,0-9.2,5.11A80.37,80.37,0,0,0,319.28,41,106.16,106.16,0,0,0,307,58.23c-1.75,3.08-3.35,6.24-4.82,9.45a90.81,90.81,0,0,0-3.87,9.86,1.25,1.25,0,0,1-2.38-.78.14.14,0,0,1,0-.06Z"/></g></svg>