<svg xmlns="http://www.w3.org/2000/svg" viewBox="0 0 640 160"><defs><style>.cls-1{fill:blue;}.cls-2{fill:aqua;}.cls-3{fill:#fcfcfc;}.cls-4{fill:#0d0a09;}</style></defs><g id="ART-fills"><path class="cls-1" d="M535.12,114.69c8.09-20.58-4.89-39-22.66-48.5a26.13,26.13,0,0,1-1.12,16.21C523.36,89.3,540.92,98.25,535.12,114.69Z"/><path class="cls-1" d="M494.12,122.59c-6.41-4.81-19.26-2.55-26.67,4.73,3.74-1.07,9.36-1.12,16.91,2.91,9.83,5.25,25.47,16.76,39.85,17.39s23.79-9.29,28.7-18C535.78,139.71,513,137.27,494.12,122.59Z"/><path class="cls-1" d="M521.12,109.59c-6.52,12.12,6.94,20.76,17.71,17.82A26.27,26.27,0,0,0,546.3,121a58.11,58.11,0,0,1-8.18,1.56C530.12,124.59,520.12,119.59,521.12,109.59Z"/><path class="cls-2" d="M554.4,119.46c-12.24,8.91-18,8.89-18,8.89a8,8,0,0,0,2.48-.94c-10.77,2.94-24.23-5.7-17.71-17.82-1,10,9,15,17,13a58.49,58.49,0,0,0,8.18-1.31c8.36-10.72,14.84-31.28,5.41-46.68-19.23-31.42-47.58-20.52-47.58-20.52a23.27,23.27,0,0,1,8.33,12c17.77,9.51,30.75,27.93,22.66,48.51,5.8-16.44-11.76-25.39-23.78-32.3A17.49,17.49,0,0,1,510.6,84c-4.72-12.19-17.53-12.35-17.53-12.35l-31.31,59a12.46,12.46,0,0,1,5.69-3.24c7.41-7.28,20.26-9.54,26.67-4.73,18.88,14.68,41.66,17.12,58.79,7a41.48,41.48,0,0,0,3.71-8.65A1.42,1.42,0,0,0,554.4,119.46Z"/><path class="cls-1" d="M104.88,114.59c-8.09-20.58,4.89-39,22.66-48.51a26.11,26.11,0,0,0,1.12,16.21C116.64,89.2,99.08,98.15,104.88,114.59Z"/><path class="cls-1" d="M145.88,122.59c6.41-4.81,19.26-2.55,26.67,4.73-3.74-1.07-9.36-1.12-16.91,2.91-9.83,5.25-25.47,16.76-39.85,17.39s-23.79-9.29-28.7-18C104.22,139.71,127,137.27,145.88,122.59Z"/><path class="cls-1" d="M118.88,109.59c6.52,12.12-6.94,20.76-17.71,17.82A26.27,26.27,0,0,1,93.7,121a58.11,58.11,0,0,0,8.18,1.56C109.88,124.59,119.88,119.59,118.88,109.59Z"/><path class="cls-2" d="M85.6,119.46c12.24,8.91,18.05,8.89,18.05,8.89a8,8,0,0,1-2.48-.94c10.77,2.94,24.23-5.7,17.71-17.82,1,10-9,15-17,13a58.49,58.49,0,0,1-8.18-1.31C85.34,110.56,78.86,90,88.29,74.6c19.23-31.42,47.58-20.52,47.58-20.52a23.27,23.27,0,0,0-8.33,12C109.77,75.59,96.79,94,104.88,114.59c-5.8-16.44,11.76-25.39,23.78-32.3A17.49,17.49,0,0,0,129.4,84c4.72-12.19,17.53-12.35,17.53-12.35l31.31,59a12.46,12.46,0,0,0-5.69-3.24c-7.41-7.28-20.26-9.54-26.67-4.73-18.88,14.68-41.66,17.12-58.79,7A41.48,41.48,0,0,1,83.38,121,1.42,1.42,0,0,1,85.6,119.46Z"/><path class="cls-3" d="M539.17,79a34.47,34.47,0,0,1,4.19,17.36c0,1.22,1.7,2.53,2,1.53,2.3-7.19.27-17.26-6-26.15s-15.34-14.38-23-14.48c-1,0-.34,2.08.82,2.43C525.18,62,533.71,68.17,539.17,79Z"/><path class="cls-3" d="M522.05,97a20.9,20.9,0,0,1,7.53,7.7c.36.64,1.66.79,1.52.17-1-4.43-5.2-9-11.18-11.69s-12.38-2.71-16.36-.41c-.55.32.46,1.18,1.17,1A22.4,22.4,0,0,1,522.05,97Z"/><path class="cls-3" d="M526,130.09a20.89,20.89,0,0,1-9.05-5.84c-.5-.54-1.79-.4-1.51.17,2,4.1,7.06,7.65,13.48,8.93s12.68-.11,16.05-3.24c.46-.43-.72-1.05-1.37-.72A22.3,22.3,0,0,1,526,130.09Z"/><path class="cls-3" d="M100.83,79a34.47,34.47,0,0,0-4.19,17.36c0,1.22-1.7,2.53-2,1.53-2.3-7.19-.27-17.26,6-26.15s15.34-14.38,23-14.48c1.05,0,.34,2.08-.82,2.43C114.82,62,106.29,68.17,100.83,79Z"/><path class="cls-3" d="M118,97a20.9,20.9,0,0,0-7.53,7.7c-.36.64-1.66.79-1.52.17,1-4.43,5.2-9,11.18-11.69s12.38-2.71,16.36-.41c.55.32-.46,1.18-1.17,1A22.4,22.4,0,0,0,118,97Z"/><path class="cls-3" d="M114,130.09a20.89,20.89,0,0,0,9-5.84c.5-.54,1.79-.4,1.51.17-2,4.1-7.06,7.65-13.48,8.93s-12.68-.11-16-3.24c-.46-.43.72-1.05,1.37-.72A22.3,22.3,0,0,0,114,130.09Z"/></g><g id="ART-strokes"><path class="cls-4" d="M522,111.11a1.3,1.3,0,0,0-.34.48,3.68,3.68,0,0,0-.31,1,10,10,0,0,0-.15,2.34,14.62,14.62,0,0,0,1.11,4.76,12.21,12.21,0,0,0,6.62,6.8,16.55,16.55,0,0,0,9.82.42,38.1,38.1,0,0,0,9.6-3.79c1.53-.82,3-1.73,4.49-2.67.73-.47,1.46-1,2.18-1.46l.27-.19a2.6,2.6,0,0,1,.47-.28,1.41,1.41,0,0,1,1,0,1.64,1.64,0,0,1,1,1.94l-.18.66a48.35,48.35,0,0,1-4.26,9.94,42.34,42.34,0,0,1-6.42,8.73,31.51,31.51,0,0,1-8.78,6.54,28.17,28.17,0,0,1-10.71,2.78,41.94,41.94,0,0,1-10.93-1,85.54,85.54,0,0,1-20.39-7.36,90.84,90.84,0,0,1-9.46-5.42c-.77-.5-1.52-1-2.28-1.56l-2.17-1.62a20.72,20.72,0,0,0-4-2.41,14.86,14.86,0,0,0-12.65.07,15.22,15.22,0,0,0-1.89,1.06c-.3.19-.58.39-.86.6l-.39.31-.17.15s-.13.12-.09.09a4,4,0,1,1-5.17-6.1c.37-.29.54-.39.8-.57l.7-.44c.46-.28.93-.53,1.4-.77a25.47,25.47,0,0,1,2.9-1.23,22.56,22.56,0,0,1,6.15-1.3,21.71,21.71,0,0,1,12,2.74,28,28,0,0,1,4.85,3.39l2,1.7,2,1.59a88.21,88.21,0,0,0,8.55,5.77,79.25,79.25,0,0,0,9.23,4.7,65.47,65.47,0,0,0,9.75,3.4,39.63,39.63,0,0,0,10.08,1.39,24.31,24.31,0,0,0,9.78-2.16c6.21-2.77,11.11-8.07,14.58-14a42.77,42.77,0,0,0,4.1-9.51l.17-.61a.29.29,0,0,0,.05.23.44.44,0,0,0,.13.09.53.53,0,0,0,.35,0c.18-.1,0,0-.09.07l-.27.19c-.74.51-1.48,1-2.23,1.49-1.5,1-3,1.91-4.62,2.76a43.12,43.12,0,0,1-10,4,18.56,18.56,0,0,1-11.05-.37,13.79,13.79,0,0,1-4.77-3.15,15.91,15.91,0,0,1-3.15-4.73,17.55,17.55,0,0,1-1.4-5.49,12.26,12.26,0,0,1,.12-3,6.53,6.53,0,0,1,.46-1.56,3.58,3.58,0,0,1,1.28-1.57l.05,0a1.26,1.26,0,0,1,1.38,2.1Z"/><path class="cls-4" d="M510.6,84a31.65,31.65,0,0,0,1.32-9.31,22.38,22.38,0,0,0-.47-4.5A20.38,20.38,0,0,0,510.2,66a21.38,21.38,0,0,0-4.85-7L505,58.6l-.19-.19-.22-.25c-.14-.17-.26-.37-.39-.56a5.07,5.07,0,0,1-.74-2.63,5.19,5.19,0,0,1,2.7-4.54,6.43,6.43,0,0,1,1.25-.49l.64-.16c.42-.11.85-.19,1.28-.29.85-.17,1.7-.32,2.56-.44a41.61,41.61,0,0,1,20.46,2.25,38.91,38.91,0,0,1,9.19,5.08A42,42,0,0,1,549,63.71a51.36,51.36,0,0,1,5.41,8.7,54,54,0,0,1,3.65,9.5A47.19,47.19,0,0,1,559.64,92a44.45,44.45,0,0,1-.73,10.18,38.93,38.93,0,0,1-3.14,9.63,37.59,37.59,0,0,1-5.41,8.46,29.85,29.85,0,0,1-7.57,6.47,18.76,18.76,0,0,1-4.57,1.94,10.73,10.73,0,0,1-4.87.25,10.85,10.85,0,0,0,4.55-1.14,18.69,18.69,0,0,0,3.89-2.5,30.46,30.46,0,0,0,6.07-6.9,38.81,38.81,0,0,0,4-8.19,40.64,40.64,0,0,0,0-26.47,49.48,49.48,0,0,0-3.53-8.25A46.16,46.16,0,0,0,543.53,68,33.51,33.51,0,0,0,529.8,57.74a37.36,37.36,0,0,0-17.22-2.44c-.73.06-1.46.15-2.18.26-.36.06-.72.11-1.07.18l-.53.1s.08,0,.12-.07a.65.65,0,0,0,.3-.66.71.71,0,0,0-.15-.33s-.05,0-.06-.06l0,0s0,0,0,0l.43.51a23,23,0,0,1,5.5,14.57,25.9,25.9,0,0,1-.51,5.08A24.66,24.66,0,0,1,510.6,84Z"/><path class="cls-4" d="M490,75.87c2.84.58,5.42,1.2,8.08,1.91s5.23,1.48,7.8,2.32,5.12,1.8,7.6,2.89a58.54,58.54,0,0,1,7.25,3.65c4.64,2.75,9,6.28,11.83,11a22.73,22.73,0,0,1,2.84,7.69,31,31,0,0,1,0,8.22,1.1,1.1,0,0,1-2.18-.22.5.5,0,0,1,0-.12v0a23,23,0,0,0,.44-7.58,18.9,18.9,0,0,0-2.57-7.11,21.94,21.94,0,0,0-5-5.71,37.27,37.27,0,0,0-6.51-4.12A57.59,57.59,0,0,0,504.85,84a77.25,77.25,0,0,0-7.7-1,57.86,57.86,0,0,0-7.65-.13h0a3.53,3.53,0,0,1-.47-7A3.74,3.74,0,0,1,490,75.87Z"/><path class="cls-4" d="M119.32,109a3.58,3.58,0,0,1,1.28,1.57,6.53,6.53,0,0,1,.46,1.56,12.26,12.26,0,0,1,.12,3,17.55,17.55,0,0,1-1.4,5.49,15.91,15.91,0,0,1-3.15,4.73,13.79,13.79,0,0,1-4.77,3.15,18.56,18.56,0,0,1-11,.37,43.12,43.12,0,0,1-10-4c-1.59-.85-3.12-1.79-4.62-2.76-.75-.48-1.49-1-2.23-1.49l-.27-.19c-.07-.06-.27-.17-.09-.07a.53.53,0,0,0,.35,0,.44.44,0,0,0,.13-.09.29.29,0,0,0,0-.23l.17.61a42.77,42.77,0,0,0,4.1,9.51c3.47,6,8.37,11.25,14.58,14a24.31,24.31,0,0,0,9.78,2.16,39.63,39.63,0,0,0,10.08-1.39,65.47,65.47,0,0,0,9.75-3.4,79.25,79.25,0,0,0,9.23-4.7,88.21,88.21,0,0,0,8.55-5.77l2-1.59,2-1.7a28,28,0,0,1,4.85-3.39,21.71,21.71,0,0,1,12-2.74,22.56,22.56,0,0,1,6.15,1.3,25.47,25.47,0,0,1,2.9,1.23c.47.24.94.49,1.4.77l.7.44c.26.18.43.28.8.57a4,4,0,1,1-5.17,6.1s0,0-.09-.09l-.17-.15-.39-.31c-.28-.21-.56-.41-.86-.6a15.22,15.22,0,0,0-1.89-1.06,14.86,14.86,0,0,0-12.65-.07,20.72,20.72,0,0,0-4,2.41l-2.17,1.62c-.76.52-1.51,1.06-2.28,1.56a90.84,90.84,0,0,1-9.46,5.42,85.54,85.54,0,0,1-20.39,7.36,41.94,41.94,0,0,1-10.93,1,28.08,28.08,0,0,1-10.7-2.78,31.41,31.41,0,0,1-8.79-6.54A42.34,42.34,0,0,1,86.69,131a48.35,48.35,0,0,1-4.26-9.94l-.18-.66a1.64,1.64,0,0,1,1-1.94,1.41,1.41,0,0,1,1,0,2.6,2.6,0,0,1,.47.28L85,119c.72.5,1.45,1,2.18,1.46,1.47.94,3,1.85,4.49,2.67a38.1,38.1,0,0,0,9.6,3.79,16.55,16.55,0,0,0,9.82-.42,12.21,12.21,0,0,0,6.62-6.8,14.62,14.62,0,0,0,1.11-4.76,10,10,0,0,0-.15-2.34,4.1,4.1,0,0,0-.3-1,1.41,1.41,0,0,0-.35-.48,1.25,1.25,0,1,1,1.15-2.23l.11.07Z"/><path class="cls-4" d="M129.4,84a24.66,24.66,0,0,1-3.81-9.06,25.9,25.9,0,0,1-.51-5.08,23,23,0,0,1,5.5-14.57l.43-.51c.05-.07,0,0,0,0l0,0s0,0-.06.06a.71.71,0,0,0-.15.33.65.65,0,0,0,.3.66s.16.08.12.07l-.53-.1c-.35-.07-.71-.12-1.07-.18-.72-.11-1.45-.2-2.18-.26a37.36,37.36,0,0,0-17.22,2.44A33.51,33.51,0,0,0,96.47,68a46.16,46.16,0,0,0-4.85,7.46,49.48,49.48,0,0,0-3.53,8.25,40.64,40.64,0,0,0,0,26.47,38.81,38.81,0,0,0,4,8.19,30.46,30.46,0,0,0,6.07,6.9,18.69,18.69,0,0,0,3.89,2.5,10.85,10.85,0,0,0,4.55,1.14,10.73,10.73,0,0,1-4.87-.25,18.76,18.76,0,0,1-4.57-1.94,29.85,29.85,0,0,1-7.57-6.47,37.59,37.59,0,0,1-5.41-8.46,38.93,38.93,0,0,1-3.14-9.63A44.45,44.45,0,0,1,80.36,92,47.19,47.19,0,0,1,82,81.91a54,54,0,0,1,3.65-9.5A51.36,51.36,0,0,1,91,63.71a42,42,0,0,1,7.45-7.33,38.91,38.91,0,0,1,9.19-5.08,41.61,41.61,0,0,1,20.46-2.25c.86.12,1.71.27,2.56.44.43.1.86.18,1.28.29l.64.16a6.43,6.43,0,0,1,1.25.49,5.19,5.19,0,0,1,2.7,4.54,5.07,5.07,0,0,1-.74,2.63c-.13.19-.25.39-.39.56l-.22.25-.19.19-.38.37a21.38,21.38,0,0,0-4.85,7,20.38,20.38,0,0,0-1.25,4.2,22.38,22.38,0,0,0-.47,4.5A31.65,31.65,0,0,0,129.4,84Z"/><path class="cls-4" d="M150.5,82.85a57.86,57.86,0,0,0-7.65.13,77.25,77.25,0,0,0-7.7,1,57.59,57.59,0,0,0-14.74,4.69,37.27,37.27,0,0,0-6.51,4.12,21.94,21.94,0,0,0-5,5.71,18.9,18.9,0,0,0-2.57,7.11,23,23,0,0,0,.44,7.58v0a1.1,1.1,0,0,1-2.14.47.59.59,0,0,1,0-.13,31,31,0,0,1,0-8.22,22.73,22.73,0,0,1,2.84-7.69c2.8-4.76,7.19-8.29,11.83-11A58.54,58.54,0,0,1,126.55,83c2.48-1.09,5-2,7.6-2.89s5.17-1.62,7.8-2.32,5.24-1.33,8.08-1.91a3.53,3.53,0,1,1,1.43,6.92,3.7,3.7,0,0,1-.93.06Z"/></g></svg>