<svg xmlns="http://www.w3.org/2000/svg" viewBox="0 0 640 320"><defs><style>.cls-1{fill:aqua;}.cls-2{fill:blue;}.cls-3{fill:#00007f;}.cls-4{fill:red;}.cls-5{fill:maroon;}.cls-6{fill:#fcfcfc;}.cls-7{fill:#0d0a09;}</style></defs><g id="ART-fills"><path class="cls-1" d="M109.52,226.78c-11.76-19-19.42-43.7-12.65-65.26-10.18,6.54-16.61,12.9-16.8,16.6a11.3,11.3,0,0,0,0,1.65c-.1,12.34-1.41,31.6,17.49,53.59,19.3,22.45,37.08,26.8,43.82,24.93a48.56,48.56,0,0,0,16.73-8.15C138.65,255,119.75,242.6,109.52,226.78Z"/><path class="cls-2" d="M176,139c-28.84-2.18-60.38,10.5-79.15,22.56-6.77,21.56.89,46.27,12.65,65.26,10.23,15.82,29.13,28.17,48.63,23.36a48.45,48.45,0,0,0,8-7.67,18.79,18.79,0,0,1,4.27,10.17l81.71-80.37C239,159.19,220.91,142.35,176,139Z"/><path class="cls-3" d="M198,206.65c-3.68-2-10.69-4.84-14.2-6.36-3.05,8.83-3.39,18.77-9.19,26.54,1.9,5.17,6,13.32,6.61,18.12l18.44-13.77C207.47,225.31,206.64,211.23,198,206.65Z"/><path class="cls-4" d="M173.49,232.46a71.83,71.83,0,0,1,4.06,15.2l6.54-4.88a47.34,47.34,0,0,1-7.31-16.36A26.49,26.49,0,0,1,173.49,232.46Z"/><path class="cls-5" d="M194.26,211.35c-3.69-1.94-7.39-3.72-10.9-5.24-3.31,6.16-4,13.65-6.58,20.31a47.34,47.34,0,0,0,7.31,16.36L196,233.9A13.38,13.38,0,0,0,194.26,211.35Z"/><path class="cls-1" d="M529.09,226.78c11.75-19,19.42-43.7,12.64-65.26,10.19,6.54,16.62,12.9,16.8,16.6a12.92,12.92,0,0,1,0,1.65c.09,12.34,1.41,31.6-17.49,53.59-19.3,22.45-37.09,26.8-43.83,24.93a48.51,48.51,0,0,1-16.72-8.15C500,255,518.85,242.6,529.09,226.78Z"/><path class="cls-2" d="M462.59,139c28.84-2.18,60.38,10.5,79.14,22.56,6.78,21.56-.89,46.27-12.64,65.26C518.85,242.6,500,255,480.46,250.14a48.45,48.45,0,0,1-8-7.67,18.71,18.71,0,0,0-4.27,10.17l-81.72-80.37C399.57,159.19,417.69,142.35,462.59,139Z"/><path class="cls-3" d="M440.66,206.65c3.68-2,10.69-4.84,14.2-6.36,3,8.83,3.39,18.77,9.18,26.54-1.89,5.17-6,13.32-6.6,18.12L439,231.18C431.13,225.31,432,211.23,440.66,206.65Z"/><path class="cls-4" d="M465.11,232.46a72.44,72.44,0,0,0-4.06,15.2l-6.53-4.88a47.53,47.53,0,0,0,7.31-16.36A26.07,26.07,0,0,0,465.11,232.46Z"/><path class="cls-5" d="M444.35,211.35c3.68-1.94,7.39-3.72,10.9-5.24,3.3,6.16,3.94,13.65,6.58,20.31a47.53,47.53,0,0,1-7.31,16.36l-11.91-8.88A13.38,13.38,0,0,1,444.35,211.35Z"/><path class="cls-6" d="M97.72,205.57c2.49,3.28,1.3-9.48,3.89-11.45s1.29-14.51-1.19-17.79-7.41,1.34-7.81,5.92S95.24,202.29,97.72,205.57Z"/><path class="cls-6" d="M542.28,205.57c-2.49,3.28-1.3-9.48-3.89-11.45s-1.29-14.51,1.19-17.79,7.41,1.34,7.81,5.92S544.76,202.29,542.28,205.57Z"/></g><g id="ART-strokes"><path class="cls-7" d="M439.38,230.68c5.63,4.76,11.51,9.2,17.47,13.55.74.55,1.5,1.05,2.25,1.67a16,16,0,0,0,2.07,1.56c.12.07.31.08.09,0a.58.58,0,0,0-.39.19c-.07.09-.06.07-.06.05l0-1.21.09-2.79c.08-1.86.19-3.75.44-5.66a20.94,20.94,0,0,1,1.5-5.89v0a2,2,0,1,1,3.69,1.6,1.68,1.68,0,0,1-.21.37,15.53,15.53,0,0,0-1.95,4.56,43.3,43.3,0,0,0-1.08,5.28L463,246.7l-.08.69,0,.34a4.13,4.13,0,0,1-.1.51,2.1,2.1,0,0,1-.34.67,1.36,1.36,0,0,1-1,.51,1.89,1.89,0,0,1-1.2-.37,19.85,19.85,0,0,1-2.18-2c-.62-.61-1.35-1.18-2.05-1.78-5.66-4.71-11.4-9.34-17.38-13.64a.62.62,0,0,1-.15-.87.63.63,0,0,1,.87-.15Z"/><path class="cls-7" d="M200.57,230.47c-6,4.3-11.72,8.92-17.38,13.64-.7.6-1.43,1.17-2.05,1.78a20.81,20.81,0,0,1-2.18,2,2,2,0,0,1-1.21.37,1.43,1.43,0,0,1-1-.51,1.71,1.71,0,0,1-.34-.68,3.68,3.68,0,0,1-.1-.5l0-.35-.08-.68-.38-2.72a44.85,44.85,0,0,0-1.07-5.28,15.69,15.69,0,0,0-2-4.56,2,2,0,1,1,3.27-2.34,2.6,2.6,0,0,1,.21.36v0a21.28,21.28,0,0,1,1.5,5.89c.25,1.91.36,3.79.44,5.66l.09,2.79,0,1.21s0,0-.06-.05a.58.58,0,0,0-.39-.19c-.23,0,0,0,.09-.05a16,16,0,0,0,2.07-1.56c.75-.62,1.51-1.13,2.25-1.67,6-4.35,11.83-8.79,17.46-13.55a.63.63,0,0,1,.89.08.62.62,0,0,1-.08.88Z"/><path class="cls-7" d="M221.91,146.18c-18.21-9.09-39-12.14-59.2-11a148.93,148.93,0,0,0-74.42,28.48,53.65,53.65,0,0,0-7.69,7.09c-1.49,1.77-3.38,4.3-3.59,7.16a13.22,13.22,0,0,0,.06,2.27,36.58,36.58,0,0,1,6.08-.38,4.88,4.88,0,0,1,.1-1.9c1.71-3.6,5.59-6.59,8.9-9.2,20.63-14.74,45.74-24.19,71-26a90.85,90.85,0,0,1,18.93.91c19,2.46,37.71,7,53.94,17.44a192.16,192.16,0,0,1,15.76,11.5l.57-.57C244.34,161.35,234,152.13,221.91,146.18Z"/><path class="cls-7" d="M192.8,181.93c-2.64,3.34-4.09,7.46-5.38,11.53s-2.32,8.3-3.4,12.5c-2.16,8.39-4.46,16.88-8.16,25a67.59,67.59,0,0,1-6.76,11.6,49.16,49.16,0,0,1-21.29,16.75c-1.06.44-2.13.85-3.22,1.22-.53.2-1.08.35-1.63.53-.28.09-.51.18-.84.26a10.52,10.52,0,0,1-1.05.24,21.92,21.92,0,0,1-7.57-.15,45.88,45.88,0,0,1-13.14-4.67A73.22,73.22,0,0,1,109,249.3a99.78,99.78,0,0,1-10-9c-1.57-1.6-3.07-3.25-4.56-4.93s-2.94-3.42-4.3-5.24c-.71-.89-1.35-1.84-2-2.76s-1.26-1.9-1.85-2.88c-1.2-1.94-2.28-4-3.31-6a63.13,63.13,0,0,1-4.57-13,66.8,66.8,0,0,1-1.67-13.58c-.08-2.25,0-4.5.08-6.7s.24-4.38.39-6.5h5.92c.15,2.22.19,4.38.28,6.51s.24,4.22.4,6.29a72.37,72.37,0,0,0,2.11,12.1,69.33,69.33,0,0,0,10.51,22c1.15,1.71,2.44,3.34,3.72,5s2.72,3.2,4.14,4.74a92.05,92.05,0,0,0,9.08,8.6,67.37,67.37,0,0,0,10.18,7,39.65,39.65,0,0,0,11.15,4.31,16,16,0,0,0,5.35.29c.21,0,.36-.08.54-.11s.48-.13.72-.19c.49-.14,1-.26,1.48-.41,1-.29,2-.61,2.91-1a44.82,44.82,0,0,0,10.78-5.68c6.68-4.74,11.9-11.46,15.8-18.94s6.75-15.65,9.4-23.88c1.33-4.12,2.63-8.27,4.18-12.36a58.71,58.71,0,0,1,2.68-6,24.69,24.69,0,0,1,3.72-5.47Z"/><path class="cls-7" d="M416.69,146.18c18.21-9.09,39-12.14,59.21-11a148.93,148.93,0,0,1,74.42,28.48,53.58,53.58,0,0,1,7.68,7.09c1.49,1.77,3.39,4.3,3.6,7.16a14.32,14.32,0,0,1-.07,2.27,36.45,36.45,0,0,0-6.08-.38,4.53,4.53,0,0,0-.1-1.9c-1.7-3.6-5.59-6.59-8.9-9.2-20.63-14.74-45.74-24.19-71.05-26a90.79,90.79,0,0,0-18.92.91c-19,2.46-37.72,7-53.94,17.44a192.16,192.16,0,0,0-15.76,11.5l-.57-.57C394.27,161.35,404.59,152.13,416.69,146.18Z"/><path class="cls-7" d="M446.41,181.41a24.69,24.69,0,0,1,3.72,5.47,58.64,58.64,0,0,1,2.67,6c1.55,4.09,2.85,8.24,4.19,12.36,2.65,8.23,5.43,16.41,9.4,23.88s9.12,14.2,15.79,18.94A45.07,45.07,0,0,0,493,253.76c1,.36,1.93.68,2.91,1,.49.15,1,.27,1.48.41.23.06.52.15.71.19s.34.09.54.11a16,16,0,0,0,5.35-.29,39.54,39.54,0,0,0,11.15-4.31,67,67,0,0,0,10.19-7,93.18,93.18,0,0,0,9.08-8.6c1.42-1.54,2.82-3.11,4.13-4.74s2.57-3.26,3.73-5a69.31,69.31,0,0,0,10.5-22,71.36,71.36,0,0,0,2.11-12.1c.17-2.07.29-4.16.4-6.29s.14-4.29.28-6.51h5.93c.14,2.12.29,4.29.39,6.5s.16,4.45.08,6.7a66.8,66.8,0,0,1-1.67,13.58,63.16,63.16,0,0,1-4.58,13c-1,2.05-2.1,4.08-3.3,6-.59,1-1.22,1.93-1.85,2.88s-1.31,1.87-2,2.76c-1.36,1.82-2.81,3.56-4.31,5.24s-3,3.33-4.55,4.93a100.89,100.89,0,0,1-10,9,73.22,73.22,0,0,1-11.41,7.42,45.88,45.88,0,0,1-13.14,4.67,21.94,21.94,0,0,1-7.57.15,10.52,10.52,0,0,1-1.05-.24c-.33-.08-.56-.17-.85-.26-.54-.18-1.09-.33-1.63-.53-1.08-.37-2.15-.78-3.21-1.22a49.27,49.27,0,0,1-21.3-16.75,66.89,66.89,0,0,1-6.75-11.6c-3.7-8.1-6-16.59-8.16-25-1.09-4.2-2.13-8.4-3.41-12.5s-2.74-8.19-5.37-11.53Z"/></g></svg>