<svg xmlns="http://www.w3.org/2000/svg" viewBox="0 0 640 320"><defs><style>.cls-1{fill:#00007f;}.cls-2{fill:blue;}.cls-3{fill:aqua;}.cls-4{fill:#0d0a09;}</style></defs><g id="ART-fills"><path class="cls-1" d="M367.49,194c5.23,1.2,10.08,1.94,14.87,2.95a115.75,115.75,0,0,1,14,3.67,69.68,69.68,0,0,1,13.33,6.11A114.91,114.91,0,0,1,422.55,216l.51.41a7.4,7.4,0,1,1-11.94,6.6,20,20,0,0,0-5.36-11.25,25.82,25.82,0,0,0-10.82-6.88,32.13,32.13,0,0,0-13-1.51,29.09,29.09,0,0,0-12.64,3.95,7.32,7.32,0,1,1-2.21-13.39Z"/><path class="cls-1" d="M398,213.48c-2.14-17.15-.51-36.6,9-67.85,6.93-22.79,20.93-43.56,41.09-56.67a84.27,84.27,0,0,1,13.35-7,108,108,0,0,0-39.65,20.92C390.23,128.85,379.38,176.39,398,213.48Z"/><path class="cls-2" d="M576.81,100c-1.24-1.17-2.37-2.17-3.58-3.19-18.13-15.14-39.12-26.71-62.41-32a99.45,99.45,0,0,0-75.41,12.65c-43.81,27.33-62.34,86.36-65.35,135.46l31.55,18.83A141.75,141.75,0,0,1,398,213.48c-18.62-37.09-7.77-84.63,23.8-110.63a108,108,0,0,1,39.65-20.92c34.33-14.31,72.78-2.82,103.34,18.32,2.41,1.67,4.89,3.51,7.11,5.33a3.73,3.73,0,0,0,4.91-5.61Z"/><path class="cls-3" d="M576.73,103.26a156.81,156.81,0,0,0-20.82-16,139.11,139.11,0,0,0-23.28-12.13,136.28,136.28,0,0,0-25.14-7.56,111.87,111.87,0,0,0-13-1.78,82.24,82.24,0,0,0-13-.1h-.11a70.15,70.15,0,0,0-11.55,1.45,92.29,92.29,0,0,0-11.29,3.06,89.14,89.14,0,0,0-21,10.24c-1.64,1-3.2,2.22-4.77,3.37s-3.08,2.38-4.52,3.69a92.87,92.87,0,0,0-8.33,8.15,105.59,105.59,0,0,0-13.45,19l0,0-.08.13a152.1,152.1,0,0,0-11.23,20.55,198.37,198.37,0,0,0-8.53,21.87q-1.8,5.58-3.24,11.26c-.93,3.79-1.76,7.59-2.45,11.42A158.33,158.33,0,0,0,378.44,203v0a4,4,0,0,1-8-.26c0-.08,0-.18,0-.26a187.67,187.67,0,0,1,3.9-24,205.66,205.66,0,0,1,6.94-23.16,202.11,202.11,0,0,1,9.59-22.09c1.82-3.58,3.73-7.11,5.76-10.57s4.11-6.86,6.49-10.23l-.11.17a108.79,108.79,0,0,1,14.42-19.3,95.14,95.14,0,0,1,8.82-8.22c1.53-1.31,3.17-2.48,4.77-3.69s3.29-2.31,5-3.35a97.34,97.34,0,0,1,21.71-10.2,93.48,93.48,0,0,1,11.62-3,72.38,72.38,0,0,1,12-1.34h-.11a84.35,84.35,0,0,1,13.41.26c4.44.41,8.84,1.07,13.2,1.91a139,139,0,0,1,25.49,7.65c4.1,1.7,8.16,3.51,12.09,5.58,2,1,3.91,2.1,5.87,3.15s3.85,2.21,5.71,3.42a176.19,176.19,0,0,1,21.39,15.87,1.25,1.25,0,0,1-1.64,1.9Z"/><path class="cls-1" d="M279,207.28a29.09,29.09,0,0,0-12.64-3.95,32.13,32.13,0,0,0-13,1.51,25.82,25.82,0,0,0-10.82,6.88A20,20,0,0,0,237.15,223a7.4,7.4,0,1,1-12-6.59l.53-.42a114,114,0,0,1,12.85-9.24,69.68,69.68,0,0,1,13.33-6.11,115.75,115.75,0,0,1,14-3.67c4.79-1,9.64-1.75,14.86-2.95l.39-.09A7.33,7.33,0,1,1,279,207.28Z"/><path class="cls-1" d="M250.27,213.48c2.13-17.15.51-36.6-9-67.85-6.93-22.79-20.93-43.56-41.09-56.67a84.27,84.27,0,0,0-13.35-7,107.87,107.87,0,0,1,39.64,20.92C258,128.85,268.89,176.39,250.27,213.48Z"/><path class="cls-2" d="M71.46,100C72.7,98.8,73.83,97.8,75,96.78c18.13-15.14,39.12-26.71,62.4-32a99.47,99.47,0,0,1,75.42,12.65c43.81,27.33,62.34,86.36,65.35,135.46l-31.55,18.83a141.75,141.75,0,0,0,3.61-18.24c18.62-37.09,7.76-84.63-23.81-110.63a107.87,107.87,0,0,0-39.64-20.92C152.49,67.62,114,79.11,83.47,100.25c-2.4,1.67-4.88,3.51-7.1,5.33A3.73,3.73,0,0,1,71.46,100Z"/><path class="cls-3" d="M69.87,101.39A176.86,176.86,0,0,1,91.25,85.52c1.86-1.21,3.82-2.28,5.72-3.42s3.88-2.17,5.87-3.15c3.92-2.07,8-3.88,12.09-5.58a138.79,138.79,0,0,1,25.49-7.65c4.36-.84,8.76-1.5,13.2-1.91A84.35,84.35,0,0,1,167,63.55h-.12a72.14,72.14,0,0,1,12,1.34,93.17,93.17,0,0,1,11.63,3,97.34,97.34,0,0,1,21.71,10.2c1.71,1,3.35,2.21,5,3.35s3.24,2.38,4.76,3.69a95.25,95.25,0,0,1,8.83,8.22,108.79,108.79,0,0,1,14.42,19.3l-.11-.17c2.38,3.37,4.44,6.75,6.49,10.23s3.94,7,5.76,10.57A202.11,202.11,0,0,1,267,155.37a205.62,205.62,0,0,1,6.93,23.16,187.69,187.69,0,0,1,3.91,24,4,4,0,1,1-8,.78,1.94,1.94,0,0,1,0-.24v0a158.33,158.33,0,0,0-2.49-23.13c-.69-3.83-1.52-7.63-2.45-11.42s-2-7.54-3.24-11.26a196.46,196.46,0,0,0-8.54-21.87,152,152,0,0,0-11.22-20.55l-.08-.13,0,0a104.6,104.6,0,0,0-13.45-19A91.45,91.45,0,0,0,220,87.5c-1.44-1.31-3-2.48-4.52-3.69s-3.13-2.32-4.77-3.37a89.14,89.14,0,0,0-21-10.24,92,92,0,0,0-11.3-3.06,70,70,0,0,0-11.54-1.45h-.11a82.24,82.24,0,0,0-13,.1,111.58,111.58,0,0,0-13,1.78,136.28,136.28,0,0,0-25.14,7.56A139.6,139.6,0,0,0,92.35,87.26a158.12,158.12,0,0,0-20.82,16,1.25,1.25,0,1,1-1.69-1.85Z"/></g><g id="ART-strokes"><path class="cls-4" d="M366.57,212.68c2.15-25.41,7.59-50.6,17.65-74.06A160.59,160.59,0,0,1,403,105.41a116,116,0,0,1,27.33-26.65,101.24,101.24,0,0,1,72.9-16.71,134.38,134.38,0,0,1,36.22,11.47,161.75,161.75,0,0,1,32,20.35c1.22,1,2.48,2,3.67,3,.6.52,1.2,1,1.78,1.59l.44.4.22.21.27.28a4.81,4.81,0,0,1,.85,1.29,4.92,4.92,0,0,1-7,6.24,4.89,4.89,0,0,1-.62-.44l-.46-.37-.91-.72L567.89,104c-1.24-.93-2.51-1.84-3.79-2.73-2.59-1.75-5.19-3.47-7.87-5.08A138.27,138.27,0,0,0,522.14,81a112.92,112.92,0,0,0-18.29-3.52,92.74,92.74,0,0,0-18.55,0,80,80,0,0,0-34.68,12A91.72,91.72,0,0,0,424.19,115a109.12,109.12,0,0,0-15.43,33.46c-3.43,12.05-6.86,24.17-8.66,36.32a73.27,73.27,0,0,0-.6,18.09,111.19,111.19,0,0,0,3.71,17.91,3.5,3.5,0,0,1-6.75,1.87l0-.11a116.47,116.47,0,0,1-3.28-19.14,81.57,81.57,0,0,1,1.12-19.53c2.22-12.71,6-24.79,9.73-36.85a116.75,116.75,0,0,1,16.83-34.41,97.65,97.65,0,0,1,28-26.1,83.57,83.57,0,0,1,17.43-8.07A87.5,87.5,0,0,1,485,74.51a95.63,95.63,0,0,1,19.14.22,114.22,114.22,0,0,1,18.71,3.77,145.14,145.14,0,0,1,34.65,15.57c2.71,1.64,5.35,3.4,8,5.18q1.95,1.36,3.86,2.8l1.89,1.45.93.75.46.38a2.92,2.92,0,0,0,.34.23,2.53,2.53,0,0,0,3.18-3.88l-.14-.15-.21-.2-.42-.4c-.57-.52-1.15-1-1.74-1.55-1.16-1-2.38-2-3.59-3a157.49,157.49,0,0,0-31.6-20,130.64,130.64,0,0,0-35.55-11.13C478.31,61,452.39,67,432.27,81.49a111.17,111.17,0,0,0-26.07,26.23,155.43,155.43,0,0,0-17.65,32.7,211.27,211.27,0,0,0-10.5,35.73q-1.86,9.14-3,18.4t-1.5,18.56h0a3.5,3.5,0,0,1-7-.29A.71.71,0,0,1,366.57,212.68Z"/><path class="cls-4" d="M274.71,213.11q-.39-9.47-1.53-18.89t-3.08-18.71a208.81,208.81,0,0,0-10.87-36.3,153.68,153.68,0,0,0-18.31-33.05,109.73,109.73,0,0,0-27.07-26.11C193,65.75,166.37,60.59,141.54,65.22a135.47,135.47,0,0,0-35.81,12.5A160,160,0,0,0,74.24,99c-.6.52-1.18,1-1.76,1.59l-.21.21-.14.15a1.54,1.54,0,0,0-.25.32,2.29,2.29,0,0,0-.33.75,2.55,2.55,0,0,0,1.16,2.82,2.6,2.6,0,0,0,1.57.34,2.65,2.65,0,0,0,.78-.21l.36-.2.38-.3c1.25-1,2.53-2,3.83-3A161.88,161.88,0,0,1,95.9,91.05a137.55,137.55,0,0,1,35.94-14.21,95.92,95.92,0,0,1,38.7-1.32A84.41,84.41,0,0,1,206.14,91a101.61,101.61,0,0,1,26.12,28.87,113.44,113.44,0,0,1,8.65,17.55c1.2,3,2.29,6.15,3.24,9.23s1.85,6.19,2.7,9.31c3.34,12.48,5.86,25.39,5.72,38.64a86.07,86.07,0,0,1-2.49,19.73A101.8,101.8,0,0,1,243.33,233,3.5,3.5,0,0,1,237,230a.41.41,0,0,0,.05-.09,95,95,0,0,0,6.81-17.23,76.11,76.11,0,0,0,2.74-18.23c.41-12.41-1.72-24.94-4.72-37.22-.78-3.07-1.58-6.14-2.46-9.19s-1.8-6-2.87-9a107.27,107.27,0,0,0-8-17A95.56,95.56,0,0,0,204,93.85,80.89,80.89,0,0,0,170,78.5a93.42,93.42,0,0,0-37.56,1A131,131,0,0,0,97.1,93.2a161.43,161.43,0,0,0-16,10.26c-1.28.94-2.53,1.9-3.76,2.9-.13.11-.35.28-.57.43a4.64,4.64,0,0,1-.69.38,5.06,5.06,0,0,1-1.52.42,4.93,4.93,0,0,1-5.27-6.14A4.54,4.54,0,0,1,69.9,100a3.55,3.55,0,0,1,.48-.62l.27-.29.22-.2c.6-.55,1.2-1.1,1.81-1.63a166.82,166.82,0,0,1,31.95-21.69,137.47,137.47,0,0,1,36.44-12.84,101.88,101.88,0,0,1,38.68,0A99.34,99.34,0,0,1,215.66,77.3,114.07,114.07,0,0,1,244,103.82a157.83,157.83,0,0,1,19.51,33.58c10.41,23.79,16,49.43,18.18,75.28a3.5,3.5,0,1,1-7,.59v-.16Z"/></g></svg>