<svg xmlns="http://www.w3.org/2000/svg" viewBox="0 0 640 160"><defs><style>.cls-1{fill:#5b2e42;}.cls-2{fill:#7f4a60;}.cls-3{fill:aqua;}.cls-4{fill:#00007f;}.cls-5{fill:#0d0a09;}</style></defs><g id="ART-fills"><path class="cls-1" d="M287,61.07c40.46,1.52,84.42-2.78,123.42,9.34a59.61,59.61,0,0,0,10.14-6.9c10.9-9.27,24.2-22.27,24.2-38.11H195.25c0,15.84,13.29,28.84,24.19,38.11a61,61,0,0,0,13.1,8.42C249.45,63.5,268.92,60.24,287,61.07Z"/><path class="cls-2" d="M287,61.07c-18.11-.83-37.58,2.43-54.49,10.86A86,86,0,0,0,269.25,80c6.89,0,16.5-2.81,25.52-6.17a74,74,0,0,1,50.49,0c9,3.36,18.64,6.17,25.52,6.17,13.06,0,27.51-3,39.67-9.59C371.45,58.29,327.49,62.59,287,61.07Z"/><path class="cls-3" d="M270.37,82.85a82.09,82.09,0,0,1,24.72-10A110.83,110.83,0,0,1,321.77,70a117.46,117.46,0,0,1,26.57,3.41,104.51,104.51,0,0,1,24.87,9.48c-8.8-1.31-17.34-2.73-25.91-3.71a248,248,0,0,0-25.62-1.72,212.74,212.74,0,0,0-25.6,1.15A237.92,237.92,0,0,0,270.37,82.85Z"/><path class="cls-4" d="M342.9,87.87A36.64,36.64,0,0,0,332,81.46,37,37,0,0,0,319.66,79a29.54,29.54,0,0,0-12.26,2.31,24.66,24.66,0,0,0-9.69,7.37,3.8,3.8,0,1,1-4.64-5.76l.08,0A67.46,67.46,0,0,1,306.31,78a52.07,52.07,0,0,1,13.4-1.44A74.49,74.49,0,0,1,333,78.08c4.42.87,8.76,2.06,13.3,3.25h.05a3.79,3.79,0,1,1-1.91,7.34A3.86,3.86,0,0,1,342.9,87.87Z"/><path class="cls-3" d="M305.28,86.33c0,2.53,9.32,4.58,17.1,4.58s11.06-2,11.06-4.58-6.31-4.58-14.08-4.58S305.28,83.8,305.28,86.33Z"/></g><g id="ART-strokes"><path class="cls-5" d="M195.57,28.27a30.8,30.8,0,0,0,2.34,9,37.1,37.1,0,0,0,4.53,8A74.38,74.38,0,0,0,215.17,58.5c2.36,2,4.81,4,7.26,5.8A54.71,54.71,0,0,0,230,69a81.64,81.64,0,0,0,8.18,3.62,78,78,0,0,0,8.6,2.58,80.44,80.44,0,0,0,8.85,1.6c1.49.21,3,.34,4.47.51s3,.23,4.48.25,3,0,4.48,0a30.16,30.16,0,0,0,4-.39,66.4,66.4,0,0,0,8.52-2c2.87-.89,5.78-1.81,8.66-2.87l2.16-.8,2.38-.85c.81-.3,1.63-.57,2.45-.8s1.64-.51,2.47-.72a82.7,82.7,0,0,1,10.07-2A87.29,87.29,0,0,1,320,66.42a89.5,89.5,0,0,1,10.21.71,84.25,84.25,0,0,1,10.07,2c.83.21,1.64.48,2.47.72s1.64.51,2.45.8l2.38.86,2.16.8c2.89,1,5.79,2,8.66,2.87a64.77,64.77,0,0,0,8.52,2,30.16,30.16,0,0,0,4,.39c1.49,0,3,0,4.48-.05s3-.16,4.48-.25,3-.3,4.47-.51a78.12,78.12,0,0,0,8.85-1.59,80.39,80.39,0,0,0,8.61-2.58A86.47,86.47,0,0,0,410,69a55.75,55.75,0,0,0,7.58-4.71c2.45-1.8,4.9-3.83,7.26-5.8A74.38,74.38,0,0,0,437.6,45.23a37.17,37.17,0,0,0,4.53-8,31.1,31.1,0,0,0,2.33-9h.65a35,35,0,0,1-5.62,18.12A74.29,74.29,0,0,1,427.23,61c-2.32,2.18-4.68,4.31-7.14,6.33a59,59,0,0,1-7.86,5.47A74.14,74.14,0,0,1,403.66,77a82.68,82.68,0,0,1-9.06,3.1,84.46,84.46,0,0,1-9.34,2c-1.57.29-3.15.45-4.73.67s-3.18.32-4.77.39-3.19.12-4.78.16a36.82,36.82,0,0,1-4.82-.33,72.73,72.73,0,0,1-9.38-2c-3.07-.85-6.1-1.82-9.1-2.88s-5.94-2.14-9-2.94a76.62,76.62,0,0,0-9.25-1.78,78,78,0,0,0-18.82,0,76.41,76.41,0,0,0-9.26,1.78c-3.05.8-6,1.84-9,2.94s-6,2-9.11,2.88a71.09,71.09,0,0,1-9.38,2,36.78,36.78,0,0,1-4.81.33c-1.6,0-3.19,0-4.79-.16s-3.18-.25-4.76-.39-3.17-.38-4.74-.67a85,85,0,0,1-9.34-2,82.51,82.51,0,0,1-9.05-3.1,74.28,74.28,0,0,1-8.58-4.24,59,59,0,0,1-7.86-5.47c-2.46-2-4.82-4.15-7.14-6.33a74.64,74.64,0,0,1-12.26-14.61,35,35,0,0,1-5.62-18.12Z"/></g></svg>