<svg id="ART-fills" xmlns="http://www.w3.org/2000/svg" viewBox="0 0 640 160"><defs><style>.cls-1{fill:#00007f;}.cls-2{fill:#0d0a09;}</style></defs><path class="cls-1" d="M250.5,103.74a86.72,86.72,0,0,0-7.24-8.66,100.32,100.32,0,0,0-8.15-7.83,98.21,98.21,0,0,0-18.45-12.53,93.29,93.29,0,0,0-10.11-4.43,95.37,95.37,0,0,0-10.55-3,79.32,79.32,0,0,0-10.84-1.58c-1.81-.21-3.65-.23-5.48-.3-.91-.06-1.83,0-2.74,0l-2.76,0H174a4.61,4.61,0,0,1-.23-9.22,81.53,81.53,0,0,1,35.93,6.09,95.36,95.36,0,0,1,10.87,5.49A92.35,92.35,0,0,1,239.34,82.8a85.69,85.69,0,0,1,14.1,19.25,1.69,1.69,0,0,1-2.87,1.78Z"/><path class="cls-1" d="M386.56,102.05a86,86,0,0,1,14.1-19.25,92.35,92.35,0,0,1,18.78-15.06,95.36,95.36,0,0,1,10.87-5.49,85.54,85.54,0,0,1,11.63-3.83,82,82,0,0,1,24.3-2.26,4.61,4.61,0,0,1-.22,9.22h-.2l-2.76,0c-.91,0-1.83,0-2.74,0-1.83.07-3.67.09-5.48.3A79.32,79.32,0,0,0,444,67.25a95.37,95.37,0,0,0-10.55,3,93.29,93.29,0,0,0-10.11,4.43,98.21,98.21,0,0,0-18.45,12.53,100.32,100.32,0,0,0-8.15,7.83,86.72,86.72,0,0,0-7.24,8.66l-.07.09a1.69,1.69,0,0,1-2.87-1.78Z"/><path class="cls-2" d="M185.38,50.19a41.88,41.88,0,0,1,5.05.14c1.65.12,3.28.34,4.92.59a74.27,74.27,0,0,1,35.83,16.47,68,68,0,0,1,7.14,7.06,57.34,57.34,0,0,1,10.34,17A2.58,2.58,0,0,1,244.27,94l0,0A123.85,123.85,0,0,0,231.9,80.68c-2.19-2-4.49-3.89-6.83-5.7s-4.81-3.47-7.32-5.06a121.31,121.31,0,0,0-15.85-8.35c-2.76-1.2-5.57-2.36-8.43-3.39s-5.81-2-8.6-2.92l-.18,0a2.57,2.57,0,0,1,.69-5Z"/><path class="cls-2" d="M455.13,55.26c-2.79.89-5.78,1.84-8.6,2.92s-5.67,2.19-8.43,3.39a121.31,121.31,0,0,0-15.85,8.35q-3.76,2.39-7.32,5.06c-2.34,1.81-4.64,3.68-6.83,5.7a123.85,123.85,0,0,0-12.33,13.25l0,0a2.58,2.58,0,0,1-4.39-2.57,57.34,57.34,0,0,1,10.34-17,68,68,0,0,1,7.14-7.06,74.77,74.77,0,0,1,35.83-16.47c1.64-.25,3.27-.47,4.92-.59a41.88,41.88,0,0,1,5.05-.14,2.57,2.57,0,0,1,2.48,2.66,2.6,2.6,0,0,1-1.79,2.36Z"/></svg>