<svg xmlns="http://www.w3.org/2000/svg" viewBox="0 0 640 320"><defs><style>.cls-1{fill:#c1ab8e;}.cls-2{fill:#fff6e9;}.cls-3{fill:#0d0a09;}.cls-4{fill:#fcfcfc;}</style></defs><g id="ART-fills"><path class="cls-1" d="M414.74,62.54c-6.28-6.47-15.79-9-25.31-10.69-47-8-90-3-136,2-8.61,1-18.13,2.84-25.07,10,10.91-5.16,49.27-9,94.93-9C365,54.88,400.55,58.06,414.74,62.54Z"/><path class="cls-2" d="M320,42.13c-69.51,0-125.86,12.54-125.86,28v.07c9.87,6,19.68,11.09,31.29,12.64,60,9,118,11,178,3A224.87,224.87,0,0,0,443,76.11a8.68,8.68,0,0,0,2.87-6C445.86,54.67,389.51,42.13,320,42.13Zm3.29,36.7c-54.15,0-98-5.36-98-12,0-1,1.08-2,3.11-3,6.94-7.17,16.46-9,25.07-10,46-5,89-10,136-2,9.52,1.73,19,4.22,25.31,10.69,4.24,1.34,6.58,2.79,6.58,4.32C421.32,73.47,377.43,78.83,323.29,78.83Z"/><path class="cls-1" d="M403.43,85.85c-60,8-118,6-178-3C213.82,81.3,204,76.16,194.14,70.21c.16,15.44,56.45,28,125.86,28,60.31,0,110.7-9.44,123-22A224.87,224.87,0,0,1,403.43,85.85Z"/></g><g id="ART-strokes"><path class="cls-3" d="M320,44.63c-11.07,0-22.14.27-33.2.8s-22.1,1.33-33.09,2.67A246.22,246.22,0,0,0,221.1,54a88.79,88.79,0,0,0-15.56,5.44,33.38,33.38,0,0,0-6.92,4.25A13.56,13.56,0,0,0,196,66.59a6.62,6.62,0,0,0-1.15,3.55c0,2.54,1.73,4.82,3.73,6.56a33.43,33.43,0,0,0,6.88,4.4,67.05,67.05,0,0,0,7.63,3.18c2.6.92,5.24,1.76,7.92,2.47s5.37,1.36,8.07,2,5.44,1.06,8.17,1.51q8.21,1.38,16.46,2.28c5.5.62,11,1.08,16.55,1.5q4.14.33,8.28.59l8.29.53q16.57.94,33.21,1.26c11.08.23,22.18.22,33.28-.2q8.31-.32,16.63-.91c5.54-.39,11.06-1,16.57-1.68s11-1.61,16.45-2.65,10.85-2.35,16.18-3.89a89.93,89.93,0,0,0,15.51-5.85,33.61,33.61,0,0,0,6.87-4.46,13.51,13.51,0,0,0,2.61-3,6.7,6.7,0,0,0,1.08-3.59c-.05-2.53-1.83-4.73-3.85-6.4a33.22,33.22,0,0,0-6.92-4.21,94.34,94.34,0,0,0-15.54-5.42,247.36,247.36,0,0,0-32.59-5.93A562.23,562.23,0,0,0,320,44.63Zm0-5c11.17.07,22.34.36,33.48,1.18q8.36.6,16.69,1.49c5.55.64,11.09,1.37,16.61,2.24a247.53,247.53,0,0,1,32.78,7.15,96.87,96.87,0,0,1,15.71,6.1,35.74,35.74,0,0,1,7.13,4.7,14.81,14.81,0,0,1,2.86,3.33,7.56,7.56,0,0,1-.11,8.58,14.39,14.39,0,0,1-2.91,3.21,34.55,34.55,0,0,1-7.19,4.45,100.91,100.91,0,0,1-15.74,5.67c-5.37,1.5-10.81,2.71-16.28,3.75s-10.95,2-16.45,2.79-11,1.52-16.56,2.19S359,97.69,353.4,98.16c-11.11.93-22.25,1.55-33.4,1.79-22.3.37-44.7-.79-66.73-4.58A276.22,276.22,0,0,1,220.61,88a103.57,103.57,0,0,1-15.71-5.88,34.91,34.91,0,0,1-7.17-4.5,14.48,14.48,0,0,1-2.9-3.23,8,8,0,0,1-1.36-4.27,8.32,8.32,0,0,1,1.31-4.29,14.69,14.69,0,0,1,2.87-3.3,35.07,35.07,0,0,1,7.13-4.65,101.93,101.93,0,0,1,15.7-6.09,248.51,248.51,0,0,1,32.75-7.2A430.19,430.19,0,0,1,320,39.63Z"/><path class="cls-3" d="M323.29,81.33c-16.76,0-33.52-.75-50.21-2.41-8.34-.84-16.67-1.83-24.95-3.23-4.14-.71-8.26-1.54-12.36-2.56a51.9,51.9,0,0,1-6.07-1.9,18.06,18.06,0,0,1-2.93-1.44,6.78,6.78,0,0,1-1.36-1.09,2.77,2.77,0,0,1-.82-1.84,2.74,2.74,0,0,1,.84-1.83A6.78,6.78,0,0,1,226.8,64a18.21,18.21,0,0,1,2.95-1.36,50.8,50.8,0,0,1,6.09-1.75c4.09-1,8.22-1.68,12.36-2.36,8.27-1.3,16.57-2.46,24.9-3.39a361.19,361.19,0,0,1,50.19-2c16.74.47,33.44,1.71,50.1,3.13,4.16.33,8.33.7,12.48,1.14s8.32.86,12.46,1.43,8.28,1.25,12.38,2.15a51.22,51.22,0,0,1,6.1,1.7A17.65,17.65,0,0,1,419.76,64,6.41,6.41,0,0,1,421.13,65a2.47,2.47,0,0,1,.05,3.7,6.92,6.92,0,0,1-1.35,1.11,17.87,17.87,0,0,1-2.94,1.46,52.9,52.9,0,0,1-6.07,2c-4.09,1.06-8.22,1.86-12.36,2.56-8.29,1.39-16.62,2.37-25,3.18C356.8,80.65,340,81.24,323.29,81.33Zm0-5q25,.11,49.94-1c8.31-.42,16.62-1,24.87-2,4.12-.5,8.23-1.1,12.27-2a46.77,46.77,0,0,0,5.94-1.6,16,16,0,0,0,2.73-1.2c.82-.46,1.58-1.14,1.6-1.7s-.73-1.32-1.54-1.81a16.13,16.13,0,0,0-2.7-1.33,51.89,51.89,0,0,0-5.91-1.84,124,124,0,0,0-12.26-2.38c-4.12-.62-8.27-1.13-12.41-1.58s-8.32-.74-12.48-1q-12.51-.72-25-.65c-8.35,0-16.69.18-25,.42l-50,1.34c-8.33.3-16.67.7-24.93,1.78A119.87,119.87,0,0,0,236.11,62a51.23,51.23,0,0,0-5.92,1.79,16.54,16.54,0,0,0-2.71,1.3c-.82.49-1.57,1.22-1.56,1.8s.76,1.28,1.58,1.75a16.42,16.42,0,0,0,2.73,1.22,49.15,49.15,0,0,0,5.94,1.65c4,.9,8.16,1.47,12.28,2,8.26,1,16.57,1.55,24.89,1.93C290,76.11,306.63,76.32,323.29,76.33Z"/></g><g id="Kitchen_Sink" data-name="Kitchen Sink"><path class="cls-4" d="M437,70.91q-2.54,1.35-5.11,2.66c-1.71.89-3.48,1.62-5.23,2.45s-3.56,1.47-5.35,2.18l-2.7,1-2.74.93a145.69,145.69,0,0,1-22.47,5.63,89.08,89.08,0,0,1-11.51,1.08c-3.85.14-7.68.38-11.51.5-7.66.25-15.3.23-22.88.29a2.84,2.84,0,1,1-.05-5.68h.07c7.59.11,15.13.13,22.64-.22,3.75-.17,7.49-.39,11.2-.91s7.4-1.09,11.1-1.53a178.31,178.31,0,0,0,22-4l2.72-.67,2.69-.79c1.79-.52,3.6-1,5.36-1.65s3.58-1.12,5.33-1.8,3.51-1.33,5.28-2l.06,0A1.39,1.39,0,0,1,437,70.91Z"/><path class="cls-4" d="M203.36,67.77a17,17,0,0,1,3.79-4.09,32.79,32.79,0,0,1,4.56-3.07,70,70,0,0,1,9.95-4.43,150.49,150.49,0,0,1,20.89-5.61q5.3-1,10.67-1.64c3.57-.42,7.14-.84,10.71-1.21,7.15-.73,14.32-1.15,21.51-1.38a1.32,1.32,0,0,1,1.35,1.27A1.31,1.31,0,0,1,285.52,49h0c-7.11.13-14.23.62-21.31,1.35-3.54.36-7.07.8-10.58,1.38s-7,1.2-10.51,1.83a159.9,159.9,0,0,0-20.69,4.88,68.11,68.11,0,0,0-9.81,3.89,31,31,0,0,0-4.49,2.65,15.49,15.49,0,0,0-3.68,3.54h0a.64.64,0,0,1-1.06-.7Z"/></g></svg>