<svg id="ART-fills" xmlns="http://www.w3.org/2000/svg" viewBox="0 0 640 160"><defs><style>.cls-1{fill:#00007f;}.cls-2{fill:#0d0a09;}.cls-3{fill:#fcfcfc;}</style></defs><path class="cls-1" d="M248.77,90.89c3.46,4.61-.48,18.53-22.33,18.53-17.06,0-43.71-7.53-43.71-13.31s13.83-10.45,30.88-10.45S244.49,85.19,248.77,90.89Z"/><path class="cls-1" d="M392.23,90.89c-3.46,4.61.48,18.53,22.33,18.53,17.06,0,43.71-7.53,43.71-13.31s-13.83-10.45-30.88-10.45S396.51,85.19,392.23,90.89Z"/><circle class="cls-2" cx="422.9" cy="74.69" r="24.1"/><circle class="cls-2" cx="423.03" cy="74.69" r="12.75"/><circle class="cls-2" cx="218.1" cy="74.69" r="24.1"/><circle class="cls-2" cx="218.23" cy="74.69" r="12.75"/><circle class="cls-3" cx="434.24" cy="63.35" r="5.09"/><circle class="cls-3" cx="414.56" cy="83.03" r="8.34"/><circle class="cls-3" cx="229.57" cy="63.35" r="5.09"/><circle class="cls-3" cx="209.89" cy="83.03" r="8.34"/></svg>