<svg id="ART-fills" xmlns="http://www.w3.org/2000/svg" viewBox="0 0 640 160"><defs><style>.cls-1{fill:#00007f;}.cls-2{fill:#0d0a09;}</style></defs><path class="cls-1" d="M160.28,78c9.48-.26,19-.3,28.45-.31l28.43.11,28.42.34c9.47.17,18.95.29,28.46.75h0a2,2,0,0,1,.15,4.07c-9.48,1.17-19,1.91-28.53,2.32-4.76.27-9.53.31-14.29.46s-9.53.08-14.3.06-9.53-.16-14.29-.3-9.53-.35-14.28-.68c-9.52-.57-19-1.38-28.5-2.74a2.05,2.05,0,0,1,.23-4.08Z"/><path class="cls-1" d="M380.69,59.58a81.57,81.57,0,0,1,8.48-7.46,107.9,107.9,0,0,1,9.34-6.34,88,88,0,0,1,20.84-9.24c1.84-.56,3.73-1,5.61-1.42s3.8-.75,5.74-1a61.75,61.75,0,0,1,11.7-.46,62.73,62.73,0,0,1,22.82,5.42,4.61,4.61,0,0,1-3.49,8.54l-.21-.08a67.43,67.43,0,0,0-9.66-3.19l-1.22-.32-1.25-.25-2.49-.49c-1.69-.21-3.36-.51-5.06-.59s-3.4-.15-5.11-.21-3.42,0-5.14.22-3.42.35-5.14.56-3.41.57-5.11,1a95.15,95.15,0,0,0-19.93,6.91c-3.23,1.5-6.38,3.19-9.47,5a98,98,0,0,0-9,5.87l-.07.05a1.7,1.7,0,0,1-2.22-2.55Z"/><path class="cls-2" d="M157.81,75.07c9.49-1.57,19-2.48,28.5-3.13s19.06-1,28.6-1.09,19.08.09,28.61.63,19.06,1.33,28.53,2.7a2.57,2.57,0,0,1-.19,5.1h0c-9.51.66-19,.88-28.45,1.12s-18.94.37-28.4.45-18.93.1-28.41,0-19-.23-28.45-.69h0a2.56,2.56,0,0,1-.29-5.09Z"/><path class="cls-2" d="M377.06,59.41A55.39,55.39,0,0,1,382.34,53a77.83,77.83,0,0,1,6-5.68,79.52,79.52,0,0,1,13.61-9.39,75.31,75.31,0,0,1,31.94-9.28,76.6,76.6,0,0,1,16.72.79,82,82,0,0,1,16.05,4.17,100.43,100.43,0,0,1,28.31,15.9,2.56,2.56,0,0,1-2.78,4.28h0a152.94,152.94,0,0,0-28.27-11.68,86.73,86.73,0,0,0-29.41-3.47,79,79,0,0,0-28.53,7.26,91.16,91.16,0,0,0-13.07,7.38c-2.12,1.38-4.13,2.91-6.13,4.47-1,.78-2,1.59-2.93,2.42s-1.92,1.7-2.75,2.47l-.14.13a2.55,2.55,0,0,1-3.84-3.31Z"/></svg>