<svg xmlns="http://www.w3.org/2000/svg" viewBox="0 0 640 160"><defs><style>.cls-1{fill:#ddd6ce;}.cls-2{fill:#fff6e9;}.cls-3{fill:#fcfcfc;}.cls-4{fill:#0d0a09;}</style></defs><g id="ART-fills"><path class="cls-1" d="M280.67,9.72l4,51.79c12.34,4.14,25.08-2.72,36.63-3l.57-48.83Z"/><path class="cls-2" d="M284.7,61.51l1.05,7.68a12.18,12.18,0,0,0,10.77,12.48l14.08,1.64a9.62,9.62,0,0,0,10.73-9.55V58.55C309.78,58.79,297,65.65,284.7,61.51Z"/><path class="cls-2" d="M323.8,58.61h0l.05,14.21a12,12,0,0,0,8.56,13.66l3.8,1C346.4,90,356.58,82.63,358,71.61l1.39-11C347.28,61.87,334.38,59.85,323.8,58.61Z"/><path class="cls-1" d="M359.37,60.57l2.53-33.79a8.72,8.72,0,0,0-7.29-9.94L333.9,14.22c-5.1-.64-9.63,3.61-9.61,9l-.51,35.36h0C334.38,59.85,347.28,61.87,359.37,60.57Z"/><path class="cls-3" d="M314,61.29c-.94-.46-.73,5.45-1.82,7.71s-.83,8,.11,8.46,3-4.29,3.29-6.82S315,61.74,314,61.29Z"/><path class="cls-3" d="M353.32,65.73c-.73-.76-2.58,4.85-4.39,6.59s-3.57,7.22-2.85,8,4.34-3,5.46-5.24S354,66.48,353.32,65.73Z"/></g><g id="ART-strokes"><path class="cls-4" d="M310.26,86.29c-2.68-.31-5.35-.64-8-1-1.33-.19-2.66-.39-4-.61l-2-.33a17.74,17.74,0,0,1-2.36-.6,14,14,0,0,1-9.56-14.57v.17c-.15-5-.4-10-.68-14.92s-.64-9.93-1.26-14.87-1.49-9.86-2.31-14.78-1.52-9.85-1.92-14.81L278,7.21h2.7q5.16,0,10.31.23c3.44.16,6.87.39,10.31.64,6.87.5,13.74,1.06,20.61,1.22h.42l0,.4c-.2,6.69-.13,13.38,0,20.07s.37,13.38.66,20.07.62,13.37.84,20.06l.09,2.51,0,1.26a13.71,13.71,0,0,1,0,1.55,12,12,0,0,1-2.2,6,12.31,12.31,0,0,1-5,4.08A12.54,12.54,0,0,1,310.26,86.29Zm.69-6a6.91,6.91,0,0,0,6.2-2.5,7.19,7.19,0,0,0,1.5-3.22,8.17,8.17,0,0,0,.1-1l.07-1.25L319,69.9c.33-6.69.79-13.37,1.2-20.06s.78-13.37,1-20.06.41-13.38.33-20.07l.4.41c-6.87.16-13.74.72-20.61,1.23-3.44.24-6.87.48-10.31.63s-6.87.22-10.31.23l2.49-2.7c.45,5,.59,9.93.62,14.92s0,10,.22,15,.75,9.91,1.28,14.86,1.17,9.89,1.86,14.82v.16a10.45,10.45,0,0,0,2.54,6.36,10.24,10.24,0,0,0,5.59,3.26,12.06,12.06,0,0,0,1.6.2l2,.14c1.35.09,2.69.2,4,.32C305.6,79.73,308.28,80,311,80.33Z"/><path class="cls-4" d="M335.47,90.28l-2.61-.68c-.45-.11-.84-.21-1.34-.36a15.16,15.16,0,0,1-1.6-.56,13.26,13.26,0,0,1-5.3-4,14.06,14.06,0,0,1-2.76-5.86,14.56,14.56,0,0,1,.05-6.27l0,.28c.5-7.26,1-14.53,1.3-21.8a195.9,195.9,0,0,0,0-21.81c-.1-1.82-.25-3.63-.38-5.45a11.62,11.62,0,0,1-.07-1.5,10.82,10.82,0,0,1,.14-1.61,10.59,10.59,0,0,1,1-3.11,10.47,10.47,0,0,1,4.72-4.72,10,10,0,0,1,3.35-1,10.47,10.47,0,0,1,1.77,0c.65.05,1,.11,1.47.16q5.42.68,10.79,1.61c1.79.31,3.58.66,5.37,1l2.68.53a13,13,0,0,1,3,.85,9.64,9.64,0,0,1,4.51,4.22,11.25,11.25,0,0,1,1,2.82,11.21,11.21,0,0,1,.17,2.94c-.52,3.7-1,7.24-1.3,10.88-.66,7.24-1.09,14.51-1.47,21.78l-.43,10.92c0,.93,0,1.78-.11,2.77a20.29,20.29,0,0,1-.44,2.93,20.64,20.64,0,0,1-2.12,5.59,19.88,19.88,0,0,1-8.87,8.3A18.83,18.83,0,0,1,335.47,90.28Zm1.44-5.67a14.88,14.88,0,0,0,8.92-.46,16.64,16.64,0,0,0,7.5-5.6,17.24,17.24,0,0,0,2.41-4.3,20,20,0,0,0,.73-2.39c.19-.8.27-1.77.42-2.65l1.47-10.81c.89-7.21,1.73-14.43,2.34-21.68.28-3.6.51-7.31.59-10.85a8.1,8.1,0,0,0-1.6-4.61,7.1,7.1,0,0,0-3.76-2.6,10.65,10.65,0,0,0-2.36-.27l-2.73-.16c-1.81-.1-3.63-.21-5.45-.36-3.62-.28-7.24-.66-10.85-1.12a11.29,11.29,0,0,0-2.19-.18,6.69,6.69,0,0,0-1.89.42,7.2,7.2,0,0,0-3.2,2.52,7.68,7.68,0,0,0-1,1.93,6.61,6.61,0,0,0-.29,1.08,11.63,11.63,0,0,0-.16,1.23c-.16,1.81-.35,3.63-.49,5.45A198.47,198.47,0,0,0,324.88,51c.14,7.27.53,14.55.9,21.83l0,.28a11.3,11.3,0,0,0,.65,4.43,10,10,0,0,0,2.27,3.6,9.09,9.09,0,0,0,3.38,2.21,8.15,8.15,0,0,0,1,.29l1.28.31Z"/></g></svg>