<svg xmlns="http://www.w3.org/2000/svg" viewBox="0 0 640 160"><defs><style>.cls-1{fill:#5b2e42;}.cls-2{fill:#7f4a60;}.cls-3{fill:aqua;}.cls-4{fill:#0d0a09;}</style></defs><g id="ART-fills"><path class="cls-1" d="M352.82,65c5.11-5.58,9.9-12.6,9.9-20.79H277.28c0,7,3.55,13.23,7.79,18.38C307.61,59.23,330.48,60.8,352.82,65Z"/><path class="cls-2" d="M285.07,62.61a77.42,77.42,0,0,0,6.18,6.57C299.08,76.74,310.22,80,320,80s20.92-3.23,28.75-10.79c1.33-1.28,2.71-2.67,4.07-4.16C330.48,60.8,307.61,59.23,285.07,62.61Z"/><path class="cls-3" d="M292.16,67.89a131.64,131.64,0,0,0,13.21,6.55c1.1.5,2.22.84,3.33,1.23a31.48,31.48,0,0,0,3.34,1,14,14,0,0,0,1.66.34l1.66.28c.56.09,1.11.08,1.67.13s1.1.11,1.65.08a64.77,64.77,0,0,0,6.64-.24c.56-.06,1.13-.13,1.69-.21s1.11-.29,1.67-.44,1.11-.31,1.67-.49l1.64-.63a64.15,64.15,0,0,0,12.63-6.91l0,0a3.25,3.25,0,0,1,3.66,5.37l-.11.07a97.42,97.42,0,0,1-13.84,7.45l-1.86.76c-.63.23-1.29.42-1.93.63l-1.94.66c-.67.17-1.33.35-2,.54a23.67,23.67,0,0,1-8.35.92,37.86,37.86,0,0,1-15.49-5.21,74.78,74.78,0,0,1-12.47-9.22,1.59,1.59,0,0,1,1.82-2.59Z"/></g><g id="ART-strokes"><path class="cls-4" d="M320,44.47c-3.56.35-7.12.71-10.68,1s-7.13.54-10.69.77l-5.34.35-5.34.28c-3.56.18-7.12.4-10.68.53l3.15-3.14a22.76,22.76,0,0,0,4.69,12.2,49,49,0,0,0,4.46,5.43c.82.87,1.66,1.72,2.54,2.57l1.32,1.26.67.62.64.54a36.22,36.22,0,0,0,11.72,6.57A42,42,0,0,0,320,75.58a41.48,41.48,0,0,0,13.53-2.16,36,36,0,0,0,6.21-2.76,32,32,0,0,0,5.52-3.8l.64-.54.66-.62,1.33-1.27c.88-.84,1.72-1.69,2.54-2.56a51.16,51.16,0,0,0,4.46-5.43,22.79,22.79,0,0,0,4.69-12.21l3.14,3.13c-3.56-.14-7.12-.35-10.68-.53l-5.34-.28-5.34-.35c-3.56-.23-7.12-.46-10.67-.76S323.57,44.81,320,44.47Zm0-.49,42.71-.1h.34v.35a26.4,26.4,0,0,1-4.74,14.44,64.46,64.46,0,0,1-10.05,11.51,38.56,38.56,0,0,1-13.19,7.72,45.7,45.7,0,0,1-30.16,0,38.47,38.47,0,0,1-13.19-7.72,64.11,64.11,0,0,1-10.05-11.51,26.4,26.4,0,0,1-4.74-14.44v-.35h.34Z"/></g></svg>