<svg id="ART-fills" xmlns="http://www.w3.org/2000/svg" viewBox="0 0 640 320"><defs><style>.cls-1{fill:#00007f;}.cls-2{fill:#fcfcfc;}.cls-3{fill:none;stroke:#0d0a09;stroke-miterlimit:10;stroke-width:13.56px;}</style></defs><path class="cls-1" d="M462.11,245.57c4.31,5.48-.59,22-27.74,22-21.19,0-54.31-8.95-54.31-15.81s17.18-12.41,38.37-12.41S456.8,238.79,462.11,245.57Z"/><path class="cls-1" d="M179.58,245.57c-4.3,5.48.59,22,27.75,22,21.19,0,54.31-8.95,54.31-15.81s-17.18-12.41-38.37-12.41S184.9,238.79,179.58,245.57Z"/><path class="cls-2" d="M449.8,174.26A25.5,25.5,0,0,1,457.41,185c.32.85,1.85,1.27,1.8.5-.39-5.55-4.53-11.89-11.23-16.28s-14.42-5.66-19.68-3.65c-.72.28.33,1.52,1.22,1.44C435.6,166.49,443.13,168.37,449.8,174.26Z"/><path class="cls-2" d="M400,231.15a25.5,25.5,0,0,1-7.61-10.75c-.32-.85-1.85-1.27-1.8-.5.39,5.55,4.53,11.9,11.23,16.28s14.43,5.66,19.68,3.65c.73-.27-.33-1.52-1.22-1.44C414.23,238.93,406.71,237,400,231.15Z"/><path class="cls-2" d="M244.27,174.26a25.56,25.56,0,0,1,7.6,10.75c.32.85,1.86,1.27,1.8.5-.38-5.55-4.52-11.89-11.23-16.28s-14.42-5.66-19.67-3.65c-.73.28.33,1.52,1.22,1.44C230.07,166.49,237.59,168.37,244.27,174.26Z"/><path class="cls-2" d="M194.49,231.15a25.56,25.56,0,0,1-7.6-10.75c-.32-.85-1.86-1.27-1.8-.5.39,5.55,4.52,11.9,11.23,16.28s14.42,5.66,19.68,3.65c.72-.27-.34-1.52-1.23-1.44C208.69,238.93,201.17,237,194.49,231.15Z"/><path class="cls-3" d="M269.52,193.83S284.11,178,320.22,178s52,15,52,15"/><circle class="cls-3" cx="217.51" cy="201.47" r="53.73"/><circle class="cls-3" cx="424.19" cy="201.47" r="53.73"/></svg>