<svg xmlns="http://www.w3.org/2000/svg" viewBox="0 0 640 160"><defs><style>.cls-1{fill:#fff6e9;}.cls-2{fill:#ddd6ce;}.cls-3{fill:#fcfcfc;}.cls-4{fill:#0d0a09;}</style></defs><g id="ART-fills"><path class="cls-1" d="M228.28,68l.25,6.77c1.29,8.42,4.48,13.86,10.77,14.73l10.25.56c8.61,1.18,14.07,2.63,17.87-8.79C259,68.86,243.37,66.48,228.28,68Z"/><path class="cls-2" d="M267.42,81.3a81.4,81.4,0,0,0,2.84-13v-40c0-5.82-4-10.55-8.95-10.55h-22c-5.42,0-12.92,4.27-12.18,10.6L228.28,68C243.37,66.48,259,68.86,267.42,81.3Z"/><path class="cls-3" d="M239.49,84.79c1,0-1.62-5.26-1.58-7.77s-2.59-7.62-3.63-7.64-1,5.16-.15,7.57S238.44,84.77,239.49,84.79Z"/></g><g id="ART-strokes"><path class="cls-4" d="M249.24,93.33c-1.68-.11-3.37-.18-5.06-.31s-3.37-.25-5.05-.41l-.24,0h0a12.9,12.9,0,0,1-5.78-2.46,14.17,14.17,0,0,1-3.82-4.68,21.68,21.68,0,0,1-1.83-5.2,39.19,39.19,0,0,1-.76-5.16l0-.23c.15-3.88.24-7.76.34-11.63s.07-7.75,0-11.63-.15-7.74-.46-11.61-.81-7.72-1.29-11.58v.16a9.22,9.22,0,0,1,.07-3.77,10.38,10.38,0,0,1,1.53-3.44,14.09,14.09,0,0,1,5.4-4.6,15.59,15.59,0,0,1,6.85-1.7c2.05,0,4,.07,6,.15,4,.15,8,.45,11.93.78l3,.25,1.53.13a9,9,0,0,1,1.72.34,10,10,0,0,1,5.25,3.94,12.82,12.82,0,0,1,2.1,5.89,25.82,25.82,0,0,1,0,3c0,1,0,2,0,3,0,4,.05,8,.14,11.92.18,8,.61,15.91,1.09,23.86h0v.23c-.26,3-.59,6.08-1.12,9.16a46.25,46.25,0,0,1-1,4.62A26.77,26.77,0,0,1,268,87.05a13.62,13.62,0,0,1-3.45,4.48,11,11,0,0,1-2.69,1.59,12.77,12.77,0,0,1-2.91.76,23.32,23.32,0,0,1-5.22,0c-.81-.08-1.58-.18-2.34-.27Zm.62-6.48,2.38.35c.73.1,1.45.21,2.14.29a18.15,18.15,0,0,0,3.79.2,5.48,5.48,0,0,0,2.72-.88,8.21,8.21,0,0,0,2.24-2.46,33,33,0,0,0,3.27-7.66c.89-2.78,1.62-5.67,2.27-8.58v.24c.48-7.95.91-15.9,1.09-23.86.09-4,.16-8,.14-11.92,0-1,0-2-.05-3a17.17,17.17,0,0,0-.19-2.9,10,10,0,0,0-2.4-5,7.34,7.34,0,0,0-4.52-2.48,5.72,5.72,0,0,0-1.24,0l-1.45.12-3,.25c-4,.32-7.95.63-11.93.78-2,.08-4,.13-5.93.15a13.21,13.21,0,0,0-4.65,1.11c-3,1.31-5.61,3.54-5.62,6.58v.16c-.25,3.88-.51,7.76-.58,11.64s.08,7.75.25,11.61.43,7.74.74,11.61.66,7.72,1,11.59l0-.23A34.36,34.36,0,0,0,231.72,79a18.6,18.6,0,0,0,2,3.85,8.74,8.74,0,0,0,2.69,2.61,7.75,7.75,0,0,0,3.32,1l-.26,0c1.74,0,3.47.08,5.21.16S248.13,86.76,249.86,86.85Z"/></g></svg>