<svg id="ART-fills" xmlns="http://www.w3.org/2000/svg" viewBox="0 0 640 160"><defs><style>.cls-1{fill:maroon;}.cls-2{fill:#0d0a09;}.cls-3{fill:#ff0;}</style></defs><path class="cls-1" d="M385.05,64.62c4.28,1.78,11.06-.15,12.69-2.83s-.53-6.29-4.82-8.07-6.85-.13-8.47,2.55S380.77,62.84,385.05,64.62Z"/><path class="cls-2" d="M385.09,64.53a7.11,7.11,0,0,0,2.66.47,12.5,12.5,0,0,0,2.66-.42,31.33,31.33,0,0,0,4.89-1.71,5.7,5.7,0,0,0,2-1.39,3,3,0,0,0,.6-2.31,5.76,5.76,0,0,0-3.23-3.9,11.37,11.37,0,0,0-2.42-1,8.15,8.15,0,0,0-2.44-.38A4.83,4.83,0,0,0,385.92,56a22.76,22.76,0,0,0-1.44,2.14,16.41,16.41,0,0,0-1.21,2.25,3.29,3.29,0,0,0-.12,2.41A3.68,3.68,0,0,0,385.09,64.53Zm-.08.18a5.5,5.5,0,0,1-2.33-1.64,4.42,4.42,0,0,1-.7-3,8.27,8.27,0,0,1,.8-2.87,14.43,14.43,0,0,1,1.46-2.56,7,7,0,0,1,2.43-2,6.23,6.23,0,0,1,3.18-.59,9.79,9.79,0,0,1,5.41,2.31,9.14,9.14,0,0,1,3.26,4.69,4.67,4.67,0,0,1-.3,3,6,6,0,0,1-2.09,2.26,10.18,10.18,0,0,1-2.7,1.2,11.23,11.23,0,0,1-2.88.34A17.25,17.25,0,0,1,385,64.71Z"/><path class="cls-3" d="M388.52,62.43c2.06.84,5.54-.58,6.48-2.2s0-3.62-2.05-4.46-3.42.23-4.36,1.85S386.46,61.6,388.52,62.43Z"/></svg>