<svg xmlns="http://www.w3.org/2000/svg" viewBox="0 0 640 320"><defs><style>.cls-1{fill:aqua;}.cls-2{fill:blue;}.cls-3{fill:#00007f;}.cls-4{fill:#fcfcfc;}.cls-5{fill:#0d0a09;}</style></defs><g id="ART-fills"><path class="cls-1" d="M337,30.28c22.49,5.14,36.72,23.49,48.53,43.65-5.39-35-30.92-61.48-61.63-61.48-32.19,0-58.71,29.12-62.27,66.6C274.18,47.93,301.71,21,337,30.28Z"/><path class="cls-2" d="M337,30.28C301.71,21,274.18,47.93,261.63,79.05c-.27,2.83-.43,5.71-.43,8.63H386.59a91.15,91.15,0,0,0-1.06-13.75C373.72,53.77,359.49,35.42,337,30.28Z"/><path class="cls-2" d="M477,104.28c-17.16-18.8-42.34-19.56-65.16-13.75a77.38,77.38,0,0,0-8.36,7.24l76.57,76.57a77.27,77.27,0,0,0,5.64-6.3C492.19,146.4,492.72,122.77,477,104.28Z"/><path class="cls-1" d="M487.71,90.11c-11-11-26.41-15.31-42.26-13.42a70.33,70.33,0,0,0-33.61,13.84c22.82-5.81,48-5,65.16,13.75,15.72,18.49,15.19,42.12,8.69,63.76a76.14,76.14,0,0,0,6.59-9.6C505.82,135,504.76,107.17,487.71,90.11Z"/><path class="cls-1" d="M486.28,185.71c25.53-7.54,51.31,3.6,57.58,24.86s-9.32,44.62-34.84,52.16"/><path class="cls-2" d="M171.27,104.28c17.16-18.8,42.33-19.56,65.15-13.75a76.52,76.52,0,0,1,8.37,7.24l-76.57,76.57a75.45,75.45,0,0,1-5.64-6.3C156.08,146.4,155.55,122.77,171.27,104.28Z"/><path class="cls-1" d="M160.56,90.11c11-11,26.41-15.31,42.26-13.42a70.34,70.34,0,0,1,33.6,13.84c-22.82-5.81-48-5-65.15,13.75-15.72,18.49-15.19,42.12-8.69,63.76a76.14,76.14,0,0,1-6.59-9.6C142.45,135,143.51,107.17,160.56,90.11Z"/><path class="cls-1" d="M162,185.71c-25.52-7.54-51.3,3.6-57.58,24.86s9.33,44.62,34.85,52.16"/><path class="cls-3" d="M141.22,273.29a13.16,13.16,0,0,0,5.94-3.49,15.16,15.16,0,0,0,3.6-5.65,12.36,12.36,0,0,0,.55-6.53,9.36,9.36,0,0,0-3.22-5.56,5.31,5.31,0,1,1,8.61-3.65l-.08.78c-.31,3.12-.54,5.86-1,8.49a49,49,0,0,1-2,7.47c-.83,2.38-1.81,4.69-2.86,7.05s-2.16,4.72-3.17,7.49l-.16.43a5.2,5.2,0,1,1-6.17-6.83Z"/><path class="cls-3" d="M154.71,196.51a28.06,28.06,0,0,0,10.84-2.88,26.25,26.25,0,0,0,8.76-6.74,17.67,17.67,0,0,0,4.16-9.81,15.09,15.09,0,0,0-2.73-9.91,4.79,4.79,0,1,1,8.7-2.68v.35A44.88,44.88,0,0,1,182.65,178a32.77,32.77,0,0,1-6,10.84,61.19,61.19,0,0,1-8.74,8.44c-3.16,2.58-6.48,5-9.86,7.64l-.13.1a4.75,4.75,0,1,1-3.18-8.47Z"/><path class="cls-3" d="M237.15,103a27.63,27.63,0,0,0,10.67,3,26.22,26.22,0,0,0,10.86-1.31,18.18,18.18,0,0,0,8.61-6.17,15.57,15.57,0,0,0,3.06-9.75,4.78,4.78,0,1,1,8.72,2.56l-.17.23a48.43,48.43,0,0,1-8.54,9.92,34.26,34.26,0,0,1-10.67,6,61.69,61.69,0,0,1-11.7,2.78c-4,.62-8,1-12.29,1.55l-.15,0a4.75,4.75,0,1,1,1.6-8.9Z"/><path class="cls-3" d="M500.72,279.69c-1-2.77-2.14-5.12-3.17-7.49s-2-4.67-2.87-7.05a49,49,0,0,1-2-7.47c-.5-2.63-.73-5.37-1-8.49l-.07-.74a5.31,5.31,0,1,1,8.6,3.61,9.36,9.36,0,0,0-3.22,5.56,12.36,12.36,0,0,0,.55,6.53,15.16,15.16,0,0,0,3.6,5.65,13.16,13.16,0,0,0,5.94,3.49,5.21,5.21,0,1,1-6.17,6.86Z"/><path class="cls-3" d="M490.25,204.88c-3.38-2.68-6.71-5.06-9.86-7.64a61.19,61.19,0,0,1-8.74-8.44,33,33,0,0,1-6-10.84,45.22,45.22,0,0,1-1.77-13.12v-.35a4.79,4.79,0,1,1,8.7,2.68,15.09,15.09,0,0,0-2.74,9.91,17.76,17.76,0,0,0,4.17,9.81,26.15,26.15,0,0,0,8.76,6.74,28.06,28.06,0,0,0,10.84,2.88,4.75,4.75,0,0,1-.45,9.49,4.64,4.64,0,0,1-2.73-1Z"/><path class="cls-3" d="M412.56,111.91c-4.24-.58-8.28-.93-12.28-1.55a61.69,61.69,0,0,1-11.7-2.78,34.26,34.26,0,0,1-10.67-6,48.43,48.43,0,0,1-8.54-9.92l-.17-.23a4.79,4.79,0,1,1,8.72-2.56A15.57,15.57,0,0,0,381,98.59a18.15,18.15,0,0,0,8.6,6.17,26.27,26.27,0,0,0,10.87,1.31,27.63,27.63,0,0,0,10.67-3,4.76,4.76,0,1,1,1.59,8.9Z"/><path class="cls-4" d="M331.82,22.23A46.15,46.15,0,0,1,354,31c1.33,1,4.08.09,3.23-1-6.1-8-18.67-13.57-33.2-13.57-14.77,0-27.52,5.71-33.5,14-.82,1.13,2,2,3.29,1C302.54,24.51,315.84,19.91,331.82,22.23Z"/><path class="cls-4" d="M478.42,99a46.09,46.09,0,0,1,13.79,19.49c.58,1.53,3.37,2.3,3.27.9-.7-10.07-8.21-21.57-20.37-29.52-12.36-8.08-26.16-10.27-35.69-6.63-1.31.51.6,2.76,2.22,2.62C452.66,84.93,466.31,88.35,478.42,99Z"/><path class="cls-4" d="M531.6,210A34.41,34.41,0,0,1,538,226.58c.13,1.22,2,2.29,2.19,1.26,1.34-7.41-2-17.09-9.28-25.07s-17-12.23-24.55-11.35c-1,.12-.07,2.1,1.12,2.29C515.6,195,524.82,200,531.6,210Z"/><path class="cls-4" d="M169.85,99a46.12,46.12,0,0,0-13.8,19.49c-.57,1.53-3.36,2.3-3.26.9.7-10.07,8.21-21.57,20.37-29.52,12.36-8.08,26.16-10.27,35.69-6.63,1.31.51-.61,2.76-2.22,2.62C195.6,84.93,182,88.35,169.85,99Z"/><path class="cls-4" d="M116.66,210a34.49,34.49,0,0,0-6.37,16.61c-.13,1.22-2,2.29-2.19,1.26-1.35-7.41,2-17.09,9.28-25.07s17-12.23,24.55-11.35c1,.12.07,2.1-1.12,2.29C132.67,195,123.44,200,116.66,210Z"/></g><g id="ART-strokes"><path class="cls-5" d="M165.39,177.17A88.63,88.63,0,0,1,152,156.77a73.75,73.75,0,0,1-6.65-23.19,59.27,59.27,0,0,1,2.06-23.88A48.45,48.45,0,0,1,180.15,77,59.3,59.3,0,0,1,204,74.91a73.75,73.75,0,0,1,23.19,6.65,88.58,88.58,0,0,1,20.4,13.38,4,4,0,1,1-5.23,6.08,5.7,5.7,0,0,1-.43-.42,65.08,65.08,0,0,0-38.44-21.9A52.78,52.78,0,0,0,181,79.79a43.51,43.51,0,0,0-30.73,30.74,52.62,52.62,0,0,0-1.09,22.54,65.2,65.2,0,0,0,21.89,38.44,4,4,0,0,1-5.24,6.08A5.55,5.55,0,0,1,165.39,177.17Z"/><path class="cls-5" d="M382.59,87.68a79.72,79.72,0,0,0-2.65-25.91,73.4,73.4,0,0,0-11.3-23.67,61.49,61.49,0,0,0-19.47-17.58,50.79,50.79,0,0,0-50.55,0,61.41,61.41,0,0,0-19.48,17.58,73.42,73.42,0,0,0-11.29,23.68,79.45,79.45,0,0,0-2.65,25.91,4,4,0,0,1-8,.53,4.68,4.68,0,0,1,0-.53,100.57,100.57,0,0,1,5.53-27.53A84.34,84.34,0,0,1,276.1,35.77a68.26,68.26,0,0,1,21.11-17.84,55.74,55.74,0,0,1,53.38,0,68.19,68.19,0,0,1,21.12,17.85,84.52,84.52,0,0,1,13.37,24.37,100.69,100.69,0,0,1,5.51,27.54,4,4,0,1,1-8,.52A4.51,4.51,0,0,1,382.59,87.68Z"/><path class="cls-5" d="M160.85,189.54a46.73,46.73,0,0,0-32.33-1.17,38.24,38.24,0,0,0-14.21,8.52,31.6,31.6,0,0,0-9.91,22.29,33.37,33.37,0,0,0,.88,8.27,38.33,38.33,0,0,0,7.3,14.87,46.61,46.61,0,0,0,27.8,16.57,4,4,0,0,1-1.47,7.91,4.5,4.5,0,0,1-.74-.21l-.06,0c-11.5-4.59-21.76-12-28.59-22a45.19,45.19,0,0,1-7.1-16.49,36.58,36.58,0,0,1,9.81-33.27,45.21,45.21,0,0,1,14.93-10,55.89,55.89,0,0,1,17.62-4.13,68.75,68.75,0,0,1,18.34,1.2h0a4,4,0,1,1-2.29,7.67Z"/><path class="cls-5" d="M477.22,171.51a65.2,65.2,0,0,0,21.89-38.44A52.62,52.62,0,0,0,498,110.53a43.56,43.56,0,0,0-30.73-30.74,52.78,52.78,0,0,0-22.54-1.09c-15,2.4-28.75,10.64-38.45,21.9a4,4,0,0,1-6.08-5.24,4.26,4.26,0,0,1,.43-.42,88.58,88.58,0,0,1,20.4-13.38,73.75,73.75,0,0,1,23.19-6.65A59.3,59.3,0,0,1,468.12,77a48.45,48.45,0,0,1,32.74,32.73,59.45,59.45,0,0,1,2.06,23.88,73.75,73.75,0,0,1-6.65,23.19,89,89,0,0,1-13.39,20.4,4,4,0,0,1-6.08-5.24C476.93,171.79,477.08,171.64,477.22,171.51Z"/><path class="cls-5" d="M485.15,181.87a68.75,68.75,0,0,1,18.34-1.2,55.89,55.89,0,0,1,17.62,4.13,45.07,45.07,0,0,1,14.92,10,36.55,36.55,0,0,1,9.82,33.27,45.19,45.19,0,0,1-7.1,16.49c-6.83,10-17.09,17.41-28.6,22l0,0a4,4,0,0,1-3-7.47,4.35,4.35,0,0,1,.76-.22,46.61,46.61,0,0,0,27.8-16.57,38.33,38.33,0,0,0,7.3-14.87,34.35,34.35,0,0,0,.88-8.27,32.77,32.77,0,0,0-1.28-8.23A32.23,32.23,0,0,0,534,196.89a38.12,38.12,0,0,0-14.2-8.52,46.73,46.73,0,0,0-32.33,1.17,4,4,0,0,1-3.06-7.44,4.25,4.25,0,0,1,.75-.22Z"/></g></svg>