<svg xmlns="http://www.w3.org/2000/svg" viewBox="0 0 640 160"><defs><style>.cls-1{fill:#fff6e9;}.cls-2{fill:#ddd6ce;}.cls-3{fill:#ded7cf;}.cls-4{fill:#0d0a09;}</style></defs><g id="ART-fills"><path class="cls-1" d="M249.58,77.44c-1.77-7.07-12.12-5.55-20-7.17,3.39,28.83,10.17,47.3,18,66.76,5.26,13,13.31,9.45,12.78-5.55-.21-5.86-.17-11.92,0-18C255.67,102.22,254.56,88.67,249.58,77.44Z"/><path class="cls-2" d="M249.58,77.44c5,11.23,6.09,24.78,10.81,36.06C261.53,81.13,267.66,49,267.66,49S268,26,249,16.47c-6.61-3.32-11.58-.69-15.08,3.37-4.57,5.3-6.82,16.56-6.12,29.85.39,7.44,1,14.26,1.72,20.58C237.46,71.89,247.81,70.37,249.58,77.44Z"/><path class="cls-2" d="M383.58,71.44c7.9-8.56,17.11-3.24,26.48,2,.93-7.2,1.65-15,2.11-23.72.7-13.29-1.55-24.55-6.12-29.85-3.5-4.06-8.47-6.69-15.08-3.37C372,26,372.35,49,372.35,49a503.86,503.86,0,0,1,6.58,51.81C380.22,90.52,377.34,79.06,383.58,71.44Z"/><path class="cls-1" d="M383.58,71.44c-6.24,7.62-3.36,19.08-4.65,29.4a296.45,296.45,0,0,1,.72,30.64c-.53,15,7.52,18.57,12.78,5.55,7.57-18.74,14.13-36.57,17.63-63.62C400.69,68.2,391.48,62.88,383.58,71.44Z"/><path class="cls-3" d="M250.25,126.85a104.22,104.22,0,0,1-5.89-15c-1.61-5.14-2.9-10.38-4-15.63s-1.79-10.61-2.66-15.9-1.51-10.63-2.27-15.93a.87.87,0,0,1,.74-1,.88.88,0,0,1,1,.74h0c.7,5.32,1.44,10.62,2.26,15.9s1.89,10.53,2.91,15.77,2.16,10.45,3.58,15.59A120.24,120.24,0,0,0,251,126.49a.43.43,0,0,1-.77.36Z"/><path class="cls-3" d="M248.29,100.36a102.51,102.51,0,0,1-4.2-15.59c-1-5.29-1.74-10.63-2.3-16s-.62-10.74-.9-16.1-.33-10.72-.51-16.08a.88.88,0,0,1,.85-.9.86.86,0,0,1,.89.84v0q.16,8,.5,16c.17,5.35.72,10.67,1.16,16s1,10.62,1.84,15.89a122.39,122.39,0,0,0,3.47,15.6.42.42,0,0,1-.8.26Z"/><path class="cls-3" d="M389,126.49a120.29,120.29,0,0,0,5.17-15.12c1.41-5.14,2.58-10.35,3.57-15.59S399.9,85.31,400.66,80s1.57-10.58,2.26-15.9a.87.87,0,0,1,1.73.23h0c-.75,5.3-1.45,10.62-2.27,15.93s-1.54,10.63-2.66,15.9-2.43,10.49-4,15.63a104.22,104.22,0,0,1-5.89,15,.43.43,0,0,1-.77-.36Z"/><path class="cls-3" d="M387.35,96.74a80.67,80.67,0,0,0,.77-10.06c.05-3.36-.07-6.73-.31-10.09s-.35-6.73-.72-10.08-.75-6.72-1.15-10.07a.55.55,0,0,1,.48-.61.54.54,0,0,1,.61.48h0c.4,3.35.8,6.71,1.15,10.08s.74,6.74.89,10.13.16,6.8,0,10.19a63.67,63.67,0,0,1-1.19,10.12.27.27,0,0,1-.53-.09Z"/><path class="cls-3" d="M394.28,86.23a80.67,80.67,0,0,0,.77-10.06c.05-3.36-.08-6.73-.31-10.09S394.39,59.35,394,56s-.74-6.72-1.14-10.07a.55.55,0,0,1,.48-.61.54.54,0,0,1,.61.48h0c.4,3.35.8,6.71,1.14,10.08s.75,6.74.9,10.13.16,6.8,0,10.19a63.68,63.68,0,0,1-1.2,10.12.27.27,0,0,1-.31.21A.27.27,0,0,1,394.28,86.23Z"/></g><g id="ART-strokes"><path class="cls-4" d="M251.07,12.41c2.61,3.11,5.07,5.72,7.11,8.6,1.05,1.4,2,2.82,2.93,4.26l.69,1.07c.22.36.42.74.66,1.08a11.11,11.11,0,0,0,1.69,2c1.33,1.22,3.05,2.39,4,3.94a7.13,7.13,0,0,1,1,2.47,9.62,9.62,0,0,1,.28,2.68,29.38,29.38,0,0,1-.92,5.46,17.7,17.7,0,0,0-.39,5.09v0l0,.07c-1.67,9.47-3,19-4,28.59s-1.74,19.17-2,28.77l-.1,3.6v3.6l0,3.6.07,3.59.1,3.59.21,3.57.21,3.59a35.54,35.54,0,0,1,0,3.86,20.11,20.11,0,0,1-1.94,7.95,9.92,9.92,0,0,1-1.39,2,6.52,6.52,0,0,1-2.31,1.65,5.78,5.78,0,0,1-3.1.37,6.8,6.8,0,0,1-2.6-1,12,12,0,0,1-3.27-3.18,22.87,22.87,0,0,1-2.06-3.5c-.29-.59-.55-1.19-.8-1.78l-.7-1.68-1.38-3.35a276.4,276.4,0,0,1-9.86-27.5,232,232,0,0,1-6.33-28.64c-.74-4.82-1.39-9.67-1.88-14.52-.25-2.42-.52-4.85-.69-7.28s-.42-4.81-.53-7.36a76.06,76.06,0,0,1,.7-15.25,45.15,45.15,0,0,1,1.88-7.76,24.69,24.69,0,0,1,4.16-7.75l6.87,5.92a16,16,0,0,0-2.8,4.84,37.37,37.37,0,0,0-1.75,6.22,67.38,67.38,0,0,0-1.13,13.55c0,2.27.18,4.71.28,7.08s.27,4.75.43,7.13c.33,4.75.8,9.49,1.37,14.21a212.56,212.56,0,0,0,5.33,28A270.33,270.33,0,0,0,248,131l1.3,3.36L250,136c.2.52.41,1,.64,1.53a17.31,17.31,0,0,0,1.54,2.75,7.1,7.1,0,0,0,1.8,1.91,2.16,2.16,0,0,0,.73.34.81.81,0,0,0,.44,0,3,3,0,0,0,1.3-1.4,15.43,15.43,0,0,0,1.53-6,31.28,31.28,0,0,0,.11-3.37l.06-3.64.08-3.65.16-3.64.15-3.64.23-3.62L259,110l.31-3.62c1.68-19.29,4.35-38.41,7.85-57.4V49A8.55,8.55,0,0,0,266,44.31c-.86-1.5-2-2.87-2.83-4.21A12.92,12.92,0,0,1,262.07,38a7.4,7.4,0,0,1-.58-2.18c-.17-1.53.2-3.36,0-5a5.86,5.86,0,0,0-.77-2.29,19.49,19.49,0,0,0-1.41-1.93,18.9,18.9,0,0,0-3.48-3.21,16.63,16.63,0,0,0-4.17-2.14,12.44,12.44,0,0,0-4.64-.73Z"/><path class="cls-4" d="M393,20.52a12.44,12.44,0,0,0-4.64.73,16.63,16.63,0,0,0-4.17,2.14,18.9,18.9,0,0,0-3.48,3.21,19.49,19.49,0,0,0-1.41,1.93,5.86,5.86,0,0,0-.77,2.29c-.22,1.68.15,3.51,0,5a7.4,7.4,0,0,1-.58,2.18,12.92,12.92,0,0,1-1.05,2.06c-.87,1.34-2,2.71-2.83,4.21A8.55,8.55,0,0,0,372.87,49v-.09c3.5,19,6.17,38.11,7.85,57.4L381,110l.24,3.63.23,3.62.15,3.64.16,3.64.08,3.65.06,3.64a31.28,31.28,0,0,0,.11,3.37,15.43,15.43,0,0,0,1.53,6,3,3,0,0,0,1.3,1.4.81.81,0,0,0,.44,0,2.16,2.16,0,0,0,.73-.34,7.1,7.1,0,0,0,1.8-1.91,17.31,17.31,0,0,0,1.54-2.75c.23-.5.44-1,.64-1.53l.65-1.68L392,131a270.33,270.33,0,0,0,8.9-27.18,212.56,212.56,0,0,0,5.33-28c.57-4.72,1-9.46,1.37-14.21.16-2.38.35-4.75.43-7.13s.26-4.81.28-7.08a67.38,67.38,0,0,0-1.13-13.55,37.37,37.37,0,0,0-1.75-6.22,16,16,0,0,0-2.8-4.84l6.87-5.92a24.69,24.69,0,0,1,4.16,7.75,45.15,45.15,0,0,1,1.88,7.76,76.06,76.06,0,0,1,.7,15.25c-.11,2.55-.35,4.92-.53,7.36s-.44,4.86-.69,7.28c-.49,4.85-1.14,9.7-1.88,14.52a232,232,0,0,1-6.33,28.64,276.4,276.4,0,0,1-9.86,27.5l-1.38,3.35-.69,1.68c-.26.59-.52,1.19-.81,1.78a22.87,22.87,0,0,1-2.06,3.5,12.08,12.08,0,0,1-3.26,3.18,6.92,6.92,0,0,1-2.61,1,5.78,5.78,0,0,1-3.1-.37,6.52,6.52,0,0,1-2.31-1.65,9.92,9.92,0,0,1-1.39-2,20.11,20.11,0,0,1-1.94-7.95,35.54,35.54,0,0,1,0-3.86l.21-3.59.21-3.57.1-3.59.07-3.59,0-3.6v-3.6l-.1-3.6c-.23-9.6-1-19.2-2-28.77s-2.34-19.12-4-28.59l0-.07v0a17.7,17.7,0,0,0-.39-5.09,29.38,29.38,0,0,1-.92-5.46,9.62,9.62,0,0,1,.28-2.68,7.13,7.13,0,0,1,1-2.47c1-1.55,2.7-2.72,4-3.94a11.11,11.11,0,0,0,1.69-2c.24-.34.44-.72.66-1.08l.69-1.07c.91-1.44,1.88-2.86,2.93-4.26,2-2.88,4.5-5.49,7.11-8.6Z"/></g></svg>